<svg width="22" height="23" viewBox="0 0 22 23" fill="none" xmlns="http://www.w3.org/2000/svg">
<path fill-rule="evenodd" clip-rule="evenodd" d="M10.9747 19.5195C8.00565 19.5195 5.46924 19.0499 5.46924 17.1697C5.46924 15.2894 7.98915 13.6526 10.9747 13.6526C13.9438 13.6526 16.4802 15.2741 16.4802 17.1534C16.4802 19.0327 13.9603 19.5195 10.9747 19.5195Z" stroke="#36E7FF" stroke-width="1.5" stroke-linecap="round" stroke-linejoin="round"/>
<path fill-rule="evenodd" clip-rule="evenodd" d="M10.9747 10.9717C12.9236 10.9717 14.5039 9.32051 14.5039 7.28309C14.5039 5.24567 12.9236 3.59351 10.9747 3.59351C9.0259 3.59351 7.44557 5.24567 7.44557 7.28309C7.44007 9.31284 9.00757 10.965 10.95 10.9717H10.9747Z" stroke="#36E7FF" stroke-width="1.5" stroke-linecap="round" stroke-linejoin="round"/>
<path d="M16.8321 9.95866C17.966 9.64145 18.802 8.56045 18.802 7.27341C18.802 5.93078 17.8918 4.80953 16.6799 4.55078" stroke="#36E7FF" stroke-width="1.5" stroke-linecap="round" stroke-linejoin="round"/>
<path d="M17.3645 12.98C18.9723 12.98 20.3455 14.1194 20.3455 15.1372C20.3455 15.7361 19.8716 16.3888 19.1529 16.5651" stroke="#36E7FF" stroke-width="1.5" stroke-linecap="round" stroke-linejoin="round"/>
<path d="M5.11854 9.95866C3.98371 9.64145 3.14771 8.56045 3.14771 7.27341C3.14771 5.93078 4.05887 4.80953 5.26979 4.55078" stroke="#36E7FF" stroke-width="1.5" stroke-linecap="round" stroke-linejoin="round"/>
<path d="M4.585 12.98C2.97717 12.98 1.604 14.1194 1.604 15.1372C1.604 15.7361 2.07792 16.3888 2.7975 16.5651" stroke="#36E7FF" stroke-width="1.5" stroke-linecap="round" stroke-linejoin="round"/>
</svg>
