<svg width="651" height="175" viewBox="0 0 651 175" fill="none" xmlns="http://www.w3.org/2000/svg">
<path d="M231.719 26.2C232.572 26.4533 233.225 26.8667 233.679 27.44C234.132 28.0133 234.359 28.72 234.359 29.56C234.359 30.8 233.885 31.7667 232.939 32.46C232.005 33.1533 230.665 33.5 228.919 33.5H222.019V19.5H228.539C230.165 19.5 231.432 19.8133 232.339 20.44C233.245 21.0667 233.699 21.96 233.699 23.12C233.699 23.8133 233.525 24.4267 233.179 24.96C232.832 25.48 232.345 25.8933 231.719 26.2ZM225.239 25.3H228.259C228.965 25.3 229.499 25.16 229.859 24.88C230.219 24.5867 230.399 24.16 230.399 23.6C230.399 23.0533 230.212 22.6333 229.839 22.34C229.479 22.0467 228.952 21.9 228.259 21.9H225.239V25.3ZM228.799 31.1C230.319 31.1 231.079 30.5 231.079 29.3C231.079 28.14 230.319 27.56 228.799 27.56H225.239V31.1H228.799ZM242.341 26.18C243.741 26.1933 244.801 26.5067 245.521 27.12C246.241 27.7333 246.601 28.6133 246.601 29.76C246.601 30.96 246.194 31.8867 245.381 32.54C244.568 33.1933 243.414 33.52 241.921 33.52L236.681 33.5V22.74H239.781V26.18H242.341ZM247.761 22.74H250.861V33.5H247.761V22.74ZM241.641 31.3C242.241 31.3133 242.701 31.1867 243.021 30.92C243.341 30.6533 243.501 30.2533 243.501 29.72C243.501 29.2 243.341 28.82 243.021 28.58C242.714 28.34 242.254 28.2133 241.641 28.2L239.781 28.18V31.3H241.641ZM260.089 23.48C261.115 23.48 262.015 23.6933 262.789 24.12C263.562 24.5333 264.155 25.12 264.569 25.88C264.995 26.64 265.209 27.52 265.209 28.52C265.209 29.5467 264.955 30.46 264.449 31.26C263.955 32.0467 263.262 32.66 262.369 33.1C261.475 33.5267 260.462 33.74 259.329 33.74C257.449 33.74 255.969 33.14 254.889 31.94C253.822 30.7267 253.289 28.9533 253.289 26.62C253.289 24.46 253.755 22.74 254.689 21.46C255.635 20.1667 257.082 19.32 259.029 18.92L264.149 17.9L264.569 20.58L260.049 21.48C258.822 21.72 257.909 22.12 257.309 22.68C256.722 23.24 256.375 24.0333 256.269 25.06C256.735 24.5533 257.295 24.1667 257.949 23.9C258.602 23.62 259.315 23.48 260.089 23.48ZM259.349 31.32C260.149 31.32 260.789 31.06 261.269 30.54C261.762 30.02 262.009 29.36 262.009 28.56C262.009 27.7467 261.762 27.1 261.269 26.62C260.789 26.14 260.149 25.9 259.349 25.9C258.535 25.9 257.882 26.14 257.389 26.62C256.895 27.1 256.649 27.7467 256.649 28.56C256.649 29.3733 256.902 30.04 257.409 30.56C257.915 31.0667 258.562 31.32 259.349 31.32ZM277.786 28.16C277.786 28.2 277.766 28.48 277.726 29H269.586C269.732 29.6667 270.079 30.1933 270.626 30.58C271.172 30.9667 271.852 31.16 272.666 31.16C273.226 31.16 273.719 31.08 274.146 30.92C274.586 30.7467 274.992 30.48 275.366 30.12L277.026 31.92C276.012 33.08 274.532 33.66 272.586 33.66C271.372 33.66 270.299 33.4267 269.366 32.96C268.432 32.48 267.712 31.82 267.206 30.98C266.699 30.14 266.446 29.1867 266.446 28.12C266.446 27.0667 266.692 26.12 267.186 25.28C267.692 24.4267 268.379 23.7667 269.246 23.3C270.126 22.82 271.106 22.58 272.186 22.58C273.239 22.58 274.192 22.8067 275.046 23.26C275.899 23.7133 276.566 24.3667 277.046 25.22C277.539 26.06 277.786 27.04 277.786 28.16ZM272.206 24.94C271.499 24.94 270.906 25.14 270.426 25.54C269.946 25.94 269.652 26.4867 269.546 27.18H274.846C274.739 26.5 274.446 25.96 273.966 25.56C273.486 25.1467 272.899 24.94 272.206 24.94ZM286.517 22.58C287.517 22.58 288.424 22.8133 289.237 23.28C290.064 23.7333 290.711 24.38 291.177 25.22C291.644 26.0467 291.877 27.0133 291.877 28.12C291.877 29.2267 291.644 30.2 291.177 31.04C290.711 31.8667 290.064 32.5133 289.237 32.98C288.424 33.4333 287.517 33.66 286.517 33.66C285.144 33.66 284.064 33.2267 283.277 32.36V37.38H280.157V22.74H283.137V23.98C283.911 23.0467 285.037 22.58 286.517 22.58ZM285.977 31.1C286.777 31.1 287.431 30.8333 287.937 30.3C288.457 29.7533 288.717 29.0267 288.717 28.12C288.717 27.2133 288.457 26.4933 287.937 25.96C287.431 25.4133 286.777 25.14 285.977 25.14C285.177 25.14 284.517 25.4133 283.997 25.96C283.491 26.4933 283.237 27.2133 283.237 28.12C283.237 29.0267 283.491 29.7533 283.997 30.3C284.517 30.8333 285.177 31.1 285.977 31.1ZM294.064 22.74H297.164V29.14L302.404 22.74H305.264V33.5H302.164V27.1L296.944 33.5H294.064V22.74ZM322.967 25.3H319.327V33.5H316.227V25.3H312.587V22.74H322.967V25.3ZM329.221 33.66C328.088 33.66 327.068 33.4267 326.161 32.96C325.268 32.48 324.568 31.82 324.061 30.98C323.554 30.14 323.301 29.1867 323.301 28.12C323.301 27.0533 323.554 26.1 324.061 25.26C324.568 24.42 325.268 23.7667 326.161 23.3C327.068 22.82 328.088 22.58 329.221 22.58C330.354 22.58 331.368 22.82 332.261 23.3C333.154 23.7667 333.854 24.42 334.361 25.26C334.868 26.1 335.121 27.0533 335.121 28.12C335.121 29.1867 334.868 30.14 334.361 30.98C333.854 31.82 333.154 32.48 332.261 32.96C331.368 33.4267 330.354 33.66 329.221 33.66ZM329.221 31.1C330.021 31.1 330.674 30.8333 331.181 30.3C331.701 29.7533 331.961 29.0267 331.961 28.12C331.961 27.2133 331.701 26.4933 331.181 25.96C330.674 25.4133 330.021 25.14 329.221 25.14C328.421 25.14 327.761 25.4133 327.241 25.96C326.721 26.4933 326.461 27.2133 326.461 28.12C326.461 29.0267 326.721 29.7533 327.241 30.3C327.761 30.8333 328.421 31.1 329.221 31.1ZM338.27 29.78C338.83 29.78 339.29 29.96 339.65 30.32C340.01 30.6667 340.19 31.1267 340.19 31.7C340.19 31.9667 340.157 32.2333 340.09 32.5C340.024 32.7667 339.877 33.1667 339.65 33.7L338.51 36.58H336.53L337.41 33.4C337.077 33.2667 336.81 33.0533 336.61 32.76C336.424 32.4533 336.33 32.1 336.33 31.7C336.33 31.1267 336.51 30.6667 336.87 30.32C337.244 29.96 337.71 29.78 338.27 29.78ZM357.709 22.74V33.5H354.589V29.5C353.682 29.9533 352.682 30.18 351.589 30.18C350.135 30.18 349.035 29.8533 348.289 29.2C347.555 28.5333 347.189 27.5067 347.189 26.12V22.74H350.309V25.92C350.309 26.5733 350.475 27.0467 350.809 27.34C351.155 27.6333 351.649 27.78 352.289 27.78C353.102 27.78 353.869 27.6067 354.589 27.26V22.74H357.709ZM369.745 25.3H366.105V33.5H363.005V25.3H359.365V22.74H369.745V25.3ZM375.998 33.66C374.865 33.66 373.845 33.4267 372.938 32.96C372.045 32.48 371.345 31.82 370.838 30.98C370.332 30.14 370.078 29.1867 370.078 28.12C370.078 27.0533 370.332 26.1 370.838 25.26C371.345 24.42 372.045 23.7667 372.938 23.3C373.845 22.82 374.865 22.58 375.998 22.58C377.132 22.58 378.145 22.82 379.038 23.3C379.932 23.7667 380.632 24.42 381.138 25.26C381.645 26.1 381.898 27.0533 381.898 28.12C381.898 29.1867 381.645 30.14 381.138 30.98C380.632 31.82 379.932 32.48 379.038 32.96C378.145 33.4267 377.132 33.66 375.998 33.66ZM375.998 31.1C376.798 31.1 377.452 30.8333 377.958 30.3C378.478 29.7533 378.738 29.0267 378.738 28.12C378.738 27.2133 378.478 26.4933 377.958 25.96C377.452 25.4133 376.798 25.14 375.998 25.14C375.198 25.14 374.538 25.4133 374.018 25.96C373.498 26.4933 373.238 27.2133 373.238 28.12C373.238 29.0267 373.498 29.7533 374.018 30.3C374.538 30.8333 375.198 31.1 375.998 31.1ZM398.748 25.3H395.108V33.5H392.008V25.3H388.368V22.74H398.748V25.3ZM410.422 28.16C410.422 28.2 410.402 28.48 410.362 29H402.222C402.369 29.6667 402.716 30.1933 403.262 30.58C403.809 30.9667 404.489 31.16 405.302 31.16C405.862 31.16 406.356 31.08 406.782 30.92C407.222 30.7467 407.629 30.48 408.002 30.12L409.662 31.92C408.649 33.08 407.169 33.66 405.222 33.66C404.009 33.66 402.936 33.4267 402.002 32.96C401.069 32.48 400.349 31.82 399.842 30.98C399.336 30.14 399.082 29.1867 399.082 28.12C399.082 27.0667 399.329 26.12 399.822 25.28C400.329 24.4267 401.016 23.7667 401.882 23.3C402.762 22.82 403.742 22.58 404.822 22.58C405.876 22.58 406.829 22.8067 407.682 23.26C408.536 23.7133 409.202 24.3667 409.682 25.22C410.176 26.06 410.422 27.04 410.422 28.16ZM404.842 24.94C404.136 24.94 403.542 25.14 403.062 25.54C402.582 25.94 402.289 26.4867 402.182 27.18H407.482C407.376 26.5 407.082 25.96 406.602 25.56C406.122 25.1467 405.536 24.94 404.842 24.94ZM419.034 23.48C420.061 23.48 420.961 23.6933 421.734 24.12C422.507 24.5333 423.101 25.12 423.514 25.88C423.941 26.64 424.154 27.52 424.154 28.52C424.154 29.5467 423.901 30.46 423.394 31.26C422.901 32.0467 422.207 32.66 421.314 33.1C420.421 33.5267 419.407 33.74 418.274 33.74C416.394 33.74 414.914 33.14 413.834 31.94C412.767 30.7267 412.234 28.9533 412.234 26.62C412.234 24.46 412.701 22.74 413.634 21.46C414.581 20.1667 416.027 19.32 417.974 18.92L423.094 17.9L423.514 20.58L418.994 21.48C417.767 21.72 416.854 22.12 416.254 22.68C415.667 23.24 415.321 24.0333 415.214 25.06C415.681 24.5533 416.241 24.1667 416.894 23.9C417.547 23.62 418.261 23.48 419.034 23.48ZM418.294 31.32C419.094 31.32 419.734 31.06 420.214 30.54C420.707 30.02 420.954 29.36 420.954 28.56C420.954 27.7467 420.707 27.1 420.214 26.62C419.734 26.14 419.094 25.9 418.294 25.9C417.481 25.9 416.827 26.14 416.334 26.62C415.841 27.1 415.594 27.7467 415.594 28.56C415.594 29.3733 415.847 30.04 416.354 30.56C416.861 31.0667 417.507 31.32 418.294 31.32ZM436.731 28.16C436.731 28.2 436.711 28.48 436.671 29H428.531C428.678 29.6667 429.024 30.1933 429.571 30.58C430.118 30.9667 430.798 31.16 431.611 31.16C432.171 31.16 432.664 31.08 433.091 30.92C433.531 30.7467 433.938 30.48 434.311 30.12L435.971 31.92C434.958 33.08 433.478 33.66 431.531 33.66C430.318 33.66 429.244 33.4267 428.311 32.96C427.378 32.48 426.658 31.82 426.151 30.98C425.644 30.14 425.391 29.1867 425.391 28.12C425.391 27.0667 425.638 26.12 426.131 25.28C426.638 24.4267 427.324 23.7667 428.191 23.3C429.071 22.82 430.051 22.58 431.131 22.58C432.184 22.58 433.138 22.8067 433.991 23.26C434.844 23.7133 435.511 24.3667 435.991 25.22C436.484 26.06 436.731 27.04 436.731 28.16ZM431.151 24.94C430.444 24.94 429.851 25.14 429.371 25.54C428.891 25.94 428.598 26.4867 428.491 27.18H433.791C433.684 26.5 433.391 25.96 432.911 25.56C432.431 25.1467 431.844 24.94 431.151 24.94ZM272.081 46.74H275.181V53.14L280.421 46.74H283.281V57.5H280.181V51.1L274.961 57.5H272.081V46.74ZM286.281 46.74H289.381V50.94H294.061V46.74H297.181V57.5H294.061V53.48H289.381V57.5H286.281V46.74ZM309.207 49.3H305.567V57.5H302.467V49.3H298.827V46.74H309.207V49.3ZM320.881 52.16C320.881 52.2 320.861 52.48 320.821 53H312.681C312.828 53.6667 313.175 54.1933 313.721 54.58C314.268 54.9667 314.948 55.16 315.761 55.16C316.321 55.16 316.815 55.08 317.241 54.92C317.681 54.7467 318.088 54.48 318.461 54.12L320.121 55.92C319.108 57.08 317.628 57.66 315.681 57.66C314.468 57.66 313.395 57.4267 312.461 56.96C311.528 56.48 310.808 55.82 310.301 54.98C309.795 54.14 309.541 53.1867 309.541 52.12C309.541 51.0667 309.788 50.12 310.281 49.28C310.788 48.4267 311.475 47.7667 312.341 47.3C313.221 46.82 314.201 46.58 315.281 46.58C316.335 46.58 317.288 46.8067 318.141 47.26C318.995 47.7133 319.661 48.3667 320.141 49.22C320.635 50.06 320.881 51.04 320.881 52.16ZM315.301 48.94C314.595 48.94 314.001 49.14 313.521 49.54C313.041 49.94 312.748 50.4867 312.641 51.18H317.941C317.835 50.5 317.541 49.96 317.061 49.56C316.581 49.1467 315.995 48.94 315.301 48.94ZM329.613 46.58C330.613 46.58 331.52 46.8133 332.333 47.28C333.16 47.7333 333.806 48.38 334.273 49.22C334.74 50.0467 334.973 51.0133 334.973 52.12C334.973 53.2267 334.74 54.2 334.273 55.04C333.806 55.8667 333.16 56.5133 332.333 56.98C331.52 57.4333 330.613 57.66 329.613 57.66C328.24 57.66 327.16 57.2267 326.373 56.36V61.38H323.253V46.74H326.233V47.98C327.006 47.0467 328.133 46.58 329.613 46.58ZM329.073 55.1C329.873 55.1 330.526 54.8333 331.033 54.3C331.553 53.7533 331.813 53.0267 331.813 52.12C331.813 51.2133 331.553 50.4933 331.033 49.96C330.526 49.4133 329.873 49.14 329.073 49.14C328.273 49.14 327.613 49.4133 327.093 49.96C326.586 50.4933 326.333 51.2133 326.333 52.12C326.333 53.0267 326.586 53.7533 327.093 54.3C327.613 54.8333 328.273 55.1 329.073 55.1ZM347.62 52.16C347.62 52.2 347.6 52.48 347.56 53H339.42C339.566 53.6667 339.913 54.1933 340.46 54.58C341.006 54.9667 341.686 55.16 342.5 55.16C343.06 55.16 343.553 55.08 343.98 54.92C344.42 54.7467 344.826 54.48 345.2 54.12L346.86 55.92C345.846 57.08 344.366 57.66 342.42 57.66C341.206 57.66 340.133 57.4267 339.2 56.96C338.266 56.48 337.546 55.82 337.04 54.98C336.533 54.14 336.28 53.1867 336.28 52.12C336.28 51.0667 336.526 50.12 337.02 49.28C337.526 48.4267 338.213 47.7667 339.08 47.3C339.96 46.82 340.94 46.58 342.02 46.58C343.073 46.58 344.026 46.8067 344.88 47.26C345.733 47.7133 346.4 48.3667 346.88 49.22C347.373 50.06 347.62 51.04 347.62 52.16ZM342.04 48.94C341.333 48.94 340.74 49.14 340.26 49.54C339.78 49.94 339.486 50.4867 339.38 51.18H344.68C344.573 50.5 344.28 49.96 343.8 49.56C343.32 49.1467 342.733 48.94 342.04 48.94ZM355.131 57.66C353.985 57.66 352.951 57.4267 352.031 56.96C351.125 56.48 350.411 55.82 349.891 54.98C349.385 54.14 349.131 53.1867 349.131 52.12C349.131 51.0533 349.385 50.1 349.891 49.26C350.411 48.42 351.125 47.7667 352.031 47.3C352.951 46.82 353.985 46.58 355.131 46.58C356.265 46.58 357.251 46.82 358.091 47.3C358.945 47.7667 359.565 48.44 359.951 49.32L357.531 50.62C356.971 49.6333 356.165 49.14 355.111 49.14C354.298 49.14 353.625 49.4067 353.091 49.94C352.558 50.4733 352.291 51.2 352.291 52.12C352.291 53.04 352.558 53.7667 353.091 54.3C353.625 54.8333 354.298 55.1 355.111 55.1C356.178 55.1 356.985 54.6067 357.531 53.62L359.951 54.94C359.565 55.7933 358.945 56.46 358.091 56.94C357.251 57.42 356.265 57.66 355.131 57.66ZM361.847 46.74H364.947V50.94H369.627V46.74H372.747V57.5H369.627V53.48H364.947V57.5H361.847V46.74ZM380.774 57.66C379.64 57.66 378.62 57.4267 377.714 56.96C376.82 56.48 376.12 55.82 375.614 54.98C375.107 54.14 374.854 53.1867 374.854 52.12C374.854 51.0533 375.107 50.1 375.614 49.26C376.12 48.42 376.82 47.7667 377.714 47.3C378.62 46.82 379.64 46.58 380.774 46.58C381.907 46.58 382.92 46.82 383.814 47.3C384.707 47.7667 385.407 48.42 385.914 49.26C386.42 50.1 386.674 51.0533 386.674 52.12C386.674 53.1867 386.42 54.14 385.914 54.98C385.407 55.82 384.707 56.48 383.814 56.96C382.92 57.4267 381.907 57.66 380.774 57.66ZM380.774 55.1C381.574 55.1 382.227 54.8333 382.734 54.3C383.254 53.7533 383.514 53.0267 383.514 52.12C383.514 51.2133 383.254 50.4933 382.734 49.96C382.227 49.4133 381.574 49.14 380.774 49.14C379.974 49.14 379.314 49.4133 378.794 49.96C378.274 50.4933 378.014 51.2133 378.014 52.12C378.014 53.0267 378.274 53.7533 378.794 54.3C379.314 54.8333 379.974 55.1 380.774 55.1Z" fill="white"/>
<path d="M226.11 52.2818C225.678 51.2653 226.152 50.0909 227.168 49.6587C228.185 49.2265 229.359 49.7002 229.791 50.7167L226.11 52.2818ZM10.7695 129.324C9.76169 129.776 8.57816 129.326 8.12597 128.318L0.757151 111.895C0.304963 110.888 0.755352 109.704 1.76312 109.252C2.77089 108.8 3.95442 109.25 4.40661 110.258L10.9567 124.856L25.5545 118.306C26.5623 117.853 27.7458 118.304 28.198 119.312C28.6502 120.319 28.1998 121.503 27.192 121.955L10.7695 129.324ZM104.743 80.1988L104.743 82.1988L104.743 80.1988ZM227.951 51.4993C229.791 50.7167 229.793 50.7204 229.794 50.7243C229.795 50.7257 229.797 50.7297 229.798 50.7325C229.8 50.7383 229.803 50.7445 229.805 50.7512C229.811 50.7646 229.817 50.7799 229.824 50.7971C229.837 50.8314 229.853 50.8733 229.87 50.9225C229.904 51.0208 229.945 51.1486 229.986 51.304C230.07 51.6147 230.157 52.0376 230.203 52.5568C230.295 53.6016 230.217 55.0174 229.622 56.663C228.425 59.9776 225.264 63.8923 218.044 67.6256C203.707 75.0392 172.478 82.1988 104.743 82.1988L104.743 78.1988C172.418 78.1988 202.793 71.0087 216.207 64.0725C222.863 60.6309 225.114 57.3707 225.86 55.3041C226.238 54.2591 226.264 53.4328 226.218 52.9081C226.195 52.6425 226.152 52.4488 226.123 52.3391C226.108 52.2844 226.097 52.251 226.093 52.2407C226.091 52.2356 226.092 52.2363 226.094 52.2431C226.096 52.2464 226.097 52.2513 226.1 52.2578C226.101 52.261 226.103 52.2646 226.105 52.2686C226.105 52.2706 226.107 52.2739 226.107 52.2749C226.109 52.2783 226.11 52.2818 227.951 51.4993ZM104.743 82.1988C66.7949 82.1988 43.5573 93.8723 29.835 105.381C22.9575 111.15 18.4346 116.907 15.6391 121.2C14.2414 123.346 13.2762 125.126 12.6655 126.356C12.3601 126.971 12.1435 127.448 12.0058 127.765C11.937 127.924 11.8879 128.042 11.8573 128.117C11.842 128.155 11.8314 128.181 11.8252 128.197C11.8221 128.205 11.8201 128.21 11.8193 128.212C11.8188 128.213 11.8187 128.214 11.8188 128.214C11.8188 128.213 11.8191 128.213 11.8191 128.213C11.8195 128.212 11.8199 128.211 9.9507 127.499C8.08147 126.788 8.08204 126.786 8.08267 126.785C8.08297 126.784 8.08368 126.782 8.08429 126.78C8.0855 126.777 8.087 126.773 8.08878 126.769C8.09235 126.76 8.09705 126.748 8.1029 126.733C8.11461 126.703 8.13095 126.662 8.15206 126.61C8.19429 126.506 8.25564 126.359 8.33738 126.171C8.50085 125.795 8.74595 125.256 9.08278 124.577C9.75635 123.221 10.7974 121.305 12.2871 119.017C15.2664 114.442 20.0429 108.373 27.2645 102.317C41.7403 90.1756 65.899 78.1988 104.743 78.1988L104.743 82.1988Z" fill="white"/>
<path d="M429.726 51.1243C430.153 50.1056 429.673 48.9336 428.654 48.5066C427.636 48.0795 426.464 48.5592 426.037 49.5778L429.726 51.1243ZM640.528 132.102C641.55 132.522 642.719 132.035 643.139 131.014L649.994 114.37C650.414 113.349 649.927 112.18 648.906 111.759C647.885 111.339 646.716 111.826 646.295 112.847L640.202 127.642L625.408 121.549C624.386 121.128 623.218 121.615 622.797 122.636C622.376 123.658 622.863 124.827 623.885 125.247L640.528 132.102ZM548.106 82.1748L548.023 84.1731L548.106 82.1748ZM427.881 50.3511C426.037 49.5778 426.035 49.5818 426.033 49.5859C426.033 49.5875 426.031 49.5917 426.03 49.5947C426.027 49.6008 426.025 49.6073 426.022 49.6143C426.016 49.6282 426.01 49.6439 426.004 49.6613C425.99 49.6962 425.975 49.7381 425.959 49.7869C425.926 49.8844 425.888 50.0095 425.85 50.1607C425.774 50.4631 425.698 50.8705 425.667 51.3695C425.604 52.3754 425.724 53.7229 426.347 55.2929C427.597 58.4386 430.752 62.208 437.825 65.9776C451.899 73.4774 482.35 81.4378 548.023 84.1731L548.189 80.1765C482.589 77.4442 452.927 69.4928 439.707 62.4476C433.133 58.9447 430.846 55.7833 430.065 53.8164C429.673 52.83 429.63 52.0758 429.659 51.619C429.673 51.3866 429.707 51.2225 429.729 51.1361C429.74 51.0929 429.747 51.0694 429.748 51.0668C429.749 51.0655 429.747 51.0696 429.744 51.0791C429.742 51.0838 429.74 51.09 429.737 51.0975C429.735 51.1012 429.734 51.1054 429.732 51.1098C429.731 51.1121 429.729 51.1157 429.729 51.1168C429.727 51.1205 429.726 51.1243 427.881 50.3511ZM548.023 84.1731C584.819 85.7057 607.693 97.57 621.337 108.914C628.172 114.597 632.719 120.173 635.549 124.306C636.963 126.373 637.948 128.078 638.574 129.253C638.887 129.841 639.11 130.297 639.252 130.598C639.323 130.749 639.374 130.862 639.405 130.933C639.421 130.969 639.432 130.994 639.438 131.009C639.442 131.017 639.444 131.021 639.445 131.023C639.445 131.024 639.445 131.025 639.445 131.025C639.445 131.024 639.445 131.024 639.445 131.024C639.444 131.023 639.444 131.022 641.29 130.252C643.136 129.483 643.136 129.482 643.135 129.48C643.135 129.48 643.134 129.478 643.133 129.476C643.132 129.473 643.13 129.47 643.129 129.465C643.125 129.456 643.12 129.445 643.114 129.431C643.102 129.402 643.085 129.363 643.063 129.314C643.019 129.215 642.955 129.074 642.871 128.895C642.702 128.536 642.45 128.022 642.105 127.374C641.415 126.078 640.355 124.245 638.849 122.047C635.839 117.649 631.049 111.787 623.894 105.839C609.558 93.9192 585.84 81.7447 548.189 80.1765L548.023 84.1731Z" fill="white"/>
</svg>
