<svg width="56" height="61" viewBox="0 0 56 61" fill="none" xmlns="http://www.w3.org/2000/svg">
<g clip-path="url(#clip0_109_5795)">
<path d="M28.841 0.000163388C30.5976 0.328388 32.222 1.16014 33.5183 2.39504C35.0121 3.82098 36.2399 5.50375 37.1437 7.36385C37.8673 8.8351 38.4705 10.3675 39.096 11.885C39.2312 12.2103 39.3442 12.3565 39.729 12.3013C40.4511 12.1969 41.1836 12.1655 41.9116 12.0999C42.714 12.0283 43.1538 12.2879 43.2072 12.8728C43.2607 13.4577 42.9205 13.783 42.0914 13.877C41.3663 13.9591 40.6398 14.0128 39.836 14.0859C40.0484 14.9409 40.2817 15.7511 40.4481 16.5763C40.7839 18.2863 41.0751 20.0082 41.405 21.7182C41.4462 21.9414 41.5646 22.1427 41.7393 22.2867C44.653 24.2832 47.3987 26.4811 49.8637 29.0222C49.9342 29.0678 50.0088 29.1067 50.0865 29.1386C50.7953 28.1269 51.5634 27.1302 52.2246 26.0663C53.2231 24.4578 53.9868 22.7493 54.1428 20.8169C54.3434 18.337 53.2513 16.3823 51.0063 15.2513C49.4996 14.4888 47.8861 14.1307 46.2338 13.9457C46.1358 13.9337 46.0377 13.9352 45.9367 13.9248C45.1507 13.8472 44.748 13.4935 44.7971 12.9176C44.8461 12.3416 45.274 12.0745 46.0912 12.1476C48.2322 12.3401 50.3183 12.7624 52.183 13.8875C55.3686 15.8049 56.6122 18.8697 55.7059 22.4896C55.1323 24.7756 54.0016 26.7885 52.6258 28.673C52.18 29.2803 51.7105 29.8667 51.2633 30.4472C52.1325 31.6946 53.0463 32.8853 53.8337 34.1641C55.0877 36.2128 56.0149 38.4003 55.9778 40.8698C55.9466 42.911 55.1962 44.6628 53.6614 46.0266C53.5089 46.1426 53.3923 46.2996 53.325 46.4795C53.2577 46.6593 53.2424 46.8546 53.281 47.0427C53.5589 49.3869 52.2409 51.6146 50.1385 52.4293C47.8712 53.3082 45.4449 52.595 44.0467 50.597C43.7109 50.1165 43.494 49.5525 43.2087 48.9974C42.0424 48.8974 40.821 48.8124 39.6057 48.6781C39.2208 48.6363 39.1881 48.8706 39.1049 49.1123C38.3293 51.3266 37.374 53.4544 36.1021 55.43C35.1527 56.9042 34.0606 58.2651 32.6461 59.3096C29.526 61.6328 26.067 61.5478 23.0612 59.0783C21.2411 57.5861 19.9009 55.6926 18.8579 53.6036C18.1358 52.1548 17.5459 50.6358 16.9263 49.1362C16.7852 48.7915 16.6529 48.5886 16.2548 48.702C16.1192 48.7317 15.9802 48.7427 15.8417 48.7348C15.3127 48.7348 15.0364 48.9154 14.8789 49.5018C14.2846 51.74 11.9355 53.3291 9.69789 53.1082C7.10516 52.8531 5.19738 51.0014 4.97005 48.514C4.92547 48.0186 4.87794 47.6187 4.31185 47.3382C0.54533 45.4253 -0.873627 41.7397 0.509657 37.7154C1.2231 35.6712 2.26124 33.7564 3.5838 32.0453C3.96862 31.5409 4.35642 31.0411 4.77244 30.492C4.30887 29.8951 3.82598 29.2982 3.37578 28.676C1.92564 26.6721 0.701328 24.5473 0.213984 22.0853C-0.558635 18.2057 1.08319 15.0319 4.68478 13.41C6.80949 12.452 9.07237 12.0865 11.3709 12.0566C12.986 12.0372 14.6055 12.1805 16.2206 12.2879C16.5995 12.3133 16.8312 12.2685 16.8966 11.8641C16.9068 11.8054 16.9269 11.7489 16.956 11.697C17.3008 11.1002 17.1715 10.6928 16.647 10.1914C14.9071 8.52921 14.6887 5.76726 16.0423 3.75139C17.3958 1.73551 20.0703 0.934235 22.2827 1.91606C22.6675 2.08616 22.9171 2.06528 23.2232 1.79669C24.3613 0.822327 25.7089 0.29113 27.1576 -0.00878906L28.841 0.000163388ZM40.246 30.5039C40.1094 28.2433 39.9771 26.0066 39.836 23.7684C39.8137 23.4177 39.7661 23.1163 39.3902 22.8836C35.8989 20.7062 32.219 18.8499 28.3953 17.3373C28.1458 17.2485 27.8736 17.2485 27.6241 17.3373C24.2365 18.6698 21.0034 20.3141 17.8475 22.136C16.7109 22.791 16.1433 23.4879 16.0556 24.8935C15.7971 29.0714 15.7912 33.2211 16.2161 37.3752C16.2401 37.5211 16.2928 37.6608 16.3712 37.7861C16.4495 37.9113 16.5518 38.0197 16.6723 38.1048C20.1087 40.2929 23.7499 42.1385 27.5439 43.6153C27.8451 43.7205 28.1728 43.7205 28.474 43.6153C32.2262 42.1404 35.836 40.3233 39.258 38.1869C39.6413 37.9511 39.8152 37.6945 39.8389 37.2573C39.9652 35.0027 40.1079 32.7451 40.2446 30.5039H40.246ZM37.4854 48.4095C37.3435 48.3508 37.1981 48.301 37.0501 48.2603C34.1196 47.6975 31.238 46.9027 28.4324 45.8833C28.1412 45.7936 27.8293 45.7983 27.5409 45.8968C24.8869 46.8623 22.1647 47.6274 19.3972 48.1857C19.1179 48.2394 18.843 48.314 18.5236 48.3886C18.8609 49.2466 19.1417 50.0524 19.4894 50.8283C20.6498 53.4127 22.0152 55.8597 24.2439 57.701C26.6346 59.6722 29.3774 59.6886 31.7517 57.7115C34.6966 55.2719 36.172 51.9131 37.4839 48.4155L37.4854 48.4095ZM5.97743 29.1162C6.04676 29.087 6.11255 29.0499 6.17355 29.0058C8.63998 26.4692 11.3828 24.2668 14.2979 22.2748C14.4692 22.127 14.5837 21.9238 14.6219 21.7003C15.1047 19.3726 15.5683 17.0418 16.0378 14.7126C16.0779 14.5127 16.121 14.3127 16.1671 14.0964C13.9911 13.7688 11.782 13.7271 9.59536 13.9725C7.60141 14.2113 5.66838 14.6917 4.00576 15.9123C2.50807 17.015 1.74586 18.5086 1.84095 20.3648C2.01776 23.8475 3.9181 26.5199 5.97743 29.1162ZM18.5473 12.5863C18.641 12.6241 18.7368 12.6564 18.8341 12.6833C21.8569 13.2697 24.8296 14.0918 27.7252 15.1424C27.9665 15.2017 28.2199 15.1877 28.4532 15.1021C30.1515 14.5813 31.8319 14.0039 33.5376 13.5189C34.8243 13.1533 36.1437 12.8997 37.4899 12.5863C37.1674 11.7671 36.8852 10.9644 36.539 10.1885C35.3845 7.60259 34.028 5.154 31.7978 3.30823C29.3848 1.31175 26.6777 1.29683 24.2202 3.30823C25.6673 5.30321 25.8857 7.42353 24.4995 9.49909C23.1875 11.4627 21.2307 12.0656 18.9114 11.6075C18.7955 11.9283 18.6781 12.2387 18.5473 12.5863ZM39.836 46.9323L43.13 47.1919C43.5401 44.8836 44.7406 43.3288 46.9574 42.7364C49.2025 42.1396 51.0107 42.9453 52.4653 44.718C53.7253 43.5243 54.2825 42.1231 54.177 40.4281C54.0522 38.4286 53.2855 36.656 52.2692 34.9922C51.6021 33.9075 50.8176 32.8943 50.0969 31.8588C50.0211 31.8857 49.9484 31.9207 49.88 31.9632C47.3987 34.5118 44.6425 36.7261 41.7081 38.7285C41.5501 38.8633 41.4449 39.0499 41.4109 39.2553C41.0826 40.9667 40.7928 42.6872 40.4556 44.3957C40.2817 45.2328 40.0484 46.046 39.836 46.9323ZM5.9908 31.8916C4.13205 34.1417 2.5051 36.5172 1.9509 39.4522C1.38629 42.4365 2.67598 44.6747 5.3534 45.8684C6.48558 43.7794 8.21356 42.6499 10.6176 42.9274C13.0216 43.2049 14.4584 44.7448 15.0988 47.0502L16.1552 46.901C16.1403 46.7637 16.1374 46.6652 16.1166 46.5697C15.6322 44.2032 15.13 41.8411 14.6724 39.4701C14.6412 39.2806 14.5711 39.0996 14.4665 38.9388C14.3618 38.778 14.225 38.6408 14.0647 38.5361C12.4778 37.3573 10.8806 36.1889 9.3502 34.9385C8.1883 33.9895 7.12595 32.9241 5.9908 31.8916ZM14.2682 24.4801C11.7008 26.317 9.33833 28.2433 7.22848 30.5099C9.36211 32.7488 11.7208 34.76 14.2667 36.5112C14.191 34.461 14.0632 32.5019 14.0647 30.5427C14.0662 28.5835 14.1925 26.5736 14.2682 24.4742V24.4801ZM41.7556 36.5217C44.335 34.6998 46.6855 32.76 48.7954 30.4994C46.6608 28.2607 44.3012 26.25 41.7541 24.4995C41.8299 26.5542 41.9592 28.5149 41.9592 30.4755C41.9592 32.4362 41.8255 34.4282 41.7497 36.5172L41.7556 36.5217ZM10.0679 44.6672C9.18819 44.6616 8.34173 45.0042 7.71182 45.6209C7.08192 46.2375 6.71929 47.0786 6.7025 47.9619C6.65793 49.7763 8.21356 51.355 10.0411 51.3535C10.9121 51.3389 11.7427 50.982 12.3548 50.3595C12.9668 49.737 13.3116 48.8984 13.3151 48.0235C13.3186 47.1487 12.9806 46.3073 12.3735 45.6799C11.7664 45.0524 10.9387 44.6889 10.0679 44.6672ZM23.6288 6.64464C23.6315 6.2061 23.5482 5.77133 23.3836 5.36512C23.2191 4.95892 22.9764 4.58924 22.6696 4.27721C22.3627 3.96518 21.9977 3.7169 21.5953 3.54654C21.1929 3.37619 20.761 3.2871 20.3244 3.28436C19.8877 3.28161 19.4547 3.36527 19.0503 3.53055C18.6458 3.69584 18.2777 3.93952 17.967 4.24767C17.6563 4.55582 17.409 4.92241 17.2394 5.32652C17.0698 5.73062 16.9811 6.16433 16.9783 6.60286C16.9728 7.48853 17.3179 8.34011 17.9376 8.97029C18.5573 9.60047 19.4009 9.95761 20.2828 9.96315C21.1647 9.96869 22.0127 9.62218 22.6402 8.99983C23.2677 8.37749 23.6233 7.5303 23.6288 6.64464ZM48.2189 51.0163C49.1003 51.0234 49.9486 50.6792 50.5775 50.059C51.2065 49.4388 51.5648 48.5934 51.5738 47.7082C51.6125 45.8863 50.0643 44.3151 48.2352 44.3196C47.3525 44.3174 46.5051 44.6674 45.8794 45.2927C45.2537 45.918 44.901 46.7673 44.8988 47.6538C44.8967 48.5402 45.2452 49.3912 45.8679 50.0196C46.4905 50.6479 47.3362 51.0022 48.2189 51.0043V51.0163ZM39.5031 20.7259C39.0307 18.5877 38.5686 16.4957 38.0738 14.2516L30.566 16.1689L39.5031 20.7259ZM25.3286 16.2197C22.9394 15.4453 20.5086 14.7589 17.9263 14.3739C17.4538 16.5315 17.0006 18.6086 16.5356 20.7289L25.3286 16.2197ZM25.4445 44.8597L16.5296 40.2878C17.0006 42.429 17.4597 44.5225 17.953 46.7652L25.4445 44.8597ZM30.7176 44.7195L30.6656 44.8776L38.0798 46.7622C38.5745 44.5106 39.0321 42.4246 39.5195 40.1968C37.9208 41.0667 36.5167 41.865 35.0799 42.6021C33.6431 43.3392 32.1677 44.0062 30.7116 44.709L30.7176 44.7195Z" fill="#36E7FF"/>
<path d="M28.5557 39.6818C23.2841 39.6565 19.3734 36.0813 18.898 31.3811C18.4255 26.7555 21.6289 22.4283 26.229 21.4838C30.9523 20.5154 35.7663 23.5728 36.8733 28.2819C36.9535 28.6281 36.9193 29.1056 36.7351 29.3876C36.3592 29.9621 35.5182 29.7383 35.2493 29.0399C35.0175 28.4297 34.8541 27.7895 34.5688 27.2076C33.0651 24.1413 29.5735 22.4969 26.3344 23.2982C22.8859 24.1502 20.5873 27.1419 20.6512 30.6932C20.7107 34.0654 23.1771 37.0467 26.4771 37.7436C28.2854 38.1189 30.1681 37.7998 31.7536 36.8492C33.3391 35.8987 34.5122 34.3858 35.0413 32.6091C35.1037 32.4002 35.1646 32.1898 35.2403 31.9854C35.4439 31.4348 35.8347 31.202 36.3339 31.3274C36.8331 31.4527 37.059 31.881 36.9401 32.451C36.5801 34.2138 35.6908 35.8234 34.392 37.0632C32.6045 38.794 30.4561 39.661 28.5557 39.6818Z" fill="#36E7FF"/>
</g>
<defs>
<clipPath id="clip0_109_5795">
<rect width="56" height="61" fill="white"/>
</clipPath>
</defs>
</svg>
