<svg width="53" height="59" viewBox="0 0 53 59" fill="none" xmlns="http://www.w3.org/2000/svg">
<g clip-path="url(#clip0_85_16050)">
<path d="M45.1205 31.3484C46.0233 31.5357 46.0642 31.5766 46.0642 32.4878V34.1404C46.0642 35.0469 46.0437 35.0705 45.133 35.2846C45.122 35.4278 45.1032 35.5804 45.1032 35.7347C45.1032 38.4102 45.1126 41.0857 45.0906 43.7612C45.0906 44.1752 45.2148 44.3341 45.608 44.4348C47.431 44.907 49.2444 45.4012 51.0611 45.8922C51.2525 45.9311 51.438 45.9946 51.6131 46.0811C51.9796 46.2935 52.0504 46.8759 51.6886 47.0002C51.0453 47.2205 51.1743 47.6848 51.168 48.1334C51.168 48.5268 51.168 48.9203 51.168 49.3137C51.1523 49.9543 51.0831 50.5649 51.8239 50.9615C52.096 51.1079 52.214 51.6115 52.3209 51.9751C52.3828 52.2642 52.395 52.5617 52.3571 52.8549C52.264 54.427 52.4553 56.003 52.9217 57.5071C53.2127 58.464 52.7881 58.9881 51.8003 58.9944C50.9557 58.9944 50.1111 59.0054 49.268 58.9944C48.425 58.9834 47.939 58.4451 48.2158 57.6378C48.8088 55.9065 48.856 54.136 48.8103 52.3434C48.7867 52.0079 48.8555 51.6724 49.0091 51.3732C49.1627 51.0741 49.3954 50.8229 49.6817 50.6468C49.7523 50.6054 49.8138 50.55 49.8622 50.4839C49.9106 50.4179 49.945 50.3426 49.9632 50.2628C49.9884 49.3814 49.9774 48.5001 49.9774 47.5589L47.593 48.2042V52.4535C47.593 54.2697 47.6118 54.3122 45.9289 55.0677C40.0213 57.7212 34.1861 57.5858 28.4421 54.5357C28.0237 54.3138 27.7311 54.0478 27.8035 53.4655H1.06519C0.0727301 53.4655 0.00352597 53.3947 0.00195312 52.3906C0.00195312 51.643 0.00195312 50.8954 0.00195312 50.1479C0.00195312 49.6568 0.223723 49.4192 0.716022 49.427C1.12339 49.427 1.53233 49.427 1.97429 49.427V35.2956C1.04946 35.0674 1.04947 35.0674 1.04947 34.0633C1.04947 33.5518 1.04947 33.0403 1.04947 32.5288C1.04947 31.5498 1.04947 31.5483 1.98373 31.3563V19.6202C1.53233 19.6202 1.10451 19.6202 0.678275 19.6202C0.223724 19.6123 -0.00119342 19.3809 0.0035251 18.9166C0.0035251 18.1691 0.0113893 17.4215 0.0035251 16.6739C0.0035251 16.1797 0.245744 15.9547 0.717596 15.9374C0.87488 15.9374 1.03216 15.9374 1.18945 15.9374H12.5831V13.4523C12.4415 13.4428 12.2937 13.4381 12.1459 13.424C11.7574 13.3846 11.5309 13.1847 11.5293 12.7771C11.5293 11.8533 11.5293 10.9279 11.5293 10.004C11.5293 9.52084 11.8329 9.36031 12.2638 9.35873C12.8694 9.35873 13.4749 9.35873 14.1607 9.35873C14.1607 9.00305 14.1607 8.69615 14.1607 8.38925C14.1607 7.62279 14.3337 7.44495 15.0918 7.44495C17.4877 7.44495 19.8821 7.44495 22.2749 7.44495H22.967V6.74144C22.967 4.75369 22.9513 2.76593 22.9843 0.779752C22.9843 0.521643 23.236 0.268254 23.3696 0.0117188C23.6182 0.147069 23.8667 0.280844 24.1136 0.419342C24.2104 0.494462 24.316 0.557365 24.4282 0.606629C25.073 0.764013 25.7336 0.872608 26.3659 1.06934C27.2656 1.3767 28.2478 1.33514 29.1184 0.95287C29.8356 0.638103 30.1627 0.867885 30.1675 1.63907C30.1675 2.62271 30.1565 3.60636 30.1753 4.59001C30.1848 5.02596 30.0086 5.27463 29.6154 5.44775C28.3854 5.99072 27.1523 5.99859 25.8893 5.57838C25.3577 5.40211 24.8056 5.29352 24.1907 5.13613V7.4182C24.3731 7.42606 24.5792 7.44338 24.7852 7.44338C27.1403 7.44338 29.4953 7.44338 31.8504 7.44338C32.8177 7.44338 32.9152 7.54567 32.9184 8.53719V9.35559C33.5758 9.35559 34.1609 9.34772 34.746 9.35559C35.4113 9.3666 35.5733 9.53501 35.578 10.207C35.578 10.9153 35.578 11.6235 35.578 12.3317C35.578 13.2839 35.4978 13.372 34.5179 13.4539V15.9342H46.072C46.9497 15.9342 47.0991 16.0916 47.1007 16.9588C47.1007 17.5285 47.1007 18.0998 47.1007 18.6696C47.1007 19.4785 46.9544 19.6139 46.1287 19.6233C45.7999 19.6233 45.4696 19.6233 45.1173 19.6233L45.1205 31.3484ZM27.7815 48.1884C27.5597 48.1239 27.3568 48.061 27.1523 48.0059C26.1111 47.7273 25.062 47.4771 24.035 47.1544C23.9105 47.0994 23.8007 47.0159 23.7144 46.9106C23.6281 46.8054 23.5676 46.6814 23.5379 46.5485C23.5206 46.3801 23.8368 46.1661 24.0224 45.9914C24.1063 45.941 24.2003 45.9098 24.2976 45.9001C27.0989 45.1494 29.8954 44.3861 32.7013 43.6605C33.1732 43.5393 33.3069 43.3457 33.3053 42.8736C33.2916 33.2763 33.288 23.6791 33.2943 14.0818V13.4696H13.8382V49.3735H27.7815V48.1884ZM3.21055 49.3704H12.5831V35.2578H3.21055V49.3704ZM3.21055 31.3578H12.5847V19.6579H3.21055V31.3578ZM43.8826 31.3704V19.6532H34.5211V31.3704H43.8826ZM46.4196 48.5252C46.2041 48.5725 46.0704 48.5945 45.9478 48.6307C43.4108 49.3122 40.8801 50.0078 38.3368 50.6625C37.9261 50.7632 37.4971 50.7632 37.0864 50.6625C35.1864 50.1904 33.299 49.6568 31.4053 49.1485C30.6189 48.9376 29.8324 48.7314 28.9957 48.5079C28.9957 50.0251 29.013 51.4604 28.9847 52.8942C28.9752 53.327 29.1089 53.5599 29.4959 53.7567C32.0013 55.0434 34.7767 55.715 37.5928 55.7161C40.5498 55.7318 43.3526 55.107 45.9682 53.711C46.1585 53.6087 46.4039 53.3711 46.407 53.1917C46.4291 51.6666 46.4149 50.1321 46.4149 48.53L46.4196 48.5252ZM34.5038 35.2547V43.1238C34.6693 43.1121 34.8329 43.0815 34.9914 43.0325C36.9401 42.1575 38.8527 42.4203 40.7904 43.1191C41.7735 43.4732 42.8147 43.6668 43.8811 43.9469V35.2484L34.5038 35.2547ZM48.9739 46.5863C48.7065 46.5013 48.6074 46.4635 48.5021 46.4289C45.0041 45.4846 41.5061 44.5403 38.0034 43.6149C37.7412 43.5666 37.4712 43.5834 37.2169 43.6637C34.8121 44.2932 32.4119 44.9526 30.0102 45.5979C28.8762 45.9032 27.7421 46.2054 26.4571 46.5422C26.7245 46.6382 26.8283 46.6854 26.9384 46.7138C30.3987 47.6486 33.8589 48.5866 37.3192 49.5042C37.6031 49.5663 37.8979 49.5582 38.1779 49.4806C40.792 48.7959 43.4013 48.094 46.0123 47.3921C46.945 47.1529 47.8776 46.8885 48.9723 46.5847L48.9739 46.5863ZM1.20203 52.2379H27.7673V50.6405H1.20203V52.2379ZM12.7325 12.1964H34.3669V10.5611H12.731L12.7325 12.1964ZM2.25583 33.9893H12.5925V32.6405H2.25583V33.9893ZM34.5069 33.9893H44.8468V32.6468H34.5054L34.5069 33.9893ZM12.5973 17.1492H1.22248V18.391H12.5957L12.5973 17.1492ZM34.5038 18.3941H45.8801V17.1571H34.5038V18.3941ZM15.3544 9.30837H31.668C31.8677 8.73392 31.6428 8.60487 31.1237 8.60644C26.0608 8.6206 20.9994 8.61431 15.9364 8.61588C15.7477 8.61588 15.5589 8.6332 15.3544 8.64264V9.30837ZM24.1624 3.89595C24.9912 4.11471 25.7352 4.38069 26.4996 4.49243C27.1979 4.59631 27.9152 4.54751 28.6339 4.52863C28.7112 4.51019 28.7825 4.47254 28.8414 4.41917C28.9002 4.3658 28.9446 4.29843 28.9705 4.2233C29.0036 3.59377 28.9863 2.9485 28.9863 2.24027C27.6777 2.66993 26.5122 2.36146 25.3436 1.98216C24.9551 1.8829 24.5605 1.8093 24.1624 1.76182V3.89595ZM51.7689 57.7951C51.6886 57.4568 51.6446 57.1845 51.5581 56.9264C51.2384 55.9545 51.1055 54.9307 51.1665 53.9093C51.1916 53.3601 51.1665 52.8076 51.1665 52.2584C51.1665 51.8681 50.9761 51.5958 50.5766 51.5974C50.1771 51.5989 49.9963 51.8775 49.9758 52.26C49.9758 52.378 49.9758 52.496 49.9758 52.6141C50.0214 54.3059 50.0277 55.9915 49.4206 57.611C49.4108 57.672 49.4108 57.7341 49.4206 57.7951H51.7689Z" fill="#36E7FF"/>
<path d="M29.6086 22.4552C29.6107 24.065 28.9741 25.6098 27.8387 26.7504C26.7033 27.8909 25.162 28.5339 23.5531 28.538C21.9345 28.5343 20.3835 27.8877 19.241 26.7403C18.0985 25.593 17.4579 24.0387 17.46 22.419C17.4737 20.8092 18.1226 19.27 19.2654 18.1368C20.4081 17.0036 21.9522 16.3683 23.561 16.3691C24.3576 16.371 25.146 16.5299 25.8811 16.8369C26.6163 17.1438 27.2837 17.5927 27.8454 18.1579C28.407 18.7232 28.8519 19.3936 29.1544 20.131C29.4569 20.8683 29.6113 21.6581 29.6086 22.4552ZM28.4305 22.463C28.4397 21.1704 27.9359 19.927 27.0297 19.0057C26.1235 18.0845 24.889 17.5607 23.5972 17.5495C22.2955 17.5369 21.0421 18.0419 20.1122 18.9534C19.1824 19.865 18.6521 21.1086 18.638 22.4111C18.633 23.7129 19.1429 24.9637 20.0565 25.8905C20.97 26.8174 22.2129 27.3448 23.5138 27.3577C24.1584 27.3614 24.7974 27.2375 25.394 26.9932C25.9905 26.7489 26.5329 26.3889 26.9899 25.9339C27.4468 25.479 27.8094 24.9381 28.0566 24.3425C28.3039 23.7468 28.431 23.1081 28.4305 22.463Z" fill="#36E7FF"/>
<path d="M23.5455 35.2125C21.8374 35.2125 20.1298 35.2125 18.4228 35.2125C17.6096 35.2125 17.4602 35.0552 17.457 34.2462C17.457 33.5569 17.457 32.8691 17.457 32.1798C17.457 31.6683 17.7008 31.4117 18.2073 31.4102H28.8633C29.3697 31.4102 29.6214 31.6525 29.6167 32.1703C29.6072 32.9179 29.6167 33.6655 29.6167 34.413C29.6072 35.0347 29.4358 35.2 28.7893 35.2094C27.0325 35.2188 25.2913 35.2125 23.5455 35.2125ZM18.6524 33.9944H28.3883V32.6393H18.6524V33.9944Z" fill="#36E7FF"/>
<path d="M24.14 20.6368C24.14 21.1483 24.1259 21.6598 24.14 22.1682C24.1626 22.3536 24.1267 22.5414 24.0373 22.7054C23.9479 22.8693 23.8095 23.0012 23.6414 23.0826C22.888 23.4981 22.1457 23.9372 21.4017 24.3716C21.0494 24.5777 20.7175 24.5982 20.4879 24.2142C20.2583 23.8302 20.4737 23.5469 20.8135 23.3486C21.4049 23.0023 22.0151 22.686 22.5829 22.3035C22.6823 22.2285 22.7653 22.1339 22.827 22.0257C22.8886 21.9175 22.9276 21.7978 22.9415 21.674C22.9808 20.7738 22.9667 19.8688 22.9557 18.9654C22.9557 18.5358 23.0784 18.1895 23.5502 18.1974C24.0221 18.2053 24.1432 18.5657 24.1369 18.9843C24.1353 19.5383 24.14 20.0876 24.14 20.6368Z" fill="#36E7FF"/>
</g>
<defs>
<clipPath id="clip0_85_16050">
<rect width="53" height="59" fill="white"/>
</clipPath>
</defs>
</svg>
