<svg width="58" height="63" viewBox="0 0 58 63" fill="none" xmlns="http://www.w3.org/2000/svg">
<g clip-path="url(#clip0_1_1221)">
<path d="M49.3743 33.4751C50.3457 33.6743 50.3991 33.717 50.3991 34.6891V36.4532C50.3991 37.4017 50.3748 37.4491 49.3792 37.6767C49.3792 37.8284 49.3452 37.9944 49.3452 38.1509C49.3452 40.9962 49.3452 43.8653 49.3452 46.7248C49.3293 46.8089 49.3317 46.8954 49.3523 46.9785C49.373 47.0616 49.4114 47.1395 49.4651 47.2071C49.5187 47.2747 49.5864 47.3305 49.6637 47.3708C49.741 47.4111 49.8261 47.435 49.9135 47.4409C51.9096 47.9436 53.8912 48.4747 55.8825 48.9963C56.0912 49.0392 56.2936 49.1077 56.4847 49.2002C56.883 49.4279 56.9704 50.0491 56.5673 50.1819C55.863 50.419 56.0039 50.9122 55.999 51.3911C55.9942 51.8701 55.999 52.2305 55.999 52.6525C55.999 53.3354 55.9067 53.9898 56.7178 54.4119C57.0141 54.5684 57.1452 55.1042 57.2618 55.4931C57.3291 55.8049 57.3422 56.1255 57.3007 56.4415C57.2011 58.1208 57.41 59.8039 57.9175 61.4114C58.238 62.4309 57.7718 62.9905 56.6936 63C55.7708 63 54.8431 63 53.9203 63C52.9975 63 52.4633 62.4167 52.7693 61.5773C53.3356 59.7473 53.5561 57.8318 53.4201 55.9247C53.397 55.5649 53.4754 55.2058 53.6466 54.8864C53.8179 54.567 54.0755 54.2996 54.3914 54.1131C54.4694 54.0687 54.5371 54.0092 54.5906 53.9383C54.6441 53.8673 54.6821 53.7864 54.7023 53.7006C54.7314 52.7521 54.7023 51.8037 54.7023 50.8173L52.0893 51.5002V56.0337C52.0893 57.9733 52.1136 58.016 50.268 58.8221C43.8036 61.6674 37.4217 61.5062 31.1322 58.2531C30.8965 58.1752 30.6971 58.0178 30.5698 57.8092C30.4425 57.6005 30.3956 57.3543 30.4377 57.1149H1.17538C0.087458 57.1149 0.0145988 57.0391 0.0145988 55.9626C0.0145988 55.1659 0.0145988 54.3692 0.0145988 53.5678C0.0145988 53.0461 0.257447 52.7901 0.796552 52.7995C1.24338 52.7995 1.6902 52.7995 2.17588 52.7995V37.7099C1.16081 37.4633 1.16081 37.4633 1.16081 36.3916V34.7555C1.16081 33.7075 1.16081 33.7075 2.18559 33.5036V20.97H0.752843C0.650036 20.9815 0.54589 20.9696 0.448566 20.9353C0.351243 20.901 0.263376 20.8451 0.191868 20.772C0.120359 20.699 0.0671417 20.6108 0.0363868 20.5143C0.00563188 20.4178 -0.00182477 20.3157 0.0145988 20.216C0.0145988 19.4193 0.0145988 18.6226 0.0145988 17.8211C-0.00113907 17.7165 0.00807404 17.6097 0.0415003 17.5091C0.0749266 17.4085 0.131669 17.3167 0.207327 17.241C0.282984 17.1653 0.37551 17.1077 0.477706 17.0726C0.579902 17.0375 0.689015 17.0259 0.796552 17.0387C0.966541 17.0387 1.14138 17.0387 1.31137 17.0387H13.7788V14.3878L13.2931 14.3546C13.201 14.3583 13.109 14.3428 13.0235 14.3091C12.9379 14.2755 12.8606 14.2244 12.7968 14.1594C12.7329 14.0944 12.684 14.0169 12.6532 13.932C12.6224 13.8471 12.6104 13.7568 12.618 13.667C12.618 12.6775 12.618 11.6895 12.618 10.7031C12.618 10.1862 12.9531 10.0155 13.4194 10.0155H15.4981V8.97697C15.4981 8.16131 15.6875 7.97162 16.518 7.97162H25.1243V7.21762C25.1243 5.09786 25.1243 2.97335 25.1243 0.853593C25.1243 0.578546 25.4011 0.30825 25.5468 0.0332031L26.3579 0.469477C26.4661 0.549045 26.5835 0.615903 26.7076 0.668655C27.4119 0.839374 28.1355 0.953186 28.8252 1.14287C29.809 1.4733 30.8843 1.42927 31.8364 1.01957C32.6232 0.687619 32.9826 0.929475 32.9875 1.74987C32.9875 2.80264 32.9875 3.85066 32.9875 4.90343C33.0072 5.10183 32.9567 5.30084 32.8445 5.46736C32.7323 5.63387 32.5651 5.75785 32.3707 5.81867C31.0817 6.37624 29.6222 6.42721 28.2958 5.96094C27.713 5.77125 27.1107 5.6527 26.4356 5.48672V7.9242C26.6348 7.9242 26.863 7.95265 27.0865 7.95265H34.8379C35.8967 7.95265 36.0036 8.06172 36.0084 9.11923V9.9918C36.7272 9.9918 37.3683 9.9918 38.0094 9.9918C38.7331 9.9918 38.9128 10.1815 38.9176 10.8975C38.9225 11.6136 38.9176 12.4103 38.9176 13.1691C38.9176 14.1839 38.8302 14.2787 37.7569 14.3688V17.015H50.3846C51.3559 17.015 51.5065 17.1762 51.5113 18.1104V19.9362C51.5113 20.7993 51.3462 20.9463 50.4428 20.9557H49.3403L49.3743 33.4751ZM30.3988 51.4622C30.1559 51.3911 29.9131 51.3247 29.7091 51.2678C28.5726 50.9691 27.4216 50.6988 26.3094 50.3573C26.1724 50.2989 26.0517 50.2095 25.9571 50.0966C25.8625 49.9836 25.7968 49.8503 25.7654 49.7076C25.7654 49.5274 26.0908 49.2998 26.2948 49.1149C26.3628 49.0485 26.4939 49.0437 26.5959 49.0153C29.6606 48.2138 32.7203 47.4029 35.7898 46.6442C35.8924 46.6365 35.9922 46.6079 36.0828 46.5601C36.1733 46.5124 36.2525 46.4466 36.3152 46.3669C36.378 46.2873 36.4229 46.1957 36.447 46.098C36.4711 46.0004 36.4739 45.8989 36.4552 45.8001C36.4358 35.5506 36.4358 25.3012 36.4552 15.0517V14.402H15.163V52.7426H30.4231L30.3988 51.4622ZM3.51151 52.7237H13.7642V37.6388H3.51151V52.7237ZM3.51151 33.4893H13.7691V20.9937H3.51151V33.4893ZM48.0193 33.4893V20.9747H37.7811V33.4893H48.0193ZM50.7974 51.8037C50.5643 51.8559 50.4137 51.8796 50.2729 51.9175C47.4948 52.643 44.7264 53.3876 41.9434 54.0894C41.4934 54.1957 41.0239 54.1957 40.5738 54.0894C38.4951 53.5773 36.431 53.0129 34.3571 52.4723C33.4974 52.2447 32.6378 52.0266 31.7198 51.7895C31.7198 53.4065 31.7198 54.9383 31.7198 56.47C31.6935 56.6623 31.7342 56.8577 31.8356 57.0246C31.9369 57.1916 32.0929 57.3203 32.2784 57.39C35.0197 58.7636 38.056 59.482 41.1372 59.486C44.3282 59.5356 47.4803 58.7984 50.302 57.3426C50.5108 57.2335 50.7877 56.9822 50.7877 56.7877C50.8071 55.1849 50.7925 53.5298 50.7925 51.8179L50.7974 51.8037ZM37.752 37.6388V46.0514C37.9333 46.0374 38.1124 46.004 38.2863 45.9518C40.4184 45.0034 42.5117 45.2974 44.6341 46.0419C45.7075 46.4213 46.8488 46.63 48.0339 46.9287V37.6388H37.752ZM53.5852 49.7408C53.2938 49.646 53.1821 49.6081 53.0704 49.5796C49.2432 48.5743 45.4161 47.5642 41.584 46.5731C41.2942 46.5219 40.9959 46.5398 40.7147 46.6252C38.0823 47.3034 35.4547 48.0005 32.8272 48.6928L28.9417 49.7076C29.238 49.8072 29.3497 49.8594 29.4711 49.8878C33.2546 50.8884 37.0429 51.889 40.8312 52.8659C41.1425 52.9337 41.4661 52.9255 41.7734 52.8422C44.6341 52.1119 47.4899 51.3627 50.3457 50.6134C51.3511 50.3478 52.3953 50.068 53.59 49.7456L53.5852 49.7408ZM1.32594 55.7776H30.3939V54.0705H1.32594V55.7776ZM13.9536 13.0221H37.6306V11.2769H13.9536V13.0221ZM2.49157 36.292H13.8031V34.8693H2.49157V36.292ZM37.786 36.292H49.1024V34.8693H37.752L37.786 36.292ZM13.8079 18.3143H1.32594V19.6421H13.7691L13.8079 18.3143ZM37.7811 19.6469H50.2291V18.3238H37.752L37.7811 19.6469ZM16.8289 9.94438H34.6777C34.8962 9.33263 34.6534 9.1951 34.0851 9.1951C28.5451 9.1951 23.0051 9.1951 17.4651 9.1951C17.2563 9.1951 17.0523 9.1951 16.8289 9.22356V9.94438ZM26.4648 4.16365C27.306 4.42013 28.1604 4.63382 29.0243 4.80385C29.7989 4.8806 30.5788 4.89328 31.3556 4.84178C31.441 4.82212 31.52 4.78188 31.5853 4.72471C31.6506 4.66755 31.7002 4.59529 31.7296 4.51456C31.7636 3.83643 31.7296 3.15356 31.7296 2.3948C30.2968 2.86902 29.0195 2.52759 27.7421 2.11976C27.3176 2.01293 26.8859 1.93528 26.4502 1.88739L26.4648 4.16365ZM56.6741 61.7196C56.5867 61.3545 56.5381 61.0652 56.4459 60.7712C56.0967 59.7337 55.9501 58.6415 56.0136 57.5512C56.0427 56.9632 56.0136 56.3752 56.0136 55.7871C56.0136 55.3698 55.7999 55.0805 55.3628 55.0805C54.9257 55.0805 54.7314 55.3793 54.7071 55.7871C54.7071 55.9152 54.7071 56.0432 54.7071 56.1665C54.7557 57.9733 54.7605 59.7753 54.0952 61.5015C54.0853 61.5675 54.0853 61.6346 54.0952 61.7006L56.6741 61.7196Z" fill="#36E7FF"/>
<path d="M32.4095 23.9765C32.4121 25.6954 31.7159 27.3451 30.4738 28.5632C29.2317 29.7813 27.5453 30.4683 25.7848 30.4734C24.0136 30.4683 22.3168 29.7775 21.0667 28.5524C19.8165 27.3273 19.1152 25.668 19.1165 23.9386C19.1318 22.2196 19.8423 20.5761 21.0932 19.3663C22.3441 18.1565 24.0339 17.4784 25.7946 17.4797C26.666 17.4816 27.5285 17.6512 28.3327 17.9788C29.137 18.3064 29.8672 18.7857 30.4815 19.3891C31.0959 19.9925 31.5824 20.7082 31.9133 21.4954C32.2441 22.2826 32.4127 23.1257 32.4095 23.9765ZM31.1225 23.9765C31.1303 22.5971 30.5781 21.2709 29.5869 20.2879C28.5957 19.305 27.2461 18.7455 25.8334 18.7317C24.4096 18.7178 23.0384 19.2564 22.0211 20.2292C21.0038 21.202 20.4237 22.5294 20.4084 23.9196C20.4019 25.3112 20.9605 26.6485 21.9619 27.6387C22.9633 28.6289 24.3257 29.1912 25.7509 29.2024C26.4541 29.2049 27.1509 29.0719 27.8013 28.8108C28.4517 28.5498 29.043 28.1659 29.5411 27.6813C30.0393 27.1967 30.4345 26.6208 30.7042 25.9867C30.9739 25.3525 31.1128 24.6727 31.1128 23.986L31.1225 23.9765Z" fill="#36E7FF"/>
<path d="M25.7654 37.6009H20.1606C19.2718 37.6009 19.1067 37.4349 19.1067 36.5671C19.1067 35.832 19.1067 35.097 19.1067 34.362C19.088 34.2518 19.0962 34.1389 19.1305 34.0323C19.1649 33.9258 19.2244 33.8287 19.3043 33.7488C19.3842 33.6689 19.4823 33.6085 19.5906 33.5725C19.6988 33.5365 19.8142 33.5259 19.9275 33.5416H31.5838C31.6965 33.5242 31.8119 33.5332 31.9203 33.568C32.0287 33.6028 32.1271 33.6622 32.2073 33.7415C32.2875 33.8207 32.3472 33.9174 32.3815 34.0237C32.4158 34.1299 32.4238 34.2426 32.4046 34.3525C32.4046 35.1492 32.4046 35.9506 32.4046 36.7473C32.4046 37.4112 32.2055 37.5961 31.5013 37.5961C29.5877 37.6056 27.679 37.6009 25.7654 37.6009ZM20.4229 36.3015H31.0739V34.8552H20.4132L20.4229 36.3015Z" fill="#36E7FF"/>
<path d="M26.4161 22.0369C26.4161 22.5823 26.4161 23.1276 26.4161 23.673C26.4423 23.871 26.4038 24.072 26.3062 24.2474C26.2085 24.4228 26.0566 24.5636 25.8722 24.6498C25.0465 25.0909 24.2354 25.5604 23.4195 26.0251C23.0358 26.2432 22.6715 26.2669 22.419 25.8591C22.1664 25.4513 22.419 25.1478 22.7784 24.9107C23.4244 24.5408 24.0946 24.2041 24.7211 23.7963C24.8316 23.7174 24.9237 23.6167 24.9915 23.5006C25.0593 23.3846 25.1012 23.2558 25.1145 23.1229C25.1582 22.1744 25.1437 21.1928 25.1145 20.2301C25.1145 19.7559 25.2505 19.4002 25.7653 19.4097C26.2801 19.4192 26.4161 19.8033 26.4113 20.2538C26.4113 20.8656 26.4161 21.4489 26.4161 22.0369Z" fill="#36E7FF"/>
</g>
<defs>
<clipPath id="clip0_1_1221">
<rect width="58" height="63" fill="white"/>
</clipPath>
</defs>
</svg>
