<svg width="55" height="52" viewBox="0 0 55 52" fill="none" xmlns="http://www.w3.org/2000/svg">
<g clip-path="url(#clip0_85_16026)">
<path d="M53.9005 25.8307H52.7085V25.024C54.0834 24.4865 54.9952 23.1422 54.9952 21.6182C54.991 20.6451 54.5937 19.713 53.8899 19.0249C53.1861 18.3368 52.2327 17.9484 51.2374 17.9442C50.7423 17.9387 50.2511 18.03 49.7927 18.2127C49.3342 18.3954 48.9177 18.6658 48.5676 19.0081C48.2176 19.3503 47.941 19.7575 47.7541 20.2058C47.5672 20.654 47.4739 21.1342 47.4795 21.6182C47.4713 22.3332 47.6862 23.0337 48.0956 23.6262C48.5051 24.2187 49.0895 24.6751 49.771 24.9345V25.7413H48.6705C48.5279 25.7508 48.3937 25.8105 48.2926 25.9093C48.1916 26.0081 48.1305 26.1394 48.1207 26.2788V28.5145C48.0254 28.5145 44.0875 28.8731 42.0704 24.2126C41.1538 22.0616 39.2291 20.3588 36.9376 19.6424C27.3142 16.7742 27.6791 16.8636 27.4952 16.8636C27.3113 16.8636 27.7706 16.7705 18.0539 19.7318C15.7671 20.4491 13.8377 22.1539 12.9211 24.302C11.7291 27.0808 9.52906 28.6048 6.87072 28.6048V26.3682C6.86093 26.2288 6.79986 26.0976 6.6988 25.9988C6.59774 25.9 6.46353 25.8403 6.32095 25.8307H5.12898V25.024C6.50388 24.4865 7.41572 23.1422 7.41572 21.6182C7.41121 20.645 7.01371 19.7129 6.30975 19.0248C5.60578 18.3368 4.65232 17.9484 3.65689 17.9442C1.54928 17.9442 -0.00951874 19.6471 -0.00951874 21.6182C-0.0180793 22.3327 0.196163 23.0327 0.604679 23.6252C1.01319 24.2176 1.5966 24.6743 2.27723 24.9345V25.7413H1.17768C1.03503 25.7506 0.900699 25.8103 0.799602 25.9091C0.698505 26.008 0.637499 26.1393 0.627906 26.2788V51.4623C0.637499 51.6017 0.698505 51.7331 0.799602 51.8319C0.900699 51.9308 1.03503 51.9904 1.17768 51.9998H17.7699C17.9157 51.9998 18.0556 51.9431 18.1587 51.8423C18.2618 51.7415 18.3197 51.6048 18.3197 51.4623C18.3197 51.3197 18.2618 51.183 18.1587 51.0822C18.0556 50.9814 17.9157 50.9248 17.7699 50.9248H6.87549V48.689H48.1255V50.9248H44.642C44.4962 50.9248 44.3564 50.9814 44.2533 51.0822C44.1502 51.183 44.0922 51.3197 44.0922 51.4623C44.0922 51.6048 44.1502 51.7415 44.2533 51.8423C44.3564 51.9431 44.4962 51.9998 44.642 51.9998H53.809C53.9516 51.9902 54.0858 51.9305 54.1869 51.8317C54.2879 51.7329 54.349 51.6017 54.3588 51.4623V26.4576C54.3805 26.3864 54.3852 26.3112 54.3727 26.2379C54.3601 26.1646 54.3306 26.0951 54.2864 26.0346C54.2422 25.9741 54.1845 25.9243 54.1176 25.889C54.0507 25.8536 53.9764 25.8337 53.9005 25.8307ZM48.6753 21.6182C48.6748 21.2886 48.7408 20.9621 48.8696 20.6574C48.9985 20.3528 49.1875 20.076 49.426 19.8429C49.6645 19.6099 49.9477 19.4251 50.2593 19.2993C50.571 19.1734 50.905 19.109 51.2421 19.1096C52.617 19.1096 53.809 20.274 53.809 21.6182C53.8096 21.948 53.7437 22.2746 53.6149 22.5793C53.4861 22.8841 53.2971 23.161 53.0586 23.3942C52.8201 23.6273 52.5369 23.8121 52.2252 23.938C51.9135 24.0639 51.5794 24.1284 51.2421 24.1278C49.8672 24.2173 48.6753 23.0556 48.6753 21.6182ZM50.9677 25.2913H51.5165V25.8288H50.9677V25.2913ZM48.1255 39.899H45.8302V35.0549C46.5648 35.2347 47.2975 35.4135 48.1226 35.4135L48.1255 39.899ZM44.7344 39.899H40.1505V28.9672C40.5173 29.4153 40.7917 29.9537 41.0671 30.4912C41.8922 32.4624 43.1756 33.8066 44.7344 34.7037V39.899ZM38.9585 39.899H34.3755V25.7394L36.4841 26.3663C37.3997 26.6341 38.2449 27.0931 38.9614 27.7115L38.9585 39.899ZM33.2759 39.899H28.1422V23.8586L33.2759 25.472V39.899ZM26.9502 39.899H21.8194V25.3845L26.9521 23.771L26.9502 39.899ZM20.6255 39.899H16.0415V27.7134C16.8031 27.1603 17.6361 26.708 18.5188 26.3682L20.6274 25.7413V39.9008L20.6255 39.899ZM14.942 39.899H10.359V34.6133C11.9168 33.8066 13.2002 32.373 14.0254 30.4018C14.2964 29.8747 14.6026 29.3656 14.942 28.8778V39.9008V39.899ZM9.16699 39.899H6.88024V35.4182C7.65641 35.4095 8.42699 35.2886 9.16699 35.0596V39.899ZM6.88024 40.9749H9.16699V42.1393H6.88024V40.9749ZM10.3637 40.9749H14.9467V42.1393H10.3637V40.9749ZM14.9467 43.2106V47.6923H10.3637V43.2171L14.9467 43.2106ZM16.0463 43.2106H20.6303V47.6923H16.0463V43.2106ZM16.0463 42.1347V40.9702H20.6303V42.1347H16.0463ZM21.8222 40.9702H26.955V42.1347H21.8194V40.9702H21.8222ZM28.0555 40.9702H33.1883V42.1347H28.0507L28.0555 40.9702ZM34.3802 40.9702H38.9633V42.1347H34.3802V40.9702ZM38.9633 43.2059V47.6876H34.3802V43.2171L38.9633 43.2059ZM40.1552 43.2059H44.7392V47.6876H40.1552V43.2059ZM40.1552 42.13V40.9656H44.7392V42.13H40.1552ZM45.8378 40.9656H48.1303V42.13H45.8302L45.8378 40.9656ZM48.1303 29.7628V34.2435C47.3445 34.2322 46.5676 34.0804 45.8378 33.7954V29.4153C46.5724 29.6845 47.3051 29.7739 48.1303 29.7739V29.7628ZM40.9842 24.8339C41.8093 26.8051 43.0918 28.1503 44.6506 29.0464V33.3585C43.5501 32.6422 42.6335 31.4768 41.9932 30.0432C41.569 29.0151 40.9104 28.0953 40.0676 27.3538V23.4105C40.4735 23.8183 40.7834 24.308 40.9756 24.8451L40.9842 24.8339ZM38.9671 22.1455V26.357C38.3258 25.9089 37.5922 25.6407 36.8585 25.3714L34.3812 24.5647V20.1846L36.4898 20.8115C37.4007 21.1702 38.2248 21.5288 38.9585 22.1567L38.9671 22.1455ZM33.2845 19.8166V24.2079L28.1508 22.5954V18.2116L33.2845 19.8166ZM26.9588 22.5954L21.8194 24.2173V19.8259L26.9502 18.2116L26.9588 22.5954ZM18.5255 20.8022L20.6341 20.1753V24.5666L18.1568 25.3733C17.4221 25.6425 16.6894 25.9108 16.0472 26.3589V22.1567C16.7761 21.5288 17.6003 21.1702 18.5169 20.8115L18.5255 20.8022ZM14.0339 24.8358C14.3049 24.3087 14.6111 23.7996 14.9506 23.3118V27.256C14.1254 27.9723 13.4842 28.9579 13.0259 29.9444C12.3837 31.3781 11.4671 32.5434 10.3675 33.2598V28.9672C11.9168 28.1614 13.2002 26.7268 14.0254 24.8451L14.0339 24.8358ZM9.17462 29.406V33.7973C8.44096 34.0665 7.70824 34.2454 6.88788 34.2454V29.7646C7.661 29.7582 8.42894 29.6405 9.16699 29.4153L9.17462 29.406ZM1.10813 21.6089C1.1075 21.2793 1.17344 20.9528 1.30217 20.6482C1.43089 20.3435 1.61987 20.0667 1.85827 19.8337C2.09666 19.6006 2.37978 19.4158 2.69137 19.29C3.00296 19.1641 3.33691 19.0996 3.67405 19.1003C5.04895 19.1003 6.24664 20.2647 6.24664 21.6089C6.24664 22.2745 5.97619 22.9128 5.49481 23.3835C5.01343 23.8541 4.36054 24.1185 3.67976 24.1185C2.99898 24.1185 2.34609 23.8541 1.86471 23.3835C1.38333 22.9128 1.11289 22.2745 1.11289 21.6089H1.10813ZM3.39487 25.2839H3.9456V25.8214H3.39487V25.2839ZM1.74461 51.0943V26.9961H5.7788V51.1036L1.74461 51.0943ZM6.87834 43.2078H9.16508V47.6895H6.87834V43.2078ZM21.8194 47.6988V43.2171H26.9521V47.6988H21.8194ZM28.0526 43.2171H33.1854V47.6988H28.0507L28.0526 43.2171ZM45.8302 47.6988V43.2171H48.1226V47.6988H45.8302ZM49.3146 51.1036V26.9961H53.3478V51.1036H49.3146Z" fill="#36E7FF"/>
<path d="M6.05021 9.87874C6.05072 10.5679 6.33096 11.2287 6.82939 11.716C7.32781 12.2033 8.00368 12.4773 8.70856 12.4778H18.4272C18.7988 12.4796 19.1666 12.4049 19.5067 12.2584C19.8468 12.1118 20.1514 11.8969 20.4007 11.6274C20.65 11.358 20.8385 11.0403 20.9537 10.6948C21.0689 10.3494 21.1083 9.98414 21.0693 9.62282C21.0304 9.2615 20.914 8.91228 20.7276 8.59794C20.5413 8.28359 20.2892 8.0112 19.9879 7.79853C19.6867 7.58586 19.3429 7.4377 18.9791 7.36371C18.6152 7.28973 18.2395 7.29158 17.8765 7.36915C17.2362 4.77013 14.1186 3.51627 11.7356 4.86049C11.468 4.42753 11.0918 4.06853 10.6426 3.81748C10.1934 3.56643 9.68613 3.43165 9.16876 3.4259C8.7582 3.4223 8.35103 3.4987 7.971 3.65065C7.59098 3.8026 7.24572 4.02705 6.9554 4.31089C6.66507 4.59473 6.43551 4.93228 6.28009 5.30383C6.12467 5.67537 6.04653 6.07347 6.05021 6.47486C6.03879 7.12806 6.26655 7.76374 6.69241 8.26716C6.23411 8.71058 6.05021 9.25181 6.05021 9.87874ZM16.776 8.17587C16.776 8.62395 17.2343 8.80374 17.6002 8.62395C17.8248 8.50188 18.078 8.43906 18.335 8.44167C18.5919 8.44427 18.8437 8.51222 19.0657 8.63881C19.2876 8.7654 19.4721 8.94629 19.6009 9.16369C19.7297 9.38109 19.7984 9.62752 19.8002 9.87874C19.8028 10.0678 19.7666 10.2554 19.6937 10.4305C19.6209 10.6057 19.5129 10.7648 19.3761 10.8984C19.2393 11.032 19.0765 11.1375 18.8974 11.2086C18.7182 11.2797 18.5262 11.315 18.3329 11.3124H8.70951C8.3206 11.3124 7.94762 11.1614 7.67262 10.8925C7.39762 10.6236 7.24313 10.259 7.24313 9.87874C7.24313 9.49851 7.39762 9.13386 7.67262 8.865C7.94762 8.59614 8.3206 8.44509 8.70951 8.44509C8.92386 8.43943 9.13632 8.48551 9.3281 8.57926C9.51989 8.67301 9.68508 8.81154 9.80905 8.98259C9.99294 9.16238 10.2673 9.25181 10.4512 9.16238C10.5582 9.11573 10.6494 9.04038 10.7144 8.94508C10.7793 8.84977 10.8153 8.73842 10.8181 8.62395C10.7946 8.22111 10.8555 7.81782 10.9968 7.43874C11.1382 7.05965 11.3571 6.71273 11.6403 6.41917C11.9234 6.12561 12.2648 5.89158 12.6436 5.73137C13.0223 5.57117 13.4305 5.48816 13.8433 5.48742C15.4011 5.39799 16.6836 6.65279 16.776 8.17587ZM9.07539 4.59127C9.42958 4.58696 9.77839 4.67627 10.085 4.84974C10.3915 5.02322 10.6445 5.27444 10.8171 5.57685C10.2664 6.11528 9.90051 6.74222 9.80809 7.54894C9.441 7.40927 9.04832 7.34544 8.65475 7.36147C8.26119 7.37751 7.87528 7.47306 7.52135 7.6421C6.59998 6.29415 7.51659 4.59127 9.07539 4.59127Z" fill="#36E7FF"/>
<path d="M29.5175 34.5247C29.1516 34.8834 29.4222 35.5103 29.8843 35.5103C29.9551 35.5089 30.0246 35.4922 30.0879 35.4612C30.1512 35.4303 30.2066 35.386 30.2502 35.3315C30.9992 34.5922 31.4194 33.5937 31.4194 32.5531C31.4194 31.5125 30.9992 30.514 30.2502 29.7748C30.0682 29.5959 29.7004 29.5959 29.426 29.7748C29.2421 29.9546 29.2421 30.3123 29.426 30.5815C29.7034 30.8307 29.9265 31.1321 30.0819 31.4676C30.2372 31.8031 30.3217 32.1659 30.3303 32.5341C30.3388 32.9023 30.2712 33.2684 30.1316 33.6105C29.9919 33.9525 29.783 34.2635 29.5175 34.5247Z" fill="#36E7FF"/>
<path d="M24.6583 35.3315C24.7594 35.4259 24.8872 35.4882 25.0252 35.5103C25.5749 35.5103 25.7588 34.8834 25.392 34.5247C24.8631 33.9988 24.5667 33.2907 24.5667 32.5531C24.5667 31.8155 24.8631 31.1075 25.392 30.5815C25.5749 30.4026 25.5749 30.044 25.392 29.7748C25.2081 29.5959 24.8422 29.5959 24.5669 29.7748C23.0995 31.2988 23.0995 33.8074 24.6583 35.3315Z" fill="#36E7FF"/>
<path d="M40.7403 7.88649C41.538 7.88668 42.3179 7.65557 42.9813 7.22239C43.6447 6.78921 44.1618 6.17343 44.4672 5.45291C44.7726 4.73239 44.8526 3.93951 44.6971 3.17453C44.5416 2.40956 44.1575 1.70685 43.5935 1.15528C43.0295 0.603715 42.3108 0.228065 41.5284 0.0758383C40.746 -0.0763883 39.935 0.00164704 39.198 0.300075C38.461 0.598502 37.831 1.10392 37.3878 1.7524C36.9446 2.40089 36.708 3.16331 36.708 3.94325C36.7985 6.09419 38.5412 7.88649 40.7403 7.88649ZM40.7403 1.16537C41.3025 1.16519 41.8522 1.32803 42.3197 1.63329C42.7873 1.93856 43.1517 2.37255 43.367 2.88034C43.5822 3.38814 43.6386 3.94695 43.5289 4.48607C43.4193 5.0252 43.1486 5.52042 42.751 5.9091C42.3535 6.29778 41.8469 6.56245 41.2955 6.66964C40.7441 6.77683 40.1725 6.72172 39.6531 6.51129C39.1337 6.30085 38.6899 5.94454 38.3776 5.48743C38.0654 5.03031 37.8988 4.49292 37.899 3.94325C37.9033 3.2077 38.2039 2.50346 38.7358 1.98325C39.2677 1.46305 39.988 1.16884 40.7403 1.16444V1.16537Z" fill="#36E7FF"/>
<path d="M26.9499 12.3874C27.402 12.3874 27.8439 12.2564 28.2199 12.011C28.5958 11.7655 28.8889 11.4166 29.0622 11.0084C29.2354 10.6001 29.2809 10.1508 29.1931 9.71727C29.1052 9.28372 28.8879 8.88534 28.5686 8.57249C28.2493 8.25963 27.8423 8.04633 27.399 7.95954C26.9557 7.87275 26.4961 7.91637 26.0781 8.08487C25.6602 8.25337 25.3028 8.5392 25.0509 8.90625C24.7991 9.2733 24.6641 9.70509 24.6632 10.1471C24.6602 10.4417 24.7172 10.734 24.831 11.0069C24.9447 11.2797 25.113 11.5277 25.3259 11.7362C25.5388 11.9448 25.792 12.1098 26.0709 12.2216C26.3497 12.3335 26.6486 12.3898 26.9499 12.3874ZM26.9499 9.07114C27.1857 9.07095 27.4163 9.13914 27.6124 9.26708C27.8086 9.39502 27.9615 9.57697 28.0519 9.78989C28.1422 10.0028 28.166 10.2372 28.1201 10.4633C28.0742 10.6894 27.9607 10.8971 27.7941 11.0602C27.6274 11.2233 27.415 11.3344 27.1838 11.3794C26.9525 11.4245 26.7128 11.4014 26.495 11.3133C26.2771 11.2251 26.0909 11.0757 25.9599 10.884C25.8289 10.6924 25.7589 10.467 25.7589 10.2365C25.7538 10.0822 25.781 9.92846 25.8391 9.78485C25.8971 9.64124 25.9846 9.51079 26.0962 9.40157C26.2079 9.29234 26.3412 9.20667 26.4881 9.14983C26.6349 9.093 26.7921 9.06621 26.9499 9.07114Z" fill="#36E7FF"/>
</g>
<defs>
<clipPath id="clip0_85_16026">
<rect width="55" height="52" fill="white"/>
</clipPath>
</defs>
</svg>
