<svg width="31" height="18" viewBox="0 0 31 18" fill="none" xmlns="http://www.w3.org/2000/svg">
<g clip-path="url(#clip0_1_1216)">
<path d="M31.0001 14.0118C30.8325 14.5782 30.5452 15.0742 29.9788 15.2665C29.6157 15.3894 29.2093 15.3855 28.8212 15.4211C28.6013 15.4419 28.3291 15.35 28.1699 15.4535C28.0236 15.5485 27.9978 15.8398 27.9167 16.0391C27.4292 17.2475 26.3473 18.0077 25.1282 17.9985C23.8879 17.9884 22.8295 17.2359 22.3488 16.0237C22.3375 15.9951 22.3261 15.9665 22.3162 15.9372C22.1441 15.4249 22.1441 15.4249 21.6187 15.4249C18.531 15.4249 15.4433 15.4249 12.3557 15.4249C12.2162 15.4249 12.038 15.4442 11.947 15.3678C11.8059 15.2538 11.7078 15.0935 11.6695 14.9142C11.6422 14.708 11.7999 14.5519 12.0145 14.5133C12.1347 14.4979 12.2559 14.493 12.3769 14.4986C15.5353 14.4986 18.6943 14.5004 21.8538 14.504C22.113 14.504 22.2162 14.4267 22.2776 14.1695C22.5876 12.8661 23.7802 11.9289 25.1168 11.9127C26.4534 11.8965 27.6771 12.8437 27.9978 14.1532C28.0638 14.4213 28.1593 14.531 28.4383 14.5024C28.7173 14.4739 29.0236 14.5024 29.3155 14.4924C29.7522 14.4723 30.0812 14.1656 30.0865 13.7376C30.0994 12.7085 30.0865 11.6794 30.0865 10.6109L29.2753 10.5498C27.4315 10.4123 25.599 10.2114 23.8636 9.49833C23.5591 9.36516 23.2635 9.21159 22.9788 9.03863C22.4269 8.71955 22.1813 8.21736 22.1813 7.57997C22.1813 5.99305 22.1767 4.40613 22.1813 2.81922C22.1813 2.21504 22.5156 1.8921 23.107 1.8921C24.9336 1.8921 26.76 1.8921 28.5861 1.8921H28.9159C28.9068 1.14654 28.6991 0.934847 27.9993 0.934847H1.78704C1.06225 0.934847 0.909861 1.08937 0.909861 1.81638V13.6526C0.909861 14.317 1.08499 14.4955 1.737 14.4963C2.10016 14.4963 2.46331 14.4963 2.82646 14.4924C2.84618 14.4924 2.86589 14.4831 2.84618 14.4878C3.03041 14.0744 3.15778 13.6526 3.3875 13.3011C4.10698 12.1978 5.14792 11.7373 6.42009 11.9791C7.63313 12.2109 8.42237 12.9889 8.74382 14.2197C8.80296 14.446 8.89545 14.5156 9.11304 14.5024C9.39507 14.4847 9.67787 14.494 9.96066 14.5024C10.2283 14.5094 10.4011 14.6423 10.4269 14.9258C10.4519 15.1908 10.2844 15.3963 9.99629 15.418C9.68405 15.4382 9.37093 15.4403 9.05846 15.4242C8.87347 15.4172 8.80296 15.479 8.7552 15.6668C8.45194 16.8427 7.72032 17.5928 6.57021 17.9073C5.07665 18.3183 3.41251 17.3425 3.0251 15.8097C2.94928 15.5006 2.83481 15.3871 2.52169 15.4234C2.19941 15.4459 1.87606 15.448 1.55353 15.4296C0.616457 15.4056 0.0106953 14.7775 0.00690455 13.8179C0.00235565 12.5408 0.00690455 11.2629 0.00690455 9.98507C0.00690455 7.2341 0.00690455 4.48288 0.00690455 1.7314C0.00690455 0.611903 0.591439 0.00695801 1.68469 0.00695801C10.4939 0.00695801 19.3028 0.00695801 28.1115 0.00695801C29.0971 0.00695801 29.6096 0.456611 29.7999 1.45094C30.1765 3.42674 30.5578 5.40304 30.944 7.37986C30.9585 7.42762 30.9773 7.47391 31.0001 7.51816V14.0118ZM29.1358 2.84008H23.0895V6.96575C23.0895 8.12465 23.1441 8.20191 24.2002 8.64152C25.3981 9.13598 26.6574 9.35308 27.9311 9.49137C28.6384 9.56863 29.3496 9.61808 30.0433 9.67834C30.0433 8.93588 30.1002 8.22354 30.0274 7.52589C29.9462 6.74093 29.7484 5.9691 29.5983 5.19264C29.4481 4.41618 29.2904 3.62504 29.1358 2.84008ZM3.79765 14.9575C3.79764 15.514 4.01338 16.048 4.39791 16.4432C4.78245 16.8384 5.30462 17.0628 5.85072 17.0675C6.124 17.0683 6.39476 17.0142 6.64749 16.9082C6.90021 16.8022 7.12995 16.6465 7.32354 16.45C7.51713 16.2534 7.67078 16.0198 7.77568 15.7627C7.88058 15.5055 7.93468 15.2298 7.93488 14.9513C7.93187 14.3894 7.71075 13.8515 7.31982 13.4551C6.92888 13.0587 6.39991 12.8362 5.84845 12.836C5.30158 12.8439 4.77977 13.0709 4.39596 13.468C4.01214 13.8651 3.7972 14.4002 3.79765 14.9575ZM27.2025 14.9575C27.202 14.4016 26.9871 13.8681 26.6042 13.4721C26.2213 13.0761 25.701 12.8493 25.1555 12.8406C24.604 12.8412 24.0751 13.0642 23.6843 13.4608C23.2935 13.8574 23.0726 14.3955 23.0698 14.9575C23.0704 15.5142 23.2865 16.0482 23.6712 16.4434C24.0559 16.8386 24.5782 17.0632 25.1244 17.0682C25.3972 17.0693 25.6675 17.0154 25.9197 16.9097C26.172 16.8039 26.4013 16.6485 26.5945 16.4522C26.7876 16.256 26.9408 16.0227 27.0453 15.766C27.1498 15.5092 27.2035 15.2339 27.2033 14.956L27.2025 14.9575Z" fill="white"/>
<path d="M6.50917 8.58262C5.31988 8.58262 4.13035 8.58262 2.94056 8.58262C2.27338 8.58262 2.00955 8.31144 2.00879 7.62847C2.00879 6.03176 2.00879 4.43506 2.00879 2.83836C2.00879 2.16079 2.28021 1.88651 2.9451 1.88574H10.1422C10.8071 1.88574 11.0732 2.16001 11.074 2.84222C11.074 4.43892 11.074 6.03562 11.074 7.63233C11.074 8.31221 10.8079 8.58185 10.1384 8.58262C8.92944 8.58417 7.71968 8.58417 6.50917 8.58262ZM6.07247 2.83681H2.93904V7.63542H6.07247V2.83681ZM10.1506 2.83681H7.01789V7.64083H10.1506V2.83681Z" fill="white"/>
<path d="M16.5452 1.88898C17.7456 1.88898 18.9463 1.88898 20.1472 1.88898C20.7628 1.88898 21.0433 2.16093 21.0456 2.78365C21.0516 4.42259 21.0516 6.06101 21.0456 7.69892C21.0456 8.30927 20.7658 8.58045 20.1676 8.58122C17.7355 8.58122 15.3039 8.58122 12.8727 8.58122C12.2586 8.58122 11.991 8.30309 11.9902 7.67342C11.9902 6.04581 11.9902 4.41769 11.9902 2.78905C11.9902 2.16402 12.2639 1.88975 12.8826 1.88898C14.1042 1.88743 15.3251 1.88743 16.5452 1.88898ZM16.0577 7.64175C16.0577 7.48723 16.0577 7.35202 16.0577 7.22068C16.0577 6.78802 16.0471 6.3546 16.0645 5.92271C16.0767 5.63067 16.2776 5.44061 16.5194 5.4437C16.7613 5.44679 16.944 5.63453 16.9614 5.93199C16.9675 6.04478 16.9614 6.15836 16.9614 6.27115V7.63866H20.1168V2.84468H16.9607C16.9607 3.12822 16.9607 3.3855 16.9607 3.64123C16.9546 3.99662 16.8022 4.18205 16.5247 4.19209C16.2472 4.20214 16.0698 4.00281 16.0554 3.63582C16.0479 3.37159 16.0554 3.10736 16.0554 2.83618H12.9129V7.64175H16.0577Z" fill="white"/>
</g>
<defs>
<clipPath id="clip0_1_1216">
<rect width="31" height="18" fill="white"/>
</clipPath>
</defs>
</svg>
