<svg width="66" height="53" viewBox="0 0 66 53" fill="none" xmlns="http://www.w3.org/2000/svg">
<g clip-path="url(#clip0_189_6227)">
<path d="M2.28882e-05 51.6658C0.38846 49.8937 0.788931 48.1234 1.1619 46.3478C2.55065 39.7146 3.93423 33.0814 5.31266 26.4482C5.41478 25.8993 5.64052 25.3808 5.97281 24.9317C6.30509 24.4827 6.73526 24.1149 7.23082 23.8561C8.75019 23.0132 10.2558 22.148 11.7477 21.2605C12.0329 21.0831 12.2719 20.841 12.4455 20.5538C12.858 19.8778 13.2035 19.1642 13.5954 18.4763C13.9391 17.8707 14.4805 17.6889 14.9892 17.9788C15.498 18.2687 15.6149 18.7851 15.3038 19.3735C14.8346 20.2621 14.3653 21.1542 13.8497 22.0154C13.665 22.2993 13.4144 22.5347 13.1193 22.7015C11.5724 23.6159 10.0118 24.5234 8.4305 25.3846C8.09621 25.5486 7.80587 25.7898 7.5835 26.0881C7.36114 26.3864 7.21314 26.7333 7.15176 27.1C5.52009 34.9913 3.87521 42.8825 2.21719 50.7738C2.21103 50.8526 2.21103 50.9317 2.21719 51.0105H14.5286C14.8449 49.187 15.1577 47.3806 15.4705 45.5724C15.4963 45.4249 15.5186 45.2774 15.5564 45.1333C15.7163 44.5226 16.1116 44.2395 16.6719 44.3253C17.2322 44.411 17.5313 44.8399 17.4402 45.4592C17.2528 46.6858 17.0311 47.9072 16.8231 49.1286C16.7183 49.7393 16.6135 50.3484 16.4949 51.05C17.7908 51.05 19.0506 51.062 20.307 51.0294C20.417 51.0294 20.5872 50.7463 20.6164 50.5765C21.4414 45.8795 22.2538 41.1808 23.0536 36.4803C23.1618 35.8088 23.4505 35.1792 23.8889 34.6585C25.4771 32.6994 27.0136 30.6991 28.6395 28.6268L25.563 27.6284C24.9494 28.4862 24.3599 29.3559 23.7343 30.1896C22.2768 32.1196 20.7763 34.0186 19.3446 35.9674C19.061 36.3534 18.9475 36.8938 18.853 37.3827C18.5969 38.7036 18.3941 40.0365 18.1655 41.3643C18.0452 42.0505 17.6258 42.4537 17.0775 42.3936C16.4794 42.3302 16.1305 41.8395 16.2457 41.1139C16.5344 39.3195 16.8438 37.5285 17.1738 35.741C17.2326 35.491 17.3572 35.2612 17.5347 35.0754C20.0166 32.3855 21.9553 29.2924 24.0866 26.3418C24.7225 25.4635 24.8978 25.3931 25.9136 25.7174C28.7307 26.618 31.5442 27.5306 34.3664 28.4176C34.9078 28.5891 35.2619 28.8842 35.4338 29.4194C35.5231 29.7042 35.6641 29.9735 35.7569 30.2566C36.547 32.7961 37.8878 35.1307 39.6842 37.0945C39.9242 37.3866 40.0662 37.7467 40.0899 38.1238C40.4044 42.2856 40.688 46.449 40.9802 50.6108C40.9802 50.7343 41.0042 50.8578 41.0214 51.05H51.7344C51.9286 51.05 52.1229 51.0397 52.3136 51.05C52.9186 51.1066 53.3174 51.4977 53.3156 52.0209C53.3139 52.5442 52.9238 52.9284 52.3085 52.973C52.1366 52.9851 51.9647 52.973 51.7929 52.973C35.035 52.973 18.2772 52.973 1.51941 52.973C0.89035 52.973 0.31627 52.9439 -0.00341797 52.2868L2.28882e-05 51.6658ZM39.0156 51.0191C39.0294 50.9277 39.0368 50.8354 39.038 50.7429C38.7613 46.7321 38.4897 42.7213 38.1786 38.7139C38.1248 38.3621 37.9736 38.0324 37.7421 37.7618C36.5252 36.2179 35.2224 34.746 34.6483 32.7869C34.3939 31.9137 34.1584 30.8758 33.5449 30.3097C32.9313 29.7436 31.8502 29.6819 30.9874 29.3628C30.5766 29.2101 30.3669 29.2976 30.1005 29.6578C28.5038 31.8005 26.8675 33.9157 25.2553 36.048C25.1183 36.2335 25.0255 36.4476 24.9838 36.6742C24.3398 40.3339 23.7016 43.9936 23.0691 47.6533C22.8783 48.7598 22.6978 49.8663 22.507 51.0105L39.0156 51.0191Z" fill="#36E7FF"/>
<path d="M66.0001 52.3091C65.7354 52.8237 65.3126 53.0056 64.7334 52.9953C61.9834 52.9781 59.2334 52.9953 56.4834 52.985C55.6824 52.985 55.2905 52.6642 55.2802 52.05C55.2699 51.4359 55.6859 51.0551 56.5006 51.0534C58.692 51.0534 60.8834 51.0534 63.0748 51.0534H63.8689C63.697 50 63.556 49.0171 63.3928 48.0375C62.5454 42.9545 61.7118 37.8698 60.8232 32.7937C60.7151 32.2588 60.4366 31.7732 60.0292 31.4093C58.374 30.0146 56.6381 28.7143 54.9692 27.335C54.6001 27.0233 54.3221 26.6179 54.1648 26.1616C53.5134 24.1957 52.9273 22.216 52.2741 20.0493C52.0507 20.7716 51.8857 21.3428 51.6984 21.9072C51.2773 23.1852 50.9009 24.4804 50.3956 25.7276C50.1076 26.4393 49.7008 27.0971 49.1924 27.673C47.9687 29.0333 46.0764 28.8978 44.9592 27.4448C44.0998 26.3263 43.756 25.0002 43.4518 23.6707C43.0531 21.8763 42.699 20.0682 42.3003 18.279C42.2025 17.8848 42.0583 17.5036 41.8706 17.1433C41.6695 16.7333 41.4065 16.7024 41.2088 17.157C40.9957 17.6477 40.8135 18.1503 40.6107 18.6444C40.0573 19.9876 39.2478 21.0289 37.639 21.1078C35.9203 21.1919 34.6639 20.3924 33.9987 18.8777C33.5003 17.7334 33.2046 16.4931 32.897 15.2751C32.5532 13.9028 31.3071 12.7551 29.9253 12.6127C29.3598 12.5544 28.9146 12.6899 28.6121 13.2011C28.2202 13.8633 27.8267 14.5272 27.409 15.1756C25.7779 17.7489 23.7206 17.7626 22.1376 15.1585C21.3212 13.8135 20.699 12.3502 19.9702 10.9024C19.764 11.2695 19.5354 11.6709 19.3137 12.0758C18.6761 13.2389 18.0435 14.4054 17.4042 15.5668C16.9848 16.3302 16.4795 16.5566 15.9192 16.2375C15.3864 15.9322 15.3021 15.3798 15.6906 14.6713C16.4967 13.1857 17.3182 11.7086 18.114 10.211C18.3595 9.73334 18.7049 9.31384 19.1269 8.98089C19.5488 8.64794 20.0375 8.4093 20.5598 8.28109C22.5862 7.72699 24.6126 7.16946 26.6304 6.58791C26.9541 6.49166 27.2519 6.32398 27.5018 6.09728C29.2733 4.44584 31.0344 2.78181 32.7853 1.1052C33.9196 0.0227318 35.2156 -0.267184 36.6989 0.25947C38.0739 0.741522 39.4678 1.17554 40.8239 1.70563C41.2697 1.88475 41.6517 2.19307 41.9204 2.59082C43.7612 5.55519 45.5642 8.54527 47.8364 11.2146C48.0676 11.4907 48.3421 11.7277 48.6493 11.9162C49.6806 12.5321 50.7204 13.1342 51.7792 13.6986C52.0158 13.8204 52.2235 13.9913 52.3883 14.1999C52.5532 14.4085 52.6713 14.65 52.7348 14.908C53.766 18.3047 54.7973 21.6979 55.8629 25.0809C56.0022 25.4957 56.2524 25.8646 56.5865 26.1479C58.1248 27.4174 59.6906 28.6542 61.2667 29.8757C62.0941 30.5051 62.6384 31.4357 62.7809 32.4643C63.8121 38.7293 64.8508 44.9937 65.897 51.2575C65.9246 51.3572 65.9638 51.4534 66.0139 51.544L66.0001 52.3091ZM21.7921 9.94854C22.0242 10.5267 22.1977 11.0791 22.459 11.5868C22.9935 12.6299 23.5332 13.6763 24.1554 14.6747C24.537 15.282 24.9168 15.246 25.3757 14.6747C25.5705 14.4193 25.7496 14.1524 25.912 13.8753C26.321 13.2234 26.6957 12.5492 27.134 11.9179C27.7545 11.0224 28.6379 10.6279 29.7345 10.657C32.1184 10.7239 34.2032 12.5149 34.7996 14.9458C35.0673 16.0419 35.4037 17.1202 35.8068 18.1743C36.0698 18.8605 36.649 19.2173 37.4414 19.1899C38.2337 19.1624 38.4915 18.6186 38.7441 18.0388C39.0363 17.3749 39.2598 16.6664 39.6035 16.0402C40.4457 14.5272 42.4017 14.4586 43.359 15.9047C43.6811 16.384 43.9183 16.9149 44.0603 17.4744C44.4934 19.2808 44.8182 21.1147 45.2634 22.9194C45.5006 23.9581 45.8379 24.9715 46.2706 25.9455C46.7226 26.9233 47.4737 26.9233 48.0701 26.0089C48.3948 25.506 48.6574 24.9657 48.8521 24.3998C49.672 21.9981 50.4574 19.5776 51.2463 17.1605C51.4079 16.6664 50.8785 15.4295 50.4128 15.1619C49.4451 14.6078 48.462 14.0812 47.5149 13.4962C47.1011 13.2383 46.73 12.9176 46.4149 12.5458C44.1978 9.91938 42.3346 7.04766 40.6004 4.09016C40.494 3.89571 40.35 3.72421 40.1768 3.58553C40.0037 3.44686 39.8048 3.34375 39.5915 3.28216C38.4457 2.91848 37.3107 2.52849 36.1867 2.1122C35.3479 1.80169 34.6707 1.94065 34.0193 2.5771C32.249 4.29258 30.4569 5.98519 28.6431 7.65494C28.2635 7.99018 27.8155 8.23896 27.3299 8.38402C25.5029 8.93126 23.6621 9.4236 21.7921 9.94854Z" fill="#36E7FF"/>
</g>
<defs>
<clipPath id="clip0_189_6227">
<rect width="66" height="53" fill="white"/>
</clipPath>
</defs>
</svg>
