<svg width="52" height="52" viewBox="0 0 52 52" fill="none" xmlns="http://www.w3.org/2000/svg">
<g clip-path="url(#clip0_34_2173)">
<path d="M48.864 45.404C49.6434 45.404 50.3439 45.3941 51.0313 45.404C51.7186 45.4139 51.9899 45.6655 51.9932 46.3761C52.0009 47.9354 52.0009 49.4947 51.9932 51.054C51.9932 51.7301 51.7334 51.9751 51.0642 51.9965C50.9408 51.9965 50.8175 51.9965 50.6958 51.9965H1.32683C0.119859 51.9965 0.00146484 51.8764 0.00146484 50.6478C0.00146484 49.2315 0.00146484 47.8153 0.00146484 46.3991C0.00146484 45.6507 0.243182 45.4122 1.00288 45.404C1.67707 45.3941 2.35127 45.404 3.09453 45.404C3.10933 45.075 3.13399 44.8053 3.13399 44.5289C3.13399 30.164 3.13399 15.7991 3.13399 1.43412C3.12491 1.20869 3.12986 0.982909 3.1488 0.75809C3.20471 0.28931 3.46451 0.0146236 3.95618 0.00146484C4.12062 0.00146484 4.28505 0.00146484 4.44949 0.00146484H32.0914C33.2425 0.00146484 33.3888 0.15279 33.3888 1.31734C33.3888 4.00501 33.402 6.69432 33.3773 9.37706C33.3773 9.83432 33.494 10.058 33.9364 10.2274C38.5275 11.9808 43.1103 13.7606 47.6965 15.5288C48.836 15.9696 48.864 16.0025 48.864 17.2246V45.404ZM4.7389 1.60847V45.3514H11.0467V44.5701C11.0467 39.4162 11.0467 34.2651 11.0467 29.1168C11.0467 28.1217 11.2391 27.9292 12.234 27.9292H24.2379C25.3051 27.9292 25.4942 28.1184 25.4942 29.1777V45.3579H31.7609V1.60518L4.7389 1.60847ZM33.4151 45.3612H47.2558C47.2673 45.1458 47.2854 44.9665 47.2854 44.7872C47.2854 35.7373 47.2892 26.6906 47.2969 17.6473C47.2969 17.1983 47.1456 17.0124 46.7427 16.8594C43.8717 15.7689 41.0088 14.6521 38.1443 13.5434C36.5822 12.9398 35.02 12.3328 33.4151 11.7094V45.3612ZM23.8893 29.5346H12.6566V45.3629H23.8893V29.5346ZM1.60308 50.3846H50.3686V47.0143H1.60308V50.3846Z" fill="#36E7FF"/>
<path d="M12.1467 12.3247C11.1008 12.3247 10.0567 12.3247 9.01083 12.3247C8.28237 12.3247 8.01434 12.0484 8.0127 11.3181C8.0127 9.26859 8.0127 7.21912 8.0127 5.16965C8.0127 4.45579 8.26594 4.19426 8.96479 4.19097C11.0542 4.18439 13.1442 4.18439 15.2348 4.19097C15.9386 4.19097 16.2082 4.44921 16.2132 5.15484C16.2252 7.22405 16.2252 9.29381 16.2132 11.3641C16.2132 12.0533 15.9205 12.3181 15.2266 12.3247C14.1955 12.3329 13.1711 12.3247 12.1467 12.3247ZM14.6132 5.80291H9.65049V10.7012H14.6214L14.6132 5.80291Z" fill="#36E7FF"/>
<path d="M20.3259 8.23746C20.3259 7.21272 20.3259 6.18799 20.3259 5.16325C20.3259 4.45268 20.5808 4.19279 21.283 4.1895C23.3735 4.18293 25.4635 4.18293 27.553 4.1895C28.2551 4.1895 28.5215 4.44939 28.5248 5.15832C28.5368 7.22972 28.5368 9.29948 28.5248 11.3676C28.5248 12.0551 28.2304 12.32 27.5267 12.3232C25.458 12.3298 23.3883 12.3298 21.3175 12.3232C20.594 12.3232 20.3309 12.0436 20.3309 11.3117C20.321 10.2869 20.3259 9.2622 20.3259 8.23746ZM21.9358 10.7047H26.9297V5.80474H21.9358V10.7047Z" fill="#36E7FF"/>
<path d="M12.1287 15.6506C13.1745 15.6506 14.2187 15.6506 15.2645 15.6506C15.9222 15.6506 16.2067 15.9154 16.2117 16.5816C16.2248 18.6716 16.2248 20.7617 16.2117 22.8517C16.2117 23.5096 15.9173 23.7745 15.253 23.7761C13.1624 23.7827 11.0724 23.7827 8.98299 23.7761C8.28578 23.7761 8.0161 23.5047 8.01445 22.8089C8.00788 20.7397 8.00788 18.67 8.01445 16.5997C8.01445 15.9072 8.28413 15.6522 9.00108 15.6473C10.0387 15.6457 11.0845 15.6506 12.1287 15.6506ZM9.63417 17.2609V22.1494H14.6051V17.2609H9.63417Z" fill="#36E7FF"/>
<path d="M24.45 15.6506C25.4959 15.6506 26.5417 15.6506 27.5859 15.6506C28.219 15.6506 28.5116 15.9121 28.5166 16.5339C28.533 18.6459 28.533 20.7568 28.5166 22.8665C28.5166 23.5245 28.219 23.7745 27.5448 23.7778C25.4542 23.7778 23.3637 23.7778 21.2731 23.7778C20.5858 23.7778 20.321 23.5014 20.3194 22.7909C20.3128 20.7414 20.3128 18.6919 20.3194 16.6425C20.3194 15.9006 20.5743 15.6556 21.3142 15.644C22.3666 15.6457 23.4125 15.6506 24.45 15.6506ZM26.9166 22.1642V17.2675H21.9555V22.1642H26.9166Z" fill="#36E7FF"/>
</g>
<defs>
<clipPath id="clip0_34_2173">
<rect width="52" height="52" fill="white" transform="translate(-0.000244141)"/>
</clipPath>
</defs>
</svg>
