<svg width="56" height="50" viewBox="0 0 56 50" fill="none" xmlns="http://www.w3.org/2000/svg">
<g clip-path="url(#clip0_1_1866)">
<path d="M55.8792 47.0787C55.7198 47.5091 55.5307 47.926 55.3136 48.3259C54.6685 49.3452 53.7188 49.7557 52.5999 49.7602C51.2598 49.7602 49.9176 49.7602 48.5775 49.7602C33.6107 49.7602 18.6432 49.7602 3.67502 49.7602C2.32446 49.7602 1.17012 49.3272 0.568945 47.956C0.273186 47.291 0.119629 46.5626 0.119629 45.8248C0.119629 45.0869 0.273186 44.3586 0.568945 43.6935C1.05114 42.5659 1.97586 41.9818 3.13229 41.9186C3.79818 41.8826 4.46824 41.9186 5.20719 41.9186C5.51195 35.7527 7.57015 30.3942 11.4861 25.9491C15.4021 21.504 20.2533 18.9916 25.9373 18.3669C26.0354 17.8211 26.0814 17.3971 25.5804 16.9822C24.9161 16.4242 24.4452 15.6407 24.2438 14.7581C24.0423 13.8755 24.1219 12.9452 24.4699 12.1175C24.8101 11.2886 25.3899 10.6012 26.1222 10.1584C26.8546 9.71563 27.7001 9.54129 28.532 9.66156C30.3334 9.93896 31.6381 11.326 31.8719 13.2046C31.9863 13.9243 31.913 14.6642 31.6601 15.3414C31.4071 16.0186 30.9846 16.6063 30.4399 17.0385C30.3113 17.1378 30.2088 17.2715 30.1426 17.4265C30.0763 17.5815 30.0486 17.7525 30.0621 17.9226C30.0621 18.2699 30.1664 18.394 30.4796 18.43C32.8782 18.6962 35.2209 19.3817 37.416 20.4598C41.001 22.2032 44.1089 24.9167 46.439 28.3377C48.7691 31.7588 50.2426 35.7716 50.7171 39.9881C50.7525 40.2971 50.7588 40.6128 50.7859 40.9241C50.8131 41.2353 50.8507 41.542 50.8882 41.9119H52.5227C54.2636 41.9119 55.2363 42.6742 55.7937 44.4716C55.8167 44.524 55.8454 44.5732 55.8792 44.6182V47.0787ZM7.10256 41.9051H37.3701C38.3136 41.9051 38.7666 42.2231 38.7729 42.8884C38.7791 43.5537 38.3115 43.8965 37.3868 43.8965H5.09864C4.50164 43.8965 3.90255 43.8785 3.30555 43.8965C2.54991 43.9258 2.10111 44.4152 2.0531 45.2249C2.03849 45.4391 2.0531 45.6556 2.0531 45.8699C2.0531 47.3516 2.42883 47.762 3.78566 47.762H52.3265C52.5075 47.7696 52.6889 47.7636 52.8692 47.744C53.5935 47.638 53.9922 47.1621 54.0319 46.3728C54.0423 46.1473 54.0319 45.9014 54.0319 45.6669C54.0319 44.3137 53.6332 43.8875 52.3619 43.8875C49.5711 43.8875 46.7802 43.8875 43.9893 43.8875C43.2942 43.8875 42.8955 43.4838 42.9101 42.8613C42.9247 42.2389 43.3109 41.9074 43.9872 41.9006C44.8389 41.9006 45.6906 41.9006 46.5422 41.9006H48.9762C48.6401 30.5363 39.8103 20.1688 27.9162 20.2613C15.638 20.3673 7.33009 31.2174 7.10256 41.9051ZM28.0602 11.5943C27.6231 11.587 27.1953 11.7323 26.8407 12.0086C26.4861 12.2849 26.2234 12.6774 26.0918 13.1279C25.835 14.03 26.1294 15.1193 26.8913 15.5253C27.6908 15.9538 27.935 16.5559 27.8619 17.4558C27.839 17.7106 27.9893 17.9835 28.0602 18.2496C28.1208 17.9745 28.2523 17.6903 28.2314 17.4219C28.1604 16.5514 28.4005 15.9538 29.1812 15.541C29.9619 15.1283 30.2562 14.0503 30.0161 13.155C29.8899 12.7015 29.6311 12.3044 29.2785 12.023C28.926 11.7417 28.4985 11.5913 28.0602 11.5943Z" fill="#36E7FF"/>
<path d="M44.7742 13.827C44.7742 11.9709 45.0038 10.6155 45.797 9.53075C47.4064 7.33412 47.1016 5.15553 45.9598 2.92282C45.7323 2.47177 45.4463 2.07033 45.1958 1.64183C44.8598 1.07124 44.9245 0.514193 45.3545 0.187179C45.7845 -0.139834 46.3105 -0.0383468 46.6779 0.48713C47.7759 2.07935 48.5733 3.81139 48.7528 5.82309C48.8718 7.1537 48.7131 8.47979 47.9637 9.51722C45.9577 12.2934 46.5025 15.0561 47.7842 17.8752C47.8802 18.085 47.993 18.2857 48.0765 18.5022C48.13 18.6159 48.1622 18.7398 48.1712 18.867C48.1802 18.9941 48.1659 19.1219 48.129 19.2431C48.0922 19.3642 48.0335 19.4763 47.9564 19.5729C47.8793 19.6694 47.7854 19.7486 47.6799 19.8057C47.5759 19.8676 47.4615 19.9061 47.3435 19.9189C47.2255 19.9318 47.1063 19.9188 46.993 19.8807C46.8797 19.8426 46.7748 19.7801 46.6844 19.6971C46.594 19.6141 46.5201 19.5122 46.4671 19.3975C45.4547 17.5392 44.8013 15.5501 44.7742 13.827Z" fill="#36E7FF"/>
<path d="M38.5828 13.5428C38.5995 12.0002 38.8103 10.6358 39.6056 9.55099C41.2192 7.36113 40.9311 5.18029 39.7851 2.94532C39.5325 2.45141 39.209 2.00036 38.9502 1.51322C38.8267 1.30115 38.7833 1.04601 38.8287 0.800354C38.8742 0.554697 39.0051 0.337219 39.1945 0.192705C39.3839 0.0481901 39.6174 -0.0123591 39.8468 0.0235236C40.0763 0.0594063 40.2843 0.18899 40.428 0.385591C41.741 2.26648 42.6699 4.31426 42.599 6.7477C42.5697 7.76031 42.3631 8.77744 41.7807 9.56227C39.7893 12.2551 40.3195 14.9749 41.5511 17.7579C41.668 18.024 41.8224 18.2698 41.9206 18.5405C41.9695 18.6567 41.9968 18.7822 42.0009 18.9099C42.0049 19.0375 41.9857 19.1648 41.9442 19.2844C41.9027 19.404 41.8398 19.5136 41.7591 19.6069C41.6784 19.7002 41.5815 19.7754 41.4738 19.8282C41.372 19.8842 41.261 19.918 41.1471 19.9276C41.0332 19.9371 40.9187 19.9223 40.8101 19.884C40.7015 19.8456 40.601 19.7845 40.5143 19.7041C40.4276 19.6238 40.3564 19.5257 40.3049 19.4155C39.2737 17.5549 38.6287 15.5658 38.5828 13.5428Z" fill="#36E7FF"/>
<path d="M10.1083 6.99803C10.1208 8.04222 9.89958 9.18113 9.24413 10.0877C7.53871 12.4174 7.74745 14.8644 8.70349 17.3926C8.88927 17.8797 9.13558 18.3375 9.3485 18.8134C9.6303 19.4403 9.50088 20.0042 9.0166 20.277C8.53232 20.5499 8.05222 20.356 7.74745 19.7651C6.64112 17.6271 5.85834 15.3786 6.19024 12.8865C6.31549 11.9438 6.53049 10.8568 7.06487 10.1622C9.01243 7.61372 8.27348 4.94349 6.83734 2.58899C6.70792 2.37699 6.55971 2.17627 6.44491 1.95526C6.32379 1.74578 6.2816 1.4941 6.32703 1.25204C6.37246 1.00997 6.50205 0.795929 6.68913 0.653968C6.77905 0.57781 6.88212 0.521773 6.99231 0.48913C7.10249 0.456487 7.2176 0.447894 7.33089 0.463851C7.44419 0.479808 7.55341 0.519997 7.65217 0.582068C7.75093 0.64414 7.83726 0.72685 7.9061 0.825369C8.29596 1.36238 8.645 1.93257 8.94981 2.53035C9.64074 3.88126 10.125 5.30433 10.1083 6.99803Z" fill="#36E7FF"/>
<path d="M12.2751 13.9668C12.2918 12.537 12.4463 11.1703 13.2333 10.1464C15.137 7.6656 14.5421 5.1149 13.0245 2.58449C12.916 2.40407 12.7907 2.23492 12.6864 2.05225C12.3795 1.50873 12.4568 0.97423 12.8805 0.651726C12.9775 0.568398 13.0901 0.508717 13.2105 0.476773C13.3308 0.444828 13.4562 0.441373 13.5779 0.466648C13.6996 0.491923 13.8149 0.54533 13.9157 0.623207C14.0166 0.701084 14.1006 0.801594 14.1622 0.917848C14.7738 2.01842 15.4146 3.11899 15.853 4.30075C16.665 6.54023 16.4479 8.70754 15.0848 10.6854C13.8992 12.4062 13.9597 14.2938 14.5191 16.2266C14.795 17.075 15.1206 17.9036 15.4939 18.7074C15.8029 19.4246 15.7152 19.9951 15.1975 20.2861C14.6799 20.577 14.2352 20.3379 13.8804 19.6614C12.9264 17.8594 12.3357 15.9515 12.2751 13.9668Z" fill="#36E7FF"/>
</g>
<defs>
<clipPath id="clip0_1_1866">
<rect width="55.7591" height="49.7647" fill="white" transform="translate(0.120117)"/>
</clipPath>
</defs>
</svg>
