<svg width="59" height="59" viewBox="0 0 59 59" fill="none" xmlns="http://www.w3.org/2000/svg">
<g clip-path="url(#clip0_1_1238)">
<path d="M39.1804 0H44.7113C44.8779 0.111847 45.0108 0.26705 45.0957 0.448879C45.1806 0.630708 45.2142 0.832257 45.193 1.03179C45.1695 2.13935 45.193 3.24691 45.193 4.4176H55.6649C55.8958 4.4176 56.1267 4.41761 56.3558 4.43384C56.7996 4.47533 57.0774 4.72065 57.0882 5.17161C57.1044 6.40002 57.108 7.62844 57.0882 8.85685C57.0882 9.32946 56.7779 9.57839 56.2945 9.57839H55.3221V49.9195C55.4448 49.9357 55.5368 49.9555 55.6288 49.961C56.7274 50.0115 56.8212 50.1107 56.8212 51.2236V53.8013C57.2019 53.8013 57.5248 53.823 57.8441 53.8013C58.3167 53.7616 58.7099 53.8753 59.0004 54.2685V58.5328C58.6973 58.9567 58.2662 59 57.7845 59C44.9741 58.9916 32.166 58.9916 19.3604 59H1.09539C0.227691 59 0.013021 58.7763 0.00219727 57.9177C0.00219727 56.9184 0.00219727 55.9196 0.00219727 54.9215C0.00219727 54.0196 0.216868 53.8176 1.13327 53.8176H5.80009C5.98049 53.8176 6.1699 53.7995 6.34128 53.7887V47.34C5.59444 47.1073 4.89812 46.9449 4.24689 46.678C0.619148 45.197 -1.19382 40.9237 1.13869 37.298C1.28347 37.0471 1.32793 36.7506 1.26316 36.4682C0.828407 34.8736 1.02864 33.3837 1.93242 32.0055C2.13447 31.6971 2.09478 31.4319 2.06953 31.1036C2.0136 30.3496 1.88913 29.5451 2.08756 28.838C2.84342 26.0312 5.8506 24.4781 8.63229 25.3548C8.87402 25.4305 9.26729 25.5081 9.39176 25.3854C9.70023 25.0824 9.96722 24.7361 9.79404 24.1751C9.59369 23.5565 9.50453 22.9073 9.53066 22.2576C9.77059 18.3234 13.7158 15.5437 17.6124 16.5755C18.5378 16.819 19.4163 17.27 20.3363 17.6397V10.4442C20.3363 9.43949 20.367 9.61988 19.5083 9.60545C18.7326 9.59282 18.527 9.38899 18.5216 8.60251C18.5216 7.60499 18.5216 6.60567 18.5216 5.60634C18.5216 4.60701 18.711 4.43925 19.7049 4.43744H30.4186C30.4186 3.26675 30.4366 2.19346 30.4186 1.12198C30.3971 0.913594 30.4288 0.703161 30.5109 0.510391C30.5929 0.317621 30.7225 0.148828 30.8876 0.0198396H36.4149C36.8136 0.238104 36.9561 0.586247 36.9435 1.02458C36.9309 1.5044 36.9435 1.98422 36.9435 2.46765V4.40497H38.6897C38.6897 3.26134 38.7023 2.15198 38.6897 1.04442C38.6717 0.579029 38.798 0.234499 39.1804 0ZM53.7725 49.9411V9.6289H21.8065V10.2891C21.8065 13.1752 21.8065 16.0506 21.8174 18.9295C21.8233 19.2485 21.8984 19.5623 22.0374 19.8495C22.6851 21.1825 22.8745 22.5552 22.4506 23.9821C22.3753 24.1919 22.3534 24.4171 22.3868 24.6375C22.4202 24.8579 22.5078 25.0666 22.6418 25.2447C23.2284 26.0926 23.6063 27.067 23.7449 28.0886C23.8834 29.1102 23.7787 30.15 23.4391 31.1235C23.3777 31.2676 23.3554 31.4253 23.3744 31.5808C23.3934 31.7363 23.4531 31.8841 23.5474 32.0091C25.952 35.6691 25.3838 39.8576 22.1349 42.7474C21.9444 42.9407 21.8326 43.1978 21.821 43.4689C21.7957 45.4532 21.8065 47.4248 21.8083 49.4018C21.8083 49.5677 21.8318 49.7337 21.8462 49.9267H29.3994V49.2142C29.3994 44.8934 29.3994 40.5732 29.3994 36.2536C29.3994 35.3102 29.5996 35.1135 30.5521 35.1117H45.1839C46.1869 35.1117 46.3385 35.2669 46.3385 36.2933V49.9357L53.7725 49.9411ZM15.3484 43.413C15.3484 42.3018 15.3682 41.2304 15.334 40.1661C15.308 39.8921 15.1963 39.6333 15.0147 39.4265C14.6413 38.9918 14.147 38.6491 13.8205 38.1855C13.3929 37.5776 11.984 37.1411 12.9004 36.2283C13.779 35.3517 14.1921 36.7695 14.8235 37.1302C15.0097 37.2708 15.1835 37.4271 15.343 37.5974V36.7965C15.343 36.1255 15.3268 35.4527 15.343 34.7816C15.3556 34.3469 15.5865 34.0385 16.0393 34.0096C16.465 33.9825 16.714 34.2459 16.797 34.65C16.8214 34.8208 16.8286 34.9936 16.8186 35.1659C16.8186 35.9812 16.8186 36.7893 16.8186 37.7814C17.3797 37.2132 17.8144 36.7605 18.2618 36.3239C18.7092 35.8874 19.0862 35.8477 19.4217 36.1616C19.7573 36.4754 19.7392 36.9156 19.2991 37.3647C18.5775 38.0863 17.8559 38.8078 17.1343 39.5294C17.0171 39.6484 16.8421 39.7945 16.8403 39.9298C16.8168 41.0897 16.8258 42.2495 16.8258 43.413C18.7311 43.2684 20.5108 42.4073 21.8065 41.0031C24.0344 38.5372 24.1336 35.0793 22.0429 32.4781C21.7506 32.1174 21.554 31.7764 21.7777 31.284C22.7229 29.2114 22.4181 27.2849 21.0164 25.5261C20.8474 25.3456 20.7392 25.1166 20.7068 24.8714C20.6745 24.6262 20.7197 24.3771 20.836 24.1588C21.4205 22.815 21.2852 21.4892 20.5257 20.2517C19.2251 18.1322 16.5192 17.2808 14.1073 18.1971C11.6629 19.1261 10.3442 21.7236 11.2534 23.9911C11.5421 24.7126 11.4104 25.1798 10.9684 25.7534C9.82651 27.238 9.46572 28.9444 10.1657 30.6833C10.5463 31.6321 10.3334 32.2202 9.78502 32.9598C9.29076 33.6138 8.93828 34.3637 8.75005 35.1616C8.56183 35.9595 8.542 36.7878 8.69182 37.5938C9.24744 40.7542 11.9407 43.1172 15.3448 43.413H15.3484ZM1.5103 57.4703H57.4742V55.3328H1.5103V57.4703ZM8.64673 26.8321C8.17083 26.7246 7.68891 26.6457 7.20357 26.5958C4.64196 26.4822 2.61071 28.9101 3.68406 31.2642C3.89332 31.7241 3.72194 32.0687 3.44413 32.4204C2.48624 33.638 2.25533 34.9747 2.86507 36.4141C2.96953 36.6288 3.00682 36.87 2.97206 37.1062C2.9373 37.3424 2.83212 37.5626 2.67024 37.7381C1.50489 39.2209 1.24151 40.8822 2.00097 42.6085C2.81636 44.4538 4.34611 45.4135 6.37375 45.74V45.0094C6.37375 44.2031 6.35571 43.3968 6.37375 42.5905C6.38457 42.1666 6.59563 41.8473 7.06827 41.8238C7.49941 41.8004 7.75377 42.0349 7.82773 42.4498C7.84825 42.6215 7.85428 42.7947 7.84577 42.9675V45.7364C9.33403 45.5109 10.5301 44.9138 11.4861 43.7521C11.2444 43.5934 11.0388 43.4617 10.8367 43.3246C9.7545 42.6175 8.85902 41.6596 8.22641 40.5323C6.66058 37.6588 6.78325 34.8376 8.59622 32.1102C8.83253 31.7494 8.83795 31.468 8.74053 31.0585C8.55737 30.2984 8.45101 29.5219 8.42304 28.7406C8.39959 28.1381 8.5457 27.532 8.64312 26.8321H8.64673ZM20.3002 53.7743H55.2969V51.4672H20.3002V53.7743ZM30.9147 36.6053V49.9339H37.0878V36.6053H30.9147ZM38.6428 49.9231H44.8304V36.6053H38.6374L38.6428 49.9231ZM20.026 8.07399H55.5999V5.92201H20.0206L20.026 8.07399ZM15.3664 53.7743C15.3868 53.6937 15.4007 53.6117 15.4079 53.529C15.3953 50.7853 15.3773 48.0417 15.3755 45.298C15.3755 44.9625 15.2167 44.8831 14.9353 44.8344C14.4085 44.7443 13.8818 44.6396 13.3641 44.5079C13.0574 44.4286 12.8481 44.4358 12.6244 44.719C11.8154 45.7292 10.724 46.4758 9.48917 46.8638C8.96783 47.0441 8.42123 47.1361 7.90169 47.2642V53.7743H15.3664ZM18.7939 53.7743C18.7939 52.8092 18.7939 51.9091 18.7939 51.0108C18.7939 50.1973 19.0014 49.961 19.8006 49.97C20.2299 49.97 20.3616 49.8473 20.3562 49.4162C20.3327 47.7675 20.3471 46.1188 20.3453 44.4701C20.3387 44.3384 20.3255 44.2072 20.3057 44.0768L16.9052 45.0022V53.7743H18.7939ZM35.4246 4.38513V1.52425H31.9411V4.38513H35.4246ZM40.1906 1.49899V4.38513H43.6668V1.49899H40.1906Z" fill="#36E7FF"/>
<path d="M29.2709 17.6758C29.2709 16.6783 29.2709 15.6916 29.2709 14.685C29.2709 13.9761 29.5306 13.7182 30.245 13.7163C31.6449 13.7091 33.0441 13.7091 34.4428 13.7163C35.1644 13.7163 35.4187 13.9563 35.4223 14.6796C35.4332 16.6927 35.4332 18.7058 35.4223 20.7189C35.4223 21.4512 35.1824 21.6749 34.45 21.6785C33.0525 21.6785 31.6533 21.6785 30.2522 21.6785C29.5018 21.6785 29.2727 21.4368 29.2691 20.6684C29.2673 19.669 29.2709 18.6733 29.2709 17.6758ZM33.9323 15.2424H30.7916V20.1687H33.9323V15.2424Z" fill="#36E7FF"/>
<path d="M46.2082 17.7138C46.2082 18.7293 46.2082 19.7449 46.2082 20.7604C46.2082 21.4152 45.9539 21.6714 45.3063 21.675C43.8511 21.6834 42.3947 21.6834 40.9371 21.675C40.3183 21.675 40.0658 21.4279 40.0622 20.7947C40.0489 18.7239 40.0489 16.6537 40.0622 14.5841C40.0622 13.9708 40.3382 13.7219 40.9641 13.7164C42.4205 13.7068 43.8769 13.7068 45.3333 13.7164C45.9394 13.7164 46.2064 13.996 46.2136 14.6057C46.2172 15.6429 46.2082 16.6784 46.2082 17.7138ZM41.5414 20.1688H44.6767V15.2479H41.5414V20.1688Z" fill="#36E7FF"/>
<path d="M29.2709 28.3581C29.2709 27.3606 29.2709 26.3739 29.2709 25.3673C29.2709 24.6458 29.5126 24.4077 30.2414 24.4041C31.6593 24.3969 33.0778 24.3969 34.4969 24.4041C35.168 24.4041 35.4151 24.6368 35.4205 25.2952C35.4326 27.3468 35.4326 29.3977 35.4205 31.4481C35.4205 32.1245 35.1535 32.3644 34.4554 32.3681C33.0556 32.3753 31.6563 32.3753 30.2576 32.3681C29.5216 32.3681 29.2727 32.1029 29.2691 31.3471C29.2673 30.3514 29.2709 29.3538 29.2709 28.3581ZM33.9287 30.8654V25.9049H30.7952V30.8654H33.9287Z" fill="#36E7FF"/>
<path d="M46.2101 28.4014C46.2101 29.3971 46.2101 30.3947 46.2101 31.3904C46.2101 32.1011 45.9485 32.3626 45.2377 32.3681C43.8379 32.3753 42.4386 32.3753 41.0399 32.3681C40.3183 32.3681 40.0604 32.1227 40.0568 31.4048C40.0472 29.3917 40.0472 27.3792 40.0568 25.3673C40.0568 24.6314 40.2931 24.4077 41.0255 24.4041C42.4458 24.3969 43.8643 24.3969 45.281 24.4041C45.9647 24.4041 46.2046 24.6602 46.2082 25.3529C46.2155 26.3685 46.2101 27.3858 46.2101 28.4014ZM44.6749 30.8673V25.9031H41.5577V30.8673H44.6749Z" fill="#36E7FF"/>
</g>
<defs>
<clipPath id="clip0_1_1238">
<rect width="59" height="59" fill="white"/>
</clipPath>
</defs>
</svg>
