<svg width="55" height="47" viewBox="0 0 55 47" fill="none" xmlns="http://www.w3.org/2000/svg">
<g clip-path="url(#clip0_85_15329)">
<path d="M0 13.9311C0.338021 13.2747 0.872267 13.0563 1.61706 13.062C5.3582 13.0889 9.09792 13.0748 12.8391 13.0748H13.4635V5.45291C13.0668 5.45291 12.6801 5.45291 12.2948 5.45291C11.5042 5.43447 11.0057 4.98647 10.99 4.2067C10.9642 3.21711 10.9642 2.22468 10.99 1.22941C11.0115 0.472331 11.4913 0.034247 12.2547 0.000220879C12.4151 -0.0068679 12.577 0.000220879 12.7374 0.000220879H42.2669C43.6677 0.000220879 44.0215 0.344734 44.0215 1.71287C44.0215 2.49121 44.0215 3.2724 44.0215 4.04649C44.01 4.99072 43.5488 5.44156 42.6007 5.45149C42.2626 5.45149 41.9246 5.45149 41.5436 5.45149V13.0719H42.1624C45.9035 13.0719 49.6432 13.0861 53.3844 13.0592C54.1292 13.0592 54.662 13.2747 55.0014 13.9282V17.6428C54.652 18.4452 53.9788 18.5728 53.1896 18.536C52.4591 18.5005 52.4562 18.5359 52.4562 19.2306C52.4562 28.1408 52.4562 37.0523 52.4562 45.9653C52.4562 46.823 52.313 46.9577 51.4694 46.9577C45.1177 46.9719 38.7654 46.9837 32.4128 46.9931C26.6163 46.9931 20.8184 46.969 15.0204 46.9605C11.2449 46.9548 7.4694 46.9548 3.69388 46.9605C2.61966 46.9605 2.54805 46.8868 2.54805 45.8022C2.54805 36.9611 2.54805 28.12 2.54805 19.2789C2.54805 18.4282 2.63398 18.5019 1.76172 18.5345C0.983983 18.5629 0.342316 18.414 0.00286301 17.6399L0 13.9311ZM40.1686 45.6689V5.50252H14.8428V45.6633H18.0068V45.0125C18.0068 40.7848 18.0068 36.557 18.0068 32.3293C18.0068 30.4451 19.1454 29.3166 21.0375 29.3137C25.3535 29.3137 29.668 29.3137 33.9811 29.3137C34.2491 29.3075 34.517 29.3294 34.7803 29.3789C36.1668 29.6852 36.9875 30.7641 36.9904 32.2981C36.9961 36.5429 36.9961 40.7881 36.9904 45.0338V45.6675L40.1686 45.6689ZM51.1328 18.6068H41.5866V45.6576H51.1328V18.6068ZM13.4234 45.6675V18.6153H3.86719V45.6675H13.4234ZM26.834 30.5869H21.1664C19.8258 30.5869 19.2958 31.1157 19.2958 32.4597C19.2958 36.6676 19.2958 40.8736 19.2958 45.0777C19.2958 45.2635 19.313 45.4492 19.3216 45.6349H26.834V30.5869ZM28.1803 30.5968V45.6463H35.6784C35.6884 45.4605 35.7042 45.306 35.7042 45.15C35.7042 40.8892 35.7042 36.6289 35.7042 32.369C35.7054 32.2269 35.6987 32.085 35.6841 31.9437C35.6053 31.2093 35.0639 30.6209 34.3249 30.611C32.2882 30.5769 30.2514 30.5968 28.1803 30.5968ZM12.2991 4.14857H42.7009V1.31306H12.2991V4.14857ZM1.32773 14.3748V17.2103H13.4206V14.3748H1.32773ZM53.6823 14.3748H41.5766V17.2103H53.6823V14.3748Z" fill="#36E7FF"/>
<path d="M34.1185 11.2118C34.0714 11.202 34.0235 11.1968 33.9753 11.1962C33.0114 11.4911 33.0114 11.4911 33.0114 12.4863C33.0114 13.6205 33.0114 14.7547 33.0114 15.8818C33.0114 16.517 32.8152 16.7027 32.1735 16.7027C28.8792 16.7027 25.585 16.7027 22.2907 16.7027C21.649 16.7027 21.4571 16.517 21.4542 15.8818C21.4471 14.6257 21.437 13.3696 21.4542 12.1135C21.4614 11.7463 21.3396 11.5804 20.9887 11.4769C20.3694 11.3039 19.763 11.0884 19.174 10.8318C18.9405 10.7241 18.657 10.4235 18.6555 10.2066C18.6541 9.98966 18.942 9.67067 19.1683 9.5856C21.6662 8.6754 24.1813 7.79781 26.6907 6.93156C26.9259 6.86481 27.1764 6.87275 27.4068 6.95425C29.9033 7.81624 32.3926 8.6995 34.8863 9.56859C35.0433 9.60853 35.1816 9.70085 35.2779 9.82998C35.3742 9.95911 35.4225 10.1172 35.4148 10.2775C35.4148 11.0374 35.4033 11.7973 35.3947 12.5586C35.3947 12.9754 35.2515 13.2959 34.7674 13.3256C34.352 13.3512 34.1214 13.0761 34.11 12.5459C34.1114 12.1064 34.1185 11.6683 34.1185 11.2118ZM32.8066 10.2363C32.6361 10.1584 32.5473 10.1102 32.4542 10.0761C30.7355 9.47076 29.0282 8.85971 27.308 8.27276C27.0899 8.21368 26.8587 8.22309 26.6463 8.2997C24.959 8.8753 23.279 9.47076 21.5975 10.062C21.5129 10.0917 21.4327 10.1371 21.2566 10.2193C22.8736 10.7779 24.4076 11.2288 25.8786 11.8455C26.8812 12.2708 27.7477 12.2198 28.7145 11.803C30.0265 11.2373 31.3829 10.7694 32.8066 10.2363ZM31.6808 15.4041V12.0695C30.4247 12.5388 29.2215 12.9641 28.0385 13.4405C27.8048 13.5431 27.5525 13.5975 27.2969 13.6005C27.0413 13.6034 26.7877 13.5547 26.5517 13.4575C25.3128 12.9896 24.051 12.5756 22.7834 12.1361V15.4041H31.6808Z" fill="#36E7FF"/>
<path d="M27.4999 25.5467H18.2674C17.3665 25.5467 17.2161 25.3922 17.2161 24.4891C17.2161 22.8624 17.2161 21.2358 17.2161 19.6091C17.2161 18.8832 17.408 18.6918 18.1313 18.6904H36.8657C37.5818 18.6904 37.7809 18.8847 37.7823 19.6091C37.7823 21.2367 37.7823 22.8629 37.7823 24.4891C37.7823 25.3936 37.6305 25.5467 36.731 25.5467H27.4999ZM18.5051 19.9933C18.5051 21.2396 18.5295 22.456 18.4922 23.6696C18.4765 24.1672 18.6355 24.2835 19.1224 24.2821C24.7027 24.2669 30.2829 24.2636 35.8631 24.2721H36.4517V19.9933H18.5051Z" fill="#36E7FF"/>
<path d="M24.6355 38.9235C24.3491 38.9385 24.0621 38.9361 23.7761 38.9164C23.4137 38.8725 23.1903 38.6471 23.2032 38.2742C23.2002 38.194 23.2142 38.1142 23.2444 38.0397C23.2745 37.9653 23.32 37.8979 23.378 37.842C23.436 37.786 23.5053 37.7427 23.5812 37.7148C23.6572 37.687 23.7382 37.6751 23.819 37.6801C24.3705 37.666 24.9305 37.6234 25.4691 37.7042C25.6939 37.7368 25.9861 38.0247 26.0506 38.2501C26.1465 38.5903 25.8944 38.8597 25.5278 38.9093C25.2268 38.9292 24.9249 38.9292 24.624 38.9093L24.6355 38.9235Z" fill="#36E7FF"/>
<path d="M30.3645 37.6793C30.651 37.6793 30.9646 37.6041 31.2096 37.7005C31.4545 37.7969 31.7495 38.0592 31.761 38.2676C31.7725 38.476 31.4745 38.856 31.2869 38.8829C30.6718 38.9637 30.0486 38.9637 29.4335 38.8829C29.2373 38.8574 28.948 38.4704 28.9609 38.2648C28.9738 38.0592 29.2831 37.8012 29.5209 37.7076C29.7586 37.614 30.0781 37.6793 30.3645 37.6793Z" fill="#36E7FF"/>
</g>
<defs>
<clipPath id="clip0_85_15329">
<rect width="55" height="47" fill="white"/>
</clipPath>
</defs>
</svg>
