<svg width="1921" height="500" viewBox="0 0 1921 500" fill="none" xmlns="http://www.w3.org/2000/svg">
<g clip-path="url(#clip0_338_8063)">
<mask id="mask0_338_8063" style="mask-type:luminance" maskUnits="userSpaceOnUse" x="-241" y="-469" width="2165" height="1902">
<path d="M-241 -469H1924V1432.03H-241V-469Z" fill="white"/>
</mask>
<g mask="url(#mask0_338_8063)">
<path d="M-112.009 60.9397C-100.879 68.4083 -93.5947 79.1389 -91.6507 90.9293L-96.5886 88.9014C-85.3703 89.1626 -75.7932 93.9079 -67.8784 100.253C-59.9635 106.597 -53.7247 114.948 -44.8092 120.743C-36.3575 126.214 -24.486 126.427 -16.7624 132.857C-12.7447 136.192 -10.9587 140.882 -8.35007 144.963C-5.38832 149.462 -1.91753 153.716 2.01478 157.666C11.0773 166.388 21.0202 174.447 31.7341 181.754C35.328 184.332 27.2937 184.675 25.2816 183.246C8.27076 171.024 -8.84488 158.357 -18.776 141.114C-21.2419 136.76 -23.6323 133.116 -29.068 130.981C-33.5805 129.185 -38.5161 128.254 -43.026 126.482C-52.523 122.756 -59.4717 116.079 -66.1211 109.524C-73.4783 102.232 -82.613 92.7558 -95.0292 92.5336C-96.2631 92.5037 -99.7518 91.9929 -99.967 90.5057C-101.643 79.4836 -108.303 69.4033 -118.587 62.3225C-122.256 59.8449 -114.17 59.4503 -112.134 60.8296L-112.009 60.9397Z" fill="white" fill-opacity="0.75"/>
<path d="M31.4705 187.354C46.7079 183.15 52.9772 197.176 62.5128 203.689C63.8721 204.551 65.4263 205.174 67.0815 205.521C68.7368 205.869 70.4586 205.934 72.1435 205.711C76.2777 205.611 80.3818 206.345 84.1054 207.851C90.6623 210.572 95.2353 215.632 99.7421 220.339C104.249 225.046 108.921 230.767 116.214 232.338C121.309 233.424 126.646 233.276 131.647 234.823C135.373 235.969 138.696 237.878 141.309 240.373C151.995 250.715 148.409 266.528 158.397 277.302C168.964 288.679 189.699 289.348 205.187 292.353C222.074 295.553 238.054 301.47 252.229 309.772C281.734 326.719 304.495 350.237 331.328 369.787C344.953 379.579 359.891 388.023 375.844 394.95C391.017 401.723 407.49 408.879 417.453 421.039C419.822 423.991 421.737 427.178 423.155 430.526C424.411 433.464 415.937 433.172 414.793 430.487C408.854 416.605 393.597 408.502 378.881 401.719C363.441 394.584 348.188 387.864 334.308 378.707C306.996 360.576 284.904 337.701 257.669 319.492C244.859 310.556 230.218 303.624 214.454 299.03C198.36 294.637 180.952 294.299 165.53 288.14C158.127 285.412 151.96 280.785 147.928 274.935C144.127 269.056 142.736 262.43 140.911 256.026C139.306 250.346 137.368 243.425 131.226 240.029C127.268 237.787 122.182 237.869 117.623 237.245C113.419 236.736 109.389 235.5 105.789 233.618C100.006 229.964 94.9746 225.55 90.892 220.551C87.1447 216.528 82.3696 210.91 75.7057 210.415C71.1478 210.077 66.9019 210.79 62.4556 209.347C59.4204 208.299 56.6609 206.764 54.334 204.83C49.7056 201.134 46.42 196.338 41.6104 192.822C40.1548 191.783 38.8356 190.948 36.8902 191.494C35.9086 191.76 34.8627 191.818 33.8468 191.662C32.831 191.507 31.8771 191.143 31.0715 190.604C30.7536 190.413 30.5064 190.151 30.3586 189.849C30.2108 189.547 30.1685 189.216 30.236 188.895C30.3034 188.574 30.4783 188.275 30.7404 188.033C31.0026 187.791 31.3412 187.616 31.7177 187.527L31.4705 187.354Z" fill="white" fill-opacity="0.75"/>
<path d="M138.968 243.929C156.927 245.945 175.012 248.619 187.887 260.163C194.497 266.077 200.246 272.507 207.251 278.106C214.738 284.009 222.814 289.37 231.392 294.13C232.941 294.972 230.215 295.169 229.613 295.165C227.627 295.207 225.663 294.796 223.934 293.978C209.402 285.859 196.355 276.029 185.202 264.794C179.565 259.143 173.8 253.907 165.633 250.849C157.68 248.265 149.324 246.645 140.823 246.037C140.01 245.929 135.853 245.586 135.778 244.614C135.703 243.641 138.155 243.821 138.968 243.929Z" fill="white" fill-opacity="0.75"/>
<path d="M-13.3521 206.725C-21.4925 217.119 -22.0988 229.734 -20.225 241.716C-19.2463 247.966 -17.6475 254.124 -15.9378 260.25C-14.462 266.84 -11.9926 273.25 -8.5882 279.326C-4.7617 285.442 1.27439 289.728 7.15205 294.407C12.763 298.807 17.5559 303.879 21.3722 309.455C25.0523 314.987 27.7651 320.927 29.4282 327.096C29.6037 328.581 30.2291 330.004 31.2457 331.232C32.2624 332.46 33.637 333.453 35.2399 334.118C38.7105 335.537 42.1993 336.858 45.4988 338.552C59.1983 345.621 70.0095 355.984 76.5036 368.271C77.3278 369.834 74.1944 370.514 72.994 370.529C72.0059 370.579 71.0211 370.389 70.1597 369.981C69.2982 369.574 68.5973 368.966 68.1422 368.233C61.9905 356.715 51.6342 347.105 38.5509 340.772C32.5185 337.869 24.9797 336.411 22.2058 330.506C20.8381 327.599 20.4111 324.386 19.2631 321.392C18.0212 318.111 16.4283 314.929 14.5038 311.885C10.637 305.928 5.62682 300.537 -0.32794 295.927C-6.19806 291.319 -12.1928 286.886 -16.061 280.917C-19.5959 274.982 -22.1884 268.691 -23.7731 262.201C-25.5162 256.03 -27.2051 249.831 -28.3 243.565C-30.6655 230.187 -30.393 216.045 -21.2733 204.365C-19.3795 201.985 -11.2379 203.996 -13.3805 206.727L-13.3521 206.725Z" fill="white" fill-opacity="0.75"/>
<path d="M4.49393 188.282C20.1714 211.931 57.198 222.632 65.8096 250.085C66.7359 253.019 67.2012 256.041 67.1937 259.073C67.1625 262.821 65.4266 266.954 66.8179 270.622C68.5013 273.69 70.9904 276.404 74.101 278.563C77.6908 281.643 81.2718 284.731 84.8444 287.828L105.346 305.427C111.423 310.098 116.789 315.374 121.324 321.134C125.001 326.379 126.554 332.373 128.848 338.075C130.794 342.919 133.538 349.09 140.081 350.596C141.311 350.865 143.377 351.717 142.596 352.99C141.815 354.263 138.252 353.591 137.199 353.381C124.03 350.375 121.193 339.297 117.521 329.783C115.071 323.41 110.961 317.565 105.485 312.668C98.9222 306.655 91.9583 300.909 85.1546 295.057C78.351 289.204 71.4545 283.287 64.6534 277.458C61.5009 275.188 59.2533 272.172 58.2111 268.812C57.483 265.191 58.8769 261.608 58.8847 257.91C58.9673 243.329 46.707 230.834 34.5257 221.507C20.9046 211.019 5.44696 201.834 -3.68855 188.039C-4.88379 186.218 3.28623 186.342 4.62022 188.392L4.49393 188.282Z" fill="white" fill-opacity="0.75"/>
<path d="M-202.921 -17.8754L-187.892 -38.0469C-183.782 -43.5447 -180.021 -49.8998 -172.425 -52.4774C-164.828 -55.055 -155.926 -54.5069 -148.04 -54.0998C-139.312 -53.6941 -130.645 -52.629 -122.145 -50.9177C-113.373 -49.1674 -105.006 -46.386 -95.7638 -47.4845C-87.2834 -48.4802 -78.9389 -50.7542 -70.2976 -50.2349C-56.5588 -49.4167 -45.2356 -42.5078 -36.635 -34.0183C-27.5505 -25.0151 -21.6689 -14.3727 -14.097 -4.52054C-10.3934 0.51171 -5.89083 5.1045 -0.711835 9.1329C4.47847 12.8253 10.6408 15.4443 17.2723 16.7761C23.9616 18.3193 30.7546 20.5707 34.1264 25.9084C37.4982 31.2461 37.2297 37.6108 39.5215 43.2891C43.9487 54.2516 54.6411 62.4942 64.2682 70.4085C69.9003 74.8431 75.1831 79.5761 80.0835 84.5778C85.4295 90.6756 89.8445 97.3032 93.2267 104.308C99.3532 115.91 108.306 133.367 126.273 134.118C127.969 134.186 130.75 134.772 131.132 136.486C131.515 138.199 129.197 139.011 127.605 138.84C113.23 138.235 101.723 130.409 94.3477 120.519C85.7067 108.955 81.79 95.5225 71.3499 84.8046C62.8352 76.0464 52.1784 68.9461 43.4232 60.3485C39.0754 56.2236 35.4777 51.5894 32.7462 46.5945C29.9065 41.1466 29.6132 35.419 27.6439 29.8128C25.2138 22.8325 18.4218 21.9408 11.0699 20.0877C4.60982 18.4591 -1.36737 15.7137 -6.47151 12.0308C-16.7199 4.73397 -23.4858 -5.34352 -30.0235 -14.8889C-36.5611 -24.4342 -44.1334 -35.0974 -55.7247 -41.2951C-61.4566 -44.5071 -68.353 -45.9486 -75.2188 -45.3701C-83.7393 -44.7532 -91.8526 -42.1858 -100.454 -42.3264C-109.971 -42.4722 -119.02 -45.753 -128.278 -47.2295C-137.83 -48.8614 -147.565 -49.6203 -157.311 -49.4927C-161.935 -49.7712 -166.541 -48.7933 -170.437 -46.7055C-173.574 -44.1997 -176.167 -41.2601 -178.1 -38.0164L-194.895 -15.3317C-196.774 -12.8103 -204.918 -14.8446 -202.764 -17.7437L-202.921 -17.8754Z" fill="white" fill-opacity="0.75"/>
<path d="M37.1432 29.244C47.3425 39.3114 63.7844 42.6771 74.4547 52.3288C80.0335 57.8318 84.444 64.0875 87.4956 70.8256C91.4363 78.5553 95.2377 86.3189 99.124 94.0763L110.971 117.764C113.879 123.589 116.757 133.709 125.299 135.452C132.552 136.907 140.44 135.191 147.818 136.207C155.097 137.464 161.87 140.259 167.484 144.325C174.788 149.235 181.201 154.639 190.073 157.598C199.837 160.875 210.595 162.195 220.836 164.03C221.826 164.197 225.005 164.754 224.751 166.132C224.497 167.51 221.106 167.112 220.229 166.937C202.402 163.743 184.104 161.49 169.565 151.522C163.399 147.364 157.64 141.913 150.038 139.601C142.912 137.445 134.603 139.24 127.193 138.464C123.417 138.246 119.761 137.254 116.552 135.576C113.343 133.899 110.68 131.587 108.799 128.847C103.84 121.501 100.629 113.098 96.7431 105.341L84.3523 80.571C81.051 73.1352 77.0983 65.911 72.5259 58.9567C67.319 51.7004 59.82 47.1147 51.2434 42.8934C43.4505 39.0446 35.4687 35.3049 29.5555 29.4833C27.4471 27.4175 35.6273 27.6363 37.1281 29.102L37.1432 29.244Z" fill="white" fill-opacity="0.75"/>
<path d="M-112.965 -14.3461C-113.629 -3.34905 -114.292 8.45908 -107.35 18.3091C-104.395 22.6642 -99.7044 26.0215 -94.0928 27.7974C-88.496 29.5628 -82.5686 30.3979 -76.9693 32.1871C-57.4737 38.4327 -42.5162 50.9942 -26.1092 61.304C-17.1582 67.4433 -6.83412 72.0394 4.26214 74.8248C5.96225 75.2026 8.32934 76.2001 7.94738 77.993C7.56541 79.7858 4.89746 80.2653 3.19986 79.9111C-18.9408 75.169 -35.3865 62.0711 -52.9493 50.5808C-61.4199 44.6517 -70.948 39.8606 -81.1889 36.3808C-87.1208 34.4249 -93.748 33.7359 -99.6223 31.5134C-105.163 29.4034 -109.93 26.1007 -113.432 21.9459C-122.723 11.0017 -122.167 -2.89779 -121.403 -15.6435C-121.189 -19.0224 -112.769 -17.8907 -112.973 -14.4171L-112.965 -14.3461Z" fill="white" fill-opacity="0.75"/>
<path d="M16.814 97.6031C36.1154 100.404 52.1939 110.046 65.194 121.962C79.7927 135.456 90.7109 151.482 106.241 164.313C113.993 170.741 122.762 176.236 129.777 183.266C136.439 189.94 141.779 197.378 147.929 204.351C153.453 210.759 160.157 216.401 167.793 221.066C174.821 225.111 182.087 228.86 189.564 232.299C205.225 239.896 221.707 248.22 229.628 262.436C230.473 263.925 222.384 263.748 221.359 261.914C214.315 249.495 200.748 241.937 187.026 235.083C173.305 228.228 158.165 221.763 147.122 211.566C140.837 205.325 135.034 198.757 129.749 191.903C123.653 184.569 116.513 177.877 108.486 171.974C100.7 166.276 93.4743 160.067 86.8798 153.406C80.2236 146.517 74.1285 139.253 67.6302 132.234C54.6953 118.237 38.26 103.35 16.3705 100.164C15.4699 100.038 12.1748 99.4657 12.4183 98.2553C12.6619 97.045 16.1432 97.4847 16.8993 97.5969L16.814 97.6031Z" fill="white" fill-opacity="0.75"/>
<path d="M96.79 155.36C115.242 170.101 108.484 194.588 123.273 210.954C124.475 212.299 122.598 213.222 121.196 213.49C120.179 213.638 119.133 213.572 118.154 213.297C117.175 213.022 116.294 212.547 115.591 211.916C108.359 203.924 106.083 193.808 103.627 184.158C101.171 174.508 98.8637 164.107 90.2636 157.24C86.6655 154.351 94.5647 153.541 96.7875 155.336L96.79 155.36Z" fill="white" fill-opacity="0.75"/>
<path d="M297.323 135.879C318.289 144.642 329.071 162.897 336.717 180.448C340.674 190.483 345.246 200.344 350.416 209.99C353.108 214.79 356.383 219.349 360.19 223.594C364.427 228.003 369.269 231.983 374.615 235.455C386.062 243.261 394.354 252.346 396.957 264.728C397.058 265.675 388.945 265.547 388.527 263.502C386.06 252.749 378.923 243.125 368.484 236.471C358.861 230.263 350.796 222.539 344.747 213.74C333.368 196.339 329.077 176.421 317.313 159.168C311.002 149.869 302.613 141.483 290.992 136.623C289.465 135.994 289.97 135.361 291.314 135.073C293.315 134.882 295.341 135.192 297.132 135.964L297.323 135.879Z" fill="white" fill-opacity="0.75"/>
<path d="M390.516 277.647C393.524 288.449 387.991 298.606 385.094 309.05C382.104 319.736 382.237 330.868 385.48 341.511C388.677 351.942 395.738 360.758 400.701 370.56C402.97 375.102 404.369 379.91 404.848 384.811C405.295 389.025 405.467 394.141 409.749 397.004C411.225 397.97 410.739 399.317 409.165 399.861C408.18 400.102 407.14 400.147 406.129 399.993C405.119 399.838 404.165 399.488 403.346 398.97C401.475 397.591 399.952 395.914 398.868 394.039C397.784 392.163 397.161 390.126 397.034 388.049C396.648 383.055 395.576 378.115 393.839 373.323C389.425 363.028 381.632 354.051 377.96 343.463C374.319 332.897 373.656 321.777 376.025 310.971C378.462 299.964 385.481 288.984 382.325 277.596C381.495 274.626 389.935 275.136 390.668 277.731L390.516 277.647Z" fill="white" fill-opacity="0.75"/>
<path d="M458.327 300.098C474.428 308.33 490.559 316.585 506.361 325.245C521.161 333.357 535.257 342.927 551.081 349.63C559.29 353.09 568.097 355.435 576.538 358.378C583.321 360.75 589.891 363.527 596.195 366.687C608.019 372.807 619.272 379.663 629.856 387.197C651.465 402.02 672.098 418.703 697.657 428.684C704.318 431.245 711.241 433.299 718.343 434.82C726.534 436.309 734.53 438.471 742.211 441.274C753.127 446.016 762.64 452.727 770.056 460.917C788.143 479.764 798.472 503.443 819.905 520.116C823.678 523.039 815.878 524.51 813.287 522.479C794.164 507.619 783.485 487.377 768.927 469.682C762.353 461.06 753.778 453.619 743.706 447.797C730.748 440.863 715.066 439.804 700.949 435.149C674.701 426.506 653.227 410.791 631.97 395.775C621.412 388.126 610.361 380.963 598.866 374.318C593.132 371.087 587.162 368.157 580.991 365.545C573.475 362.416 565.533 360.129 557.757 357.519C538.887 351.228 523.112 340.944 506.346 331.567C488.887 321.858 471.024 312.656 453.142 303.55C451.659 302.799 450.788 301.335 452.299 300.2C453.194 299.751 454.22 299.516 455.265 299.52C456.311 299.524 457.335 299.768 458.226 300.224L458.327 300.098Z" fill="white" fill-opacity="0.75"/>
<path d="M536.326 315.799C548.609 322.951 561.504 329.345 574.905 334.928C581.613 337.599 588.615 339.72 595.813 341.262C602.369 342.624 609.15 343.684 614.745 347.048C620.339 350.412 624.228 355.497 628.418 359.917C633.352 365.142 638.395 370.311 643.499 375.523C653.449 385.489 663.673 395.253 674.172 404.813C686.375 415.873 698.968 426.649 711.95 437.144C713.236 438.195 711.053 438.401 710.14 438.42C708.134 438.547 706.134 438.112 704.456 437.185C682.255 419.121 661.098 400.202 640.986 380.428C635.94 375.498 631.001 370.488 626.115 365.451C621.23 360.414 616.895 355.169 611.73 350.462C606.117 345.311 599.152 344.408 591.472 342.698C584.66 341.162 578.007 339.17 571.578 336.743C556.725 330.802 542.481 323.855 528.988 315.973C527.377 315.088 530.2 314.716 530.799 314.697C532.798 314.63 534.776 315.06 536.482 315.931L536.326 315.799Z" fill="white" fill-opacity="0.75"/>
<path d="M441.186 245.162C447.798 249.741 458.235 246.957 466.016 246.656C475.883 246.376 485.588 248.837 493.605 253.652C512.537 264.388 530.509 276.257 547.377 289.165C563.328 301.106 577.607 315.101 595.269 325.367C604.238 330.586 614.236 333.368 624.245 336.794C632.992 340.005 641.15 344.233 648.475 349.352C654.618 353.297 661.609 357.681 669.665 355.38C675.666 353.681 680.293 349.553 684.313 345.636C692.481 337.65 700.111 326.769 713.22 324.079C717.517 323.378 721.942 323.427 726.218 324.222C730.494 325.017 734.528 326.54 738.066 328.696C747.636 333.919 756.348 340.492 765.281 346.453C782.805 358.113 800.823 369.308 815.448 383.588C821.513 389.943 827.986 396.02 834.84 401.792C838.195 404.507 841.886 406.918 845.85 408.985C850.31 411.01 854.944 412.755 859.713 414.208C868.492 417.402 875.898 422.749 880.946 429.535C886.387 436.297 890.757 443.757 898.171 449.16C901.42 451.817 905.621 453.515 910.133 453.995C911.658 454.076 914.654 454.527 915.042 456.025C915.43 457.524 912.935 458.015 911.611 457.944C902.298 457.243 893.681 453.524 887.615 447.587C880.997 441.602 876.819 434.056 871.188 427.665C868.323 424.167 864.638 421.188 860.356 418.908C855.617 416.603 850.197 415.421 845.293 413.439C836.984 409.829 829.527 404.994 823.285 399.169C816.623 393.306 810.732 386.887 804.169 380.874C796.291 373.762 787.726 367.202 778.56 361.259C769.11 354.93 759.635 348.619 750.132 342.326C745.481 339.228 740.88 336.054 736.182 333.055C732.424 330.238 727.858 328.276 722.927 327.359C709.525 325.944 699.994 339.945 692.743 347.125C688.776 351.489 683.747 355.104 677.986 357.735C674.556 359.065 670.834 359.791 667.05 359.868C663.267 359.945 659.504 359.371 655.995 358.183C647.515 355.409 640.992 350.037 633.742 345.648C625.179 340.472 614.893 338.211 605.312 334.778C585.285 327.569 570.459 314.091 555.008 301.733C538.184 288.265 520.378 275.676 501.691 264.039C493.6 258.995 484.106 251.525 473.643 250.565C464.455 249.751 455.349 252.39 446.139 251.101C441.97 250.559 438.049 249.097 434.785 246.866C433.393 245.893 433.753 244.698 435.355 244.153C436.341 243.917 437.379 243.875 438.389 244.029C439.398 244.184 440.352 244.531 441.174 245.044L441.186 245.162Z" fill="white" fill-opacity="0.75"/>
<path d="M715.874 330.208C715.945 331.963 716.547 333.675 717.623 335.185C718.699 336.696 720.215 337.957 722.03 338.851C725.66 340.425 730.113 340.317 733.8 341.887C740.78 344.816 744.946 350.621 748.64 356.031C756.98 369.139 770.014 379.761 785.926 386.417C787.421 387.024 788.254 388.395 786.844 389.404C785.434 390.412 782.462 389.912 780.936 389.283C764.18 382.409 750.382 371.384 741.436 357.722C739.555 354.755 737.407 351.913 735.008 349.218C732.362 346.284 728.462 344.311 724.12 343.709C715.714 342.17 708.199 337.705 707.389 330.083C707.052 326.911 715.455 327.614 715.73 330.195L715.874 330.208Z" fill="white" fill-opacity="0.75"/>
<path d="M803.313 401.641C808.153 407.326 816.814 408.845 824.071 411.421C831.176 413.981 837.628 417.652 843.079 422.234C854.498 431.665 862.803 443.563 875.829 451.684C877.393 452.668 874.725 453.148 873.959 453.203C871.95 453.309 869.955 452.848 868.296 451.896C855.022 443.602 846.657 431.398 834.827 421.878C828.983 417.238 822.031 413.677 814.427 411.428C807.141 409.117 799.612 406.68 795.051 401.19C794.073 400.068 797.793 400.061 798.309 400.071C799.234 400.049 800.154 400.182 801.016 400.464C801.877 400.746 802.661 401.171 803.32 401.712L803.313 401.641Z" fill="white" fill-opacity="0.75"/>
<path d="M444.799 402.576C453.404 413.26 468.354 417.401 482.512 420.813C497.201 424.377 512.857 427.347 525.595 434.917C541.849 444.593 548.149 460.787 560.942 472.909C572.566 483.995 587.898 491.734 603.661 497.869C620.34 504.27 637.725 509.238 654.645 515.216C673.345 521.698 690.998 530.109 707.19 540.252C723.882 551.049 738.875 563.556 751.814 577.477C765.442 591.805 777.844 606.984 792.106 620.813C798.967 627.472 806.649 633.238 813.763 639.592C820.371 645.483 826.245 652.286 827.433 660.501C828.687 669.618 825.509 678.769 825.362 687.892C825.172 702.056 828.944 716.067 836.378 728.815C838.405 732.27 830.143 732.63 828.635 730.02C818.999 713.594 815.2 695.22 817.687 677.069C818.991 667.791 820.865 658.758 814.841 650.273C809.719 643.01 801.758 637.575 794.799 631.615C764.641 605.817 744.154 573.261 711.108 549.653C695.214 538.31 677.456 528.92 658.375 521.769C641.624 515.491 624.21 510.526 607.368 504.47C591.237 498.649 575.342 491.809 562.044 481.942C555.229 476.78 549.286 470.87 544.38 464.376C538.899 457.235 534.212 449.488 527.141 443.273C505.037 423.786 467.502 428.508 444.102 410.832C441.374 408.746 438.961 406.389 436.917 403.815C434.409 400.681 442.744 400.196 444.657 402.586L444.799 402.576Z" fill="white" fill-opacity="0.75"/>
<path d="M420.418 364.887C430.468 377.776 442.294 389.641 455.656 400.24C469.128 410.289 485.038 417.802 502.3 422.267C519.432 427.014 537.2 430.999 551.824 440.15C565.844 449.01 576.232 460.853 588.072 471.542C599.293 481.79 613.02 489.915 628.324 495.367C643.878 500.488 659.837 504.704 676.087 507.987C692.095 511.255 707.739 515.661 722.849 521.156C737.295 527.054 750.658 534.641 762.534 543.687C790.934 564.507 814.723 590.694 847.181 607.427C851.937 609.897 845.596 612.98 842.023 611.14C812.771 596.035 790.351 573.304 765.583 553.795C754.084 544.233 741.2 535.903 727.231 528.997C712.572 522.21 696.33 518.043 680.251 514.317C648.628 507.065 615.249 500.799 590.301 481.757C577.064 471.647 566.866 459.17 553.733 448.957C540.068 438.33 523.455 433.354 505.788 428.694C495.928 426.252 486.31 423.176 477.02 419.494C468.148 415.683 459.858 410.997 452.326 405.538C436.83 394.375 424.112 380.53 412.595 366.407C411.409 364.943 413.235 363.546 414.829 363.192C415.862 362.989 416.945 363.049 417.938 363.364C418.93 363.679 419.787 364.235 420.397 364.96L420.418 364.887Z" fill="white" fill-opacity="0.75"/>
<path d="M198.214 391.328C226.946 413.937 256.894 437.745 271.142 469.227C278.583 485.386 281.458 502.758 290.666 518.312C298.345 531.329 310.573 541.632 323.645 550.99C336.22 559.979 349.571 568.196 361.263 578.036C374.043 588.343 383.392 601.238 388.392 615.455C394.114 632.144 395.246 649.81 403.149 666.007C411.051 682.204 424.384 696.172 436.13 710.564C463.363 743.849 478.61 782.032 493.266 820.044C494.404 822.944 485.922 822.58 484.928 819.956C471.735 785.75 458.348 751.058 435.343 720.401C424.503 705.919 411.388 692.652 401.554 677.668C396.772 670.469 393.012 662.832 390.35 654.911C387.55 646.336 385.872 637.536 383.8 628.812C382.03 620.093 379.041 611.575 374.894 603.432C371.426 597.242 366.961 591.474 361.624 586.288C350.944 575.73 337.678 567.244 324.959 558.505C312.239 549.765 299.777 540.767 290.4 529.543C278.95 516.06 274.179 499.707 268.774 484.116C265.758 474.703 261.614 465.565 256.403 456.84C251.362 448.89 245.473 441.333 238.807 434.26C224.856 419.312 208.299 406.246 191.812 393.294C188.128 390.412 196.031 389.363 198.403 391.219L198.214 391.328Z" fill="white" fill-opacity="0.75"/>
<path d="M197.905 413.749C200.265 469.373 234.835 518.92 255.327 570.655C260.645 583.75 264.776 597.158 267.688 610.765C270.766 625.737 272.009 640.938 275.002 655.916C278.004 670.377 283.348 684.435 290.889 697.703C297.955 710.335 305.754 722.866 309.746 736.46C319.029 768.087 306.395 801.109 317.099 832.632C317.951 835.266 309.54 834.754 308.775 832.4C299.306 804.151 308.39 774.892 303.804 746.265C301.556 732.115 294.869 719.003 287.605 706.123C280.341 693.243 273.032 679.936 269.2 665.687C265.22 650.851 263.835 635.661 261.552 620.631C259.267 606.634 255.645 592.81 250.721 579.289C241.085 552.698 227.508 527.274 215.541 501.377C202.346 472.801 191.143 443.317 189.826 412.593C189.574 410.226 198.256 411.124 198.256 413.819L197.905 413.749Z" fill="white" fill-opacity="0.75"/>
<path d="M-317.218 288.6L-269.528 292.184C-255.1 293.287 -240.281 293.764 -226.334 297.358C-212.386 300.952 -201.451 308.509 -190.295 316.003L-153.323 340.734C-142.198 348.206 -129.54 355.281 -120.852 364.861C-116.629 369.803 -112.853 374.999 -109.556 380.407L-98.4112 397.491C-83.1211 420.906 -67.8553 444.362 -52.6136 467.86C-45.3395 478.951 -38.3625 490.206 -30.7033 501.149C-23.9819 510.538 -16.1371 519.726 -4.00746 524.525C7.37691 529.044 19.9156 530.688 30.5888 536.595C39.3388 541.628 46.6231 548.234 51.9034 555.924C63.6211 572.203 68.8807 591.001 76.2909 608.76C84.86 629.346 97.3227 648.6 110.807 667.232C137.411 704.021 169.153 739.341 184.075 781.198C185.834 786.175 187.371 791.216 188.542 796.308C188.622 797.065 180.607 797.049 180.109 795.058C169.647 752.878 139.9 716.674 112.863 680.656C98.9356 662.874 86.5895 644.266 75.9247 624.984C66.5012 607.131 61.1883 588.099 52.3202 570.087C48.3997 561.615 42.9642 553.685 36.1984 546.565C28.8412 539.239 19.1554 533.788 8.25483 530.841C-3.81668 527.397 -15.3292 524.367 -24.7273 516.722C-33.5765 509.395 -39.4592 500.089 -45.371 491.047L-90.3443 422.24L-112.656 387.597C-119.508 376.977 -125.855 365.725 -136.591 357.342C-147.327 348.959 -159.65 341.526 -171.206 333.776C-182.762 326.025 -194.985 317.654 -207.039 309.797C-218.019 301.588 -232.055 296.782 -246.778 296.191C-261.855 294.897 -277.018 293.872 -292.137 292.724L-315.218 290.984C-316.086 290.904 -320.133 290.529 -320.241 289.511C-320.349 288.493 -317.904 288.602 -317.037 288.683L-317.218 288.6Z" fill="white" fill-opacity="0.75"/>
<path d="M929.446 460.946C967 465.095 1001.3 480.946 1025.43 505.307C1038.52 518.671 1046.85 535.338 1063.36 546.356C1078.39 556.36 1096.53 562.274 1112.02 571.768C1127.51 581.261 1137.33 594.41 1145.78 608.492C1154.23 622.575 1161.57 637.811 1174.06 650.05C1185.88 661.599 1201.86 669.315 1214.47 680.257C1220.81 685.594 1225.63 692.043 1228.59 699.13C1231.89 707.382 1233.08 716.408 1240.13 723.221C1246.49 729.225 1255.25 732.741 1263.44 736.538C1271.79 740.396 1279.63 744.968 1286.84 750.182C1302.08 761.174 1315.14 774.099 1325.54 788.48C1327.89 791.745 1330.11 795.091 1332.13 798.499C1333.39 800.65 1325.12 800.438 1323.8 798.243C1314.84 783.483 1303.04 770.035 1288.89 758.43C1282.06 752.697 1274.57 747.534 1266.53 743.017C1258.87 738.801 1250.41 735.645 1242.77 731.355C1234.99 727.26 1228.99 721.186 1225.68 714.034C1222.18 706.154 1221.08 697.67 1215.7 690.402C1206.35 677.554 1190.27 669.534 1177.07 659.803C1163.31 649.588 1154.15 636.941 1146.12 623.281C1138.08 609.622 1130.57 594.637 1118.01 582.903C1105.46 571.169 1087.42 564.341 1071.1 556.196C1063.19 552.355 1055.86 547.727 1049.29 542.413C1042.22 535.974 1035.97 528.934 1030.66 521.411C1020.64 507.732 1007.65 495.729 992.354 486.018C977.367 476.76 960.274 470.149 942.123 466.588C937.711 465.739 933.376 465.074 928.746 464.599C927.5 464.45 924.58 463.636 924.886 462.207C925.192 460.777 928.302 460.957 929.461 461.088L929.446 460.946Z" fill="white" fill-opacity="0.75"/>
<path d="M352.786 264.372C362.382 289.774 339.197 313.732 341.779 339.117C341.998 341.176 333.626 340.495 333.347 337.867C330.684 312.798 353.905 288.909 344.476 263.996C343.556 261.534 351.934 262.001 352.776 264.278L352.786 264.372Z" fill="white" fill-opacity="0.75"/>
<path d="M821.026 426.67L821.36 429.818C821.333 429.91 821.277 429.994 821.199 430.062C821.121 430.131 821.023 430.181 820.915 430.208C820.623 430.344 820.3 430.424 819.967 430.444C819.506 430.501 819.041 430.535 818.575 430.545C818.023 430.532 817.472 430.484 816.928 430.401L815.819 430.196C815.196 430.059 814.592 429.871 814.014 429.635L813.405 429.297C813.267 429.235 813.151 429.144 813.069 429.033C812.986 428.921 812.941 428.794 812.937 428.663L812.608 425.562C812.646 425.471 812.709 425.389 812.791 425.321C812.873 425.253 812.972 425.201 813.082 425.17C813.372 425.032 813.696 424.952 814.03 424.934C814.491 424.877 814.955 424.843 815.421 424.833C815.974 424.846 816.524 424.894 817.068 424.977L818.177 425.182C818.798 425.324 819.402 425.512 819.983 425.743L820.591 426.081C820.725 426.146 820.835 426.239 820.912 426.35C820.99 426.462 821.03 426.588 821.031 426.717L821.026 426.67Z" fill="white" fill-opacity="0.75"/>
<path d="M561.185 304.649C578.486 287.271 609.102 288.012 632.595 294.707C646.552 298.659 659.09 305.146 672.824 309.423C676.524 310.696 680.493 311.332 684.493 311.292C688.492 311.253 692.44 310.539 696.097 309.193C703.436 306.61 710.364 303.127 717.356 299.973L759.841 280.962C773.454 274.489 787.452 268.595 801.783 263.303C815.097 258.517 829.392 255.903 843.895 255.602C857.65 255.696 871.322 257.412 884.505 260.7C912.795 267.287 939.436 278.025 968.319 282.923C998.906 288.096 1030.39 288.311 1061.06 283.555C1088.61 279.175 1117.48 272.314 1144.54 282.425C1150.15 284.485 1155.3 287.341 1159.75 290.865C1164.15 294.866 1168.17 299.154 1171.75 303.688C1175.69 308.299 1181.07 311.914 1187.32 314.131C1193.62 316.322 1200.26 317.702 1206.63 319.745C1231.59 327.838 1252.68 342.078 1271.77 357.418C1294.17 375.404 1315.35 394.528 1336.96 413.168L1354.07 427.935C1355.42 429.101 1353.18 429.812 1352.08 429.916C1351.07 430.021 1350.05 429.948 1349.09 429.701C1348.12 429.455 1347.22 429.041 1346.46 428.486C1324.4 409.449 1302.34 390.365 1280.29 371.399C1261.81 355.563 1242.57 339.637 1219.24 328.756C1213.41 326.004 1207.33 323.637 1201.05 321.676C1194.92 319.734 1188.57 318.429 1182.54 316.29C1176.9 314.412 1171.82 311.521 1167.67 307.824C1163.39 303.888 1160.18 299.255 1156.19 295.13C1137.48 275.803 1105.43 280.175 1079.89 284.578C1050.51 289.614 1021.23 291.973 991.287 289.251C976.505 287.897 961.887 285.491 947.593 282.062C934.286 278.851 921.37 274.729 908.389 270.803C882.134 262.9 854.389 255.51 826.38 261.259C811.422 264.322 797.586 270.142 784.068 276.25C770.55 282.357 756.391 288.63 742.537 294.81L721.965 304.028C715.343 307.254 708.491 310.14 701.446 312.67C688.085 317.025 674.96 314.445 662.369 309.607C638.135 300.246 610.61 287.116 583.83 297.714C578.321 299.86 573.446 302.99 569.55 306.882C567.818 308.629 559.767 306.66 561.605 304.833L561.185 304.649Z" fill="white" fill-opacity="0.75"/>
<path d="M1272.18 357.03C1288.54 349.31 1308.29 351.243 1325.52 356.15C1343.5 361.289 1359.52 370.386 1377.69 374.962C1386.47 377.246 1395.75 377.894 1404.86 376.86C1414.03 375.886 1423.15 374.224 1432.45 375.029C1441 375.791 1449 378.946 1455.13 383.979C1461.13 388.792 1465.76 394.635 1471.8 399.469C1484.51 409.474 1501.73 414 1518.69 415.73C1527.37 416.676 1536.16 416.421 1544.85 417.343C1553.92 418.225 1562.28 421.867 1568.34 427.569C1578.88 437.063 1586.92 448.36 1597.34 458.054C1606.86 466.906 1618.69 475.591 1633.6 476.133C1641.79 476.47 1650.29 475.593 1658.21 477.93C1661.83 478.889 1665.03 480.746 1667.36 483.255C1669.51 486.377 1670.94 489.811 1671.55 493.375C1672.69 497.109 1674.65 499.854 1679.49 500.243C1683.8 500.599 1688.06 500.052 1692.42 500.714C1699.35 501.787 1709.59 506.889 1705.61 513.81L1699.88 510.789C1704.21 510.206 1708.64 510.463 1712.84 511.541C1717.03 512.619 1720.87 514.489 1724.06 517.006C1731.53 522.643 1735.01 530.335 1737.01 538.395C1739.13 547.044 1740.34 555.759 1743.7 564.151C1746.77 571.935 1751.17 579.312 1756.76 586.058C1763.1 593.595 1770.78 600.278 1779.55 605.876C1780.97 606.823 1780.58 607.996 1779 608.516C1778.02 608.741 1776.98 608.778 1775.97 608.624C1774.97 608.469 1774.01 608.128 1773.18 607.625C1755.1 596.098 1741.71 580.22 1734.81 562.146C1731 551.902 1730.59 540.984 1726.57 530.898C1723.41 522.945 1715.18 512.639 1703.57 514.577C1701.71 514.855 1696.51 513.848 1697.84 511.557C1699.51 508.646 1696.42 505.959 1693.41 504.841C1690.4 503.723 1685.71 504.301 1682.09 504.158C1675.04 503.857 1667.75 502.071 1664.62 496.286C1661.81 491.146 1662.93 483.576 1655.43 481.137C1649.14 479.087 1641.43 480.29 1634.84 479.956C1604.14 478.457 1586.46 455.597 1569.56 437.118C1564.8 431.928 1559.74 425.567 1552.49 422.729C1545.23 419.891 1535.33 420.727 1527.14 420.175C1510.73 418.978 1494.04 416.25 1479.56 409.522C1472.67 406.367 1466.44 402.299 1461.11 397.476C1455.75 392.592 1451.2 386.934 1444.82 382.888C1437.43 378.223 1428.77 378.396 1419.98 379.391C1411.18 380.386 1402.32 381.815 1393.34 381.32C1373.17 380.061 1355.4 371.711 1337.5 364.633C1319.61 357.556 1297.75 351.41 1279.26 360.096C1278.35 360.438 1277.36 360.598 1276.36 360.563C1275.36 360.527 1274.39 360.298 1273.52 359.892C1272.38 359.378 1270.77 357.968 1272.54 357.124L1272.18 357.03Z" fill="white" fill-opacity="0.75"/>
<path d="M1164.78 295.939C1169.76 303.212 1169.64 311.832 1168.5 319.882C1167.16 329.092 1164.34 338.145 1163.14 347.368C1162.5 351.445 1162.49 355.574 1163.1 359.656C1164.55 365.521 1167.14 371.151 1170.77 376.323C1177.05 386.351 1181.39 397.138 1183.64 408.287C1184.63 414.098 1185.13 419.961 1185.13 425.83C1184.78 431.492 1186.94 437.067 1191.2 441.492C1195.14 445.429 1200.04 448.677 1204.22 452.477C1208.53 456.357 1212.42 460.545 1215.85 464.993C1222.55 473.934 1227.46 483.722 1230.38 493.974C1233.44 503.985 1236.7 513.625 1245.58 521.212C1261 534.407 1284.65 540.663 1295.25 557.714C1295.97 558.878 1288.07 558.854 1287 557.119C1277.44 541.733 1256.71 535.195 1241.77 524.207C1233.55 518.219 1227.62 510.353 1224.72 501.587C1221.09 491.187 1218.38 480.983 1212.28 471.31C1206.16 461.883 1198.22 453.359 1188.77 446.082C1184.24 442.99 1180.64 439.061 1178.25 434.606C1175.92 429.36 1176.73 423.552 1176.49 418.036C1175.88 406.183 1172.71 394.516 1167.11 383.602C1162.03 373.76 1154.53 364.857 1154.29 353.782C1154.08 343.683 1157.31 333.692 1159.24 323.797C1161.1 314.43 1162.48 303.977 1156.59 295.364C1155.87 294.294 1163.68 294.254 1164.84 295.959L1164.78 295.939Z" fill="white" fill-opacity="0.75"/>
<path d="M1154.77 588.639C1147.35 568.876 1161.09 548.464 1153.36 528.7C1149.41 518.514 1141.8 509.595 1135.63 500.286C1122.32 480.18 1112.24 458.712 1105.63 436.429C1105.02 434.446 1113.33 435.061 1113.9 436.928C1120.1 457.795 1129.35 477.954 1141.43 496.955C1147.44 506.42 1154.97 515.344 1159.89 525.269C1164.14 534.634 1165.37 544.76 1163.47 554.637C1161.82 566.087 1158.8 577.827 1163.04 589.137C1163.76 591.042 1155.49 590.543 1154.77 588.662L1154.77 588.639Z" fill="white" fill-opacity="0.75"/>
<path d="M1096.75 400.504C1094.95 390.695 1093.15 380.886 1091.36 371.076L1093.1 372.31C1082.29 367.884 1073.49 360.663 1068.02 351.727C1066.87 349.83 1075.08 350.024 1076.32 352.08C1078.64 355.967 1081.69 359.523 1085.34 362.615C1089.24 365.633 1093.56 368.244 1098.22 370.389C1100.46 371.563 1100.17 374.804 1100.53 376.829L1101.97 384.692C1102.97 390.082 1103.94 395.475 1104.95 400.865C1105.39 403.409 1097 402.608 1096.64 400.512L1096.75 400.504Z" fill="white" fill-opacity="0.75"/>
<path d="M958.569 470.526L954.865 435.657C954.332 430.638 952.869 424.948 954.315 419.977C956.189 415.24 958.67 410.685 961.716 406.393C972.332 388.592 983.396 370.688 989.705 351.41C993.343 340.716 994.973 329.615 994.538 318.499C994.307 316.322 1002.97 317.078 1002.97 319.726C1003.93 339.598 997.065 358.725 987.793 376.786C983.214 385.681 978.07 394.379 972.924 403.053C970.203 407.615 967.39 412.113 964.79 416.738C961.879 421.934 962.23 426.584 962.795 432.173L967.001 471.776C967.223 473.859 958.85 473.177 958.569 470.526Z" fill="white" fill-opacity="0.75"/>
<path d="M840.854 407.487C838.126 385.727 843.414 363.802 856.015 344.631C857.127 342.976 864.891 345.205 864.447 345.881C851.834 365.049 846.545 386.977 849.287 408.737C849.375 409.565 841.079 409.331 840.854 407.487Z" fill="white" fill-opacity="0.75"/>
<path d="M1375.95 440.711C1388.74 452.408 1402.47 463.369 1417.04 473.517C1424.28 478.399 1431.98 482.779 1440.07 486.616C1447.75 490.21 1455.79 493.468 1462.34 498.481C1473.68 507.201 1478.54 519.563 1483.18 531.393C1488.05 543.85 1493.25 556.164 1504.73 565.614C1517.77 576.311 1534.83 583.043 1546.33 595.139C1547.2 596.078 1543.55 595.913 1543.12 595.92C1541.65 595.812 1539.1 595.543 1538.1 594.471C1527.63 583.469 1512.45 576.91 1500.06 567.718C1487.66 558.525 1481.75 547.837 1476.76 535.388C1471.97 523.45 1467.97 510.549 1457.71 500.987C1451.36 495.101 1443.02 491.507 1434.9 487.754C1427.07 484.139 1419.59 480.04 1412.5 475.492C1396.19 465.008 1381.9 452.518 1367.73 440.09C1366.75 439.231 1370.71 439.302 1370.91 439.311C1372.74 439.309 1374.51 439.818 1375.95 440.759L1375.95 440.711Z" fill="white" fill-opacity="0.75"/>
<path d="M1973.9 24.5772C1931.58 38.2786 1894.78 61.6638 1867.73 92.0428C1854.26 107.692 1843.25 124.715 1834.96 142.696C1830.54 151.747 1825.43 160.752 1817.62 168.021C1810.42 174.265 1802.01 179.454 1792.74 183.371C1771.82 192.805 1748.07 198.795 1730.75 212.954C1729.11 214.289 1721.5 212.168 1722.74 211.148C1738.05 198.733 1758.42 192.487 1777.48 184.667C1787.26 180.93 1796.38 176.097 1804.58 170.301C1813.2 163.531 1819.9 155.249 1824.21 146.051C1828.97 136.999 1832.94 127.766 1838.33 118.956C1853.66 93.8765 1875.11 71.7568 1901.33 54.0199C1921.02 40.6333 1943.15 29.941 1966.88 22.3423C1968.81 21.9522 1970.84 22.1073 1972.65 22.7832C1973.45 23.0591 1975.64 24.0216 1973.82 24.6071L1973.9 24.5772Z" fill="white" fill-opacity="0.75"/>
<path d="M1897.68 176.751C1860.35 191.74 1820.78 202.499 1780.01 208.743C1740.58 214.723 1698.86 214.237 1661.67 227.593C1630.65 238.736 1606.83 259.902 1591.15 284.486C1583.23 296.941 1577.28 310.201 1573.45 323.934C1571.75 331.39 1569.41 338.733 1566.45 345.909C1563.78 351.573 1559.78 356.731 1554.67 361.075C1544.18 370.159 1530.49 375.922 1517.8 382.589C1505.6 389.006 1493.26 396.723 1489.1 408.784C1488 411.94 1479.59 410.617 1480.67 407.534C1488.6 384.966 1518.68 377.111 1539.02 364.14C1544.26 360.943 1548.88 357.102 1552.72 352.748C1557.71 346.272 1561.1 339.027 1562.68 331.44C1566.13 317.488 1571.29 303.869 1578.08 290.799C1591.79 265.69 1613.42 243.299 1642.18 229.29C1676.94 212.46 1718.09 211.055 1757.12 206.655C1804.15 201.197 1849.86 189.688 1892.62 172.537C1896 171.171 1902.58 174.893 1897.85 176.786L1897.68 176.751Z" fill="white" fill-opacity="0.75"/>
<path d="M1985.08 226.79C1971.78 276.773 1918.5 308.874 1884.5 348.572C1875.83 358.468 1868.62 369.202 1863.03 380.541C1857.4 392.799 1853.88 405.663 1852.58 418.748C1849.45 446.121 1853.13 473.572 1853.76 501.007C1854.4 530.182 1851.2 560.399 1830.72 585.044C1829.35 586.694 1822.05 584.24 1822.28 583.794C1840.45 561.916 1845.14 535.456 1845.4 509.365C1845.67 481.937 1841.7 454.53 1843.33 427.099C1843.9 413.817 1846.46 400.649 1850.96 387.903C1855.51 376.174 1861.95 365.019 1870.11 354.743C1886.44 333.666 1907.62 315.625 1927.22 296.697C1948.9 275.806 1969.33 253.097 1976.62 225.566C1977.01 224.13 1985.4 225.503 1985.05 226.792L1985.08 226.79Z" fill="white" fill-opacity="0.75"/>
<path d="M1873.67 367.819C1858.3 400.706 1873.63 435.878 1887.35 467.207C1894.93 484.739 1902.24 502.292 1907.85 520.349C1919.93 559.233 1925.95 599.245 1925.76 639.396C1925.75 641.448 1917.3 640.629 1917.35 638.144C1917.5 600.012 1912.02 562.002 1901.04 524.969C1895.53 506.783 1888.85 488.857 1881.02 471.267C1873.88 454.943 1866.5 438.565 1862.23 421.532C1857.66 403.233 1857.07 384.217 1865.29 366.565C1866.4 364.267 1874.61 365.891 1873.73 367.815L1873.67 367.819Z" fill="white" fill-opacity="0.75"/>
<path d="M1818.12 361.632C1811.08 361.554 1804.1 362.636 1797.58 364.816C1791.05 366.996 1785.1 370.23 1780.09 374.333C1771.02 381.692 1766.43 391.566 1760.53 400.676C1755.32 408.734 1748.61 416.687 1737.64 419.58C1723.72 423.236 1707.51 417.993 1695.14 425.543C1684.71 431.904 1678.78 443.092 1665.66 446.26C1663.73 446.629 1661.71 446.475 1659.89 445.819C1659.21 445.583 1656.88 444.439 1658.72 443.996C1670.67 441.127 1676.61 430.774 1685.75 424.673C1690.86 421.274 1697.09 419.243 1703.62 418.847C1711.29 418.292 1719.1 419.133 1726.75 418.079C1739.67 416.308 1747.16 407.393 1752.87 398.368C1758.58 389.343 1763.29 379.724 1772.17 372.521C1777.78 368.055 1784.41 364.561 1791.66 362.239C1798.91 359.917 1806.64 358.813 1814.4 358.991C1815.88 358.884 1819.08 359.081 1820.06 360.251C1821.04 361.42 1819.52 361.649 1818.2 361.626L1818.12 361.632Z" fill="white" fill-opacity="0.75"/>
<path d="M1557.37 353.342C1570.55 350.002 1578.21 339.715 1585.01 330.444C1591.81 321.173 1599.59 311.355 1612.27 306.787C1617.96 304.774 1624.26 304.276 1630.32 305.361C1633.48 305.917 1636.54 306.862 1639.37 308.164C1641.62 309.146 1645.23 311.819 1647.83 311.822C1650.87 311.84 1653.67 308.87 1655.47 307.166C1657.56 305.082 1659.94 303.219 1662.57 301.618C1667.71 298.854 1673.48 297.022 1679.52 296.241C1694.87 293.936 1710.84 296.048 1725.91 292.476C1727.85 292.125 1729.87 292.288 1731.69 292.94C1732.37 293.154 1734.69 294.297 1732.88 294.739C1719.62 297.846 1705.9 297.002 1692.33 297.985C1685.61 298.24 1679.04 299.65 1673.02 302.126C1670.36 303.35 1667.94 304.9 1665.84 306.725C1663.68 308.976 1661.21 311.012 1658.5 312.791C1653.41 315.545 1646.73 314.621 1641.49 312.734C1635.53 310.565 1630.68 306.36 1623.79 307.766C1609.76 310.38 1600.86 321.496 1593.97 330.941C1586.65 341.012 1578.68 351.965 1564.39 355.577C1562.46 355.943 1560.44 355.788 1558.62 355.136C1557.93 354.899 1555.61 353.803 1557.45 353.336L1557.37 353.342Z" fill="white" fill-opacity="0.75"/>
<path d="M1845.36 437.328C1848.2 437.123 1852.09 437.867 1852.18 440.627C1851.97 442.826 1851.22 444.965 1849.99 446.917C1846.73 453.701 1842.01 459.929 1836.06 465.291C1832.54 468.265 1828.29 470.624 1824.51 473.283C1819.94 476.545 1815.62 480.045 1811.57 483.762C1803.6 490.799 1797.7 499.286 1794.34 508.553C1793.97 509.63 1791.99 509.797 1790.89 509.734C1780.56 509.033 1770.19 510.489 1760.72 513.97C1759.77 514.281 1758.76 514.42 1757.74 514.379C1756.72 514.337 1755.73 514.115 1754.82 513.728C1753.89 513.319 1751.94 511.862 1753.81 511.178C1764.98 507.107 1777.19 505.404 1789.34 506.22L1785.92 507.398C1791.54 490.747 1806.29 478.205 1822.05 467.617C1828.48 463.387 1833.84 458.135 1837.81 452.164C1839.69 449.473 1841.3 446.66 1842.64 443.751C1843.09 442.775 1843.45 441.768 1843.69 440.741C1844.39 437.637 1842.09 441.501 1849.11 441.088C1847.46 441.207 1844.46 440.948 1843.49 439.611C1842.52 438.274 1843.96 437.62 1845.47 437.511L1845.36 437.328Z" fill="white" fill-opacity="0.75"/>
<path d="M188.456 190.348C198.852 173.16 222.863 167.223 240.053 156.079C244.508 153.269 248.435 149.922 251.706 146.147C255.109 142.084 256.829 137.26 260.264 133.219C268.36 123.759 281.888 130.937 291.397 134.781C304.215 139.656 316.41 145.599 327.797 152.517C338.738 159.47 347.796 168.268 354.38 178.335C361.215 188.789 366.825 200.381 377.621 208.521C383.799 212.76 390.464 216.48 397.518 219.628C403.822 222.749 409.96 226.106 415.932 229.697C429.748 238.028 442.465 247.559 453.869 258.127C464.917 268.372 474.861 280.08 489.885 286.53C491.685 287.306 487.555 287.223 486.745 286.876C475.019 281.833 466.167 273.672 457.679 265.437C448.076 255.914 437.564 247.054 426.245 238.945C414.784 231.029 402.542 223.936 389.648 217.74C383.503 214.934 377.773 211.538 372.574 207.622C368.148 203.935 364.328 199.776 361.214 195.253C354.254 185.5 349.227 174.819 340.612 165.925C331.551 157.046 320.616 149.624 308.349 144.026C302.322 141.17 296.32 138.551 290.33 136.051C284.34 133.551 273.827 127.537 267.642 131.277C262.907 134.125 261.064 139.41 258.384 143.541C255.96 147.235 252.848 150.584 249.163 153.463C231.733 167.201 204.107 172.255 192.699 190.947C192.164 191.845 188.192 190.821 188.482 190.322L188.456 190.348Z" fill="white" fill-opacity="0.75"/>
<path d="M5.77321 170.418C4.02823 174.548 3.07862 178.884 2.95935 183.264C3.03478 183.974 1.16115 183.848 0.668258 183.788C0.175367 183.728 -1.26412 183.379 -1.25686 182.639C-1.12397 178.26 -0.174741 173.926 1.55701 169.793C1.82743 169.105 3.15169 169.176 3.82002 169.271C4.48835 169.366 6.04614 169.754 5.77321 170.418Z" fill="white" fill-opacity="0.75"/>
<path d="M22.3065 181.911C21.9933 186.148 21.6619 190.394 21.3126 194.65C21.4031 195.502 19.7375 195.718 18.953 195.608C18.4649 195.579 18.0061 195.402 17.6637 195.11C17.3214 194.818 17.1196 194.432 17.0964 194.025C17.4465 189.777 17.7682 185.532 18.1184 181.284C18.1699 180.422 19.6935 180.216 20.4779 180.326C20.9637 180.355 21.4196 180.533 21.7573 180.826C22.0951 181.119 22.2908 181.506 22.3065 181.911Z" fill="white" fill-opacity="0.75"/>
<path d="M36.6041 190.418C36.2834 195.212 35.9911 200.004 35.6703 204.798C35.7483 205.532 31.3818 205.108 31.4566 204.196C31.7774 199.402 32.0697 194.61 32.3905 189.816C32.3125 189.083 36.679 189.506 36.6067 190.441L36.6041 190.418Z" fill="white" fill-opacity="0.75"/>
<path d="M64.4222 205.769C61.821 211.845 61.3381 218.414 63.029 224.715C63.4991 226.446 59.2501 226.324 58.826 224.757C57.0607 218.238 57.5392 211.44 60.206 205.144C60.4032 204.781 60.7502 204.49 61.1843 204.323C61.6183 204.155 62.1104 204.124 62.5705 204.234C63.2673 204.326 64.7652 204.957 64.4222 205.769Z" fill="white" fill-opacity="0.75"/>
<path d="M86.1604 225.044C84.8456 229.91 83.5591 234.774 82.2443 239.64C81.8997 240.977 77.681 240.328 78.0306 239.039C79.3454 234.172 80.6319 229.309 81.9467 224.443C82.2913 223.106 86.5125 223.778 86.1604 225.044Z" fill="white" fill-opacity="0.75"/>
<path d="M97.2053 240.107L96.2398 252.844C96.3177 253.578 91.9512 253.154 92.0236 252.219L92.9887 239.482C92.9108 238.748 97.2776 239.172 97.2053 240.107Z" fill="white" fill-opacity="0.75"/>
<path d="M112.457 256.512L111.411 267.68C111.489 268.414 107.122 267.99 107.194 267.055L108.24 255.887C108.162 255.153 112.529 255.576 112.457 256.512Z" fill="white" fill-opacity="0.75"/>
<path d="M284.353 372.926C288.641 375.573 287.947 379.822 286.633 383.614C284.335 390.364 282.027 397.107 279.709 403.843L266.09 443.759C265.543 445.349 261.353 444.698 261.874 443.134C265.926 431.343 269.957 419.537 273.967 407.717L279.902 390.304C280.886 387.441 282.157 384.582 282.823 381.695C283.454 379.551 284.307 376.269 281.785 374.614C279.262 372.96 282.66 371.808 284.456 372.823L284.353 372.926Z" fill="white" fill-opacity="0.75"/>
<path d="M305.16 392.602C305.941 391.066 308.726 391.413 310.268 391.922C314.183 393.213 311.23 396.933 310.113 399.089C306.22 406.749 302.954 414.62 300.338 422.649C295.056 438.887 292.418 455.645 292.494 472.476C292.567 473.162 288.262 472.782 288.277 471.851C288.178 451.457 292.077 431.192 299.821 411.857C301.116 408.686 302.495 405.509 303.968 402.396C304.737 400.743 305.565 399.108 306.305 397.456C306.637 396.812 307.026 396.164 307.328 395.498C307.625 395.039 307.824 394.54 307.915 394.024C307.847 393.385 308.331 393.088 309.283 393.162C308.806 394.055 304.758 393.132 305.067 392.537L305.16 392.602Z" fill="white" fill-opacity="0.75"/>
<path d="M336.894 400.895C329.38 430.66 308.378 458.731 311.385 490C311.581 491.847 307.33 491.701 307.185 490.066C304.146 458.488 325.109 430.326 332.678 400.27C333.101 398.593 337.317 399.218 336.894 400.895Z" fill="white" fill-opacity="0.75"/>
<path d="M351.099 430.352C344.95 461.013 338.105 491.596 330.565 522.103C330.226 523.487 326.007 522.838 326.351 521.501C333.876 491.028 340.719 460.436 346.883 429.727C347.14 428.373 351.354 428.974 351.099 430.352Z" fill="white" fill-opacity="0.75"/>
<path d="M369.896 457.783C365.805 473.155 361.812 488.552 357.917 503.973C354.059 518.851 350.516 533.993 352.739 549.265C352.82 550.023 348.703 549.796 348.523 548.64C346.3 533.367 349.843 518.226 353.701 503.348C357.678 487.984 361.671 472.587 365.68 457.158C365.944 456.137 370.168 456.833 369.896 457.783Z" fill="white" fill-opacity="0.75"/>
<path d="M384.797 497.828C377.812 520.968 373.157 544.556 370.88 568.347C370.953 569.034 366.592 568.658 366.664 567.722C368.941 543.931 373.596 520.343 380.581 497.203C380.839 496.398 385.008 497.121 384.797 497.828Z" fill="white" fill-opacity="0.75"/>
<path d="M297.958 300.283C297.098 305.116 296.124 309.957 295.406 314.78C295.104 316.519 290.89 315.918 291.192 314.179C292.052 309.346 293.026 304.504 293.745 299.681C294.046 297.942 298.263 298.567 297.961 300.307L297.958 300.283Z" fill="white" fill-opacity="0.75"/>
<path d="M289.238 292.828L284.563 302.708C284.262 303.373 282.966 303.3 282.296 303.182C281.625 303.063 280.043 302.725 280.347 302.083L285.022 292.202C285.323 291.537 286.619 291.61 287.29 291.728C287.961 291.847 289.513 292.187 289.238 292.828Z" fill="white" fill-opacity="0.75"/>
<path d="M280.784 290.84L280.208 291.072C280.52 291.05 280.009 291.087 280.208 291.072L279.908 291.213L278.972 291.83C278.904 291.884 278.843 291.945 278.791 292.01C278.791 292.01 278.444 292.25 278.791 292.01L278.428 292.37C278.159 292.638 277.921 292.927 277.719 293.233L277.446 293.634L277.304 293.907L277.316 294.025C277.316 294.025 277.336 294.214 277.344 294.285C277.281 294.437 277.23 294.592 277.193 294.75C277.097 295.084 277.028 295.424 276.986 295.766C277.004 295.932 277.021 296.098 277.036 296.24C277.009 295.979 277.051 296.382 277.036 296.24L277.067 296.524C277.152 297.329 276.165 297.734 275.277 297.727C274.72 297.721 274.175 297.596 273.693 297.364C273.358 297.174 272.899 296.897 272.861 296.542C272.685 294.897 273.126 293.247 274.122 291.82C275.119 290.394 276.623 289.261 278.426 288.577C278.912 288.422 279.439 288.38 279.952 288.456C280.465 288.532 280.943 288.724 281.334 289.011C281.497 289.114 281.623 289.253 281.697 289.411C281.772 289.57 281.793 289.743 281.757 289.91C281.722 290.078 281.632 290.234 281.497 290.362C281.362 290.49 281.187 290.584 280.991 290.634L280.784 290.84Z" fill="white" fill-opacity="0.75"/>
<path d="M267.265 283.47C265.524 285.671 263.783 287.872 262.011 290.052C261.864 290.277 261.21 290.325 260.955 290.343C260.407 290.371 259.857 290.314 259.334 290.174C258.834 290.044 257.565 289.682 258.044 289.075L263.269 282.495C263.445 282.267 264.099 282.22 264.326 282.203C264.883 282.173 265.442 282.229 265.975 282.37C266.447 282.503 267.716 282.864 267.265 283.47Z" fill="white" fill-opacity="0.75"/>
<path d="M252.762 281.92L248.985 282.193C248.43 282.255 247.866 282.205 247.338 282.05C246.884 281.943 246.481 281.723 246.183 281.418C246.065 281.31 245.993 281.173 245.977 281.027C245.962 280.882 246.004 280.736 246.098 280.613C246.234 280.479 246.401 280.368 246.589 280.289C246.778 280.21 246.983 280.163 247.194 280.152L250.971 279.878C251.523 279.82 252.084 279.861 252.615 279.998C253.08 280.112 253.493 280.34 253.801 280.652C253.915 280.761 253.985 280.898 254 281.043C254.015 281.187 253.976 281.332 253.886 281.456C253.751 281.591 253.583 281.701 253.395 281.78C253.207 281.859 253.001 281.906 252.791 281.917L252.762 281.92Z" fill="white" fill-opacity="0.75"/>
<path d="M234.832 280.164C232.56 280.329 231.399 278.028 234.183 277.826C236.483 277.66 237.644 279.961 234.832 280.164Z" fill="white" fill-opacity="0.75"/>
<path d="M46.8371 36.9867C47.5165 42.6035 46.1197 48.2562 42.8339 53.1873C42.2661 54.0395 38.3739 52.9616 38.6177 52.5623C41.9192 47.6361 43.317 41.9792 42.6209 36.3617C42.5706 35.8883 46.7106 36.0656 46.8371 36.9867Z" fill="white" fill-opacity="0.75"/>
<path d="M59.0634 44.0449C59.5786 50.1496 58.2607 56.2626 55.2287 61.8315C54.7462 62.6774 50.7479 61.6789 51.0125 61.2065C54.0395 55.6446 55.3582 49.5405 54.8497 43.4435C54.7919 42.8991 58.9679 43.1454 59.035 44.047L59.0634 44.0449Z" fill="white" fill-opacity="0.75"/>
<path d="M71.9502 52.2003C71.7379 55.6563 70.9749 59.0727 69.681 62.3595C68.3731 65.6745 66.7093 68.8721 65.2903 72.219C65.0931 72.5759 64.7483 72.8616 64.319 73.024C63.8897 73.1864 63.4045 73.2148 62.9517 73.1039C62.2808 72.9855 60.7311 72.406 61.0741 71.5939C62.5315 68.3397 64.1641 65.1204 65.4644 61.7344C66.7584 58.4476 67.5217 55.0312 67.734 51.5752C67.8545 50.016 72.0632 50.57 71.9502 52.2003Z" fill="white" fill-opacity="0.75"/>
<path d="M82.7693 65.944C81.027 71.3658 79.2874 76.8112 77.5166 82.2351C77.3397 82.613 77.0008 82.9226 76.5654 83.104C76.1299 83.2853 75.6291 83.3255 75.1596 83.2167C74.3442 83.085 73.0473 82.4632 73.3001 81.61C75.0708 76.1862 76.8108 70.7408 78.5531 65.319C78.7402 64.9421 79.085 64.6348 79.5237 64.4539C79.9623 64.273 80.465 64.2308 80.9386 64.3352C81.754 64.467 83.0505 65.0888 82.7693 65.944Z" fill="white" fill-opacity="0.75"/>
<path d="M89.4816 76.8603C89.2838 82.2593 88.3655 87.6222 86.7438 92.85C86.4859 93.6558 85.2388 93.77 84.3951 93.6403C83.5513 93.5105 82.2697 93.0308 82.5276 92.225C84.1493 86.9972 85.0673 81.6343 85.2651 76.2354C85.1796 75.4305 86.9458 75.3503 87.6141 75.445C88.2824 75.5398 89.5072 76.0236 89.4816 76.8603Z" fill="white" fill-opacity="0.75"/>
<path d="M99.4073 100.52L96.3103 111.241C96.1618 111.728 94.4641 111.374 94.0949 111.401C93.7257 111.428 91.9711 111.078 92.0938 110.616L95.1911 99.8955C95.3397 99.4076 97.037 99.7618 97.4062 99.7351C97.7755 99.7084 99.5584 100.056 99.4073 100.52Z" fill="white" fill-opacity="0.75"/>
<path d="M330.62 156.463L325.787 164.852C325.453 165.472 324.211 165.372 323.543 165.277C323.031 165.205 322.54 165.054 322.094 164.833C321.911 164.727 321.454 164.474 321.571 164.227L326.407 155.862C326.741 155.241 327.98 155.318 328.651 155.437C329.161 155.501 329.651 155.643 330.098 155.857C330.269 155.845 330.74 156.24 330.62 156.463Z" fill="white" fill-opacity="0.75"/>
<path d="M344.651 166.229C342.57 171.151 340.676 176.226 338.573 181.22C338.277 181.933 337.015 181.906 336.287 181.791C335.56 181.677 334.087 181.283 334.386 180.593C336.467 175.672 338.359 170.573 340.464 165.602C340.76 164.889 342.022 164.917 342.747 165.007C343.472 165.098 344.95 165.54 344.651 166.229Z" fill="white" fill-opacity="0.75"/>
<path d="M359.403 186.821L349.723 201.047C348.982 202.15 344.88 201.254 345.769 199.926L355.449 185.7C356.19 184.596 360.292 185.492 359.403 186.821Z" fill="white" fill-opacity="0.75"/>
<path d="M367.998 197.41C363.088 202.548 359.161 208.287 356.354 214.426C355.982 215.24 351.904 214.295 352.14 213.825C354.989 207.59 358.986 201.764 363.986 196.555C364.605 195.914 368.487 196.897 367.998 197.41Z" fill="white" fill-opacity="0.75"/>
<path d="M383.349 213.139C376.021 217.701 369.344 225.174 369.123 233.062C369.088 234.352 364.859 233.872 364.907 232.437C365.217 228.29 366.858 224.291 369.658 220.857C372.391 217.286 375.867 214.151 379.923 211.598C381.131 210.843 385.041 212.087 383.349 213.139Z" fill="white" fill-opacity="0.75"/>
<path d="M404.38 223.329C398.987 230.885 394.807 238.999 391.946 247.463C391.654 248.486 387.459 247.788 387.73 246.838C390.603 238.377 394.783 230.265 400.163 222.704C400.827 221.678 404.823 222.653 404.38 223.329Z" fill="white" fill-opacity="0.75"/>
<path d="M413.98 237.996C410.921 245.119 407.859 252.219 404.795 259.295C404.267 260.526 400.108 259.634 400.581 258.693C403.64 251.57 406.702 244.47 409.766 237.394C410.294 236.164 414.453 237.055 413.98 237.996Z" fill="white" fill-opacity="0.75"/>
<path d="M429.569 248.15C424.263 254.369 420.835 261.564 419.577 269.126C419.293 270.768 415.079 270.167 415.363 268.524C416.661 260.736 420.182 253.323 425.631 246.909C426.727 245.637 430.763 246.728 429.569 248.15Z" fill="white" fill-opacity="0.75"/>
<path d="M444.29 262.518L438.875 280.514C438.601 281.441 434.403 280.719 434.658 279.889C436.454 273.891 438.278 267.891 440.076 261.917C440.35 260.99 444.535 261.594 444.29 262.518Z" fill="white" fill-opacity="0.75"/>
<path d="M453.815 275.95L454.99 287.005C455.078 287.833 454.091 288.239 453.203 288.231C452.315 288.224 450.875 287.875 450.785 287.023L449.613 275.992C449.525 275.163 450.481 274.736 451.398 274.741C452.314 274.747 453.725 275.098 453.815 275.95Z" fill="white" fill-opacity="0.75"/>
<path d="M470.236 289.622C469.759 290.124 469.374 290.682 469.095 291.279L469.262 290.957C468.917 291.732 468.743 292.553 468.746 293.38L468.708 293.024C468.722 293.421 468.764 293.816 468.834 294.208C468.837 294.39 468.857 294.572 468.892 294.752C468.892 294.752 468.932 295.131 468.91 294.918L468.93 295.108C469.05 295.247 469.124 295.41 469.142 295.581C469.16 295.752 469.122 295.924 469.033 296.078C468.904 296.232 468.739 296.363 468.548 296.463C468.357 296.563 468.144 296.63 467.921 296.659C467.371 296.756 466.799 296.714 466.277 296.54C465.798 296.417 465.391 296.148 465.138 295.788C464.457 294.599 464.183 293.278 464.347 291.969C464.511 290.661 465.107 289.416 466.068 288.373C466.413 288.053 466.873 287.834 467.38 287.75C467.887 287.666 468.414 287.721 468.88 287.907C469.355 288.038 469.758 288.305 470.019 288.66C470.14 288.794 470.213 288.954 470.231 289.121C470.249 289.289 470.21 289.457 470.12 289.606L470.236 289.622Z" fill="white" fill-opacity="0.75"/>
<path d="M684.232 364.535L675.354 374.457C675.199 374.611 674.502 374.519 674.332 374.531C673.775 374.516 673.221 374.452 672.68 374.34C672.327 374.247 670.921 373.943 671.358 373.482L680.207 363.562C680.363 363.408 681.088 363.498 681.258 363.486C681.805 363.479 682.35 363.536 682.879 363.655C683.248 363.628 684.638 364.052 684.229 364.511L684.232 364.535Z" fill="white" fill-opacity="0.75"/>
<path d="M698.635 373.224C694.284 378.18 691 383.729 688.928 389.623C688.64 390.407 684.491 389.61 684.712 388.998C686.858 383.008 690.229 377.373 694.677 372.342C695.268 371.703 699.204 372.658 698.691 373.22L698.635 373.224Z" fill="white" fill-opacity="0.75"/>
<path d="M710.425 378.597C704.472 386.634 700.555 395.603 698.915 404.954C698.72 406.089 694.509 405.512 694.698 404.329C696.398 394.824 700.407 385.711 706.478 377.547C707.18 376.613 711.28 377.485 710.454 378.595L710.425 378.597Z" fill="white" fill-opacity="0.75"/>
<path d="M723.184 387.167L711.156 412.154C710.619 413.29 706.498 412.491 706.94 411.529L718.97 386.565C719.505 385.405 723.629 386.228 723.184 387.167Z" fill="white" fill-opacity="0.75"/>
<path d="M733.975 396.07C729.608 405.464 726.737 415.295 725.433 425.314C725.245 426.782 721.008 426.23 721.216 424.689C722.533 414.706 725.419 404.913 729.8 395.561C730.477 394.129 734.621 394.878 733.987 396.189L733.975 396.07Z" fill="white" fill-opacity="0.75"/>
<path d="M750.288 401.449L737.954 432.446C737.478 433.625 733.324 432.781 733.737 431.821L746.071 400.824C746.547 399.644 750.729 400.487 750.288 401.449Z" fill="white" fill-opacity="0.75"/>
<path d="M760.328 408.403C759.705 416.908 759.1 425.404 758.514 433.891C758.47 434.825 754.242 434.367 754.328 433.288C754.911 424.769 755.506 416.266 756.112 407.778C756.187 406.866 760.414 407.323 760.328 408.403Z" fill="white" fill-opacity="0.75"/>
<path d="M775.749 416.709L768.823 437.987C768.523 438.939 764.364 438.31 764.609 437.386L771.533 416.084C771.835 415.155 776.033 415.877 775.749 416.709Z" fill="white" fill-opacity="0.75"/>
<path d="M787.504 422.012C788.548 426.183 789.62 430.351 790.69 434.496C791.124 436.158 786.896 435.963 786.513 434.512L783.296 422.007C782.864 420.368 787.12 420.561 787.504 422.012Z" fill="white" fill-opacity="0.75"/>
<path d="M805.51 424.215C805.355 424.742 805.287 425.285 805.309 425.828L805.274 425.496C805.275 425.909 805.319 426.321 805.405 426.727C805.428 426.94 805.45 427.154 805.613 427.333C805.775 427.512 805.66 427.782 805.613 427.333C805.605 427.42 805.615 427.508 805.64 427.593C805.844 427.977 806.094 428.342 806.386 428.684C806.469 428.752 806.544 428.826 806.61 428.906C806.794 429.079 806.993 429.24 807.205 429.388C807.362 429.508 807.481 429.659 807.549 429.828C807.617 429.996 807.632 430.177 807.593 430.351C807.555 430.526 807.463 430.689 807.327 430.826C807.192 430.963 807.016 431.069 806.818 431.133C806.329 431.287 805.8 431.325 805.286 431.244C804.773 431.164 804.296 430.967 803.907 430.676C802.735 429.786 801.864 428.654 801.384 427.395C800.903 426.135 800.829 424.793 801.17 423.504C801.358 423.134 801.704 422.836 802.141 422.667C802.578 422.499 803.075 422.472 803.535 422.593C804.319 422.703 805.64 423.275 805.387 424.129L805.51 424.215Z" fill="white" fill-opacity="0.75"/>
<path d="M459.897 249.938C458.356 253.222 456.638 256.448 455.08 259.828C454.942 260.149 454.304 260.338 453.966 260.386C453.416 260.491 452.841 260.45 452.322 260.267C451.432 259.973 450.773 259.425 451.144 258.611C452.713 255.324 454.428 252.075 455.989 248.718C456.129 248.422 456.767 248.232 457.103 248.16C457.654 248.078 458.221 248.12 458.747 248.28C459.639 248.597 460.299 249.146 459.899 249.962L459.897 249.938Z" fill="white" fill-opacity="0.75"/>
<path d="M474.923 253.716C473.111 259.024 471.268 264.31 469.457 269.617C469.275 269.997 468.931 270.308 468.49 270.49C468.05 270.671 467.545 270.711 467.071 270.601C466.287 270.491 464.93 269.85 465.24 268.992C467.054 263.708 468.894 258.399 470.706 253.091C470.893 252.715 471.24 252.41 471.68 252.233C472.121 252.056 472.624 252.019 473.094 252.131C473.879 252.241 475.206 252.885 474.923 253.716Z" fill="white" fill-opacity="0.75"/>
<path d="M488.953 256.469C487.418 263.365 485.27 270.154 482.524 276.781C481.976 278.085 477.832 277.336 478.31 276.18C481.063 269.547 483.211 262.749 484.736 255.844C485.029 254.559 489.217 255.186 488.953 256.469Z" fill="white" fill-opacity="0.75"/>
<path d="M503.117 263.983C498.341 270.086 495.576 277.131 495.098 284.411C495.001 285.921 490.766 285.392 490.881 283.786C491.423 276.296 494.282 269.055 499.181 262.766C500.165 261.526 504.226 262.567 503.117 263.983Z" fill="white" fill-opacity="0.75"/>
<path d="M515.424 272.61C511.979 278.803 510.545 285.643 511.263 292.448C511.462 294.318 507.242 294.194 507.066 292.537C506.282 285.259 507.815 277.941 511.509 271.319C512.352 269.827 516.394 270.966 515.424 272.61Z" fill="white" fill-opacity="0.75"/>
<path d="M525.007 283.342C522.961 286.347 521.938 289.761 522.049 293.218C522.069 293.407 521.449 293.499 521.335 293.508C520.827 293.548 520.315 293.529 519.812 293.451C519.345 293.365 517.836 293.165 517.832 292.592C517.74 289.174 518.767 285.801 520.803 282.836C521.394 281.934 525.289 283.036 525.017 283.437L525.007 283.342Z" fill="white" fill-opacity="0.75"/>
<path d="M534.647 291.113C534.371 293.9 534.094 296.687 533.846 299.472C533.792 299.641 533.69 299.797 533.55 299.928C533.41 300.058 533.234 300.159 533.039 300.222C532.543 300.389 532 300.428 531.477 300.335C530.602 300.184 529.521 299.714 529.627 298.823C529.875 296.038 530.152 293.251 530.428 290.464C530.393 290.133 530.876 289.835 531.207 289.716C531.702 289.549 532.246 289.51 532.769 289.603C533.675 289.776 534.727 290.248 534.647 291.113Z" fill="white" fill-opacity="0.75"/>
<path d="M549.433 298.558C548.395 299.907 547.72 301.428 547.454 303.016C547.188 304.604 547.337 306.222 547.892 307.758C548.376 309.083 544.146 308.864 543.731 307.654C543.12 305.948 542.962 304.152 543.269 302.391C543.577 300.63 544.341 298.947 545.51 297.459C546.316 296.422 550.42 297.342 549.462 298.556L549.433 298.558Z" fill="white" fill-opacity="0.75"/>
<path d="M560.561 306.864C560.593 307.029 560.61 307.195 560.614 307.361C560.632 307.527 560.652 307.717 560.669 307.882C560.588 308.214 560.438 308.532 560.225 308.821C560.002 309.13 559.71 309.402 559.366 309.623C559.028 309.86 558.64 310.042 558.221 310.159C557.415 310.373 556.561 310.435 555.722 310.34C555.444 310.312 555.175 310.242 554.927 310.135C554.694 310.077 554.479 309.979 554.295 309.847C554.051 309.697 553.703 309.388 553.815 309.094C553.867 308.954 553.963 308.829 554.093 308.731C554.224 308.633 554.385 308.567 554.557 308.539C555.052 308.408 555.576 308.37 556.091 308.428L555.523 308.469L555.04 308.504L555.495 308.472L555.109 308.619C555.346 308.527 555.565 308.407 555.758 308.262L555.492 308.448C555.783 308.234 556.018 307.974 556.183 307.682L556.038 307.931C556.194 307.642 556.269 307.326 556.255 307.009L556.283 307.269C556.284 307.142 556.271 307.016 556.242 306.891C556.201 306.758 556.214 306.619 556.278 306.493C556.343 306.368 556.455 306.264 556.598 306.197C556.783 306.1 556.991 306.036 557.208 306.01C557.448 305.957 557.698 305.939 557.946 305.956C558.507 305.958 559.06 306.073 559.556 306.293C559.746 306.357 559.919 306.452 560.065 306.573C560.21 306.693 560.325 306.837 560.404 306.995L560.561 306.864Z" fill="white" fill-opacity="0.75"/>
<path d="M11.3354 389.831C5.97121 408.34 -0.553254 426.6 -8.21125 444.536C-8.71539 445.718 -12.869 444.874 -12.4274 443.911C-4.77273 425.971 1.76103 407.711 7.1476 389.204C7.48133 388.035 11.6741 388.709 11.3354 389.831Z" fill="white" fill-opacity="0.75"/>
<path d="M32.4406 412.038C28.6371 427.745 23.8279 443.27 18.0335 458.547C17.542 459.847 13.3722 459.123 13.817 457.922C19.6078 442.642 24.4263 427.117 28.2525 411.411C28.5711 410.1 32.7592 410.727 32.4406 412.038Z" fill="white" fill-opacity="0.75"/>
<path d="M50.6807 441.226C44.4158 450.253 39.6684 459.955 36.5715 470.062C36.3629 470.793 32.1626 470.047 32.3553 469.437C35.4523 459.33 40.1996 449.628 46.4645 440.601C47.0348 439.773 50.8778 440.926 50.6807 441.226Z" fill="white" fill-opacity="0.75"/>
<path d="M58.6119 464.148C55.6631 472.313 52.6198 480.485 49.4817 488.663C49.167 489.473 45.044 488.651 45.2651 488.039C48.3085 479.867 51.3522 471.695 54.3957 463.523C54.7103 462.713 58.8614 463.534 58.6119 464.148Z" fill="white" fill-opacity="0.75"/>
<path d="M67.7818 487.434C63.938 492.731 61.9666 498.827 62.0942 505.021C62.1847 505.873 60.4263 506.024 59.7296 505.932C59.2535 505.898 58.8066 505.726 58.4677 505.445C58.1288 505.164 57.9199 504.792 57.878 504.396C57.7829 497.976 59.8603 491.666 63.872 486.19C64.8439 484.832 68.899 485.826 67.7818 487.434Z" fill="white" fill-opacity="0.75"/>
<path d="M719.804 326.25L717.887 335.143C717.777 335.723 716.094 335.511 715.658 335.448C715.154 335.382 714.666 335.248 714.213 335.051C714.002 334.947 713.61 334.761 713.67 334.518L715.588 325.625C715.726 325.042 717.409 325.254 717.845 325.318C718.347 325.389 718.834 325.522 719.289 325.715C719.501 325.819 719.864 326.007 719.804 326.25Z" fill="white" fill-opacity="0.75"/>
<path d="M726.391 325.749C726.098 329.73 725.834 333.709 725.546 337.737C725.617 338.4 721.286 338.046 721.33 337.112C721.623 333.131 721.913 329.127 722.175 325.124C722.104 324.461 726.435 324.815 726.391 325.749Z" fill="white" fill-opacity="0.75"/>
<path d="M737.32 329.752C736.135 335.006 735.638 340.353 735.837 345.699C735.922 346.503 734.126 346.562 733.514 346.463C732.903 346.364 731.68 345.904 731.649 345.072C731.426 339.727 731.915 334.38 733.104 329.127C733.436 327.672 737.623 328.299 737.32 329.752Z" fill="white" fill-opacity="0.75"/>
<path d="M747.582 337.716C747.727 342.554 747.233 347.389 746.108 352.135C745.952 352.814 741.761 352.164 741.921 351.508C742.986 346.76 743.432 341.929 743.252 337.099C743.202 336.626 747.427 336.797 747.468 337.724L747.582 337.716Z" fill="white" fill-opacity="0.75"/>
<path d="M758.078 345.734C757.157 350.262 756.181 354.817 755.291 359.366C755.008 360.746 750.794 360.145 751.074 358.741C751.993 354.19 752.971 349.658 753.862 345.109C754.142 343.706 758.359 344.331 758.078 345.734Z" fill="white" fill-opacity="0.75"/>
<path d="M766.464 354.621L767.721 366.457C767.782 367.025 763.603 366.755 763.505 365.832L762.248 353.996C762.187 353.428 766.366 353.698 766.464 354.621Z" fill="white" fill-opacity="0.75"/>
<path d="M779.881 364.002C779.823 366.948 780.735 369.852 782.519 372.399C782.956 373.011 781.182 373.02 780.893 372.994C780.127 373.049 778.839 372.785 778.4 372.148C776.554 369.483 775.609 366.452 775.665 363.377C775.64 363.141 776.229 363.026 776.397 362.99C776.902 362.929 777.416 362.94 777.917 363.023C778.456 362.984 779.898 363.357 779.881 364.002Z" fill="white" fill-opacity="0.75"/>
<path d="M793.404 374.64L793.824 378.593C793.861 378.738 793.845 378.889 793.778 379.025C793.71 379.162 793.596 379.279 793.448 379.36C793.046 379.569 792.577 379.669 792.105 379.648C791.543 379.647 790.991 379.531 790.495 379.312C790.19 379.143 789.677 378.894 789.64 378.539L789.222 374.609C789.188 374.462 789.208 374.309 789.28 374.172C789.353 374.034 789.474 373.919 789.627 373.84C790.027 373.629 790.497 373.528 790.97 373.552C791.532 373.554 792.084 373.669 792.58 373.889C792.884 374.058 793.369 374.309 793.404 374.64Z" fill="white" fill-opacity="0.75"/>
<path d="M264.713 379.071C263.485 390.054 258.739 400.555 250.971 409.478C249.85 410.776 245.81 409.661 247.059 408.211C254.684 399.487 259.328 389.201 260.497 378.446C260.664 376.788 264.875 377.365 264.713 379.071Z" fill="white" fill-opacity="0.75"/>
<path d="M247.165 377.145L243.325 394.884C243.04 396.241 238.823 395.615 239.111 394.283L242.948 376.52C243.236 375.187 247.452 375.812 247.165 377.145Z" fill="white" fill-opacity="0.75"/>
<path d="M233.782 379.951C233.215 380.54 232.645 381.106 232.048 381.674C231.941 381.823 231.785 381.942 231.597 382.017C231.404 382.122 231.188 382.194 230.962 382.23C230.693 382.286 230.415 382.306 230.138 382.29C229.85 382.282 229.566 382.238 229.294 382.16L228.815 381.956C228.544 381.833 228.317 381.652 228.158 381.431L228.125 381.124C228.097 381.016 228.093 380.905 228.116 380.797C228.139 380.689 228.188 380.586 228.259 380.494L229.967 378.796C230.082 378.644 230.248 378.524 230.446 378.451C230.632 378.336 230.851 378.263 231.081 378.238C231.35 378.183 231.628 378.162 231.905 378.178C232.186 378.193 232.462 378.246 232.723 378.334L233.203 378.538C233.475 378.667 233.709 378.845 233.888 379.06L233.92 379.368C233.95 379.472 233.953 379.579 233.929 379.683C233.906 379.788 233.856 379.887 233.784 379.974L233.782 379.951Z" fill="white" fill-opacity="0.75"/>
<path d="M569.12 315.763L568.109 319.175C567.879 319.979 566.611 320.167 565.765 320.013C565.23 319.95 564.73 319.753 564.331 319.449C564.174 319.341 564.052 319.203 563.976 319.046C563.899 318.889 563.87 318.719 563.892 318.551L564.904 315.138C565.161 314.332 566.432 314.168 567.276 314.298C567.795 314.383 568.278 314.578 568.681 314.864C568.84 314.971 568.963 315.109 569.04 315.266C569.117 315.423 569.144 315.594 569.12 315.763Z" fill="white" fill-opacity="0.75"/>
<path d="M581.186 325.886L581.523 329.058C581.551 329.318 580.995 329.478 580.801 329.54C580.304 329.659 579.783 329.697 579.268 329.651C578.75 329.581 578.256 329.421 577.816 329.183L577.535 328.965C577.48 328.9 577.447 328.824 577.439 328.745C577.43 328.666 577.447 328.587 577.487 328.515L577.153 325.367C577.125 325.106 577.678 324.923 577.874 324.885C578.369 324.754 578.893 324.716 579.408 324.774C579.923 324.836 580.417 324.987 580.858 325.218L581.138 325.436C581.19 325.502 581.222 325.577 581.23 325.656C581.239 325.734 581.223 325.813 581.186 325.886Z" fill="white" fill-opacity="0.75"/>
<path d="M1199.16 331.879L1175.74 369.237C1175.08 370.31 1170.97 369.582 1171.79 368.14L1195.2 330.664C1195.86 329.59 1199.97 330.318 1199.15 331.761L1199.16 331.879Z" fill="white" fill-opacity="0.75"/>
<path d="M1211 350.368L1183.74 393.919C1182.91 395.244 1178.86 394.273 1179.81 392.701L1207.06 349.103C1207.9 347.802 1211.97 348.747 1211 350.321L1211 350.368Z" fill="white" fill-opacity="0.75"/>
<path d="M1233.7 361.677C1219.93 375.667 1208.02 390.862 1198.18 406.995C1197.43 408.242 1193.33 407.347 1194.22 405.827C1204.02 389.707 1215.89 374.523 1229.63 360.541C1230.71 359.46 1234.75 360.504 1233.56 361.735L1233.7 361.677Z" fill="white" fill-opacity="0.75"/>
<path d="M1241.14 376.763C1230.76 391.231 1221.51 406.243 1213.46 421.704C1213.03 422.499 1209 421.502 1209.24 421.079C1217.31 405.62 1226.55 390.609 1236.92 376.138C1237.52 375.331 1241.34 376.486 1241.14 376.763Z" fill="white" fill-opacity="0.75"/>
<path d="M1250.57 393.852C1243.44 405.961 1236.32 418.069 1229.21 430.177C1228.48 431.399 1224.38 430.527 1225.25 429.009C1232.38 416.899 1239.5 404.791 1246.61 392.683C1247.34 391.462 1251.44 392.334 1250.57 393.852Z" fill="white" fill-opacity="0.75"/>
<path d="M1262.15 411.857L1239.61 453.135C1239.1 454.078 1235.08 453.129 1235.39 452.534L1257.91 411.234C1258.44 410.29 1262.46 411.263 1262.12 411.86L1262.15 411.857Z" fill="white" fill-opacity="0.75"/>
<path d="M1271.4 430.509C1265.13 441.173 1261.07 452.645 1259.38 464.441C1259.23 465.693 1254.99 465.117 1255.19 463.814C1256.94 451.892 1261.07 440.303 1267.43 429.532C1268.07 428.484 1272.18 429.189 1271.41 430.604L1271.4 430.509Z" fill="white" fill-opacity="0.75"/>
<path d="M1284.96 443.65L1278.95 470.802C1278.79 471.529 1274.58 470.904 1274.73 470.201L1280.75 443.025C1280.93 442.32 1285.12 442.947 1284.96 443.65Z" fill="white" fill-opacity="0.75"/>
<path d="M1297.01 459.832C1292.4 467.262 1290.9 475.765 1292.74 483.996C1292.85 485.061 1288.81 484.686 1288.59 483.771C1286.64 475.392 1288.13 466.714 1292.82 459.134C1293.43 458.136 1297.42 459.135 1297 459.761L1297.01 459.832Z" fill="white" fill-opacity="0.75"/>
<path d="M1311.32 479.788C1311.34 486.384 1310.01 492.932 1307.4 499.155C1307.2 499.514 1306.85 499.799 1306.41 499.958C1305.97 500.116 1305.48 500.138 1305.03 500.019C1304.36 499.924 1302.84 499.342 1303.18 498.53C1305.79 492.305 1307.13 485.758 1307.14 479.161C1307.05 478.309 1308.81 478.181 1309.48 478.276C1309.95 478.299 1310.4 478.465 1310.74 478.743C1311.08 479.021 1311.29 479.392 1311.32 479.788Z" fill="white" fill-opacity="0.75"/>
<path d="M1327.84 496.221C1323.29 501.62 1320.18 507.765 1318.71 514.247C1318.37 515.679 1314.15 515.054 1314.49 513.623C1316.04 506.94 1319.26 500.608 1323.96 495.046C1324.9 493.928 1328.99 494.921 1327.89 496.216L1327.84 496.221Z" fill="white" fill-opacity="0.75"/>
<path d="M1080.52 483.976C1073.9 492.914 1065.95 501.119 1056.87 508.398C1056.48 508.668 1056.01 508.842 1055.51 508.9C1055.01 508.957 1054.5 508.895 1054.04 508.722C1053.57 508.589 1052.09 507.861 1052.83 507.283C1061.96 499.98 1069.95 491.748 1076.61 482.78C1077.44 481.647 1081.54 482.59 1080.57 483.901L1080.52 483.976Z" fill="white" fill-opacity="0.75"/>
<path d="M1074.34 465.197C1065.03 478.438 1054.3 490.951 1042.28 502.584C1041.04 503.771 1036.99 502.633 1038.34 501.319C1050.36 489.689 1061.1 477.184 1070.43 463.953C1071.4 462.571 1075.43 463.591 1074.34 465.197Z" fill="white" fill-opacity="0.75"/>
<path d="M1066.91 451.279C1056.24 465.583 1044.53 479.329 1031.85 492.438C1030.64 493.718 1026.59 492.556 1027.93 491.171C1040.59 478.061 1052.27 464.318 1062.91 450.018C1063.94 448.632 1068 449.65 1066.83 451.285L1066.91 451.279Z" fill="white" fill-opacity="0.75"/>
<path d="M1046.81 441.452C1036.02 452.054 1026.7 463.627 1018.99 475.955C1018.16 477.28 1014.08 476.311 1015.05 474.714C1022.76 462.393 1032.09 450.828 1042.87 440.234C1044.07 439.074 1048.1 440.189 1046.81 441.452Z" fill="white" fill-opacity="0.75"/>
<path d="M1034.49 434.376C1025.15 444.043 1016.84 454.366 1009.64 465.23C1008.67 466.659 1004.64 465.592 1005.72 463.939C1012.93 453.079 1021.25 442.756 1030.58 433.085C1031.82 431.826 1035.86 432.965 1034.49 434.376Z" fill="white" fill-opacity="0.75"/>
<path d="M1011.76 428.604L1002.23 446.731C1001.52 448.047 997.434 447.078 998.298 445.513L1007.82 427.41C1008.54 426.07 1012.62 427.062 1011.76 428.604Z" fill="white" fill-opacity="0.75"/>
<path d="M1004.21 423.043L995.341 435.994C995.191 436.196 994.481 436.247 994.282 436.262C993.726 436.266 993.172 436.21 992.633 436.095C992.133 435.964 990.951 435.62 991.348 435.043L1000.22 422.092C1000.37 421.89 1001.08 421.839 1001.28 421.824C1001.82 421.82 1002.37 421.877 1002.9 421.993C1003.43 422.122 1004.61 422.466 1004.21 423.043Z" fill="white" fill-opacity="0.75"/>
<path d="M990.752 412.186C990.181 413.277 989.638 414.366 989.065 415.433C989.002 415.552 988.9 415.654 988.771 415.726C988.642 415.799 988.491 415.84 988.336 415.844C987.845 415.951 987.336 415.988 986.83 415.953C986.321 415.889 985.83 415.747 985.383 415.533L985.077 415.34C985.005 415.295 984.948 415.236 984.911 415.168C984.874 415.099 984.857 415.025 984.863 414.95L986.551 411.703C986.618 411.587 986.721 411.489 986.849 411.417C986.977 411.345 987.125 411.302 987.28 411.293C987.782 411.224 988.296 411.227 988.798 411.302C989.308 411.361 989.8 411.504 990.245 411.722L990.551 411.914C990.623 411.96 990.68 412.019 990.717 412.087C990.754 412.155 990.77 412.23 990.764 412.304L990.752 412.186Z" fill="white" fill-opacity="0.75"/>
<path d="M1623.99 498.799C1620.34 502.643 1617.67 507.065 1616.13 511.796C1615.95 512.18 1615.61 512.494 1615.16 512.676C1614.72 512.858 1614.21 512.895 1613.74 512.78C1612.96 512.67 1611.63 512.026 1611.91 511.171C1613.5 506.204 1616.28 501.556 1620.07 497.508C1620.41 497.177 1620.87 496.948 1621.37 496.855C1621.88 496.762 1622.41 496.811 1622.88 496.995C1623.59 497.229 1624.69 498.104 1624.02 498.797L1623.99 498.799Z" fill="white" fill-opacity="0.75"/>
<path d="M1601.6 484.175L1598.66 492.355C1598.46 492.871 1596.85 492.487 1596.45 492.515C1595.94 492.454 1595.44 492.329 1594.98 492.145C1594.98 492.145 1594.38 491.902 1594.44 491.706C1595.41 488.988 1596.41 486.268 1597.38 483.526C1597.56 483.037 1599.2 483.395 1599.6 483.366C1600.11 483.428 1600.6 483.553 1601.07 483.737C1601.07 483.737 1601.67 483.98 1601.6 484.175Z" fill="white" fill-opacity="0.75"/>
<path d="M1584.8 470.984C1583.46 471.579 1582.44 472.57 1581.93 473.763C1581.42 474.955 1581.46 476.264 1582.05 477.432C1582.34 478.008 1580.73 477.934 1580.41 477.909C1579.87 477.861 1579.33 477.764 1578.81 477.62C1578.54 477.52 1578.07 477.387 1577.93 477.135C1577.25 475.877 1577.17 474.454 1577.7 473.151C1578.23 471.848 1579.34 470.76 1580.79 470.105C1581.65 469.836 1582.6 469.826 1583.48 470.078C1583.9 470.168 1584.31 470.325 1584.67 470.54C1584.67 470.54 1585.05 470.87 1584.72 470.99L1584.8 470.984Z" fill="white" fill-opacity="0.75"/>
<path d="M1564.88 464.722L1565.27 464.693L1565.61 464.668C1565.37 464.715 1565.14 464.788 1564.92 464.885L1565.18 464.867C1564.62 465.121 1564.14 465.492 1563.8 465.944L1563.79 465.802C1563.57 466.072 1563.41 466.377 1563.34 466.698C1563.26 467.02 1563.27 467.351 1563.36 467.67L1563.34 467.504C1563.34 467.504 1563.35 467.647 1563.36 467.694C1563.36 467.741 1563.38 467.883 1563.38 467.931C1563.36 467.982 1563.32 468.028 1563.27 468.061C1563.22 468.095 1563.16 468.115 1563.09 468.119C1562.67 468.221 1562.22 468.253 1561.78 468.214C1561.23 468.172 1560.69 468.066 1560.18 467.901L1559.76 467.74C1559.56 467.674 1559.39 467.562 1559.27 467.418C1559.12 467.06 1559.08 466.682 1559.12 466.308C1559.17 465.934 1559.32 465.573 1559.55 465.25C1560.02 464.519 1560.82 463.967 1561.76 463.707C1562.77 463.431 1563.84 463.354 1564.89 463.48C1565.4 463.53 1565.89 463.665 1566.33 463.877C1566.33 463.877 1566.93 464.167 1566.87 464.363C1566.8 464.558 1566.39 464.66 1566.16 464.7C1565.65 464.742 1565.14 464.723 1564.64 464.643L1564.88 464.722Z" fill="white" fill-opacity="0.75"/>
<path d="M1549.87 463.804L1550.03 465.367C1550.08 465.429 1550.11 465.501 1550.12 465.575C1550.13 465.65 1550.11 465.724 1550.08 465.793C1550.03 465.945 1549.91 466.073 1549.74 466.151C1549.56 466.255 1549.35 466.327 1549.14 466.362C1548.89 466.416 1548.63 466.435 1548.37 466.418C1547.81 466.412 1547.27 466.287 1546.79 466.055L1546.39 465.845C1546.18 465.706 1546.02 465.519 1545.93 465.306L1545.76 463.72C1545.72 463.659 1545.7 463.592 1545.69 463.522C1545.68 463.453 1545.7 463.383 1545.72 463.317C1545.74 463.239 1545.78 463.165 1545.83 463.103C1545.89 463.04 1545.97 462.991 1546.06 462.959C1546.23 462.842 1546.44 462.769 1546.66 462.748C1546.9 462.683 1547.15 462.665 1547.4 462.695C1547.96 462.685 1548.52 462.801 1549.01 463.031L1549.41 463.265C1549.62 463.399 1549.77 463.591 1549.84 463.806L1549.87 463.804Z" fill="white" fill-opacity="0.75"/>
<path d="M1909.94 203.248L1929.79 251.904C1930.41 253.41 1926.16 253.264 1925.61 251.896L1905.76 203.24C1905.14 201.734 1909.39 201.88 1909.94 203.248Z" fill="white" fill-opacity="0.75"/>
<path d="M1886.31 224.066C1891 238.373 1897.6 252.201 1905.97 265.294C1906.66 266.389 1902.5 266.308 1901.81 265.189C1893.45 252.132 1886.86 238.345 1882.16 224.08C1881.7 222.73 1885.93 222.996 1886.32 224.185L1886.31 224.066Z" fill="white" fill-opacity="0.75"/>
<path d="M1868.16 244.558C1873.44 258.33 1878.63 272.107 1883.74 285.891C1884.25 287.19 1880.02 286.971 1879.58 285.763C1874.4 272 1869.2 258.223 1864 244.43C1863.49 243.132 1867.72 243.35 1868.16 244.558Z" fill="white" fill-opacity="0.75"/>
<path d="M1835.9 260.945C1838.03 276.35 1845.13 290.995 1856.43 303.326C1858.05 305.069 1854.27 305.868 1853.08 304.666C1841.36 292.027 1833.98 276.979 1831.71 261.128C1831.52 259.282 1835.68 259.434 1835.91 261.039L1835.9 260.945Z" fill="white" fill-opacity="0.75"/>
<path d="M1816.26 288.916C1824.54 298.354 1829.17 309.671 1829.52 321.351C1829.58 321.896 1825.35 321.653 1825.31 320.726C1824.96 309.123 1820.37 297.88 1812.15 288.497C1811.7 288.005 1813.57 288.085 1813.74 288.096C1814.45 288.045 1815.77 288.284 1816.25 288.821L1816.26 288.916Z" fill="white" fill-opacity="0.75"/>
<path d="M1798.28 306.653C1799.46 315.674 1803.32 324.309 1809.54 331.768C1810.78 333.252 1806.59 333.412 1805.67 332.31C1799.32 324.678 1795.34 315.849 1794.1 306.622C1793.93 304.988 1798.11 305.306 1798.28 306.653Z" fill="white" fill-opacity="0.75"/>
<path d="M1782.65 327.083C1784.12 331.747 1785.62 336.41 1787 341.08C1787.07 341.72 1785.8 341.621 1785.37 341.604C1784.94 341.588 1783.06 341.39 1782.88 340.806C1781.41 336.142 1779.91 331.479 1778.53 326.809C1778.46 326.17 1779.73 326.245 1780.16 326.285C1780.6 326.325 1782.48 326.499 1782.65 327.083Z" fill="white" fill-opacity="0.75"/>
<path d="M1761.91 340.583L1763.16 352.419C1763.23 353.035 1759.07 352.716 1758.98 351.816L1757.72 339.98C1757.65 339.365 1761.81 339.684 1761.91 340.583Z" fill="white" fill-opacity="0.75"/>
<path d="M1739.18 341.967L1739.94 349.068C1739.98 349.204 1739.96 349.346 1739.89 349.472C1739.82 349.598 1739.7 349.701 1739.55 349.764C1739.15 349.96 1738.67 350.044 1738.21 350.005C1737.65 350.012 1737.1 349.905 1736.6 349.692C1736.33 349.545 1735.78 349.298 1735.75 348.99L1735 341.888C1734.96 341.753 1734.97 341.611 1735.04 341.485C1735.11 341.358 1735.23 341.255 1735.38 341.193C1735.79 340.997 1736.26 340.913 1736.73 340.952C1737.29 340.944 1737.84 341.052 1738.34 341.265C1738.61 341.412 1739.15 341.659 1739.18 341.967Z" fill="white" fill-opacity="0.75"/>
<path d="M1713.44 341.54C1715.65 344.553 1717.88 347.564 1720.12 350.598C1720.49 351.096 1718.74 351.009 1718.54 350.999C1717.98 350.952 1717.43 350.855 1716.9 350.712C1716.55 350.636 1716.24 350.476 1715.99 350.253C1713.79 347.24 1711.55 344.23 1709.31 341.195C1708.94 340.697 1710.7 340.785 1710.9 340.794C1711.45 340.842 1712 340.938 1712.53 341.081C1712.88 341.158 1713.2 341.317 1713.44 341.54Z" fill="white" fill-opacity="0.75"/>
<path d="M1856.86 397.422L1865.18 404.835C1865.84 405.431 1864.77 405.866 1864.18 405.91C1863.65 405.984 1863.12 405.959 1862.61 405.834C1862.1 405.71 1861.63 405.49 1861.24 405.192L1852.92 397.779C1852.23 397.185 1853.33 396.724 1853.92 396.681C1854.45 396.612 1854.99 396.643 1855.5 396.772C1856 396.9 1856.47 397.122 1856.86 397.422Z" fill="white" fill-opacity="0.75"/>
<path d="M1855.57 398.685C1854.12 398.79 1850.97 397.158 1853.73 396.958C1855.17 396.853 1858.32 398.486 1855.57 398.685Z" fill="white" fill-opacity="0.75"/>
<path d="M1851.96 402.453C1850.85 404.739 1850.55 407.242 1851.1 409.668C1851.65 412.093 1853.02 414.338 1855.05 416.136C1859.29 420.29 1865.63 422.526 1871.5 424.487C1872.25 424.767 1872.03 425.116 1871.35 425.213C1870.35 425.277 1869.35 425.128 1868.44 424.78C1862.29 422.601 1855.83 420.278 1851.31 416.025C1849.15 414.184 1847.67 411.861 1847.05 409.337C1846.43 406.813 1846.7 404.195 1847.83 401.798C1848.34 400.926 1852.31 401.951 1852.04 402.399L1851.96 402.453Z" fill="white" fill-opacity="0.75"/>
<path d="M1850.44 428.54L1875.37 444.458C1877.58 445.873 1874.51 447.383 1872.7 446.297L1847.77 430.379C1845.56 428.964 1848.67 427.475 1850.44 428.54Z" fill="white" fill-opacity="0.75"/>
<path d="M1852.68 442.881C1858.07 446.236 1863.6 449.485 1868.87 452.992C1874.13 456.499 1879.06 460.364 1883.92 464.283C1884.64 464.851 1883.47 465.198 1882.96 465.235C1882.44 465.306 1881.91 465.28 1881.4 465.16C1880.89 465.04 1880.42 464.829 1880.02 464.541C1875.34 460.661 1870.42 456.981 1865.29 453.514C1860.11 450.072 1854.68 446.863 1849.38 443.574C1848.67 443.124 1848.79 442.662 1849.6 442.436C1850.1 442.347 1850.61 442.342 1851.11 442.421C1851.61 442.499 1852.08 442.66 1852.51 442.894L1852.68 442.881Z" fill="white" fill-opacity="0.75"/>
<path d="M1851.28 459.919L1896 493.178C1897.8 494.526 1893.83 494.814 1892.77 494.032L1848.03 460.775C1846.22 459.427 1850.23 459.137 1851.28 459.919Z" fill="white" fill-opacity="0.75"/>
<path d="M1853.47 489.148L1910.23 526.879C1912.2 528.168 1908.19 528.72 1906.96 527.903L1850.14 490.153C1848.18 488.864 1852.18 488.335 1853.42 489.153L1853.47 489.148Z" fill="white" fill-opacity="0.75"/>
<path d="M1580.58 431.286L1607.4 454.129C1608.09 454.699 1606.97 454.971 1606.46 455.008C1605.94 455.064 1605.41 455.033 1604.91 454.918C1604.41 454.803 1603.94 454.606 1603.53 454.337L1576.71 431.471C1576.05 430.898 1577.14 430.652 1577.68 430.613C1578.2 430.555 1578.72 430.584 1579.23 430.699C1579.73 430.814 1580.2 431.013 1580.61 431.284L1580.58 431.286Z" fill="white" fill-opacity="0.75"/>
<path d="M1587.78 405.551C1593.13 416.886 1602.27 426.707 1614.11 433.843C1614.26 433.942 1614.38 434.073 1614.45 434.222C1614.51 434.37 1614.53 434.532 1614.5 434.688C1614.47 434.845 1614.38 434.991 1614.26 435.111C1614.13 435.231 1613.97 435.321 1613.79 435.37C1613.3 435.504 1612.78 435.535 1612.27 435.459C1611.76 435.384 1611.28 435.204 1610.88 434.936C1598.6 427.503 1589.12 417.295 1583.57 405.522C1582.88 404.093 1587.13 404.215 1587.75 405.529L1587.78 405.551Z" fill="white" fill-opacity="0.75"/>
<path d="M1599.36 397.89L1630.13 412.694C1630.76 413.006 1631.42 413.531 1630.64 414.017C1630.18 414.178 1629.68 414.25 1629.18 414.228C1628.69 414.207 1628.2 414.091 1627.76 413.891L1597 399.087C1596.36 398.775 1595.71 398.25 1596.49 397.764C1596.95 397.603 1597.44 397.531 1597.94 397.553C1598.44 397.574 1598.92 397.69 1599.36 397.89Z" fill="white" fill-opacity="0.75"/>
<path d="M1620.35 383.179L1641.44 396.299C1641.59 396.369 1641.72 396.478 1641.8 396.612C1641.88 396.745 1641.91 396.895 1641.88 397.042C1641.85 397.189 1641.77 397.324 1641.64 397.429C1641.51 397.535 1641.35 397.605 1641.18 397.629C1640.68 397.733 1640.16 397.746 1639.66 397.667C1639.16 397.588 1638.68 397.419 1638.27 397.172L1617.18 384.076C1617.03 384.005 1616.9 383.893 1616.82 383.758C1616.74 383.622 1616.72 383.47 1616.75 383.322C1616.78 383.174 1616.87 383.039 1617 382.935C1617.13 382.831 1617.29 382.764 1617.47 382.743C1617.96 382.627 1618.48 382.605 1618.99 382.68C1619.49 382.755 1619.97 382.925 1620.38 383.177L1620.35 383.179Z" fill="white" fill-opacity="0.75"/>
<path d="M1633.22 367.767L1653.68 379.024C1654.41 379.425 1654.24 379.962 1653.46 380.138C1652.45 380.292 1651.41 380.129 1650.55 379.681L1630.09 368.424C1629.39 368.045 1629.53 367.51 1630.32 367.334C1631.32 367.156 1632.36 367.311 1633.22 367.767Z" fill="white" fill-opacity="0.75"/>
<path d="M1651.7 362.232L1657.63 364.187C1657.86 364.171 1658.4 364.394 1658.53 364.623C1658.67 364.851 1658.57 364.931 1658.26 364.977C1657.83 365.068 1657.39 365.1 1656.95 365.072C1656.4 365.03 1655.86 364.925 1655.34 364.759L1649.41 362.803C1649.18 362.819 1648.65 362.596 1648.51 362.367C1648.37 362.139 1648.47 362.059 1648.78 362.013C1649.21 361.922 1649.65 361.89 1650.09 361.919C1650.64 361.96 1651.18 362.066 1651.7 362.232Z" fill="white" fill-opacity="0.75"/>
<path d="M-238.293 1043.74L-219.195 1018.21C-219.195 1018.21 -219.055 995.828 -251.617 985.662C-253.037 985.765 -252.245 979.744 -252.245 979.744L-189.042 968.25C-189.042 968.25 -226.166 935.348 -243.684 925.357L-185.28 930.384C-185.28 930.384 -209.142 911.859 -188.991 907.299C-188.991 907.299 -228.282 896.833 -241.445 876.652L-191.861 865.19L-197.983 847.432L-249.48 817.98L-180.498 823.171C-180.498 823.171 -213.487 808.981 -211.109 786.1C-211.109 786.1 -218.375 765.658 -236.263 759.463C-236.263 759.463 -196.509 762.429 -166.801 775.902C-166.801 775.902 -186.652 740.986 -228.731 722.325L-214.125 725.108L-221.015 714.133C-221.015 714.133 -174.624 719.767 -162.179 725.379L-197.642 701.11C-197.642 701.11 -173.083 700.596 -160.678 706.64L-195.614 661.461L-173.817 657.044L-184.156 651.042L-164.089 631.961L-173.6 623.251L-146.9 587.922C-146.9 587.922 -147.387 610.285 -135.132 615.457C-136.773 615.909 -140.795 622.498 -140.795 622.498L-136.741 627.787L-157.661 656.9C-157.661 656.9 -133.73 645.364 -114.15 648.359C-114.15 648.359 -129.572 659.447 -114.185 672.549C-114.185 672.549 -142.785 689.72 -147.299 708.653C-147.023 708.013 -117.801 696.976 -95.4335 719.21C-95.4335 719.21 -133.042 725.392 -142.563 747.574C-142.563 747.574 -113.01 744.504 -101.965 737.478L-106.644 752.964L-106.292 764.365L-133.941 784.019L-136.759 793.598C-136.759 793.598 -100.683 777.293 -78.0602 780.378C-78.0602 780.378 -89.7384 800.307 -107.91 805.988C-107.91 805.988 -105.261 817.723 -127.536 824.107C-128.062 824.551 -132.203 845.914 -132.203 845.914C-132.203 845.914 -107.855 831.293 -61.8376 853.08C-61.5819 853.061 -45.8515 856.192 -45.8515 856.192L-63.2419 861.411L-92.3587 862.398C-92.3587 862.398 -124.588 879.879 -140.764 880.096C-140.249 880.369 -104.696 896.33 -67.0357 893.054C-64.488 894.945 -55.0373 907.667 -55.0373 907.667L-135.42 925.295L-107.184 957.242C-107.184 957.242 -38.4913 959.163 -27.4981 974.277L-68.1655 974.836L-46.8565 985.221L-25.8863 989.451L-11.6402 988.849L-25.0462 1000.86C-25.0462 1000.86 -133.231 1047.75 -142.265 1095.8L-127.071 1088.5L-109.862 1070.79L-74.8078 1048.91L-49.1103 1039.17C-49.1103 1039.17 -24.26 1017.7 -7.30305 1018.9C-19.3414 1034.13 -33.6926 1048 -50.0008 1060.16C-51.1932 1061.87 -59.1186 1090.18 -59.1186 1090.18C-59.1186 1090.18 -68.2604 1105.16 -119.963 1110.14C-119.963 1110.14 -72.0111 1108.65 -48.5162 1127.49L-132.177 1126.91C-132.177 1126.91 -69.3906 1128.74 -72.3161 1173.67C-72.3161 1173.67 -72.2795 1206.35 -52.8377 1216.13C-50.2247 1215.94 -35.5122 1188.21 -13.6869 1189.44L-56.0218 1168.11L-13.0997 1168.03L-35.9941 1134.09C-35.9941 1134.09 -10.0612 1144.36 3.22616 1144.16L-36.2179 1117.44C-36.2179 1117.44 -13.11 1121.58 -4.47304 1119.91L-21.7044 1102.65L-7.0659 1101.16C-8.67725 1082.97 -3.50871 1064.81 7.73346 1049.18L11.1077 1085.53L20.6599 1086.27L9.8337 1096.98C9.8337 1096.98 14.5264 1107.2 34.9483 1110.85L10.7506 1121.5C10.7506 1121.5 36.9808 1141.57 47.3223 1142.47L26.3007 1146.38L64.6591 1150.76C47.936 1161.51 27.7969 1167.94 6.72261 1169.26C6.72261 1169.26 33.6311 1184.13 41.3943 1184.74C41.3943 1184.74 25.7923 1190.09 80.1679 1210.27L11.2934 1215.26L34.0921 1231.04L79.6887 1273.92L100.085 1301.31L146.432 1333.47L166.242 1321.66L129.734 1297.26L147.257 1295.44C147.257 1295.44 172.941 1288.81 184.262 1293.55C183.325 1293.61 154.832 1272.18 154.832 1272.18L160.964 1269.02L154.899 1262.3C154.899 1262.3 104.28 1250.01 101.951 1237.51C101.951 1237.51 121.004 1238.51 123.819 1230.8C123.819 1230.8 165.819 1254.64 182.231 1256.91C182.231 1256.91 193.21 1237.94 161.015 1222.88C160.775 1222.78 130.444 1209.64 129.1 1203.72L163.772 1197.37C163.772 1197.37 149.736 1192.95 144.047 1187.09C143.656 1186.64 176.684 1182.05 183.265 1168.03C183.265 1168.03 170.569 1160.86 169.238 1155.06C168.563 1153.56 179.748 1158.1 185.98 1138.08C185.565 1137.68 173.378 1117.53 173.378 1117.53L180.045 1110.77L172.951 1102.72L183.864 1093.92L188.737 1080.52L193.913 1091.52L217.574 1096.03L204.167 1106.69L230.847 1117.52L196.695 1143.84L219.441 1142.44L208.293 1153.88L192.167 1167.5L193.764 1176.07C193.764 1176.07 224.542 1173.48 237.476 1178.58C238.565 1176.98 221.733 1205.51 221.733 1205.51L242.695 1209.12L238.843 1214.62L260.03 1225.47C260.03 1225.47 255.844 1221.36 208.116 1250.29L283.842 1252.68C283.842 1252.68 282.75 1264.49 270.499 1267.72C268.649 1268.35 281.867 1282.85 241.488 1302.02C241.686 1302.01 261.903 1309.92 280.266 1307.66L270.044 1319.2C270.044 1319.2 279.436 1339.99 267.194 1357.58C267.194 1357.58 287.044 1363.65 295.152 1376.66C298.339 1376.41 301.506 1376 304.639 1375.45C304.639 1375.45 285.577 1353.62 325.457 1355.89C322.842 1355.24 319.319 1342.83 319.319 1342.83L347.721 1340.77L338.725 1329.9L348.584 1326.8C348.584 1326.8 315.453 1305.35 310.501 1295.38L340.685 1287.47L339.908 1280.15L351.284 1268.69L342.979 1258.68L354.144 1254.12L333.525 1235.96C333.525 1235.96 381.426 1230.75 342.374 1191.55C342.819 1191.16 365.332 1170.04 363.514 1146.46C363.487 1146.2 377.378 1159.77 363.496 1187.51L373.248 1196.06L373.751 1200.8L381.282 1214.3L368.976 1225.09L383.99 1239.8L375.674 1248.53L405.783 1260.67C405.783 1260.67 401.326 1268.55 387.517 1267.88C386.481 1275.55 384.402 1283.1 381.32 1290.37C382.193 1290.78 395.529 1292.66 395.529 1292.66L389.843 1298.94L403.315 1310.72L391.012 1313.45L389.311 1327.89L413.891 1339.42L413.051 1328.82L425.915 1327.6L422.404 1298.58L436.172 1293.48L433.28 1272.73L420.262 1257.95L431.834 1251.84C431.834 1251.84 416.616 1241.13 444.373 1212.26C444.373 1212.26 474.976 1175.15 440.008 1171.17C439.663 1169.81 467.66 1142.93 467.66 1142.93L414.495 1127.41L474.036 1106.76L460.777 1089.71L465.512 1077.44L460.567 1068.87L472.586 1043.53L461.499 984.695C461.499 984.695 485.302 981.636 489.471 1039.75C489.429 1039.35 494.565 1069.65 523.915 1074.64L516.086 1117.33L520.634 1125.11L535.142 1130.22L530.266 1133.89L544.89 1149.24L532.669 1159.47L552.506 1174.59L599.337 1164.43L591.999 1147.62L596.158 1134.51L606.496 1124.05L568.514 1076.87L607.277 1086.14L595.635 1064.1L597.725 1054.41L610.166 1045.71L593.783 1026.19L620.568 1020.5L605.823 995.118L608.42 985.889L622.912 976.825L628.345 947.139L643.813 923.548L653.7 937.145L651.738 940.769L659.004 959.327L648.619 985.77L649.12 996.42C649.12 996.42 667.396 992.258 676.326 996.835L654.838 1031.38L665.804 1028.46L670.756 1038.17L681.204 1042.76L651.783 1066.48L697.715 1064.56L667.657 1088.2L676.617 1091.73L667.317 1104.14L669.451 1118.3L676.632 1121.24L706.359 1114.15L758.63 1089.99L761.929 1097.34L697.979 1141.95L693.184 1146.11L726.369 1153.25L699.959 1165.71L695.155 1184.61C695.155 1184.61 731.868 1200.44 739.889 1213.17L722.361 1224.1L724.435 1236.35L739.643 1244.27L714.154 1253.27L708.925 1269.51L721.631 1294.83L750.555 1281.79L758.485 1273.46L766.628 1271.44L762.424 1236.44L777.654 1152.42L784.158 1144.94C784.158 1144.94 800.947 1141.34 813.123 1148.18L815.865 1142.48L829.618 1129.96L822.119 1091.69L839.31 1055.76L859.982 1029.43C859.982 1029.43 886.328 1028.5 899.121 1042.51L911.838 1027.52L909.988 1010.09L939.945 978.488L951.199 985.282L963.436 972.231C963.436 972.231 978.829 985.93 997.033 988.643L995.868 992.759C1011.01 996.12 1024.06 1004.17 1032.34 1015.26C1032.88 1015.7 1048.36 1022.93 1048.36 1022.93L1040.26 1042.07L1052.58 1041.44L1059.27 1046.99L1051.47 1073.8L1062.79 1104.42L1059.24 1119.75L1067.18 1119.56L1061.92 1140.67C1061.92 1140.67 1086.23 1129.15 1111.83 1139.29C1111.88 1139.74 1109.97 1171.32 1109.97 1171.32L1125.81 1197.58L1137.3 1190.41L1133.45 1181.14L1147.32 1177.04L1149.13 1157.37L1163.17 1091.54L1173.54 1120.18L1179.17 1152.45L1194.42 1170.67L1216.76 1200.47L1207.49 1205.62L1237.04 1224.12L1270.88 1239.32L1248.17 1255.28C1248.17 1255.28 1245.86 1280.42 1294.36 1286.02C1293.41 1286.73 1267.58 1300.89 1267.58 1300.89L1301.21 1326L1313.91 1324.3L1312.59 1295.39L1302.3 1285.04C1302.3 1285.04 1311.28 1281.17 1333.39 1294.26C1334.38 1294.67 1356.36 1297.37 1356.36 1297.37L1322.35 1263.12L1299.14 1235.08L1322.56 1248.05L1337.19 1260.52L1359.21 1268.21L1341.69 1248.46L1333.85 1228.58L1357.16 1233.79L1339.75 1215.42L1329.4 1188.83L1352.85 1194.05L1342.88 1160.52L1333.39 1148.8L1340.68 1140.66L1356.26 1080.35L1366.68 1118.65L1377.7 1134.33L1389.91 1139.87L1372.01 1159.98L1378.32 1168.95L1386.06 1170.92L1403.04 1169.14L1388.31 1185.4L1380.62 1195.5L1405.55 1192.79L1396.43 1219L1388.93 1232.42C1388.93 1232.42 1421.21 1234.35 1435.97 1224.58C1435.77 1224.78 1402.15 1263.47 1402.15 1263.47L1428.58 1263.56L1438.9 1252.94L1449.25 1248.49L1447.75 1234.43L1456.98 1193.07L1468.91 1221.57L1465.39 1235.88C1465.39 1235.88 1477.52 1251.17 1497.94 1253.18C1496.24 1253.82 1482.3 1260.87 1482.3 1260.87L1500.45 1276.78L1523.64 1279.56L1510.84 1264.41L1496.84 1233.07L1481.77 1222.72L1505.52 1218.61L1525.11 1222.56L1531.41 1216.93L1550.15 1218.74L1540.94 1204.48L1519.64 1182.64L1499.35 1166.22L1513.95 1168.91L1535.85 1164.94L1539.61 1161.25L1555.68 1162.24L1533.28 1138.05L1526.42 1110.14L1508.89 1099.48L1540.05 1100.44L1525.45 1053.03L1535.98 1040.91L1535.08 1032.39L1544.43 995.93L1555.29 1021.38L1557.42 1041.48L1571.91 1055.79L1563.82 1071.53L1565.56 1087.93L1575.44 1090.39L1595.17 1085.1L1602.24 1090.19L1598.65 1102L1568.14 1130.8L1576.44 1131.87L1595.48 1127.06L1607.29 1128.59L1579.21 1160.63L1601.83 1163.93L1620.46 1165.32L1622.89 1171.45L1604.24 1179.95L1600.41 1197.71L1615.63 1199.57L1631.64 1188.63L1639.32 1173.12L1640.64 1164.27L1633.25 1148.58L1652.82 1099.77L1658.36 1130.02L1672.56 1162.41L1658.96 1174.75C1658.96 1174.75 1672.88 1179.7 1707.84 1180.99L1674.11 1200.99L1677.03 1212.11L1687.45 1219.08L1710.25 1226L1674.78 1239.66L1697.23 1242.42L1715.02 1248.29L1745.96 1247.19L1735.22 1253.86L1695.18 1269L1713.57 1273.44L1739.58 1289.49L1773.96 1259.98L1774.93 1240.01L1789.19 1239.53L1799.51 1220.27L1783.08 1213.49L1761.28 1207.92L1744.59 1207.88L1760.79 1193.38L1779.94 1192.54L1804.51 1177.35L1820.43 1170.69L1830.04 1160.07L1845.53 1156.11L1816.5 1143.64L1796.37 1134.36L1760.93 1120.59L1775.23 1117.02L1804.04 1089.1L1821.01 1087.21L1858.09 1088.96L1833.91 1072.08L1812.25 1053.28L1867.47 1061.21L1857.92 1046.13L1833.34 1030.28L1823.71 1020.51L1844.34 1022.09L1860.48 1020.73L1875.76 1014.71L1846.39 1001.52C1846.39 1001.52 1822.44 998.009 1808.47 998.52L1827.52 990.938L1853.58 988.383L1882.73 990.137L1826.75 946.482L1875.34 951.289L1855.67 935.252L1845.6 908.358L1856.51 903.298L1852.98 888.168L1866.41 865.011L1873.77 889.358L1882.08 912.014L1903.98 916.106L1901.16 923.8L1882.26 935.808L1897.2 946.653C1900.09 949.277 1903.66 951.305 1907.65 952.573C1911.63 953.842 1915.92 954.317 1920.16 953.96C1919.84 954.174 1914.78 963.629 1914.78 963.629C1914.78 963.629 1892.61 967.833 1892.23 977.188L1914.52 980.822L1939.01 977.57L1936.69 982.699L1896.99 1000.96C1896.99 1000.96 1902.5 1005.98 1937.26 1002.82L1945.81 1002.48L1953.89 1004.76L1965.16 1003.11L1978.14 1006.94L1959.21 1013.08L1945.54 1010.97L1931.59 1014.37L1908.56 1024.72L1894.35 1042.08L1900.52 1045.26L1938.31 1032.44L1985.02 1029.41L1994.27 1032.99L1972.38 1042.52L1937.27 1048.42L1919.54 1060.42L1935.08 1072.03L1922.26 1084.41L1911.81 1093.87L1928.16 1093.64L1952.32 1091.23L1973.44 1080.99L1991.41 1076.64L2008.64 1084.74L2032.62 1089.59L2032.94 1092.54L2024.65 1095.39L1977.79 1100.12L1971.41 1110.72L1945.39 1123.55L1930.13 1128.33L1913.74 1144.85L1967.8 1139.74L1997.31 1135.22L1987.21 1147.88L1946.52 1161.66L1929.02 1175.88L1924.07 1180.12C1924.07 1180.12 1928.44 1181.45 1942.68 1178.3C1943.31 1178.09 1959.76 1175.06 1959.76 1175.06L1971.66 1179.3L1981.14 1173.68C1981.14 1173.68 2021.58 1174.47 2031.23 1171.32L2023.56 1179.69L2008.41 1187.16C2008.41 1187.16 1967.17 1188.45 1944.38 1218.04C1945.02 1217.35 1948.18 1220.15 1948.18 1220.15L1974.29 1211.1L2004.13 1209.65L2026.35 1201.32L2054.6 1203.28L2044.1 1212.15L2025.09 1219.95L1995.08 1241.63L2005.77 1248.99L2044.6 1261.33L2078.22 1263.16L2078.84 1268.96L-193.316 1433.48L-238.293 1043.74Z" fill="white" fill-opacity="0.75"/>
</g>
</g>
<defs>
<clipPath id="clip0_338_8063">
<rect width="1921" height="500" fill="white" transform="matrix(-1 0 0 1 1921 0)"/>
</clipPath>
</defs>
</svg>
