<svg width="1921" height="381" viewBox="0 0 1921 381" fill="none" xmlns="http://www.w3.org/2000/svg">
<g clip-path="url(#clip0_338_8063)">
<mask id="mask0_338_8063" style="mask-type:luminance" maskUnits="userSpaceOnUse" x="-241" y="-588" width="2165" height="1902">
<path d="M-241 -588H1924V1313.03H-241V-588Z" fill="white"/>
</mask>
<g mask="url(#mask0_338_8063)">
<path d="M-112.008 -58.0603C-100.879 -50.5917 -93.5947 -39.8611 -91.6507 -28.0707L-96.5885 -30.0986C-85.3702 -29.8374 -75.7932 -25.0921 -67.8783 -18.7475C-59.9634 -12.4029 -53.7246 -4.05239 -44.8092 1.7427C-36.3574 7.21355 -24.486 7.42742 -16.7623 13.8574C-12.7447 17.1924 -10.9587 21.8816 -8.35004 25.9626C-5.38828 30.462 -1.9175 34.7157 2.01481 38.6659C11.0773 47.3879 21.0202 55.4467 31.7342 62.7536C35.328 65.332 27.2937 65.6752 25.2816 64.2465C8.27079 52.0244 -8.84485 39.3567 -18.776 22.1136C-21.2419 17.7599 -23.6323 14.1163 -29.068 11.9813C-33.5804 10.1851 -38.516 9.2543 -43.026 7.48168C-52.523 3.7563 -59.4717 -2.92067 -66.121 -9.47619C-73.4782 -16.7676 -82.613 -26.2442 -95.0292 -26.4664C-96.263 -26.4963 -99.7518 -27.0071 -99.967 -28.4943C-101.643 -39.5164 -108.303 -49.5967 -118.587 -56.6775C-122.256 -59.1551 -114.17 -59.5497 -112.134 -58.1704L-112.008 -58.0603Z" fill="white" fill-opacity="0.75"/>
<path d="M31.4706 68.3544C46.7079 64.1501 52.9773 78.1757 62.5129 84.6892C63.8722 85.5506 65.4264 86.1739 67.0816 86.5214C68.7369 86.8689 70.4586 86.9335 72.1435 86.7112C76.2778 86.6109 80.3818 87.3449 84.1054 88.8508C90.6624 91.5724 95.2353 96.6324 99.7422 101.339C104.249 106.046 108.921 111.767 116.214 113.338C121.309 114.424 126.646 114.276 131.647 115.823C135.373 116.969 138.696 118.878 141.309 121.373C151.995 131.715 148.409 147.528 158.397 158.302C168.964 169.679 189.699 170.348 205.187 173.353C222.074 176.553 238.054 182.47 252.229 190.772C281.734 207.719 304.495 231.237 331.328 250.787C344.953 260.579 359.891 269.023 375.844 275.95C391.017 282.723 407.49 289.879 417.453 302.039C419.822 304.991 421.737 308.178 423.155 311.526C424.411 314.464 415.937 314.172 414.793 311.487C408.854 297.605 393.597 289.502 378.881 282.719C363.441 275.584 348.188 268.864 334.308 259.707C306.996 241.576 284.904 218.701 257.669 200.492C244.86 191.556 230.218 184.624 214.454 180.03C198.361 175.637 180.952 175.299 165.53 169.14C158.127 166.412 151.96 161.785 147.928 155.935C144.127 150.056 142.736 143.43 140.911 137.026C139.306 131.346 137.369 124.425 131.226 121.029C127.268 118.787 122.182 118.869 117.623 118.245C113.419 117.736 109.389 116.5 105.789 114.618C100.006 110.964 94.9747 106.55 90.892 101.551C87.1448 97.5283 82.3697 91.9105 75.7058 91.415C71.1478 91.0771 66.902 91.79 62.4556 90.3467C59.4205 89.2985 56.6609 87.7639 54.3341 85.83C49.7057 82.1338 46.4201 77.3384 41.6105 73.8223C40.1549 72.7827 38.8356 71.9479 36.8902 72.4943C35.9087 72.7601 34.8628 72.8179 33.8469 72.6624C32.831 72.5069 31.8771 72.143 31.0715 71.6036C30.7537 71.4128 30.5065 71.1513 30.3587 70.8491C30.2109 70.5468 30.1685 70.2161 30.236 69.8949C30.3035 69.5737 30.4784 69.275 30.7405 69.0331C31.0026 68.7912 31.3412 68.616 31.7178 68.5274L31.4706 68.3544Z" fill="white" fill-opacity="0.75"/>
<path d="M138.968 124.929C156.927 126.945 175.013 129.619 187.887 141.163C194.497 147.077 200.246 153.507 207.252 159.106C214.738 165.009 222.814 170.37 231.392 175.13C232.941 175.972 230.215 176.169 229.613 176.165C227.627 176.207 225.663 175.796 223.935 174.978C209.402 166.859 196.355 157.029 185.202 145.794C179.565 140.143 173.8 134.907 165.633 131.849C157.68 129.265 149.325 127.645 140.823 127.037C140.01 126.929 135.853 126.586 135.778 125.614C135.703 124.641 138.155 124.821 138.968 124.929Z" fill="white" fill-opacity="0.75"/>
<path d="M-13.352 87.7251C-21.4924 98.1185 -22.0988 110.734 -20.225 122.716C-19.2462 128.966 -17.6475 135.124 -15.9378 141.25C-14.462 147.84 -11.9925 154.25 -8.58814 160.326C-4.76163 166.442 1.27445 170.728 7.15211 175.407C12.763 179.807 17.5559 184.879 21.3722 190.455C25.0523 195.987 27.7652 201.927 29.4282 208.096C29.6038 209.581 30.2291 211.004 31.2458 212.232C32.2624 213.46 33.637 214.453 35.24 215.118C38.7106 216.537 42.1993 217.858 45.4988 219.552C59.1984 226.621 70.0095 236.984 76.5036 249.271C77.3279 250.834 74.1944 251.514 72.994 251.529C72.0059 251.579 71.0212 251.389 70.1597 250.981C69.2983 250.574 68.5973 249.966 68.1423 249.233C61.9906 237.715 51.6342 228.105 38.551 221.772C32.5186 218.869 24.9798 217.411 22.2059 211.506C20.8382 208.599 20.4112 205.386 19.2632 202.392C18.0213 199.111 16.4283 195.929 14.5039 192.885C10.637 186.928 5.62688 181.537 -0.327877 176.927C-6.198 172.319 -12.1927 167.886 -16.0609 161.917C-19.5958 155.982 -22.1884 149.691 -23.773 143.201C-25.5161 137.03 -27.205 130.831 -28.2999 124.565C-30.6654 111.187 -30.393 97.0454 -21.2732 85.3645C-19.3794 82.9851 -11.2379 84.9958 -13.3805 87.7271L-13.352 87.7251Z" fill="white" fill-opacity="0.75"/>
<path d="M4.49402 69.2818C20.1715 92.9311 57.1981 103.632 65.8097 131.085C66.736 134.019 67.2013 137.041 67.1938 140.073C67.1626 143.821 65.4266 147.954 66.818 151.622C68.5014 154.69 70.9905 157.404 74.1011 159.563C77.6909 162.643 81.2719 165.731 84.8445 168.828L105.346 186.427C111.423 191.098 116.789 196.374 121.324 202.134C125.001 207.379 126.554 213.373 128.848 219.075C130.794 223.919 133.539 230.09 140.081 231.596C141.312 231.865 143.377 232.717 142.596 233.99C141.815 235.263 138.252 234.591 137.2 234.381C124.03 231.375 121.193 220.297 117.521 210.783C115.071 204.41 110.962 198.565 105.485 193.668C98.9223 187.655 91.9584 181.909 85.1547 176.057C78.3511 170.204 71.4546 164.287 64.6534 158.458C61.501 156.188 59.2533 153.172 58.2112 149.812C57.4831 146.191 58.877 142.608 58.8848 138.91C58.9674 124.329 46.7071 111.834 34.5258 102.507C20.9046 92.0193 5.44705 82.8335 -3.68846 69.0394C-4.88369 67.2176 3.28633 67.3416 4.62031 69.3919L4.49402 69.2818Z" fill="white" fill-opacity="0.75"/>
<path d="M-202.921 -136.875L-187.892 -157.047C-183.782 -162.545 -180.021 -168.9 -172.424 -171.477C-164.828 -174.055 -155.926 -173.507 -148.04 -173.1C-139.312 -172.694 -130.644 -171.629 -122.145 -169.918C-113.372 -168.167 -105.006 -165.386 -95.7637 -166.485C-87.2833 -167.48 -78.9388 -169.754 -70.2975 -169.235C-56.5587 -168.417 -45.2355 -161.508 -36.6349 -153.018C-27.5504 -144.015 -21.6688 -133.373 -14.0969 -123.521C-10.3934 -118.488 -5.89075 -113.896 -0.711758 -109.867C4.47854 -106.175 10.6408 -103.556 17.2723 -102.224C23.9617 -100.681 30.7547 -98.4293 34.1265 -93.0916C37.4983 -87.7539 37.2298 -81.3892 39.5216 -75.7109C43.9488 -64.7484 54.6412 -56.5058 64.2683 -48.5915C69.9004 -44.1569 75.1832 -39.4239 80.0836 -34.4222C85.4296 -28.3244 89.8446 -21.6968 93.2267 -14.6924C99.3533 -3.08964 108.306 14.3674 126.273 15.118C127.969 15.186 130.75 15.7719 131.132 17.4855C131.515 19.1992 129.197 20.0111 127.605 19.8401C113.23 19.235 101.723 11.4091 94.3478 1.51885C85.7068 -10.045 81.7901 -23.4775 71.35 -34.1954C62.8353 -42.9536 52.1785 -50.0539 43.4233 -58.6515C39.0754 -62.7764 35.4778 -67.4106 32.7463 -72.4055C29.9066 -77.8534 29.6132 -83.581 27.644 -89.1872C25.2139 -96.1675 18.4219 -97.0592 11.0699 -98.9123C4.6099 -100.541 -1.36729 -103.286 -6.47143 -106.969C-16.7199 -114.266 -23.4857 -124.344 -30.0234 -133.889C-36.561 -143.434 -44.1333 -154.097 -55.7246 -160.295C-61.4565 -163.507 -68.3529 -164.949 -75.2187 -164.37C-83.7393 -163.753 -91.8525 -161.186 -100.454 -161.326C-109.971 -161.472 -119.02 -164.753 -128.278 -166.23C-137.83 -167.861 -147.565 -168.62 -157.311 -168.493C-161.935 -168.771 -166.541 -167.793 -170.437 -165.706C-173.574 -163.2 -176.167 -160.26 -178.1 -157.016L-194.895 -134.332C-196.774 -131.81 -204.918 -133.845 -202.764 -136.744L-202.921 -136.875Z" fill="white" fill-opacity="0.75"/>
<path d="M37.1433 -89.756C47.3426 -79.6886 63.7845 -76.3229 74.4548 -66.6712C80.0336 -61.1682 84.4441 -54.9125 87.4956 -48.1744C91.4363 -40.4447 95.2377 -32.6811 99.1241 -24.9237L110.971 -1.2355C113.879 4.58901 116.757 14.7094 125.299 16.4525C132.552 17.9072 140.44 16.1911 147.818 17.2074C155.097 18.4636 161.87 21.2592 167.484 25.3252C174.788 30.235 181.201 35.6388 190.073 38.5984C199.837 41.8751 210.595 43.1953 220.836 45.0301C221.826 45.1969 225.005 45.7539 224.751 47.132C224.497 48.5101 221.106 48.1116 220.229 47.9366C202.402 44.7427 184.104 42.4895 169.565 32.5216C163.399 28.3642 157.64 22.9131 150.039 20.6009C142.912 18.4453 134.603 20.2396 127.193 19.4641C123.417 19.2462 119.761 18.2543 116.552 16.5765C113.343 14.8987 110.68 12.5871 108.799 9.84687C103.84 2.50104 100.63 -5.90168 96.7431 -13.6591L84.3524 -38.429C81.0511 -45.8648 77.0983 -53.089 72.526 -60.0433C67.319 -67.2996 59.82 -71.8852 51.2435 -76.1066C43.4506 -79.9554 35.4687 -83.6951 29.5556 -89.5167C27.4472 -91.5825 35.6273 -91.3637 37.1282 -89.898L37.1433 -89.756Z" fill="white" fill-opacity="0.75"/>
<path d="M16.8141 -21.3969C36.1155 -18.5961 52.194 -8.95429 65.1941 2.96181C79.7928 16.4558 90.711 32.4824 106.241 45.3126C113.993 51.7406 122.762 57.2362 129.777 64.2662C136.439 70.9401 141.779 78.3775 147.929 85.3508C153.453 91.7593 160.157 97.4007 167.793 102.066C174.821 106.111 182.087 109.86 189.564 113.299C205.225 120.896 221.707 129.22 229.628 143.436C230.473 144.925 222.384 144.748 221.359 142.914C214.316 130.495 200.748 122.937 187.026 116.083C173.305 109.228 158.165 102.763 147.122 92.5656C140.837 86.3245 135.034 79.7572 129.75 72.9033C123.654 65.5694 116.514 58.8774 108.486 52.9742C100.7 47.2761 93.4744 41.0667 86.8799 34.4057C80.2237 27.5168 74.1286 20.2532 67.6302 13.2335C54.6954 -0.7626 38.2601 -15.6503 16.3706 -18.8362C15.47 -18.9618 12.1749 -19.5343 12.4184 -20.7447C12.6619 -21.955 16.1433 -21.5153 16.8994 -21.4031L16.8141 -21.3969Z" fill="white" fill-opacity="0.75"/>
<path d="M96.7901 36.3597C115.242 51.1014 108.484 75.5879 123.273 91.9544C124.475 93.2987 122.599 94.2217 121.196 94.4903C120.179 94.6383 119.133 94.5719 118.154 94.2969C117.175 94.022 116.294 93.5473 115.591 92.9162C108.36 84.9239 106.083 74.8076 103.627 65.1576C101.171 55.5075 98.8638 45.1072 90.2637 38.2397C86.6656 35.3514 94.5648 34.5409 96.7875 36.336L96.7901 36.3597Z" fill="white" fill-opacity="0.75"/>
<path d="M297.324 16.8786C318.289 25.6417 329.071 43.8965 336.717 61.4482C340.674 71.4834 345.246 81.3435 350.416 90.9896C353.109 95.79 356.384 100.349 360.19 104.594C364.427 109.003 369.269 112.983 374.615 116.455C386.062 124.261 394.354 133.346 396.957 145.728C397.058 146.675 388.945 146.547 388.527 144.502C386.06 133.749 378.924 124.125 368.484 117.471C358.861 111.263 350.796 103.539 344.747 94.7396C333.368 77.339 329.077 57.4214 317.313 40.1679C311.002 30.8686 302.613 22.483 290.992 17.6232C289.465 16.9943 289.971 16.3613 291.314 16.0732C293.315 15.8824 295.341 16.1925 297.132 16.964L297.324 16.8786Z" fill="white" fill-opacity="0.75"/>
<path d="M390.516 158.647C393.524 169.449 387.992 179.606 385.094 190.05C382.104 200.736 382.237 211.868 385.48 222.511C388.677 232.942 395.738 241.758 400.701 251.56C402.97 256.102 404.369 260.91 404.848 265.811C405.295 270.025 405.467 275.141 409.749 278.004C411.225 278.97 410.739 280.317 409.165 280.861C408.18 281.102 407.14 281.147 406.129 280.993C405.119 280.838 404.165 280.488 403.346 279.97C401.475 278.591 399.952 276.914 398.868 275.039C397.784 273.163 397.161 271.126 397.034 269.049C396.649 264.055 395.576 259.115 393.839 254.323C389.425 244.028 381.632 235.051 377.96 224.463C374.319 213.897 373.656 202.777 376.025 191.971C378.462 180.964 385.481 169.984 382.325 158.596C381.495 155.626 389.935 156.136 390.668 158.731L390.516 158.647Z" fill="white" fill-opacity="0.75"/>
<path d="M458.327 181.098C474.428 189.33 490.559 197.585 506.362 206.245C521.161 214.357 535.257 223.927 551.081 230.63C559.29 234.09 568.097 236.435 576.538 239.378C583.321 241.75 589.891 244.527 596.195 247.687C608.019 253.807 619.272 260.663 629.856 268.197C651.465 283.02 672.098 299.703 697.657 309.684C704.318 312.245 711.241 314.299 718.343 315.82C726.535 317.309 734.53 319.471 742.211 322.274C753.127 327.016 762.64 333.727 770.056 341.917C788.143 360.764 798.472 384.443 819.905 401.116C823.678 404.039 815.878 405.51 813.287 403.48C794.164 388.619 783.485 368.377 768.927 350.682C762.353 342.06 753.778 334.619 743.706 328.797C730.748 321.863 715.066 320.804 700.949 316.149C674.702 307.506 653.227 291.791 631.97 276.775C621.412 269.126 610.361 261.963 598.866 255.318C593.132 252.087 587.162 249.157 580.991 246.545C573.475 243.416 565.533 241.129 557.758 238.519C538.887 232.228 523.112 221.944 506.346 212.567C488.887 202.858 471.024 193.656 453.142 184.55C451.66 183.799 450.788 182.335 452.299 181.2C453.194 180.751 454.22 180.516 455.265 180.52C456.311 180.524 457.335 180.768 458.226 181.224L458.327 181.098Z" fill="white" fill-opacity="0.75"/>
<path d="M536.326 196.799C548.609 203.951 561.504 210.345 574.905 215.928C581.613 218.599 588.615 220.72 595.813 222.262C602.369 223.624 609.15 224.684 614.745 228.048C620.34 231.412 624.228 236.497 628.418 240.917C633.352 246.142 638.395 251.311 643.499 256.523C653.449 266.489 663.673 276.253 674.172 285.813C686.375 296.873 698.968 307.649 711.95 318.144C713.236 319.195 711.054 319.401 710.14 319.42C708.134 319.546 706.134 319.112 704.456 318.185C682.255 300.121 661.098 281.202 640.986 261.428C635.94 256.498 631.001 251.488 626.115 246.451C621.23 241.414 616.895 236.169 611.73 231.462C606.117 226.311 599.152 225.408 591.472 223.698C584.66 222.162 578.007 220.17 571.578 217.743C556.725 211.802 542.481 204.855 528.988 196.973C527.378 196.088 530.2 195.716 530.799 195.697C532.798 195.63 534.776 196.06 536.483 196.931L536.326 196.799Z" fill="white" fill-opacity="0.75"/>
<path d="M441.186 126.162C447.798 130.741 458.235 127.957 466.016 127.656C475.883 127.376 485.588 129.837 493.605 134.652C512.537 145.388 530.509 157.257 547.377 170.165C563.328 182.106 577.607 196.101 595.269 206.367C604.238 211.586 614.236 214.368 624.245 217.794C632.992 221.005 641.15 225.233 648.475 230.352C654.618 234.297 661.609 238.681 669.665 236.38C675.666 234.681 680.293 230.553 684.313 226.636C692.481 218.65 700.111 207.769 713.22 205.079C717.517 204.378 721.942 204.427 726.218 205.222C730.494 206.017 734.528 207.54 738.066 209.696C747.636 214.919 756.348 221.492 765.281 227.453C782.805 239.113 800.823 250.308 815.448 264.587C821.513 270.943 827.986 277.02 834.84 282.792C838.195 285.507 841.886 287.918 845.85 289.985C850.31 292.01 854.944 293.755 859.713 295.208C868.492 298.402 875.898 303.749 880.946 310.535C886.387 317.297 890.757 324.757 898.171 330.16C901.42 332.817 905.621 334.515 910.133 334.995C911.658 335.076 914.654 335.527 915.042 337.025C915.43 338.524 912.935 339.015 911.611 338.944C902.298 338.243 893.681 334.524 887.615 328.587C880.997 322.602 876.819 315.056 871.188 308.665C868.323 305.167 864.638 302.188 860.356 299.908C855.617 297.603 850.197 296.421 845.293 294.439C836.984 290.829 829.527 285.994 823.285 280.169C816.623 274.306 810.732 267.887 804.169 261.874C796.291 254.762 787.726 248.202 778.56 242.259C769.111 235.93 759.635 229.619 750.132 223.326C745.481 220.228 740.88 217.054 736.182 214.055C732.424 211.238 727.858 209.276 722.927 208.359C709.525 206.944 699.994 220.945 692.743 228.125C688.776 232.489 683.747 236.104 677.986 238.735C674.556 240.065 670.834 240.791 667.05 240.868C663.267 240.945 659.504 240.371 655.996 239.183C647.516 236.409 640.992 231.037 633.742 226.648C625.179 221.472 614.893 219.211 605.313 215.778C585.285 208.569 570.459 195.091 555.008 182.733C538.184 169.265 520.378 156.676 501.691 145.039C493.6 139.995 484.106 132.525 473.643 131.565C464.455 130.751 455.349 133.39 446.139 132.101C441.97 131.559 438.049 130.097 434.785 127.866C433.393 126.893 433.753 125.698 435.355 125.153C436.341 124.917 437.379 124.875 438.389 125.029C439.398 125.184 440.352 125.531 441.174 126.044L441.186 126.162Z" fill="white" fill-opacity="0.75"/>
<path d="M715.874 211.208C715.946 212.963 716.547 214.675 717.623 216.185C718.699 217.696 720.215 218.957 722.03 219.851C725.66 221.425 730.113 221.317 733.8 222.887C740.78 225.816 744.946 231.621 748.64 237.031C756.98 250.139 770.014 260.761 785.926 267.417C787.422 268.024 788.254 269.395 786.844 270.404C785.434 271.412 782.462 270.912 780.936 270.283C764.18 263.409 750.382 252.384 741.436 238.722C739.555 235.755 737.407 232.913 735.008 230.218C732.362 227.284 728.462 225.311 724.12 224.709C715.714 223.17 708.199 218.705 707.389 211.083C707.053 207.911 715.456 208.614 715.73 211.195L715.874 211.208Z" fill="white" fill-opacity="0.75"/>
<path d="M803.313 282.641C808.153 288.326 816.814 289.845 824.071 292.421C831.176 294.981 837.628 298.652 843.079 303.234C854.498 312.665 862.803 324.563 875.829 332.684C877.393 333.668 874.725 334.148 873.959 334.203C871.95 334.309 869.955 333.848 868.296 332.896C855.022 324.602 846.657 312.398 834.827 302.878C828.983 298.238 822.031 294.677 814.427 292.428C807.141 290.117 799.612 287.68 795.051 282.19C794.073 281.068 797.793 281.061 798.309 281.071C799.234 281.049 800.154 281.182 801.016 281.464C801.877 281.746 802.661 282.171 803.32 282.712L803.313 282.641Z" fill="white" fill-opacity="0.75"/>
<path d="M444.799 283.576C453.404 294.26 468.355 298.401 482.512 301.813C497.201 305.377 512.857 308.347 525.595 315.917C541.849 325.593 548.149 341.787 560.942 353.909C572.566 364.995 587.898 372.734 603.661 378.869C620.34 385.27 637.725 390.238 654.645 396.216C673.345 402.698 690.998 411.109 707.19 421.252C723.882 432.049 738.875 444.556 751.814 458.477C765.442 472.805 777.844 487.984 792.106 501.813C798.967 508.472 806.649 514.238 813.763 520.592C820.371 526.483 826.245 533.286 827.433 541.501C828.687 550.618 825.509 559.769 825.362 568.892C825.172 583.056 828.944 597.067 836.378 609.815C838.405 613.27 830.143 613.63 828.635 611.02C818.999 594.594 815.2 576.22 817.687 558.069C818.991 548.791 820.865 539.758 814.841 531.273C809.719 524.01 801.758 518.575 794.8 512.615C764.641 486.817 744.154 454.261 711.108 430.653C695.214 419.31 677.456 409.92 658.375 402.769C641.624 396.491 624.21 391.526 607.368 385.47C591.237 379.649 575.342 372.809 562.044 362.942C555.229 357.78 549.286 351.87 544.38 345.376C538.899 338.235 534.212 330.488 527.141 324.273C505.037 304.786 467.502 309.508 444.102 291.832C441.374 289.746 438.961 287.389 436.917 284.815C434.409 281.681 442.744 281.196 444.658 283.586L444.799 283.576Z" fill="white" fill-opacity="0.75"/>
<path d="M420.418 245.887C430.468 258.776 442.294 270.641 455.656 281.24C469.128 291.289 485.038 298.802 502.3 303.267C519.432 308.014 537.2 311.999 551.824 321.15C565.844 330.011 576.232 341.853 588.072 352.542C599.293 362.79 613.02 370.915 628.324 376.367C643.878 381.488 659.837 385.704 676.087 388.987C692.095 392.255 707.739 396.661 722.849 402.156C737.295 408.054 750.658 415.641 762.535 424.687C790.934 445.507 814.723 471.694 847.181 488.427C851.937 490.897 845.596 493.98 842.023 492.14C812.772 477.035 790.351 454.304 765.583 434.795C754.084 425.233 741.2 416.903 727.231 409.997C712.572 403.21 696.33 399.043 680.251 395.317C648.628 388.065 615.249 381.799 590.302 362.757C577.064 352.647 566.867 340.17 553.733 329.957C540.068 319.33 523.455 314.354 505.788 309.694C495.928 307.252 486.31 304.176 477.02 300.494C468.148 296.683 459.858 291.997 452.326 286.538C436.83 275.375 424.112 261.53 412.595 247.407C411.409 245.943 413.235 244.546 414.829 244.192C415.862 243.989 416.945 244.049 417.938 244.364C418.93 244.679 419.787 245.235 420.397 245.96L420.418 245.887Z" fill="white" fill-opacity="0.75"/>
<path d="M198.214 272.328C226.946 294.937 256.894 318.745 271.142 350.227C278.583 366.386 281.458 383.758 290.666 399.312C298.345 412.329 310.573 422.632 323.645 431.99C336.22 440.979 349.571 449.196 361.263 459.036C374.043 469.343 383.392 482.238 388.392 496.455C394.114 513.144 395.246 530.81 403.149 547.007C411.051 563.204 424.384 577.172 436.13 591.564C463.363 624.849 478.61 663.032 493.266 701.044C494.404 703.944 485.922 703.58 484.928 700.956C471.735 666.75 458.348 632.058 435.343 601.401C424.503 586.919 411.389 573.652 401.554 558.668C396.772 551.469 393.012 543.832 390.35 535.911C387.55 527.336 385.872 518.536 383.8 509.812C382.03 501.093 379.041 492.575 374.894 484.432C371.426 478.242 366.961 472.474 361.624 467.288C350.944 456.73 337.679 448.244 324.959 439.505C312.239 430.765 299.778 421.767 290.4 410.543C278.95 397.06 274.179 380.707 268.774 365.116C265.758 355.703 261.614 346.565 256.403 337.84C251.362 329.89 245.473 322.333 238.807 315.26C224.856 300.312 208.299 287.246 191.812 274.294C188.128 271.412 196.031 270.363 198.403 272.219L198.214 272.328Z" fill="white" fill-opacity="0.75"/>
<path d="M197.905 294.749C200.265 350.373 234.835 399.92 255.328 451.654C260.645 464.75 264.776 478.158 267.688 491.765C270.766 506.737 272.009 521.937 275.002 536.916C278.004 551.377 283.348 565.435 290.889 578.703C297.955 591.335 305.754 603.866 309.746 617.46C319.029 649.087 306.395 682.109 317.099 713.632C317.951 716.266 309.54 715.754 308.775 713.4C299.306 685.151 308.39 655.892 303.804 627.265C301.556 613.115 294.869 600.003 287.605 587.123C280.341 574.243 273.032 560.936 269.2 546.687C265.22 531.851 263.835 516.661 261.552 501.631C259.267 487.634 255.645 473.81 250.721 460.289C241.085 433.698 227.508 408.274 215.542 382.377C202.346 353.801 191.143 324.317 189.826 293.593C189.574 291.226 198.256 292.124 198.256 294.819L197.905 294.749Z" fill="white" fill-opacity="0.75"/>
<path d="M-317.218 169.6L-269.528 173.184C-255.1 174.287 -240.281 174.764 -226.334 178.358C-212.386 181.952 -201.451 189.509 -190.295 197.003L-153.323 221.734C-142.198 229.206 -129.54 236.281 -120.852 245.861C-116.629 250.803 -112.853 255.999 -109.556 261.407L-98.4111 278.491C-83.121 301.906 -67.8552 325.362 -52.6136 348.86C-45.3394 359.951 -38.3624 371.206 -30.7032 382.149C-23.9818 391.538 -16.137 400.726 -4.00739 405.525C7.37699 410.044 19.9157 411.688 30.5888 417.595C39.3389 422.628 46.6232 429.234 51.9035 436.924C63.6212 453.203 68.8808 472.001 76.291 489.76C84.86 510.346 97.3228 529.6 110.807 548.232C137.411 585.021 169.154 620.341 184.075 662.198C185.834 667.175 187.371 672.216 188.542 677.308C188.622 678.065 180.607 678.049 180.109 676.058C169.647 633.878 139.9 597.674 112.863 561.656C98.9357 543.874 86.5896 525.266 75.9247 505.984C66.5013 488.131 61.1883 469.099 52.3203 451.087C48.3998 442.615 42.9643 434.685 36.1985 427.565C28.8413 420.239 19.1555 414.788 8.2549 411.841C-3.81661 408.397 -15.3291 405.367 -24.7272 397.722C-33.5764 390.395 -39.4591 381.089 -45.3709 372.047L-90.3442 303.24L-112.656 268.597C-119.508 257.977 -125.855 246.725 -136.591 238.342C-147.327 229.959 -159.65 222.526 -171.206 214.775C-182.762 207.025 -194.985 198.654 -207.039 190.797C-218.019 182.588 -232.055 177.782 -246.778 177.191C-261.855 175.897 -277.018 174.872 -292.137 173.724L-315.218 171.984C-316.086 171.904 -320.132 171.529 -320.241 170.511C-320.349 169.493 -317.904 169.602 -317.037 169.683L-317.218 169.6Z" fill="white" fill-opacity="0.75"/>
<path d="M929.446 341.946C967 346.095 1001.3 361.946 1025.43 386.307C1038.52 399.671 1046.85 416.338 1063.36 427.356C1078.39 437.36 1096.53 443.274 1112.02 452.768C1127.51 462.261 1137.33 475.41 1145.78 489.492C1154.23 503.575 1161.57 518.811 1174.06 531.05C1185.88 542.599 1201.86 550.315 1214.47 561.257C1220.81 566.594 1225.63 573.043 1228.59 580.13C1231.89 588.382 1233.08 597.408 1240.13 604.221C1246.49 610.225 1255.25 613.741 1263.44 617.538C1271.79 621.396 1279.63 625.968 1286.84 631.182C1302.08 642.174 1315.14 655.099 1325.54 669.48C1327.89 672.745 1330.11 676.091 1332.13 679.499C1333.39 681.65 1325.12 681.438 1323.8 679.243C1314.84 664.483 1303.04 651.035 1288.89 639.43C1282.06 633.697 1274.57 628.534 1266.53 624.017C1258.87 619.801 1250.41 616.645 1242.77 612.355C1234.99 608.26 1228.99 602.186 1225.68 595.034C1222.18 587.154 1221.08 578.67 1215.7 571.402C1206.35 558.554 1190.27 550.534 1177.07 540.803C1163.31 530.588 1154.15 517.941 1146.12 504.281C1138.08 490.622 1130.57 475.637 1118.01 463.903C1105.46 452.169 1087.42 445.341 1071.1 437.196C1063.19 433.355 1055.86 428.727 1049.29 423.413C1042.22 416.974 1035.97 409.934 1030.66 402.411C1020.64 388.732 1007.65 376.729 992.355 367.018C977.367 357.76 960.274 351.149 942.123 347.588C937.711 346.739 933.376 346.074 928.746 345.599C927.5 345.45 924.58 344.636 924.886 343.207C925.192 341.777 928.302 341.957 929.461 342.088L929.446 341.946Z" fill="white" fill-opacity="0.75"/>
<path d="M352.787 145.372C362.382 170.774 339.198 194.732 341.779 220.117C341.998 222.176 333.626 221.495 333.347 218.867C330.684 193.798 353.905 169.909 344.476 144.996C343.556 142.534 351.934 143.001 352.776 145.278L352.787 145.372Z" fill="white" fill-opacity="0.75"/>
<path d="M821.026 307.67L821.36 310.818C821.333 310.91 821.277 310.994 821.199 311.062C821.121 311.131 821.023 311.181 820.915 311.208C820.624 311.344 820.3 311.424 819.967 311.444C819.506 311.501 819.041 311.535 818.575 311.545C818.023 311.532 817.472 311.484 816.929 311.401L815.819 311.196C815.197 311.059 814.592 310.871 814.014 310.635L813.406 310.297C813.267 310.235 813.151 310.144 813.069 310.033C812.986 309.921 812.941 309.794 812.937 309.663L812.608 306.562C812.647 306.471 812.709 306.389 812.791 306.321C812.873 306.253 812.972 306.201 813.082 306.17C813.372 306.032 813.696 305.952 814.03 305.934C814.491 305.877 814.955 305.843 815.421 305.833C815.974 305.846 816.524 305.894 817.068 305.977L818.177 306.182C818.798 306.324 819.402 306.512 819.983 306.743L820.591 307.081C820.725 307.146 820.835 307.239 820.913 307.35C820.99 307.462 821.03 307.588 821.031 307.717L821.026 307.67Z" fill="white" fill-opacity="0.75"/>
<path d="M561.185 185.649C578.486 168.271 609.102 169.012 632.595 175.707C646.552 179.659 659.09 186.146 672.824 190.423C676.524 191.696 680.493 192.332 684.493 192.292C688.492 192.253 692.44 191.539 696.097 190.193C703.436 187.61 710.364 184.127 717.356 180.973L759.841 161.962C773.454 155.489 787.452 149.595 801.783 144.303C815.097 139.517 829.392 136.903 843.895 136.602C857.65 136.696 871.322 138.412 884.505 141.7C912.795 148.287 939.436 159.025 968.319 163.923C998.907 169.096 1030.39 169.311 1061.06 164.555C1088.61 160.175 1117.48 153.314 1144.54 163.425C1150.15 165.485 1155.3 168.341 1159.75 171.865C1164.15 175.866 1168.17 180.154 1171.75 184.688C1175.69 189.299 1181.07 192.914 1187.32 195.131C1193.62 197.322 1200.26 198.702 1206.63 200.745C1231.59 208.838 1252.68 223.078 1271.77 238.418C1294.17 256.404 1315.35 275.528 1336.96 294.168L1354.07 308.935C1355.42 310.101 1353.18 310.812 1352.08 310.916C1351.07 311.021 1350.05 310.948 1349.09 310.701C1348.12 310.455 1347.22 310.041 1346.46 309.486C1324.4 290.449 1302.34 271.365 1280.29 252.399C1261.81 236.563 1242.57 220.637 1219.24 209.756C1213.41 207.004 1207.33 204.637 1201.05 202.676C1194.92 200.734 1188.57 199.429 1182.54 197.29C1176.9 195.412 1171.82 192.521 1167.67 188.824C1163.39 184.888 1160.18 180.255 1156.19 176.13C1137.48 156.803 1105.43 161.175 1079.89 165.578C1050.51 170.614 1021.23 172.973 991.287 170.251C976.505 168.897 961.887 166.491 947.593 163.062C934.287 159.851 921.37 155.729 908.389 151.803C882.134 143.9 854.389 136.51 826.38 142.259C811.422 145.322 797.586 151.142 784.068 157.25C770.55 163.357 756.391 169.63 742.537 175.81L721.965 185.028C715.343 188.254 708.491 191.14 701.446 193.67C688.085 198.025 674.96 195.445 662.369 190.607C638.135 181.246 610.61 168.116 583.831 178.714C578.321 180.86 573.446 183.99 569.55 187.882C567.818 189.629 559.767 187.66 561.605 185.833L561.185 185.649Z" fill="white" fill-opacity="0.75"/>
<path d="M1272.18 238.03C1288.54 230.31 1308.29 232.243 1325.52 237.15C1343.5 242.289 1359.52 251.386 1377.69 255.962C1386.47 258.246 1395.75 258.894 1404.86 257.86C1414.03 256.886 1423.15 255.224 1432.45 256.029C1441 256.791 1449 259.946 1455.13 264.979C1461.13 269.792 1465.76 275.635 1471.8 280.469C1484.51 290.474 1501.73 295 1518.69 296.73C1527.37 297.676 1536.16 297.421 1544.85 298.343C1553.92 299.225 1562.28 302.867 1568.34 308.569C1578.88 318.063 1586.92 329.36 1597.34 339.054C1606.86 347.906 1618.69 356.591 1633.6 357.133C1641.8 357.47 1650.29 356.593 1658.21 358.93C1661.83 359.889 1665.03 361.746 1667.36 364.255C1669.52 367.377 1670.94 370.811 1671.55 374.375C1672.69 378.109 1674.65 380.854 1679.49 381.243C1683.8 381.599 1688.06 381.052 1692.42 381.714C1699.35 382.787 1709.59 387.889 1705.61 394.81L1699.88 391.789C1704.21 391.206 1708.64 391.463 1712.84 392.541C1717.03 393.619 1720.87 395.489 1724.06 398.006C1731.53 403.643 1735.01 411.335 1737.01 419.395C1739.13 428.044 1740.34 436.759 1743.7 445.151C1746.77 452.935 1751.17 460.312 1756.76 467.058C1763.1 474.595 1770.78 481.278 1779.55 486.876C1780.97 487.823 1780.58 488.996 1779 489.516C1778.02 489.741 1776.98 489.778 1775.97 489.624C1774.97 489.469 1774.01 489.128 1773.18 488.625C1755.1 477.098 1741.71 461.22 1734.81 443.146C1731 432.902 1730.59 421.984 1726.57 411.898C1723.41 403.945 1715.18 393.639 1703.57 395.577C1701.71 395.855 1696.51 394.848 1697.84 392.557C1699.51 389.646 1696.42 386.959 1693.41 385.841C1690.4 384.723 1685.71 385.301 1682.09 385.158C1675.04 384.857 1667.75 383.071 1664.62 377.286C1661.81 372.146 1662.93 364.576 1655.43 362.137C1649.14 360.087 1641.43 361.29 1634.84 360.956C1604.14 359.457 1586.46 336.597 1569.56 318.118C1564.8 312.928 1559.74 306.567 1552.49 303.729C1545.23 300.891 1535.33 301.727 1527.14 301.175C1510.73 299.978 1494.04 297.25 1479.56 290.522C1472.67 287.367 1466.44 283.299 1461.11 278.476C1455.75 273.592 1451.2 267.934 1444.82 263.888C1437.43 259.223 1428.77 259.396 1419.98 260.391C1411.18 261.386 1402.32 262.815 1393.34 262.32C1373.17 261.061 1355.4 252.711 1337.5 245.633C1319.61 238.556 1297.75 232.41 1279.26 241.096C1278.35 241.438 1277.36 241.598 1276.36 241.563C1275.36 241.527 1274.39 241.298 1273.52 240.892C1272.38 240.378 1270.77 238.968 1272.54 238.124L1272.18 238.03Z" fill="white" fill-opacity="0.75"/>
<path d="M1164.78 176.939C1169.76 184.212 1169.64 192.832 1168.5 200.882C1167.16 210.092 1164.34 219.145 1163.14 228.368C1162.5 232.445 1162.49 236.574 1163.1 240.656C1164.55 246.521 1167.14 252.151 1170.77 257.323C1177.05 267.351 1181.39 278.138 1183.64 289.287C1184.63 295.098 1185.13 300.961 1185.13 306.83C1184.78 312.492 1186.94 318.067 1191.2 322.492C1195.14 326.429 1200.04 329.677 1204.22 333.477C1208.53 337.357 1212.42 341.545 1215.85 345.993C1222.55 354.934 1227.46 364.722 1230.38 374.974C1233.44 384.985 1236.7 394.625 1245.58 402.212C1261 415.407 1284.65 421.662 1295.25 438.714C1295.97 439.878 1288.07 439.854 1287 438.119C1277.44 422.733 1256.71 416.195 1241.77 405.207C1233.55 399.219 1227.62 391.353 1224.72 382.587C1221.09 372.187 1218.38 361.983 1212.28 352.31C1206.16 342.883 1198.22 334.359 1188.77 327.082C1184.24 323.99 1180.64 320.061 1178.25 315.606C1175.92 310.36 1176.73 304.552 1176.49 299.036C1175.88 287.183 1172.71 275.516 1167.11 264.602C1162.03 254.76 1154.53 245.857 1154.29 234.782C1154.08 224.683 1157.31 214.692 1159.24 204.797C1161.1 195.43 1162.48 184.977 1156.59 176.364C1155.87 175.294 1163.68 175.254 1164.84 176.959L1164.78 176.939Z" fill="white" fill-opacity="0.75"/>
<path d="M1154.77 469.639C1147.35 449.876 1161.09 429.464 1153.36 409.7C1149.41 399.514 1141.8 390.595 1135.63 381.286C1122.32 361.18 1112.24 339.712 1105.63 317.429C1105.02 315.446 1113.33 316.061 1113.9 317.928C1120.1 338.795 1129.35 358.954 1141.43 377.955C1147.44 387.419 1154.97 396.344 1159.89 406.269C1164.14 415.634 1165.37 425.76 1163.47 435.637C1161.82 447.087 1158.8 458.827 1163.04 470.137C1163.76 472.041 1155.49 471.543 1154.77 469.662L1154.77 469.639Z" fill="white" fill-opacity="0.75"/>
<path d="M1096.75 281.504C1094.95 271.695 1093.15 261.886 1091.36 252.076L1093.1 253.31C1082.29 248.884 1073.49 241.663 1068.02 232.727C1066.87 230.83 1075.08 231.024 1076.32 233.08C1078.64 236.967 1081.69 240.523 1085.34 243.615C1089.24 246.633 1093.56 249.244 1098.22 251.389C1100.46 252.563 1100.17 255.804 1100.53 257.829L1101.97 265.692C1102.97 271.082 1103.94 276.475 1104.95 281.865C1105.39 284.409 1097 283.608 1096.64 281.512L1096.75 281.504Z" fill="white" fill-opacity="0.75"/>
<path d="M958.569 351.526L954.865 316.657C954.332 311.638 952.869 305.948 954.316 300.977C956.189 296.24 958.67 291.685 961.716 287.393C972.332 269.592 983.396 251.688 989.705 232.41C993.343 221.716 994.974 210.615 994.538 199.499C994.307 197.322 1002.97 198.078 1002.97 200.726C1003.93 220.598 997.065 239.725 987.793 257.786C983.214 266.681 978.07 275.379 972.924 284.053C970.203 288.615 967.39 293.113 964.79 297.738C961.879 302.934 962.23 307.584 962.795 313.173L967.002 352.776C967.223 354.859 958.85 354.177 958.569 351.526Z" fill="white" fill-opacity="0.75"/>
<path d="M840.854 288.487C838.126 266.727 843.414 244.802 856.015 225.631C857.127 223.976 864.891 226.205 864.447 226.881C851.834 246.049 846.545 267.977 849.287 289.737C849.375 290.565 841.079 290.331 840.854 288.487Z" fill="white" fill-opacity="0.75"/>
<path d="M1375.95 321.711C1388.74 333.408 1402.47 344.369 1417.04 354.517C1424.28 359.399 1431.98 363.779 1440.07 367.616C1447.75 371.21 1455.79 374.468 1462.34 379.481C1473.68 388.201 1478.54 400.563 1483.18 412.393C1488.05 424.85 1493.25 437.164 1504.73 446.614C1517.77 457.311 1534.83 464.043 1546.33 476.139C1547.2 477.078 1543.55 476.913 1543.12 476.92C1541.65 476.812 1539.1 476.543 1538.1 475.471C1527.63 464.469 1512.45 457.91 1500.06 448.718C1487.66 439.525 1481.75 428.837 1476.76 416.388C1471.97 404.45 1467.97 391.549 1457.71 381.987C1451.36 376.101 1443.02 372.507 1434.9 368.754C1427.07 365.139 1419.59 361.04 1412.5 356.492C1396.19 346.008 1381.9 333.518 1367.73 321.09C1366.75 320.231 1370.71 320.302 1370.91 320.311C1372.74 320.309 1374.51 320.818 1375.95 321.759L1375.95 321.711Z" fill="white" fill-opacity="0.75"/>
<path d="M1973.9 -94.4228C1931.58 -80.7214 1894.78 -57.3362 1867.73 -26.9572C1854.26 -11.3077 1843.25 5.71452 1834.96 23.6963C1830.54 32.7468 1825.43 41.7521 1817.62 49.0208C1810.42 55.2645 1802.01 60.4535 1792.74 64.3708C1771.82 73.8051 1748.07 79.7945 1730.75 93.9542C1729.11 95.289 1721.5 93.1683 1722.74 92.1484C1738.05 79.7331 1758.42 73.4872 1777.48 65.6665C1787.26 61.9301 1796.38 57.0968 1804.58 51.3007C1813.2 44.5312 1819.9 36.2486 1824.21 27.0507C1828.97 17.9991 1832.95 8.76636 1838.33 -0.0443391C1853.66 -25.1235 1875.11 -47.2432 1901.33 -64.9801C1921.02 -78.3667 1943.15 -89.059 1966.88 -96.6577C1968.81 -97.0478 1970.84 -96.8927 1972.65 -96.2168C1973.45 -95.9409 1975.64 -94.9784 1973.82 -94.3929L1973.9 -94.4228Z" fill="white" fill-opacity="0.75"/>
<path d="M1897.68 57.7509C1860.35 72.7399 1820.78 83.4991 1780.01 89.7428C1740.58 95.7228 1698.86 95.2373 1661.67 108.593C1630.65 119.736 1606.83 140.902 1591.15 165.486C1583.23 177.941 1577.28 191.201 1573.45 204.934C1571.75 212.39 1569.41 219.733 1566.45 226.909C1563.78 232.573 1559.78 237.731 1554.67 242.075C1544.18 251.159 1530.49 256.922 1517.8 263.589C1505.6 270.006 1493.26 277.723 1489.1 289.784C1488 292.94 1479.59 291.617 1480.67 288.534C1488.6 265.966 1518.68 258.111 1539.02 245.14C1544.26 241.943 1548.88 238.102 1552.72 233.748C1557.71 227.272 1561.1 220.027 1562.68 212.44C1566.13 198.488 1571.29 184.869 1578.08 171.799C1591.79 146.69 1613.42 124.299 1642.18 110.29C1676.94 93.4604 1718.09 92.0553 1757.12 87.6551C1804.15 82.1974 1849.86 70.6875 1892.62 53.5369C1896 52.1714 1902.58 55.8935 1897.85 57.7859L1897.68 57.7509Z" fill="white" fill-opacity="0.75"/>
<path d="M1985.08 107.79C1971.78 157.773 1918.5 189.874 1884.5 229.572C1875.83 239.468 1868.62 250.202 1863.03 261.541C1857.4 273.799 1853.88 286.663 1852.58 299.748C1849.45 327.121 1853.13 354.572 1853.76 382.007C1854.4 411.182 1851.2 441.399 1830.72 466.044C1829.35 467.694 1822.05 465.24 1822.28 464.794C1840.45 442.916 1845.14 416.456 1845.4 390.365C1845.67 362.937 1841.7 335.53 1843.33 308.099C1843.9 294.817 1846.46 281.649 1850.96 268.903C1855.51 257.174 1861.95 246.019 1870.11 235.743C1886.44 214.666 1907.62 196.625 1927.22 177.697C1948.9 156.806 1969.33 134.097 1976.62 106.566C1977.01 105.13 1985.4 106.503 1985.05 107.792L1985.08 107.79Z" fill="white" fill-opacity="0.75"/>
<path d="M1873.67 248.819C1858.3 281.706 1873.63 316.878 1887.35 348.207C1894.93 365.739 1902.24 383.292 1907.85 401.349C1919.93 440.233 1925.95 480.245 1925.76 520.396C1925.75 522.448 1917.3 521.629 1917.35 519.144C1917.5 481.012 1912.02 443.002 1901.04 405.969C1895.53 387.783 1888.85 369.857 1881.02 352.267C1873.88 335.943 1866.5 319.565 1862.23 302.532C1857.66 284.233 1857.07 265.217 1865.29 247.565C1866.4 245.267 1874.61 246.891 1873.73 248.815L1873.67 248.819Z" fill="white" fill-opacity="0.75"/>
<path d="M1818.12 242.632C1811.08 242.554 1804.1 243.636 1797.58 245.816C1791.05 247.996 1785.1 251.23 1780.09 255.333C1771.02 262.692 1766.43 272.566 1760.53 281.676C1755.32 289.734 1748.61 297.687 1737.64 300.58C1723.72 304.236 1707.51 298.993 1695.14 306.543C1684.71 312.904 1678.78 324.092 1665.66 327.26C1663.73 327.629 1661.71 327.475 1659.89 326.819C1659.21 326.583 1656.88 325.439 1658.72 324.996C1670.67 322.127 1676.61 311.774 1685.75 305.673C1690.86 302.274 1697.09 300.243 1703.62 299.847C1711.29 299.292 1719.1 300.133 1726.75 299.079C1739.67 297.308 1747.16 288.393 1752.87 279.368C1758.58 270.343 1763.29 260.724 1772.17 253.521C1777.78 249.055 1784.41 245.561 1791.66 243.239C1798.91 240.917 1806.64 239.813 1814.4 239.991C1815.88 239.884 1819.08 240.081 1820.06 241.251C1821.04 242.42 1819.52 242.649 1818.2 242.626L1818.12 242.632Z" fill="white" fill-opacity="0.75"/>
<path d="M1557.37 234.342C1570.55 231.002 1578.21 220.715 1585.01 211.444C1591.81 202.173 1599.59 192.355 1612.27 187.787C1617.96 185.774 1624.26 185.276 1630.32 186.361C1633.48 186.917 1636.54 187.862 1639.37 189.164C1641.62 190.146 1645.23 192.819 1647.83 192.822C1650.87 192.84 1653.67 189.87 1655.47 188.166C1657.56 186.082 1659.94 184.219 1662.57 182.618C1667.71 179.854 1673.48 178.022 1679.52 177.241C1694.87 174.936 1710.84 177.048 1725.91 173.476C1727.85 173.125 1729.87 173.288 1731.69 173.94C1732.37 174.154 1734.69 175.297 1732.88 175.739C1719.62 178.846 1705.9 178.002 1692.33 178.985C1685.61 179.24 1679.04 180.65 1673.02 183.126C1670.36 184.35 1667.94 185.9 1665.84 187.725C1663.68 189.976 1661.21 192.012 1658.5 193.791C1653.41 196.545 1646.73 195.621 1641.49 193.734C1635.53 191.565 1630.68 187.36 1623.79 188.766C1609.76 191.38 1600.86 202.496 1593.97 211.941C1586.65 222.012 1578.68 232.965 1564.39 236.577C1562.46 236.943 1560.44 236.788 1558.62 236.136C1557.93 235.899 1555.61 234.803 1557.45 234.336L1557.37 234.342Z" fill="white" fill-opacity="0.75"/>
<path d="M1845.36 318.328C1848.2 318.123 1852.09 318.867 1852.18 321.627C1851.97 323.826 1851.22 325.965 1849.99 327.917C1846.73 334.701 1842.01 340.929 1836.06 346.291C1832.54 349.265 1828.29 351.624 1824.51 354.283C1819.94 357.545 1815.62 361.045 1811.57 364.762C1803.6 371.799 1797.7 380.286 1794.34 389.553C1793.97 390.63 1791.99 390.797 1790.89 390.734C1780.56 390.033 1770.19 391.489 1760.72 394.97C1759.77 395.281 1758.76 395.42 1757.74 395.379C1756.72 395.337 1755.73 395.115 1754.82 394.728C1753.89 394.319 1751.94 392.862 1753.81 392.178C1764.98 388.107 1777.19 386.404 1789.34 387.22L1785.92 388.398C1791.54 371.747 1806.29 359.205 1822.05 348.617C1828.48 344.387 1833.84 339.135 1837.81 333.164C1839.69 330.473 1841.3 327.66 1842.64 324.751C1843.09 323.775 1843.45 322.768 1843.69 321.741C1844.39 318.637 1842.09 322.501 1849.11 322.088C1847.46 322.207 1844.46 321.948 1843.49 320.611C1842.52 319.274 1843.96 318.62 1845.47 318.511L1845.36 318.328Z" fill="white" fill-opacity="0.75"/>
<path d="M188.457 71.3482C198.852 54.1601 222.863 48.2232 240.053 37.0791C244.508 34.2691 248.435 30.9218 251.706 27.147C255.11 23.0839 256.829 18.2601 260.264 14.2186C268.36 4.75867 281.888 11.9373 291.397 15.7811C304.215 20.6564 316.41 26.5986 327.797 33.517C338.738 40.4701 347.796 49.2679 354.38 59.3346C361.215 69.7888 366.825 81.3812 377.621 89.5209C383.799 93.7597 390.464 97.48 397.519 100.628C403.822 103.749 409.96 107.106 415.932 110.697C429.748 119.028 442.465 128.559 453.869 139.127C464.917 149.372 474.861 161.08 489.885 167.53C491.685 168.306 487.555 168.223 486.745 167.876C475.019 162.833 466.167 154.672 457.679 146.437C448.076 136.914 437.564 128.054 426.245 119.945C414.784 112.029 402.542 104.936 389.648 98.7404C383.503 95.9344 377.773 92.5385 372.574 88.6221C368.148 84.9354 364.328 80.7761 361.215 76.2532C354.254 66.4999 349.227 55.8194 340.612 46.9254C331.551 38.0462 320.616 30.6237 308.349 25.0257C302.322 22.1702 296.32 19.5515 290.33 17.0511C284.34 14.5507 273.828 8.5373 267.642 12.277C262.907 15.1245 261.065 20.4105 258.384 24.5405C255.961 28.2349 252.848 31.5842 249.163 34.4634C231.733 48.2012 204.107 53.2547 192.699 71.9475C192.164 72.8449 188.192 71.8206 188.482 71.3225L188.457 71.3482Z" fill="white" fill-opacity="0.75"/>
<path d="M5.77327 51.4178C4.02829 55.5484 3.07868 59.8842 2.95941 64.2643C3.03484 64.9744 1.16121 64.8477 0.668319 64.7879C0.175428 64.7282 -1.26406 64.3792 -1.2568 63.6392C-1.12391 59.2603 -0.17468 54.9264 1.55708 50.7928C1.82749 50.1053 3.15175 50.1764 3.82008 50.2712C4.48841 50.3659 6.04621 50.754 5.77327 51.4178Z" fill="white" fill-opacity="0.75"/>
<path d="M22.3066 62.9112C21.9934 67.1481 21.662 71.3943 21.3126 75.6497C21.4031 76.5019 19.7375 76.718 18.9531 76.6078C18.4649 76.5792 18.0061 76.402 17.6638 76.1102C17.3215 75.8183 17.1196 75.4321 17.0964 75.0247C17.4466 70.7772 17.7683 66.5317 18.1184 62.2842C18.1699 61.4217 19.6935 61.216 20.478 61.3261C20.9637 61.3553 21.4197 61.5335 21.7574 61.8263C22.0951 62.1191 22.2909 62.5056 22.3066 62.9112Z" fill="white" fill-opacity="0.75"/>
<path d="M36.6042 71.4178C36.2835 76.2118 35.9912 81.0038 35.6704 85.7979C35.7484 86.5317 31.3819 86.1084 31.4567 85.1965C31.7775 80.4024 32.0698 75.6105 32.3905 70.8164C32.3126 70.0826 36.6791 70.5059 36.6067 71.4415L36.6042 71.4178Z" fill="white" fill-opacity="0.75"/>
<path d="M64.4222 86.7692C61.8211 92.8453 61.3382 99.4137 63.029 105.715C63.4991 107.446 59.2501 107.324 58.826 105.757C57.0608 99.2384 57.5393 92.4401 60.206 86.1442C60.4033 85.7813 60.7503 85.4897 61.1843 85.3225C61.6183 85.1554 62.1104 85.1238 62.5706 85.2336C63.2673 85.3262 64.7653 85.9572 64.4222 86.7692Z" fill="white" fill-opacity="0.75"/>
<path d="M86.1605 106.044C84.8457 110.91 83.5591 115.774 82.2443 120.64C81.8998 121.977 77.6811 121.328 78.0306 120.039C79.3455 115.172 80.632 110.309 81.9468 105.443C82.2913 104.106 86.5126 104.778 86.1605 106.044Z" fill="white" fill-opacity="0.75"/>
<path d="M97.2054 121.107L96.2399 133.844C96.3178 134.578 91.9513 134.154 92.0236 133.219L92.9888 120.482C92.9109 119.748 97.2777 120.172 97.2054 121.107Z" fill="white" fill-opacity="0.75"/>
<path d="M112.457 137.512L111.411 148.68C111.489 149.414 107.122 148.99 107.194 148.055L108.24 136.887C108.162 136.153 112.529 136.576 112.457 137.512Z" fill="white" fill-opacity="0.75"/>
<path d="M284.353 253.926C288.641 256.573 287.947 260.822 286.633 264.614C284.335 271.364 282.027 278.107 279.709 284.843L266.09 324.759C265.543 326.349 261.353 325.698 261.874 324.134C265.926 312.343 269.957 300.537 273.967 288.717L279.902 271.304C280.886 268.441 282.157 265.582 282.823 262.695C283.454 260.551 284.307 257.269 281.785 255.614C279.262 253.96 282.66 252.808 284.456 253.823L284.353 253.926Z" fill="white" fill-opacity="0.75"/>
<path d="M305.16 273.602C305.941 272.066 308.726 272.413 310.268 272.922C314.183 274.213 311.23 277.933 310.114 280.089C306.22 287.749 302.954 295.62 300.338 303.649C295.056 319.887 292.418 336.645 292.494 353.476C292.567 354.162 288.262 353.782 288.277 352.851C288.178 332.457 292.077 312.192 299.821 292.857C301.116 289.686 302.495 286.509 303.968 283.396C304.737 281.743 305.565 280.108 306.305 278.456C306.638 277.812 307.026 277.164 307.328 276.498C307.625 276.039 307.824 275.54 307.915 275.024C307.847 274.385 308.331 274.088 309.283 274.162C308.806 275.055 304.758 274.132 305.067 273.537L305.16 273.602Z" fill="white" fill-opacity="0.75"/>
<path d="M336.894 281.895C329.38 311.66 308.378 339.731 311.385 371C311.581 372.847 307.33 372.701 307.185 371.066C304.146 339.488 325.109 311.326 332.678 281.27C333.101 279.593 337.317 280.218 336.894 281.895Z" fill="white" fill-opacity="0.75"/>
<path d="M351.099 311.352C344.95 342.013 338.105 372.596 330.565 403.103C330.226 404.487 326.007 403.838 326.352 402.501C333.876 372.028 340.72 341.436 346.883 310.727C347.14 309.373 351.354 309.974 351.099 311.352Z" fill="white" fill-opacity="0.75"/>
<path d="M369.897 338.783C365.805 354.155 361.812 369.552 357.917 384.973C354.059 399.851 350.516 414.993 352.739 430.265C352.82 431.023 348.703 430.796 348.523 429.64C346.3 414.368 349.843 399.226 353.701 384.348C357.678 368.984 361.672 353.587 365.68 338.158C365.944 337.137 370.168 337.833 369.897 338.783Z" fill="white" fill-opacity="0.75"/>
<path d="M384.797 378.828C377.812 401.968 373.157 425.556 370.88 449.347C370.953 450.034 366.592 449.658 366.664 448.722C368.941 424.931 373.596 401.343 380.581 378.203C380.839 377.398 385.009 378.121 384.797 378.828Z" fill="white" fill-opacity="0.75"/>
<path d="M297.958 181.283C297.098 186.116 296.124 190.957 295.406 195.78C295.104 197.519 290.89 196.918 291.192 195.179C292.052 190.346 293.026 185.504 293.745 180.681C294.046 178.942 298.263 179.567 297.961 181.307L297.958 181.283Z" fill="white" fill-opacity="0.75"/>
<path d="M289.238 173.828L284.563 183.708C284.262 184.373 282.966 184.3 282.296 184.182C281.625 184.063 280.043 183.725 280.347 183.083L285.022 173.202C285.323 172.537 286.619 172.61 287.29 172.728C287.961 172.847 289.513 173.187 289.238 173.828Z" fill="white" fill-opacity="0.75"/>
<path d="M280.785 171.84L280.208 172.072C280.009 172.087 280.52 172.05 280.208 172.072L279.908 172.213L278.972 172.83C278.904 172.884 278.843 172.945 278.791 173.01C278.444 173.25 278.791 173.01 278.791 173.01L278.429 173.37C278.159 173.638 277.922 173.927 277.719 174.233L277.447 174.634L277.304 174.907L277.316 175.025C277.316 175.025 277.336 175.214 277.344 175.285C277.281 175.437 277.23 175.592 277.193 175.75C277.097 176.084 277.028 176.424 276.986 176.766C277.004 176.932 277.021 177.098 277.036 177.24C277.052 177.382 277.009 176.979 277.036 177.24L277.067 177.524C277.152 178.329 276.165 178.734 275.277 178.727C274.72 178.721 274.175 178.596 273.693 178.364C273.358 178.174 272.899 177.897 272.861 177.542C272.685 175.897 273.126 174.247 274.122 172.82C275.119 171.394 276.623 170.261 278.426 169.577C278.912 169.422 279.439 169.38 279.952 169.456C280.465 169.532 280.943 169.724 281.334 170.011C281.497 170.114 281.623 170.253 281.697 170.411C281.772 170.57 281.793 170.743 281.757 170.91C281.722 171.078 281.632 171.234 281.497 171.362C281.362 171.49 281.187 171.584 280.992 171.634L280.785 171.84Z" fill="white" fill-opacity="0.75"/>
<path d="M267.265 164.47C265.524 166.671 263.783 168.872 262.012 171.052C261.864 171.277 261.211 171.325 260.955 171.343C260.407 171.371 259.857 171.314 259.334 171.174C258.834 171.044 257.565 170.682 258.044 170.075L263.269 163.495C263.446 163.267 264.099 163.22 264.326 163.203C264.883 163.173 265.442 163.229 265.975 163.37C266.447 163.503 267.716 163.864 267.265 164.47Z" fill="white" fill-opacity="0.75"/>
<path d="M252.762 162.92L248.985 163.193C248.43 163.255 247.866 163.205 247.338 163.05C246.884 162.943 246.481 162.723 246.183 162.418C246.065 162.31 245.993 162.173 245.977 162.027C245.962 161.882 246.004 161.736 246.098 161.613C246.234 161.479 246.401 161.369 246.589 161.289C246.778 161.21 246.983 161.163 247.194 161.152L250.971 160.878C251.523 160.82 252.084 160.861 252.615 160.998C253.08 161.112 253.493 161.34 253.801 161.652C253.915 161.761 253.985 161.898 254 162.043C254.016 162.187 253.976 162.332 253.887 162.456C253.751 162.591 253.583 162.701 253.395 162.78C253.207 162.859 253.001 162.906 252.791 162.917L252.762 162.92Z" fill="white" fill-opacity="0.75"/>
<path d="M234.832 161.165C232.56 161.329 231.399 159.028 234.183 158.826C236.483 158.66 237.644 160.961 234.832 161.165Z" fill="white" fill-opacity="0.75"/>
<path d="M330.62 37.4631L325.787 45.8518C325.453 46.4724 324.211 46.3715 323.543 46.2768C323.031 46.2049 322.54 46.0544 322.094 45.8331C321.911 45.727 321.454 45.4738 321.571 45.2268L326.407 36.8617C326.741 36.2411 327.98 36.3184 328.651 36.4368C329.161 36.5006 329.651 36.643 330.098 36.8569C330.269 36.8445 330.74 37.2398 330.62 37.4631Z" fill="white" fill-opacity="0.75"/>
<path d="M344.651 47.2292C342.57 52.1507 340.676 57.2257 338.573 62.2203C338.277 62.9335 337.015 62.9056 336.287 62.7913C335.56 62.6771 334.087 62.2828 334.386 61.5932C336.467 56.6717 338.359 51.5731 340.464 46.6021C340.76 45.8889 342.022 45.9168 342.747 46.0074C343.472 46.098 344.95 46.5396 344.651 47.2292Z" fill="white" fill-opacity="0.75"/>
<path d="M359.403 67.8208L349.723 82.0469C348.982 83.1502 344.88 82.2545 345.769 80.9258L355.449 66.6998C356.19 65.5965 360.292 66.4922 359.403 67.8208Z" fill="white" fill-opacity="0.75"/>
<path d="M367.998 78.4099C363.088 83.5477 359.161 89.2873 356.354 95.4262C355.982 96.2403 351.904 95.2952 352.14 94.8248C354.99 88.59 358.986 82.7639 363.986 77.5555C364.605 76.9143 368.487 77.8974 367.998 78.4099Z" fill="white" fill-opacity="0.75"/>
<path d="M383.349 94.1394C376.021 98.7014 369.344 106.174 369.123 114.062C369.088 115.352 364.859 114.872 364.907 113.437C365.217 109.29 366.858 105.291 369.658 101.857C372.391 98.2861 375.867 95.1507 379.923 92.5984C381.131 91.8431 385.041 93.0866 383.349 94.1394Z" fill="white" fill-opacity="0.75"/>
<path d="M404.38 104.329C398.988 111.885 394.807 119.999 391.946 128.463C391.654 129.486 387.459 128.788 387.73 127.838C390.603 119.377 394.783 111.265 400.163 103.704C400.827 102.678 404.823 103.653 404.38 104.329Z" fill="white" fill-opacity="0.75"/>
<path d="M413.98 118.996C410.921 126.119 407.859 133.219 404.795 140.295C404.267 141.526 400.108 140.634 400.581 139.693C403.64 132.57 406.702 125.47 409.766 118.394C410.294 117.164 414.453 118.055 413.98 118.996Z" fill="white" fill-opacity="0.75"/>
<path d="M429.569 129.15C424.263 135.369 420.836 142.564 419.577 150.126C419.293 151.768 415.079 151.167 415.363 149.524C416.661 141.736 420.182 134.323 425.631 127.909C426.727 126.637 430.764 127.728 429.569 129.15Z" fill="white" fill-opacity="0.75"/>
<path d="M444.29 143.518L438.875 161.514C438.601 162.441 434.403 161.719 434.658 160.889C436.454 154.891 438.278 148.891 440.076 142.917C440.35 141.99 444.535 142.594 444.29 143.518Z" fill="white" fill-opacity="0.75"/>
<path d="M453.816 156.95L454.99 168.005C455.078 168.833 454.091 169.239 453.203 169.231C452.315 169.224 450.875 168.875 450.785 168.023L449.613 156.992C449.525 156.163 450.481 155.736 451.398 155.741C452.314 155.747 453.725 156.098 453.816 156.95Z" fill="white" fill-opacity="0.75"/>
<path d="M470.236 170.622C469.759 171.124 469.374 171.682 469.095 172.279L469.262 171.957C468.917 172.732 468.743 173.553 468.746 174.38L468.708 174.024C468.722 174.421 468.764 174.816 468.834 175.208C468.837 175.39 468.857 175.572 468.892 175.752C468.892 175.752 468.932 176.131 468.91 175.918L468.93 176.108C469.05 176.247 469.124 176.41 469.142 176.581C469.16 176.752 469.122 176.924 469.033 177.078C468.904 177.232 468.739 177.363 468.548 177.463C468.357 177.563 468.144 177.63 467.921 177.659C467.371 177.756 466.799 177.714 466.277 177.54C465.798 177.417 465.391 177.148 465.138 176.788C464.457 175.599 464.183 174.278 464.347 172.969C464.511 171.661 465.107 170.416 466.068 169.373C466.413 169.053 466.873 168.834 467.38 168.75C467.887 168.666 468.414 168.721 468.88 168.907C469.355 169.038 469.758 169.305 470.019 169.66C470.14 169.794 470.213 169.954 470.231 170.121C470.249 170.289 470.21 170.457 470.12 170.606L470.236 170.622Z" fill="white" fill-opacity="0.75"/>
<path d="M684.232 245.535L675.354 255.457C675.199 255.611 674.502 255.519 674.332 255.531C673.775 255.516 673.221 255.452 672.68 255.34C672.327 255.247 670.921 254.943 671.358 254.482L680.207 244.562C680.363 244.408 681.088 244.498 681.258 244.486C681.805 244.479 682.35 244.536 682.879 244.655C683.248 244.628 684.638 245.052 684.229 245.511L684.232 245.535Z" fill="white" fill-opacity="0.75"/>
<path d="M698.635 254.224C694.284 259.18 691 264.729 688.928 270.623C688.64 271.407 684.491 270.61 684.712 269.998C686.858 264.008 690.229 258.373 694.677 253.342C695.268 252.703 699.204 253.658 698.692 254.22L698.635 254.224Z" fill="white" fill-opacity="0.75"/>
<path d="M710.425 259.597C704.472 267.634 700.555 276.603 698.915 285.954C698.721 287.089 694.509 286.512 694.698 285.329C696.398 275.824 700.407 266.711 706.478 258.547C707.181 257.613 711.28 258.485 710.454 259.595L710.425 259.597Z" fill="white" fill-opacity="0.75"/>
<path d="M723.185 268.167L711.156 293.154C710.619 294.29 706.498 293.491 706.94 292.529L718.97 267.565C719.506 266.405 723.629 267.228 723.185 268.167Z" fill="white" fill-opacity="0.75"/>
<path d="M733.975 277.07C729.608 286.464 726.737 296.295 725.433 306.314C725.245 307.782 721.008 307.23 721.216 305.689C722.533 295.706 725.419 285.913 729.8 276.561C730.478 275.129 734.621 275.878 733.987 277.189L733.975 277.07Z" fill="white" fill-opacity="0.75"/>
<path d="M750.288 282.449L737.954 313.446C737.478 314.625 733.324 313.781 733.737 312.821L746.072 281.824C746.547 280.644 750.729 281.487 750.288 282.449Z" fill="white" fill-opacity="0.75"/>
<path d="M760.328 289.403C759.705 297.908 759.1 306.404 758.514 314.891C758.47 315.825 754.242 315.368 754.328 314.288C754.912 305.769 755.506 297.266 756.112 288.778C756.187 287.866 760.414 288.323 760.328 289.403Z" fill="white" fill-opacity="0.75"/>
<path d="M775.749 297.709L768.823 318.987C768.523 319.939 764.364 319.31 764.609 318.386L771.533 297.084C771.835 296.155 776.033 296.877 775.749 297.709Z" fill="white" fill-opacity="0.75"/>
<path d="M787.504 303.012C788.548 307.183 789.62 311.351 790.69 315.496C791.124 317.158 786.896 316.963 786.513 315.512L783.296 303.007C782.864 301.368 787.121 301.561 787.504 303.012Z" fill="white" fill-opacity="0.75"/>
<path d="M805.51 305.215C805.355 305.742 805.287 306.285 805.31 306.828L805.274 306.496C805.275 306.909 805.319 307.321 805.405 307.727C805.428 307.94 805.45 308.154 805.613 308.333C805.66 308.782 805.775 308.512 805.613 308.333C805.605 308.42 805.615 308.508 805.64 308.593C805.844 308.977 806.094 309.342 806.386 309.684C806.469 309.752 806.544 309.826 806.61 309.906C806.794 310.079 806.993 310.24 807.205 310.388C807.362 310.508 807.481 310.659 807.549 310.828C807.617 310.996 807.632 311.177 807.593 311.351C807.555 311.526 807.463 311.689 807.327 311.826C807.192 311.963 807.016 312.069 806.818 312.133C806.329 312.287 805.8 312.325 805.286 312.244C804.773 312.164 804.296 311.967 803.907 311.676C802.735 310.786 801.864 309.654 801.384 308.395C800.903 307.135 800.829 305.793 801.17 304.504C801.358 304.134 801.704 303.836 802.141 303.667C802.578 303.499 803.075 303.472 803.535 303.593C804.319 303.703 805.64 304.275 805.387 305.129L805.51 305.215Z" fill="white" fill-opacity="0.75"/>
<path d="M459.897 130.938C458.357 134.222 456.638 137.448 455.08 140.828C454.942 141.149 454.304 141.338 453.966 141.386C453.416 141.491 452.841 141.45 452.322 141.267C451.432 140.973 450.773 140.425 451.144 139.611C452.713 136.324 454.428 133.075 455.989 129.718C456.129 129.422 456.767 129.232 457.103 129.16C457.654 129.078 458.221 129.12 458.747 129.28C459.639 129.597 460.299 130.146 459.899 130.962L459.897 130.938Z" fill="white" fill-opacity="0.75"/>
<path d="M474.923 134.716C473.111 140.024 471.268 145.31 469.457 150.617C469.275 150.997 468.931 151.308 468.49 151.49C468.05 151.671 467.545 151.711 467.071 151.601C466.287 151.491 464.931 150.85 465.24 149.992C467.054 144.708 468.894 139.399 470.706 134.091C470.893 133.715 471.24 133.41 471.681 133.233C472.121 133.056 472.624 133.019 473.094 133.131C473.879 133.241 475.206 133.885 474.923 134.716Z" fill="white" fill-opacity="0.75"/>
<path d="M488.953 137.469C487.418 144.365 485.27 151.154 482.524 157.781C481.976 159.085 477.832 158.336 478.31 157.18C481.063 150.547 483.211 143.749 484.736 136.844C485.029 135.559 489.217 136.186 488.953 137.469Z" fill="white" fill-opacity="0.75"/>
<path d="M503.117 144.983C498.341 151.086 495.576 158.131 495.098 165.411C495.001 166.921 490.766 166.392 490.881 164.786C491.423 157.296 494.282 150.055 499.181 143.766C500.166 142.526 504.226 143.567 503.117 144.983Z" fill="white" fill-opacity="0.75"/>
<path d="M515.424 153.61C511.979 159.803 510.545 166.643 511.263 173.448C511.462 175.318 507.242 175.194 507.066 173.537C506.282 166.259 507.815 158.941 511.509 152.319C512.352 150.827 516.394 151.966 515.424 153.61Z" fill="white" fill-opacity="0.75"/>
<path d="M525.007 164.342C522.961 167.347 521.938 170.761 522.049 174.218C522.069 174.407 521.449 174.499 521.335 174.508C520.827 174.548 520.315 174.529 519.812 174.451C519.345 174.365 517.836 174.165 517.832 173.593C517.74 170.174 518.767 166.801 520.803 163.836C521.394 162.934 525.289 164.036 525.017 164.437L525.007 164.342Z" fill="white" fill-opacity="0.75"/>
<path d="M534.647 172.113C534.371 174.9 534.094 177.687 533.846 180.472C533.792 180.641 533.69 180.797 533.55 180.928C533.41 181.058 533.235 181.159 533.039 181.222C532.543 181.389 532 181.428 531.477 181.335C530.602 181.184 529.522 180.714 529.627 179.823C529.875 177.038 530.152 174.251 530.428 171.464C530.393 171.133 530.876 170.835 531.207 170.716C531.702 170.549 532.247 170.51 532.769 170.603C533.675 170.776 534.727 171.248 534.647 172.113Z" fill="white" fill-opacity="0.75"/>
<path d="M549.433 179.558C548.395 180.907 547.72 182.428 547.454 184.016C547.188 185.604 547.337 187.222 547.892 188.758C548.376 190.083 544.146 189.864 543.731 188.654C543.12 186.948 542.962 185.152 543.269 183.391C543.577 181.63 544.341 179.947 545.51 178.459C546.316 177.422 550.42 178.342 549.462 179.556L549.433 179.558Z" fill="white" fill-opacity="0.75"/>
<path d="M560.561 187.864C560.593 188.029 560.61 188.195 560.614 188.361C560.632 188.527 560.652 188.717 560.669 188.882C560.588 189.214 560.438 189.532 560.225 189.821C560.002 190.13 559.71 190.402 559.366 190.623C559.028 190.86 558.64 191.042 558.221 191.159C557.415 191.373 556.561 191.435 555.722 191.34C555.444 191.312 555.175 191.242 554.927 191.135C554.694 191.077 554.479 190.979 554.296 190.847C554.051 190.697 553.703 190.388 553.815 190.094C553.867 189.954 553.963 189.829 554.094 189.731C554.224 189.633 554.385 189.567 554.557 189.539C555.052 189.408 555.576 189.37 556.091 189.428L555.523 189.469L555.04 189.504L555.495 189.472L555.109 189.619C555.346 189.527 555.565 189.407 555.758 189.262L555.492 189.448C555.783 189.234 556.018 188.974 556.184 188.682L556.038 188.931C556.194 188.642 556.269 188.326 556.255 188.009L556.283 188.269C556.284 188.142 556.271 188.016 556.242 187.891C556.201 187.758 556.214 187.619 556.278 187.493C556.343 187.368 556.455 187.264 556.598 187.197C556.783 187.1 556.991 187.036 557.208 187.01C557.448 186.957 557.698 186.939 557.946 186.956C558.507 186.958 559.06 187.073 559.556 187.293C559.746 187.357 559.919 187.452 560.065 187.573C560.21 187.693 560.325 187.837 560.404 187.995L560.561 187.864Z" fill="white" fill-opacity="0.75"/>
<path d="M11.3354 270.831C5.97127 289.34 -0.553193 307.6 -8.21118 325.536C-8.71533 326.718 -12.8689 325.874 -12.4274 324.911C-4.77267 306.971 1.76109 288.711 7.14766 270.204C7.48139 269.035 11.6742 269.709 11.3354 270.831Z" fill="white" fill-opacity="0.75"/>
<path d="M32.4407 293.038C28.6372 308.745 23.828 324.27 18.0336 339.547C17.5421 340.847 13.3723 340.123 13.8171 338.922C19.6079 323.642 24.4264 308.117 28.2526 292.411C28.5712 291.1 32.7593 291.727 32.4407 293.038Z" fill="white" fill-opacity="0.75"/>
<path d="M50.6808 322.226C44.4159 331.253 39.6685 340.955 36.5716 351.062C36.363 351.793 32.1626 351.047 32.3554 350.437C35.4523 340.33 40.1997 330.628 46.4646 321.601C47.0349 320.773 50.8779 321.926 50.6808 322.226Z" fill="white" fill-opacity="0.75"/>
<path d="M58.6119 345.148C55.6632 353.313 52.6198 361.485 49.4817 369.663C49.1671 370.473 45.044 369.651 45.2652 369.039C48.3086 360.867 51.3523 352.695 54.3957 344.523C54.7104 343.713 58.8615 344.534 58.6119 345.148Z" fill="white" fill-opacity="0.75"/>
<path d="M67.7819 368.434C63.938 373.731 61.9666 379.827 62.0942 386.021C62.1848 386.873 60.4264 387.024 59.7297 386.932C59.2536 386.898 58.8066 386.726 58.4678 386.445C58.1289 386.164 57.92 385.792 57.878 385.396C57.7829 378.976 59.8604 372.666 63.8721 367.19C64.844 365.832 68.8991 366.826 67.7819 368.434Z" fill="white" fill-opacity="0.75"/>
<path d="M719.804 207.25L717.887 216.143C717.777 216.723 716.094 216.511 715.658 216.448C715.154 216.382 714.666 216.248 714.214 216.051C714.002 215.947 713.61 215.761 713.67 215.518L715.588 206.625C715.726 206.042 717.409 206.254 717.845 206.318C718.347 206.389 718.834 206.522 719.289 206.715C719.501 206.819 719.864 207.007 719.804 207.25Z" fill="white" fill-opacity="0.75"/>
<path d="M726.391 206.749C726.098 210.73 725.834 214.709 725.546 218.737C725.617 219.4 721.286 219.046 721.33 218.112C721.623 214.131 721.913 210.127 722.175 206.124C722.104 205.461 726.435 205.815 726.391 206.749Z" fill="white" fill-opacity="0.75"/>
<path d="M737.32 210.752C736.135 216.006 735.638 221.353 735.837 226.699C735.922 227.504 734.126 227.562 733.514 227.463C732.903 227.364 731.68 226.904 731.649 226.072C731.427 220.727 731.915 215.38 733.104 210.127C733.436 208.672 737.623 209.299 737.32 210.752Z" fill="white" fill-opacity="0.75"/>
<path d="M747.582 218.716C747.727 223.554 747.233 228.389 746.108 233.135C745.952 233.814 741.761 233.164 741.921 232.508C742.986 227.76 743.432 222.929 743.252 218.099C743.202 217.626 747.427 217.797 747.468 218.724L747.582 218.716Z" fill="white" fill-opacity="0.75"/>
<path d="M758.078 226.734C757.157 231.262 756.181 235.817 755.291 240.366C755.008 241.746 750.794 241.145 751.074 239.741C751.993 235.19 752.971 230.658 753.862 226.109C754.142 224.706 758.359 225.331 758.078 226.734Z" fill="white" fill-opacity="0.75"/>
<path d="M766.464 235.621L767.721 247.457C767.782 248.025 763.603 247.755 763.505 246.832L762.248 234.996C762.187 234.428 766.366 234.698 766.464 235.621Z" fill="white" fill-opacity="0.75"/>
<path d="M779.881 245.002C779.823 247.948 780.735 250.852 782.519 253.399C782.956 254.011 781.183 254.02 780.893 253.994C780.127 254.049 778.839 253.784 778.4 253.148C776.554 250.483 775.609 247.452 775.665 244.377C775.64 244.141 776.229 244.026 776.397 243.99C776.902 243.929 777.416 243.94 777.917 244.023C778.456 243.984 779.898 244.357 779.881 245.002Z" fill="white" fill-opacity="0.75"/>
<path d="M793.404 255.64L793.824 259.593C793.861 259.738 793.845 259.889 793.778 260.025C793.71 260.162 793.596 260.279 793.448 260.36C793.046 260.569 792.577 260.669 792.105 260.648C791.543 260.647 790.991 260.531 790.495 260.312C790.19 260.143 789.677 259.894 789.64 259.539L789.222 255.609C789.188 255.462 789.208 255.309 789.28 255.172C789.353 255.034 789.474 254.919 789.627 254.84C790.027 254.629 790.497 254.528 790.97 254.552C791.532 254.554 792.084 254.669 792.58 254.889C792.885 255.058 793.369 255.309 793.404 255.64Z" fill="white" fill-opacity="0.75"/>
<path d="M264.713 260.071C263.485 271.054 258.739 281.555 250.971 290.478C249.85 291.776 245.81 290.661 247.059 289.211C254.684 280.487 259.328 270.201 260.497 259.446C260.664 257.788 264.875 258.365 264.713 260.071Z" fill="white" fill-opacity="0.75"/>
<path d="M247.165 258.145L243.325 275.884C243.04 277.241 238.823 276.615 239.111 275.283L242.948 257.52C243.236 256.187 247.452 256.812 247.165 258.145Z" fill="white" fill-opacity="0.75"/>
<path d="M233.782 260.951C233.215 261.54 232.645 262.106 232.048 262.674C231.941 262.823 231.785 262.942 231.597 263.017C231.404 263.122 231.188 263.194 230.962 263.23C230.693 263.286 230.415 263.306 230.138 263.29C229.85 263.282 229.566 263.238 229.294 263.16L228.815 262.956C228.544 262.833 228.317 262.652 228.158 262.431L228.125 262.124C228.097 262.016 228.093 261.905 228.116 261.797C228.139 261.689 228.188 261.586 228.259 261.494L229.967 259.796C230.082 259.644 230.248 259.524 230.446 259.451C230.632 259.336 230.851 259.263 231.081 259.238C231.35 259.183 231.628 259.163 231.905 259.178C232.186 259.193 232.462 259.246 232.723 259.334L233.203 259.538C233.475 259.667 233.709 259.845 233.888 260.06L233.92 260.368C233.95 260.472 233.953 260.579 233.929 260.683C233.906 260.788 233.857 260.887 233.784 260.974L233.782 260.951Z" fill="white" fill-opacity="0.75"/>
<path d="M569.12 196.763L568.109 200.175C567.879 200.979 566.611 201.167 565.765 201.013C565.23 200.95 564.73 200.753 564.331 200.449C564.174 200.341 564.052 200.203 563.976 200.046C563.899 199.889 563.87 199.719 563.892 199.551L564.904 196.138C565.162 195.332 566.432 195.168 567.276 195.298C567.795 195.383 568.278 195.578 568.681 195.864C568.84 195.971 568.963 196.109 569.04 196.266C569.117 196.423 569.144 196.594 569.12 196.763Z" fill="white" fill-opacity="0.75"/>
<path d="M581.186 206.886L581.523 210.058C581.551 210.318 580.995 210.478 580.801 210.54C580.304 210.659 579.783 210.697 579.268 210.651C578.75 210.581 578.256 210.421 577.816 210.183L577.535 209.965C577.48 209.9 577.447 209.824 577.439 209.745C577.431 209.666 577.447 209.587 577.487 209.515L577.153 206.367C577.125 206.106 577.678 205.923 577.874 205.885C578.369 205.754 578.893 205.716 579.408 205.774C579.923 205.836 580.417 205.987 580.858 206.218L581.138 206.436C581.19 206.502 581.222 206.577 581.23 206.656C581.239 206.734 581.223 206.813 581.186 206.886Z" fill="white" fill-opacity="0.75"/>
<path d="M1199.16 212.879L1175.74 250.237C1175.08 251.31 1170.97 250.582 1171.79 249.14L1195.2 211.664C1195.86 210.59 1199.97 211.318 1199.15 212.761L1199.16 212.879Z" fill="white" fill-opacity="0.75"/>
<path d="M1211 231.368L1183.74 274.919C1182.91 276.244 1178.86 275.273 1179.81 273.701L1207.06 230.103C1207.9 228.802 1211.97 229.747 1211 231.321L1211 231.368Z" fill="white" fill-opacity="0.75"/>
<path d="M1233.7 242.677C1219.93 256.667 1208.02 271.862 1198.18 287.995C1197.43 289.242 1193.33 288.347 1194.22 286.827C1204.02 270.707 1215.89 255.523 1229.63 241.541C1230.71 240.46 1234.75 241.504 1233.56 242.735L1233.7 242.677Z" fill="white" fill-opacity="0.75"/>
<path d="M1241.14 257.763C1230.76 272.231 1221.51 287.243 1213.46 302.704C1213.03 303.499 1209 302.502 1209.24 302.079C1217.31 286.62 1226.55 271.609 1236.92 257.138C1237.52 256.331 1241.34 257.486 1241.14 257.763Z" fill="white" fill-opacity="0.75"/>
<path d="M1250.57 274.852C1243.44 286.961 1236.32 299.069 1229.21 311.177C1228.48 312.399 1224.38 311.527 1225.25 310.009C1232.38 297.899 1239.5 285.791 1246.61 273.683C1247.34 272.462 1251.44 273.334 1250.57 274.852Z" fill="white" fill-opacity="0.75"/>
<path d="M1262.15 292.857L1239.61 334.135C1239.1 335.078 1235.08 334.129 1235.39 333.534L1257.91 292.234C1258.44 291.29 1262.46 292.263 1262.12 292.86L1262.15 292.857Z" fill="white" fill-opacity="0.75"/>
<path d="M1271.4 311.509C1265.13 322.173 1261.07 333.645 1259.38 345.441C1259.23 346.693 1254.99 346.117 1255.19 344.814C1256.94 332.892 1261.07 321.303 1267.43 310.532C1268.07 309.484 1272.18 310.189 1271.41 311.604L1271.4 311.509Z" fill="white" fill-opacity="0.75"/>
<path d="M1284.96 324.65L1278.95 351.802C1278.79 352.529 1274.58 351.904 1274.73 351.201L1280.75 324.025C1280.93 323.32 1285.12 323.947 1284.96 324.65Z" fill="white" fill-opacity="0.75"/>
<path d="M1297.01 340.832C1292.4 348.262 1290.9 356.765 1292.74 364.996C1292.85 366.061 1288.81 365.686 1288.59 364.771C1286.64 356.392 1288.13 347.714 1292.82 340.134C1293.43 339.136 1297.42 340.135 1297 340.761L1297.01 340.832Z" fill="white" fill-opacity="0.75"/>
<path d="M1311.32 360.788C1311.34 367.384 1310.01 373.932 1307.4 380.155C1307.2 380.514 1306.85 380.799 1306.41 380.958C1305.97 381.116 1305.48 381.138 1305.03 381.019C1304.36 380.924 1302.84 380.342 1303.18 379.53C1305.79 373.305 1307.13 366.758 1307.14 360.161C1307.05 359.309 1308.81 359.181 1309.48 359.276C1309.95 359.299 1310.4 359.465 1310.74 359.743C1311.08 360.021 1311.29 360.392 1311.32 360.788Z" fill="white" fill-opacity="0.75"/>
<path d="M1327.84 377.221C1323.29 382.62 1320.18 388.765 1318.71 395.247C1318.37 396.679 1314.15 396.054 1314.49 394.623C1316.04 387.94 1319.26 381.608 1323.96 376.046C1324.9 374.928 1328.99 375.921 1327.9 377.216L1327.84 377.221Z" fill="white" fill-opacity="0.75"/>
<path d="M1080.52 364.976C1073.9 373.914 1065.95 382.119 1056.87 389.398C1056.48 389.668 1056.01 389.842 1055.51 389.9C1055.01 389.957 1054.5 389.895 1054.04 389.722C1053.57 389.589 1052.09 388.861 1052.83 388.283C1061.96 380.98 1069.95 372.748 1076.61 363.78C1077.44 362.647 1081.54 363.59 1080.57 364.901L1080.52 364.976Z" fill="white" fill-opacity="0.75"/>
<path d="M1074.34 346.197C1065.03 359.438 1054.3 371.951 1042.28 383.584C1041.04 384.771 1036.99 383.633 1038.34 382.319C1050.36 370.689 1061.1 358.184 1070.43 344.953C1071.4 343.571 1075.43 344.591 1074.34 346.197Z" fill="white" fill-opacity="0.75"/>
<path d="M1066.91 332.279C1056.24 346.583 1044.53 360.329 1031.85 373.438C1030.64 374.718 1026.59 373.556 1027.93 372.171C1040.59 359.061 1052.27 345.318 1062.92 331.018C1063.94 329.632 1068 330.65 1066.83 332.285L1066.91 332.279Z" fill="white" fill-opacity="0.75"/>
<path d="M1046.81 322.452C1036.03 333.054 1026.7 344.627 1018.99 356.955C1018.16 358.28 1014.08 357.311 1015.05 355.714C1022.76 343.393 1032.09 331.828 1042.87 321.234C1044.07 320.074 1048.1 321.189 1046.81 322.452Z" fill="white" fill-opacity="0.75"/>
<path d="M1034.49 315.376C1025.15 325.043 1016.84 335.366 1009.64 346.23C1008.67 347.659 1004.64 346.592 1005.72 344.939C1012.93 334.079 1021.25 323.756 1030.58 314.085C1031.82 312.826 1035.86 313.965 1034.49 315.376Z" fill="white" fill-opacity="0.75"/>
<path d="M1011.76 309.604L1002.23 327.731C1001.52 329.047 997.434 328.078 998.298 326.513L1007.82 308.41C1008.54 307.07 1012.62 308.062 1011.76 309.604Z" fill="white" fill-opacity="0.75"/>
<path d="M1004.21 304.043L995.341 316.994C995.191 317.196 994.481 317.247 994.282 317.262C993.726 317.266 993.172 317.21 992.633 317.095C992.133 316.964 990.951 316.62 991.348 316.043L1000.22 303.092C1000.37 302.89 1001.08 302.839 1001.28 302.824C1001.82 302.82 1002.37 302.877 1002.9 302.993C1003.43 303.122 1004.61 303.466 1004.21 304.043Z" fill="white" fill-opacity="0.75"/>
<path d="M990.752 293.186C990.181 294.277 989.638 295.366 989.065 296.433C989.002 296.552 988.9 296.654 988.771 296.726C988.642 296.799 988.491 296.84 988.336 296.844C987.845 296.951 987.336 296.988 986.83 296.953C986.321 296.889 985.83 296.747 985.383 296.533L985.077 296.34C985.005 296.295 984.948 296.236 984.911 296.168C984.874 296.099 984.857 296.025 984.863 295.95L986.551 292.703C986.619 292.587 986.722 292.489 986.849 292.417C986.977 292.345 987.126 292.302 987.28 292.293C987.782 292.224 988.296 292.227 988.798 292.302C989.308 292.361 989.8 292.504 990.245 292.722L990.552 292.914C990.623 292.96 990.68 293.019 990.717 293.087C990.754 293.155 990.77 293.23 990.764 293.304L990.752 293.186Z" fill="white" fill-opacity="0.75"/>
<path d="M1623.99 379.799C1620.34 383.643 1617.67 388.065 1616.13 392.796C1615.95 393.18 1615.61 393.494 1615.16 393.676C1614.72 393.858 1614.21 393.895 1613.74 393.78C1612.96 393.67 1611.63 393.026 1611.91 392.171C1613.5 387.204 1616.28 382.556 1620.07 378.508C1620.41 378.177 1620.87 377.948 1621.37 377.855C1621.88 377.762 1622.41 377.811 1622.88 377.995C1623.59 378.229 1624.69 379.104 1624.02 379.797L1623.99 379.799Z" fill="white" fill-opacity="0.75"/>
<path d="M1601.6 365.175L1598.66 373.355C1598.46 373.871 1596.85 373.487 1596.45 373.515C1595.94 373.454 1595.44 373.329 1594.98 373.145C1594.98 373.145 1594.38 372.902 1594.44 372.706C1595.41 369.988 1596.41 367.268 1597.38 364.526C1597.56 364.037 1599.2 364.395 1599.6 364.366C1600.11 364.428 1600.6 364.553 1601.07 364.737C1601.07 364.737 1601.67 364.98 1601.6 365.175Z" fill="white" fill-opacity="0.75"/>
<path d="M1584.8 351.984C1583.46 352.579 1582.44 353.57 1581.93 354.763C1581.42 355.955 1581.46 357.264 1582.05 358.432C1582.34 359.008 1580.73 358.934 1580.41 358.909C1579.87 358.861 1579.33 358.764 1578.81 358.62C1578.54 358.52 1578.07 358.387 1577.93 358.135C1577.25 356.877 1577.17 355.454 1577.7 354.151C1578.23 352.848 1579.34 351.76 1580.79 351.105C1581.65 350.836 1582.6 350.826 1583.48 351.078C1583.9 351.168 1584.31 351.325 1584.67 351.54C1584.67 351.54 1585.05 351.87 1584.72 351.99L1584.8 351.984Z" fill="white" fill-opacity="0.75"/>
<path d="M1564.88 345.722L1565.27 345.693L1565.61 345.668C1565.37 345.715 1565.14 345.788 1564.92 345.885L1565.18 345.867C1564.62 346.121 1564.14 346.492 1563.8 346.944L1563.79 346.802C1563.57 347.072 1563.41 347.377 1563.34 347.698C1563.26 348.02 1563.27 348.351 1563.36 348.67L1563.34 348.504C1563.34 348.504 1563.35 348.647 1563.36 348.694C1563.36 348.741 1563.38 348.883 1563.38 348.931C1563.36 348.982 1563.32 349.028 1563.27 349.061C1563.22 349.095 1563.16 349.115 1563.09 349.119C1562.67 349.221 1562.22 349.253 1561.78 349.214C1561.23 349.172 1560.69 349.066 1560.18 348.901L1559.76 348.74C1559.56 348.674 1559.39 348.562 1559.27 348.418C1559.12 348.06 1559.08 347.682 1559.12 347.308C1559.17 346.934 1559.32 346.573 1559.55 346.25C1560.02 345.519 1560.82 344.967 1561.76 344.707C1562.77 344.431 1563.84 344.354 1564.89 344.48C1565.4 344.53 1565.89 344.665 1566.33 344.877C1566.33 344.877 1566.93 345.167 1566.87 345.363C1566.8 345.558 1566.39 345.66 1566.16 345.7C1565.65 345.742 1565.14 345.723 1564.64 345.643L1564.88 345.722Z" fill="white" fill-opacity="0.75"/>
<path d="M1549.87 344.804L1550.03 346.367C1550.08 346.429 1550.11 346.501 1550.12 346.575C1550.13 346.65 1550.11 346.724 1550.08 346.793C1550.03 346.945 1549.91 347.073 1549.74 347.151C1549.56 347.255 1549.35 347.327 1549.14 347.362C1548.89 347.416 1548.63 347.435 1548.37 347.418C1547.81 347.412 1547.27 347.287 1546.79 347.055L1546.39 346.845C1546.18 346.706 1546.02 346.519 1545.93 346.306L1545.76 344.72C1545.72 344.659 1545.7 344.592 1545.69 344.522C1545.69 344.453 1545.7 344.383 1545.72 344.317C1545.74 344.239 1545.78 344.165 1545.83 344.103C1545.89 344.04 1545.97 343.991 1546.06 343.959C1546.23 343.842 1546.44 343.769 1546.66 343.748C1546.9 343.683 1547.15 343.665 1547.4 343.695C1547.96 343.685 1548.52 343.801 1549.01 344.031L1549.41 344.265C1549.62 344.399 1549.77 344.591 1549.84 344.806L1549.87 344.804Z" fill="white" fill-opacity="0.75"/>
<path d="M1909.94 84.2476L1929.79 132.904C1930.41 134.41 1926.16 134.264 1925.61 132.896L1905.76 84.2401C1905.14 82.7343 1909.39 82.8797 1909.94 84.2476Z" fill="white" fill-opacity="0.75"/>
<path d="M1886.31 105.066C1891 119.373 1897.6 133.201 1905.97 146.294C1906.66 147.389 1902.5 147.308 1901.81 146.189C1893.45 133.132 1886.86 119.345 1882.16 105.08C1881.7 103.73 1885.93 103.996 1886.32 105.185L1886.31 105.066Z" fill="white" fill-opacity="0.75"/>
<path d="M1868.16 125.558C1873.44 139.33 1878.63 153.107 1883.74 166.891C1884.25 168.19 1880.02 167.971 1879.58 166.763C1874.4 153 1869.2 139.223 1864 125.43C1863.49 124.132 1867.72 124.35 1868.16 125.558Z" fill="white" fill-opacity="0.75"/>
<path d="M1835.9 141.945C1838.03 157.35 1845.13 171.995 1856.43 184.326C1858.05 186.069 1854.27 186.868 1853.08 185.666C1841.36 173.027 1833.98 157.979 1831.71 142.128C1831.52 140.282 1835.68 140.434 1835.91 142.039L1835.9 141.945Z" fill="white" fill-opacity="0.75"/>
<path d="M1816.26 169.916C1824.54 179.354 1829.17 190.671 1829.52 202.351C1829.58 202.896 1825.35 202.653 1825.31 201.726C1824.96 190.123 1820.37 178.88 1812.15 169.497C1811.7 169.005 1813.57 169.085 1813.74 169.096C1814.45 169.045 1815.77 169.284 1816.25 169.821L1816.26 169.916Z" fill="white" fill-opacity="0.75"/>
<path d="M1798.28 187.653C1799.46 196.674 1803.32 205.309 1809.54 212.768C1810.78 214.252 1806.59 214.412 1805.67 213.31C1799.32 205.678 1795.34 196.849 1794.1 187.622C1793.93 185.988 1798.11 186.306 1798.28 187.653Z" fill="white" fill-opacity="0.75"/>
<path d="M1782.65 208.083C1784.12 212.747 1785.62 217.41 1787 222.08C1787.07 222.72 1785.8 222.621 1785.37 222.604C1784.94 222.588 1783.06 222.39 1782.88 221.806C1781.41 217.142 1779.91 212.479 1778.53 207.809C1778.46 207.17 1779.73 207.245 1780.16 207.285C1780.6 207.325 1782.48 207.499 1782.65 208.083Z" fill="white" fill-opacity="0.75"/>
<path d="M1761.91 221.583L1763.16 233.419C1763.23 234.035 1759.07 233.716 1758.98 232.816L1757.72 220.98C1757.65 220.365 1761.81 220.684 1761.91 221.583Z" fill="white" fill-opacity="0.75"/>
<path d="M1739.18 222.967L1739.94 230.068C1739.98 230.204 1739.96 230.346 1739.89 230.472C1739.82 230.598 1739.7 230.701 1739.55 230.764C1739.15 230.96 1738.67 231.044 1738.21 231.005C1737.65 231.012 1737.1 230.905 1736.6 230.692C1736.33 230.545 1735.78 230.298 1735.75 229.99L1735 222.888C1734.96 222.753 1734.97 222.611 1735.04 222.485C1735.11 222.358 1735.23 222.255 1735.38 222.193C1735.79 221.997 1736.26 221.913 1736.73 221.952C1737.29 221.944 1737.84 222.052 1738.34 222.265C1738.61 222.412 1739.15 222.659 1739.18 222.967Z" fill="white" fill-opacity="0.75"/>
<path d="M1713.44 222.54C1715.65 225.553 1717.88 228.564 1720.12 231.598C1720.49 232.096 1718.74 232.009 1718.54 231.999C1717.98 231.952 1717.43 231.855 1716.9 231.712C1716.55 231.636 1716.24 231.476 1715.99 231.253C1713.79 228.24 1711.55 225.23 1709.31 222.195C1708.94 221.697 1710.7 221.785 1710.9 221.794C1711.45 221.842 1712 221.938 1712.53 222.081C1712.88 222.158 1713.2 222.317 1713.44 222.54Z" fill="white" fill-opacity="0.75"/>
<path d="M1856.86 278.422L1865.18 285.835C1865.84 286.431 1864.77 286.866 1864.18 286.91C1863.66 286.984 1863.12 286.959 1862.61 286.834C1862.1 286.71 1861.63 286.49 1861.24 286.192L1852.92 278.779C1852.23 278.185 1853.33 277.724 1853.92 277.681C1854.45 277.612 1854.99 277.643 1855.5 277.772C1856 277.9 1856.47 278.122 1856.86 278.422Z" fill="white" fill-opacity="0.75"/>
<path d="M1855.57 279.685C1854.12 279.79 1850.97 278.158 1853.73 277.958C1855.17 277.853 1858.32 279.486 1855.57 279.685Z" fill="white" fill-opacity="0.75"/>
<path d="M1851.96 283.453C1850.85 285.739 1850.55 288.242 1851.1 290.668C1851.65 293.093 1853.02 295.338 1855.05 297.136C1859.29 301.29 1865.63 303.526 1871.5 305.487C1872.25 305.767 1872.03 306.116 1871.35 306.213C1870.35 306.277 1869.35 306.128 1868.44 305.78C1862.29 303.601 1855.83 301.278 1851.31 297.025C1849.15 295.184 1847.67 292.861 1847.05 290.337C1846.43 287.813 1846.7 285.195 1847.83 282.798C1848.34 281.926 1852.31 282.951 1852.04 283.399L1851.96 283.453Z" fill="white" fill-opacity="0.75"/>
<path d="M1850.44 309.54L1875.37 325.458C1877.58 326.873 1874.51 328.383 1872.7 327.297L1847.77 311.379C1845.56 309.964 1848.67 308.475 1850.44 309.54Z" fill="white" fill-opacity="0.75"/>
<path d="M1852.68 323.881C1858.07 327.236 1863.6 330.485 1868.87 333.992C1874.13 337.499 1879.06 341.364 1883.92 345.283C1884.64 345.851 1883.47 346.198 1882.96 346.235C1882.44 346.306 1881.91 346.28 1881.4 346.16C1880.89 346.04 1880.42 345.829 1880.02 345.541C1875.34 341.661 1870.42 337.981 1865.29 334.514C1860.11 331.072 1854.68 327.863 1849.38 324.574C1848.67 324.124 1848.79 323.662 1849.6 323.436C1850.1 323.347 1850.61 323.342 1851.11 323.421C1851.61 323.499 1852.08 323.66 1852.51 323.894L1852.68 323.881Z" fill="white" fill-opacity="0.75"/>
<path d="M1851.28 340.919L1896 374.178C1897.8 375.526 1893.83 375.814 1892.77 375.032L1848.03 341.775C1846.22 340.427 1850.23 340.137 1851.28 340.919Z" fill="white" fill-opacity="0.75"/>
<path d="M1853.47 370.148L1910.23 407.879C1912.2 409.168 1908.19 409.72 1906.96 408.903L1850.14 371.153C1848.18 369.864 1852.18 369.335 1853.42 370.153L1853.47 370.148Z" fill="white" fill-opacity="0.75"/>
<path d="M1580.58 312.286L1607.4 335.129C1608.09 335.699 1606.97 335.971 1606.46 336.008C1605.94 336.064 1605.41 336.033 1604.91 335.918C1604.41 335.803 1603.94 335.606 1603.53 335.337L1576.71 312.471C1576.05 311.898 1577.14 311.652 1577.68 311.613C1578.2 311.555 1578.72 311.584 1579.23 311.699C1579.73 311.814 1580.2 312.013 1580.61 312.284L1580.58 312.286Z" fill="white" fill-opacity="0.75"/>
<path d="M1587.78 286.551C1593.13 297.886 1602.27 307.707 1614.11 314.843C1614.26 314.942 1614.38 315.073 1614.45 315.222C1614.52 315.37 1614.53 315.532 1614.5 315.688C1614.47 315.845 1614.38 315.991 1614.26 316.111C1614.13 316.231 1613.97 316.321 1613.79 316.37C1613.3 316.504 1612.78 316.535 1612.27 316.459C1611.76 316.384 1611.28 316.204 1610.88 315.936C1598.6 308.503 1589.12 298.295 1583.57 286.522C1582.88 285.093 1587.13 285.215 1587.75 286.529L1587.78 286.551Z" fill="white" fill-opacity="0.75"/>
<path d="M1599.36 278.89L1630.13 293.694C1630.76 294.006 1631.42 294.531 1630.64 295.017C1630.18 295.178 1629.68 295.25 1629.18 295.228C1628.69 295.207 1628.2 295.091 1627.76 294.891L1597 280.087C1596.36 279.775 1595.71 279.25 1596.49 278.764C1596.95 278.603 1597.44 278.531 1597.94 278.553C1598.44 278.574 1598.92 278.69 1599.36 278.89Z" fill="white" fill-opacity="0.75"/>
<path d="M1620.35 264.179L1641.44 277.299C1641.59 277.369 1641.72 277.478 1641.8 277.612C1641.88 277.745 1641.91 277.895 1641.88 278.042C1641.85 278.189 1641.77 278.324 1641.64 278.429C1641.51 278.535 1641.35 278.605 1641.18 278.629C1640.68 278.733 1640.16 278.746 1639.66 278.667C1639.16 278.588 1638.68 278.419 1638.27 278.172L1617.18 265.076C1617.03 265.005 1616.9 264.893 1616.82 264.758C1616.74 264.622 1616.72 264.47 1616.75 264.322C1616.78 264.174 1616.87 264.039 1617 263.935C1617.13 263.831 1617.29 263.764 1617.47 263.743C1617.96 263.627 1618.48 263.605 1618.99 263.68C1619.49 263.755 1619.97 263.925 1620.38 264.177L1620.35 264.179Z" fill="white" fill-opacity="0.75"/>
<path d="M1633.22 248.767L1653.68 260.024C1654.41 260.425 1654.24 260.962 1653.46 261.138C1652.45 261.292 1651.41 261.129 1650.55 260.681L1630.09 249.424C1629.39 249.045 1629.53 248.51 1630.32 248.334C1631.32 248.156 1632.36 248.311 1633.22 248.767Z" fill="white" fill-opacity="0.75"/>
<path d="M1651.7 243.232L1657.63 245.187C1657.86 245.171 1658.4 245.394 1658.53 245.623C1658.67 245.851 1658.57 245.931 1658.26 245.977C1657.83 246.068 1657.39 246.1 1656.95 246.072C1656.4 246.03 1655.86 245.925 1655.34 245.759L1649.41 243.803C1649.18 243.819 1648.65 243.596 1648.51 243.367C1648.37 243.139 1648.47 243.059 1648.78 243.013C1649.21 242.922 1649.65 242.89 1650.09 242.919C1650.64 242.96 1651.18 243.066 1651.7 243.232Z" fill="white" fill-opacity="0.75"/>
<path d="M-238.293 924.736L-219.195 899.213C-219.195 899.213 -219.055 876.828 -251.617 866.662C-253.037 866.765 -252.245 860.744 -252.245 860.744L-189.042 849.25C-189.042 849.25 -226.166 816.348 -243.684 806.357L-185.28 811.384C-185.28 811.384 -209.142 792.859 -188.991 788.299C-188.991 788.299 -228.282 777.833 -241.445 757.652L-191.861 746.19L-197.983 728.432L-249.48 698.98L-180.497 704.171C-180.497 704.171 -213.487 689.981 -211.109 667.1C-211.109 667.1 -218.375 646.658 -236.263 640.463C-236.263 640.463 -196.509 643.429 -166.801 656.902C-166.801 656.902 -186.652 621.986 -228.731 603.325L-214.125 606.108L-221.015 595.133C-221.015 595.133 -174.624 600.767 -162.179 606.379L-197.642 582.11C-197.642 582.11 -173.083 581.596 -160.678 587.64L-195.614 542.461L-173.817 538.044L-184.157 532.042L-164.089 512.961L-173.6 504.251L-146.9 468.922C-146.9 468.922 -147.387 491.285 -135.132 496.457C-136.773 496.909 -140.795 503.498 -140.795 503.498L-136.741 508.787L-157.661 537.9C-157.661 537.9 -133.729 526.364 -114.15 529.359C-114.15 529.359 -129.572 540.447 -114.185 553.549C-114.185 553.549 -142.784 570.72 -147.299 589.653C-147.023 589.013 -117.801 577.976 -95.4335 600.21C-95.4335 600.21 -133.042 606.392 -142.563 628.574C-142.563 628.574 -113.01 625.504 -101.965 618.478L-106.644 633.964L-106.292 645.365L-133.941 665.019L-136.759 674.598C-136.759 674.598 -100.683 658.293 -78.0601 661.378C-78.0601 661.378 -89.7382 681.307 -107.91 686.988C-107.91 686.988 -105.261 698.723 -127.536 705.107C-128.062 705.551 -132.203 726.914 -132.203 726.914C-132.203 726.914 -107.855 712.293 -61.8374 734.08C-61.5818 734.061 -45.8515 737.192 -45.8515 737.192L-63.2418 742.411L-92.3586 743.398C-92.3586 743.398 -124.588 760.879 -140.764 761.096C-140.249 761.369 -104.696 777.33 -67.0357 774.054C-64.488 775.945 -55.0374 788.667 -55.0374 788.667L-135.42 806.295L-107.184 838.242C-107.184 838.242 -38.4912 840.163 -27.4982 855.277L-68.1655 855.836L-46.8563 866.221L-25.8864 870.451L-11.6402 869.849L-25.0461 881.864C-25.0461 881.864 -133.231 928.746 -142.265 976.798L-127.071 969.496L-109.862 951.791L-74.8078 929.907L-49.1103 920.175C-49.1103 920.175 -24.2599 898.696 -7.30305 899.901C-19.3414 915.132 -33.6926 928.999 -50.0008 941.159C-51.1931 942.868 -59.1184 971.184 -59.1184 971.184C-59.1184 971.184 -68.2604 986.158 -119.963 991.142C-119.963 991.142 -72.011 989.65 -48.5161 1008.49L-132.177 1007.91C-132.177 1007.91 -69.3905 1009.74 -72.3159 1054.67C-72.3159 1054.67 -72.2793 1087.35 -52.8376 1097.13C-50.2246 1096.94 -35.5121 1069.21 -13.6867 1070.44L-56.0218 1049.11L-13.0996 1049.03L-35.9941 1015.09C-35.9941 1015.09 -10.0611 1025.36 3.22624 1025.16L-36.2179 998.437C-36.2179 998.437 -13.11 1002.58 -4.4729 1000.91L-21.7044 983.646L-7.06575 982.157C-8.67715 963.966 -3.50859 945.813 7.73354 930.181L11.1079 966.528L20.6599 967.268L9.83381 977.975C9.83381 977.975 14.5264 988.203 34.9484 991.853L10.7507 1002.5C10.7507 1002.5 36.9809 1022.57 47.3223 1023.47L26.3008 1027.38L64.6592 1031.76C47.936 1042.51 27.7969 1048.94 6.7226 1050.26C6.7226 1050.26 33.6311 1065.13 41.3944 1065.74C41.3944 1065.74 25.7924 1071.09 80.168 1091.27L11.2934 1096.26L34.0921 1112.04L79.6888 1154.92L100.085 1182.31L146.432 1214.47L166.242 1202.66L129.734 1178.26L147.257 1176.44C147.257 1176.44 172.941 1169.81 184.262 1174.55C183.325 1174.61 154.832 1153.18 154.832 1153.18L160.964 1150.02L154.899 1143.3C154.899 1143.3 104.28 1131.01 101.951 1118.51C101.951 1118.51 121.004 1119.51 123.819 1111.8C123.819 1111.8 165.82 1135.64 182.231 1137.91C182.231 1137.91 193.21 1118.94 161.015 1103.88C160.775 1103.78 130.444 1090.64 129.1 1084.72L163.772 1078.37C163.772 1078.37 149.736 1073.95 144.047 1068.09C143.656 1067.64 176.684 1063.05 183.265 1049.03C183.265 1049.03 170.569 1041.86 169.238 1036.06C168.563 1034.56 179.748 1039.1 185.98 1019.08C185.565 1018.68 173.378 998.528 173.378 998.528L180.045 991.771L172.951 983.722L183.864 974.916L188.737 961.515L193.913 972.519L217.575 977.032L204.167 987.687L230.847 998.517L196.695 1024.84L219.441 1023.44L208.293 1034.88L192.167 1048.5L193.764 1057.07C193.764 1057.07 224.542 1054.48 237.476 1059.58C238.565 1057.98 221.733 1086.51 221.733 1086.51L242.695 1090.12L238.843 1095.62L260.03 1106.47C260.03 1106.47 255.844 1102.36 208.116 1131.29L283.842 1133.68C283.842 1133.68 282.75 1145.49 270.499 1148.72C268.649 1149.35 281.867 1163.85 241.488 1183.02C241.687 1183.01 261.903 1190.92 280.266 1188.66L270.044 1200.2C270.044 1200.2 279.436 1220.99 267.194 1238.58C267.194 1238.58 287.044 1244.65 295.152 1257.66C298.339 1257.41 301.507 1257 304.639 1256.45C304.639 1256.45 285.578 1234.62 325.457 1236.89C322.842 1236.24 319.319 1223.83 319.319 1223.83L347.721 1221.77L338.725 1210.9L348.584 1207.8C348.584 1207.8 315.453 1186.35 310.501 1176.38L340.685 1168.47L339.908 1161.15L351.284 1149.69L342.979 1139.68L354.144 1135.12L333.525 1116.96C333.525 1116.96 381.426 1111.75 342.374 1072.55C342.819 1072.16 365.332 1051.04 363.514 1027.46C363.487 1027.2 377.378 1040.77 363.497 1068.51L373.248 1077.06L373.751 1081.8L381.282 1095.3L368.976 1106.09L383.99 1120.8L375.674 1129.53L405.783 1141.67C405.783 1141.67 401.326 1149.55 387.517 1148.88C386.481 1156.55 384.402 1164.1 381.32 1171.37C382.193 1171.78 395.529 1173.66 395.529 1173.66L389.843 1179.94L403.316 1191.72L391.012 1194.45L389.312 1208.89L413.891 1220.42L413.051 1209.82L425.915 1208.6L422.404 1179.58L436.172 1174.48L433.28 1153.73L420.262 1138.95L431.834 1132.84C431.834 1132.84 416.616 1122.13 444.373 1093.26C444.373 1093.26 474.976 1056.15 440.008 1052.17C439.663 1050.81 467.661 1023.93 467.661 1023.93L414.495 1008.41L474.036 987.755L460.777 970.706L465.512 958.436L460.567 949.872L472.586 924.528L461.499 865.695C461.499 865.695 485.302 862.636 489.472 920.753C489.429 920.35 494.565 950.655 523.915 955.638L516.086 998.332L520.634 1006.11L535.142 1011.22L530.266 1014.89L544.89 1030.24L532.669 1040.47L552.506 1055.59L599.337 1045.43L591.999 1028.62L596.158 1015.51L606.496 1005.05L568.514 957.872L607.277 967.135L595.635 945.102L597.725 935.409L610.166 926.708L593.783 907.189L620.568 901.505L605.823 876.118L608.42 866.889L622.912 857.825L628.345 828.139L643.813 804.548L653.7 818.145L651.738 821.769L659.004 840.327L648.619 866.77L649.12 877.42C649.12 877.42 667.396 873.258 676.326 877.835L654.838 912.382L665.804 909.464L670.756 919.172L681.204 923.759L651.783 947.477L697.715 945.559L667.657 969.204L676.617 972.73L667.317 985.139L669.451 999.297L676.632 1002.24L706.359 995.146L758.63 970.99L761.929 978.337L697.979 1022.95L693.184 1027.11L726.369 1034.25L699.959 1046.71L695.156 1065.61C695.156 1065.61 731.868 1081.44 739.889 1094.17L722.361 1105.1L724.435 1117.35L739.643 1125.27L714.154 1134.27L708.925 1150.51L721.631 1175.83L750.555 1162.79L758.486 1154.46L766.628 1152.44L762.424 1117.44L777.654 1033.42L784.158 1025.94C784.158 1025.94 800.947 1022.34 813.123 1029.18L815.865 1023.48L829.618 1010.96L822.119 972.691L839.31 936.762L859.982 910.433C859.982 910.433 886.328 909.504 899.121 923.51L911.838 908.515L909.988 891.093L939.945 859.488L951.199 866.282L963.436 853.231C963.436 853.231 978.829 866.93 997.034 869.643L995.868 873.759C1011.01 877.12 1024.06 885.168 1032.34 896.26C1032.88 896.698 1048.36 903.926 1048.36 903.926L1040.26 923.071L1052.58 922.441L1059.27 927.992L1051.47 954.796L1062.79 985.416L1059.24 1000.75L1067.18 1000.56L1061.92 1021.67C1061.92 1021.67 1086.23 1010.15 1111.83 1020.29C1111.88 1020.74 1109.97 1052.32 1109.97 1052.32L1125.81 1078.58L1137.3 1071.41L1133.45 1062.14L1147.32 1058.04L1149.13 1038.37L1163.17 972.543L1173.54 1001.18L1179.17 1033.45L1194.42 1051.67L1216.76 1081.47L1207.49 1086.62L1237.04 1105.12L1270.88 1120.32L1248.17 1136.28C1248.17 1136.28 1245.86 1161.42 1294.36 1167.02C1293.41 1167.73 1267.58 1181.89 1267.58 1181.89L1301.21 1207L1313.91 1205.3L1312.59 1176.39L1302.3 1166.04C1302.3 1166.04 1311.28 1162.17 1333.39 1175.26C1334.38 1175.67 1356.36 1178.37 1356.36 1178.37L1322.35 1144.12L1299.14 1116.08L1322.56 1129.05L1337.19 1141.52L1359.21 1149.21L1341.69 1129.46L1333.85 1109.58L1357.16 1114.79L1339.75 1096.42L1329.4 1069.83L1352.85 1075.05L1342.88 1041.52L1333.39 1029.8L1340.68 1021.66L1356.26 961.353L1366.68 999.648L1377.7 1015.33L1389.91 1020.87L1372.01 1040.98L1378.32 1049.95L1386.06 1051.92L1403.04 1050.14L1388.31 1066.4L1380.62 1076.5L1405.55 1073.79L1396.43 1100L1388.93 1113.42C1388.93 1113.42 1421.21 1115.35 1435.97 1105.58C1435.77 1105.78 1402.16 1144.47 1402.16 1144.47L1428.58 1144.56L1438.9 1133.94L1449.25 1129.49L1447.75 1115.43L1456.98 1074.07L1468.91 1102.57L1465.39 1116.88C1465.39 1116.88 1477.52 1132.17 1497.94 1134.18C1496.24 1134.82 1482.3 1141.87 1482.3 1141.87L1500.45 1157.78L1523.64 1160.56L1510.84 1145.41L1496.84 1114.07L1481.77 1103.72L1505.52 1099.61L1525.11 1103.56L1531.41 1097.93L1550.15 1099.74L1540.94 1085.48L1519.64 1063.64L1499.35 1047.22L1513.95 1049.91L1535.85 1045.94L1539.61 1042.25L1555.68 1043.24L1533.28 1019.05L1526.42 991.135L1508.89 980.478L1540.05 981.442L1525.45 934.027L1535.98 921.91L1535.08 913.388L1544.43 876.93L1555.29 902.383L1557.42 922.481L1571.91 936.794L1563.82 952.527L1565.56 968.932L1575.44 971.389L1595.17 966.096L1602.24 971.19L1598.65 982.995L1568.14 1011.8L1576.44 1012.87L1595.48 1008.06L1607.29 1009.59L1579.21 1041.63L1601.83 1044.93L1620.46 1046.32L1622.89 1052.45L1604.24 1060.95L1600.41 1078.71L1615.63 1080.57L1631.64 1069.63L1639.32 1054.12L1640.64 1045.27L1633.25 1029.58L1652.82 980.767L1658.36 1011.02L1672.56 1043.41L1658.96 1055.75C1658.96 1055.75 1672.88 1060.7 1707.85 1061.99L1674.11 1081.99L1677.03 1093.11L1687.45 1100.08L1710.25 1107L1674.78 1120.66L1697.23 1123.42L1715.02 1129.29L1745.96 1128.19L1735.22 1134.86L1695.18 1150L1713.57 1154.44L1739.58 1170.49L1773.96 1140.98L1774.93 1121.01L1789.19 1120.53L1799.51 1101.27L1783.08 1094.49L1761.28 1088.92L1744.59 1088.88L1760.79 1074.38L1779.94 1073.54L1804.51 1058.35L1820.43 1051.69L1830.04 1041.07L1845.53 1037.11L1816.5 1024.64L1796.37 1015.36L1760.93 1001.59L1775.23 998.024L1804.04 970.104L1821.01 968.208L1858.09 969.96L1833.91 953.08L1812.25 934.277L1867.47 942.206L1857.92 927.13L1833.34 911.282L1823.71 901.507L1844.34 903.09L1860.48 901.731L1875.76 895.711L1846.39 882.522C1846.39 882.522 1822.44 879.009 1808.47 879.52L1827.52 871.938L1853.58 869.383L1882.73 871.137L1826.75 827.482L1875.34 832.289L1855.67 816.252L1845.6 789.358L1856.51 784.298L1852.98 769.168L1866.41 746.011L1873.77 770.358L1882.08 793.014L1903.98 797.106L1901.16 804.8L1882.26 816.808L1897.2 827.653C1900.09 830.277 1903.66 832.305 1907.65 833.573C1911.63 834.842 1915.92 835.317 1920.16 834.96C1919.84 835.174 1914.78 844.629 1914.78 844.629C1914.78 844.629 1892.61 848.833 1892.23 858.188L1914.52 861.822L1939.01 858.57L1936.69 863.699L1896.99 881.96C1896.99 881.96 1902.5 886.976 1937.26 883.815L1945.81 883.482L1953.89 885.76L1965.16 884.108L1978.14 887.94L1959.21 894.081L1945.54 891.97L1931.59 895.366L1908.56 905.716L1894.35 923.085L1900.52 926.264L1938.31 913.437L1985.02 910.413L1994.27 913.99L1972.38 923.518L1937.27 929.424L1919.54 941.418L1935.08 953.031L1922.26 965.409L1911.81 974.872L1928.16 974.643L1952.32 972.226L1973.44 961.99L1991.41 957.635L2008.64 965.738L2032.62 970.586L2032.94 973.545L2024.65 976.387L1977.79 981.116L1971.41 991.715L1945.39 1004.55L1930.13 1009.33L1913.74 1025.85L1967.8 1020.74L1997.31 1016.22L1987.21 1028.88L1946.52 1042.66L1929.02 1056.88L1924.07 1061.12C1924.07 1061.12 1928.44 1062.45 1942.68 1059.3C1943.31 1059.09 1959.76 1056.06 1959.76 1056.06L1971.66 1060.3L1981.14 1054.68C1981.14 1054.68 2021.58 1055.47 2031.23 1052.32L2023.56 1060.69L2008.41 1068.16C2008.41 1068.16 1967.17 1069.45 1944.38 1099.04C1945.02 1098.35 1948.18 1101.15 1948.18 1101.15L1974.29 1092.1L2004.13 1090.65L2026.35 1082.32L2054.6 1084.28L2044.1 1093.15L2025.09 1100.95L1995.08 1122.63L2005.77 1129.99L2044.6 1142.33L2078.22 1144.16L2078.84 1149.96L-193.316 1314.48L-238.293 924.736Z" fill="white" fill-opacity="0.75"/>
</g>
</g>
<defs>
<clipPath id="clip0_338_8063">
<rect width="1921" height="381" fill="white" transform="matrix(-1 0 0 1 1921 0)"/>
</clipPath>
</defs>
</svg>
