<svg width="52" height="52" viewBox="0 0 52 52" fill="none" xmlns="http://www.w3.org/2000/svg">
<g clip-path="url(#clip0_1_1878)">
<path d="M48.8635 45.4039C49.6429 45.4039 50.3434 45.394 51.0308 45.4039C51.7181 45.4137 51.9895 45.6654 51.9927 46.376C52.0004 47.9353 52.0004 49.4946 51.9927 51.0539C51.9927 51.7299 51.7329 51.975 51.0637 51.9964C50.9403 51.9964 50.817 51.9964 50.6953 51.9964H1.32634C0.119371 51.9964 0.000976562 51.8763 0.000976562 50.6476C0.000976562 49.2314 0.000976562 47.8152 0.000976562 46.399C0.000976562 45.6506 0.242694 45.4121 1.00239 45.4039C1.67659 45.394 2.35078 45.4039 3.09404 45.4039C3.10884 45.0749 3.1335 44.8052 3.1335 44.5288C3.1335 30.1639 3.1335 15.7989 3.1335 1.434C3.12443 1.20857 3.12937 0.982787 3.14831 0.757968C3.20422 0.289188 3.46402 0.0145015 3.95569 0.00134277C4.12013 0.00134277 4.28457 0.00134277 4.449 0.00134277H32.0909C33.242 0.00134277 33.3883 0.152668 33.3883 1.31722C33.3883 4.00489 33.4015 6.6942 33.3768 9.37694C33.3768 9.8342 33.4936 10.0579 33.9359 10.2273C38.527 11.9807 43.1098 13.7604 47.696 15.5286C48.8356 15.9695 48.8635 16.0024 48.8635 17.2245V45.4039ZM4.73841 1.60835V45.3512H11.0462V44.5699C11.0462 39.4161 11.0462 34.265 11.0462 29.1167C11.0462 28.1215 11.2386 27.9291 12.2335 27.9291H24.2374C25.3046 27.9291 25.4937 28.1182 25.4937 29.1775V45.3578H31.7604V1.60506L4.73841 1.60835ZM33.4146 45.3611H47.2553C47.2668 45.1456 47.2849 44.9664 47.2849 44.7871C47.2849 35.7372 47.2887 26.6905 47.2964 17.6472C47.2964 17.1982 47.1451 17.0123 46.7423 16.8593C43.8712 15.7688 41.0083 14.6519 38.1438 13.5433C36.5817 12.9397 35.0195 12.3327 33.4146 11.7093V45.3611ZM23.8888 29.5345H12.6561V45.3628H23.8888V29.5345ZM1.60259 50.3845H50.3681V47.0142H1.60259V50.3845Z" fill="#36E7FF"/>
<path d="M12.1467 12.3248C11.1008 12.3248 10.0567 12.3248 9.01083 12.3248C8.28237 12.3248 8.01434 12.0485 8.0127 11.3182C8.0127 9.26871 8.0127 7.21924 8.0127 5.16977C8.0127 4.45591 8.26594 4.19438 8.96479 4.19109C11.0542 4.18451 13.1442 4.18451 15.2348 4.19109C15.9386 4.19109 16.2082 4.44933 16.2132 5.15497C16.2252 7.22418 16.2252 9.29393 16.2132 11.3642C16.2132 12.0534 15.9205 12.3182 15.2266 12.3248C14.1955 12.3331 13.1711 12.3248 12.1467 12.3248ZM14.6132 5.80303H9.65049V10.7014H14.6214L14.6132 5.80303Z" fill="#36E7FF"/>
<path d="M20.3259 8.23734C20.3259 7.2126 20.3259 6.18787 20.3259 5.16313C20.3259 4.45256 20.5808 4.19267 21.283 4.18938C23.3735 4.1828 25.4635 4.1828 27.553 4.18938C28.2551 4.18938 28.5215 4.44927 28.5248 5.1582C28.5368 7.2296 28.5368 9.29936 28.5248 11.3675C28.5248 12.055 28.2304 12.3198 27.5267 12.3231C25.458 12.3297 23.3883 12.3297 21.3175 12.3231C20.594 12.3231 20.3309 12.0435 20.3309 11.3115C20.321 10.2868 20.3259 9.26207 20.3259 8.23734ZM21.9358 10.7046H26.9297V5.80462H21.9358V10.7046Z" fill="#36E7FF"/>
<path d="M12.1287 15.6507C13.1745 15.6507 14.2187 15.6507 15.2645 15.6507C15.9222 15.6507 16.2067 15.9155 16.2117 16.5817C16.2248 18.6717 16.2248 20.7618 16.2117 22.8518C16.2117 23.5098 15.9173 23.7746 15.253 23.7762C13.1624 23.7828 11.0724 23.7828 8.98299 23.7762C8.28578 23.7762 8.0161 23.5048 8.01445 22.8091C8.00788 20.7399 8.00788 18.6701 8.01445 16.5998C8.01445 15.9073 8.28413 15.6524 9.00108 15.6474C10.0387 15.6458 11.0845 15.6507 12.1287 15.6507ZM9.63417 17.261V22.1495H14.6051V17.261H9.63417Z" fill="#36E7FF"/>
<path d="M24.45 15.6506C25.4959 15.6506 26.5417 15.6506 27.5859 15.6506C28.219 15.6506 28.5116 15.9121 28.5166 16.5339C28.533 18.6459 28.533 20.7568 28.5166 22.8665C28.5166 23.5245 28.219 23.7745 27.5448 23.7778C25.4542 23.7778 23.3637 23.7778 21.2731 23.7778C20.5858 23.7778 20.321 23.5014 20.3194 22.7909C20.3128 20.7414 20.3128 18.6919 20.3194 16.6425C20.3194 15.9006 20.5743 15.6556 21.3142 15.644C22.3666 15.6457 23.4125 15.6506 24.45 15.6506ZM26.9166 22.1642V17.2675H21.9555V22.1642H26.9166Z" fill="#36E7FF"/>
</g>
<defs>
<clipPath id="clip0_1_1878">
<rect width="52" height="52" fill="white" transform="translate(-0.000244141)"/>
</clipPath>
</defs>
</svg>
