<svg width="64" height="43" viewBox="0 0 64 43" fill="none" xmlns="http://www.w3.org/2000/svg">
<g clip-path="url(#clip0_189_5637)">
<path d="M0 29.5194C0.151667 28.9968 0.27667 28.4624 0.46167 27.9535C1.33834 25.557 3.07999 23.9656 5.20333 22.7538C7.93833 21.193 10.9117 20.2825 13.9717 19.7497C15.3583 19.508 16.2383 18.8766 16.7667 17.7073C16.5133 17.2205 16.1883 16.7695 16.04 16.2657C15.8517 15.6274 16.0667 15.0147 16.4633 14.4751C16.9483 13.8148 17.42 13.1442 17.9183 12.4463C17.34 11.883 16.9183 11.2413 17.0633 10.4226C17.1381 10.0074 17.3001 9.61369 17.5383 9.26864C18.6083 7.7283 19.705 6.205 20.8117 4.69189C21.8217 3.30474 23.405 3.30815 24.415 4.69189C25.4567 6.1233 26.4833 7.56661 27.515 9.00653C28.46 10.329 28.42 11.1868 27.3217 12.4463L28.2517 13.7722C28.6067 13.1697 28.955 12.6523 29.2333 12.0974C29.9 10.7562 30.5533 9.4048 31.1916 8.04658C31.615 7.14621 32.2567 6.58455 33.2667 6.58455C34.2767 6.58455 34.9217 7.14791 35.3467 8.04488C36.15 9.7469 36.97 11.4353 37.7867 13.1288C37.8833 13.3314 37.9984 13.5237 38.145 13.7943C38.2883 13.5203 38.3967 13.3263 38.4933 13.1271C40.3733 9.22609 42.2533 5.32561 44.1333 1.4257C44.6817 0.290453 45.6333 -0.194625 46.73 0.0640835C47.4083 0.234286 47.8517 0.658091 48.1516 1.28784C49.2272 3.53679 50.3083 5.78232 51.395 8.02446C51.4917 8.227 51.605 8.42273 51.7583 8.70527C52.3417 7.8934 52.875 7.14621 53.4117 6.40073C54.5783 4.77529 56.1917 4.77529 57.36 6.40073C58.3955 7.8395 59.4278 9.27828 60.4567 10.7171C61.6233 12.3408 61.6033 12.991 60.3433 14.5551L61.7667 16.5516C62.7267 17.8979 62.655 18.8698 61.4517 20.1003L62.8983 22.1275C63.8983 23.5435 63.76 24.6805 62.565 25.6523L64.0083 29.5091V31.4205C63.675 32.9523 63.12 34.3684 62.0983 35.5718C60.5983 37.3351 58.6867 38.4652 56.5983 39.3264C53.24 40.7204 49.72 41.471 46.15 41.9918C38.5302 43.0779 30.8146 43.2817 23.15 42.5994C20.65 42.3867 18.15 41.9629 15.66 41.6174C14.9533 41.5203 14.615 41.0591 14.7383 40.4498C14.85 39.8949 15.3267 39.626 16.0017 39.7434C24.4517 41.2191 32.9433 41.3927 41.4667 40.6183C45.8083 40.2251 50.1033 39.5681 54.2617 38.1742C56.0067 37.5887 57.6933 36.867 59.175 35.73C60.5583 34.6697 61.6417 33.3812 62.0083 31.5975C62.3917 29.7253 61.89 28.0726 60.6567 26.7076C59.8908 25.9018 59.042 25.1828 58.125 24.5631C57.3333 23.998 56.6917 23.3478 56.27 22.4662C55.575 21.0177 54.875 19.5727 54.1817 18.1243C53.8367 17.4043 53.9567 16.8631 54.515 16.5925C55.0733 16.3218 55.5267 16.5686 55.8833 17.3039C56.5383 18.6536 57.2033 19.9982 57.8317 21.3598C58.1416 22.0828 58.6765 22.6811 59.3533 23.0619C59.7533 23.2831 60.1 23.6048 60.4933 23.8414C60.6996 23.9718 60.9345 24.0478 61.1767 24.0627C61.7033 24.0763 61.8167 23.8482 61.5017 23.3972C60.7767 22.3606 60.0283 21.3411 59.2933 20.3097C58.5583 19.2783 58.8616 18.6485 60.07 18.5089C60.57 18.4511 60.6733 18.2451 60.36 17.8009C59.6316 16.7661 58.885 15.7466 58.1516 14.7134C57.445 13.7177 57.7467 13.0522 58.9567 12.9246C59.4333 12.8735 59.5433 12.6676 59.255 12.2625C58.0983 10.6269 56.9217 9.00482 55.755 7.37598C55.4967 7.01345 55.2683 7.0509 55.025 7.39471C54.3166 8.3921 53.59 9.37586 52.9016 10.3869C52.8533 10.4815 52.8254 10.5857 52.8199 10.6923C52.8145 10.7989 52.8315 10.9054 52.87 11.0047C53.14 11.6481 53.465 12.2659 53.7617 12.8974C54.095 13.602 53.9617 14.179 53.4283 14.4292C52.895 14.6794 52.4183 14.4292 52.095 13.7484C50.285 10.0039 48.4756 6.25548 46.6667 2.50308C46.5293 2.28651 46.3689 2.08616 46.1883 1.90568C46.0077 2.0959 45.8469 2.30465 45.7083 2.52861C43.0617 7.95921 40.42 13.3932 37.7833 18.8306C37.6909 19.0439 37.5763 19.2465 37.4416 19.4348C37.13 19.828 36.7233 19.9455 36.275 19.697C35.8266 19.4485 35.6333 19.0161 35.8583 18.5055C36.1783 17.7924 36.5767 17.1167 36.885 16.3984C36.9906 16.1404 36.9942 15.8506 36.895 15.59C35.8467 13.3518 34.7683 11.1272 33.685 8.9061C33.5722 8.74391 33.4363 8.59992 33.2817 8.4789C33.1308 8.60647 32.9974 8.75416 32.885 8.91802C32.035 10.5928 31.31 12.3459 30.3383 13.9441C28.02 17.7583 24.6017 19.954 20.2433 20.5735C16.2617 21.142 12.2967 21.7785 8.52002 23.261C6.91835 23.889 5.39666 24.6703 4.11666 25.8651C1.11666 28.67 1.15332 32.4673 4.23165 35.2041C5.94665 36.7359 8.00834 37.5768 10.135 38.2865C10.6883 38.4703 11.2567 38.6082 11.8017 38.809C11.9133 38.8417 12.0172 38.8971 12.1073 38.972C12.1973 39.0469 12.2715 39.1396 12.3254 39.2447C12.3793 39.3497 12.4118 39.4648 12.4209 39.583C12.43 39.7012 12.4155 39.82 12.3783 39.9324C12.25 40.46 11.85 40.7476 11.34 40.6132C7.71001 39.6175 4.20332 38.3716 1.69832 35.2637C0.791657 34.137 0.333351 32.8077 0.0183512 31.412L0 29.5194ZM18.3067 18.8919C21.68 18.6962 24.5817 17.6426 26.96 15.2445C26.88 15.1185 26.83 15.03 26.7716 14.9466C26.1833 14.1245 25.5783 13.3144 25.01 12.4787C24.4917 11.7162 24.8433 10.9894 25.7367 10.889C25.9033 10.8702 26.0867 10.8379 26.4617 10.7817L22.6133 5.41526L18.8083 10.712C18.9598 10.7812 19.1164 10.8382 19.2767 10.8822C20.5233 11.0405 20.7917 11.6804 20.0433 12.7255C19.42 13.5986 18.79 14.4683 18.1683 15.3449C18.0417 15.5151 17.9433 15.7176 17.7967 15.9678C18.0317 16.0223 18.165 16.0682 18.2967 16.0853C19.3917 16.2146 19.6917 16.9158 19.0417 17.8434C18.8217 18.1668 18.5917 18.4851 18.3067 18.8919Z" fill="#36E7FF"/>
<path d="M32.7384 37.9168C26.2734 37.8385 20.5918 37.4555 15.0234 36.0173C13.0451 35.5067 11.0934 34.8872 9.36511 33.7366C8.82158 33.384 8.33046 32.9535 7.90677 32.4584C6.83511 31.1733 6.90679 29.633 8.04679 28.3735C9.12179 27.1821 10.5251 26.5234 11.9718 25.9702C15.3051 24.6937 18.7885 24.064 22.3051 23.681C24.5601 23.4359 26.8301 23.3304 29.0935 23.1704C29.2801 23.1568 29.4668 23.1551 29.6551 23.1568C30.3218 23.1653 30.7468 23.5466 30.7401 24.1167C30.7334 24.6869 30.3351 25.0273 29.6984 25.0665C27.6418 25.1958 25.5768 25.2571 23.5318 25.4664C19.4051 25.892 15.3118 26.5268 11.4801 28.2765C10.8734 28.554 10.3025 28.9067 9.78011 29.3266C8.78011 30.1317 8.76346 30.8704 9.76346 31.655C10.4424 32.178 11.1791 32.6179 11.9585 32.9656C14.3351 34.0361 16.8618 34.5757 19.4101 35.008C25.0018 35.9475 30.6334 36.1739 36.2818 35.8845C41.1968 35.6326 46.0835 35.1186 50.7685 33.4626C51.9457 33.0417 53.0658 32.4698 54.1018 31.7605C55.3135 30.9334 55.2568 30.0909 54.0734 29.1922C52.6834 28.1352 51.0584 27.5838 49.4151 27.1072C44.5551 25.6945 39.5651 25.2486 34.5418 25.075C33.5785 25.0426 33.1351 24.7482 33.1335 24.1065C33.1318 23.4649 33.6035 23.1279 34.6018 23.1653C39.9801 23.3644 45.3251 23.8461 50.5018 25.463C51.7468 25.8511 52.9434 26.4213 54.1218 26.9949C54.6978 27.2913 55.2261 27.6758 55.6884 28.1352C57.2701 29.6415 57.2384 31.5223 55.6201 32.9979C54.1084 34.3783 52.2385 35.054 50.3418 35.6378C46.4151 36.8462 42.3751 37.3874 38.2985 37.67C36.1968 37.8061 34.0918 37.8572 32.7384 37.9168Z" fill="#36E7FF"/>
<path d="M22.705 27.5078C23.5016 27.6133 24.2666 27.678 25.0183 27.8261C25.6466 27.9469 25.96 28.4167 25.8516 28.946C25.7433 29.4754 25.2966 29.797 24.67 29.6762C23.3605 29.4286 22.0177 29.4286 20.7083 29.6762C20.1016 29.7885 19.6916 29.506 19.5766 28.9647C19.4616 28.4235 19.73 27.9657 20.32 27.8465C21.1183 27.6865 21.925 27.6099 22.705 27.5078Z" fill="#36E7FF"/>
<path d="M46.7984 28.8242C47.5884 28.9331 48.3517 29.0114 49.105 29.1527C49.7217 29.2684 50.0217 29.7433 49.91 30.2965C49.7984 30.8496 49.3284 31.1475 48.7167 31.0147C47.4339 30.7305 46.1062 30.7305 44.8234 31.0147C44.2267 31.1458 43.7384 30.8173 43.6367 30.2761C43.535 29.7348 43.8567 29.2548 44.47 29.1476C45.245 29.0097 46.03 28.9297 46.7984 28.8242Z" fill="#36E7FF"/>
<path d="M33.1668 33.0223C31.7555 32.7268 30.3011 32.7187 28.8868 32.9985C28.3768 33.0921 27.9901 32.8095 27.8868 32.2717C27.7835 31.7338 27.9885 31.3169 28.5068 31.1824C30.1435 30.7569 31.8584 30.7569 33.4951 31.1824C34.0151 31.3135 34.2251 31.727 34.1385 32.2564C34.0518 32.7857 33.6668 33.0053 33.1668 33.0223Z" fill="#36E7FF"/>
<path d="M31.5 18.8586C31.5024 18.9859 31.4801 19.1124 31.4343 19.2308C31.3884 19.3492 31.3201 19.4571 31.2331 19.5483C31.1461 19.6395 31.0422 19.7121 30.9275 19.762C30.8129 19.8119 30.6896 19.8381 30.5649 19.8389C29.9766 19.8679 29.5266 19.4747 29.5083 18.9198C29.5054 18.7923 29.5274 18.6654 29.5728 18.5465C29.6183 18.4276 29.6864 18.3191 29.7732 18.2273C29.86 18.1355 29.9638 18.0622 30.0785 18.0116C30.1933 17.9611 30.3167 17.9342 30.4416 17.9327C30.5712 17.9194 30.7022 17.933 30.8265 17.9729C30.9508 18.0127 31.0658 18.0779 31.1648 18.1644C31.2637 18.251 31.3444 18.3571 31.402 18.4764C31.4596 18.5957 31.493 18.7257 31.5 18.8586Z" fill="#36E7FF"/>
<path d="M51.2551 21.5608C51.2602 21.688 51.2396 21.8149 51.1948 21.9336C51.15 22.0524 51.0819 22.1606 50.9946 22.2515C50.9074 22.3424 50.8028 22.414 50.6873 22.4621C50.5719 22.5102 50.4481 22.5336 50.3234 22.5309C49.7351 22.5564 49.2818 22.165 49.2651 21.6169C49.2663 21.3599 49.3651 21.1133 49.5408 20.9292C49.7164 20.745 49.9552 20.6377 50.2068 20.6297C50.3362 20.6167 50.467 20.6307 50.5909 20.6711C50.7148 20.7114 50.8294 20.7772 50.9276 20.8644C51.0257 20.9515 51.1054 21.0583 51.1617 21.178C51.2181 21.2978 51.2499 21.428 51.2551 21.5608Z" fill="#36E7FF"/>
<path d="M46.7384 17.3518C46.9898 17.3463 47.2333 17.4418 47.4163 17.6179C47.5993 17.794 47.7072 18.0364 47.7168 18.293C47.7144 18.4254 47.6857 18.5558 47.6324 18.6765C47.5791 18.7972 47.5023 18.9055 47.4068 18.995C47.3112 19.0844 47.1989 19.1531 47.0765 19.1969C46.9542 19.2407 46.8244 19.2586 46.6951 19.2496C46.1284 19.2393 45.7384 18.8581 45.7334 18.3117C45.7284 17.7654 46.1484 17.3399 46.7384 17.3518Z" fill="#36E7FF"/>
</g>
<defs>
<clipPath id="clip0_189_5637">
<rect width="64" height="43" fill="white"/>
</clipPath>
</defs>
</svg>
