<svg width="58" height="57" viewBox="0 0 58 57" fill="none" xmlns="http://www.w3.org/2000/svg">
<g clip-path="url(#clip0_85_15910)">
<path d="M-0.000198245 47.0505C0.439333 45.6136 1.4211 44.5141 2.27449 43.3399C4.8422 39.8033 7.43407 36.282 9.99423 32.7394C10.2064 32.4358 10.3251 32.0756 10.3356 31.7041C10.3613 28.4027 10.3446 25.1028 10.3597 21.8015C10.3597 21.4029 10.2827 21.1555 9.90663 20.9448C9.13933 20.5234 8.83876 19.6194 9.07288 18.7123C9.16643 18.3096 9.38918 17.9495 9.7064 17.6882C10.0236 17.4269 10.4174 17.2791 10.8265 17.2678C13.5261 17.2484 16.2257 17.2484 18.9253 17.2678C19.3449 17.2715 19.7509 17.4185 20.0775 17.6849C20.404 17.9513 20.6319 18.3214 20.7242 18.7352C20.9478 19.6514 20.6381 20.5371 19.8648 20.9601C19.5008 21.1601 19.4238 21.3938 19.4253 21.7709C19.4374 25.0922 19.4253 28.4134 19.4464 31.7346C19.4584 32.088 19.5729 32.43 19.7757 32.718C22.7029 36.7646 25.6472 40.8004 28.6086 44.8256C28.6524 44.8882 28.6977 44.9493 28.743 45.0104C29.7308 46.3496 30.2021 47.759 29.314 49.4112H43.965V48.8142C43.965 47.0581 43.965 45.302 43.965 43.546C43.965 42.6878 44.2852 42.3717 45.1295 42.3641C45.4664 42.3641 45.8047 42.3641 46.1793 42.3641V20.8517H42.4833V21.4625C42.4833 25.5655 42.4924 29.6686 42.4833 33.7732C42.4727 37.3647 39.7525 40.0415 36.2377 39.9438C32.9526 39.8537 30.4317 36.9829 30.4709 33.4785C30.5163 29.3754 30.4906 25.2723 30.4936 21.1693C30.4936 21.0761 30.483 20.983 30.4709 20.7967C29.6629 20.7967 28.8608 20.7967 28.0543 20.7967C26.929 20.7967 26.6949 20.5554 26.6858 19.4224C26.6858 17.9717 26.6858 16.5211 26.6858 15.0704C26.6858 14.2275 26.9879 13.9343 27.8096 13.9298C28.6751 13.9298 29.539 13.9298 30.4468 13.9298V10.6635C30.3637 10.6299 30.2489 10.5765 30.1296 10.5337C28.5014 9.94122 27.6888 8.50736 27.9773 6.72688C28.0922 5.96336 28.4768 5.2678 29.06 4.76893C29.6431 4.27005 30.3853 4.00164 31.1491 4.01339C34.7167 3.98895 38.2848 3.98895 41.8535 4.01339C43.5829 4.02866 44.7942 5.2014 45.0434 6.97883C45.2655 8.5547 44.3713 9.98703 42.8246 10.5383C42.7174 10.5765 42.6132 10.6207 42.4772 10.6742C42.4772 11.6041 42.4772 12.5371 42.4772 13.4716C42.4772 13.6014 42.4908 13.7328 42.5014 13.8992H46.2186V1.28616C46.2186 0.282918 46.4995 0.00348013 47.5054 0.00195312H52.5457C53.5093 0.00195312 53.8039 0.296662 53.8039 1.25867C53.8039 5.22888 53.8039 9.19909 53.8039 13.1693V13.9404H56.4698C57.6569 13.9404 57.8729 14.1619 57.8729 15.3835C57.8729 16.7959 57.8729 18.2084 57.8729 19.6209C57.8729 20.4775 57.5512 20.7982 56.7069 20.8028C55.7644 20.8028 54.8234 20.8028 53.8371 20.8028V42.3687C54.1785 42.3687 54.5274 42.3687 54.8778 42.3687C55.7251 42.3763 56.0468 42.6909 56.0499 43.5445C56.0499 45.2807 56.0499 47.0184 56.0499 48.7546V49.4295C57.0407 49.5013 57.6192 50.0938 57.9923 50.9428V56.3255C57.7294 56.8493 57.299 57.0004 56.7341 56.9989C50.5837 56.9867 44.4337 56.9867 38.2843 56.9989H1.33501C0.360791 56.9989 0.085896 56.724 0.0828751 55.7468C0.0828751 54.5649 0.0949585 53.3814 0.0828751 52.1995C0.0707918 51.3322 0.0556869 50.4755 0.753499 49.9365C0.477093 49.341 0.241468 48.8279 -0.00170898 48.3164L-0.000198245 47.0505ZM12.2342 31.6201C12.4834 31.6201 12.7084 31.6201 12.9335 31.6201C13.1586 31.6201 13.4244 31.6338 13.6676 31.6644C14.1932 31.7285 14.5028 32.0736 14.4998 32.5684C14.4968 33.0631 14.1902 33.4143 13.66 33.4647C13.1904 33.5133 12.718 33.5291 12.2463 33.512C12.0716 33.4944 11.8956 33.5272 11.7386 33.6067C11.5817 33.6861 11.4503 33.809 11.3596 33.961C10.1513 35.6621 8.90371 37.3433 7.67121 39.0306C5.89194 41.4738 4.10662 43.9079 2.33793 46.3603C1.91501 46.9451 1.6084 47.6048 1.98147 48.3301C2.37418 49.0936 3.08256 49.3837 3.89668 49.4524C3.99032 49.4601 4.08548 49.4524 4.17912 49.4524H25.6346C25.7858 49.4563 25.937 49.4518 26.0877 49.4387C27.7824 49.2387 28.4304 47.8644 27.5075 46.4274C27.3837 46.235 27.2477 46.0518 27.1133 45.8686C24.0925 41.7253 21.0716 37.58 18.0508 33.4326C17.8189 33.1392 17.6772 32.7835 17.643 32.4096C17.6143 28.4393 17.6218 24.4691 17.6279 20.4989C17.6279 19.7828 17.8046 19.601 18.4933 19.459C18.7029 19.3997 18.9091 19.3288 19.1111 19.2468C18.3287 18.9719 11.1301 19.0376 10.7948 19.285C10.8698 19.3414 10.9521 19.3871 11.0394 19.4209C12.0801 19.6438 12.1662 19.7476 12.1677 20.8165C12.1677 21.9414 12.1677 23.0668 12.1677 24.1927V25.7564C12.6541 25.7808 13.074 25.7976 13.4788 25.8205C14.1449 25.8587 14.4907 26.1641 14.5013 26.7154C14.5119 27.2666 14.1418 27.6316 13.4591 27.6575C13.0498 27.6758 12.639 27.6575 12.2176 27.6575V28.7264C12.7371 28.7264 13.2099 28.7005 13.6781 28.7341C13.7924 28.7373 13.9048 28.7638 14.0086 28.8121C14.1124 28.8604 14.2055 28.9294 14.2823 29.015C14.359 29.1006 14.4179 29.201 14.4553 29.3101C14.4926 29.4193 14.5078 29.535 14.4998 29.6503C14.5036 29.7651 14.4848 29.8796 14.4444 29.987C14.404 30.0944 14.3429 30.1926 14.2646 30.2759C14.1863 30.3592 14.0924 30.4259 13.9883 30.4721C13.8843 30.5183 13.7721 30.5431 13.6585 30.5451C13.4334 30.5665 13.2054 30.5604 12.9788 30.5665C12.0831 30.6001 12.0831 30.6001 12.2342 31.6201ZM56.1631 51.3291H1.93918V55.1253H56.1631V51.3291ZM32.4118 34.6558C32.4132 34.7361 32.4203 34.8162 32.433 34.8955C32.6731 35.9032 33.2717 36.7864 34.1145 37.3766C34.9574 37.9668 35.9856 38.2228 37.0032 38.0958C38.0208 37.9688 38.9565 37.4677 39.6321 36.6879C40.3077 35.9082 40.6758 34.9044 40.6663 33.8678C40.6799 31.0826 40.6663 28.2958 40.6663 25.509C40.6663 25.3823 40.6481 25.254 40.6376 25.1105H32.3514V26.9429C32.8121 26.9429 33.2275 26.923 33.6398 26.9429C34.2832 26.9826 34.6397 27.3399 34.6276 27.885C34.6155 28.4302 34.2757 28.731 33.6534 28.7753C33.2108 28.8074 32.7668 28.8226 32.3393 28.8455V29.861C32.7834 29.861 33.1942 29.8518 33.6035 29.861C34.2591 29.8793 34.617 30.1984 34.6261 30.7543C34.6352 31.3101 34.2561 31.6705 33.5809 31.6949C33.1716 31.7071 32.7623 31.6949 32.3363 31.6949V32.7715C32.8514 32.7715 33.3392 32.7363 33.8211 32.7806C33.935 32.7878 34.0464 32.8178 34.1488 32.8689C34.2512 32.9199 34.3425 32.9911 34.4174 33.0782C34.4924 33.1653 34.5494 33.2666 34.5852 33.3763C34.621 33.4859 34.6349 33.6016 34.6261 33.7167C34.608 34.216 34.2893 34.5428 33.7561 34.584C33.3256 34.6191 32.8937 34.6313 32.4118 34.6558ZM56.0363 15.8202H28.5467V18.9292H56.0363V15.8202ZM48.0703 20.8517V42.3076H51.9581V20.8517H48.0703ZM32.3046 13.7969H40.6708C40.6708 12.5371 40.6708 11.3171 40.6708 10.0985C40.6708 9.222 40.8958 8.97615 41.7447 8.90133C42.7114 8.81581 43.2853 8.22181 43.2627 7.33004C43.2385 6.41384 42.6207 5.84427 41.6133 5.84274C38.1987 5.84274 34.7832 5.84274 31.3666 5.84274C30.4151 5.84274 29.7852 6.4062 29.7127 7.28575C29.6448 8.10728 30.2187 8.74252 31.1537 8.88148C32.1822 9.03418 32.3031 9.17619 32.3046 10.239C32.3061 11.4132 32.3046 12.5906 32.3046 13.7923V13.7969ZM48.0718 1.871V13.8916H51.9581V1.86642L48.0718 1.871ZM45.8002 49.4066H54.2011V44.2423H45.8002V49.4066ZM32.3348 23.2048H40.63V20.8608H32.3348V23.2048Z" fill="#36E7FF"/>
</g>
<defs>
<clipPath id="clip0_85_15910">
<rect width="58" height="57" fill="white" transform="translate(-0.000244141)"/>
</clipPath>
</defs>
</svg>
