<svg width="51" height="49" viewBox="0 0 51 49" fill="none" xmlns="http://www.w3.org/2000/svg">
<g clip-path="url(#clip0_109_5833)">
<path d="M20.72 14.3063C19.4009 15.4202 17.7548 16.1134 16.0085 16.2904C13.2746 16.5798 9.21561 15.2581 7.91727 11.3962C7.04056 8.78827 6.67584 6.10963 6.47172 3.39563C6.41818 2.65603 6.3713 1.9132 6.36126 1.17039C6.35122 0.427574 6.76284 -0.0226017 7.52244 -9.2208e-05C11.036 0.10924 14.5094 0.427585 17.9192 1.38263C23.0557 2.82002 24.6117 8.58889 22.2927 12.3898C22.2358 12.4798 22.1856 12.5763 22.1455 12.6502L24.4209 16.0267L26.5458 12.8657C26.1911 11.5987 25.6858 10.4218 25.5419 9.2095C25.1203 5.37002 27.4091 2.34411 31.4647 1.22507C34.6704 0.340765 37.9732 0.0899459 41.2893 -9.2208e-05C42.0322 -0.0226017 42.4906 0.38577 42.4638 1.09C42.3367 4.48572 42.002 7.84285 41.0049 11.1421C39.4957 16.1424 32.9739 17.8499 28.7509 14.7854C28.5569 14.6472 28.3628 14.5057 28.1118 14.3192C26.7733 16.0717 25.5787 17.8564 25.5352 20.1073C25.4984 21.8888 25.4951 23.6703 25.4549 25.4517C25.463 25.5852 25.4433 25.719 25.3971 25.8451C25.3508 25.9712 25.2788 26.0872 25.1854 26.1863C25.0919 26.2854 24.9788 26.3656 24.8527 26.4222C24.7267 26.4789 24.5901 26.5108 24.451 26.5161C24.307 26.5187 24.1638 26.4936 24.03 26.4424C23.8961 26.3912 23.7742 26.3149 23.6714 26.2179C23.5686 26.1209 23.4869 26.0051 23.4312 25.8775C23.3755 25.7498 23.3467 25.6127 23.3468 25.4742C23.3267 25.2845 23.3468 25.0916 23.3468 24.9019C23.3468 23.458 23.2832 22.0078 23.3234 20.5736C23.3702 18.7021 22.6207 17.1039 21.6235 15.5733C21.3558 15.1617 21.0513 14.7694 20.72 14.3063ZM8.51626 2.06113C8.58988 3.05476 8.63003 3.93907 8.72708 4.82016C8.97135 7.03574 9.25244 9.25452 10.1927 11.319C11.6684 14.5571 16.748 15.3385 19.2911 12.7146C17.5658 10.9237 15.592 9.36988 13.4252 8.0969C12.7995 7.74318 12.592 7.18365 12.8798 6.6595C12.9514 6.53243 13.0503 6.42145 13.1699 6.33391C13.2895 6.24637 13.4272 6.18427 13.5737 6.15173C13.7202 6.1192 13.8722 6.11698 14.0197 6.1452C14.1671 6.17342 14.3067 6.23143 14.4291 6.31542C15.1431 6.69441 15.8266 7.12437 16.4736 7.60168C17.8824 8.68535 19.2443 9.82691 20.623 10.9395C21.9615 8.8397 21.1015 4.74942 18.0564 3.62073C15.0113 2.49204 11.8424 2.26693 8.51626 2.06113ZM28.1955 10.9942C29.4035 9.99092 30.5379 8.98121 31.7425 8.06153C32.617 7.41605 33.5323 6.82323 34.4831 6.28649C34.6032 6.20695 34.7399 6.15352 34.8837 6.12993C35.0275 6.10633 35.1749 6.11314 35.3157 6.14987C35.4565 6.1866 35.5872 6.25237 35.6989 6.3426C35.8105 6.43284 35.9003 6.54538 35.9621 6.67237C36.086 6.91197 36.1093 7.18818 36.0271 7.4438C35.9448 7.69942 35.7634 7.91485 35.5204 8.04544C35.43 8.10332 35.3296 8.14836 35.2326 8.20302C33.1349 9.45801 31.2216 10.9775 29.544 12.721C32.3682 15.4414 37.5984 14.4028 38.8165 10.9588C39.5186 8.85953 39.96 6.68783 40.1315 4.48894C40.2085 3.7011 40.2453 2.90685 40.3055 2.06435C37.1099 2.25085 34.0614 2.49845 31.1335 3.48566C29.3232 4.09341 28.2858 5.35396 27.7872 7.07433C27.4057 8.38381 27.5514 9.78335 28.1955 10.9942Z" fill="#36E7FF"/>
<path d="M13.3582 48.9809C9.35946 48.9809 5.36072 48.9809 1.36197 48.9809C0.998398 48.9905 0.642938 48.8766 0.358094 48.6593C0.240233 48.5288 0.155825 48.3735 0.111661 48.206C0.0674969 48.0385 0.0648029 47.8633 0.103777 47.6946C0.214203 47.3923 0.599038 47.1576 0.916931 46.9679C1.07755 46.8714 1.34858 46.9357 1.56608 46.9357C9.03488 46.9357 16.5037 46.9357 23.9859 46.9357C28.6137 46.9357 32.5388 45.463 35.778 42.2087C39.8236 38.1441 43.983 34.1696 48.0888 30.1693C49.3537 28.9313 49.0024 27.1241 47.3928 26.6321C47.0254 26.5723 46.6543 26.5358 46.2818 26.5228C44.6422 26.272 43.4476 26.8765 42.3601 28.0727C41.0216 29.5552 39.4756 30.88 38.01 32.2724C37.8484 32.4659 37.6173 32.5943 37.3622 32.6324C37.1071 32.6705 36.8464 32.6155 36.6313 32.4782C36.4352 32.3727 36.2833 32.205 36.2016 32.0039C36.1198 31.8027 36.1132 31.5805 36.1829 31.3752C36.2561 31.1547 36.3861 30.9555 36.561 30.7964C38.3457 29.0642 40.1404 27.3374 41.9451 25.616C42.3174 25.2349 42.7715 24.9363 43.276 24.7408C43.7805 24.5453 44.3232 24.4577 44.8664 24.4841C45.4587 24.5098 46.0576 24.4841 46.6533 24.4841C48.5238 24.4841 49.8824 25.3266 50.6253 26.9537C51.3681 28.5808 51.0235 30.1404 49.7519 31.4202C47.5701 33.6165 45.3315 35.7614 43.1163 37.9255C41.026 39.9685 38.9335 42.0104 36.8388 44.0513C33.526 47.2927 29.4536 48.8554 24.7923 48.9423C20.9943 49.0162 17.193 48.9584 13.3917 48.9584L13.3582 48.9809Z" fill="#36E7FF"/>
<path d="M24.0458 40.823H18.3572C17.514 40.823 17.0455 40.4499 17.0421 39.8068C17.0388 39.1637 17.5039 38.7842 18.3472 38.781C22.1017 38.781 25.8561 38.781 29.6106 38.781C31.1633 38.781 32.1738 37.5719 31.799 36.2085C31.6755 35.7765 31.4073 35.3956 31.036 35.1248C30.6646 34.8539 30.2107 34.7081 29.7444 34.71C27.1645 34.5975 24.5745 34.5653 22.0113 34.3016C20.201 34.1151 18.4241 33.6328 16.6573 33.2244C14.5994 32.7485 12.5147 32.3015 10.4568 32.9639C9.13835 33.3884 7.91359 34.1119 6.69556 34.7872C5.47753 35.4625 4.26956 36.2696 2.83068 36.5461C2.27002 36.6579 1.69992 36.7204 1.12746 36.7327C0.984941 36.742 0.841947 36.7232 0.707218 36.6776C0.572489 36.632 0.448826 36.5605 0.343837 36.4674C0.238848 36.3743 0.154729 36.2616 0.0965868 36.1362C0.0384443 36.0109 0.00752327 35.8754 0.00570084 35.7382C0.0038784 35.6009 0.0311719 35.4647 0.0859664 35.3379C0.140761 35.2112 0.22191 35.0965 0.324394 35.0009C0.426878 34.9052 0.54854 34.8307 0.682015 34.7818C0.815489 34.7329 0.957945 34.7106 1.10066 34.7164C2.43916 34.6972 3.6204 34.1891 4.75812 33.5427C6.09561 32.7191 7.47975 31.9676 8.90411 31.2918C11.3569 30.2338 13.9603 30.3818 16.4398 31.0892C20.7899 32.3337 25.2304 32.652 29.7277 32.6584C30.4606 32.6472 31.1839 32.8197 31.8264 33.1588C32.4689 33.4979 33.0083 33.992 33.3916 34.5924C33.775 35.1928 33.9889 35.8788 34.0124 36.5828C34.0359 37.2868 33.8682 37.9846 33.5257 38.6074C33.1834 39.2813 32.6471 39.8468 31.9804 40.2367C31.3138 40.6265 30.5447 40.8244 29.7645 40.8069C27.8471 40.8455 25.9465 40.823 24.0458 40.823Z" fill="#36E7FF"/>
</g>
<defs>
<clipPath id="clip0_109_5833">
<rect width="51" height="49" fill="white"/>
</clipPath>
</defs>
</svg>
