<svg width="34" height="34" viewBox="0 0 34 34" fill="none" xmlns="http://www.w3.org/2000/svg">
<path fill-rule="evenodd" clip-rule="evenodd" d="M16.9999 4.9585C10.36 4.9585 4.95825 10.3602 4.95825 17.0002C4.95825 23.6401 10.36 29.0418 16.9999 29.0418C23.6398 29.0418 29.0416 23.6401 29.0416 17.0002C29.0416 10.3602 23.6398 4.9585 16.9999 4.9585ZM16.9999 31.1668C9.18842 31.1668 2.83325 24.8117 2.83325 17.0002C2.83325 9.18866 9.18842 2.8335 16.9999 2.8335C24.8114 2.8335 31.1666 9.18866 31.1666 17.0002C31.1666 24.8117 24.8114 31.1668 16.9999 31.1668Z" fill="white"/>
<path fill-rule="evenodd" clip-rule="evenodd" d="M21.9181 20.1062C21.6461 20.1062 21.3727 20.0028 21.1658 19.7931L16.9994 15.6097L12.8358 19.7931C12.4222 20.2096 11.7493 20.2096 11.3328 19.796C10.9177 19.3823 10.9148 18.7108 11.3299 18.2943L16.2472 13.3544C16.6453 12.9535 17.3536 12.9535 17.7531 13.3544L22.6703 18.2943C23.084 18.7108 23.0826 19.3823 22.6675 19.796C22.4607 20.0028 22.1887 20.1062 21.9181 20.1062Z" fill="white"/>
</svg>
