<svg width="153" height="45" viewBox="0 0 153 45" fill="none" xmlns="http://www.w3.org/2000/svg">
<g clip-path="url(#clip0_102_2902)">
<path d="M134.859 29.0537C134.165 29.5591 133.418 29.9867 132.63 30.3287H151.725V43.725H53.7382V32.8786H52.4631V45H153V29.0537H134.859Z" fill="white"/>
<path d="M60.4716 37.0475H61.6779C61.9571 37.0365 62.2297 37.1334 62.4393 37.3181C62.5365 37.4068 62.6133 37.5154 62.6648 37.6365C62.7162 37.7576 62.741 37.8883 62.7375 38.0198C62.7417 38.152 62.7172 38.2836 62.6657 38.4056C62.6143 38.5275 62.5371 38.6368 62.4393 38.7261C62.2303 38.9156 61.9554 39.016 61.6734 39.0058H60.4716V37.0475ZM59.8203 34.4013V39.6341H61.7192C61.9414 39.6419 62.1629 39.6054 62.3708 39.5266C62.5787 39.4479 62.7689 39.3285 62.9301 39.1755C63.2363 38.8641 63.4079 38.445 63.4079 38.0083C63.4079 37.5717 63.2363 37.1525 62.9301 36.8411C62.6047 36.5345 62.1708 36.3696 61.7238 36.3825H60.4625V35.0066H63.0219V34.3829L59.8203 34.4013Z" fill="white"/>
<path d="M68.4066 35.3093L69.4249 37.7905H67.4021L68.4066 35.3093ZM68.0856 34.3921L65.939 39.6341H66.6362L67.1545 38.3775H69.6726L70.2138 39.6341H70.9248L68.7139 34.3875L68.0856 34.3921Z" fill="white"/>
<path d="M79.1947 34.4012V39.0379H77.2453V34.4012H76.6032V39.0379H74.6584V34.4012H74.0071V39.6525H79.8552V34.4012H79.1947Z" fill="white"/>
<path d="M86.5702 34.4012L84.8868 36.6301H84.1896V34.4012H83.5383V39.6525H84.1896V37.2447H84.896L86.7399 39.6525H87.5792L85.4877 36.9283L87.405 34.4012H86.5702Z" fill="white"/>
<path d="M91.1983 38.5013C90.8336 38.156 90.6006 37.6944 90.5394 37.1958C90.4782 36.6973 90.5927 36.1931 90.8632 35.7698C91.1336 35.3466 91.5431 35.0308 92.0212 34.8768C92.4993 34.7228 93.0161 34.7402 93.4828 34.9259C93.9495 35.1117 94.3368 35.4543 94.5782 35.8948C94.8196 36.3352 94.9 36.846 94.8055 37.3393C94.7109 37.8326 94.4475 38.2775 94.0604 38.5975C93.6732 38.9176 93.1867 39.0928 92.6844 39.0929C92.4093 39.1019 92.1353 39.054 91.8796 38.9522C91.6239 38.8504 91.3919 38.6969 91.1983 38.5013ZM90.7121 35.0892C90.2114 35.6109 89.9319 36.3061 89.9319 37.0291C89.9319 37.7522 90.2114 38.4473 90.7121 38.9691C91.2485 39.4645 91.9519 39.7396 92.6821 39.7396C93.4123 39.7396 94.1157 39.4645 94.6521 38.9691C95.152 38.446 95.431 37.7504 95.431 37.0268C95.431 36.3033 95.152 35.6077 94.6521 35.0846C94.1177 34.5852 93.4136 34.3074 92.6821 34.3074C91.9506 34.3074 91.2465 34.5852 90.7121 35.0846" fill="white"/>
<path d="M99.413 35.0479H100.606C100.75 35.0433 100.894 35.0673 101.03 35.1184C101.165 35.1696 101.289 35.2469 101.395 35.346C101.493 35.4433 101.572 35.5593 101.626 35.6873C101.679 35.8152 101.707 35.9525 101.707 36.0913C101.707 36.23 101.679 36.3673 101.626 36.4953C101.572 36.6232 101.493 36.7392 101.395 36.8365C101.289 36.9356 101.165 37.013 101.03 37.0641C100.894 37.1153 100.75 37.1392 100.606 37.1346H99.413V35.0479ZM98.7617 34.4104V39.6341H99.413V37.7492H100.642C100.871 37.7554 101.099 37.716 101.312 37.6333C101.526 37.5507 101.72 37.4263 101.885 37.2676C102.202 36.9488 102.38 36.5177 102.38 36.0683C102.38 35.6189 102.202 35.1878 101.885 34.869C101.72 34.7103 101.526 34.586 101.312 34.5033C101.099 34.4206 100.871 34.3813 100.642 34.3875L98.7617 34.4104Z" fill="white"/>
<path d="M105.023 34.4012V35.0158H106.619V39.6525H107.279V35.0158H108.876V34.4012H105.023Z" fill="white"/>
<path d="M112.659 38.5013C112.364 38.2117 112.162 37.8402 112.08 37.4347C111.998 37.0293 112.039 36.6085 112.199 36.2268C112.358 35.8451 112.629 35.52 112.975 35.2935C113.321 35.067 113.727 34.9495 114.141 34.9562C114.415 34.9473 114.688 34.9947 114.944 35.0954C115.199 35.1961 115.431 35.3481 115.625 35.5419C115.819 35.7357 115.972 35.9672 116.073 36.2222C116.174 36.4772 116.222 36.7503 116.214 37.0245C116.209 37.4338 116.083 37.8325 115.854 38.1715C115.624 38.5104 115.301 38.7747 114.922 38.9317C114.544 39.0888 114.129 39.1317 113.727 39.0552C113.324 38.9787 112.953 38.7862 112.659 38.5013ZM112.173 35.0892C111.673 35.6109 111.393 36.3061 111.393 37.0291C111.393 37.7522 111.673 38.4473 112.173 38.9691C112.71 39.4645 113.413 39.7396 114.143 39.7396C114.873 39.7396 115.577 39.4645 116.113 38.9691C116.613 38.446 116.892 37.7504 116.892 37.0268C116.892 36.3033 116.613 35.6077 116.113 35.0846C115.579 34.5852 114.875 34.3074 114.143 34.3074C113.412 34.3074 112.708 34.5852 112.173 35.0846" fill="white"/>
<path d="M120.622 35.0846C120.234 35.4632 119.968 35.9495 119.859 36.4806C119.751 37.0118 119.803 37.5634 120.011 38.0642C120.219 38.5649 120.573 38.9918 121.026 39.2897C121.479 39.5875 122.011 39.7426 122.553 39.735C123.133 39.7476 123.701 39.5633 124.163 39.2122C124.622 38.8603 124.946 38.3617 125.08 37.7996H124.402C124.284 38.1825 124.042 38.5151 123.714 38.7444C123.317 39.0045 122.845 39.123 122.372 39.0805C121.9 39.0381 121.456 38.8372 121.113 38.5105C120.75 38.1017 120.549 37.5738 120.549 37.0268C120.549 36.4799 120.75 35.952 121.113 35.5432C121.454 35.2221 121.892 35.0227 122.358 34.9763C122.824 34.9298 123.293 35.0388 123.691 35.2864C124.015 35.5084 124.259 35.8305 124.383 36.2036H125.048C124.96 35.8408 124.789 35.5033 124.548 35.2176C124.313 34.9384 124.016 34.7171 123.681 34.5709C123.33 34.4177 122.95 34.3396 122.567 34.3416C122.21 34.3306 121.854 34.3928 121.522 34.5246C121.19 34.6563 120.888 34.8547 120.636 35.1075" fill="white"/>
<path d="M127.645 34.4012V35.0158H129.241V39.6525H129.901V35.0158H131.497V34.4012H127.645Z" fill="white"/>
<path d="M136.011 35.3093L137.034 37.7905H135.006L136.011 35.3093ZM135.69 34.3921L133.548 39.6341H134.245L134.759 38.3775H137.281L137.804 39.6341H138.515L136.304 34.3875L135.69 34.3921Z" fill="white"/>
<path d="M144.987 34.4012V36.6393H142.267V34.4012H141.616V39.6525H142.267V37.2676H144.987V39.6525H145.638V34.4012H144.987Z" fill="white"/>
<path d="M30.5339 10.9473H32.4283L31.4788 8.36066L30.5339 10.9473Z" fill="white"/>
<path d="M17.6039 11.4335C17.6076 11.3257 17.5882 11.2184 17.5471 11.1188C17.5059 11.0191 17.444 10.9294 17.3653 10.8556C17.1973 10.7005 16.9747 10.6181 16.7461 10.6263H15.3701V12.2544H16.7461C16.9747 12.2626 17.1973 12.1802 17.3653 12.0251C17.4448 11.949 17.5072 11.857 17.5483 11.7549C17.5894 11.6529 17.6084 11.5434 17.6039 11.4335Z" fill="white"/>
<path d="M18.9982 18.4733C18.39 18.4733 17.8066 18.7149 17.3765 19.1449C16.9465 19.575 16.7048 20.1582 16.7048 20.7664C16.7048 21.3746 16.9465 21.9578 17.3765 22.3879C17.8066 22.8179 18.39 23.0595 18.9982 23.0595C19.4042 23.0661 19.8046 22.9648 20.1587 22.766C20.5004 22.5711 20.7814 22.2854 20.9705 21.9405C21.1698 21.58 21.2711 21.1736 21.2641 20.7618C21.2724 20.4587 21.2194 20.157 21.1082 19.8749C20.9971 19.5928 20.8301 19.336 20.6173 19.1199C20.4072 18.9056 20.1547 18.7374 19.8759 18.626C19.5971 18.5147 19.2982 18.4627 18.9982 18.4733Z" fill="white"/>
<path d="M24.3463 7.89292H23.1951V9.97505H24.3463C24.4852 9.98111 24.6239 9.95814 24.7534 9.9076C24.8829 9.85706 25.0005 9.78007 25.0986 9.68154C25.1932 9.58297 25.2671 9.46644 25.316 9.33883C25.3648 9.21123 25.3876 9.07513 25.3829 8.93857C25.3873 8.80067 25.3644 8.66327 25.3156 8.53421C25.2668 8.40516 25.1931 8.28697 25.0986 8.18643C25.0005 8.0879 24.8829 8.01092 24.7534 7.96038C24.6239 7.90984 24.4852 7.88686 24.3463 7.89292Z" fill="white"/>
<path d="M17.2508 9.10827C17.3243 9.03636 17.3819 8.9498 17.4198 8.8542C17.4578 8.7586 17.4752 8.6561 17.4709 8.55334C17.4729 8.44489 17.4526 8.33719 17.4113 8.23689C17.3748 8.14583 17.3202 8.06314 17.2508 7.99382C17.1784 7.92377 17.0926 7.86916 16.9985 7.8333C16.8895 7.79503 16.7746 7.7764 16.6591 7.77826H15.3564V9.31923H16.6591C16.7668 9.32591 16.8749 9.31066 16.9766 9.2744C17.0783 9.23814 17.1715 9.18162 17.2508 9.10827Z" fill="white"/>
<path d="M0 0V30.3287H82.7678C86.7519 30.3317 90.6975 29.5493 94.379 28.0262C98.0604 26.5031 101.405 24.2692 104.223 21.4523C107.04 18.6355 109.274 15.2908 110.797 11.6098C112.32 7.92884 113.103 3.98367 113.1 0H0ZM89.07 4.47156H92.1844V5.64564H89.07V4.47156ZM54.3713 4.47156H57.4902V5.64564H54.3713V4.47156ZM6.88011 6.43905H11.2329V7.89289H8.48089V9.32379H10.9853V10.7409H8.45796V12.2315H11.3476V13.6945H6.88011V6.43905ZM12.7466 24.3987H11.1825V21.4039H8.45796V24.3987H6.88011V17.1616H8.45796V19.9592H11.1825V17.1616H12.7466V24.3987ZM13.7969 6.44364H16.8012C17.3768 6.41589 17.9418 6.60582 18.3837 6.97564C18.5822 7.13509 18.7416 7.33783 18.8497 7.56835C18.9579 7.79887 19.0118 8.05107 19.0075 8.30565C19.009 8.61297 18.9333 8.91575 18.7873 9.18619C18.6463 9.45994 18.4399 9.69467 18.1864 9.86955C18.4968 10.0267 18.7549 10.2704 18.9295 10.5712C19.1075 10.8839 19.1978 11.2388 19.1909 11.5985C19.1946 11.879 19.137 12.1569 19.0221 12.4127C18.9073 12.6686 18.7379 12.8963 18.5259 13.0799C18.0884 13.4873 17.509 13.7079 16.9113 13.6945H13.7969V6.44364ZM21.732 23.4769C20.9818 24.1672 19.9995 24.5504 18.9799 24.5504C17.9604 24.5504 16.9781 24.1672 16.2279 23.4769C15.5198 22.7579 15.1228 21.7893 15.1228 20.7802C15.1228 19.7711 15.5198 18.8025 16.2279 18.0835C16.59 17.7269 17.0204 17.4472 17.4934 17.2612C17.9663 17.0752 18.4719 16.9868 18.9799 17.0011C19.6688 16.9909 20.3485 17.16 20.9522 17.4918C21.5315 17.8116 22.0085 18.2885 22.3283 18.8677C22.6655 19.4547 22.8382 20.1217 22.8282 20.7985C22.8403 21.2952 22.7505 21.7891 22.5644 22.2498C22.3782 22.7104 22.0996 23.128 21.7458 23.4769H21.732ZM23.1631 11.4243V13.6945H21.5944V6.43905H24.3785C24.7163 6.42964 25.0525 6.48766 25.3675 6.60972C25.6825 6.73178 25.97 6.91543 26.2132 7.14992C26.4475 7.38378 26.6333 7.66151 26.7601 7.96724C26.8869 8.27297 26.9521 8.60069 26.9521 8.93166C26.9521 9.26263 26.8869 9.59035 26.7601 9.89609C26.6333 10.2018 26.4475 10.4796 26.2132 10.7134C25.97 10.9479 25.6825 11.1316 25.3675 11.2536C25.0525 11.3757 24.7163 11.4337 24.3785 11.4243H23.1631ZM31.4513 25.6828H30.0019V24.3987H25.2179V17.1616H26.7912V22.954H29.2176V17.1616H30.7908V22.954H31.4651L31.4513 25.6828ZM33.419 13.6945L32.9145 12.3186H30.0248L29.5249 13.6945H27.8691L30.7082 6.43905H32.1898L35.1207 13.6945H33.419ZM41.3449 12.8185C41.0983 13.1615 40.7618 13.4297 40.3725 13.5936C39.9632 13.7654 39.5229 13.8513 39.079 13.8458C38.6435 13.8521 38.2117 13.7645 37.8131 13.589C37.4109 13.4071 37.0697 13.1131 36.8305 12.7421C36.5913 12.3711 36.4642 11.939 36.4646 11.4977H38.0012C37.997 11.6359 38.0241 11.7733 38.0805 11.8996C38.1369 12.0258 38.2211 12.1377 38.3268 12.2269C38.5379 12.4018 38.805 12.4946 39.079 12.4883C39.364 12.4978 39.6433 12.4069 39.868 12.2315C39.9747 12.1511 40.0604 12.0462 40.1179 11.9256C40.1754 11.8051 40.2029 11.6724 40.1982 11.5389C40.202 11.4119 40.1762 11.2857 40.1229 11.1703C40.0695 11.0549 39.9901 10.9534 39.8909 10.8739C39.6606 10.7 39.3765 10.6124 39.0882 10.6263H38.4231V9.30085H39.0882C39.3402 9.31173 39.5871 9.22835 39.7808 9.06696C39.8684 8.99278 39.9382 8.89986 39.9851 8.79507C40.0319 8.69029 40.0546 8.57631 40.0514 8.46158C40.0574 8.34091 40.0352 8.2205 39.9867 8.10987C39.9381 7.99924 39.8645 7.90142 39.7717 7.8241C39.5764 7.66536 39.3305 7.58231 39.079 7.5902C38.8262 7.58762 38.5801 7.67179 38.3819 7.82868C38.2847 7.90486 38.2064 8.00243 38.1531 8.11379C38.0998 8.22515 38.0729 8.3473 38.0746 8.47074H36.593C36.5851 8.0422 36.7153 7.62248 36.9646 7.27375C37.1941 6.94337 37.512 6.68429 37.8819 6.52619C38.6547 6.20817 39.5218 6.20817 40.2945 6.52619C40.6636 6.68136 40.9815 6.93725 41.2119 7.26458C41.4491 7.60957 41.5726 8.02005 41.5651 8.43865C41.5754 8.72906 41.5119 9.01734 41.3803 9.27645C41.2487 9.53556 41.0535 9.75701 40.8128 9.91999C41.0973 10.0985 41.3336 10.3442 41.5009 10.6354C41.6618 10.9242 41.7455 11.2496 41.7439 11.5802C41.7542 12.024 41.6189 12.4589 41.3587 12.8185H41.3449ZM50.1606 13.6945H48.5874V9.33296L45.2299 13.6945H44.1428V6.43905H45.7161V10.7409L49.0231 6.42988H50.1606V13.6945ZM58.9809 13.6945H57.4169V9.33296L54.0639 13.6945H52.9723V6.43905H54.5501V10.7409L57.8526 6.42988H58.9947L58.9809 13.6945ZM67.4297 13.034C66.785 13.5835 65.9603 13.8758 65.1134 13.855C64.4465 13.8641 63.7893 13.6947 63.2099 13.3642C62.6411 13.04 62.1741 12.5635 61.8614 11.9884C61.5353 11.4009 61.3677 10.7386 61.3752 10.0668C61.3607 9.56714 61.4484 9.06981 61.6329 8.6053C61.8175 8.14079 62.095 7.71889 62.4485 7.36548C62.7939 7.01058 63.2089 6.73083 63.6675 6.5438C64.126 6.35676 64.6183 6.26645 65.1134 6.27853C65.9473 6.26251 66.7595 6.5448 67.4037 7.07454C68.0478 7.60428 68.4816 8.34664 68.6268 9.16786H67.0536C66.9632 8.89385 66.8181 8.64107 66.627 8.42489C66.4438 8.21591 66.2167 8.04992 65.962 7.93875C65.6941 7.82327 65.405 7.76544 65.1134 7.76905C64.8255 7.76352 64.5396 7.81913 64.2748 7.93218C64.0099 8.04523 63.772 8.21316 63.5768 8.42489C63.1804 8.87733 62.9619 9.45837 62.9619 10.0599C62.9619 10.6614 63.1804 11.2424 63.5768 11.6949C63.7723 11.906 64.0103 12.0732 64.2752 12.1855C64.5401 12.2978 64.8258 12.3525 65.1134 12.3461C65.5589 12.3576 65.9947 12.215 66.3472 11.9425C66.7004 11.6663 66.952 11.2808 67.0628 10.8464H68.6498C68.5165 11.6976 68.0839 12.4733 67.4297 13.034ZM75.0529 13.7036L72.5072 10.1493V13.6945H70.9294V6.43905H72.5072V9.787L74.8786 6.43905H76.7133L74.2364 9.91082L76.9885 13.6945L75.0529 13.7036ZM84.8731 13.7036H83.2998V9.34214L79.9424 13.7036H78.8553V6.43905H80.4285V10.7409L83.731 6.42988H84.8914L84.8731 13.7036ZM93.6888 13.7036H92.1156V9.34214L88.7581 13.7036H87.671V6.43905H89.2443V10.7409L92.5513 6.42988H93.6888V13.7036Z" fill="white"/>
<path d="M135.52 18.0789C135.521 19.6875 135.204 21.2806 134.589 22.767C133.974 24.2534 133.072 25.6042 131.935 26.7421C130.798 27.88 129.448 28.7829 127.961 29.399C126.475 30.0152 124.882 30.3326 123.273 30.3332H103.023C107.066 30.3304 111.025 29.1765 114.437 27.0063C117.848 24.8362 120.571 21.7396 122.287 18.0789H135.52Z" fill="white"/>
</g>
<defs>
<clipPath id="clip0_102_2902">
<rect width="153" height="45" fill="white"/>
</clipPath>
</defs>
</svg>
