<svg width="61" height="56" viewBox="0 0 61 56" fill="none" xmlns="http://www.w3.org/2000/svg">
<path d="M60.418 54.8454H58.4424V50.5968C58.4316 50.4466 58.3625 50.3053 58.2481 50.1989C58.1336 50.0925 57.9815 50.0283 57.82 50.0183H55.8466V23.4656H59.074C59.2359 23.4555 59.3884 23.391 59.5029 23.2842C59.6174 23.1773 59.6862 23.0354 59.6965 22.8849V10.2353C59.6857 10.0852 59.6166 9.94378 59.5021 9.83739C59.3877 9.731 59.2356 9.66682 59.074 9.65678H43.6978C42.9838 6.90458 41.2944 4.45566 38.9014 2.70405C36.5083 0.952438 33.5508 0 30.5047 0C27.4586 0 24.5011 0.952438 22.1081 2.70405C19.715 4.45566 18.0256 6.90458 17.3116 9.65678H1.93077C1.76901 9.66677 1.6166 9.73087 1.50175 9.83722C1.3869 9.94356 1.31738 10.085 1.30603 10.2353V22.8764C1.31684 23.027 1.38613 23.169 1.50103 23.2758C1.61593 23.3825 1.76864 23.4469 1.93077 23.457H5.15816V50.0097H3.18484C3.02291 50.0192 2.87024 50.0832 2.75529 50.1896C2.64035 50.2961 2.57097 50.4377 2.56011 50.5882V54.8369H0.586788C0.427959 54.8459 0.278805 54.9108 0.169758 55.0185C0.0607111 55.1262 0 55.2685 0 55.4164C0 55.5643 0.0607111 55.7066 0.169758 55.8143C0.278805 55.922 0.427959 55.987 0.586788 55.996H60.3189C60.481 55.9859 60.6337 55.9216 60.7486 55.8148C60.8635 55.708 60.9328 55.5661 60.9436 55.4154C61.0404 55.1347 60.7292 54.8454 60.418 54.8454ZM54.4958 22.3064H6.50214V19.3069H54.6064V22.3064H54.4958ZM54.4958 23.4656V26.4651H6.50214V23.4656H54.4958ZM30.4978 1.16155C33.2181 1.1567 35.864 1.98711 38.0243 3.52374C40.1845 5.06036 41.7381 7.21714 42.4437 9.65892H39.0158C38.3461 8.06584 37.1749 6.69759 35.6552 5.73303C34.1355 4.76846 32.338 4.25246 30.4978 4.25246C28.6575 4.25246 26.8601 4.76846 25.3404 5.73303C23.8207 6.69759 22.6495 8.06584 21.9798 9.65892H18.5518C19.2578 7.21733 20.8115 5.06075 22.9717 3.52418C25.1319 1.98761 27.7776 1.15706 30.4978 1.16155ZM37.5635 9.65892H23.4344C24.0518 8.39738 25.0452 7.3267 26.297 6.5737C27.5488 5.82071 29.0067 5.41694 30.4978 5.41023C31.9939 5.3971 33.4611 5.7928 34.7173 6.54815C35.9735 7.3035 36.9632 8.38521 37.5635 9.65892ZM54.4958 10.818V13.8176H6.50214V10.818H54.4958ZM2.5532 10.818H5.15124V14.4861C5.16204 14.6362 5.23109 14.7776 5.34556 14.884C5.46003 14.9904 5.61214 15.0545 5.77367 15.0646H55.1182C55.2799 15.0546 55.4323 14.9905 55.5472 14.8842C55.662 14.7778 55.7316 14.6364 55.7429 14.4861V10.818H58.341V22.3064H55.7429V18.6384C55.7316 18.4878 55.6622 18.3462 55.5474 18.2395C55.4326 18.1328 55.2801 18.0682 55.1182 18.0577H5.87741C5.71568 18.0683 5.56355 18.1329 5.44912 18.2397C5.3347 18.3464 5.26572 18.488 5.25498 18.6384V22.3064H2.65694V10.818H2.5532ZM6.50214 46.4445H20.1033C20.2648 46.4344 20.4169 46.3703 20.5314 46.2639C20.6459 46.1575 20.7149 46.0161 20.7257 45.866V32.5414C20.7149 32.3913 20.6459 32.2499 20.5314 32.1435C20.4169 32.0372 20.2648 31.973 20.1033 31.9629H9.7203C9.55878 31.973 9.40667 32.0372 9.2922 32.1435C9.17773 32.2499 9.10869 32.3913 9.09789 32.5414V45.1825H6.50214V27.7143H54.6064V45.1889H52.0014V32.5479V32.355C52.0014 32.2586 52.0014 32.2586 51.9 32.2586C51.9003 32.2457 51.8978 32.2328 51.8926 32.2209C51.8873 32.2089 51.8795 32.198 51.8695 32.189C51.8596 32.1799 51.8478 32.1729 51.8348 32.1683C51.8218 32.1637 51.8079 32.1616 51.794 32.1622L51.6902 32.0636C51.5865 32.0636 51.6902 32.0636 51.5865 31.9694H40.9822C40.8204 31.9794 40.668 32.0434 40.5532 32.1498C40.4383 32.2561 40.3688 32.3976 40.3575 32.5479V45.866C40.3688 46.0163 40.4383 46.1577 40.5532 46.2641C40.668 46.3704 40.8204 46.4345 40.9822 46.4445H54.5834V50.1125H36.3163V37.3686C36.286 35.9533 35.6598 34.6054 34.5721 33.6145C33.4844 32.6235 32.0221 32.0684 30.4989 32.0684C28.9758 32.0684 27.5134 32.6235 26.4258 33.6145C25.3381 34.6054 24.7119 35.9533 24.6816 37.3686V50.0097H6.50214V46.4445ZM17.5122 44.032H19.4878V45.2854H17.5122V44.032ZM19.4878 42.7764H17.5122V33.1199H19.4878V42.7764ZM13.6692 36.2116C13.7497 36.2098 13.8286 36.1913 13.9004 36.1576C13.9722 36.1239 14.0349 36.0757 14.0842 36.0167L16.2673 33.9898V42.7743H10.4488V33.1199H15.3314L13.1506 35.1489C13.0643 35.2418 13.0084 35.3558 12.9896 35.4772C12.9708 35.5987 12.9898 35.7227 13.0443 35.8344C13.0989 35.9462 13.1867 36.0411 13.2974 36.1079C13.4082 36.1748 13.5372 36.2108 13.6692 36.2116ZM10.345 44.032H16.1613V45.2854H10.345V44.032ZM41.5101 45.1889V43.9355H43.4834V45.1889H41.5101ZM44.8343 33.1199H49.7169L47.5361 35.1489C47.4704 35.2051 47.4176 35.273 47.3808 35.3487C47.3441 35.4243 47.3242 35.5061 47.3224 35.5891C47.3206 35.672 47.3369 35.7545 47.3703 35.8315C47.4036 35.9084 47.4534 35.9783 47.5166 36.0369C47.5799 36.0956 47.6552 36.1417 47.7381 36.1725C47.821 36.2033 47.9097 36.2182 47.999 36.2163C48.0883 36.2145 48.1762 36.1958 48.2575 36.1615C48.3388 36.1271 48.4118 36.0779 48.4721 36.0167L50.6528 33.9898V42.7743H44.8343V33.1199ZM43.4834 42.7764H41.5101V33.1199H43.4834V42.7764ZM44.8343 44.032H50.6528V45.2854H44.8343V44.032ZM25.931 50.0183V37.3772C25.9281 36.3561 26.3282 35.3694 27.0556 34.6042C27.7829 33.8389 28.787 33.3481 29.8777 33.2249V50.1211H25.9287L25.931 50.0183ZM31.1248 33.2163C32.2078 33.3564 33.201 33.8521 33.9249 34.6137C34.6488 35.3753 35.0555 36.3525 35.0715 37.3686V50.0097H31.1225L31.1248 33.2163ZM3.9064 54.8562V51.186H57.1998V54.8562H3.9064Z" fill="#36E7FF"/>
</svg>
