<svg width="54" height="65" viewBox="0 0 54 65" fill="none" xmlns="http://www.w3.org/2000/svg">
<g clip-path="url(#clip0_189_7853)">
<path d="M6.2869 22.4623C5.94791 22.6746 5.74724 22.7915 5.55826 22.9201C3.80486 24.1046 1.7261 23.7812 0.605868 22.1408C-0.514361 20.5004 -0.0721088 18.5132 1.63454 17.2878C9.07286 11.9457 16.5131 6.60632 23.9554 1.26948L24.4853 0.879834C26.1471 -0.308583 27.5089 -0.314428 29.161 0.879834C33.9186 4.29053 38.6748 7.70316 43.4298 11.1178C46.3106 13.1868 49.1913 15.2551 52.0721 17.3228C52.9488 17.9502 53.508 18.7606 53.6073 19.8555C53.734 21.2407 53.2177 22.3493 52.0487 23.0915C50.8798 23.8338 49.6154 23.8299 48.3939 23.1247C48.1055 22.9571 47.8367 22.7564 47.4198 22.4876C47.3944 22.8948 47.3613 23.189 47.3613 23.4831C47.3613 33.9334 47.3613 44.385 47.3613 54.8379C47.3613 55.9834 47.1022 56.9809 46.0346 57.5654C45.6449 57.7797 45.1754 57.8615 44.628 58.0427V59.8195C44.628 61.0352 44.6397 62.2509 44.628 63.4646C44.628 64.2303 44.3143 64.5575 43.574 64.5634C41.7037 64.5803 39.8327 64.5803 37.9611 64.5634C37.2111 64.5634 36.9247 64.24 36.9208 63.4704C36.9208 61.6508 36.9208 59.8312 36.9208 57.9609H16.6885V59.1785C16.6885 60.589 16.6885 61.9976 16.6885 63.4081C16.6885 64.2712 16.4099 64.5614 15.5663 64.5653C13.7479 64.577 11.9257 64.577 10.0996 64.5653C9.30081 64.5653 9.00273 64.2595 8.99493 63.451C8.97935 61.8924 8.99493 60.3338 8.99493 58.7752V58.031C8.88389 57.9609 8.84687 57.9199 8.80011 57.916C7.10321 57.6998 6.26742 56.7686 6.26742 55.0385C6.26742 49.2549 6.26742 43.47 6.26742 37.6837V22.4623H6.2869ZM45.5845 30.3837H8.10071V42.3498H45.5845V30.3837ZM45.6332 44.1811H8.07148C8.05979 44.4597 8.03835 44.6954 8.03835 44.9331C8.03835 48.2373 8.03835 51.5415 8.03835 54.8456C8.03835 55.9834 8.20589 56.149 9.34755 56.149H44.3299C45.4462 56.149 45.6313 55.9542 45.6313 54.8262C45.6313 51.522 45.6313 48.2171 45.6313 44.9116L45.6332 44.1811ZM8.0325 28.5544H45.5514C45.5837 28.4549 45.6059 28.3524 45.6177 28.2485C45.6177 26.0119 45.6391 23.7676 45.604 21.5388C45.604 21.2914 45.3566 20.9758 45.1345 20.8121C43.3162 19.4756 41.4803 18.1593 39.6269 16.8631C39.3727 16.6882 39.074 16.5896 38.7657 16.5786C30.817 16.5656 22.8689 16.5656 14.9214 16.5786C14.612 16.5798 14.3096 16.6705 14.0506 16.8397C12.1608 18.1645 10.284 19.5081 8.42022 20.8706C8.32457 20.9351 8.2426 21.0178 8.17907 21.1141C8.11554 21.2104 8.0717 21.3183 8.05005 21.4317C8.03057 23.7851 8.03835 26.1386 8.03835 28.5544H8.0325ZM51.8675 19.9822C51.8792 19.3977 51.3649 18.9749 50.7941 18.5658C43.2506 13.1575 35.7096 7.74732 28.1713 2.33515C27.0822 1.55586 26.5582 1.55586 25.4789 2.33515C18.0964 7.63302 10.7146 12.9309 3.33338 18.2288C2.9692 18.468 2.61923 18.7282 2.28524 19.0081C2.03032 19.2382 1.85519 19.5434 1.78515 19.8796C1.71511 20.2158 1.75378 20.5656 1.89559 20.8784C2.18393 21.5388 2.79959 21.9635 3.52238 21.8525C3.96984 21.766 4.39243 21.581 4.7595 21.3109C11.7965 16.2818 18.8263 11.2431 25.849 6.19458C26.7491 5.54777 26.8835 5.54583 27.77 6.1829L45.3566 18.8055C46.6385 19.727 47.9205 20.6504 49.2102 21.5602C49.4633 21.7549 49.7685 21.8703 50.0871 21.8918C50.4057 21.9133 50.7236 21.8399 51.0006 21.681C51.5968 21.3713 51.8831 20.855 51.8754 19.9822H51.8675ZM36.7338 14.7707L26.8231 7.65575L16.9164 14.7707H36.7338ZM38.719 57.9414V62.7496H42.857V57.9414H38.719ZM10.8126 57.9414V62.7788H14.9039V57.9414H10.8126Z" fill="#36E7FF"/>
<path d="M23.8891 38.3046C23.2754 36.5512 23.5463 35.1368 24.9782 34.1101C26.1101 33.2977 27.3745 33.2568 28.5357 34.0166C30.0942 35.0316 30.4293 36.5064 29.7552 38.3027C31.2339 38.3027 32.6113 38.3027 33.9887 38.3027C34.2556 38.3027 34.5732 38.2286 34.768 38.3475C35.0486 38.5111 35.4012 38.8072 35.4285 39.0761C35.4557 39.3449 35.1791 39.7171 34.9336 39.9275C34.7661 40.0716 34.4271 40.0463 34.1543 40.0463C29.2461 40.0463 24.3392 40.0463 19.4335 40.0463C19.2636 40.0539 19.0932 40.0448 18.9251 40.019C18.4341 39.9197 18.1263 39.6138 18.1594 39.1092C18.1588 38.9982 18.1812 38.8882 18.2253 38.7863C18.2693 38.6844 18.3341 38.5927 18.4154 38.5171C18.4967 38.4415 18.5928 38.3836 18.6976 38.347C18.8024 38.3104 18.9137 38.296 19.0244 38.3046C20.3122 38.3046 21.6 38.3046 22.8877 38.3046H23.8891ZM26.8115 35.2751C26.4051 35.2823 26.0183 35.4505 25.7359 35.7427C25.4535 36.035 25.2987 36.4274 25.3055 36.8337C25.324 37.2267 25.4929 37.5976 25.7772 37.8695C26.0615 38.1415 26.4394 38.2938 26.8329 38.2949C27.0338 38.2916 27.2321 38.2486 27.4163 38.1683C27.6005 38.0881 27.7671 37.9722 27.9063 37.8273C28.0456 37.6825 28.1548 37.5115 28.2277 37.3242C28.3006 37.137 28.3357 36.9372 28.3311 36.7363C28.317 36.3441 28.1513 35.9728 27.869 35.7003C27.5867 35.4278 27.2097 35.2754 26.8173 35.2751H26.8115Z" fill="#36E7FF"/>
<path d="M23.8852 52.0648C23.2715 50.3621 23.5482 48.9476 24.9606 47.8936C25.487 47.5136 26.1167 47.303 26.7658 47.2897C27.4149 47.2765 28.0527 47.4613 28.5941 47.8196C29.9052 48.669 30.2481 49.8146 29.8312 52.0648C31.2729 52.0648 32.7029 52.0648 34.1309 52.0648C34.3725 52.0648 34.6901 52.0044 34.8401 52.1291C35.109 52.3551 35.4499 52.7136 35.4363 52.9922C35.4226 53.2708 35.0291 53.563 34.7485 53.7714C34.6258 53.8689 34.3725 53.8026 34.1797 53.8026H19.1569C18.5724 53.8026 18.1828 53.5279 18.1828 52.9551C18.173 52.3375 18.5899 52.055 19.1881 52.0531C20.2576 52.0531 21.3311 52.0531 22.3968 52.0531L23.8852 52.0648ZM28.3389 50.551C28.333 50.1582 28.1758 49.7827 27.9 49.5029C27.6241 49.223 27.251 49.0605 26.8582 49.049C26.4525 49.0474 26.0626 49.2058 25.773 49.4899C25.4834 49.7741 25.3175 50.1609 25.3113 50.5666C25.3154 50.767 25.3589 50.9647 25.4395 51.1482C25.5201 51.3318 25.6361 51.4976 25.7809 51.6363C25.9257 51.7749 26.0964 51.8836 26.2833 51.9561C26.4702 52.0287 26.6695 52.0636 26.8699 52.059C27.2627 52.0478 27.6358 51.8842 27.91 51.6027C28.1842 51.3212 28.338 50.944 28.3389 50.551Z" fill="#36E7FF"/>
<path d="M29.7688 24.5007C31.3176 24.5007 32.7476 24.5007 34.1796 24.5007C34.3958 24.5007 34.6842 24.4442 34.8166 24.5572C35.0835 24.7871 35.4654 25.1417 35.4342 25.3969C35.3972 25.7008 34.9842 25.9696 34.7075 26.2268C34.6413 26.2892 34.4738 26.2483 34.351 26.2483C29.3246 26.2483 24.2975 26.2483 19.2698 26.2483C18.5626 26.2483 18.1574 25.9093 18.1651 25.3735C18.1729 24.8377 18.5899 24.5065 19.2893 24.5026C20.7933 24.5026 22.2954 24.5026 23.8676 24.5026C23.2831 22.7298 23.5637 21.2608 25.1262 20.2263C25.6708 19.8725 26.3118 19.6968 26.9606 19.7233C27.6095 19.7498 28.234 19.9773 28.7479 20.3744C30.1156 21.4205 30.3766 22.8213 29.7688 24.5007ZM26.7919 24.5007C26.9925 24.5051 27.1919 24.4696 27.3787 24.3962C27.5654 24.3228 27.7357 24.2131 27.8796 24.0733C28.0235 23.9335 28.1383 23.7665 28.2171 23.582C28.2959 23.3976 28.3373 23.1992 28.3388 22.9986C28.3354 22.6055 28.1791 22.2291 27.9031 21.9492C27.6272 21.6692 27.2531 21.5076 26.8601 21.4985C26.6584 21.4941 26.458 21.5297 26.2702 21.6033C26.0824 21.6769 25.9111 21.787 25.7662 21.9272C25.6212 22.0675 25.5055 22.2351 25.4258 22.4203C25.346 22.6055 25.3038 22.8047 25.3015 23.0064C25.3095 23.3988 25.4692 23.7729 25.7471 24.05C26.025 24.3272 26.3995 24.4859 26.7919 24.4929V24.5007Z" fill="#36E7FF"/>
</g>
<defs>
<clipPath id="clip0_189_7853">
<rect width="53.6307" height="64.57" fill="white"/>
</clipPath>
</defs>
</svg>
