<svg width="58" height="72" viewBox="0 0 58 72" fill="none" xmlns="http://www.w3.org/2000/svg">
<path d="M51.0001 35.9834C50.9864 42.8781 48.3 49.4865 43.5289 54.3624C38.7578 59.2382 32.2904 61.9844 25.5422 62C11.5198 62.0635 0.00895492 50.4025 7.99485e-05 36.0348C-0.0164307 29.3048 2.52493 22.8312 7.08855 17.9782C11.6522 13.1252 17.8816 10.2719 24.4639 10.0197C39.1949 9.45294 50.9143 21.3618 51.0001 35.9834ZM20.1803 15.1671L20.1684 15.3182C20.8311 15.7504 21.4775 16.2114 22.1653 16.5967C22.3857 16.7207 22.7141 16.6436 22.9922 16.6572C22.9833 16.4261 22.9506 16.1966 22.8945 15.9726C22.5529 15.0265 22.9315 14.4235 23.9299 14.3646C24.0402 14.3548 24.1511 14.3548 24.2613 14.3646C26.0363 14.5716 27.6353 15.2033 28.9946 16.3837C29.9546 17.2179 30.1114 18.3045 29.3955 19.3684C28.5952 20.5563 27.5776 21.4842 26.1117 21.7698C25.7158 21.8604 25.3336 22.0053 24.9757 22.2006C24.8892 22.2471 24.813 22.3114 24.7519 22.3894C24.6908 22.4674 24.6461 22.5575 24.6207 22.6539C24.5024 23.5063 24.0646 24.1788 23.4818 24.738C22.899 25.2972 22.2585 25.746 21.5455 26.3218C21.7866 26.6679 22.0736 27.0669 22.3458 27.4764C22.51 27.7228 22.828 28.0568 22.7629 28.223C22.6895 28.375 22.587 28.5104 22.4615 28.6213C22.336 28.7321 22.19 28.8161 22.0322 28.8683C20.4539 29.3398 19.0857 28.6205 18.3432 26.9671C17.2249 26.955 16.2339 27.3102 15.5135 28.2109C15.27 28.5584 15.1209 28.9657 15.0816 29.3912C15.0476 29.6527 15.1822 30.0562 15.3774 30.1997C15.7043 30.4385 16.0534 30.2541 16.367 29.9761C16.7844 29.5783 17.2478 29.2342 17.7471 28.9514C18.9112 28.3469 19.7809 28.9726 19.7055 30.3116C19.6848 30.6652 19.6108 31.0158 19.5575 31.3937C20.5471 31.8183 20.8592 32.6027 20.7409 33.6379C20.7246 33.7754 20.7867 34.0127 20.8814 34.0595C21.6728 34.451 22.4804 34.8152 23.2998 35.1854C23.9122 33.8767 24.9757 33.4822 26.2197 33.6182C27.1294 33.718 28.076 33.8676 28.9058 34.2318C30.8524 35.0857 32.7517 36.0605 34.6435 37.0337C35.2352 37.336 35.8564 37.7108 35.9452 38.4725C36.0339 39.2342 36.4984 39.7193 37.0886 40.1062C38.0338 40.7243 39.0869 40.9555 40.1948 40.9857C40.9802 41.0069 41.424 41.4542 41.3382 42.2446C41.2745 42.8041 41.1279 43.3503 40.9033 43.8647C39.8787 46.192 38.4545 48.3131 36.6981 50.1274C36.3295 50.4953 35.9086 50.804 35.4497 51.0433C32.793 52.4947 30.3244 54.2797 28.1012 56.3569C27.8438 56.5942 27.7092 56.975 27.5406 57.3015C27.2595 57.8485 27.0628 58.4531 26.7108 58.9442C26.2138 59.6394 25.4135 59.7527 24.6799 59.316C24.012 58.9385 23.4844 58.3469 23.1785 57.6324C22.4168 55.8053 22.5869 54.025 23.4566 52.2901C23.9004 51.3999 24.4062 50.5445 24.8396 49.6514C25.5496 48.1854 25.3011 47.3663 23.9418 46.5306C23.498 46.2571 23.0543 45.985 22.6017 45.7357C20.9864 44.847 20.4465 43.4113 20.6861 41.6552C20.8045 40.7862 21.0693 39.9324 21.3207 39.086C21.4686 38.607 21.4213 38.3229 20.979 38.01C19.4437 36.9279 17.9512 35.7854 16.438 34.6701C15.2887 33.8223 14.1601 32.9624 12.8007 32.4364C11.1737 31.8047 10.2374 30.5337 10.0244 28.7353C9.93117 27.96 8.80849 27.4689 8.16949 27.8966C7.61037 28.2714 7.30418 28.1807 7.07047 27.558C6.98413 27.33 6.91297 27.0962 6.85747 26.8583C6.25249 24.203 6.70956 21.7003 7.90768 19.3019C7.99938 19.1206 8.08813 18.9377 8.17984 18.7564C0.754452 26.1752 -1.29567 38.613 4.63281 48.7386C10.5613 58.8641 22.6786 63.339 33.6687 59.3417C44.6589 55.3444 49.7916 44.8198 49.7398 36.8932C48.8006 36.8932 47.8628 36.9234 46.9294 36.8932C43.9593 36.7798 42.4683 35.4046 42.0334 32.4198C41.6843 30.0184 41.7464 27.6079 41.8633 25.1959C41.8929 24.5808 41.9402 23.9672 41.9802 23.334C40.5631 23.2494 40.0173 22.2973 39.7008 21.1094C39.578 20.6439 39.4641 20.1754 39.3413 19.6843C39.0928 19.7447 38.9168 19.7916 38.7378 19.8354C37.2039 20.1498 35.9733 18.9498 36.312 17.3932C36.4496 16.7675 36.775 16.1736 37.0827 15.6023C37.2675 15.2578 37.5841 14.9842 37.8607 14.6563C33.8181 12.2624 29.5093 11.1063 24.8219 11.2332C24.4432 13.9535 22.4064 14.6744 20.1803 15.1671ZM8.00678 26.5863C9.11171 26.3218 9.97998 26.7933 10.7639 27.4628C10.9721 27.6419 11.1067 27.8943 11.1411 28.1701C11.2003 29.905 12.1174 30.9342 13.6424 31.5357C14.2337 31.7468 14.7975 32.031 15.3212 32.382C17.6287 34.0444 19.9066 35.7627 22.1964 37.4448C22.575 37.7214 22.7466 38.0266 22.6239 38.5027C22.3709 39.4654 22.0943 40.422 21.8843 41.3953C21.5293 43.0743 21.9523 43.9841 23.3974 44.8319C23.9255 45.1432 24.4639 45.4364 24.9624 45.7931C26.3484 46.7739 26.7374 48.1023 26.094 49.6982C25.8839 50.2181 25.597 50.7062 25.3544 51.2095C24.9432 52.0498 24.4817 52.8719 24.1415 53.7409C23.9113 54.3003 23.8077 54.9055 23.8381 55.5115C23.8686 56.1175 24.0325 56.7087 24.3175 57.241C24.5571 57.6944 25.0571 58.2264 25.5008 58.2989C26.0363 58.3896 26.2182 57.6642 26.3306 57.1942C26.5436 56.2965 27.0702 55.6451 27.7196 55.0784C29.9856 53.1031 32.3774 51.3108 35.0473 49.9295C35.3104 49.7933 35.551 49.6159 35.7603 49.4035C37.539 47.5863 38.9661 45.4426 39.967 43.0849C40.0678 42.7919 40.1499 42.4926 40.2126 42.1887C39.8635 42.16 39.6076 42.1449 39.3532 42.1162C38.2349 41.9892 37.1832 41.6628 36.2602 40.9857C35.6508 40.5429 35.0769 40.0261 34.929 39.2462C34.8945 38.9864 34.7957 38.7398 34.642 38.5298C34.4883 38.3199 34.2846 38.1534 34.0504 38.0463C32.1408 37.1078 30.2489 36.1239 28.3009 35.2761C27.5435 34.9452 26.6575 34.8439 25.8218 34.794C24.918 34.7411 24.5127 35.1567 24.3145 36.0348C24.1888 36.5924 23.9004 36.7677 23.3901 36.538C22.1919 36 21.0027 35.4363 19.809 34.8862C19.7298 34.859 19.6568 34.8158 19.5943 34.759C19.5319 34.7023 19.4813 34.6332 19.4457 34.556C19.41 34.4788 19.39 34.395 19.3869 34.3097C19.3837 34.2244 19.3975 34.1393 19.4274 34.0595C19.4792 33.8585 19.5457 33.6621 19.5753 33.455C19.6788 32.8505 19.4851 32.586 18.8801 32.4878C18.2751 32.3896 18.1213 32.1463 18.2736 31.51C18.392 31.0128 18.4748 30.5065 18.6064 29.8476C18.3345 29.9726 18.0715 30.117 17.8195 30.2798C17.5237 30.5065 17.2604 30.7695 16.9823 31.0173C16.3566 31.5795 15.6511 31.575 14.9026 31.3347C14.2045 31.111 14.0151 30.5564 13.9205 29.9111C13.7622 28.7731 14.1379 27.8316 14.9559 27.0699C15.9602 26.1299 17.1598 25.746 18.5177 25.7989C19.0739 25.8201 19.4052 25.9923 19.5147 26.6074C19.5589 26.9365 19.7275 27.2348 19.9843 27.4384C20.2412 27.6421 20.5658 27.7349 20.8888 27.6971C20.7172 27.1968 20.4894 26.6981 20.3829 26.1737C20.2468 25.5012 20.5087 25.2851 21.1225 25.0146C22.2541 24.5128 23.146 23.7466 23.4892 22.4454C23.5912 22.0555 23.8161 21.6036 24.1252 21.3875C24.6242 21.0349 25.186 20.7859 25.7789 20.6545C26.8912 20.4203 27.6648 19.7326 28.3275 18.8863C28.8363 18.2365 28.7461 17.6924 28.1071 17.1786C27.1217 16.4003 25.9719 15.8683 24.7494 15.625C24.529 15.5781 24.3057 15.563 24.0187 15.5252C24.0838 15.7308 24.1208 15.8275 24.1503 15.9409C24.458 17.0849 23.9477 17.8587 22.7895 17.9055C22.3898 17.9296 21.9913 17.8396 21.6387 17.6456C20.8074 17.1585 20.0173 16.6014 19.2765 15.9801C18.5118 15.3091 18.6982 14.555 19.6374 14.15C19.8401 14.0623 20.0545 13.9989 20.2661 13.9324C20.8577 13.7359 21.4701 13.5712 22.0529 13.3384C22.9404 12.9893 23.3841 12.2805 23.5986 11.2982C23.2898 11.3031 22.9816 11.3268 22.6756 11.3692C21.2645 11.6534 19.8386 11.8831 18.4556 12.276C16.6362 12.7883 14.8257 13.4457 13.317 14.6034C10.9769 16.3988 9.17532 18.6838 8.23161 21.5719C7.69764 23.198 7.55416 24.871 8.00678 26.5863ZM49.7635 35.5134C49.7635 35.1023 49.7857 34.7457 49.7635 34.3935C49.5223 30.6582 48.4554 27.0273 46.6431 23.7739C44.8307 20.5205 42.3201 17.7292 39.2999 15.6099C39.152 15.5116 38.8562 15.4754 38.7304 15.563C38.3666 15.806 38.0608 16.1293 37.8355 16.5091C37.6103 16.8889 37.4713 17.3154 37.4288 17.7574C37.3666 18.3619 37.8074 18.7579 38.4006 18.6717C38.5631 18.639 38.7236 18.5966 38.8813 18.5448C39.6298 18.3392 40.0868 18.5448 40.396 19.2732C40.5108 19.5897 40.6095 19.912 40.6918 20.2389C40.812 20.6911 40.9567 21.1361 41.1252 21.5719C41.3352 22.054 41.7169 22.196 42.2257 22.0071C42.9889 21.723 43.2833 21.9724 43.2226 22.8111C43.1295 24.1078 43.0141 25.4014 42.9564 26.6981C42.8617 28.8472 42.912 30.9886 43.3499 33.1074C43.6146 34.3875 44.3734 35.1477 45.5967 35.4711C46.9694 35.8383 48.3405 35.7416 49.7635 35.5134Z" fill="#36E7FF"/>
</svg>
