<svg width="57" height="57" viewBox="0 0 57 57" fill="none" xmlns="http://www.w3.org/2000/svg">
<g clip-path="url(#clip0_47_5588)">
<path d="M44.3001 55.4993H51.4068V52.3566C50.9973 52.2823 50.5861 52.2396 50.1933 52.1318C49.4049 51.9169 48.7064 51.4535 48.201 50.81C47.6956 50.1664 47.41 49.377 47.3866 48.5582C47.3551 46.8865 47.3477 45.2149 47.3866 43.5525C47.4217 42.5917 47.817 41.6795 48.4935 40.9981C49.1701 40.3167 50.0781 39.9163 51.0363 39.8767C51.7291 39.8451 52.4257 39.8488 53.1205 39.8767C55.2584 39.9398 56.8869 41.5298 56.9536 43.6769C57.0017 45.2743 57.0017 46.8729 56.9536 48.4728C56.8924 50.5679 55.3788 52.1003 53.2687 52.2879C53.1575 52.2879 53.0482 52.3213 52.8981 52.3454V55.555H55.5511C55.8068 55.555 56.1069 55.4845 56.3033 55.5978C56.5627 55.7482 56.8813 56.0305 56.9072 56.285C56.9276 56.4893 56.5905 56.7921 56.3515 56.9462C56.1829 57.0521 55.9013 56.9871 55.6697 56.9871H1.33008C0.774286 56.9871 0.14439 57.0744 0.0332323 56.2887C-0.0334625 55.7686 0.377824 55.555 1.34305 55.555H4.07568V52.3362C3.75518 52.2953 3.45875 52.2786 3.17159 52.2191C2.29956 52.0497 1.51159 51.5863 0.938647 50.9058C0.365701 50.2252 0.0422751 49.3686 0.0221169 48.4783C-0.0223463 46.881 -0.0223463 45.2824 0.0221169 43.6825C0.0832539 41.5354 1.70987 39.9361 3.84596 39.8693C4.53884 39.8488 5.23543 39.8451 5.93017 39.8693C6.90012 39.9073 7.81913 40.3146 8.49998 41.0083C9.18084 41.7019 9.57232 42.6297 9.59468 43.6026C9.62988 45.0161 9.5354 46.4352 9.62432 47.8431C9.77624 50.2577 8.18482 52.2099 5.59299 52.3176V55.503H13.0776V13.4068C11.451 13.1654 11.451 13.1654 11.451 11.4417C11.451 9.91306 11.451 8.38256 11.451 6.85392C11.451 5.89735 11.6363 5.70604 12.5811 5.70418C14.3597 5.70418 16.14 5.70418 18.0019 5.70418C18.0019 4.23312 18.0019 2.82521 18.0019 1.41544C18.0019 0.0855364 18.0834 0.00381022 19.4192 0.00381022C21.2274 0.00381022 23.0337 0.00381022 24.84 0.00381022C25.6663 0.00381022 25.8719 0.208125 25.8756 1.02538C25.8756 2.55031 25.8756 4.07524 25.8756 5.65218H31.0945C31.0945 4.16625 31.0945 2.7119 31.0945 1.25756C31.0945 0.133828 31.2223 0.00195312 32.3154 0.00195312C34.168 0.00195312 36.0206 0.00195312 37.8733 0.00195312C38.7792 0.00195312 38.9626 0.187693 38.9663 1.1164C38.9663 2.61904 38.9663 4.12168 38.9663 5.70604H44.641C45.2079 5.70604 45.5098 5.99022 45.5117 6.55487C45.5117 8.52558 45.5117 10.4944 45.5117 12.4651C45.5117 13.2731 44.9837 13.4068 44.2778 13.3307L44.3001 55.4993ZM42.7679 55.4993V13.392H14.619V55.5105H18.5485V54.6616C18.5485 50.9543 18.5485 47.2469 18.5485 43.5395C18.5485 42.5569 18.7152 42.3898 19.66 42.3879C22.0462 42.3879 24.4324 42.3879 26.8186 42.3879C27.7838 42.3879 27.9432 42.5495 27.9432 43.5191C27.9432 47.25 27.9432 50.9809 27.9432 54.7118V55.503L42.7679 55.4993ZM12.9405 11.8856H44.0648V7.17525H12.9405V11.8856ZM26.5037 43.833H20.0454V55.503H26.5037V43.833ZM8.20335 46.0618C8.20335 45.3189 8.21261 44.5759 8.20335 43.833C8.18297 42.3322 7.15847 41.2995 5.67451 41.2753C5.09463 41.2753 4.51661 41.2642 3.93673 41.2753C2.6084 41.3013 1.55239 42.204 1.49125 43.5376C1.4153 45.2242 1.4153 46.92 1.49125 48.6083C1.55424 49.9327 2.6121 50.8372 3.9497 50.8651C4.52958 50.88 5.1076 50.88 5.68748 50.8651C7.13253 50.8298 8.17 49.7934 8.19965 48.3502C8.21632 47.5942 8.20335 46.829 8.20335 46.0618ZM48.7927 46.0247C48.7927 46.8122 48.7797 47.6016 48.7927 48.3892C48.7911 49.036 49.0423 49.6576 49.4926 50.1208C49.9428 50.584 50.5562 50.8519 51.2011 50.867C51.8496 50.893 52.498 50.893 53.1464 50.867C54.3784 50.8149 55.4233 49.9383 55.4844 48.7217C55.5733 46.9638 55.5733 45.2026 55.4844 43.4448C55.4214 42.1873 54.3562 41.3143 53.0945 41.2846C52.4924 41.2697 51.8903 41.2716 51.2882 41.2846C49.8432 41.3125 48.8168 42.347 48.7927 43.8051C48.7834 44.5443 48.7927 45.2855 48.7927 46.0266V46.0247ZM24.4491 1.48416H19.4952V5.65403H24.4491V1.48416ZM37.5157 5.66146V1.48416H32.5655V5.66703L37.5157 5.66146Z" fill="#36E7FF"/>
<path d="M34.2719 51.097C33.2066 51.097 32.1414 51.097 31.0761 51.097C30.4518 51.097 30.1331 50.837 30.1498 50.1795C30.1702 48.9053 30.1331 47.6292 30.1683 46.3551C30.2069 45.3249 30.6291 44.3466 31.3517 43.6132C32.0743 42.8798 33.0448 42.4445 34.0718 42.3932C36.3061 42.3115 38.2087 43.8643 38.3885 46.0449C38.5033 47.4509 38.4459 48.87 38.4477 50.2835C38.4477 50.8611 38.0994 51.0989 37.5455 51.097C36.4562 51.0933 35.3613 51.097 34.2719 51.097ZM37.0008 49.6259C37.0008 48.5319 37.0286 47.4732 37.0008 46.4164C36.9779 45.7377 36.7014 45.0925 36.2261 44.6087C35.7508 44.1249 35.1114 43.838 34.4349 43.8048C33.0621 43.725 31.7449 44.7335 31.6134 46.1377C31.5059 47.2782 31.5911 48.4372 31.5911 49.6259H37.0008Z" fill="#36E7FF"/>
<path d="M22.654 38.1457C21.611 38.1457 20.5698 38.1457 19.5268 38.1457C18.9117 38.1457 18.5523 37.9154 18.5579 37.2579C18.569 35.915 18.5134 34.5665 18.6023 33.2292C18.6699 32.2474 19.0907 31.3236 19.7865 30.6294C20.4823 29.9352 21.4058 29.5179 22.3854 29.4549C24.5474 29.3361 26.4779 30.7013 26.7521 32.7983C26.9559 34.3492 26.8428 35.9429 26.8299 37.5161C26.8299 38.012 26.4223 38.1439 25.9888 38.1457H22.654ZM25.433 36.6877C25.433 35.5157 25.4886 34.4049 25.4182 33.3035C25.3348 31.9884 24.2066 30.952 22.8967 30.8666C21.5869 30.7811 20.253 31.6634 20.0937 32.9506C19.9418 34.1709 20.0604 35.4228 20.0604 36.6877H25.433Z" fill="#36E7FF"/>
<path d="M34.2997 38.1456C33.2345 38.1456 32.1674 38.1567 31.1021 38.1456C30.337 38.1363 30.1554 37.9598 30.1498 37.1946C30.1498 35.9668 30.1313 34.7372 30.1498 33.5095C30.1943 31.3307 31.9172 29.5439 34.0311 29.4585C36.3376 29.3656 38.2181 30.9444 38.3885 33.2142C38.4922 34.5738 38.4348 35.9464 38.4367 37.3134C38.4367 37.8855 38.1236 38.1511 37.5604 38.1493C36.4766 38.1437 35.3872 38.1456 34.2997 38.1456ZM36.9657 36.6875C36.9848 36.5756 36.9978 36.4628 37.0046 36.3494C37.0046 35.4003 37.0268 34.4512 37.0046 33.502C36.9878 32.8345 36.726 32.1967 36.2693 31.7107C35.8126 31.2247 35.1931 30.9247 34.5295 30.8682C33.1659 30.7475 31.8339 31.6446 31.6542 33.0303C31.5004 34.2246 31.6227 35.456 31.6227 36.6875H36.9657Z" fill="#36E7FF"/>
<path d="M22.7299 25.1995C21.6406 25.1995 20.5531 25.1995 19.4637 25.1995C18.8635 25.1995 18.5541 24.9302 18.5578 24.3229C18.5671 22.9799 18.5152 21.6315 18.6023 20.2941C18.6664 19.3364 19.0672 18.4326 19.7334 17.7432C20.3997 17.0539 21.2881 16.6237 22.2408 16.5292C24.3973 16.3434 26.3444 17.573 26.6872 19.6533C26.9521 21.2786 26.828 22.9725 26.7983 24.6368C26.7983 24.8225 26.287 25.1568 25.998 25.1754C24.9086 25.2367 23.8174 25.1995 22.7299 25.1995ZM25.4403 23.7489V20.9145C25.4447 20.7286 25.4398 20.5427 25.4255 20.3573C25.3547 19.7178 25.0619 19.1236 24.5982 18.6788C24.1346 18.234 23.5296 17.9668 22.8893 17.9241C21.5591 17.8479 20.2474 18.7153 20.0862 20.0081C19.9362 21.2284 20.0547 22.4822 20.0547 23.7471L25.4403 23.7489Z" fill="#36E7FF"/>
<path d="M34.2201 25.1992C33.1789 25.1992 32.1359 25.1992 31.0947 25.1992C30.3295 25.1992 30.1535 25.0135 30.1498 24.2427C30.1498 23.0149 30.1313 21.7853 30.1498 20.5576C30.1668 19.5154 30.5781 18.5186 31.3004 17.7689C32.0227 17.0192 33.0021 16.5727 34.0404 16.5196C36.3154 16.4267 38.2051 17.9814 38.3811 20.2102C38.4922 21.594 38.433 22.9963 38.4367 24.3782C38.4367 24.954 38.1125 25.2067 37.5511 25.2048C36.4451 25.1955 35.3335 25.1992 34.2201 25.1992ZM36.9675 23.7486C36.9861 23.5889 37.0046 23.4997 37.0046 23.4105C37.0046 22.4596 37.0268 21.5104 37.0046 20.5613C36.9896 19.8944 36.7294 19.2567 36.2739 18.7705C35.8184 18.2844 35.1998 17.9841 34.5369 17.9275C33.1492 17.8179 31.8394 18.6983 31.6616 20.0858C31.5078 21.282 31.6282 22.5134 31.6282 23.7486H36.9675Z" fill="#36E7FF"/>
</g>
<defs>
<clipPath id="clip0_47_5588">
<rect width="57" height="57" fill="white"/>
</clipPath>
</defs>
</svg>
