<svg width="21" height="20" viewBox="0 0 21 20" fill="none" xmlns="http://www.w3.org/2000/svg">
<path fill-rule="evenodd" clip-rule="evenodd" d="M10.364 18.0516C7.13364 18.0516 4.375 17.5729 4.375 15.6555C4.375 13.7382 7.11614 11.9683 10.364 11.9683C13.5943 11.9683 16.353 13.7211 16.353 15.6384C16.353 17.5549 13.6118 18.0516 10.364 18.0516Z" stroke="#36E7FF" stroke-width="1.5" stroke-linecap="round" stroke-linejoin="round"/>
<path fill-rule="evenodd" clip-rule="evenodd" d="M10.3577 9.31136C12.4776 9.31136 14.1958 7.675 14.1958 5.65606C14.1958 3.63712 12.4776 2 10.3577 2C8.2378 2 6.51882 3.63712 6.51882 5.65606C6.51166 7.66818 8.21791 9.30455 10.3306 9.31136C10.3402 9.31136 10.3489 9.31136 10.3577 9.31136Z" stroke="#36E7FF" stroke-width="1.5" stroke-linecap="round" stroke-linejoin="round"/>
</svg>
