<svg width="53" height="66" viewBox="0 0 53 66" fill="none" xmlns="http://www.w3.org/2000/svg">
<g clip-path="url(#clip0_1_1283)">
<path d="M1.81319 54.3988V53.7311C1.81319 43.3849 1.81319 33.0387 1.81319 22.6926C1.80039 22.3106 1.85696 21.9293 1.98078 21.5629C2.57499 20.0139 4.65927 19.4824 6.24687 20.4786C8.16508 21.6804 10.0559 22.9156 11.9619 24.1374L15.5347 26.4208V13.9207C15.5347 12.2916 16.3758 11.433 18.2772 11.1646C18.2772 10.8975 18.2681 10.6131 18.2772 10.334C18.291 9.71752 18.5779 9.12991 19.0773 8.69552C19.5766 8.26113 20.2492 8.01404 20.9527 8.00652C25.8668 7.9905 30.7804 7.9905 35.6935 8.00652C37.1912 8.00652 38.3431 9.05477 38.3842 10.3714C38.3933 10.6385 38.3842 10.9055 38.3842 11.1539C40.3573 11.4784 41.1267 12.293 41.1267 14.0089C41.1267 19.7953 41.1267 25.5769 41.1267 31.3535V31.9958C42.6731 31.9958 44.1739 31.9865 45.6701 31.9958C46.7975 32.0052 47.6507 32.4552 48.1444 33.3432C48.3196 33.661 48.3699 34.0402 48.4323 34.3981C48.4569 34.6513 48.4599 34.9057 48.4415 35.1593C49.8584 35.3048 50.8076 35.9124 51.1261 37.1396C51.1783 37.404 51.1972 37.6727 51.1824 37.9408C51.1824 43.2055 51.1824 48.4703 51.1824 53.7351V54.4028C51.4872 54.4028 51.7706 54.3934 52.0479 54.4028C52.6146 54.4282 53.0108 54.7753 52.9955 55.22C52.9803 55.6647 52.6009 55.9651 52.057 55.9958C51.8848 56.0052 51.7142 55.9958 51.542 55.9958H1.44143C1.27079 55.9958 1.09862 56.0025 0.927976 55.9958C0.387097 55.9638 0.0138109 55.6406 9.85113e-05 55.2107C-0.0136139 54.7807 0.385574 54.4268 0.956925 54.4095C1.21289 54.3894 1.48257 54.3988 1.81319 54.3988ZM31.9805 35.1699C31.9805 34.9523 31.9805 34.7693 31.9805 34.5877C31.9805 32.9987 33.1232 32.0119 34.9515 32.0079C35.9043 32.0079 36.8565 32.0079 37.8083 32.0079H39.3029V31.5405C39.3029 25.6579 39.3029 19.7762 39.3029 13.8954C39.3029 13.0568 39.0119 12.8111 38.0277 12.8111H18.6551C17.6343 12.8111 17.357 13.0474 17.357 13.9234V54.3841H21.0136V53.8046C21.0136 50.906 21.0136 48.0065 21.0136 45.1062C21.0136 42.9042 22.5083 41.6009 25.0298 41.5996H29.2472V37.9688C29.2472 36.2956 30.0531 35.453 31.9896 35.1633L31.9805 35.1699ZM15.5088 54.3734C15.5088 54.2586 15.5271 54.1785 15.5271 54.097C15.5271 45.6488 15.5226 37.2005 15.5134 28.7523C15.5035 28.6439 15.4686 28.5384 15.4107 28.4422C15.3528 28.346 15.2732 28.2612 15.1767 28.1928C11.8867 26.0616 8.58814 23.942 5.28091 21.8339C5.10193 21.7132 4.89322 21.6309 4.67147 21.5936C4.00718 21.5121 3.64456 21.9034 3.64456 22.6618V54.3734H15.5088ZM31.0755 54.3627H49.3587V53.8353C49.3587 48.5384 49.3587 43.2416 49.3587 37.9448C49.3587 37.0301 49.0921 36.799 48.0408 36.799H32.3903C31.336 36.799 31.0724 37.0287 31.0724 37.9434C31.0724 43.2412 31.0724 48.538 31.0724 53.8339L31.0755 54.3627ZM29.206 54.3814V43.1993C27.7647 43.1993 26.3599 43.1993 24.9552 43.1993C23.5504 43.1993 22.848 43.8229 22.848 45.0341C22.848 47.9798 22.848 50.9251 22.848 53.87C22.848 54.0316 22.8648 54.1931 22.8739 54.3734L29.206 54.3814ZM36.4995 11.1833C36.693 10.1257 36.5193 9.56086 35.0338 9.59424C32.6951 9.64632 30.3548 9.6076 28.0146 9.6076C25.7505 9.6076 23.4859 9.6076 21.2208 9.6076C20.4331 9.6076 20.1132 9.89202 20.101 10.573C20.101 10.768 20.101 10.963 20.101 11.182L36.4995 11.1833ZM46.6162 35.1833C46.6162 35.0337 46.6162 34.9363 46.6162 34.8374C46.6284 33.8226 46.3801 33.6009 45.2328 33.6009H40.8951C38.8977 33.6009 36.9002 33.6009 34.9028 33.6009C34.272 33.6009 33.8926 33.8399 33.8362 34.2953C33.8172 34.5906 33.8172 34.8866 33.8362 35.182L46.6162 35.1833Z" fill="#36E7FF"/>
<path d="M28.3009 18.4036C25.6575 18.4036 23.014 18.4116 20.3782 18.3902C20.0455 18.3903 19.7228 18.2904 19.464 18.1071C19.3707 18.01 19.3053 17.8947 19.2735 17.7708C19.2417 17.6469 19.2443 17.5182 19.2812 17.3954C19.3909 17.159 19.7154 16.9801 19.9851 16.8265C20.107 16.7571 20.3188 16.8038 20.4894 16.8038H36.1825C36.3151 16.8038 36.4491 16.8038 36.5817 16.8038C36.8216 16.8132 37.0481 16.9037 37.2135 17.0563C37.3789 17.209 37.4703 17.4119 37.4684 17.6224C37.459 17.8243 37.3628 18.0156 37.1992 18.158C37.0356 18.3004 36.8167 18.3833 36.5863 18.3902C36.0926 18.4143 35.5975 18.3982 35.1023 18.3982L28.3009 18.4036Z" fill="#36E7FF"/>
<path d="M28.3894 21.603C31.0511 21.603 33.722 21.603 36.3776 21.603C37.2217 21.603 37.7488 22.2453 37.3116 22.7688C37.185 22.8928 37.0313 22.9934 36.8597 23.0645C36.688 23.1356 36.5018 23.1758 36.3121 23.1827C33.3654 23.2148 30.4173 23.2014 27.4752 23.2014C25.0786 23.2014 22.6819 23.2014 20.2853 23.2014C19.5601 23.2014 19.0954 22.7728 19.2188 22.252C19.3239 21.8234 19.6926 21.6057 20.3447 21.6044L28.3894 21.603Z" fill="#36E7FF"/>
<path d="M9.5468 31.2014C8.55951 31.2014 7.56612 31.2014 6.58339 31.2014C5.91301 31.2014 5.49706 30.8956 5.48487 30.4189C5.47268 29.9422 5.90082 29.6057 6.6032 29.6044C8.5981 29.6044 10.592 29.6044 12.5849 29.6044C13.2568 29.6044 13.6727 29.9102 13.6864 30.3855C13.7001 30.8609 13.269 31.1988 12.5666 31.2014C11.5595 31.2041 10.5539 31.2014 9.5468 31.2014Z" fill="#36E7FF"/>
<path d="M9.58031 34.401C10.5874 34.401 11.5945 34.401 12.6001 34.401C13.2644 34.401 13.6834 34.7188 13.6864 35.2022C13.6895 35.6855 13.2689 36.0034 12.6077 36.0034C10.5955 36.0087 8.58236 36.0087 6.56816 36.0034C5.90539 36.0034 5.48639 35.6855 5.48487 35.2022C5.48334 34.7188 5.90081 34.401 6.56053 34.401C7.56763 34.3969 8.57473 34.401 9.58031 34.401Z" fill="#36E7FF"/>
<path d="M40.2582 40C42.2897 40 44.3242 40 46.3618 40C47.0794 40 47.506 40.2978 47.5151 40.7878C47.5243 41.2779 47.0931 41.5971 46.3877 41.5971C42.28 41.5971 38.1729 41.5971 34.0663 41.5971C33.3472 41.5971 32.9236 41.3006 32.9144 40.8092C32.9053 40.3178 33.3411 40 34.0983 40C36.1521 39.9982 38.2054 39.9982 40.2582 40Z" fill="#36E7FF"/>
</g>
<defs>
<clipPath id="clip0_1_1283">
<rect width="53" height="66" fill="white"/>
</clipPath>
</defs>
</svg>
