<svg width="68" height="64" viewBox="0 0 68 64" fill="none" xmlns="http://www.w3.org/2000/svg">
<g clip-path="url(#clip0_189_8996)">
<path d="M-0.000244141 32.1254C0.12973 31.9553 0.276383 31.7852 0.389694 31.6151C2.67258 27.9582 4.96713 24.3115 7.22169 20.6341C7.69659 19.8551 8.25315 19.5285 9.15797 19.5336C15.3118 19.5642 21.4639 19.5438 27.6177 19.5608C27.8344 19.5713 28.0506 19.5323 28.2507 19.4467C28.4507 19.3611 28.6296 19.231 28.7741 19.0659C30.0094 17.7698 31.262 16.4918 32.5317 15.232C32.6953 15.0836 32.8242 14.8996 32.9087 14.6935C32.9932 14.4874 33.0312 14.2645 33.02 14.0414C33.0016 9.88436 33.0099 5.72565 33.0099 1.56693C33.0099 0.515775 33.3182 0.0225152 33.9764 -0.00299842C34.6346 -0.028512 34.9762 0.483442 35.0062 1.57202C35.0062 1.74211 35.0312 1.92242 35.0496 2.15714H35.9277C38.7155 2.15714 41.505 2.13674 44.2944 2.18096C44.7383 2.19691 45.161 2.37846 45.4825 2.69123C45.8641 3.11306 45.5742 3.61652 45.2859 4.05196C44.7643 4.83437 44.2561 5.627 43.7279 6.43323C44.2628 7.25646 44.781 8.06949 45.3159 8.87062C45.5942 9.28564 45.8424 9.7687 45.4825 10.1701C45.1843 10.4762 44.7851 10.6581 44.3627 10.6804C41.5066 10.7229 38.6522 10.7042 35.7961 10.7042H35.0062C35.0062 12.036 34.9946 13.2947 35.0196 14.5516C35.0196 14.7217 35.1862 14.9071 35.3278 15.0449C36.6842 16.4397 38.0356 17.8412 39.4254 19.2019C39.6934 19.4153 40.0254 19.5277 40.3652 19.52C46.5406 19.537 52.7161 19.537 58.8915 19.52C59.7347 19.52 60.2813 19.7989 60.7362 20.5405C62.9991 24.2366 65.3053 27.9038 67.5982 31.5794C67.8748 32.0217 68.1781 32.4554 67.8615 33.0133C67.5448 33.5712 67.0366 33.5474 66.5284 33.5474H64.8521V61.9525C65.5003 61.9525 66.1351 61.9525 66.7683 61.9525C67.5465 61.9525 68.0064 62.3488 67.9998 62.9731C67.9931 63.5973 67.5315 63.98 66.7517 63.9834C65.0853 63.9834 63.4323 63.9834 61.771 63.9834C41.6949 63.9834 21.6189 63.9834 1.54279 63.9834C0.906246 63.9834 0.359689 63.8949 0.00309179 63.303V62.6227C0.323029 62.0852 0.792939 61.8947 1.40115 61.9321C2.00937 61.9695 2.56758 61.9321 3.14414 61.9321V33.527C2.56592 33.527 2.03603 33.5032 1.50947 33.527C0.897923 33.5644 0.386356 33.4079 0.00976366 32.9027L-0.000244141 32.1254ZM62.7824 33.5593H61.9659C58.4916 33.5593 55.0173 33.5457 51.543 33.5695C51.2471 33.5795 50.9527 33.5238 50.68 33.4063C50.4072 33.2889 50.1627 33.1124 49.9633 32.8891C44.8421 27.6356 39.7109 22.3917 34.5697 17.1574C34.388 16.972 34.1981 16.7951 33.9181 16.5213C33.7499 16.7576 33.5697 16.9847 33.3782 17.2017C28.2681 22.4302 23.1535 27.6588 18.0345 32.8874C17.8339 33.1087 17.5886 33.283 17.3156 33.3981C17.0426 33.5132 16.7483 33.5664 16.4532 33.5542C12.9772 33.5321 9.5029 33.5423 6.02691 33.544H5.23374V61.8862H26.6062V61.0238C26.6062 56.7307 26.6062 52.4359 26.6062 48.1428C26.6062 45.8347 27.8493 44.5709 30.0839 44.5573C32.6967 44.5494 35.3073 44.5494 37.9157 44.5573C38.2912 44.5453 38.6668 44.5807 39.0338 44.6628C40.5485 45.0608 41.3816 46.3025 41.385 48.1497C41.3916 52.4666 41.3916 56.7829 41.385 61.0987V61.893H62.7725L62.7824 33.5593ZM26.2146 21.6189C25.9613 21.6002 25.8564 21.5849 25.7514 21.5849C20.3341 21.5849 14.9202 21.5849 9.49956 21.6036C9.34755 21.6203 9.20066 21.6694 9.06835 21.7476C8.93604 21.8259 8.82126 21.9315 8.73138 22.0577C6.87008 24.9935 5.03878 27.948 3.20248 30.9025C3.10083 31.0726 3.01917 31.2427 2.90086 31.4638C3.11748 31.4859 3.26578 31.5165 3.41408 31.5165C7.63826 31.5165 11.8608 31.5267 16.0783 31.4995C16.4173 31.4659 16.734 31.3118 16.9731 31.064C19.8803 28.1271 22.7764 25.1789 25.6614 22.2193C25.8214 22.0526 25.9663 21.8877 26.2146 21.6189ZM41.8082 21.5849C41.9749 21.8043 42.0632 21.9251 42.1648 22.0339C45.1487 25.0842 48.1386 28.1294 51.1347 31.1695C51.3766 31.3846 51.6854 31.5052 52.0062 31.5097C56.1721 31.5301 60.3213 31.5233 64.4788 31.5216C64.6654 31.5216 64.8537 31.4927 65.117 31.4706C64.9687 31.2103 64.8687 31.0164 64.7537 30.8327C62.9541 27.9412 61.1428 25.0496 59.3581 22.1462C59.2642 21.9623 59.1193 21.8106 58.9415 21.7102C58.7637 21.6098 58.5609 21.565 58.3583 21.5815C53.096 21.6002 47.8337 21.5934 42.5714 21.5934L41.8082 21.5849ZM28.6441 61.9168H32.9766V51.0106H28.6441V61.9168ZM39.3637 61.9168V51.0123H35.0446V61.9168H39.3637ZM35.0512 8.6274H42.7264C42.5281 8.31273 42.3781 8.06949 42.2265 7.82966C41.3233 6.44683 41.3233 6.44853 42.2065 5.09291C42.3731 4.82587 42.5397 4.55031 42.7414 4.23224H35.0446L35.0512 8.6274ZM28.6558 48.8674H39.367C39.3897 48.451 39.3897 48.0337 39.367 47.6173C39.2937 46.9964 38.9105 46.629 38.2989 46.6256C35.4484 46.6109 32.5973 46.6109 29.7456 46.6256C29.1357 46.6256 28.7458 46.9862 28.6725 47.6088C28.6406 48.0275 28.6322 48.4477 28.6475 48.8674H28.6558Z" fill="#36E7FF"/>
<path d="M34.0814 26.078C38.1989 26.1733 41.4933 29.6176 41.385 33.7168C41.2733 37.9248 37.8857 41.2858 33.8864 41.1599C29.7823 41.0307 26.5396 37.6408 26.6146 33.5569C26.6929 29.3624 30.0622 25.9862 34.0814 26.078ZM33.7965 28.1463C30.7554 28.3725 28.4342 30.912 28.6308 33.7967C28.8491 36.9417 31.3519 39.277 34.2064 39.1069C37.3491 38.9215 39.5087 36.2528 39.3587 33.4446C39.1904 30.2928 36.6676 27.932 33.7965 28.1463Z" fill="#36E7FF"/>
<path d="M14.7602 41.9581C14.7602 43.0858 14.7602 44.2152 14.7602 45.3429C14.7519 46.2155 14.4069 46.5931 13.5588 46.6033C11.9224 46.6214 10.2867 46.6214 8.65142 46.6033C7.81825 46.5931 7.455 46.1934 7.45166 45.3276C7.44167 43.0722 7.43833 40.8151 7.45166 38.558C7.45166 37.4916 7.95155 36.9779 8.99634 36.9626C10.4116 36.9422 11.8264 36.9422 13.2405 36.9626C14.2903 36.9796 14.7402 37.483 14.7586 38.5733C14.7686 39.701 14.7602 40.8304 14.7602 41.9581ZM12.7323 39.0581H9.49458V41.2693H12.7323V39.0581ZM12.7323 43.4056H9.49293V44.5333H12.7323V43.4056Z" fill="#36E7FF"/>
<path d="M24.3399 41.9449C24.3399 43.0726 24.3399 44.2003 24.3399 45.3297C24.3316 46.2175 23.9983 46.5918 23.1551 46.602C21.521 46.6224 19.8852 46.6224 18.2478 46.602C17.4146 46.5918 17.0363 46.1971 17.0313 45.3382C17.0169 43.0828 17.0169 40.8262 17.0313 38.5686C17.0313 37.4919 17.5312 36.9765 18.566 36.9612C19.9802 36.9374 21.3949 36.9374 22.8102 36.9612C23.8683 36.9782 24.3266 37.4715 24.3399 38.5601C24.3516 39.6878 24.3399 40.8155 24.3399 41.9449ZM22.3086 39.0346H19.0726V41.2662H22.3086V39.0346ZM19.0593 44.52H22.3103V43.3974H19.0643L19.0593 44.52Z" fill="#36E7FF"/>
<path d="M43.6629 41.9222C43.6629 40.7945 43.6512 39.6668 43.6629 38.5374C43.6779 37.4573 44.1445 36.9759 45.2126 36.9606C46.6057 36.9402 47.9982 36.9402 49.3901 36.9606C50.4699 36.9742 50.9648 37.4811 50.9715 38.5918C50.9859 40.8256 50.9859 43.0595 50.9715 45.2934C50.9715 46.2238 50.5882 46.5979 49.6651 46.6048C48.0954 46.6184 46.5262 46.6184 44.9576 46.6048C43.9912 46.6048 43.6646 46.2476 43.6579 45.244C43.6579 44.1333 43.6629 43.0278 43.6629 41.9222ZM45.6892 41.2571H48.9485V39.0459H45.6892V41.2571ZM45.7025 43.3764V44.5126H48.9402V43.3764H45.7025Z" fill="#36E7FF"/>
<path d="M53.2425 41.9365C53.2425 40.8071 53.2425 39.6794 53.2425 38.5517C53.2525 37.5023 53.7141 36.9886 54.7223 36.9716C56.182 36.9444 57.6406 36.9444 59.0981 36.9716C60.0295 36.9903 60.5361 37.5057 60.5445 38.4565C60.5678 40.7816 60.5628 43.105 60.5445 45.4302C60.5445 46.2007 60.1545 46.5953 59.378 46.6055C57.7206 46.6293 56.0631 46.6293 54.4056 46.6055C53.5891 46.5953 53.2392 46.2143 53.2392 45.3843C53.2342 44.231 53.2442 43.0795 53.2425 41.9365ZM55.2722 41.2715H58.5115V39.045H55.2722V41.2715ZM58.5432 43.4044H55.2771V44.527H58.5432V43.4044Z" fill="#36E7FF"/>
<path d="M14.7603 54.3334C14.7603 55.3267 14.7703 56.3201 14.7603 57.3134C14.7503 58.1554 14.407 58.5431 13.6088 58.5517C11.9492 58.5721 10.29 58.5721 8.63147 58.5517C7.83163 58.5517 7.46502 58.1519 7.45336 57.327C7.44003 55.2939 7.44003 53.2618 7.45336 51.231C7.45336 50.3805 7.81662 50.0131 8.6198 50.0063C10.2772 49.9927 11.9358 49.9927 13.5955 50.0063C14.4087 50.0063 14.7519 50.3737 14.7619 51.2157C14.7703 52.2549 14.7603 53.2942 14.7603 54.3334ZM12.7323 52.0916H9.47296V53.2244H12.7323V52.0916ZM9.47131 56.4731H12.7323V55.3387H9.47296L9.47131 56.4731Z" fill="#36E7FF"/>
<path d="M24.34 54.2826C24.34 55.3032 24.35 56.3237 24.34 57.3307C24.3284 58.1811 23.9834 58.5451 23.1736 58.5536C21.515 58.5706 19.8565 58.5706 18.1979 58.5536C17.4314 58.5536 17.0415 58.1624 17.0315 57.38C17.0103 55.3026 17.0103 53.2252 17.0315 51.1479C17.0315 50.3655 17.428 50.0134 18.2129 50.0083C19.8703 49.9946 21.5289 49.9946 23.1886 50.0083C23.9734 50.0083 24.32 50.3672 24.3333 51.1666C24.3517 52.2041 24.3384 53.2434 24.34 54.2826ZM19.0444 53.2128H22.3087V52.0936H19.0444V53.2128ZM19.0444 56.4853H22.3004V55.361H19.0444V56.4853Z" fill="#36E7FF"/>
<path d="M50.9814 54.2582C50.9814 55.2515 50.9914 56.2449 50.9814 57.2382C50.9697 58.1805 50.6065 58.5513 49.685 58.5564C48.092 58.5655 46.4995 58.5655 44.9076 58.5564C44.0178 58.5564 43.6745 58.1907 43.6695 57.2688C43.6606 55.2595 43.6606 53.2501 43.6695 51.2408C43.6695 50.3563 44.0144 50.0128 44.8759 50.0077C46.5134 49.9974 48.1503 49.9974 49.7866 50.0077C50.5965 50.0077 50.9531 50.3768 50.9764 51.2119C50.9964 52.2256 50.9797 53.2411 50.9814 54.2582ZM48.9518 52.0828H45.7141V53.219H48.9518V52.0828ZM48.9618 55.3536H45.7008V56.4643H48.9618V55.3536Z" fill="#36E7FF"/>
<path d="M53.2427 54.2491C53.2427 53.2286 53.2427 52.208 53.2427 51.2011C53.2544 50.3693 53.6043 50.0105 54.4258 50.0105C56.0621 49.9991 57.6985 49.9991 59.3348 50.0105C60.1863 50.0105 60.5446 50.3796 60.5496 51.2538C60.5618 53.262 60.5618 55.2714 60.5496 57.2818C60.5496 58.1816 60.1747 58.5541 59.2848 58.5592C57.6929 58.5717 56.101 58.5717 54.5091 58.5592C53.581 58.5592 53.246 58.1952 53.2394 57.2308C53.2377 56.2358 53.2427 55.2425 53.2427 54.2491ZM58.535 55.353H55.2756V56.4807H58.535V55.353ZM58.5483 52.0839H55.2923V53.2082H58.5567L58.5483 52.0839Z" fill="#36E7FF"/>
<path d="M33.0199 32.6067C33.0199 31.7954 32.9866 31.0759 33.0199 30.3666C33.0532 29.6573 33.5915 29.2457 34.2364 29.4022C34.7363 29.5264 34.9645 29.9006 34.9745 30.3938C34.9929 31.4518 35.0062 32.5115 34.9745 33.5694C34.9529 34.26 34.6146 34.6019 33.9281 34.6257C32.9149 34.6614 31.8968 34.6597 30.882 34.6257C30.1905 34.6019 29.8089 34.1835 29.8289 33.5813C29.8489 33.0115 30.2238 32.6424 30.8903 32.6118C31.5569 32.5812 32.2167 32.6067 33.0199 32.6067Z" fill="#36E7FF"/>
</g>
<defs>
<clipPath id="clip0_189_8996">
<rect width="68" height="64" fill="white" transform="translate(-0.000244141)"/>
</clipPath>
</defs>
</svg>
