<svg width="65" height="56" viewBox="0 0 65 56" fill="none" xmlns="http://www.w3.org/2000/svg">
<g clip-path="url(#clip0_189_9008)">
<path d="M2.29646 50.5535V14.8595C1.85255 14.6725 1.40863 14.5541 1.04013 14.3173C0.335695 13.8659 0.0631834 13.1572 0.0614694 12.3369C0.0614694 10.5608 0.0528996 8.78299 0.0614694 7.00687C0.0717531 5.46242 0.987004 4.54605 2.55699 4.54262C6.29683 4.53232 10.0384 4.54262 13.78 4.54262C16.644 4.54262 19.508 4.54262 22.3737 4.54262C22.561 4.55561 22.7486 4.52324 22.9208 4.44827C23.0929 4.3733 23.2445 4.25792 23.3627 4.11189C24.5082 2.8213 25.9138 1.78832 27.487 1.08093C29.0601 0.373546 30.765 0.0078125 32.4895 0.0078125C34.214 0.0078125 35.9189 0.373546 37.492 1.08093C39.0651 1.78832 40.4707 2.8213 41.6163 4.11189C41.734 4.25812 41.8847 4.37423 42.0561 4.45062C42.2275 4.527 42.4145 4.56148 42.6018 4.55121C49.1217 4.54091 55.6416 4.54091 62.1615 4.55121C64.0982 4.55121 64.9261 5.3852 64.9261 7.32949C64.9261 8.80644 64.9261 10.2834 64.9261 11.7604C64.9261 13.7304 64.5833 14.2177 62.6979 14.8355V50.5621C62.8693 50.6256 63.0733 50.689 63.2652 50.7645C63.8487 50.9899 64.3366 51.4101 64.6462 51.9542C64.9558 52.4982 65.0682 53.1326 64.9644 53.7501C64.8606 54.3675 64.5469 54.9301 64.0764 55.3426C63.6059 55.7552 63.0076 55.9923 62.3825 56.014C62.2112 56.014 62.0398 56.014 61.8684 56.014H3.12944C2.80905 56.0268 2.48818 56.0084 2.17135 55.959C1.5857 55.8466 1.05338 55.5441 0.656688 55.0983C0.259994 54.6525 0.0210222 54.0883 -0.0232659 53.4929C-0.067554 52.8975 0.0853 52.3041 0.411667 51.8044C0.738033 51.3047 1.21973 50.9266 1.78228 50.7285C1.94167 50.6702 2.1045 50.6187 2.29646 50.5535ZM60.8314 50.5415V14.7429H45.2859C45.1146 14.7281 44.9422 14.7315 44.7717 14.7531C44.65 14.7823 44.4786 14.8698 44.4477 14.9677C44.2249 15.6541 44.033 16.3405 43.8221 17.0681C45.7452 17.0681 47.6254 17.0681 49.5056 17.0681C50.2512 17.0681 50.582 17.3804 50.582 18.1063C50.59 21.5522 50.59 24.998 50.582 28.4438C50.582 29.1405 50.2615 29.4597 49.5673 29.4975C49.2245 29.5181 48.8629 29.4975 48.5132 29.4975V50.5363L60.8314 50.5415ZM21.186 17.0681C20.9374 16.265 20.7129 15.5374 20.4798 14.7875H4.1561V50.5226H15.8367V29.5867C14.4398 29.3345 14.4021 29.2881 14.4021 27.8827C14.4021 24.6942 14.4021 21.5058 14.4021 18.3174C14.4021 17.3358 14.6695 17.075 15.6619 17.0733L21.186 17.0681ZM43.3268 29.5575H21.0454V50.526H25.2086V49.7847C25.2086 47.1952 25.1829 44.6039 25.2086 42.0144C25.2669 37.1751 29.5346 33.7464 34.1417 34.807C37.4771 35.5757 39.7498 38.4845 39.7789 42.0693C39.7995 44.6588 39.7789 47.2501 39.7789 49.8396C39.7789 50.0661 39.7995 50.2926 39.8098 50.526H43.3165L43.3268 29.5575ZM16.2258 27.6579H48.7446V18.8665C46.825 18.8665 44.9482 18.8562 43.0714 18.8837C42.9 18.8837 42.6652 19.0827 42.5452 19.2509C37.4942 26.2713 27.4796 26.2713 22.4371 19.2509C22.3491 19.1448 22.2409 19.0572 22.1188 18.9933C21.9967 18.9294 21.8631 18.8904 21.7258 18.8785C20.6375 18.8391 19.5457 18.8614 18.4556 18.8614H16.2275L16.2258 27.6579ZM42.9309 12.3026C42.9184 9.55138 41.8226 6.91613 39.8814 4.96883C37.9402 3.02152 35.3103 1.91933 32.5624 1.90148C29.8146 1.88364 27.1706 2.95157 25.2044 4.87349C23.2381 6.79541 22.1083 9.41622 22.0601 12.1671C22.0309 17.9279 26.6329 22.6539 32.3335 22.7174C33.7145 22.738 35.0858 22.4842 36.368 21.9705C37.6503 21.4569 38.8181 20.6936 39.8037 19.725C40.7894 18.7564 41.5733 17.6016 42.11 16.3275C42.6468 15.0534 42.9258 13.6854 42.9309 12.3026ZM37.9176 50.5312C37.9484 50.464 37.9703 50.393 37.9827 50.3201C37.9827 47.432 38.029 44.5439 37.9604 41.6574C37.9176 39.811 37.0555 38.3214 35.4975 37.3158C33.7201 36.1712 31.8245 36.0734 29.958 37.0498C28.0606 38.0417 27.0648 39.6943 27.022 41.8291C26.9671 44.6108 27.0048 47.3925 27.0083 50.1725C27.0195 50.294 27.0424 50.4141 27.0768 50.5312H37.9176ZM20.1542 12.9496C20.2964 11.7483 20.3427 10.638 20.5844 9.56551C20.826 8.49298 21.2699 7.44104 21.6127 6.37366C21.5571 6.35599 21.4996 6.34503 21.4413 6.34104C15.1568 6.34104 8.87234 6.33762 2.58784 6.33076C2.03423 6.33076 1.82855 6.57099 1.83541 7.10983C1.85083 8.71434 1.83541 10.3189 1.83541 11.9148C1.83541 12.8809 1.89368 12.9444 2.84321 12.9444H20.1542V12.9496ZM44.7185 12.905C44.9071 12.9273 44.9911 12.9461 45.0751 12.9461C50.8442 12.9461 56.6145 12.9461 62.386 12.9461C62.9379 12.9461 63.1487 12.7127 63.1436 12.1722C63.1298 10.5677 63.1436 8.96317 63.1436 7.36724C63.1436 6.4011 63.0819 6.33761 62.1409 6.33761H43.9267C43.7245 6.33761 43.5239 6.35821 43.2411 6.37538C44.3216 8.3735 44.8326 10.6305 44.7185 12.8998V12.905ZM32.4998 54.2052H61.7381C61.9517 54.2182 62.166 54.2147 62.3791 54.1949C62.8933 54.1143 63.1933 53.8157 63.1898 53.2854C63.1864 52.7552 62.9036 52.448 62.3774 52.3897C62.1642 52.373 61.9502 52.3684 61.7364 52.3759H3.25627C3.04308 52.3693 2.82969 52.3739 2.61697 52.3897C2.39907 52.3928 2.19133 52.4824 2.03934 52.6388C1.88735 52.7951 1.80353 53.0055 1.80627 53.2237C1.77371 53.7505 2.05137 54.0817 2.55527 54.1846C2.76707 54.2139 2.98134 54.2208 3.19457 54.2052H32.4998ZM17.722 29.5352V50.5192H19.1378V29.5352H17.722ZM45.1796 50.4968C46.6639 50.7079 46.6639 50.7079 46.6639 49.3093V29.5404H45.1796V50.4968Z" fill="#36E7FF"/>
<path d="M39.9776 12.0735C39.8919 13.6557 39.8062 15.2379 39.7154 16.8184C39.6691 17.5769 39.4617 17.8102 38.711 17.8755C36.7794 18.0471 35.1237 18.9497 33.4714 19.842C32.7962 20.2059 32.2374 20.2316 31.557 19.8609C30.5277 19.297 29.4641 18.7984 28.3724 18.368C27.6869 18.1003 26.9293 18.0007 26.194 17.8823C25.6147 17.7879 25.3147 17.5048 25.2856 16.9213C25.1142 13.7792 24.9428 10.6371 24.7988 7.49503C24.7611 6.70907 25.0851 6.40362 25.8564 6.38818C28.0033 6.32061 30.1297 6.82517 32.018 7.85026C32.1645 7.94712 32.3365 7.99803 32.5121 7.9965C32.6876 7.99497 32.8587 7.94107 33.0035 7.84167C34.9122 6.80743 37.0634 6.306 39.232 6.3899C39.9176 6.40706 40.2279 6.7331 40.1987 7.45728C40.1387 8.99658 40.053 10.5342 39.9776 12.0735ZM27.0218 15.9775L31.605 17.7107C31.605 15.4592 31.5364 13.1923 31.6358 10.934C31.6821 9.88206 31.341 9.3501 30.3812 9.01547C29.1814 8.59332 27.9816 8.20034 26.6311 8.22265C26.7613 10.8791 26.895 13.4755 27.0218 15.9775ZM37.9757 15.9775C38.1025 13.4652 38.2345 10.8551 38.3682 8.20034C36.7816 8.24849 35.2276 8.66374 33.8279 9.41358C33.684 9.47237 33.5631 9.57655 33.4836 9.71033C33.4041 9.84411 33.3704 10.0002 33.3875 10.1549C33.4046 12.5471 33.396 14.9393 33.3978 17.3315C33.3978 17.467 33.4183 17.6043 33.4269 17.697L37.9757 15.9775Z" fill="#36E7FF"/>
</g>
<defs>
<clipPath id="clip0_189_9008">
<rect width="65" height="56" fill="white" transform="translate(-0.000244141)"/>
</clipPath>
</defs>
</svg>
