<svg width="62" height="60" viewBox="0 0 62 60" fill="none" xmlns="http://www.w3.org/2000/svg">
<g clip-path="url(#clip0_189_6230)">
<path d="M6.02729 26.3512C5.58625 24.8217 5.14353 23.3691 4.76164 21.9015C4.67715 21.5789 4.68053 21.029 4.8681 20.8986C5.03436 20.8039 5.22065 20.7488 5.4122 20.7377C5.60376 20.7267 5.79529 20.76 5.97153 20.8351C6.64745 21.2179 7.25238 21.7511 7.88267 22.2241C7.94688 22.2709 8.00265 22.3278 8.13614 22.4464C8.13614 22.2108 8.13614 22.0587 8.13614 21.9065C8.20824 19.4494 8.28314 16.9933 8.36087 14.5384C8.34933 14.4131 8.37271 14.2871 8.42847 14.174C8.59745 13.9634 8.80192 13.6257 8.98273 13.6324C9.2193 13.6324 9.59443 13.8848 9.65864 14.1004C10.4917 16.8936 11.2791 19.6984 12.0801 22.5016C12.1887 22.3467 12.3146 22.2043 12.4552 22.077C13.1835 21.492 13.9034 20.8902 14.679 20.3721C14.8204 20.3003 14.9771 20.2629 15.1361 20.2629C15.2951 20.2629 15.4517 20.3003 15.5932 20.3721C15.7622 20.4857 15.8331 20.9337 15.7824 21.2078C15.3684 23.436 15.0288 25.6892 13.9237 27.8723C14.7415 27.68 15.5813 27.5497 16.3739 27.2839C17.7882 26.8125 19.1552 26.2007 20.578 25.7611C21.3706 25.5154 22.2307 25.4686 23.0671 25.3884C23.4304 25.3549 23.5909 25.263 23.7261 24.8986C24.1418 23.7887 24.6234 22.7022 25.1016 21.6174C25.2706 21.2229 25.5376 20.8284 26.0631 21.0908C26.5886 21.3533 26.4416 21.7795 26.2152 22.2057C23.7515 26.8543 23.667 31.548 26.0766 36.2283C28.7566 41.4318 34.5425 44.5459 40.4398 44.0478C48.7198 43.3474 54.7472 36.3754 54.1271 28.1681C53.904 24.9987 52.6238 21.9921 50.4873 19.6199C49.6846 18.7122 49.6813 18.7139 50.4467 17.8179C53.5897 14.1406 56.7311 10.4598 59.8707 6.77574C61.3915 4.98719 60.8237 2.44812 58.7368 1.54047C57.1586 0.853468 55.4434 1.40842 54.4769 2.9546C52.3365 6.3768 50.2085 9.80346 48.0929 13.2346C47.6299 13.9801 47.1685 14.7273 46.7022 15.4711C46.2645 16.1698 46.1412 16.2066 45.374 15.879C41.4672 14.2074 37.53 14.1238 33.5843 15.7118C32.7394 16.0561 31.9368 16.5392 31.1291 16.9855C30.7252 17.2062 30.318 17.487 29.975 16.9855C29.6032 16.4322 30.0578 16.1614 30.465 15.9124C35.1446 13.0362 40.0647 12.5509 45.2253 14.4565C45.3807 14.5133 45.5379 14.5635 45.7322 14.632L47.8563 11.2154C49.7151 8.23165 51.5451 5.24127 53.4157 2.26927C54.8452 -0.00403078 57.6402 -0.667634 59.847 0.706374C62.2279 2.18903 62.7315 5.32651 60.8896 7.51122C58.186 10.7156 55.4536 13.8865 52.733 17.0724C52.2835 17.5973 51.8374 18.1238 51.3643 18.6788C52.5928 20.0829 53.6354 21.6023 54.2673 23.3407C54.6667 24.5016 54.9984 25.6842 55.2609 26.8827C55.3437 27.2287 55.4705 27.4076 55.7932 27.451C56.8544 27.5965 57.9139 27.7603 58.9802 27.8589C59.7304 27.9274 59.918 28.0528 59.918 28.7983C59.918 38.8911 59.918 48.9844 59.918 59.0783C59.918 59.8372 59.7203 59.9926 58.8348 59.9926H1.27391C0.0910636 59.9926 0.00488281 59.9107 0.00488281 58.764V26.4866C0.00488281 25.4235 0.0927584 25.3449 1.15226 25.3533C2.82833 25.3605 4.48594 25.6999 6.02729 26.3512ZM1.29588 45.0056C3.70721 44.9521 5.81099 45.8664 7.91815 46.7691C8.15056 46.8678 8.39003 46.9494 8.63462 47.0131C11.5934 47.787 14.5134 47.7603 17.3573 46.5434C19.2414 45.736 21.1424 45.0758 23.2344 44.9805C25.8765 44.8629 28.5059 45.4068 30.879 46.5618C32.2883 47.2304 33.8057 47.4427 35.3569 47.5162C37.7598 47.6282 39.9768 47.0031 42.1296 46.0118C44.4801 44.9337 46.9742 44.8418 49.5005 45.0724C51.2291 45.2279 52.7955 45.8982 54.3603 46.5768C55.6975 47.1572 57.1382 47.4681 58.5983 47.4912V37.828L53.6759 36.6746C53.6911 36.6495 53.7351 36.6312 53.6759 36.6746C53.5796 36.8418 53.4951 37.0089 53.3971 37.1644C50.2659 42.3829 45.6241 45.1577 39.5003 45.3399C32.9946 45.5321 27.0178 41.6291 24.4206 35.6449C24.2398 35.2271 24.0303 35.1084 23.5859 35.1134C21.5801 35.1385 19.7382 35.7469 17.9454 36.566C15.5121 37.6759 12.947 37.8012 10.3312 37.5421C8.64139 37.375 7.12058 36.7197 5.59977 36.0628C4.24612 35.4726 2.78525 35.161 1.30601 35.1468L1.29588 45.0056ZM23.3172 26.6052C22.9235 26.6353 22.6413 26.6554 22.3439 26.6805C20.6541 26.8225 19.1535 27.553 17.6125 28.1631C14.5049 29.3934 11.3298 29.4719 8.14965 28.5175C6.84514 28.1263 5.61498 27.4912 4.31384 27.0917C3.35404 26.7975 2.33173 26.7055 1.32293 26.5217V33.9082C3.59569 33.8831 5.58456 34.7289 7.60554 35.5329C10.7671 36.7899 13.9727 36.7515 17.1562 35.543C18.0586 35.2003 18.9288 34.749 19.8599 34.5016C21.1103 34.1673 22.3946 33.9851 23.7075 33.731C23.0486 31.4133 22.9136 28.9804 23.3121 26.6052H23.3172ZM19.7247 51.6784C20.1826 51.7436 20.698 51.8088 21.2117 51.894C23.4828 52.2684 25.7505 52.7147 27.7394 53.9132C28.5251 54.3879 29.1301 54.4381 29.9682 54.1222C30.9314 53.7611 31.9807 53.6207 33.0352 53.375C32.1446 52.0862 31.4873 50.6805 31.364 49.1226C31.293 48.2216 30.8384 47.9124 30.0865 47.5664C27.8323 46.53 25.4987 46.062 23.0282 46.2659C22.9044 46.277 22.7842 46.3135 22.6754 46.3731C22.5666 46.4327 22.4715 46.514 22.3963 46.6119C21.4855 48.2818 20.6169 49.9684 19.7196 51.6834L19.7247 51.6784ZM12.2694 56.3002C12.5076 56.9471 12.7881 57.5555 12.9453 58.194C13.0652 58.6637 13.2984 58.754 13.7378 58.7507C16.286 58.7323 18.8359 58.6788 21.3807 58.7691C22.6649 58.8142 23.6822 58.6203 24.4494 57.492C24.7873 56.9905 25.3568 56.6295 25.8519 56.2467C26.347 55.8639 26.8658 55.5413 27.4082 55.1702C27.3001 55.0865 27.1872 55.0089 27.0702 54.9379C24.5136 53.6474 21.7524 53.1426 18.9288 52.907C18.7193 52.8902 18.4405 53.0992 18.2698 53.2764C17.0662 54.5715 15.5195 55.5068 13.8054 55.9759C13.312 56.1146 12.7848 56.1982 12.2643 56.3052L12.2694 56.3002ZM20.9109 46.7273L20.7977 46.5601C20.1218 46.8142 19.4206 47.0298 18.77 47.3307C16.9518 48.1665 15.071 48.7097 13.0568 48.7665C12.8775 48.7792 12.7091 48.8565 12.5837 48.9838C11.4768 50.1723 10.3869 51.3758 9.30548 52.5543C9.89184 53.2229 10.5779 54.0419 11.2994 54.8242C11.4651 54.9661 11.6807 55.0376 11.8993 55.0231C13.5294 54.9304 15.0883 54.3308 16.3536 53.3098C18.53 51.563 19.7213 49.1493 20.9059 46.7323L20.9109 46.7273ZM1.30939 53.5037C4.85795 53.9801 9.43558 51.3691 11.1287 48.6963C8.7208 48.6796 6.70826 47.4995 4.53858 46.7858C3.5247 46.4515 2.42636 46.3445 1.30265 46.1172L1.30939 53.5037ZM11.7438 58.7105C11.4278 56.9855 9.65358 54.3228 8.16657 53.3516C8.08018 53.3156 7.9874 53.297 7.89367 53.297C7.79993 53.297 7.70713 53.3156 7.62075 53.3516C6.77585 53.6742 5.97153 54.1272 5.10467 54.3395C3.87113 54.642 2.59702 54.7724 1.31278 54.983V58.7156L11.7438 58.7105ZM48.7113 46.1105C49.6069 49.2346 55.8777 53.706 58.6118 53.4469V48.8602C57.4779 48.6529 56.3813 48.5359 55.337 48.2383C54.2927 47.9408 53.3092 47.4026 52.2768 47.0683C51.0956 46.7005 49.8908 46.4314 48.7012 46.1155L48.7113 46.1105ZM32.5451 48.5375C32.7851 51.0281 34.0372 52.9538 35.8453 54.627C37.8426 52.698 40.2252 51.451 42.6568 50.4013C41.8119 49.716 41.0346 49.0541 40.2201 48.4356C40.0512 48.3119 39.7656 48.3002 39.5442 48.3236C38.3766 48.454 37.214 48.698 36.043 48.7365C34.8855 48.7799 33.733 48.6194 32.535 48.5426L32.5451 48.5375ZM52.0081 52.118C51.8934 52.5136 51.8081 52.9169 51.7529 53.3248C51.6583 54.7858 52.1737 56.0929 52.8192 57.3767C53.3109 58.3528 53.9226 58.993 55.1528 58.7624C55.6597 58.6688 56.2022 58.7473 56.7277 58.7473H58.6523C58.6523 57.4753 58.6642 56.2918 58.6337 55.1117C58.6337 54.993 58.3921 54.8259 58.2316 54.7774C57.3563 54.4899 56.4353 54.3077 55.5972 53.9416C54.4042 53.4201 53.2771 52.7732 52.0081 52.118ZM34.6337 58.7289H42.8511C42.9705 58.3965 43.1116 58.0721 43.2736 57.7578C43.4764 57.4084 43.4088 57.1744 43.1401 56.8869C42.6551 56.367 42.2682 55.7519 41.7511 55.2688C41.1043 54.6872 40.4171 54.151 39.6946 53.6642C39.5459 53.5605 39.1877 53.6006 39.0187 53.7093C37.7716 54.5049 36.631 55.436 35.7912 56.6579C35.362 57.263 35.0578 57.945 34.6253 58.7289H34.6337ZM50.6039 52.0428C50.5312 52.0317 50.4577 52.0267 50.3842 52.0277C48.4466 52.1437 46.5055 51.8649 44.6812 51.2087C44.5481 51.1478 44.3987 51.1314 44.2554 51.1619C43.0826 51.6349 41.9167 52.1263 40.8623 52.5676L44.3027 56.2032C46.0229 54.4949 48.2162 54.398 50.4332 54.5217C50.4873 53.6709 50.5363 52.8886 50.5954 52.0411L50.6039 52.0428ZM58.5983 36.3838V29.1878L55.4401 28.7365C55.5221 31.0044 55.1238 33.2642 54.2707 35.3708C55.6233 36.0109 57.0991 36.3563 58.5983 36.3838ZM25.1405 58.7457C27.8086 58.7457 30.4768 58.7457 33.1433 58.7339C33.2186 58.7225 33.2901 58.6938 33.3523 58.6503C33.4144 58.6068 33.4655 58.5496 33.5015 58.4832C33.9426 57.5054 34.36 56.5158 34.8179 55.451C34.4935 54.871 33.9156 54.5484 33.0707 54.7373C32.6617 54.8276 32.2258 54.8209 31.8202 54.9044C29.2157 55.3931 26.8585 56.7486 25.1405 58.7457ZM6.36017 22.3528L6.1067 22.4933C6.52746 23.6383 6.93977 24.7866 7.37235 25.9266C7.77114 26.9819 8.54282 27.5547 9.68737 27.6449C10.3363 27.6968 10.9818 27.8405 11.6289 27.8439C11.7857 27.8359 11.9393 27.7967 12.0804 27.7287C12.2215 27.6606 12.3473 27.565 12.4502 27.4477C13.633 25.8815 13.9423 24.011 14.2515 22.1172C13.9417 22.3245 13.6659 22.5776 13.4336 22.8677C12.9064 23.5363 12.435 24.2617 11.8807 24.9136C11.7792 25.0167 11.6551 25.0954 11.518 25.1435C11.3808 25.1916 11.2344 25.2079 11.0899 25.1911C10.9209 25.1477 10.735 24.7649 10.708 24.5225C10.6032 23.5948 10.6472 22.6437 10.4748 21.731C10.2264 20.4105 9.83945 19.1151 9.51332 17.8079C9.42714 19.2973 9.40009 20.7548 9.43727 22.2091C9.45755 23.0616 9.61639 23.909 9.6316 24.7615C9.6316 25.0256 9.42376 25.4552 9.21761 25.5204C9.01145 25.5856 8.65997 25.3232 8.42678 25.1376C8.2578 25.0022 8.19021 24.7482 8.05165 24.5643C7.4974 23.8188 6.92794 23.0866 6.36355 22.3528H6.36017ZM50.4636 50.7691C49.0543 49.4485 47.9492 48.1213 47.2125 46.5183C47.1572 46.4427 47.0853 46.3806 47.0021 46.3366C46.919 46.2926 46.8268 46.2678 46.7326 46.2643C44.8214 46.2643 43.0725 46.8727 41.2965 47.7502C43.9242 50.0152 46.9269 50.8944 50.4653 50.7674L50.4636 50.7691ZM52.0453 58.7172C51.6448 57.8213 51.2815 56.9838 50.8912 56.1581C50.8236 56.0144 50.6596 55.8238 50.5245 55.8238C49.0949 55.7034 47.6637 55.6416 46.3253 56.2985C45.3115 56.8 44.6355 57.5956 44.2486 58.7239L52.0453 58.7172Z" fill="#36E7FF"/>
<path d="M39.2335 41.7947C37.5813 41.7929 35.9457 41.4689 34.4204 40.841C32.895 40.2131 31.5098 39.2938 30.3441 38.1357C29.1783 36.9776 28.2549 35.6034 27.6268 34.0918C26.9987 32.5803 26.6781 30.961 26.6834 29.3267C26.7155 22.4533 32.3746 16.8252 39.2047 16.8753C46.3018 16.9255 51.9153 22.5017 51.868 29.4503C51.8224 36.2786 46.1312 41.8331 39.2335 41.7947ZM28.1823 27.2255C28.1525 27.2614 28.1307 27.3029 28.118 27.3475C27.5976 30.48 28.2363 33.3534 30.1221 35.9309C30.3417 36.2011 30.6423 36.3954 30.9806 36.4859C34.5494 37.442 38.0777 37.3852 41.4674 35.8172C43.8618 34.7124 46.3509 34.134 48.992 34.256C49.3959 34.2744 49.5395 34.0989 49.6679 33.7813C50.6586 31.5039 50.8606 28.9664 50.2424 26.5636C50.136 26.1373 49.9704 25.9668 49.5006 25.9368C46.7632 25.7696 44.2065 26.348 41.7276 27.4896C38.5339 28.9589 35.1712 29.0943 31.7764 28.3755C30.5598 28.1198 29.3921 27.6217 28.1823 27.2255ZM28.5202 25.9685C29.6372 26.3597 30.6983 26.8461 31.8136 27.1035C35.2844 27.9008 38.6708 27.6284 41.9135 26.0755C44.1609 24.999 46.5469 24.6029 49.0275 24.6747C49.1859 24.6689 49.3439 24.6538 49.5006 24.6296C48.0525 20.8185 43.2484 17.9134 38.8702 18.1357C33.0472 18.4299 29.5138 22.4733 28.5101 25.9685H28.5202ZM48.7014 35.5214C48.502 35.5114 48.382 35.5013 48.262 35.4997C46.2102 35.4833 44.1825 35.937 42.3376 36.8252C40.2268 37.8427 37.9062 38.3622 35.5582 38.3429C34.5105 38.3329 33.4645 38.236 32.4338 38.1758C36.4859 41.7278 44.5952 41.6091 48.6912 35.5214H48.7014Z" fill="#36E7FF"/>
<path d="M27.2613 42.6448C26.7662 42.6615 26.2981 42.6231 26.3201 41.9979C26.342 41.3728 26.827 41.3995 27.2917 41.3912C27.7564 41.3828 28.1873 41.4664 28.189 42.018C28.1822 42.6214 27.7175 42.6699 27.2613 42.6448Z" fill="#36E7FF"/>
<path d="M10.9566 40.1343C11.45 40.1059 11.9299 40.1243 11.94 40.7394C11.9501 41.3545 11.4804 41.3846 11.0039 41.3846C10.5273 41.3846 10.066 41.3378 10.0779 40.7311C10.088 40.1644 10.5189 40.0942 10.9566 40.1343Z" fill="#36E7FF"/>
<path d="M6.13742 43.276C5.65583 43.2893 5.17593 43.2877 5.18269 42.6558C5.18945 42.024 5.66765 42.0323 6.12896 42.024C6.59028 42.0156 7.03132 42.0992 7.04653 42.6341C7.06005 43.2225 6.6038 43.3094 6.13742 43.276Z" fill="#36E7FF"/>
<path d="M56.9763 40.7426C56.5387 40.7693 56.1129 40.6707 56.1027 40.1224C56.0926 39.5741 56.515 39.4705 56.9848 39.4906C57.3768 39.5073 57.8195 39.4204 57.9581 39.9486C58.0967 40.4768 57.7536 40.7492 56.9763 40.7426Z" fill="#36E7FF"/>
<path d="M16.7728 39.7295C16.5816 39.7173 16.3962 39.6599 16.232 39.5623C16.1544 39.4851 16.0956 39.3913 16.0602 39.2882C16.0248 39.1851 16.0136 39.0753 16.0276 38.9672C16.0647 38.7901 16.281 38.6146 16.4618 38.5109C16.5903 38.4374 16.7897 38.4792 16.9569 38.4741C17.3997 38.4641 17.8525 38.4741 17.8661 39.0675C17.8745 39.6877 17.4132 39.7278 16.7728 39.7295Z" fill="#36E7FF"/>
<path d="M20.1762 43.6566C19.6777 43.6716 19.2079 43.6432 19.2316 43.013C19.2518 42.4363 19.6996 42.4113 20.1441 42.4062C20.6189 42.4062 21.0954 42.4464 21.1005 43.0398C21.1055 43.6332 20.6189 43.68 20.1762 43.6566Z" fill="#36E7FF"/>
<path d="M2.81013 38.0891C3.33228 38.0891 3.82401 38.0891 3.82401 38.7142C3.82401 39.3394 3.33059 39.3344 2.87266 39.3411C2.41472 39.3478 1.9737 39.2893 1.9568 38.7343C1.93146 38.1292 2.39614 38.069 2.81013 38.0891Z" fill="#36E7FF"/>
<path d="M54.8809 44.2933C54.4145 44.3067 53.9194 44.3083 53.9194 43.6848C53.9194 43.0614 54.3993 43.043 54.8657 43.043C55.3321 43.043 55.8052 43.0998 55.7917 43.7116C55.7731 44.2866 55.3169 44.3033 54.8809 44.2933Z" fill="#36E7FF"/>
<path d="M14.26 44.0841C14.9359 44.0841 15.2637 44.3448 15.1691 44.8078C15.0643 45.3243 14.6453 45.3344 14.2347 45.3327C13.824 45.331 13.4033 45.3327 13.2968 44.8145C13.1971 44.3298 13.5368 44.079 14.26 44.0841Z" fill="#36E7FF"/>
<path d="M23.3968 37.4494C23.9578 37.4494 24.4411 37.4494 24.4394 38.0779C24.4394 38.6612 23.9916 38.6963 23.5472 38.6997C23.1027 38.703 22.5924 38.6997 22.5722 38.0929C22.5519 37.4861 23.025 37.4343 23.3968 37.4494Z" fill="#36E7FF"/>
</g>
<defs>
<clipPath id="clip0_189_6230">
<rect width="62" height="60" fill="white"/>
</clipPath>
</defs>
</svg>
