<svg width="126" height="24" viewBox="0 0 126 24" fill="none" xmlns="http://www.w3.org/2000/svg">
<g clip-path="url(#clip0_452_9162)">
<path fill-rule="evenodd" clip-rule="evenodd" d="M124.539 17.0011H126V17.4248H124.003V14.6564H125.926V15.0801H124.544V15.7974H125.731V16.221H124.544L124.539 17.0011ZM122.713 14.6564H123.282V17.4248H122.737V16.1515C122.737 15.9924 122.737 15.7369 122.763 15.3827C122.663 15.5441 122.485 15.7951 122.23 16.1314L121.269 17.4248H120.699V14.6564H121.245V15.9319C121.245 16.1336 121.245 16.3802 121.218 16.6963C121.312 16.5505 121.485 16.3062 121.74 15.9655L122.713 14.6564ZM119.308 17.4248H118.763V15.0801H117.802V14.6564H120.262V15.0801H119.301L119.308 17.4248ZM116.259 16.3869L115.593 17.4248H114.969L115.709 16.304C115.536 16.251 115.386 16.1491 115.279 16.0126C115.183 15.8722 115.134 15.7082 115.139 15.5418C115.135 15.3668 115.19 15.195 115.297 15.0512C115.405 14.9074 115.558 14.799 115.735 14.7416C115.813 14.7154 115.894 14.6952 115.975 14.6811C116.077 14.6679 116.179 14.6611 116.281 14.6609H117.376V17.4292H116.833V16.3914L116.259 16.3869ZM116.833 15.0845H116.331C116.266 15.0843 116.201 15.088 116.136 15.0958C116.088 15.1035 116.039 15.1147 115.992 15.1294C115.901 15.1601 115.824 15.2175 115.771 15.293C115.725 15.36 115.7 15.4377 115.699 15.5172C115.699 15.5609 115.704 15.6045 115.714 15.6472C115.725 15.6883 115.742 15.7276 115.766 15.7637C115.792 15.7997 115.825 15.8309 115.863 15.8557C115.908 15.8848 115.958 15.9068 116.011 15.9207C116.058 15.9333 116.105 15.9415 116.153 15.9453C116.22 15.9492 116.288 15.9492 116.355 15.9453H116.836L116.833 15.0845ZM113.854 14.6564H114.426V17.4248H113.88V16.1515C113.88 15.9924 113.88 15.7369 113.907 15.3827C113.806 15.5441 113.625 15.7951 113.373 16.1314L112.412 17.4248H111.843V14.6564H112.388V15.9319C112.388 16.1336 112.388 16.3802 112.362 16.6963C112.458 16.5505 112.631 16.3062 112.885 15.9655L113.854 14.6564ZM109.637 15.9162H109.757H109.906C110.029 15.9184 110.153 15.9071 110.273 15.8826C110.359 15.8665 110.441 15.8353 110.514 15.7906C110.571 15.7554 110.617 15.7057 110.646 15.6472C110.672 15.5898 110.685 15.528 110.684 15.4656C110.689 15.3873 110.669 15.3094 110.627 15.2415C110.575 15.1754 110.502 15.1272 110.418 15.1047C110.355 15.0854 110.291 15.0727 110.225 15.0666C110.151 15.0666 110.057 15.0554 109.947 15.0554H109.639L109.637 15.9162ZM109.915 16.3533H109.771H109.637V17.436H109.106V14.6564H109.961C110.087 14.6559 110.213 14.6619 110.338 14.6743C110.435 14.6838 110.531 14.7018 110.624 14.7281C110.812 14.7703 110.981 14.8677 111.105 15.0061C111.22 15.1434 111.278 15.3141 111.271 15.488C111.274 15.6133 111.243 15.7373 111.182 15.8489C111.121 15.9582 111.032 16.0514 110.922 16.1202C110.796 16.2014 110.654 16.2599 110.504 16.2928C110.32 16.3354 110.13 16.3557 109.939 16.3533M108.385 14.6564V17.4248H107.839V15.089H106.573V17.4248H106.028V14.6564H108.385ZM103.971 15.0801C103.943 15.276 103.905 15.4706 103.856 15.6629C103.813 15.8304 103.758 15.9951 103.692 16.156C103.632 16.3051 103.559 16.4497 103.476 16.5887C103.395 16.7277 103.306 16.8624 103.209 16.9921H104.507V15.0711L103.971 15.0801ZM102.584 17.0011C102.702 16.8587 102.809 16.7089 102.904 16.5528C103.009 16.3867 103.099 16.2127 103.173 16.0327C103.256 15.8289 103.325 15.6199 103.377 15.4073C103.439 15.1577 103.484 14.9046 103.512 14.6497H105.05V16.9944H105.403V18.3393H104.862V17.4225H102.94V18.3393H102.399V16.9944L102.584 17.0011ZM100.54 17.0011H101.998V17.4248H99.9942V14.6564H101.916V15.0801H100.537V15.7974H101.722V16.221H100.537L100.54 17.0011ZM97.8124 15.9162H97.9301H98.0791C98.2026 15.9184 98.326 15.9071 98.4467 15.8826C98.5321 15.8657 98.6136 15.8346 98.687 15.7906C98.7435 15.7548 98.7883 15.7051 98.8168 15.6472C98.8438 15.59 98.8577 15.5281 98.8576 15.4656C98.8612 15.3871 98.8403 15.3092 98.7975 15.2415C98.7462 15.1754 98.6726 15.1272 98.5885 15.1047C98.5262 15.0852 98.4617 15.0724 98.3963 15.0666C98.3218 15.0666 98.2281 15.0554 98.1176 15.0554H97.8124V15.9162ZM98.0887 16.3533H97.9445H97.8124V17.436H97.2669V14.6564H98.1223C98.2484 14.6559 98.3743 14.6619 98.4996 14.6743C98.5966 14.6833 98.6924 14.7014 98.7855 14.7281C98.9731 14.7713 99.1413 14.8686 99.2661 15.0061C99.3799 15.1437 99.4378 15.3144 99.4295 15.488C99.4323 15.6133 99.4018 15.7373 99.3406 15.8489C99.2758 15.9636 99.1796 16.0603 99.0619 16.1291C98.9352 16.2103 98.7934 16.2689 98.6438 16.3017C98.4591 16.3445 98.2693 16.3648 98.0791 16.3623M96.5461 14.6654V17.4337H96.0006V15.089H94.7319V17.4248H94.1865V14.6564L96.5461 14.6654ZM91.2118 17.0101H92.6727V17.4337H90.6664V14.6564H92.5886V15.0801H91.2094V15.7974H92.394V16.221H91.2094L91.2118 17.0101ZM90.0873 16.0484C90.0896 16.2456 90.0572 16.4417 89.9912 16.629C89.9307 16.7945 89.8351 16.947 89.71 17.0773C89.5821 17.2051 89.4265 17.306 89.2535 17.3732C88.8589 17.5137 88.4226 17.5137 88.028 17.3732C87.8551 17.306 87.6994 17.2051 87.5715 17.0773C87.4465 16.947 87.3509 16.7945 87.2904 16.629C87.1623 16.2512 87.1623 15.8457 87.2904 15.4679C87.3504 15.3021 87.446 15.1496 87.5715 15.0195C87.6981 14.8904 87.8541 14.7893 88.028 14.7237C88.4226 14.5831 88.8589 14.5831 89.2535 14.7237C89.4274 14.7893 89.5834 14.8904 89.71 15.0195C89.8355 15.1496 89.9311 15.3021 89.9912 15.4679C90.0576 15.655 90.09 15.8513 90.0873 16.0484ZM89.525 16.0484C89.5292 15.8966 89.5064 15.7451 89.4577 15.6001C89.4203 15.4844 89.3582 15.3768 89.2751 15.2841C89.1989 15.2016 89.1036 15.1365 88.9964 15.0935C88.7643 15.0105 88.5076 15.0105 88.2755 15.0935C88.1683 15.1365 88.073 15.2016 87.9968 15.2841C87.9137 15.3768 87.8516 15.4844 87.8142 15.6001C87.7245 15.8886 87.7245 16.1948 87.8142 16.4833C87.8516 16.5991 87.9137 16.7066 87.9968 16.7994C88.0738 16.8805 88.1689 16.9447 88.2755 16.9877C88.5069 17.0737 88.7649 17.0737 88.9964 16.9877C89.103 16.9447 89.1981 16.8805 89.2751 16.7994C89.3582 16.7066 89.4203 16.5991 89.4577 16.4833C89.5064 16.3383 89.5292 16.1869 89.525 16.035M84.6929 15.7929H86.0673V14.6519H86.6128V17.4203H86.0673V16.2166H84.6929V17.4203H84.1499V14.6564H84.6929V15.7929ZM81.5163 15.7929H82.8908V14.6519H83.4338V17.4203H82.8908V16.2166H81.5163V17.4203H80.9733V14.6564H81.5163V15.7929ZM78.9333 16.9966H80.3942V17.4203H78.3878V14.6564H80.3101V15.0801H78.9309V15.7974H80.1155V16.221H78.9309L78.9333 16.9966ZM76.5881 15.7929C76.6995 15.7977 76.811 15.7841 76.9173 15.7525C76.989 15.7274 77.0498 15.6809 77.0903 15.6203C77.1265 15.5626 77.1448 15.4966 77.1432 15.4298C77.1468 15.3556 77.1223 15.2825 77.074 15.2235C77.0256 15.1645 76.9566 15.1232 76.8789 15.107C76.8334 15.0949 76.7867 15.0874 76.7395 15.0845C76.6739 15.0806 76.6081 15.0806 76.5425 15.0845H76.0979V15.8019L76.5881 15.7929ZM76.1076 16.2166V16.9966H76.4632C76.5561 16.9966 76.6362 16.9966 76.7035 16.9966C76.7625 16.9929 76.8212 16.9846 76.8789 16.972C76.9444 16.9614 77.0077 16.941 77.0663 16.9114C77.1127 16.8897 77.1542 16.8601 77.1888 16.824C77.2194 16.7931 77.2423 16.7564 77.2561 16.7164C77.2689 16.6756 77.2753 16.6334 77.2753 16.5909C77.2773 16.5182 77.2527 16.4471 77.2056 16.3892C77.1513 16.3254 77.0763 16.2798 76.9918 16.2591C76.9427 16.2446 76.8918 16.2356 76.8404 16.2322C76.7827 16.2322 76.7083 16.2322 76.617 16.2322L76.1076 16.2166ZM77.7127 15.3894C77.7145 15.5043 77.6847 15.6178 77.6261 15.7189C77.5597 15.8275 77.459 15.9143 77.3378 15.9677V15.9789C77.4096 15.9999 77.4782 16.0292 77.542 16.0664C77.6013 16.1024 77.6547 16.1462 77.7006 16.1964C77.746 16.248 77.7817 16.3063 77.8064 16.369C77.8313 16.4368 77.8435 16.508 77.8424 16.5797C77.8428 16.6555 77.8315 16.731 77.8088 16.8038C77.7841 16.8849 77.7434 16.961 77.6886 17.028C77.6211 17.1066 77.5399 17.1741 77.4483 17.2275C77.3371 17.2944 77.2144 17.3429 77.0855 17.371L76.963 17.3934C76.9154 17.4022 76.8672 17.4081 76.8188 17.4113C76.7635 17.4113 76.7059 17.4113 76.641 17.4113H75.5549V14.6564H76.5881C76.7676 14.6511 76.9468 14.6722 77.1191 14.7192C77.2123 14.7464 77.3005 14.7865 77.3811 14.838C77.4509 14.8831 77.5125 14.9383 77.5637 15.0016C77.6105 15.0589 77.6463 15.1234 77.6694 15.1921C77.693 15.2571 77.7052 15.3253 77.7054 15.3939M74.1781 17.4248H73.6326V15.0801H72.6715V14.6564H75.132V15.0801H74.1709L74.1781 17.4248ZM71.7464 15.0308C71.607 15.0295 71.4685 15.0523 71.3379 15.098C71.2164 15.142 71.1065 15.2101 71.0159 15.2975C70.9225 15.3901 70.8513 15.5001 70.8069 15.6203C70.7537 15.7606 70.7277 15.9086 70.73 16.0574C70.7275 16.2035 70.751 16.3489 70.7997 16.4878C70.8399 16.6033 70.9072 16.7089 70.9967 16.7971C71.0848 16.8815 71.1925 16.9459 71.3115 16.9854C71.4465 17.0295 71.5889 17.0508 71.732 17.0482C71.847 17.0475 71.9618 17.0393 72.0756 17.0235C72.1865 17.0093 72.2958 16.986 72.4024 16.954V17.3889C72.2927 17.4167 72.1811 17.4377 72.0684 17.4517C71.9451 17.469 71.8206 17.4773 71.6959 17.4763C71.4702 17.4805 71.2454 17.4463 71.0328 17.3755C70.852 17.3149 70.6878 17.2177 70.5522 17.0908C70.4213 16.9634 70.3227 16.8102 70.2639 16.6425C70.1974 16.4607 70.1649 16.2696 70.1677 16.0776C70.1653 15.8777 70.2002 15.6789 70.2711 15.4903C70.3348 15.316 70.4362 15.1558 70.569 15.0195C70.7035 14.8843 70.8673 14.7773 71.0496 14.7057C71.2598 14.628 71.4842 14.5891 71.7104 14.5914C71.8301 14.5906 71.9498 14.5981 72.0684 14.6138C72.1713 14.6273 72.2727 14.6498 72.3711 14.6811V15.1092C72.2635 15.0782 72.1534 15.0549 72.042 15.0397C71.9425 15.0265 71.8421 15.0197 71.7416 15.0195M68.5482 15.0689C68.5209 15.2651 68.4816 15.4596 68.4305 15.6517C68.3883 15.8191 68.3345 15.9838 68.2695 16.1448C68.2081 16.2935 68.1358 16.438 68.0532 16.5774C67.9715 16.7149 67.8826 16.8494 67.7865 16.9809H69.0841V15.0599L68.5482 15.0689ZM67.1594 16.9899C67.2776 16.8475 67.3852 16.6978 67.4814 16.5416C67.5855 16.3754 67.6747 16.2014 67.7481 16.0215C67.8322 15.8177 67.9012 15.6088 67.9547 15.3961C68.0167 15.1465 68.0616 14.8934 68.0893 14.6385H69.6271V16.9832H69.9803V18.3281H69.4397V17.4113H67.5174V18.3281H66.984V16.9832L67.1594 16.9899ZM66.9191 16.0283C66.9215 16.2254 66.889 16.4216 66.823 16.6088C66.7634 16.7748 66.6677 16.9274 66.5419 17.0572C66.4139 17.1849 66.2583 17.2858 66.0853 17.353C65.6907 17.4936 65.2545 17.4936 64.8599 17.353C64.6869 17.2858 64.5312 17.1849 64.4033 17.0572C64.2783 16.9268 64.1827 16.7744 64.1222 16.6088C63.9941 16.231 63.9941 15.8255 64.1222 15.4477C64.1822 15.2819 64.2779 15.1294 64.4033 14.9994C64.53 14.8702 64.686 14.7691 64.8599 14.7035C65.2545 14.563 65.6907 14.563 66.0853 14.7035C66.2592 14.7691 66.4152 14.8702 66.5419 14.9994C66.6682 15.1288 66.7639 15.2815 66.823 15.4477C66.8894 15.6349 66.9219 15.8311 66.9191 16.0283ZM66.3568 16.0283C66.361 15.8764 66.3383 15.7249 66.2896 15.5799C66.2521 15.4642 66.19 15.3567 66.1069 15.2639C66.0307 15.1815 65.9354 15.1163 65.8282 15.0733C65.7149 15.032 65.5942 15.0115 65.4726 15.0128C65.3518 15.0115 65.2318 15.0321 65.1194 15.0733C65.0113 15.1148 64.9156 15.1802 64.8406 15.2639C64.7557 15.3558 64.6926 15.4635 64.6556 15.5799C64.5659 15.8684 64.5659 16.1747 64.6556 16.4631C64.6931 16.5793 64.7561 16.687 64.8406 16.7792C64.9166 16.8613 65.0121 16.9257 65.1194 16.9675C65.2313 17.0106 65.3515 17.032 65.4726 17.0302C65.5945 17.032 65.7154 17.0106 65.8282 16.9675C65.9283 16.9298 66.0191 16.8733 66.0949 16.8016C66.178 16.7088 66.2401 16.6013 66.2775 16.4855C66.3263 16.3406 66.349 16.1891 66.3448 16.0372M62.3441 15.7951C62.4563 15.7999 62.5685 15.7862 62.6757 15.7548C62.7466 15.7284 62.807 15.6822 62.8487 15.6225C62.8838 15.5644 62.902 15.4987 62.9016 15.432C62.9015 15.363 62.8807 15.2954 62.8415 15.237C62.7907 15.1742 62.7188 15.1292 62.6372 15.1092C62.5917 15.0975 62.545 15.09 62.4979 15.0868C62.4323 15.0829 62.3665 15.0829 62.3008 15.0868H61.8563V15.8041L62.3441 15.7951ZM61.8635 16.2188V16.9989H62.2167C62.3129 16.9989 62.393 16.9989 62.457 16.9989C62.5161 16.9953 62.5748 16.987 62.6324 16.9742C62.6989 16.964 62.763 16.9436 62.8223 16.9137C62.8686 16.892 62.9102 16.8623 62.9448 16.8263C62.9755 16.7958 62.9977 16.7589 63.0097 16.7187C63.0244 16.6783 63.0317 16.6358 63.0313 16.5931C63.0322 16.5206 63.0077 16.4498 62.9616 16.3914C62.9063 16.3276 62.8305 16.282 62.7454 16.2614C62.6963 16.2466 62.6454 16.2376 62.594 16.2345C62.5363 16.2345 62.4618 16.2345 62.3729 16.2345L61.8635 16.2188ZM63.4662 15.3916C63.468 15.5066 63.4383 15.62 63.3797 15.7212C63.3136 15.8292 63.2139 15.916 63.0938 15.97V15.9812C63.1654 16.0025 63.234 16.0319 63.298 16.0686C63.3566 16.1046 63.4092 16.1484 63.4542 16.1986C63.5004 16.2497 63.5362 16.3082 63.5599 16.3712C63.5869 16.4386 63.5999 16.5101 63.5984 16.5819C63.5976 16.6577 63.5863 16.733 63.5647 16.8061C63.538 16.8868 63.4966 16.9627 63.4422 17.0302C63.3747 17.1089 63.2934 17.1763 63.2019 17.2298C63.0895 17.2961 62.9661 17.3446 62.8367 17.3732L62.7165 17.3956C62.6681 17.4044 62.6192 17.4104 62.57 17.4136C62.5171 17.4136 62.457 17.4136 62.3922 17.4136H61.3085V14.6564H62.3393C62.5195 14.651 62.6996 14.6722 62.8727 14.7192C62.9651 14.7463 63.0526 14.7864 63.1322 14.838C63.2028 14.8831 63.2652 14.9383 63.3172 15.0016C63.3632 15.0594 63.3989 15.1238 63.423 15.1921C63.4447 15.2575 63.456 15.3255 63.4566 15.3939M58.6509 14.7819C58.9447 14.6616 59.2624 14.6005 59.5832 14.6026C59.735 14.6006 59.8863 14.6187 60.0326 14.6564C60.1546 14.6856 60.269 14.7374 60.369 14.8088C60.4604 14.8724 60.5331 14.9564 60.5804 15.0532C60.6318 15.1571 60.6572 15.2705 60.6549 15.3849C60.656 15.454 60.6455 15.5229 60.6237 15.5889C60.605 15.6486 60.5766 15.7053 60.5396 15.757C60.5033 15.8073 60.4586 15.852 60.4074 15.8893C60.3564 15.9279 60.2998 15.9596 60.2392 15.9834C60.3829 16.0161 60.5117 16.0907 60.6068 16.1964C60.7002 16.3089 60.7479 16.4487 60.7414 16.5909C60.7425 16.7074 60.7171 16.8227 60.6669 16.9294C60.6165 17.0375 60.539 17.1328 60.441 17.2073C60.3251 17.2941 60.192 17.3588 60.0494 17.3979C59.8667 17.4468 59.6772 17.4703 59.4871 17.4674C59.3197 17.4689 59.1527 17.4515 58.9897 17.4158C58.8527 17.3858 58.7197 17.3414 58.5933 17.2835V16.8576C58.7237 16.9163 58.8607 16.9614 59.0018 16.9921C59.1481 17.0248 59.2982 17.0406 59.4487 17.0392C59.5531 17.0404 59.6573 17.0291 59.7586 17.0056C59.8438 16.9892 59.9251 16.9588 59.9989 16.9159C60.0581 16.8797 60.1068 16.8304 60.1407 16.7725C60.174 16.7147 60.1906 16.6498 60.1888 16.5842C60.19 16.5359 60.181 16.4879 60.1623 16.443C60.1433 16.3961 60.1119 16.3544 60.071 16.3219C60.0211 16.2845 59.964 16.2564 59.9028 16.239C59.8184 16.2167 59.731 16.2061 59.6433 16.2076H59.1339V15.7929H59.5832C59.6645 15.7949 59.7455 15.785 59.8235 15.7637C59.8834 15.7494 59.9386 15.7217 59.9845 15.6831C60.0244 15.6502 60.055 15.6086 60.0734 15.562C60.0922 15.5116 60.1011 15.4584 60.0998 15.4051C60.1028 15.352 60.0916 15.299 60.0672 15.2509C60.0429 15.2028 60.0063 15.1611 59.9605 15.1294C59.8265 15.053 59.67 15.0184 59.5135 15.0308C59.3736 15.0313 59.2342 15.0463 59.0979 15.0756C58.9486 15.1051 58.8023 15.1463 58.6605 15.1989L58.6509 14.7819ZM57.4255 14.6564H57.995V17.4248H57.4687V16.1515C57.4687 15.9924 57.4687 15.7369 57.4952 15.3827C57.3942 15.5441 57.2164 15.7951 56.9641 16.1314L56.003 17.4248H55.4311V14.6564H55.9766V15.9319C55.9766 16.1336 55.9766 16.3802 55.9501 16.6963C56.0439 16.5505 56.2193 16.3062 56.474 15.9655L57.4255 14.6564ZM54.8184 16.0395C54.8198 16.2365 54.7874 16.4325 54.7223 16.62C54.6609 16.7857 54.5645 16.9381 54.4388 17.0684C54.3117 17.1971 54.1559 17.2981 53.9822 17.3642C53.7875 17.4371 53.5792 17.4729 53.3695 17.4696C53.1598 17.4725 52.9516 17.4367 52.7568 17.3642C52.5838 17.297 52.4282 17.1961 52.3002 17.0684C52.1752 16.938 52.0796 16.7856 52.0191 16.62C51.891 16.2422 51.891 15.8367 52.0191 15.4589C52.0791 15.2932 52.1748 15.1406 52.3002 15.0106C52.4269 14.8814 52.5829 14.7804 52.7568 14.7147C52.9516 14.6422 53.1598 14.6064 53.3695 14.6093C53.5792 14.606 53.7875 14.6418 53.9822 14.7147C54.1568 14.7792 54.3131 14.8804 54.4388 15.0106C54.565 15.1405 54.6615 15.293 54.7223 15.4589C54.7876 15.6463 54.82 15.8424 54.8184 16.0395ZM54.2537 16.0395C54.2579 15.8876 54.2352 15.7361 54.1865 15.5911C54.1504 15.4749 54.0881 15.3671 54.0038 15.2751C53.9281 15.1922 53.8327 15.1269 53.7251 15.0845C53.6118 15.0433 53.4911 15.0227 53.3695 15.024C53.2487 15.0227 53.1287 15.0433 53.0163 15.0845C52.9082 15.126 52.8125 15.1914 52.7376 15.2751C52.6536 15.3677 52.5907 15.4752 52.5525 15.5911C52.4628 15.8796 52.4628 16.1859 52.5525 16.4743C52.591 16.5902 52.6539 16.6976 52.7376 16.7904C52.8136 16.8725 52.909 16.9369 53.0163 16.9787C53.1282 17.0218 53.2484 17.0432 53.3695 17.0415C53.4914 17.0432 53.6123 17.0218 53.7251 16.9787C53.8321 16.9364 53.9274 16.872 54.0038 16.7904C54.0876 16.698 54.1498 16.5904 54.1865 16.4743C54.2352 16.3294 54.2579 16.1779 54.2537 16.026M49.8662 15.9027H49.9863H50.1353C50.2588 15.905 50.3822 15.8937 50.5029 15.8691C50.5886 15.8531 50.6701 15.8219 50.7432 15.7772C50.8009 15.742 50.8467 15.6922 50.8754 15.6337C50.9016 15.5764 50.9147 15.5145 50.9138 15.4522C50.9187 15.3735 50.8977 15.2953 50.8537 15.228C50.8039 15.1614 50.7309 15.1131 50.6471 15.0913C50.5847 15.072 50.5202 15.0592 50.4549 15.0532C50.3804 15.0532 50.2867 15.042 50.1761 15.042H49.8686L49.8662 15.9027ZM50.1641 16.3533H50.0199H49.8854V17.436H49.3423V14.6564H50.1978C50.3238 14.6559 50.4497 14.6619 50.575 14.6743C50.672 14.6836 50.7677 14.7016 50.8609 14.7281C51.0485 14.7713 51.2167 14.8686 51.3415 15.0061C51.4544 15.1441 51.5122 15.3146 51.5049 15.488C51.5086 15.6123 51.4786 15.7353 51.4177 15.8458C51.3568 15.9563 51.2669 16.0507 51.1565 16.1202C51.0298 16.2014 50.888 16.2599 50.7384 16.2928C50.5537 16.3354 50.3639 16.3557 50.1737 16.3533M48.6383 14.6564V17.4248H48.0736V15.089H46.8074V17.4248H46.2715V14.6564H48.6383ZM44.7673 16.1672H45.7453V16.6156H44.7577L44.7673 16.1672ZM44.3661 16.0395C44.3685 16.2366 44.336 16.4328 44.27 16.62C44.2095 16.7861 44.113 16.9387 43.9864 17.0684C43.8598 17.1965 43.7049 17.2975 43.5323 17.3642C43.1368 17.5047 42.6999 17.5047 42.3044 17.3642C42.1318 17.2975 41.9769 17.1965 41.8503 17.0684C41.7244 16.9386 41.6287 16.786 41.5692 16.62C41.4379 16.2427 41.4379 15.8363 41.5692 15.4589C41.6282 15.2928 41.724 15.14 41.8503 15.0106C41.9756 14.881 42.1309 14.7798 42.3044 14.7147C42.6999 14.5742 43.1368 14.5742 43.5323 14.7147C43.7064 14.7789 43.8626 14.8793 43.9888 15.0083C44.1159 15.1377 44.2125 15.2904 44.2724 15.4567C44.3388 15.6438 44.3713 15.8401 44.3685 16.0372M43.8038 16.0372C43.8074 15.8855 43.7856 15.7343 43.7389 15.5889C43.7008 15.473 43.6379 15.3654 43.5539 15.2728C43.4789 15.1892 43.3833 15.1238 43.2752 15.0823C43.0433 14.9987 42.7862 14.9987 42.5543 15.0823C42.4468 15.1247 42.3513 15.1899 42.2756 15.2728C42.1916 15.3654 42.1287 15.473 42.0906 15.5889C42.0041 15.8778 42.0041 16.1832 42.0906 16.4721C42.129 16.5879 42.1919 16.6954 42.2756 16.7882C42.3521 16.8698 42.4474 16.9341 42.5543 16.9764C42.7855 17.0637 43.044 17.0637 43.2752 16.9764C43.3825 16.9347 43.4779 16.8702 43.5539 16.7882C43.6376 16.6954 43.7005 16.5879 43.7389 16.4721C43.7856 16.3267 43.8074 16.1755 43.8038 16.0238M38.9741 15.7817H40.3461V14.6407H40.8916V17.4091H40.3461V16.2053H38.9741V17.4091H38.4286V14.6564H38.9741V15.7817ZM37.172 17.4091V16.369C37.063 16.399 36.9523 16.4229 36.8404 16.4407C36.7215 16.4616 36.6009 16.4722 36.4799 16.4721C36.3572 16.4737 36.2347 16.4624 36.1147 16.4385C36.0204 16.4177 35.9304 16.3829 35.848 16.3354C35.7769 16.2943 35.7156 16.2402 35.6678 16.1762C35.6201 16.1106 35.5828 16.0389 35.5573 15.9633C35.5344 15.8901 35.5191 15.815 35.5116 15.7391C35.5116 15.6584 35.4996 15.5687 35.4996 15.4701V14.6362H36.045V15.4791C36.041 15.5418 36.041 15.6047 36.045 15.6674C36.0487 15.7165 36.06 15.7648 36.0787 15.8108C36.104 15.8853 36.1591 15.9479 36.2325 15.9857C36.3237 16.0266 36.4246 16.0451 36.5256 16.0395C36.6361 16.0395 36.7463 16.0297 36.8548 16.0103C36.9586 15.9914 37.0612 15.9675 37.1624 15.9386V14.6362H37.7078V17.4046L37.172 17.4091ZM34.0483 16.759C33.9901 16.8748 33.9201 16.9852 33.8392 17.0885C33.7723 17.1746 33.6912 17.2503 33.5989 17.3127C33.5141 17.367 33.4198 17.4072 33.3202 17.4315C33.2085 17.4567 33.0939 17.4688 32.979 17.4674H32.818C32.7614 17.463 32.7052 17.4547 32.6498 17.4427V17.0101C32.7035 17.023 32.7581 17.032 32.8132 17.037C32.8604 17.0401 32.9078 17.0401 32.955 17.037C33.0165 17.0377 33.0779 17.0309 33.1376 17.0168C33.1941 17.0031 33.2467 16.9779 33.2914 16.9428C33.3447 16.9036 33.3909 16.8567 33.4283 16.8038C33.4783 16.7323 33.5224 16.6573 33.5605 16.5797L32.4047 14.6497H33.0078L33.8416 16.0664L34.5409 14.6497H35.132L34.0483 16.759ZM30.8645 15.3065C30.7588 15.5956 30.6651 15.8377 30.5834 16.0305L30.4825 16.2816H31.2538L31.1529 16.0327C31.0712 15.8355 30.9775 15.5956 30.8717 15.3065H30.8645ZM31.4316 16.7052H30.2926L30.0043 17.4091H29.4252L30.605 14.6407H31.1L32.2798 17.4091H31.7055L31.4316 16.7052ZM27.1065 15.7817H28.4785V14.6407H29.0239V17.4091H28.4785V16.2053H27.1065V17.4091H26.561V14.6564H27.1065V15.7817Z" fill="white"/>
<path fill-rule="evenodd" clip-rule="evenodd" d="M34.769 7.21436C34.8811 7.21436 34.9908 7.24538 35.084 7.30351C35.1773 7.36164 35.25 7.44426 35.2929 7.54092C35.3358 7.63759 35.347 7.74396 35.3251 7.84657C35.3033 7.94919 35.2493 8.04345 35.17 8.11743C35.0906 8.19142 34.9896 8.24181 34.8796 8.26222C34.7696 8.28263 34.6556 8.27215 34.552 8.23211C34.4484 8.19207 34.3598 8.12427 34.2975 8.03727C34.2352 7.95028 34.2019 7.848 34.2019 7.74337C34.2019 7.6739 34.2166 7.6051 34.2451 7.54092C34.2736 7.47674 34.3153 7.41842 34.368 7.3693C34.4207 7.32018 34.4832 7.28121 34.552 7.25462C34.6208 7.22803 34.6945 7.21436 34.769 7.21436Z" fill="white"/>
<path fill-rule="evenodd" clip-rule="evenodd" d="M47.7106 7.21436C47.8228 7.21436 47.9324 7.24538 48.0257 7.30351C48.1189 7.36164 48.1916 7.44426 48.2345 7.54092C48.2774 7.63759 48.2887 7.74396 48.2668 7.84657C48.2449 7.94919 48.1909 8.04345 48.1116 8.11743C48.0323 8.19142 47.9313 8.24181 47.8213 8.26222C47.7113 8.28263 47.5972 8.27215 47.4936 8.23211C47.39 8.19207 47.3014 8.12427 47.2391 8.03727C47.1768 7.95028 47.1436 7.848 47.1436 7.74337C47.1436 7.6739 47.1582 7.6051 47.1867 7.54092C47.2152 7.47674 47.257 7.41842 47.3096 7.3693C47.3623 7.32018 47.4248 7.28121 47.4936 7.25462C47.5624 7.22803 47.6362 7.21436 47.7106 7.21436Z" fill="white"/>
<path fill-rule="evenodd" clip-rule="evenodd" d="M57.3198 7.21436C57.4319 7.21436 57.5415 7.24538 57.6348 7.30351C57.7281 7.36164 57.8007 7.44426 57.8437 7.54092C57.8866 7.63759 57.8978 7.74396 57.8759 7.84657C57.854 7.94919 57.8 8.04345 57.7207 8.11743C57.6414 8.19142 57.5404 8.24181 57.4304 8.26222C57.3204 8.28263 57.2064 8.27215 57.1027 8.23211C56.9991 8.19207 56.9106 8.12427 56.8483 8.03727C56.7859 7.95028 56.7527 7.848 56.7527 7.74337C56.7527 7.6739 56.7674 7.6051 56.7959 7.54092C56.8244 7.47674 56.8661 7.41842 56.9188 7.3693C56.9714 7.32018 57.0339 7.28121 57.1027 7.25462C57.1715 7.22803 57.2453 7.21436 57.3198 7.21436Z" fill="white"/>
<path fill-rule="evenodd" clip-rule="evenodd" d="M68.2021 7.21436C68.3142 7.21436 68.4239 7.24538 68.5171 7.30351C68.6104 7.36164 68.6831 7.44426 68.726 7.54092C68.7689 7.63759 68.7801 7.74396 68.7583 7.84657C68.7364 7.94919 68.6824 8.04345 68.6031 8.11743C68.5238 8.19142 68.4227 8.24181 68.3127 8.26222C68.2027 8.28263 68.0887 8.27215 67.9851 8.23211C67.8815 8.19207 67.7929 8.12427 67.7306 8.03727C67.6683 7.95028 67.635 7.848 67.635 7.74337C67.635 7.6739 67.6497 7.6051 67.6782 7.54092C67.7067 7.47674 67.7484 7.41842 67.8011 7.3693C67.8538 7.32018 67.9163 7.28121 67.9851 7.25462C68.0539 7.22803 68.1276 7.21436 68.2021 7.21436Z" fill="white"/>
<path fill-rule="evenodd" clip-rule="evenodd" d="M82.0978 7.21436C82.21 7.21436 82.3196 7.24538 82.4129 7.30351C82.5061 7.36164 82.5788 7.44426 82.6217 7.54092C82.6647 7.63759 82.6759 7.74396 82.654 7.84657C82.6321 7.94919 82.5781 8.04345 82.4988 8.11743C82.4195 8.19142 82.3185 8.24181 82.2085 8.26222C82.0985 8.28263 81.9844 8.27215 81.8808 8.23211C81.7772 8.19207 81.6886 8.12427 81.6263 8.03727C81.564 7.95028 81.5308 7.848 81.5308 7.74337C81.5308 7.6739 81.5454 7.6051 81.5739 7.54092C81.6024 7.47674 81.6442 7.41842 81.6969 7.3693C81.7495 7.32018 81.812 7.28121 81.8808 7.25462C81.9496 7.22803 82.0234 7.21436 82.0978 7.21436Z" fill="white"/>
<path fill-rule="evenodd" clip-rule="evenodd" d="M96.6589 7.21436C96.7712 7.21392 96.881 7.24456 96.9746 7.30242C97.0682 7.36028 97.1412 7.44275 97.1845 7.53937C97.2278 7.636 97.2394 7.74243 97.2178 7.8452C97.1962 7.94796 97.1424 8.04244 97.0631 8.11665C96.9839 8.19085 96.8829 8.24146 96.7728 8.26205C96.6628 8.28265 96.5486 8.2723 96.4449 8.23233C96.3411 8.19236 96.2524 8.12456 96.19 8.03751C96.1276 7.95047 96.0942 7.8481 96.0942 7.74337C96.0942 7.60346 96.1537 7.46924 96.2595 7.37009C96.3653 7.27095 96.5089 7.21495 96.6589 7.21436Z" fill="white"/>
<path fill-rule="evenodd" clip-rule="evenodd" d="M104.672 7.21436C104.785 7.21392 104.894 7.24456 104.988 7.30242C105.082 7.36028 105.155 7.44275 105.198 7.53937C105.241 7.636 105.253 7.74243 105.231 7.8452C105.21 7.94796 105.156 8.04244 105.077 8.11665C104.997 8.19085 104.896 8.24146 104.786 8.26205C104.676 8.28265 104.562 8.2723 104.458 8.23233C104.355 8.19236 104.266 8.12456 104.203 8.03751C104.141 7.95047 104.108 7.8481 104.108 7.74337C104.108 7.60346 104.167 7.46924 104.273 7.37009C104.379 7.27095 104.522 7.21495 104.672 7.21436Z" fill="white"/>
<path fill-rule="evenodd" clip-rule="evenodd" d="M116.074 7.21436C116.186 7.21436 116.296 7.24538 116.389 7.30351C116.482 7.36164 116.555 7.44426 116.598 7.54092C116.641 7.63759 116.652 7.74396 116.63 7.84657C116.608 7.94919 116.554 8.04345 116.475 8.11743C116.396 8.19142 116.295 8.24181 116.185 8.26222C116.075 8.28263 115.961 8.27215 115.857 8.23211C115.753 8.19207 115.665 8.12427 115.602 8.03727C115.54 7.95028 115.507 7.848 115.507 7.74337C115.507 7.6739 115.521 7.6051 115.55 7.54092C115.578 7.47674 115.62 7.41842 115.673 7.3693C115.726 7.32018 115.788 7.28121 115.857 7.25462C115.926 7.22803 115.999 7.21436 116.074 7.21436Z" fill="white"/>
<path fill-rule="evenodd" clip-rule="evenodd" d="M120.104 4.1411C120.599 4.81357 120.946 5.29552 121.146 5.58693H121.185C121.459 5.18344 121.805 4.70598 122.22 4.14782L123.684 2.17298H125.846L122.273 6.88032L126 11.7446H123.866L122.266 9.60609C121.872 9.08156 121.509 8.58543 121.178 8.11768H121.146C120.797 8.60336 120.434 9.09949 120.055 9.60609L118.455 11.7446H116.314L120.039 6.88032L116.466 2.17298H118.628L120.104 4.1411ZM109.37 10.2763H114.416V11.7446H107.491V2.17298H114.137V3.64123H109.37V6.10698H113.455V7.57521H109.37V10.2763ZM101.897 11.7446H100.021V3.64123H96.7047V2.17298H105.201V3.64123H101.897V11.7446ZM89.0108 9.18019C89.2367 8.433 89.5162 7.62453 89.8494 6.75479L91.6179 2.17747H94.261V11.7491H92.3844V6.89601C92.3844 6.18468 92.4148 5.35903 92.4757 4.41906H92.406C92.3195 4.69029 92.2186 4.99515 92.1009 5.33587C91.9831 5.67659 91.8606 6.00834 91.7308 6.33562L89.6067 11.7446H88.4053L86.2788 6.33562C86.149 6.0061 86.0385 5.67435 85.9088 5.33587C85.779 4.99739 85.6901 4.69029 85.6036 4.41906H85.5315C85.594 5.29926 85.6252 6.12117 85.6252 6.88481V11.7401H83.7462V2.1685H86.3701L88.1386 6.72565C88.4333 7.48331 88.7129 8.2985 88.9772 9.17122L89.0108 9.18019ZM80.6009 6.96326C80.61 7.64817 80.498 8.32979 80.2693 8.98069C80.0628 9.56009 79.7317 10.094 79.2961 10.5498C78.8577 10.9935 78.3205 11.3423 77.7223 11.572C76.3569 12.0592 74.8467 12.0592 73.4813 11.572C72.8834 11.3429 72.347 10.9939 71.9098 10.5498C71.4725 10.0948 71.1405 9.56069 70.9343 8.98069C70.4922 7.67423 70.4922 6.27247 70.9343 4.96601C71.1401 4.38587 71.4723 3.85167 71.9098 3.3969C72.347 2.95279 72.8834 2.60383 73.4813 2.37473C74.8467 1.88746 76.3569 1.88746 77.7223 2.37473C78.3205 2.60438 78.8577 2.95324 79.2961 3.3969C79.7321 3.85236 80.0633 4.3864 80.2693 4.96601C80.4971 5.61323 80.6092 6.29104 80.6009 6.97223M78.6618 6.97223C78.6686 6.45474 78.5875 5.93952 78.4215 5.4457C78.2898 5.04572 78.0732 4.67449 77.7848 4.35405C77.5233 4.06969 77.1941 3.84631 76.8236 3.70175C76.0342 3.41779 75.1598 3.41779 74.3703 3.70175C74.0005 3.84746 73.6716 4.07066 73.4092 4.35405C73.1216 4.67504 72.9052 5.04609 72.7724 5.4457C72.4649 6.44392 72.4649 7.50277 72.7724 8.50099C72.9046 8.89947 73.1211 9.26915 73.4092 9.58816C73.6726 9.87004 74.0013 10.0923 74.3703 10.2382C75.1586 10.5281 76.0354 10.5281 76.8236 10.2382C77.1935 10.0937 77.5225 9.87122 77.7848 9.58816C78.0737 9.26971 78.2903 8.89985 78.4215 8.50099C78.5875 8.00641 78.6686 7.49044 78.6618 6.97223ZM59.6626 11.758V2.18643H61.5296V6.54184H61.5584L65.4318 2.18643H67.7769L63.4975 6.9274L68.1302 11.758H65.7273L61.58 7.43624H61.5296V11.758H59.6626ZM54.4844 3.48879C54.001 3.48316 53.5208 3.56303 53.0692 3.72417C52.65 3.8747 52.2712 4.1088 51.9591 4.41009C51.6362 4.73169 51.3905 5.11377 51.2382 5.53089C51.0555 6.01601 50.9668 6.5276 50.9763 7.04171C50.9673 7.54612 51.0485 8.04841 51.2166 8.52789C51.3596 8.92618 51.5932 9.29092 51.9014 9.59712C52.2048 9.88752 52.5755 10.1091 52.9851 10.2449C53.4479 10.3977 53.9359 10.4736 54.4268 10.4691C54.829 10.4685 55.2305 10.4401 55.6282 10.3839C56.0131 10.3301 56.3925 10.2461 56.7623 10.1329V11.6415C56.3821 11.7404 55.9952 11.8153 55.6042 11.8656C55.1774 11.9201 54.747 11.9471 54.3162 11.9463C53.536 11.9595 52.7596 11.8418 52.0239 11.5989C51.402 11.3905 50.8373 11.0559 50.3708 10.6193C49.9218 10.1892 49.5805 9.6717 49.3712 9.10398C49.1435 8.47526 49.0314 7.81515 49.0396 7.15156C49.0324 6.46058 49.1527 5.77358 49.3952 5.12068C49.6181 4.52094 49.9678 3.96905 50.4237 3.49776C50.8925 3.02685 51.4668 2.65798 52.1056 2.41732C52.8316 2.14739 53.6068 2.01114 54.3883 2.01608C54.8017 2.01443 55.2146 2.04216 55.6234 2.09901C55.9793 2.14321 56.33 2.21825 56.671 2.32317V3.80038C55.9675 3.58915 55.2331 3.48102 54.4941 3.47983M46.519 6.96326C46.5282 7.64817 46.4161 8.32979 46.1874 8.98069C45.9846 9.55917 45.6575 10.0931 45.2263 10.5498C44.7878 10.9935 44.2507 11.3423 43.6525 11.572C42.287 12.0592 40.7769 12.0592 39.4114 11.572C38.8136 11.3429 38.2771 10.9939 37.84 10.5498C37.4027 10.0948 37.0706 9.56069 36.8644 8.98069C36.4224 7.67423 36.4224 6.27247 36.8644 4.96601C37.0703 4.38587 37.4024 3.85167 37.84 3.3969C38.2771 2.95279 38.8136 2.60383 39.4114 2.37473C40.7769 1.88746 42.287 1.88746 43.6525 2.37473C44.2507 2.60438 44.7878 2.95324 45.2263 3.3969C45.658 3.85335 45.9851 4.38732 46.1874 4.96601C46.4153 5.61323 46.5273 6.29104 46.519 6.97223M44.5799 6.97223C44.5868 6.45474 44.5057 5.93952 44.3397 5.4457C44.2077 5.04625 43.9921 4.67519 43.7053 4.35405C43.4429 4.07066 43.114 3.84746 42.7442 3.70175C41.9539 3.41785 41.0788 3.41785 40.2885 3.70175C39.9187 3.84746 39.5898 4.07066 39.3273 4.35405C39.0397 4.67504 38.8233 5.04609 38.6906 5.4457C38.383 6.44392 38.383 7.50277 38.6906 8.50099C38.8228 8.89947 39.0393 9.26915 39.3273 9.58816C39.5907 9.87004 39.9194 10.0923 40.2885 10.2382C41.0775 10.5282 41.9551 10.5282 42.7442 10.2382C43.1133 10.0923 43.4419 9.87004 43.7053 9.58816C43.9926 9.269 44.2083 8.89931 44.3397 8.50099C44.5056 8.00641 44.5867 7.49044 44.5799 6.97223ZM28.4401 6.54184C28.5482 6.55754 28.6804 6.5665 28.8486 6.57547C29.0168 6.58443 29.1874 6.58667 29.3676 6.58667C29.7946 6.59409 30.2211 6.55574 30.6387 6.47236C30.9343 6.41447 31.2161 6.30659 31.4701 6.15405C31.6668 6.03098 31.8231 5.85952 31.9218 5.65866C32.0146 5.45927 32.0612 5.24387 32.0588 5.02653C32.0652 4.76963 31.9936 4.51626 31.8521 4.29577C31.6761 4.06567 31.4222 3.8975 31.1313 3.81831C30.9155 3.75501 30.6932 3.71294 30.4681 3.69278C30.1486 3.66438 29.8278 3.65166 29.507 3.65468H28.4497L28.4401 6.54184ZM29.4012 8.05043C29.2306 8.05043 29.0672 8.05043 28.9014 8.05043C28.7481 8.04873 28.5949 8.03976 28.4425 8.02353V11.7647H26.5635V2.19316H29.5238C29.958 2.19017 30.392 2.21039 30.8237 2.25368C31.1601 2.2894 31.4929 2.35088 31.8185 2.4375C32.439 2.59493 32.9952 2.9211 33.4164 3.37448C33.8093 3.8537 34.0099 4.44613 33.9834 5.04895C33.9914 5.48229 33.8859 5.9109 33.6759 6.29751C33.4645 6.67459 33.1566 6.99719 32.7796 7.23673C32.3406 7.51289 31.8524 7.71403 31.3379 7.83076C30.698 7.97671 30.0407 8.04601 29.382 8.03698" fill="white"/>
<path fill-rule="evenodd" clip-rule="evenodd" d="M10.3314 0.437151C11.8479 0.437964 13.3455 0.750921 14.7175 1.3537C16.0895 1.95648 17.302 2.83423 18.2685 3.92437C19.2351 5.01451 19.9319 6.29017 20.3093 7.6604C20.6867 9.03063 20.7354 10.4617 20.4519 11.8514C20.1684 13.2412 19.5596 14.5555 18.6691 15.7007C17.7785 16.8458 16.6281 17.7935 15.2999 18.4762C13.9716 19.1589 12.4983 19.5598 10.9849 19.6503C9.47149 19.7408 7.95533 19.5187 6.54452 18.9998C6.54452 18.9998 6.51328 18.9998 6.51328 18.9885C6.51328 16.5878 6.51328 18.9885 6.51328 16.5878C6.51328 16.5766 6.53971 16.5878 6.55173 16.6057C8.0888 17.3785 9.85518 17.6594 11.5799 17.4055C13.3046 17.1515 14.8924 16.3767 16.0996 15.1999C17.3068 14.0231 18.0669 12.5093 18.2631 10.8907C18.4593 9.27217 18.0809 7.63824 17.1859 6.23963C16.2908 4.84102 14.9287 3.75497 13.3083 3.14811C11.688 2.54124 9.89894 2.44707 8.2157 2.88005C6.53246 3.31303 5.04798 4.24923 3.99 5.54504C2.93201 6.84085 2.35897 8.42469 2.35878 10.0536C2.35878 14.0137 2.35878 17.9738 2.35878 21.934C2.35878 22.2265 2.23422 22.507 2.01252 22.7138C1.79081 22.9207 1.49012 23.0369 1.17658 23.0369C0.863043 23.0369 0.562344 22.9207 0.34064 22.7138C0.118935 22.507 -0.00561523 22.2265 -0.00561523 21.934V10.6072C-0.00561523 10.3831 -0.0056167 9.99529 0.0304259 9.62094C0.144483 7.14585 1.27948 4.80764 3.19823 3.09493C5.11697 1.38223 7.671 0.427562 10.3266 0.430426" fill="white"/>
<path fill-rule="evenodd" clip-rule="evenodd" d="M5.66345 15.0264V19.2674C5.66345 19.5647 5.53687 19.8498 5.31156 20.06C5.08625 20.2702 4.78067 20.3882 4.46203 20.3882C4.1434 20.3882 3.83781 20.2702 3.6125 20.06C3.38719 19.8498 3.26061 19.5647 3.26061 19.2674V10.2876C3.20575 8.76946 3.71362 7.28004 4.69862 6.07044C5.68363 4.86084 7.08553 4.00502 8.66804 3.64723C10.2505 3.28943 11.9169 3.45155 13.3862 4.10624C14.8556 4.76094 16.038 5.86818 16.7343 7.24135C17.4306 8.61451 17.5981 10.1696 17.2087 11.6446C16.8192 13.1196 15.8966 14.4242 14.5963 15.3385C13.296 16.2529 11.6975 16.7211 10.0704 16.6642C8.44319 16.6074 6.88677 16.0289 5.66345 15.0264ZM5.66345 10.6777C5.83311 11.8069 6.46601 12.8306 7.42881 13.533C8.39161 14.2355 9.60911 14.5618 10.8248 14.4433C12.0404 14.3248 13.1593 13.7707 13.9456 12.8978C14.732 12.0248 15.1244 10.9012 15.0401 9.76363C14.9559 8.62609 14.4016 7.56347 13.494 6.79969C12.5865 6.03591 11.3965 5.63061 10.1749 5.6692C8.95337 5.70778 7.79555 6.18724 6.94545 7.00654C6.09536 7.82583 5.61937 8.92099 5.6178 10.0612C5.6178 10.2697 5.64423 10.4715 5.66345 10.6777Z" fill="white"/>
</g>
<defs>
<clipPath id="clip0_452_9162">
<rect width="126" height="22.6154" fill="white" transform="translate(0 0.435791)"/>
</clipPath>
</defs>
</svg>
