<svg width="53" height="50" viewBox="0 0 53 50" fill="none" xmlns="http://www.w3.org/2000/svg">
<g clip-path="url(#clip0_47_5624)">
<path d="M53.0001 49.9984C52.7759 49.9984 52.5517 49.9984 52.3276 49.9984H0.00146484V48.7718H5.11176V6.61382H3.52871V2.0427H28.7231V6.59991H26.3029V18.6695H31.6636V18.0993C31.6636 15.1975 31.6636 12.2947 31.6636 9.39097C31.6636 9.12675 31.6636 8.92232 31.9695 8.76657C37.726 5.88232 43.4783 2.98881 49.2265 0.08603C49.3042 0.0543621 49.3836 0.0274267 49.4645 0.00537109V48.7468H53.0001V49.9984ZM48.2136 2.01071C48.0918 2.06217 48.0282 2.08303 47.9701 2.11362C43.0503 4.58808 38.1296 7.05975 33.2079 9.52865C32.8966 9.6844 32.9035 9.89161 32.9035 10.1544C32.9035 13.2306 32.9035 16.3072 32.9035 19.3843V19.9712H26.3126V48.7107H32.4994V42.1064H42.0475V48.6995H48.2122V39.9648H38.3321V8.66505H48.2122L48.2136 2.01071ZM9.10947 42.1022H22.3121V43.3274H20.5132V48.7051H24.9855V40.0079H6.42634V48.7107H10.9125V43.3135H9.11362L9.10947 42.1022ZM16.7202 38.7132V6.64163H14.7221V38.7132H16.7202ZM4.76166 5.31215H27.4985V3.29151H4.75612L4.76166 5.31215ZM6.42219 11.9943H13.4061V6.64024H6.42219V11.9943ZM18.0224 11.9873H25.0174V6.6305H18.0224V11.9873ZM25.0188 33.341H18.0417V38.6965H25.0188V33.341ZM6.43048 13.296V18.6723H13.3992V13.296H6.43048ZM18.0321 13.296V18.6723H25.0008V13.296H18.0321ZM13.4075 26.6644H6.43187V32.0227H13.4075V26.6644ZM18.0321 26.6464V32.0227H25.0008V26.6464H18.0321ZM6.40835 25.3391H13.3853V19.9795H6.40835V25.3391ZM18.0085 25.3391H24.9869V19.9795H18.0085V25.3391ZM6.42496 33.3229V38.6979H13.395V33.3216L6.42496 33.3229ZM39.5595 11.9873H48.2094V9.96671H39.5595V11.9873ZM39.5595 15.3249H48.2108V13.3057H39.5595V15.3249ZM39.5595 18.6625H48.2108V16.6419H39.5595V18.6625ZM39.5595 22.0001H48.1928V19.9781H39.5595V22.0001ZM48.2081 29.9992H39.5775V32.0227H48.2094L48.2081 29.9992ZM39.5595 28.6767H48.1928V26.6533H39.5595V28.6767ZM48.2081 33.3368H39.5775V35.3617H48.2094L48.2081 33.3368ZM39.5595 38.6895H48.1928V36.6661H39.5595V38.6895ZM48.2081 23.3241H39.5775V25.3475H48.2094L48.2081 23.3241ZM12.2147 48.7023H15.05V43.3413H12.2147V48.7023ZM16.3549 48.7107H19.2014V43.3524H16.3549V48.7107ZM36.594 48.7107V43.3427H33.7656V48.7162L36.594 48.7107ZM37.8989 48.7107H40.7467V43.351H37.8989V48.7107Z" fill="#36E7FF"/>
<path d="M28.3896 22.0571H32.8731V26.5977H28.3896V22.0571ZM31.6304 25.3627V23.3254H29.6337V25.3627H31.6304Z" fill="#36E7FF"/>
<path d="M28.3689 33.2632V28.7407H32.8606V33.2632H28.3689ZM29.6295 29.9854V32.0227H31.6291V29.9854H29.6295Z" fill="#36E7FF"/>
<path d="M28.3896 35.4077H32.8731V39.9482H28.3896V35.4077ZM31.6374 38.7036V36.669H29.6254V38.7036H31.6374Z" fill="#36E7FF"/>
</g>
<defs>
<clipPath id="clip0_47_5624">
<rect width="53" height="50" fill="white"/>
</clipPath>
</defs>
</svg>
