<svg width="55" height="58" viewBox="0 0 55 58" fill="none" xmlns="http://www.w3.org/2000/svg">
<g clip-path="url(#clip0_42_3899)">
<path d="M9.13525 56.5132H2.83131V32.1267H9.96589C9.98443 31.6197 10.0048 31.1146 10.0252 30.6076H1.76335V29.1757H10.0845C10.1049 28.6839 10.1253 28.194 10.1476 27.7021C7.42824 27.7021 4.7089 27.7053 1.98955 27.7116C1.60269 27.6974 1.21899 27.7877 0.877092 27.9737C0.0279148 28.5225 0.0464561 31.314 0.917883 31.8248C1.37028 32.0887 1.42776 32.385 1.42591 32.8369C1.41602 40.467 1.41602 48.0976 1.42591 55.7289V56.555H0.817763C0.3598 56.555 0.0353319 56.7449 0.0260614 57.2443C0.0167909 57.7836 0.361655 57.983 0.847429 57.9773H9.11671L9.13525 56.5132Z" fill="#36E7FF"/>
<path d="M54.3752 56.5759C54.2825 56.4923 54.0804 56.5379 53.8876 56.5227V55.6929C53.8876 48.0856 53.8876 40.479 53.8876 32.873C53.8876 32.4002 53.9265 32.066 54.416 31.7906C54.7071 31.6273 54.8684 31.1127 54.9611 30.7253C55.0538 30.3379 54.9852 29.9239 54.9852 29.5214C54.9852 28.0914 54.6033 27.7021 53.2146 27.7021H46.0781C46.0781 28.1921 46.0781 28.6839 46.0781 29.1738H53.5372V30.6114H46.0837C46.0837 31.1184 46.0837 31.6254 46.0837 32.1305H52.4488V56.5322H46.2524C46.2524 57.0126 46.2524 57.495 46.2524 57.9754H53.7689C53.9543 57.9754 54.1842 58.0419 54.314 57.9545C54.5736 57.7817 54.9444 57.5291 54.9556 57.2937C54.9667 57.0582 54.6107 56.7848 54.3752 56.5759Z" fill="#36E7FF"/>
<path d="M52.8345 56.534H43.2358C43.2358 55.6757 43.208 54.8249 43.2358 53.9913C43.2748 53.0703 43.0838 52.3316 42.0956 52.1265V32.1323H52.6639C52.6639 31.6259 52.6639 31.1195 52.6639 30.6132H42.0956V29.1756H52.6639C52.6639 28.6857 52.6639 28.1939 52.6639 27.7039H42.1215V20.8012C43.3267 20.6113 43.6178 20.279 43.6196 19.0808C43.6196 18.0857 43.6196 17.09 43.6196 16.0937C43.6196 14.9277 43.4138 14.6372 42.3366 14.3258C39.5344 13.5168 36.7329 12.7123 33.932 11.9122L28.3697 10.3151V7.64331C28.6367 7.77054 28.8591 7.88068 29.0853 7.98132C29.9551 8.38835 30.9455 8.43195 31.8461 8.10286C32.5613 7.86825 33.3027 7.72786 34.0525 7.68508C34.8776 7.62242 35.2836 7.30529 35.3021 6.43367C35.3151 5.69877 35.3021 4.96387 35.3021 4.22897C35.3021 2.25405 34.8182 1.82109 32.877 2.11163C32.4698 2.19426 32.0689 2.30659 31.6774 2.44775C31.5235 2.49332 31.3807 2.57878 31.2268 2.63765C30.4537 2.8978 29.7806 2.63764 29.1224 2.22936C28.5662 1.88945 28.225 1.46978 28.3177 0.74438C28.3752 0.301922 28.0749 0.0113756 27.6466 0.0151735C27.133 0.0151735 26.9439 0.372184 26.9439 0.875409C26.9439 3.76563 26.9439 6.65648 26.9439 9.54797V10.3076C26.7102 10.3835 26.536 10.4462 26.358 10.4974L12.9528 14.3542C12.0258 14.6201 11.7551 14.9771 11.7458 15.9816C11.7365 16.9862 11.7458 18.0211 11.7458 19.039C11.7458 20.2695 11.9794 20.5581 13.1549 20.8373V27.7153H3.55255L3.49136 29.1908H13.1864V30.6226H3.43203L3.37084 32.1418H13.166V52.1208C12.2297 52.3335 11.9831 53.019 12.0184 53.9267C12.0499 54.7736 12.0184 55.6244 12.0184 56.5131H2.54948C2.53465 57.0011 2.52167 57.4892 2.50684 57.9772H52.8364C52.8364 57.4911 52.8357 57.01 52.8345 56.534ZM28.3993 3.4504C29.6972 4.27645 30.9524 4.31253 32.28 3.72955C32.7472 3.52636 33.2923 3.51686 33.8708 3.40482V6.03109C32.9122 6.31024 31.974 6.58938 31.034 6.85524C30.2812 7.06792 28.6237 6.47545 28.4383 5.75764C28.2529 5.03983 28.3993 4.27645 28.3993 3.4504ZM13.1401 19.282C13.1401 18.1901 13.1197 17.1723 13.1605 16.1583C13.1861 16.0452 13.2379 15.9401 13.3114 15.8519C13.385 15.7637 13.4782 15.6948 13.5832 15.6512C18.1567 14.3144 22.7301 12.9946 27.3036 11.6919C27.5012 11.6292 27.7114 11.6201 27.9136 11.6653C32.6452 13.0212 37.375 14.3846 42.103 15.7557C42.1354 15.7688 42.167 15.784 42.1975 15.8012V19.282H13.1401ZM37.7774 36.7886C37.7774 35.7783 37.6402 35.6359 36.6649 35.6359H18.619C17.6363 35.6359 17.5065 35.7764 17.5065 36.7886C17.5065 41.6233 17.5065 46.4575 17.5065 51.291V52.1018H14.6567V20.7879H40.6512V52.1037H37.7866V51.291C37.7866 46.4587 37.7835 41.6246 37.7774 36.7886ZM28.3956 41.8189H36.3682V52.1075H28.3956V41.8189ZM28.3622 40.2998V37.1057H36.3497V40.2998H28.3622ZM18.9342 40.2998V37.1019H26.9253V40.2998H18.9342ZM26.8938 41.8037V52.0942H18.9212V41.8056L26.8938 41.8037ZM41.7933 56.5131H13.4405V53.621H41.7933V56.5131Z" fill="#36E7FF"/>
<path d="M27.6335 23.7046C30.6371 23.7046 33.6408 23.7046 36.6444 23.7046C37.6419 23.7046 37.7847 23.8451 37.7847 24.8326C37.7847 27.0101 37.7847 29.1875 37.7847 31.365C37.7847 32.2385 37.6234 32.4056 36.7705 32.4075H18.5373C17.6658 32.4075 17.5045 32.2461 17.5027 31.3878C17.5027 29.1622 17.5027 26.9373 17.5027 24.7129C17.5027 23.8945 17.6881 23.7065 18.4816 23.7065C21.531 23.7014 24.5816 23.7008 27.6335 23.7046ZM18.9192 30.9358H36.357V25.1744H18.9192V30.9358Z" fill="#36E7FF"/>
<path d="M50.0237 43.7162C50.0237 46.2481 50.0237 48.7801 50.0237 51.312C50.0237 52.2748 49.8698 52.4286 48.9409 52.4305C47.6004 52.4305 46.2598 52.421 44.9212 52.4305C44.2834 52.4305 43.9941 52.159 43.9941 51.4943C44.004 46.3114 44.004 41.1292 43.9941 35.9475C43.9941 35.281 44.2778 34.998 44.9101 34.998C46.2728 34.998 47.6356 34.998 48.9984 34.998C49.842 34.998 50.0218 35.1879 50.0218 36.0387C50.0274 38.6042 50.0237 41.1602 50.0237 43.7162ZM48.5905 42.9813V40.3721H45.4385V42.9813H48.5905ZM48.6016 44.4853H45.4385V47.1096H48.6016V44.4853ZM45.4311 36.4678V38.8453H48.583V36.4678H45.4311ZM45.4218 50.9531H48.5738V48.6155H45.4218V50.9531Z" fill="#36E7FF"/>
<path d="M11.2878 43.7445C11.2878 46.2765 11.2878 48.8084 11.2878 51.3404C11.2878 52.2557 11.121 52.4266 10.2458 52.4304C8.90717 52.4304 7.56666 52.4304 6.22615 52.4304C5.46226 52.4304 5.26943 52.2405 5.26758 51.4809C5.26758 46.3208 5.26758 41.1619 5.26758 36.0043C5.26758 35.2239 5.45299 35.0245 6.19463 35.0188C7.57902 35.0061 8.96465 35.0061 10.3515 35.0188C11.0932 35.0188 11.2786 35.2315 11.2786 36.0138C11.2897 38.585 11.286 41.1638 11.2878 43.7445ZM6.68411 42.9716H9.83608V40.3587H6.68411V42.9716ZM6.68411 47.1095H9.84535V44.4851H6.68411V47.1095ZM9.8676 38.8547V36.4829H6.70636V38.8547H9.8676ZM6.7045 48.6058V50.9682H9.85647V48.6058H6.7045Z" fill="#36E7FF"/>
</g>
<defs>
<clipPath id="clip0_42_3899">
<rect width="55" height="58" fill="white"/>
</clipPath>
</defs>
</svg>
