<svg width="57" height="67" viewBox="0 0 57 67" fill="none" xmlns="http://www.w3.org/2000/svg">
<g clip-path="url(#clip0_189_6469)">
<path d="M1.27634 67.0009C0.308202 66.6258 -0.0034537 65.8895 2.88059e-05 64.8879C0.0174414 57.9088 0.0203094 50.9296 0.00870107 43.9505C0.00870107 42.3505 0.562456 41.8061 2.17834 41.8026H3.18475C3.32753 39.5065 4.52901 38.2223 6.81354 37.9222C6.67598 37.6657 6.56975 37.4546 6.45309 37.2522C4.71183 34.232 2.9706 31.2204 1.25198 28.1915C0.14106 26.2303 1.1266 23.9045 3.24048 23.4806C3.78201 23.3706 4.35314 23.409 4.97302 23.3741C3.35191 20.2719 3.4059 17.2673 5.63296 14.5594C7.86003 11.8515 10.7958 11.2251 14.1756 12.2668C14.1756 11.7835 14.1669 11.3333 14.1756 10.8849C14.2 9.89735 14.8129 9.25178 15.788 9.18198C15.983 9.16803 16.1797 9.18198 16.3748 9.18198H53.258C54.9488 9.18198 55.4903 9.71764 55.4903 11.3926V55.3614C55.4903 56.9823 54.9592 57.5162 53.3434 57.5162H22.8609C22.8383 57.8215 22.8279 58.0745 22.8 58.3258C22.7426 58.8492 22.4378 59.165 21.9137 59.1982C21.3582 59.2348 21.0048 58.9417 20.8968 58.3938C20.8625 58.157 20.8508 57.9175 20.862 57.6785C20.862 53.3398 20.862 48.9999 20.862 44.6588V43.8178H1.99724V64.9979H20.8637C20.8637 64.3139 20.8463 63.6265 20.8637 62.9408C20.8811 62.2551 21.2555 61.8485 21.8284 61.8538C22.3508 61.8538 22.699 62.119 22.7861 62.6476C22.8296 62.9024 22.8244 63.1711 22.847 63.541H55.4085C55.6689 63.531 55.9296 63.5403 56.1886 63.5689C56.4211 63.5876 56.6367 63.6978 56.7884 63.8753C56.9401 64.0528 57.0156 64.2832 56.9983 64.5163C57.0149 64.7382 56.9463 64.9581 56.8064 65.131C56.6666 65.3038 56.4662 65.4166 56.2461 65.4463C55.9459 65.4914 55.6422 65.5095 55.3388 65.5004C44.781 65.5004 34.2244 65.5004 23.6689 65.5004C23.1674 65.5004 22.807 65.5126 22.5876 66.1198C22.4553 66.4862 21.9468 66.713 21.6072 67.0026L1.27634 67.0009ZM20.014 34.5478L20.1516 34.5774C20.2735 34.3768 20.3988 34.1779 20.5155 33.9755C22.179 31.0919 23.8378 28.2078 25.492 25.3231C26.6708 23.2782 28.682 23.2712 29.8451 25.3056C32.1157 29.2477 34.3846 33.1903 36.6517 37.1335C36.7684 37.3359 36.8938 37.5331 37.047 37.7878C37.2211 37.5122 37.3517 37.2923 37.4823 37.069C38.6211 35.0869 39.772 33.1135 40.8882 31.1192C41.4105 30.198 42.0078 29.4477 43.1692 29.4425C44.3306 29.4373 44.9453 30.1666 45.4642 31.0931C46.7005 33.2933 47.9751 35.4743 49.2358 37.6605C49.3263 37.8175 49.4342 37.9623 49.6362 38.2642V26.841C49.6362 25.7941 49.9584 25.3213 50.6531 25.3405C51.32 25.3597 51.5917 25.7889 51.5917 26.8358V51.4374C51.5917 53.0984 51.0693 53.6306 49.4168 53.6306H22.8453V55.4975H53.4914V11.1798H16.124C16.124 11.7311 16.124 12.2266 16.124 12.7309C16.124 12.9856 16.084 13.3154 16.2181 13.4794C16.7735 14.1581 17.3899 14.7845 17.9959 15.4423C18.0183 15.3863 18.0335 15.3277 18.0412 15.2678C18.1352 13.4463 18.5322 13.0641 20.3274 13.0641H49.3907C49.6293 13.0641 49.8696 13.0537 50.1081 13.0746C50.9126 13.1444 51.5638 13.7516 51.5743 14.5577C51.6039 16.9568 51.5986 19.3559 51.5743 21.755C51.5773 21.8927 51.5489 22.0292 51.4912 22.1543C51.4335 22.2793 51.348 22.3894 51.2413 22.4763C51.1346 22.5632 51.0096 22.6244 50.8756 22.6555C50.7417 22.6865 50.6025 22.6864 50.4685 22.6553C49.8382 22.5436 49.6362 22.0934 49.6362 21.5107C49.6362 19.6124 49.6362 17.7146 49.6362 15.8174V15.0672H20.0001C20.0001 17.8309 20.0001 20.5545 20.0158 23.2677C20.0158 23.4212 20.2212 23.6166 20.3814 23.7178C22.0304 24.6967 22.5249 26.4694 21.5916 28.1636C21.1511 28.9644 20.6792 29.7478 20.2334 30.5452C20.1139 30.7248 20.0377 30.9296 20.0105 31.1437C20.0036 32.2935 20.014 33.4224 20.014 34.553V34.5478ZM22.9741 45.0933C23.0271 45.1104 23.0822 45.1198 23.1378 45.1212C26.2425 45.1212 29.3489 45.1334 32.4535 45.1072C32.5818 45.0875 32.7043 45.0403 32.8127 44.969C32.9212 44.8976 33.013 44.8038 33.0821 44.6937C33.965 43.2194 34.799 41.7154 35.6783 40.2375C35.8873 39.8886 35.8524 39.6321 35.6592 39.2936C33.1529 34.9619 30.6571 30.6249 28.1718 26.2827C27.7661 25.5848 27.6094 25.5848 27.1897 26.3106C25.0184 30.0828 22.9097 33.8935 20.6478 37.6081C19.8103 38.9848 20.1028 40.3475 20.0331 41.7712C20.949 41.8515 22.0199 41.5496 22.4709 42.4813C22.8174 43.249 22.8105 44.186 22.9776 45.0985L22.9741 45.0933ZM11.3931 37.9693H11.5881C12.302 37.9501 13.143 38.1595 13.6915 37.8489C14.24 37.5383 14.4402 36.7183 14.7868 36.1146C16.4357 33.2496 18.0377 30.3568 19.7511 27.5302C20.472 26.342 19.9252 25.1765 18.4643 25.3545C17.8426 25.4295 17.2036 25.33 16.5785 25.3806C16.2215 25.4053 15.8748 25.5115 15.5651 25.6912C13.1273 27.1865 10.5851 27.436 8.07769 26.0873C7.07912 25.5429 5.94732 25.2925 4.81284 25.3649C4.63912 25.3817 4.46419 25.3817 4.29046 25.3649C2.988 25.1556 2.34372 26.3228 3.05241 27.4831C4.76233 30.2852 6.42525 33.1223 7.95407 36.0326C8.74808 37.5139 9.57867 38.5154 11.3965 37.9745L11.3931 37.9693ZM49.6101 47.1347H22.8627V51.6345H49.6136L49.6101 47.1347ZM49.6467 45.095C49.6467 44.4564 49.6119 43.8894 49.6554 43.3276C49.7111 42.6 49.4969 41.9893 49.133 41.3647C47.3117 38.2502 45.5269 35.1131 43.7351 31.9847C43.272 31.1803 43.1414 31.1786 42.6904 31.9742C40.2828 36.1547 37.8764 40.337 35.4711 44.521C35.3701 44.6955 35.2848 44.8804 35.1734 45.095H49.6467ZM5.83323 19.3053C5.82343 20.7912 6.40007 22.2209 7.43756 23.2827C8.47506 24.3445 9.88929 24.9525 11.3721 24.9741C12.8551 24.9752 14.2789 24.3913 15.3356 23.3488C16.3923 22.3062 16.9971 20.8888 17.0191 19.403C17.0243 17.9172 16.4444 16.4894 15.4055 15.4294C14.3665 14.3693 12.9522 13.7627 11.4697 13.7411C9.98652 13.7341 8.56106 14.3163 7.50532 15.3601C6.44958 16.4039 5.8496 17.8244 5.83672 19.3105L5.83323 19.3053ZM5.21508 41.752H17.5989C17.6476 40.679 17.0765 39.9601 16.0561 39.9496C12.9741 39.9159 9.8915 39.9159 6.80831 39.9496C5.78968 39.9619 5.21857 40.6423 5.21857 41.7572L5.21508 41.752ZM18.0046 38.4526V34.6699L17.9018 34.6385L16.037 37.8751L18.0046 38.4526Z" fill="#36E7FF"/>
<path d="M50.2839 0C51.172 0.413516 51.5568 1.09922 51.4872 2.09375C51.4367 2.80911 51.4872 3.53146 51.4732 4.25206C51.4558 5.34953 50.822 5.99685 49.732 6.01429C48.1474 6.03 46.5629 6.01429 44.9783 6.01429C40.4824 6.01429 35.9877 6.01429 31.4941 6.01429C31.2559 6.0318 31.0165 6.01831 30.7819 5.97416C30.2874 5.83633 30.007 5.4926 30.0436 4.96044C30.0802 4.42828 30.3918 4.12992 30.9142 4.06187C31.109 4.04964 31.3045 4.04964 31.4993 4.06187H49.4934V2.01873H20.1829V4.06187H21.3339C22.9637 4.06187 24.5917 4.06187 26.2198 4.06187C26.979 4.06187 27.4126 4.437 27.4004 5.05466C27.3882 5.64265 26.9599 6.01779 26.2459 6.02127C24.1564 6.02127 22.0774 6.03174 19.9931 6.02127C18.8508 6.02127 18.217 5.38094 18.1944 4.24682C18.1805 3.52797 18.2309 2.80562 18.1804 2.09026C18.1125 1.09398 18.4991 0.41177 19.3993 0.0104683L50.2839 0Z" fill="#36E7FF"/>
<path d="M11.4453 46.4798C12.7686 46.4798 14.0919 46.4798 15.4153 46.4798C16.4809 46.4798 17.0121 47.0172 17.0225 48.092C17.0341 49.3994 17.0341 50.7062 17.0225 52.0125C17.0121 53.0803 16.4792 53.6107 15.4066 53.6142C12.7599 53.6247 10.1132 53.6247 7.46647 53.6142C6.34858 53.6142 5.8436 53.0908 5.83838 51.9671C5.83838 50.6603 5.83838 49.35 5.83838 48.0466C5.83838 47.0172 6.37294 46.4868 7.40551 46.4763C8.75498 46.471 10.101 46.4798 11.4453 46.4798ZM7.82169 51.6147H15.0183V48.4741H7.82169V51.6147Z" fill="#36E7FF"/>
<path d="M39.2478 25.7698C38.0622 25.7611 36.9279 25.284 36.0913 24.4421C35.2547 23.6002 34.7834 22.4616 34.7798 21.2735C34.7913 20.085 35.2706 18.9492 36.1135 18.113C36.9565 17.2769 38.0948 16.8081 39.2809 16.8086C40.4555 16.8241 41.5771 17.3003 42.4053 18.135C43.2335 18.9698 43.7021 20.0965 43.7106 21.2735C43.7088 22.4612 43.2389 23.6001 42.403 24.4423C41.5671 25.2844 40.4331 25.7616 39.2478 25.7698ZM39.2635 23.807C39.9227 23.7966 40.5518 23.5294 41.0177 23.0619C41.4835 22.5945 41.7493 21.9637 41.7587 21.3032C41.7594 20.9704 41.6946 20.6408 41.568 20.3331C41.4415 20.0255 41.2557 19.7459 41.0212 19.5102C40.7867 19.2746 40.5081 19.0876 40.2014 18.96C39.8948 18.8323 39.566 18.7665 39.2339 18.7663C38.573 18.774 37.9414 19.0407 37.4744 19.5094C37.0073 19.978 36.742 20.6113 36.7352 21.2735C36.7366 21.9444 37.0029 22.5875 37.476 23.0622C37.9491 23.5369 38.5905 23.8047 39.26 23.807H39.2635Z" fill="#36E7FF"/>
<path d="M12.0529 20.4026C12.4691 20.4026 12.7721 20.3921 13.0715 20.4026C13.6357 20.4218 13.9735 20.7411 14.0275 21.275C14.0815 21.8089 13.775 22.2503 13.2387 22.3009C12.4614 22.3724 11.6792 22.3724 10.902 22.3009C10.3622 22.252 10.0993 21.8316 10.101 21.2767C10.101 20.516 10.101 19.757 10.101 18.8898C9.42713 18.8898 8.80725 18.8898 8.18562 18.8898C7.39161 18.8794 6.97719 18.5496 6.96674 17.9354C6.95629 17.3213 7.38462 16.9409 8.20823 16.9304C9.03185 16.92 9.90249 16.9304 10.7487 16.9304C11.7256 16.9409 12.0425 17.2567 12.0529 18.2251C12.0599 18.93 12.0529 19.6226 12.0529 20.4026Z" fill="#36E7FF"/>
<path d="M14.3218 18.89C13.277 18.9005 12.8051 18.5969 12.8138 17.9129C12.8225 17.229 13.291 16.9376 14.3496 16.9393C14.5653 16.9335 14.7811 16.9416 14.9956 16.9638C15.5737 17.0423 15.9168 17.4296 15.8802 17.9705C15.8436 18.5114 15.518 18.8324 14.9695 18.8865C14.7571 18.9075 14.5395 18.89 14.3218 18.89Z" fill="#36E7FF"/>
</g>
<defs>
<clipPath id="clip0_189_6469">
<rect width="57" height="67" fill="white"/>
</clipPath>
</defs>
</svg>
