<svg width="71" height="39" viewBox="0 0 71 39" fill="none" xmlns="http://www.w3.org/2000/svg">
<g clip-path="url(#clip0_189_7838)">
<path d="M70.9772 38.2898C70.626 38.8418 70.1343 39.0008 69.4985 39.0008C46.8253 38.9868 24.1483 38.9868 1.4677 39.0008C0.837411 39.0008 0.343899 38.8437 -0.0109863 38.2898V37.5731C0.31987 36.9426 0.855908 36.7414 1.50468 36.843C2.39559 36.9829 2.95009 36.6054 3.5046 35.858C7.83716 30.0207 12.2363 24.2371 16.5781 18.4056C17.6871 16.9051 19.0123 16.2689 20.8293 16.907L26.2912 9.95826C28.5203 7.12075 30.7488 4.28261 32.9767 1.44384C34.3981 -0.3633 36.4886 -0.491695 38.0967 1.1583C40.8076 3.93703 43.5025 6.72662 46.1814 9.52707C46.3612 9.74121 46.525 9.96929 46.6712 10.2093C47.3366 9.86627 47.8505 9.60182 48.3662 9.33927C50.3994 8.29485 52.0315 8.78353 53.1959 10.7938C58.0165 19.107 62.8302 27.4253 67.6372 35.7487C68.1067 36.567 68.5872 37.0097 69.5207 36.8449C69.8055 36.7796 70.1033 36.816 70.3656 36.9482C70.628 37.0803 70.8396 37.3006 70.9661 37.5731L70.9772 38.2898ZM65.8664 36.8372C65.652 36.454 65.519 36.2067 65.3785 35.9653L51.7653 12.4955C51.5805 12.1678 51.3956 11.8306 51.1868 11.5182C50.843 11.0065 50.3513 10.7976 49.7968 11.041C48.503 11.6159 47.0742 12.0797 46.9873 13.9271C46.9764 13.9979 46.9546 14.0665 46.9226 14.1302C46.686 14.7262 46.1833 15.0098 45.6602 14.8469C45.1057 14.6687 44.8044 14.134 44.9467 13.4863C45.0242 13.1131 45.1292 12.7466 45.2609 12.3901C45.4236 11.9589 45.3441 11.6619 45.0133 11.3246C42.2537 8.4999 39.5181 5.65218 36.7714 2.81404C35.886 1.89802 35.2927 1.9306 34.4868 2.95011C31.7155 6.47239 28.9473 9.99659 26.1822 13.5227L22.8237 17.802C23.905 18.2887 24.9216 18.7237 25.9178 19.2009C26.0637 19.2916 26.2352 19.3274 26.4036 19.3023C26.5719 19.2772 26.7268 19.1926 26.842 19.0629C28.1932 17.8652 29.5683 16.6981 30.9361 15.5215C32.4647 14.2011 34.0432 14.2049 35.557 15.5541C36.8213 16.6732 38.0671 17.8135 39.3221 18.9422C40.3776 19.9004 41.4367 20.8356 42.5716 21.8493C42.9227 20.6018 43.2388 19.4596 43.566 18.3232C43.8173 17.4551 44.3053 17.1082 44.9615 17.3229C45.5807 17.526 45.8043 18.0779 45.5751 18.9077C45.2055 20.2492 44.8358 21.5715 44.4403 22.8899C44.3257 23.2732 44.3737 23.4955 44.6639 23.7561C49.4117 28.0143 54.1559 32.2756 58.8963 36.5402C59.0609 36.6997 59.2711 36.7992 59.4952 36.8238C61.5801 36.8526 63.654 36.8372 65.8664 36.8372ZM56.0018 36.8372C55.7319 36.5709 55.5933 36.4233 55.4472 36.2892C50.5676 31.8956 45.6873 27.502 40.8064 23.1084C38.6105 21.1326 36.4073 19.1664 34.2151 17.183C33.7105 16.725 33.1394 16.4835 32.5904 16.9358C31.0008 18.2389 29.4482 19.6033 27.9104 20.9314C27.9529 21.0636 27.9695 21.123 27.9972 21.1959C30.2756 26.2589 32.5553 31.3232 34.8362 36.3888C35.021 36.8066 35.289 36.843 35.6569 36.843C39.0307 36.8353 42.404 36.8353 45.7766 36.843L56.0018 36.8372ZM13.9349 36.8123H32.6902C32.5997 36.5766 32.5368 36.3792 32.4518 36.1914C30.3212 31.4554 28.1827 26.7226 26.0361 21.993C25.868 21.6668 25.6011 21.4068 25.2764 21.2533C23.637 20.4868 21.9771 19.7777 20.321 19.0514C19.3395 18.6222 19.0068 18.7122 18.3617 19.5708L5.90562 36.1454C5.7596 36.3371 5.63022 36.5459 5.47126 36.7797C5.54812 36.8036 5.62658 36.8216 5.706 36.8334C6.99986 36.8334 8.30665 36.7069 9.58756 36.8717C11.1069 37.0634 11.874 36.4578 12.5449 35.0761C13.8111 32.4258 15.2842 29.8827 16.676 27.2976C17.0938 26.5195 17.6723 26.2895 18.2508 26.6479C18.7906 26.9814 18.9033 27.5697 18.5262 28.2768C17.2558 30.6582 15.9798 33.0371 14.6983 35.4134C14.4506 35.8446 14.2214 36.2777 13.9349 36.8123Z" fill="#36E7FF"/>
</g>
<defs>
<clipPath id="clip0_189_7838">
<rect width="70.9771" height="39" fill="white"/>
</clipPath>
</defs>
</svg>
