<svg width="55" height="55" viewBox="0 0 55 55" fill="none" xmlns="http://www.w3.org/2000/svg">
<path d="M54.4741 53.9135H53.2018V22.0498H53.7896C53.9419 22.0393 54.0851 21.9739 54.1927 21.8656C54.3004 21.7572 54.365 21.6134 54.3747 21.4609V17.1483C54.3644 16.9959 54.2996 16.8525 54.1921 16.7443C54.0846 16.6361 53.9417 16.5704 53.7896 16.5594H41.6471V6.07086H43.5072C43.6594 6.05995 43.8027 5.9944 43.9107 5.88625C44.0186 5.7781 44.0841 5.6346 44.095 5.48204V2.44107C44.084 2.2888 44.0185 2.14562 43.9105 2.03792C43.8024 1.93022 43.6592 1.86525 43.5072 1.85498H34.8998C34.8194 1.84945 34.7387 1.86054 34.6628 1.88756C34.5869 1.91458 34.5173 1.95696 34.4584 2.01205C34.3995 2.06714 34.3525 2.13377 34.3204 2.20781C34.2883 2.28185 34.2717 2.36171 34.2717 2.44244C34.2717 2.52316 34.2883 2.60304 34.3204 2.67708C34.3525 2.75112 34.3995 2.81775 34.4584 2.87284C34.5173 2.92793 34.5869 2.97029 34.6628 2.99731C34.7387 3.02433 34.8194 3.03542 34.8998 3.0299H42.8255V4.89319H32.7472V3.23448C32.7364 3.08192 32.6709 2.9384 32.563 2.83025C32.455 2.7221 32.3117 2.65656 32.1594 2.64564H30.1035V0.586075C30.0931 0.433602 30.0278 0.290111 29.9196 0.182299C29.8115 0.0744866 29.668 0.00969914 29.5157 0H25.6025C25.4503 0.00969914 25.3067 0.0744866 25.1986 0.182299C25.0904 0.290111 25.0251 0.433602 25.0147 0.586075V2.64564H22.956C22.8035 2.65599 22.6599 2.72134 22.5518 2.82961C22.4437 2.93788 22.3785 3.08172 22.3682 3.23448V4.89319H12.2927V3.0299H20.2184C20.2988 3.03542 20.3795 3.02433 20.4554 2.99731C20.5313 2.97029 20.6009 2.92793 20.6598 2.87284C20.7187 2.81775 20.7657 2.75112 20.7978 2.67708C20.8299 2.60304 20.8465 2.52316 20.8465 2.44244C20.8465 2.36171 20.8299 2.28185 20.7978 2.20781C20.7657 2.13377 20.7187 2.06714 20.6598 2.01205C20.6009 1.95696 20.5313 1.91458 20.4554 1.88756C20.3795 1.86054 20.2988 1.84945 20.2184 1.85498H11.6083C11.456 1.86468 11.3125 1.92946 11.2043 2.03728C11.0962 2.14509 11.0309 2.2886 11.0205 2.44107V5.48204C11.0308 5.6348 11.096 5.77862 11.2041 5.88689C11.3122 5.99516 11.4558 6.06051 11.6083 6.07086H13.4655V16.4627H1.23195C1.07974 16.4731 0.936497 16.5386 0.828875 16.6469C0.721252 16.7552 0.656587 16.899 0.646904 17.0515V21.3697C0.657157 21.522 0.722015 21.6655 0.829523 21.7737C0.937031 21.8819 1.07995 21.9475 1.23195 21.9585H1.81976V53.8223H0.547552C0.398974 53.8325 0.259809 53.8989 0.15817 54.0079C0.0565314 54.117 0 54.2606 0 54.4098C0 54.559 0.0565314 54.7026 0.15817 54.8116C0.259809 54.9207 0.398974 54.987 0.547552 54.9972H54.3747C54.5272 54.9869 54.6708 54.9215 54.7789 54.8132C54.8869 54.705 54.9522 54.5612 54.9625 54.4084C54.9674 54.3426 54.9581 54.2766 54.9353 54.2147C54.9126 54.1528 54.8769 54.0966 54.8306 54.0497C54.7843 54.0028 54.7285 53.9664 54.667 53.9429C54.6055 53.9194 54.5397 53.9094 54.4741 53.9135ZM52.0262 50.187H41.6527V22.0498H52.0262V50.187ZM53.3122 17.7371V20.7781H41.6665V17.7371H53.3122ZM23.5466 3.81503H25.6025C25.7548 3.80411 25.898 3.73857 26.006 3.63041C26.114 3.52226 26.1794 3.37874 26.1903 3.22618V1.16662H28.9307V3.22618C28.9409 3.3785 29.0057 3.52199 29.1133 3.6302C29.2208 3.7384 29.3637 3.80404 29.5157 3.81503H31.5716V6.56018H29.5157C29.3635 6.5706 29.2202 6.63607 29.1126 6.74439C29.005 6.85271 28.9403 6.99651 28.9307 7.14903V9.20583H26.1903V7.14903C26.18 6.99627 26.1147 6.85244 26.0067 6.74417C25.8986 6.6359 25.755 6.57053 25.6025 6.56018H23.5466V3.81503ZM1.9191 17.7371H13.5731V20.7781H1.92738L1.9191 17.7371ZM13.4655 22.0498V50.2865H3.08644V22.0498H13.4655ZM3.08644 51.4614H13.46V53.9135H3.08644V51.4614ZM14.7322 6.07086H22.3682V7.14903C22.3785 7.30179 22.4437 7.44563 22.5518 7.5539C22.6599 7.66217 22.8035 7.72752 22.956 7.73787H25.0092V9.79467C25.0195 9.94743 25.0847 10.0913 25.1928 10.1995C25.3009 10.3078 25.4445 10.3732 25.597 10.3835H29.5102C29.6627 10.3732 29.8063 10.3078 29.9143 10.1995C30.0224 10.0913 30.0877 9.94743 30.098 9.79467V7.73787H32.1539C32.3062 7.72696 32.4495 7.66141 32.5575 7.55326C32.6654 7.44511 32.7308 7.30159 32.7417 7.14903V6.07086H40.375V53.9135H14.7377L14.7322 6.07086ZM41.6471 53.9135V51.4614H52.0207V53.9135H41.6471Z" fill="#36E7FF"/>
<path d="M37.3451 14.6967C37.4255 14.7022 37.5061 14.6911 37.5821 14.6641C37.658 14.6371 37.7276 14.5947 37.7865 14.5396C37.8454 14.4845 37.8923 14.4179 37.9244 14.3438C37.9565 14.2698 37.9731 14.1899 37.9731 14.1092C37.9731 14.0285 37.9565 13.9486 37.9244 13.8746C37.8923 13.8005 37.8454 13.7339 37.7865 13.6788C37.7276 13.6237 37.658 13.5813 37.5821 13.5543C37.5061 13.5273 37.4255 13.5162 37.3451 13.5217H35.4878V11.6585C35.4878 11.5023 35.4259 11.3525 35.3156 11.2421C35.2054 11.1317 35.0559 11.0696 34.9 11.0696C34.7441 11.0696 34.5946 11.1317 34.4844 11.2421C34.3741 11.3525 34.3122 11.5023 34.3122 11.6585V13.5217H30.5949V11.6585C30.5949 11.5023 30.533 11.3525 30.4228 11.2421C30.3125 11.1317 30.163 11.0696 30.0071 11.0696C29.8512 11.0696 29.7017 11.1317 29.5915 11.2421C29.4813 11.3525 29.4193 11.5023 29.4193 11.6585V13.5217H25.6993V11.6585C25.7048 11.5779 25.6938 11.4971 25.6668 11.4211C25.6398 11.345 25.5975 11.2753 25.5425 11.2163C25.4875 11.1573 25.421 11.1102 25.3471 11.0781C25.2732 11.0459 25.1935 11.0293 25.1129 11.0293C25.0323 11.0293 24.9526 11.0459 24.8787 11.0781C24.8048 11.1102 24.7382 11.1573 24.6832 11.2163C24.6282 11.2753 24.5859 11.345 24.559 11.4211C24.532 11.4971 24.5209 11.5779 24.5264 11.6585V13.5217H20.8064V11.6585C20.812 11.5779 20.8009 11.4971 20.7739 11.4211C20.7469 11.345 20.7046 11.2753 20.6496 11.2163C20.5946 11.1573 20.5281 11.1102 20.4542 11.0781C20.3803 11.0459 20.3006 11.0293 20.22 11.0293C20.1394 11.0293 20.0597 11.0459 19.9858 11.0781C19.9119 11.1102 19.8454 11.1573 19.7904 11.2163C19.7354 11.2753 19.6931 11.345 19.6661 11.4211C19.6391 11.4971 19.6281 11.5779 19.6336 11.6585V13.5217H17.7736C17.6932 13.5162 17.6125 13.5273 17.5366 13.5543C17.4606 13.5813 17.3911 13.6237 17.3322 13.6788C17.2733 13.7339 17.2263 13.8005 17.1942 13.8746C17.1621 13.9486 17.1455 14.0285 17.1455 14.1092C17.1455 14.1899 17.1621 14.2698 17.1942 14.3438C17.2263 14.4179 17.2733 14.4845 17.3322 14.5396C17.3911 14.5947 17.4606 14.6371 17.5366 14.6641C17.6125 14.6911 17.6932 14.7022 17.7736 14.6967H19.6446V18.4232H17.7846C17.6287 18.4232 17.4792 18.4853 17.369 18.5957C17.2587 18.7061 17.1968 18.8559 17.1968 19.0121C17.1968 19.1682 17.2587 19.318 17.369 19.4284C17.4792 19.5389 17.6287 19.6009 17.7846 19.6009H19.6446V23.3247H17.7846C17.6287 23.3247 17.4792 23.3868 17.369 23.4972C17.2587 23.6076 17.1968 23.7574 17.1968 23.9136C17.1968 24.0697 17.2587 24.2195 17.369 24.3299C17.4792 24.4404 17.6287 24.5024 17.7846 24.5024H19.6446V28.2262H17.7846C17.6287 28.2262 17.4792 28.2882 17.369 28.3987C17.2587 28.5091 17.1968 28.6589 17.1968 28.815C17.1968 28.9712 17.2587 29.121 17.369 29.2314C17.4792 29.3418 17.6287 29.4039 17.7846 29.4039H19.6446V33.1277H17.7846C17.6287 33.1277 17.4792 33.1897 17.369 33.3002C17.2587 33.4106 17.1968 33.5603 17.1968 33.7165C17.1968 33.8727 17.2587 34.0225 17.369 34.1329C17.4792 34.2433 17.6287 34.3054 17.7846 34.3054H19.6446V38.0319H17.7846C17.7042 38.0264 17.6235 38.0375 17.5476 38.0645C17.4717 38.0915 17.4021 38.1339 17.3432 38.189C17.2843 38.2441 17.2373 38.3107 17.2052 38.3848C17.1731 38.4588 17.1565 38.5387 17.1565 38.6194C17.1565 38.7001 17.1731 38.78 17.2052 38.854C17.2373 38.9281 17.2843 38.9947 17.3432 39.0498C17.4021 39.1049 17.4717 39.1473 17.5476 39.1743C17.6235 39.2013 17.7042 39.2124 17.7846 39.2069H19.6446V42.9334H17.7846C17.7042 42.9279 17.6235 42.939 17.5476 42.966C17.4717 42.993 17.4021 43.0354 17.3432 43.0905C17.2843 43.1456 17.2373 43.2122 17.2052 43.2863C17.1731 43.3603 17.1565 43.4401 17.1565 43.5209C17.1565 43.6016 17.1731 43.6815 17.2052 43.7555C17.2373 43.8295 17.2843 43.8962 17.3432 43.9513C17.4021 44.0064 17.4717 44.0487 17.5476 44.0757C17.6235 44.1028 17.7042 44.1139 17.7846 44.1083H19.6446V47.8349H17.7846C17.6287 47.8349 17.4792 47.8969 17.369 48.0074C17.2587 48.1178 17.1968 48.2676 17.1968 48.4237C17.1968 48.5799 17.2587 48.7297 17.369 48.8401C17.4792 48.9505 17.6287 49.0126 17.7846 49.0126H19.6446V50.8759C19.6548 51.0247 19.721 51.1641 19.8299 51.2659C19.9387 51.3677 20.0821 51.4244 20.231 51.4244C20.38 51.4244 20.5234 51.3677 20.6322 51.2659C20.7411 51.1641 20.8073 51.0247 20.8175 50.8759V49.0153H24.5375V50.8786C24.5477 51.0275 24.6139 51.1669 24.7228 51.2687C24.8316 51.3705 24.975 51.4271 25.1239 51.4271C25.2728 51.4271 25.4162 51.3705 25.5251 51.2687C25.6339 51.1669 25.7001 51.0275 25.7103 50.8786V49.0153H29.4304V50.8786C29.4304 51.0348 29.4923 51.1846 29.6025 51.295C29.7128 51.4054 29.8623 51.4675 30.0182 51.4675C30.1741 51.4675 30.3236 51.4054 30.4338 51.295C30.544 51.1846 30.606 51.0348 30.606 50.8786V49.0153H34.3232V50.8786C34.3232 51.0348 34.3852 51.1846 34.4954 51.295C34.6056 51.4054 34.7551 51.4675 34.911 51.4675C35.0669 51.4675 35.2164 51.4054 35.3267 51.295C35.4369 51.1846 35.4989 51.0348 35.4989 50.8786V49.0153H37.3561C37.512 49.0153 37.6615 48.9533 37.7717 48.8429C37.882 48.7324 37.9439 48.5827 37.9439 48.4265C37.9439 48.2703 37.882 48.1206 37.7717 48.0101C37.6615 47.8997 37.512 47.8377 37.3561 47.8377H35.4989V44.1111H37.3561C37.4365 44.1166 37.5172 44.1055 37.5931 44.0785C37.669 44.0515 37.7386 44.0091 37.7975 43.954C37.8564 43.8989 37.9034 43.8323 37.9355 43.7583C37.9676 43.6842 37.9842 43.6044 37.9842 43.5236C37.9842 43.4429 37.9676 43.3631 37.9355 43.289C37.9034 43.215 37.8564 43.1483 37.7975 43.0932C37.7386 43.0381 37.669 42.9958 37.5931 42.9688C37.5172 42.9417 37.4365 42.9307 37.3561 42.9362H35.4989V39.2069H37.3561C37.4365 39.2124 37.5172 39.2013 37.5931 39.1743C37.669 39.1473 37.7386 39.1049 37.7975 39.0498C37.8564 38.9947 37.9034 38.9281 37.9355 38.854C37.9676 38.78 37.9842 38.7001 37.9842 38.6194C37.9842 38.5387 37.9676 38.4588 37.9355 38.3848C37.9034 38.3107 37.8564 38.2441 37.7975 38.189C37.7386 38.1339 37.669 38.0915 37.5931 38.0645C37.5172 38.0375 37.4365 38.0264 37.3561 38.0319H35.4989V34.3054H37.3561C37.512 34.3054 37.6615 34.2433 37.7717 34.1329C37.882 34.0225 37.9439 33.8727 37.9439 33.7165C37.9439 33.5603 37.882 33.4106 37.7717 33.3002C37.6615 33.1897 37.512 33.1277 37.3561 33.1277H35.4989V29.4039H37.3561C37.512 29.4039 37.6615 29.3418 37.7717 29.2314C37.882 29.121 37.9439 28.9712 37.9439 28.815C37.9439 28.6589 37.882 28.5091 37.7717 28.3987C37.6615 28.2882 37.512 28.2262 37.3561 28.2262H35.4989V24.5024H37.3561C37.512 24.5024 37.6615 24.4404 37.7717 24.3299C37.882 24.2195 37.9439 24.0697 37.9439 23.9136C37.9439 23.7574 37.882 23.6076 37.7717 23.4972C37.6615 23.3868 37.512 23.3247 37.3561 23.3247H35.4989V19.6009H37.3561C37.512 19.6009 37.6615 19.5389 37.7717 19.4284C37.882 19.318 37.9439 19.1682 37.9439 19.0121C37.9439 18.8559 37.882 18.7061 37.7717 18.5957C37.6615 18.4853 37.512 18.4232 37.3561 18.4232H35.4989V14.6967H37.3451ZM29.4193 14.6967V18.4232H25.6993V14.6967H29.4193ZM25.6993 37.9186V34.2086H29.4193V37.9324L25.6993 37.9186ZM29.4193 39.193V42.9334H25.6993V39.2069L29.4193 39.193ZM25.6993 33.0171V29.3071H29.4193V33.0309L25.6993 33.0171ZM25.6993 28.1156V24.4112H29.4193V28.1377L25.6993 28.1156ZM25.6993 23.2141V19.5014H29.4193V23.228L25.6993 23.2141ZM20.8064 14.6828H24.5264V18.4094H20.8064V14.6828ZM20.8064 19.5871H24.5264V23.3109H20.8064V19.5871ZM20.8064 24.4886H24.5264V28.2262H20.8064V24.4886ZM20.8064 29.3901H24.5264V33.1139H20.8064V29.3901ZM20.8064 34.2915H24.5264V38.0181H20.8064V34.2915ZM20.8064 39.193H24.5264V42.9334H20.8064V39.193ZM20.8064 47.7243V44.0116H24.5264V47.7381L20.8064 47.7243ZM25.6993 47.7243V44.0116H29.4193V47.7381L25.6993 47.7243ZM34.3122 47.7243H30.5949V44.0116H34.3122V47.7243ZM34.3122 42.8228H30.5949V39.1101H34.3122V42.8228ZM34.3122 37.9186H30.5949V34.2086H34.3122V37.9186ZM34.3122 33.0171H30.5949V29.3071H34.3122V33.0171ZM34.3122 28.1156H30.5949V24.4112H34.3122V28.1156ZM34.3122 23.2141H30.5949V19.5014H34.3122V23.2141ZM34.3122 18.3127H30.5949V14.5999H34.3122V18.3127Z" fill="#36E7FF"/>
<path d="M42.8256 48.3234H50.7513C50.8317 48.329 50.9124 48.3179 50.9883 48.2909C51.0642 48.2639 51.1338 48.2215 51.1927 48.1664C51.2516 48.1113 51.2986 48.0447 51.3307 47.9706C51.3628 47.8966 51.3794 47.8167 51.3794 47.736C51.3794 47.6553 51.3628 47.5754 51.3307 47.5013C51.2986 47.4273 51.2516 47.3607 51.1927 47.3056C51.1338 47.2505 51.0642 47.2081 50.9883 47.1811C50.9124 47.1541 50.8317 47.143 50.7513 47.1485V42.247C50.7415 42.0941 50.6765 41.9499 50.5683 41.8415C50.4601 41.7331 50.3162 41.668 50.1635 41.6582H47.7184C47.5659 41.6686 47.4224 41.7339 47.3143 41.8422C47.2062 41.9504 47.141 42.0943 47.1306 42.247V47.1485H46.5428V42.247C46.5331 42.0945 46.4685 41.9507 46.3609 41.8424C46.2532 41.7341 46.11 41.6686 45.9578 41.6582H43.51C43.3573 41.668 43.2134 41.7331 43.1052 41.8415C42.997 41.9499 42.9319 42.0941 42.9222 42.247V47.1485C42.7697 47.1589 42.6261 47.2242 42.518 47.3325C42.4099 47.4408 42.3447 47.5846 42.3343 47.7374C42.3121 47.8101 42.3085 47.8872 42.3236 47.9617C42.3388 48.0363 42.3723 48.1058 42.4211 48.1641C42.4699 48.2223 42.5325 48.2674 42.6031 48.2952C42.6738 48.3231 42.7502 48.3328 42.8256 48.3234ZM48.4028 42.8359H49.675V47.1485H48.4028V42.8359ZM44.0978 42.8359H45.37V47.1485H44.0978V42.8359Z" fill="#36E7FF"/>
<path d="M42.8251 39.2063H50.7509C50.8312 39.2118 50.9119 39.2007 50.9879 39.1737C51.0638 39.1467 51.1334 39.1043 51.1923 39.0492C51.2512 38.9941 51.2981 38.9275 51.3302 38.8534C51.3623 38.7794 51.3789 38.6995 51.3789 38.6188C51.3789 38.5381 51.3623 38.4582 51.3302 38.3842C51.2981 38.3101 51.2512 38.2435 51.1923 38.1884C51.1334 38.1333 51.0638 38.091 50.9879 38.0639C50.9119 38.0369 50.8312 38.0258 50.7509 38.0314V33.1271C50.7405 32.9746 50.6751 32.8311 50.567 32.7233C50.4589 32.6155 50.3153 32.5507 50.1631 32.541H47.718C47.5659 32.5513 47.4227 32.6163 47.3147 32.724C47.2067 32.8317 47.1411 32.9748 47.1302 33.1271V38.0314H46.5424V33.1271C46.532 32.9751 46.4671 32.8319 46.3595 32.7242C46.252 32.6164 46.1091 32.5514 45.9573 32.541H43.5095C43.3573 32.5507 43.2137 32.6155 43.1056 32.7233C42.9975 32.8311 42.9321 32.9746 42.9217 33.1271V38.0314C42.7692 38.0417 42.6256 38.1071 42.5176 38.2153C42.4095 38.3236 42.3442 38.4674 42.3339 38.6202C42.3194 38.6923 42.3212 38.7667 42.3394 38.8379C42.3575 38.9092 42.3914 38.9754 42.4386 39.0318C42.4858 39.0881 42.5451 39.133 42.612 39.1632C42.6789 39.1934 42.7517 39.2081 42.8251 39.2063ZM48.4024 33.6192H49.6746V37.9318H48.4024V33.6192ZM44.0973 33.6192H45.3695V37.9318H44.0973V33.6192Z" fill="#36E7FF"/>
<path d="M42.8251 29.9922H50.7508C50.9067 29.9922 51.0562 29.9302 51.1664 29.8198C51.2767 29.7093 51.3386 29.5596 51.3386 29.4034C51.3386 29.2472 51.2767 29.0974 51.1664 28.987C51.0562 28.8766 50.9067 28.8145 50.7508 28.8145V23.9131C50.741 23.7601 50.676 23.6159 50.5678 23.5075C50.4596 23.3992 50.3157 23.334 50.163 23.3242H47.7179C47.5654 23.3346 47.4219 23.3999 47.3138 23.5082C47.2057 23.6165 47.1404 23.7603 47.1301 23.9131V28.8145H46.5423V23.9131C46.5326 23.7605 46.468 23.6167 46.3603 23.5084C46.2527 23.4001 46.1095 23.3346 45.9573 23.3242H43.5094C43.3567 23.334 43.2129 23.3992 43.1047 23.5075C42.9965 23.6159 42.9314 23.7601 42.9216 23.9131V28.8145C42.7693 28.8255 42.6261 28.891 42.5181 28.9991C42.4102 29.1073 42.3447 29.2508 42.3338 29.4034C42.3194 29.4756 42.3213 29.5501 42.3394 29.6215C42.3575 29.6929 42.3914 29.7593 42.4385 29.8158C42.4857 29.8723 42.5449 29.9175 42.6118 29.948C42.6787 29.9786 42.7516 29.9937 42.8251 29.9922ZM48.4023 24.5019H49.6745V28.8145H48.4023V24.5019ZM44.0973 24.5019H45.3695V28.8145H44.0973V24.5019Z" fill="#36E7FF"/>
<path d="M4.3642 48.3234H12.2927C12.4413 48.3132 12.5804 48.2469 12.6821 48.1378C12.7837 48.0288 12.8403 47.8852 12.8403 47.736C12.8403 47.5868 12.7837 47.4432 12.6821 47.3341C12.5804 47.2251 12.4413 47.1587 12.2927 47.1485V42.247C12.2829 42.0941 12.2179 41.9499 12.1097 41.8415C12.0015 41.7331 11.8576 41.668 11.7049 41.6582H9.25983C9.10713 41.668 8.96323 41.7331 8.85504 41.8415C8.74684 41.9499 8.68178 42.0941 8.67202 42.247V47.1485H7.98487V42.247C7.97519 42.0945 7.91051 41.9507 7.80289 41.8424C7.69527 41.7341 7.55203 41.6686 7.39982 41.6582H4.95201C4.79951 41.6686 4.65593 41.7339 4.54785 41.8422C4.43978 41.9504 4.37453 42.0943 4.3642 42.247V47.1485C4.2117 47.1589 4.06812 47.2242 3.96005 47.3325C3.85197 47.4408 3.78672 47.5846 3.77639 47.7374C3.6798 48.1272 3.97233 48.3234 4.3642 48.3234ZM9.84488 42.8359H11.1171V47.1485H9.84488V42.8359ZM5.53982 42.8359H6.81202V47.1485H5.53982V42.8359Z" fill="#36E7FF"/>
<path d="M4.3642 39.2063H12.2927C12.4413 39.1961 12.5804 39.1297 12.6821 39.0207C12.7837 38.9116 12.8403 38.768 12.8403 38.6188C12.8403 38.4696 12.7837 38.326 12.6821 38.2169C12.5804 38.1079 12.4413 38.0416 12.2927 38.0314V33.1271C12.2823 32.9746 12.217 32.8311 12.1088 32.7233C12.0007 32.6155 11.8571 32.5507 11.7049 32.541H9.25983C9.10758 32.5507 8.96403 32.6155 8.8559 32.7233C8.74777 32.8311 8.68242 32.9746 8.67202 33.1271V38.0314H7.98487V33.1271C7.97455 32.9751 7.90959 32.8319 7.80203 32.7242C7.69447 32.6164 7.55159 32.5514 7.39982 32.541H4.95201C4.79995 32.5513 4.65673 32.6163 4.54871 32.724C4.4407 32.8317 4.37517 32.9748 4.3642 33.1271V38.0314C4.2117 38.0417 4.06812 38.1071 3.96005 38.2153C3.85197 38.3236 3.78672 38.4674 3.77639 38.6202C3.6798 38.9132 3.97233 39.2063 4.3642 39.2063ZM9.84488 33.6192H11.1171V37.9318H9.84488V33.6192ZM5.53982 33.6192H6.81202V37.9318H5.53982V33.6192Z" fill="#36E7FF"/>
<path d="M4.3642 29.9922H12.2927C12.4486 29.9922 12.5981 29.9302 12.7083 29.8198C12.8186 29.7093 12.8805 29.5596 12.8805 29.4034C12.8805 29.2472 12.8186 29.0974 12.7083 28.987C12.5981 28.8766 12.4486 28.8145 12.2927 28.8145V23.9131C12.2829 23.7601 12.2179 23.6159 12.1097 23.5075C12.0015 23.3992 11.8576 23.334 11.7049 23.3242H9.25983C9.10713 23.334 8.96323 23.3992 8.85504 23.5075C8.74684 23.6159 8.68178 23.7601 8.67202 23.9131V28.8145H7.98487V23.9131C7.97519 23.7605 7.91051 23.6167 7.80289 23.5084C7.69527 23.4001 7.55203 23.3346 7.39982 23.3242H4.95201C4.79951 23.3346 4.65593 23.3999 4.54785 23.5082C4.43978 23.6165 4.37453 23.7603 4.3642 23.9131V28.8145C4.21191 28.8255 4.06864 28.891 3.96068 28.9991C3.85271 29.1073 3.78729 29.2508 3.77639 29.4034C3.6798 29.6964 3.97233 29.9922 4.3642 29.9922ZM9.84488 24.5019H11.1171V28.8145H9.84488V24.5019ZM5.53982 24.5019H6.81202V28.8145H5.53982V24.5019Z" fill="#36E7FF"/>
<path d="M4.95164 12.8319C5.55203 12.8319 6.13894 12.6536 6.63814 12.3194C7.13735 11.9853 7.52643 11.5104 7.75619 10.9547C7.98595 10.399 8.04607 9.78759 7.92894 9.1977C7.81181 8.60781 7.52269 8.06596 7.09815 7.64067C6.67361 7.21538 6.13272 6.92577 5.54386 6.80843C4.95501 6.6911 4.34464 6.75132 3.78995 6.98148C3.23526 7.21165 2.76117 7.60141 2.42761 8.1015C2.09405 8.60158 1.91602 9.18952 1.91602 9.79096C1.91602 10.5975 2.23583 11.371 2.80512 11.9413C3.37441 12.5115 4.14654 12.8319 4.95164 12.8319ZM4.95164 7.93045C5.44495 7.93045 5.91805 8.12675 6.26687 8.47618C6.61569 8.82562 6.81165 9.29956 6.81165 9.79373C6.81971 10.0406 6.77711 10.2865 6.68649 10.5162C6.59587 10.7459 6.45916 10.9546 6.2848 11.1292C6.11045 11.3039 5.90217 11.4408 5.67286 11.5316C5.44355 11.6224 5.19808 11.6651 4.95164 11.657C4.45834 11.657 3.98523 11.4607 3.63641 11.1113C3.2876 10.7618 3.09162 10.2879 3.09162 9.79373C3.09162 9.29956 3.2876 8.82562 3.63641 8.47618C3.98523 8.12675 4.45834 7.93045 4.95164 7.93045Z" fill="#36E7FF"/>
<path d="M50.1665 10.3839C50.6551 10.3842 51.139 10.2881 51.5905 10.1009C52.042 9.91378 52.4522 9.6393 52.7977 9.29319C53.1432 8.94707 53.4173 8.53611 53.6041 8.08381C53.7909 7.63152 53.8869 7.14678 53.8865 6.6573C53.8844 6.17315 53.7861 5.69427 53.5971 5.24864C53.4082 4.803 53.1325 4.39956 52.7862 4.06187C52.4398 3.72419 52.0298 3.45903 51.58 3.28191C51.1302 3.10478 50.6497 3.01922 50.1665 3.03024C49.678 3.02988 49.1942 3.12604 48.7429 3.31322C48.2915 3.50041 47.8815 3.77495 47.5362 4.1211C47.1909 4.46725 46.9172 4.87823 46.7306 5.3305C46.5441 5.78278 46.4485 6.26747 46.4492 6.75682C46.4492 8.81362 48.2099 10.3839 50.1665 10.3839ZM50.1665 4.20793C50.6508 4.20738 51.1245 4.35081 51.5275 4.62004C51.9304 4.88927 52.2446 5.27221 52.4302 5.72039C52.6158 6.16857 52.6645 6.66184 52.5702 7.13776C52.4758 7.61369 52.2426 8.05086 51.9001 8.39396C51.5576 8.73706 51.1212 8.97067 50.6461 9.0652C50.171 9.15972 49.6786 9.11093 49.2312 8.925C48.7838 8.73906 48.4016 8.42433 48.1328 8.02066C47.8641 7.61698 47.7209 7.14252 47.7214 6.6573C47.7185 6.33482 47.7797 6.01498 47.9015 5.71648C48.0234 5.41798 48.2034 5.14678 48.431 4.91875C48.6586 4.69071 48.9293 4.51042 49.2273 4.38837C49.5253 4.26632 49.8446 4.20498 50.1665 4.20793Z" fill="#36E7FF"/>
<path d="M52.9067 11.0684C53.0808 11.0684 53.251 11.1201 53.3958 11.217C53.5405 11.3139 53.6534 11.4516 53.72 11.6128C53.7866 11.7739 53.8041 11.9512 53.7701 12.1223C53.7361 12.2934 53.6523 12.4505 53.5292 12.5738C53.4061 12.6972 53.2492 12.7812 53.0784 12.8152C52.9077 12.8492 52.7307 12.8317 52.5698 12.765C52.409 12.6983 52.2715 12.5852 52.1747 12.4402C52.078 12.2952 52.0264 12.1247 52.0264 11.9502C52.0264 11.8344 52.0491 11.7198 52.0934 11.6128C52.1376 11.5058 52.2025 11.4085 52.2842 11.3267C52.366 11.2448 52.463 11.1798 52.5698 11.1355C52.6766 11.0912 52.7911 11.0684 52.9067 11.0684Z" fill="#36E7FF"/>
<path d="M44.393 9.20508C44.5679 9.20454 44.739 9.25603 44.8847 9.35303C45.0303 9.45002 45.1439 9.58814 45.2111 9.7499C45.2783 9.91166 45.296 10.0898 45.262 10.2616C45.2281 10.4335 45.1439 10.5914 45.0202 10.7153C44.8966 10.8391 44.739 10.9235 44.5674 10.9575C44.3958 10.9916 44.2181 10.9738 44.0566 10.9065C43.8951 10.8392 43.7572 10.7254 43.6604 10.5795C43.5636 10.4336 43.5122 10.2622 43.5127 10.087C43.5127 9.97115 43.5355 9.85648 43.5797 9.74948C43.624 9.64249 43.6888 9.54527 43.7705 9.46338C43.8523 9.38149 43.9493 9.31652 44.0561 9.2722C44.1629 9.22789 44.2774 9.20508 44.393 9.20508Z" fill="#36E7FF"/>
<path d="M2.81002 1.26562C2.98413 1.26562 3.15434 1.31734 3.29911 1.41424C3.44388 1.51115 3.55671 1.64888 3.62334 1.81002C3.68997 1.97117 3.7074 2.14848 3.67343 2.31955C3.63946 2.49061 3.55563 2.64774 3.43251 2.77107C3.30939 2.89441 3.15253 2.9784 2.98177 3.01243C2.811 3.04646 2.63399 3.02899 2.47313 2.96225C2.31227 2.8955 2.17479 2.78246 2.07805 2.63744C1.98132 2.49241 1.92969 2.32191 1.92969 2.14749C1.92969 1.9136 2.02244 1.68931 2.18753 1.52392C2.35262 1.35854 2.57654 1.26563 2.81002 1.26562Z" fill="#36E7FF"/>
<path d="M10.1401 10.3828C10.3142 10.3828 10.4844 10.4345 10.6292 10.5314C10.774 10.6283 10.8868 10.7661 10.9534 10.9272C11.02 11.0884 11.0375 11.2657 11.0035 11.4367C10.9695 11.6078 10.8857 11.7649 10.7626 11.8883C10.6395 12.0116 10.4826 12.0956 10.3118 12.1296C10.1411 12.1637 9.96407 12.1462 9.80321 12.0794C9.64235 12.0127 9.50486 11.8997 9.40813 11.7546C9.3114 11.6096 9.25977 11.4391 9.25977 11.2647C9.25977 11.1489 9.28254 11.0342 9.32678 10.9272C9.37102 10.8202 9.43586 10.723 9.51761 10.6411C9.59935 10.5592 9.6964 10.4943 9.80321 10.4499C9.91001 10.4056 10.0245 10.3828 10.1401 10.3828Z" fill="#36E7FF"/>
</svg>
