<svg width="42" height="55" viewBox="0 0 42 55" fill="none" xmlns="http://www.w3.org/2000/svg">
<g clip-path="url(#clip0_1_1873)">
<path d="M0.327519 55.0001C0.219672 54.7691 0.0269853 54.5409 0.0183575 54.3056C-0.0161536 53.34 0.0111679 52.373 0.00110214 51.4074C0.00110214 50.9067 0.2283 50.69 0.720083 50.7001C1.43187 50.713 2.1451 50.7001 2.90866 50.7001C2.90866 49.8392 2.90866 49.0458 2.90866 48.2452C2.90866 47.6369 3.06684 47.4819 3.66934 47.4776C4.56663 47.4776 5.46392 47.4618 6.35977 47.4848C6.7092 47.4934 6.88607 47.4073 7.02842 47.0544C9.84683 40.0413 12.6748 33.032 15.5124 26.0266C16.2314 24.2561 16.959 22.4928 17.7024 20.6735C17.6268 20.6529 17.55 20.6371 17.4723 20.6261C16.3651 20.5817 16.3637 20.5817 16.3651 19.5013C16.3651 18.9991 16.3651 18.497 16.3651 17.9977C16.3651 17.6361 16.5549 17.4151 16.9202 17.4065C17.5428 17.3922 18.1669 17.4065 18.814 17.4065V18.4611H17.4709V19.5271H24.5069V18.4797H21.3592C20.5755 18.4797 20.4633 18.3664 20.4619 17.5773C20.4619 16.4295 20.4619 15.2817 20.4619 14.1339C20.4619 13.8469 20.4274 13.6647 20.1225 13.5054C19.7587 13.3217 19.4706 13.0171 19.3076 12.6442C19.1446 12.2713 19.117 11.8534 19.2295 11.4623C19.3312 11.0692 19.5616 10.7213 19.8842 10.4739C20.2067 10.2264 20.6029 10.0936 21.0098 10.0966C21.4166 10.0996 21.8108 10.2381 22.1297 10.4903C22.4486 10.7424 22.6739 11.0936 22.7698 11.4882C22.9783 12.283 22.6131 13.0736 21.8553 13.5384C21.7115 13.6231 21.5518 13.8067 21.549 13.9473C21.5231 15.0722 21.5346 16.1985 21.5346 17.3994H23.6369C24.1028 17.3994 24.5701 17.3994 25.036 17.3994C25.3984 17.4065 25.6112 17.5988 25.6198 17.9618C25.6333 18.6591 25.6333 19.3568 25.6198 20.0551C25.6126 20.4181 25.3955 20.606 25.0332 20.6161C24.8016 20.6161 24.5716 20.6161 24.2725 20.6161C24.3573 20.8485 24.4163 21.0293 24.4896 21.2058C27.9954 29.8674 31.4824 38.5376 35.0299 47.1849C35.4972 48.3241 35.2384 48.6096 34.1024 48.5451C33.3158 48.502 32.5206 48.5451 31.7355 48.5451C31.6871 48.5502 31.6391 48.5583 31.5917 48.5695V50.6542H37.9647V48.558H36.9582V47.4819C37.5003 47.4819 38.0496 47.4575 38.596 47.4905C38.9699 47.5135 39.0849 47.7961 39.0835 48.1405C39.0835 48.9769 39.0835 49.8134 39.0835 50.7044C39.8456 50.7044 40.5574 50.713 41.2706 50.7044C41.7638 50.6972 41.9982 50.911 41.9896 51.4117C41.981 52.3773 42.0083 53.3443 41.9723 54.3099C41.9637 54.5452 41.7725 54.7734 41.6646 55.0044L0.327519 55.0001ZM32.6515 47.4819C32.4617 47.3499 32.397 47.2983 32.3265 47.2581C28.6539 45.2035 24.9776 43.1533 21.2973 41.1073C21.1903 41.0672 21.076 41.0503 20.9619 41.0578C20.8479 41.0652 20.7367 41.0967 20.6359 41.1503C17.0314 43.1456 13.4331 45.1543 9.84108 47.1763C9.71454 47.2466 9.5995 47.3384 9.43126 47.4532C9.54917 47.4719 9.58368 47.4834 9.61963 47.4834H10.642C11.397 47.4834 11.5235 47.6082 11.5249 48.3442C11.5249 49.1247 11.5249 49.9038 11.5249 50.6757H30.4758C30.4758 49.8292 30.4758 49.0099 30.4758 48.1907C30.4686 47.6943 30.6944 47.4661 31.1948 47.4733C31.6276 47.4905 32.0677 47.4819 32.6515 47.4819ZM40.8752 53.9168V51.8135H1.12415V53.9168H40.8752ZM28.6525 35.4084C26.1548 33.7183 23.7131 32.0583 21.2571 30.4227C21.1611 30.3822 21.057 30.3644 20.953 30.3706C20.849 30.3769 20.7479 30.4069 20.6574 30.4585C19.4438 31.2505 18.2488 32.0712 17.0496 32.8847L13.354 35.3898C13.4211 35.4453 13.4911 35.497 13.564 35.5447C15.938 36.8705 18.3092 38.2033 20.6934 39.5061C20.8098 39.5492 20.934 39.5672 21.0579 39.5591C21.1818 39.5509 21.3026 39.5167 21.4124 39.4588C23.4845 38.3253 25.5422 37.1631 27.6028 36.0153C27.9479 35.8231 28.2758 35.6208 28.6554 35.4084H28.6525ZM19.9097 40.3139L12.5761 36.2133C11.1482 39.7457 9.75192 43.1992 8.35423 46.6512L8.4405 46.7258L19.9097 40.3139ZM22.1083 40.3139L33.7098 46.7961C32.2445 43.1791 30.8425 39.7185 29.4247 36.2219L22.1083 40.3139ZM16.9317 26.1786L19.9255 28.2088C20.9925 28.9262 20.9925 28.9262 22.0479 28.2088L25.0547 26.1657L21.0011 22.8242L16.9317 26.1786ZM25.7032 27.028L21.9458 29.5747L28.3793 33.9278L28.4713 33.8517C27.5496 31.592 26.635 29.3322 25.7032 27.0295V27.028ZM16.2875 27.0352C15.3571 29.3308 14.4411 31.5977 13.5266 33.8603L13.6229 33.9177L20.0391 29.5733L16.2875 27.0352ZM4.02021 48.5652V50.6671H10.4048V48.5652H4.02021ZM17.4263 24.2245L17.5227 24.2962C18.3855 23.5789 19.2554 22.8615 20.1527 22.1255L18.7449 20.9647C18.2862 22.0968 17.8563 23.1613 17.4263 24.2245ZM24.4723 24.2919L24.5529 24.2015L23.2357 20.9733L21.8581 22.1341L24.4723 24.2919ZM20.9882 11.1797C20.84 11.182 20.6958 11.2281 20.5738 11.3122C20.4519 11.3963 20.3577 11.5145 20.3032 11.6521C20.2486 11.7896 20.2362 11.9402 20.2674 12.0847C20.2987 12.2293 20.3722 12.3614 20.4787 12.4642C20.5853 12.5671 20.72 12.6361 20.8658 12.6626C21.0116 12.689 21.162 12.6717 21.298 12.6128C21.434 12.5539 21.5494 12.4561 21.6297 12.3318C21.7099 12.2075 21.7514 12.0622 21.7488 11.9143C21.7432 11.717 21.6605 11.5297 21.5184 11.3925C21.3762 11.2552 21.186 11.1789 20.9882 11.1797ZM21.9185 20.6692H20.088L20.9997 21.4239L21.9185 20.6692Z" fill="#36E7FF"/>
<path d="M13.2606 19.6046L12.5618 20.3219C8.3097 16.2917 7.57921 8.82378 12.2526 3.82222C13.3447 2.64198 14.6655 1.69501 16.1349 1.03856C17.6043 0.382108 19.1918 0.0298221 20.8016 0.00299915C22.4113 -0.0238238 24.0098 0.275374 25.5004 0.882502C26.9909 1.48963 28.3426 2.39207 29.4736 3.53527C34.3411 8.44214 33.868 16.0449 29.4866 20.2889L28.7676 19.5386C31.2006 16.956 32.2733 13.844 31.7355 10.2528C31.3329 7.5655 30.0402 5.32872 27.9408 3.59266C25.9128 1.91351 23.3434 1.02506 20.709 1.09208C18.0746 1.15909 15.5539 2.17701 13.6143 3.95709C9.46007 7.7635 8.63036 14.9258 13.2606 19.6046Z" fill="#36E7FF"/>
<path d="M26.7603 17.636L26.0615 16.9187C29.2509 13.4752 28.3248 8.8998 25.6675 6.60562C24.3304 5.43882 22.6029 4.81562 20.8271 4.85946C19.0513 4.90331 17.3568 5.61099 16.0791 6.84236C13.521 9.28144 12.9401 13.7019 15.9469 16.9072L15.1732 17.5456C12.6899 15.4064 11.6258 10.3561 14.7907 6.6501C15.52 5.79008 16.4208 5.091 17.4358 4.59737C18.4507 4.10373 19.5575 3.82635 20.6858 3.7829C21.814 3.73944 22.939 3.93085 23.989 4.34495C25.0391 4.75904 25.9912 5.38675 26.7848 6.18811C30.2848 9.73052 29.6118 14.9932 26.7603 17.636Z" fill="#36E7FF"/>
<path d="M24.1028 15.0534L23.3968 14.2901C24.1158 13.4565 24.4853 12.4838 24.2826 11.3475C24.1424 10.5268 23.6966 9.78932 23.0344 9.28284C22.3974 8.79115 21.6046 8.5439 20.8003 8.58602C19.996 8.62815 19.2335 8.95686 18.6515 9.5124C17.6018 10.5067 17.0453 12.4881 18.5667 14.3102L17.8952 15.0276C16.2156 13.6402 16.1207 10.7678 17.6636 9.01167C18.0556 8.56741 18.5331 8.20624 19.0677 7.94962C19.6022 7.693 20.183 7.54614 20.7756 7.51777C21.3681 7.4894 21.9603 7.5801 22.5171 7.78447C23.0738 7.98884 23.5837 8.30273 24.0166 8.7075C25.8327 10.3876 25.8974 13.227 24.1028 15.0534Z" fill="#36E7FF"/>
</g>
<defs>
<clipPath id="clip0_1_1873">
<rect width="42" height="55" fill="white" transform="translate(-0.000244141)"/>
</clipPath>
</defs>
</svg>
