<svg width="60" height="70" viewBox="0 0 60 70" fill="none" xmlns="http://www.w3.org/2000/svg">
<g clip-path="url(#clip0_189_7841)">
<path d="M25.8847 39.2707C21.3938 40.9254 17.7212 35.9952 17.9257 32.5533C17.9257 32.3828 17.9558 32.2103 17.9779 31.9776C15.1116 31.7289 13.3445 30.0741 12.3858 27.5288C11.427 24.9834 11.6918 22.6126 13.6173 20.4885C11.9465 18.3001 11.4109 15.833 12.137 13.1593C12.8852 10.3793 14.5981 8.63224 17.6309 8.37349C17.9057 4.76307 19.6868 2.13149 23.0245 0.719412C26.4764 -0.740802 29.4891 0.0414549 31.9282 2.88767C36.9286 -0.149095 41.8127 2.4123 42.3121 7.70156C44.7191 7.01157 47.0698 7.08378 49.212 8.50387C51.4084 9.96208 52.2388 12.0802 51.988 14.6998C54.5735 15.4138 55.8893 17.1909 56.0558 19.7624C56.2223 22.3338 55.077 24.2453 52.8325 25.4829C52.8325 25.5491 52.8124 25.6132 52.8325 25.6413C55.0388 28.285 53.691 31.2996 51.5267 32.79C50.8952 33.1927 50.216 33.5155 49.5049 33.7507C49.1559 33.8771 48.9553 33.9734 48.9212 34.3765C48.7066 36.8517 47.1501 38.1875 44.9096 38.7311C43.3932 39.0941 41.8067 39.1543 40.2081 39.3549C40.2081 41.1922 40.178 43.1659 40.2181 45.1276C40.2502 46.6279 40.3525 48.1362 40.4608 49.6245C40.5069 50.2503 40.2442 50.6555 39.7046 50.8581C38.4764 51.3305 37.1232 51.3666 35.8715 50.9604C35.1635 50.7378 34.9669 50.2082 35.003 49.4921C35.1294 46.8445 35.2397 44.1949 35.3119 41.5452C35.2993 40.7668 35.2471 39.9896 35.1555 39.2165H30.6725C30.6725 39.3629 30.6725 39.6177 30.6725 39.8945C30.7688 43.069 30.8651 46.2455 30.9614 49.424C30.9935 50.483 30.6826 51.0286 29.6556 51.191C28.6728 51.3348 27.6738 51.3281 26.6931 51.171C25.7202 51.0125 25.4314 50.3968 25.4735 49.4079C25.62 46.0643 25.7463 42.7146 25.8847 39.2707ZM30.9654 29.1856C31.5029 28.7202 32.0064 28.2749 32.5219 27.8397C33.0795 27.3703 33.6291 27.3402 33.97 27.7775C34.4073 28.3391 34.1706 28.7944 33.7013 29.2036C32.8468 29.9377 31.9843 30.6658 31.1619 31.4361C30.9361 31.6524 30.7941 31.9415 30.7608 32.2524C30.6946 33.7026 30.7026 35.1548 30.6485 36.605C30.6324 37.0563 30.823 37.1927 31.2221 37.303C34.2148 38.1334 37.8011 36.7013 39.3556 34.0115C40.0115 32.8762 40.2261 31.6808 39.8209 30.4011C39.4459 29.2277 39.841 28.7724 41.1006 28.9248C42.3041 29.0692 43.2207 28.4695 43.5577 27.3202C44.2337 25.0195 42.7674 21.9687 40.539 21.1022C40.0516 20.9117 39.6585 20.683 39.7026 20.0993C39.7487 19.4976 40.18 19.297 40.7356 19.2188C41.1356 19.1726 41.5199 19.0364 41.8597 18.8203C42.1995 18.6042 42.4858 18.3139 42.6972 17.9712C43.7864 16.2282 42.978 13.0891 40.3384 12.8705C39.1971 12.7762 38.9946 12.2226 39.506 11.1636C39.8831 10.4309 40.1694 9.65491 40.3585 8.85288C40.88 6.32759 39.482 4.02094 37.1492 3.52551C35.5446 3.18252 34.0744 3.63181 32.7365 4.55247C31.533 5.38888 31.4448 5.37083 30.5482 4.15131C29.459 2.67104 28.0149 1.82861 26.1475 1.81257C22.4628 1.78449 19.386 5.04589 19.4742 8.86491C19.5023 10.0343 19.2596 10.289 18.0822 10.2148C16.277 10.1025 15.0615 10.9469 14.2712 12.4834C13.685 13.6552 13.4791 14.9807 13.6823 16.2751C13.8855 17.5695 14.4875 18.7683 15.4045 19.7042C16.0624 20.3741 16.0684 20.8214 15.3644 21.381C13.8119 22.6146 13.4027 24.2252 13.8119 26.0806C14.3574 28.5517 16.4194 30.7581 19.0711 29.9277C19.8132 29.695 20.3106 30.3289 20.1101 31.1071C20.0719 31.2495 20.0017 31.3859 19.9536 31.5283C19.0931 34.0456 21.0026 37.311 23.6202 37.7984C24.8778 38.0331 25.8165 37.2609 25.7965 35.9932C25.7624 33.8149 25.7343 31.6386 25.6661 29.4624C25.6396 29.1253 25.5101 28.8046 25.295 28.5437C24.4044 27.4626 23.4738 26.4136 22.5571 25.3525C21.9774 24.6785 21.9173 24.1952 22.3565 23.788C22.7958 23.3808 23.3233 23.4991 23.9371 24.1891C24.4385 24.7548 24.94 25.3244 25.5016 25.9663C25.5016 24.8952 25.5016 23.9745 25.5016 23.0518C25.5016 22.5023 25.4314 21.9507 25.4454 21.4031C25.4595 20.8555 25.7884 20.4985 26.3501 20.5045C26.8655 20.5045 27.1825 20.8114 27.2206 21.3489C27.2527 21.7982 27.2848 22.2475 27.2988 22.6968C27.5555 31.2014 27.8263 39.7059 27.3429 48.2125C27.2607 49.6687 27.3991 49.7669 28.8753 49.5343C28.9605 49.507 29.0426 49.4707 29.1201 49.426C29.1201 49.1933 29.1321 48.9466 29.1201 48.7019C28.6988 41.1982 28.8092 33.6946 29.1481 26.1929C29.1862 25.3405 29.5092 24.9172 30.1149 24.9473C30.7207 24.9774 30.9614 25.3786 30.9574 26.2029C30.9614 27.1778 30.9654 28.1466 30.9654 29.1856ZM41.7826 30.8464C41.9691 32.4349 41.582 33.835 40.8078 35.1889C40.4608 35.7906 40.3725 36.5568 40.1419 37.3371C41.9792 37.4675 43.5677 37.4113 45.0901 36.8035C46.6125 36.1958 47.2343 35.1728 47.0959 33.512C47.0097 32.5372 47.2504 32.2484 48.2212 32.1521C48.8353 32.1082 49.4338 31.9389 49.98 31.6546C50.5261 31.3704 51.0081 30.9772 51.3963 30.4993C52.4835 29.1695 52.3752 27.6491 51.1235 26.4878C50.923 26.3012 50.6883 26.1508 50.4857 25.9663C49.898 25.4347 50.0023 24.7227 50.7184 24.3957C51.0594 24.2413 51.4284 24.147 51.7674 23.9946C53.5024 23.1742 54.403 21.6799 54.2867 19.8506C54.1703 18.0213 52.8726 16.5692 51.3181 16.531C49.9963 16.4989 49.7676 16.2061 50.0785 14.9384C50.6963 12.4152 49.3364 9.97612 46.8051 9.3784C45.8022 9.13971 44.6769 9.25805 43.6139 9.31421C42.4365 9.37438 41.6663 9.96208 41.6281 11.2458C45.5194 12.6799 46.1693 18.0414 42.8737 20.4122C43.9802 21.3316 44.7875 22.56 45.1924 23.9404C46.2254 27.3162 45.0039 29.8415 41.7826 30.8464ZM38.5332 49.3317C38.443 45.4204 38.3547 41.5893 38.2665 37.7322C38.0616 37.8821 37.8402 38.008 37.6065 38.1073C36.9807 38.3079 36.9366 38.697 36.9527 39.2987C37.0188 41.796 37.0148 44.2932 37.0048 46.7904C37.0048 47.6308 36.9065 48.4732 36.8504 49.3317H38.5332Z" fill="#36E7FF"/>
<path d="M49.7155 50.2193C48.8069 50.0067 47.9103 49.7479 46.9917 49.5955C46.2468 49.496 45.4966 49.4418 44.7452 49.433C44.1294 49.4069 43.7002 49.1662 43.7102 48.5103C43.7202 47.8544 44.1695 47.5576 44.7733 47.6378C46.43 47.8565 48.0969 48.039 49.7256 48.4C50.6643 48.6006 51.5809 49.1702 51.6431 50.2654C51.7053 51.3606 50.8267 51.9242 49.9482 52.3514C48.0948 53.252 46.085 53.6351 44.0652 53.7655C38.4149 54.1286 32.7566 54.3933 27.1003 54.6761C21.3457 54.965 15.585 55.2257 9.93473 56.4934C7.78051 56.9748 5.6624 57.5865 3.81306 58.8662C2.64569 59.6685 1.80727 60.7196 1.80727 62.2019C1.80727 64.679 2.74397 66.7249 4.83601 68.1651C4.87813 68.1931 4.92226 68.2152 4.96438 68.2413C5.47987 68.5682 5.72458 69.0015 5.36554 69.5631C5.0065 70.1247 4.50505 70.0946 3.99558 69.7637C1.715 68.2774 0.467406 66.1673 0.0762772 63.4856C-0.294794 60.9402 0.557662 58.9404 2.65371 57.5163C3.60754 56.874 4.62767 56.336 5.6965 55.9117C8.66491 54.7516 11.7907 54.0437 14.9693 53.8116C20.5594 53.3503 26.1676 53.0875 31.7677 52.7245C36.1664 52.4397 40.5691 52.1749 44.9598 51.8018C46.2154 51.6935 47.445 51.2482 48.6765 50.9253C49.023 50.8036 49.3585 50.6526 49.6794 50.474L49.7155 50.2193Z" fill="#36E7FF"/>
<path d="M22.9402 68.6509C20.8582 68.6148 18.5114 65.8789 18.9046 63.6745C19.1312 62.4069 19.9676 61.6066 21.0267 61.0088C22.6313 60.1082 24.3924 59.7532 26.1836 59.4944C32.4517 58.5898 38.7378 57.7915 44.9798 56.7385C47.7759 56.2651 50.5098 55.3605 53.2196 54.492C54.387 54.1189 55.452 53.3808 56.5091 52.7249C56.9806 52.4009 57.3885 51.9929 57.7126 51.5214C58.1899 50.8736 58.1237 50.318 57.4157 49.9449C56.5407 49.4686 55.6076 49.1079 54.6397 48.8718C53.3761 48.585 52.0683 48.4947 50.7766 48.3262C49.9742 48.2199 49.5731 47.887 49.6252 47.3233C49.6754 46.7216 50.1548 46.4207 50.9872 46.5391C52.6459 46.7758 54.3067 47.0044 55.9455 47.3414C56.7 47.5207 57.4221 47.8164 58.0856 48.2179C59.939 49.279 60.292 50.8896 59.0745 52.6427C57.9432 54.2734 56.2463 55.1519 54.4913 55.9181C51.0975 57.4004 47.5192 58.287 43.8827 58.8566C38.7639 59.6589 33.615 60.2607 28.4862 61.0088C26.7071 61.2656 24.94 61.6286 23.1929 62.0498C22.5206 62.2445 21.8924 62.5681 21.3436 63.0026C20.4972 63.6224 20.4009 64.4347 21.0006 65.3052C21.5723 66.1336 22.3204 66.7273 23.3674 66.8717C23.9511 66.952 24.2801 67.297 24.1978 67.9047C24.1276 68.4744 23.7205 68.6749 22.9402 68.6509Z" fill="#36E7FF"/>
</g>
<defs>
<clipPath id="clip0_189_7841">
<rect width="59.7945" height="70" fill="white"/>
</clipPath>
</defs>
</svg>
