<svg width="62" height="52" viewBox="0 0 62 52" fill="none" xmlns="http://www.w3.org/2000/svg">
<g clip-path="url(#clip0_47_5595)">
<path d="M0 47.0065C0.484375 45.7919 1.40469 45.3108 2.70766 45.4149C3.12422 45.4496 3.54401 45.4149 3.99933 45.4149C3.99933 44.0616 4.01063 42.7839 3.9848 41.5079C3.9848 41.3501 3.82334 41.1624 3.68287 41.0457C2.74157 40.2429 1.7841 39.4589 0.837959 38.6608C0.0726468 38.0172 -0.0548994 37.462 0.369736 36.5692C1.39823 34.4146 2.44286 32.2663 3.46489 30.1022C3.7539 29.4902 4.19954 29.1037 4.89219 29.0927C5.61714 29.0816 6.08375 29.4807 6.37922 30.1116C6.85712 31.1781 7.40284 32.2143 8.01318 33.2142V13.5512C8.01318 11.8067 8.79947 11.048 10.6062 11.048C11.0906 11.048 11.5749 11.0306 12.0593 11.0574C12.6406 11.0921 12.978 11.4502 12.9619 11.9612C12.9457 12.4723 12.626 12.7736 12.0593 12.8035C11.4926 12.8335 10.9291 12.8256 10.3656 12.8161C9.9765 12.8161 9.80698 12.9739 9.82958 13.3509C9.82958 13.4676 9.82958 13.5859 9.82958 13.7042V45.3755H18.2254V42.7729C18.0187 42.7603 17.825 42.7382 17.6329 42.7366C16.4817 42.7366 15.3321 42.7445 14.1825 42.7366C12.7875 42.724 11.8946 41.8754 11.8882 40.5283C11.8731 38.0509 11.8731 35.5718 11.8882 33.0912C11.8882 31.7363 12.7697 30.9019 14.176 30.8829C15.5065 30.8703 16.8353 30.8829 18.2125 30.8829V27.3891C17.9848 27.3781 17.7701 27.3576 17.5554 27.3576C16.4058 27.3576 15.2546 27.3734 14.105 27.3497C12.773 27.3245 11.9011 26.4838 11.893 25.1935C11.8747 22.695 11.8747 20.1965 11.893 17.698C11.893 16.3778 12.7891 15.5244 14.1405 15.5071C15.4516 15.4913 16.7626 15.496 18.0736 15.4897C18.1108 15.4897 18.1463 15.4613 18.2222 15.4314V12.8193C17.7572 12.8193 17.2841 12.8193 16.8127 12.8193C16.5495 12.8193 16.2863 12.8272 16.0264 12.802C15.4968 12.7515 15.1432 12.3887 15.1496 11.9265C15.1513 11.6964 15.2462 11.4763 15.4135 11.3144C15.5808 11.1524 15.807 11.0617 16.0425 11.0622C16.7448 11.0338 17.4504 11.0622 18.2609 11.0622V10.3334C18.2609 7.67719 18.2609 5.02096 18.2609 2.36473C18.2609 0.787391 19.0569 0.00976562 20.6828 0.00976562H41.3269C42.9414 0.00976562 43.7487 0.787397 43.7487 2.36158C43.7487 5.01781 43.7487 7.67403 43.7487 10.3303V11.0558H44.5108C46.852 11.0558 49.1926 11.0558 51.5327 11.0558C53.1634 11.0558 53.9825 11.8561 53.99 13.4565C53.99 14.4787 53.9981 15.5071 53.99 16.526C53.99 17.2169 53.6364 17.6144 53.073 17.6144C52.5095 17.6144 52.1833 17.2232 52.1785 16.5103C52.172 15.4682 52.172 14.4256 52.1785 13.3824C52.1785 13.0338 52.0848 12.8161 51.6731 12.8177C49.1108 12.8256 46.5484 12.8177 43.9861 12.8288C43.9165 12.8417 43.8491 12.864 43.7859 12.895V15.4692C43.999 15.4818 44.2105 15.5024 44.422 15.5024C45.5716 15.5024 46.7228 15.4929 47.8724 15.5024C49.2222 15.5197 50.1086 16.3762 50.1167 17.6964C50.1328 20.176 50.1328 22.655 50.1167 25.1336C50.1167 26.4964 49.2448 27.3308 47.8369 27.3418C46.5081 27.3576 45.1793 27.3418 43.8004 27.3418V30.834C44.0168 30.8467 44.2299 30.8672 44.4463 30.8672C45.5555 30.8672 46.6663 30.8672 47.7755 30.8672C49.2577 30.8782 50.1151 31.7016 50.1199 33.137C50.1296 35.5766 50.1296 38.0162 50.1199 40.4558C50.1199 41.8486 49.2383 42.7035 47.8175 42.7145C46.4887 42.7271 45.1599 42.7145 43.7923 42.7145V45.3629H52.1769V21.0735C52.1769 20.1444 52.4449 19.7407 53.0633 19.7343C53.6817 19.728 53.9933 20.1555 53.9933 21.1066V33.3499C54.0955 33.2248 54.1888 33.0931 54.2726 32.9556C54.7376 31.9965 55.2042 31.0391 55.6563 30.0738C55.9453 29.4586 56.4184 29.0974 57.1094 29.1053C57.7746 29.1132 58.2316 29.4681 58.5125 30.0612C59.5555 32.2521 60.6115 34.4383 61.6561 36.6308C62.05 37.462 61.9241 38.0235 61.2137 38.6277C60.2562 39.4431 59.2762 40.2365 58.322 41.052C58.1831 41.1703 58.0217 41.3564 58.02 41.5142C57.9942 42.7902 58.0055 44.0679 58.0055 45.4149C59.57 45.4465 61.3009 45.0711 62.0113 47.0065V50.4309C61.4995 51.617 60.5824 52.0082 59.2778 51.9987C45.5571 51.9682 31.8331 51.9619 18.1059 51.9798C17.8841 51.9882 17.662 51.984 17.4407 51.9672C17.3288 51.9637 17.2186 51.9386 17.1167 51.8932C17.0147 51.8479 16.923 51.7832 16.8469 51.7029C16.7707 51.6227 16.7116 51.5284 16.673 51.4257C16.6345 51.3229 16.6172 51.2137 16.6221 51.1044C16.6124 50.6312 16.9031 50.3299 17.3729 50.2353C17.6126 50.2039 17.8549 50.1954 18.0962 50.21H59.2003C59.3811 50.21 59.5894 50.2621 59.738 50.1943C59.9139 50.1122 60.1561 49.9308 60.1658 49.781C60.2078 49.0544 60.2078 48.3261 60.1658 47.5995C60.1658 47.4592 59.9333 47.2841 59.767 47.2115C59.6007 47.139 59.4118 47.1926 59.2294 47.1926H2.74479C2.6237 47.1926 2.50099 47.1926 2.38151 47.1926C1.97786 47.1689 1.78895 47.3267 1.80671 47.7447C1.84223 48.3141 1.84223 48.8851 1.80671 49.4545C1.75504 50.0523 1.96818 50.229 2.58657 50.2242C6.09828 50.1974 9.60839 50.21 13.1201 50.2132C13.3397 50.2132 13.6287 50.1627 13.7659 50.2747C14.0307 50.4939 14.3585 50.7999 14.3827 51.0918C14.4037 51.3536 14.0969 51.6959 13.8483 51.9041C13.7014 52.0287 13.3865 51.9798 13.1459 51.9798C9.67459 51.9798 6.20324 51.9451 2.7335 52.0019C1.42891 52.0224 0.510208 51.6217 0 50.4324V47.0065ZM20.0773 45.3786H25.3812V37.8926C24.7645 37.6055 24.1703 37.4399 23.7215 37.0945C22.982 36.5235 22.7672 34.8578 23.2161 33.8294C23.644 32.8499 24.4642 32.5265 25.5072 32.5313C29.161 32.5439 32.8132 32.5313 36.4654 32.5313C36.667 32.5275 36.8687 32.5365 37.0692 32.5581C38.2785 32.7048 38.9551 33.566 38.9599 34.9556C38.9599 36.615 38.3512 37.503 37.0805 37.6671C36.9287 37.6876 36.777 37.7033 36.6268 37.7207V45.3613H41.921V44.784C41.921 30.6931 41.9253 16.6023 41.9339 2.51143C41.9339 1.91835 41.7725 1.74326 41.1525 1.74483C34.4116 1.76534 27.6723 1.75746 20.9315 1.75746C20.079 1.75746 20.0773 1.75746 20.0773 2.60606V45.3645V45.3786ZM4.92125 31.2836C3.96541 33.2789 3.05317 35.1749 2.15708 37.0787C2.13372 37.1444 2.12709 37.2146 2.13779 37.2833C2.14848 37.352 2.17616 37.4171 2.21844 37.473C3.10646 38.2349 4.01063 38.9794 4.92609 39.7413C5.82703 38.992 6.6763 38.268 7.54656 37.5708C7.82427 37.3484 7.74838 37.1576 7.62729 36.9099C7.09932 35.8279 6.58266 34.7411 6.06277 33.6575L4.92125 31.2836ZM57.0723 39.7428C57.9377 39.0204 58.7644 38.3027 59.6249 37.626C59.9301 37.3863 59.9188 37.197 59.7654 36.8879C59.0857 35.5077 58.4285 34.1165 57.7633 32.73C57.547 32.2805 57.329 31.8325 57.0674 31.2883C56.0987 33.2947 55.1881 35.1922 54.2887 37.0976C54.2709 37.1667 54.2705 37.239 54.2877 37.3083C54.3048 37.3776 54.339 37.4417 54.3872 37.4951C55.2704 38.2428 56.1633 38.9762 57.0804 39.7381L57.0723 39.7428ZM27.2542 37.7175V45.3786H30.0571V37.7175H27.2542ZM34.741 37.7175H31.9122C31.9122 40.2003 31.9122 42.653 31.9268 45.1042C31.949 45.1777 31.9905 45.2443 32.0472 45.2974C32.1038 45.3505 32.1736 45.3883 32.2497 45.407C33.0715 45.4323 33.8949 45.4212 34.7458 45.4212L34.741 37.7175ZM30.9596 35.9162C32.7922 35.9162 34.6264 35.8941 36.4589 35.9288C37.0611 35.9399 37.1758 35.6844 37.1499 35.1875C37.1257 34.7316 37.229 34.2931 36.4799 34.2979C32.832 34.3252 29.1857 34.3252 25.5411 34.2979C24.8726 34.2979 24.8404 34.6228 24.8501 35.1086C24.8501 35.5676 24.821 35.9462 25.5201 35.9304C27.3333 35.8847 29.1465 35.9131 30.9596 35.9131V35.9162ZM18.227 17.2769C16.8417 17.2769 15.5323 17.2627 14.2229 17.2926C14.0501 17.2926 13.7385 17.5198 13.7385 17.6523C13.6965 18.6065 13.7159 19.5624 13.7159 20.5041H18.2367L18.227 17.2769ZM43.7907 17.2769V20.5183H48.2889C48.2889 19.5435 48.3051 18.605 48.2696 17.6665C48.2382 17.5749 48.1835 17.4927 48.1107 17.4276C48.0378 17.3625 47.9491 17.3166 47.853 17.2942C46.5081 17.2658 45.1615 17.2784 43.7907 17.2784V17.2769ZM18.2093 40.9605V37.7191H13.7078C13.7078 38.6734 13.6884 39.5946 13.7272 40.511C13.7541 40.6116 13.8067 40.704 13.8801 40.7793C13.9535 40.8546 14.0454 40.9105 14.147 40.9416C15.5 40.9747 16.8385 40.9605 18.2093 40.9605ZM48.2889 37.7191H43.7778V40.9605C45.1631 40.9605 46.5097 40.9732 47.8546 40.9432C47.9506 40.9204 48.0391 40.8742 48.1117 40.8088C48.1843 40.7434 48.2386 40.661 48.2696 40.5694C48.3051 39.6308 48.2889 38.6971 48.2889 37.7191ZM13.7078 22.3606C13.7078 23.307 13.7078 24.2282 13.7078 25.1446C13.7078 25.5247 13.9565 25.5878 14.2729 25.5863C14.9963 25.5863 15.726 25.5863 16.4445 25.5863H18.2206V22.3622L13.7078 22.3606ZM48.2889 22.3606H43.781V25.5831C45.1664 25.5831 46.5097 25.5941 47.853 25.5657C47.9484 25.5441 48.0367 25.4992 48.1096 25.4352C48.1824 25.3712 48.2374 25.2902 48.2696 25.1998C48.3051 24.2629 48.2889 23.3275 48.2889 22.359V22.3606ZM18.2286 32.6622C16.8127 32.6622 15.4499 32.6511 14.0872 32.678C14.0008 32.7031 13.9225 32.7496 13.8597 32.8128C13.7969 32.8761 13.7519 32.954 13.7288 33.0392C13.6965 33.9745 13.711 34.9115 13.711 35.8784H18.2319L18.2286 32.6622ZM43.7843 32.6543V35.8579H48.2938V34.2285C48.2938 32.6511 48.2938 32.6511 46.6663 32.6511L43.7843 32.6543ZM56.1746 45.3834C56.1746 44.0758 56.1746 42.806 56.1746 41.5363C56.1806 41.4397 56.1501 41.3443 56.089 41.2681C55.4254 40.6971 54.7537 40.1372 54.0143 39.5157V45.3834H56.1746ZM5.82541 45.3834H7.96312V39.5472C7.27853 40.1198 6.66177 40.623 6.05954 41.1435C5.93957 41.2411 5.85985 41.3778 5.83511 41.5284C5.8125 42.7981 5.82541 44.071 5.82541 45.3834Z" fill="#36E7FF"/>
<path d="M29.6792 8.08079C29.6792 8.65021 29.6792 9.2212 29.6792 9.79062C29.6582 10.9862 28.8477 11.8412 27.6142 11.8948C26.3806 11.9484 25.1148 11.9405 23.8667 11.8948C22.6187 11.849 21.8001 10.9815 21.7888 9.7433C21.7791 8.60236 21.7791 7.46248 21.7888 6.32364C21.8017 5.06177 22.6493 4.21159 23.9426 4.1832C25.131 4.15638 26.3225 4.15638 27.5109 4.1832C28.8316 4.21159 29.6663 5.07124 29.6808 6.37096C29.6841 6.94038 29.6792 7.5098 29.6792 8.08079ZM25.7267 10.1471C26.2692 10.1471 26.8134 10.1471 27.3559 10.1471C27.7014 10.1471 27.8693 10.0162 27.8661 9.65655C27.8548 8.57765 27.8564 7.49875 27.8661 6.42144C27.8661 6.09493 27.7175 5.94823 27.3962 5.94823C26.2902 5.94823 25.1826 5.94823 24.0766 5.94823C23.7085 5.94823 23.5923 6.12805 23.5923 6.4656C23.603 7.52451 23.603 8.58343 23.5923 9.64235C23.5923 9.99567 23.7424 10.1439 24.0944 10.1408C24.6401 10.1345 25.1875 10.1471 25.7267 10.1471Z" fill="#36E7FF"/>
<path d="M40.2162 8.07116C40.2162 8.64057 40.2242 9.20999 40.2162 9.78098C40.1952 10.9813 39.3927 11.8473 38.1608 11.8946C36.8933 11.9419 35.6194 11.9435 34.352 11.8946C33.1491 11.8441 32.3418 10.9782 32.3273 9.81569C32.3128 8.65319 32.3128 7.44968 32.3273 6.2793C32.3418 5.10891 33.1524 4.24611 34.3504 4.19879C35.6178 4.14832 36.8901 4.15147 38.1576 4.19879C39.383 4.24138 40.1952 5.11049 40.2162 6.30927C40.2242 6.8913 40.2162 7.48123 40.2162 8.07116ZM38.3998 8.05538C38.3998 7.52539 38.3901 6.99541 38.3998 6.467C38.4078 6.12945 38.29 5.94648 37.9154 5.94806C36.8078 5.94806 35.7018 5.94806 34.5958 5.94806C34.2729 5.94806 34.1211 6.08371 34.1243 6.4118C34.1243 7.48912 34.134 8.56802 34.1243 9.64691C34.1243 10.005 34.2858 10.1406 34.6329 10.139C35.7179 10.139 36.804 10.139 37.8912 10.139C38.2415 10.139 38.4046 9.99708 38.3933 9.64218C38.3885 9.11535 38.3998 8.58536 38.3998 8.05538Z" fill="#36E7FF"/>
<path d="M21.7855 26.2359C21.7855 25.6475 21.7742 25.0576 21.7855 24.4677C21.813 23.3036 22.6396 22.4581 23.8393 22.4282C25.1067 22.395 26.379 22.395 27.6465 22.4282C27.9145 22.4292 28.1797 22.482 28.4268 22.5835C28.6738 22.6851 28.8979 22.8334 29.0861 23.0198C29.2743 23.2063 29.4228 23.4273 29.5232 23.6701C29.6236 23.9129 29.6739 24.1727 29.6711 24.4345C29.6927 25.6522 29.6927 26.8705 29.6711 28.0892C29.6709 28.356 29.6169 28.6201 29.512 28.8665C29.4072 29.1128 29.2536 29.3365 29.0601 29.5248C28.8667 29.713 28.6371 29.8622 28.3845 29.9637C28.132 30.0651 27.8614 30.1169 27.5883 30.1161C26.3596 30.1382 25.1293 30.1366 23.9006 30.1161C23.6232 30.1199 23.3477 30.0695 23.0904 29.968C22.8331 29.8665 22.5991 29.7159 22.4021 29.5249C22.2052 29.334 22.0492 29.1065 21.9433 28.8559C21.8374 28.6054 21.7838 28.3367 21.7855 28.0656C21.7726 27.4504 21.7855 26.8415 21.7855 26.2359ZM27.8628 26.2895C27.8628 25.7595 27.8515 25.2279 27.8628 24.6964C27.8725 24.3572 27.7562 24.1806 27.3784 24.1837C26.2692 24.1916 25.16 24.1837 24.0508 24.1837C23.7182 24.1837 23.5858 24.3304 23.589 24.6569C23.5987 25.7374 23.589 26.8195 23.589 27.9015C23.589 28.2296 23.7392 28.3574 24.0653 28.3558C25.1552 28.3558 26.245 28.3447 27.3332 28.3558C27.732 28.3558 27.8709 28.1981 27.8564 27.8227C27.8483 27.3084 27.8628 26.7974 27.8628 26.2847V26.2895Z" fill="#36E7FF"/>
<path d="M40.2128 26.2686C40.2128 26.8775 40.229 27.4879 40.2128 28.0952C40.2092 28.6234 39.9947 29.1294 39.6151 29.5055C39.2355 29.8817 38.7206 30.0983 38.1801 30.1094C36.911 30.1399 35.6414 30.1399 34.3713 30.1094C33.8302 30.1045 33.3128 29.8917 32.931 29.5172C32.5491 29.1427 32.3334 28.6364 32.3304 28.1078C32.3078 26.8691 32.3078 25.6314 32.3304 24.3947C32.3293 23.8859 32.5309 23.3966 32.8925 23.0304C33.2541 22.6641 33.7474 22.4497 34.2679 22.4325C35.5973 22.3884 36.9271 22.3884 38.2576 22.4325C38.7765 22.45 39.2685 22.6625 39.631 23.0257C39.9935 23.389 40.1985 23.8749 40.2031 24.3821C40.2306 25.0099 40.2128 25.6393 40.2128 26.2686ZM38.3996 26.2686C38.3996 25.7371 38.3867 25.2055 38.3996 24.6755C38.4109 24.3174 38.2511 24.1818 37.8959 24.185C36.8077 24.1923 35.7184 24.1923 34.628 24.185C34.2728 24.185 34.1226 24.3222 34.1275 24.6787C34.142 25.7402 34.1404 26.8033 34.1275 27.8649C34.1275 28.2166 34.2679 28.3602 34.6296 28.357C35.72 28.3454 36.8093 28.3454 37.8975 28.357C38.2624 28.357 38.4045 28.2103 38.3964 27.8617C38.39 27.3254 38.3996 26.7939 38.3996 26.2623V26.2686Z" fill="#36E7FF"/>
<path d="M29.6792 17.16C29.6792 17.7499 29.6889 18.3398 29.6792 18.9282C29.655 20.1096 28.8009 20.9787 27.5803 21.0087C26.3597 21.0387 25.1213 21.0371 23.8926 21.0087C22.6639 20.9803 21.7936 20.1033 21.7936 18.8824C21.7807 17.7257 21.7807 16.5664 21.7936 15.4044C21.8065 14.1993 22.6138 13.3539 23.8571 13.3081C25.1003 13.2624 26.3564 13.264 27.6045 13.3081C28.8526 13.3523 29.6679 14.2056 29.6841 15.4517C29.6857 16.0196 29.6792 16.5906 29.6792 17.16ZM27.8628 17.1915C27.8628 16.6616 27.8483 16.1316 27.8628 15.6032C27.8774 15.2325 27.7418 15.0574 27.3478 15.0606C26.2612 15.0684 25.1762 15.0606 24.0896 15.0606C23.7392 15.0606 23.5858 15.2009 23.5907 15.5558C23.6036 16.6158 23.6036 17.6747 23.5907 18.7326C23.5907 19.0717 23.7053 19.2484 24.075 19.2452C25.181 19.2452 26.287 19.2452 27.393 19.2452C27.7159 19.2452 27.8677 19.1033 27.8612 18.7799C27.8548 18.2499 27.8612 17.7184 27.8628 17.1915Z" fill="#36E7FF"/>
<path d="M40.216 17.201C40.216 17.7704 40.2256 18.3414 40.216 18.9108C40.1934 20.1002 39.3538 20.974 38.1396 21.0071C36.891 21.0418 35.6413 21.0418 34.3905 21.0071C33.1812 20.9724 32.3384 20.0923 32.3255 18.9014C32.3126 17.7105 32.311 16.5433 32.3255 15.3634C32.3416 14.2214 33.1328 13.3665 34.3082 13.3129C35.616 13.2577 36.9303 13.2577 38.2365 13.3129C39.4103 13.3634 40.1885 14.2214 40.2127 15.3634C40.2257 15.9833 40.2143 16.5922 40.216 17.201ZM36.278 15.0621C35.7549 15.0621 35.2317 15.0732 34.7086 15.0621C34.313 15.0527 34.1209 15.1805 34.1306 15.6048C34.1516 16.6442 34.1467 17.6837 34.1306 18.7216C34.1306 19.0985 34.2711 19.2563 34.6586 19.2516C35.7253 19.2421 36.7914 19.2421 37.8571 19.2516C38.2316 19.2516 38.4092 19.1285 38.4028 18.7389C38.3888 17.6811 38.3888 16.6221 38.4028 15.5622C38.4028 15.2088 38.2575 15.0622 37.9055 15.0653C37.363 15.0685 36.8205 15.0637 36.278 15.0621Z" fill="#36E7FF"/>
</g>
<defs>
<clipPath id="clip0_47_5595">
<rect width="62" height="52" fill="white"/>
</clipPath>
</defs>
</svg>
