<svg width="56" height="55" viewBox="0 0 56 55" fill="none" xmlns="http://www.w3.org/2000/svg">
<g clip-path="url(#clip0_47_5615)">
<path d="M56 18.9063V21.377C55.5164 22.666 54.3842 22.6102 53.2929 22.5629V53.3887C53.8363 53.3887 54.3447 53.4145 54.8488 53.3815C55.3528 53.3486 55.7356 53.5004 56 53.9258V55H0.555181C0.184098 54.7351 -0.122703 54.4271 0.062839 53.9301C0.248381 53.4331 0.667671 53.3729 1.13518 53.3858C1.6582 53.4002 2.18123 53.3858 2.71448 53.3858V22.5615C2.33463 22.5615 1.984 22.5615 1.64798 22.5615C0.689587 22.5386 0.0409296 21.9141 0.0131714 20.9759C-0.00289917 20.403 -0.00582108 19.8301 0.0131714 19.2572C0.0423905 18.4852 0.566875 17.8134 1.32803 17.7705C2.61806 17.6989 3.91538 17.7175 5.20687 17.7504C5.65392 17.7619 5.92859 18.0899 5.91398 18.5539C5.89937 19.018 5.62179 19.2701 5.16597 19.3288C4.96574 19.3443 4.76472 19.3477 4.56406 19.3388H1.68889V20.9272H13.0069L12.5204 19.3388H11.9667C11.001 19.3388 10.0353 19.3388 9.06965 19.3388C8.48527 19.3388 8.1098 19.0051 8.1171 18.5267C8.12441 18.0483 8.49842 17.7447 9.09011 17.7304C9.29026 17.7304 9.49041 17.7304 9.69056 17.7304H12.1903C12.1523 16.9899 12.0851 16.3124 12.0938 15.6364C12.1031 14.9386 12.1519 14.2419 12.2399 13.5495C13.004 7.49092 17.5827 2.27165 23.6018 0.631677C24.6113 0.356677 25.6574 0.201986 26.6873 0.00146484H29.3171C29.4354 0.0395202 29.5558 0.0706121 29.6779 0.0945673C35.9323 0.919567 40.3049 4.19665 42.7842 9.87998C43.8682 12.3664 44.0991 14.9904 43.7879 17.7304H44.4015C47.5717 17.7304 50.742 17.7519 53.9123 17.7175C54.8955 17.7046 55.607 17.9953 56 18.9063ZM40.2217 25.6739C36.8761 29.3291 32.8657 31.2598 27.9949 31.2598C23.1241 31.2598 19.0991 29.3176 15.8134 25.7254V53.3686H21.9845V52.7571C21.9845 49.7301 21.9845 46.7047 21.9845 43.6806C21.9845 42.4288 22.5864 41.8186 23.8487 41.8186C26.6187 41.8129 29.3891 41.8129 32.1601 41.8186C33.3975 41.8186 34.0126 42.4331 34.0126 43.6362C34.0126 46.6985 34.0126 49.7598 34.0126 52.8201V53.373H40.2217V52.7728C40.2217 50.7848 40.2217 48.7973 40.2217 46.8102C40.2217 46.6498 40.2217 46.4879 40.2319 46.3275C40.2459 46.1395 40.3284 45.9628 40.4642 45.8294C40.6001 45.696 40.7803 45.6149 40.972 45.6009C41.1637 45.5868 41.3542 45.6407 41.5088 45.7528C41.6633 45.8649 41.7717 46.0277 41.8141 46.2115C41.8527 46.4039 41.8679 46.6 41.8594 46.7959C41.8594 48.8011 41.8594 50.8063 41.8594 52.8115C41.8594 52.9991 41.8755 53.1868 41.8828 53.3629H43.4986V52.747C43.4986 50.6702 43.4986 48.5934 43.4986 46.5166C43.4986 45.4996 43.9646 45.0485 45.0048 45.0413C46.1356 45.0337 47.2659 45.0337 48.3957 45.0413C49.49 45.0413 49.9633 45.5082 49.9648 46.5767C49.9648 48.6535 49.9648 50.7304 49.9648 52.8072V53.3686H51.5616V22.5744H42.8952C42.2203 22.5744 41.9018 22.878 41.8726 23.5612C41.8726 23.7045 41.8726 23.8477 41.8726 23.9909C41.8726 30.0428 41.8726 36.0938 41.8726 42.1438C41.8831 42.3756 41.8654 42.6078 41.8199 42.8356C41.7118 43.2653 41.4021 43.4572 40.9638 43.4185C40.7781 43.4143 40.601 43.3409 40.4685 43.2131C40.3361 43.0854 40.2583 42.913 40.2509 42.731C40.2331 42.5348 40.2277 42.3378 40.2348 42.1409V25.6739H40.2217ZM13.7213 15.6478C13.7279 19.3652 15.2396 22.928 17.9243 25.5533C20.6089 28.1786 24.2469 29.6515 28.0387 29.6485C35.8928 29.6284 42.3035 23.3049 42.2699 15.612C42.2378 7.85186 35.8256 1.58415 27.9525 1.60707C20.1043 1.63571 13.6994 7.95641 13.7257 15.6535L13.7213 15.6478ZM4.42818 22.5629V53.3486H6.03524C6.03524 51.0569 6.03524 48.8025 6.03524 46.5481C6.03524 45.5097 6.51297 45.037 7.56778 45.0313C8.67957 45.0241 9.79135 45.0313 10.9031 45.0313C12.0588 45.0313 12.5 45.461 12.5014 46.5796C12.5014 48.6383 12.5014 50.6965 12.5014 52.7542V53.3543H14.1406V23.8491C14.1472 23.7236 14.1472 23.5979 14.1406 23.4724C14.0793 22.8494 13.7681 22.5687 13.1413 22.5687H4.42818V22.5629ZM32.3471 53.3658V43.4558H23.6602V53.3658H32.3471ZM7.71534 46.6698V53.3472H10.8184V46.6698H7.71534ZM45.1758 46.6598V53.3586H48.2847V46.6598H45.1758ZM54.3345 19.3632H43.4781L42.9975 20.923H54.3301L54.3345 19.3632Z" fill="#36E7FF"/>
<path d="M23.1371 32.9527C24.0298 32.9527 24.9224 32.9441 25.815 32.9527C26.6741 32.9627 27.1591 33.3967 27.1737 34.2303C27.1981 35.7705 27.1981 37.3097 27.1737 38.848C27.1606 39.6701 26.6624 40.1371 25.8238 40.1485C24.019 40.1629 22.2172 40.1629 20.4183 40.1485C19.5914 40.1485 19.0917 39.6515 19.08 38.8308C19.0576 37.3097 19.0576 35.7882 19.08 34.2661C19.0917 33.4153 19.5899 32.9627 20.4665 32.9527C21.3431 32.9427 22.243 32.9527 23.1371 32.9527ZM25.5185 34.5984H20.7484V38.4971H25.5185V34.5984Z" fill="#36E7FF"/>
<path d="M32.8715 32.9525C33.7656 32.9525 34.6583 32.944 35.5509 32.9525C36.4436 32.9611 36.9242 33.4152 36.9374 34.2674C36.9578 35.7885 36.9578 37.3101 36.9374 38.8321C36.9242 39.6729 36.41 40.1455 35.5407 40.1512C33.7729 40.1627 32.0057 40.1627 30.2389 40.1512C29.3331 40.1512 28.8437 39.6815 28.832 38.7949C28.8135 37.291 28.8135 35.7875 28.832 34.2846C28.8437 33.3908 29.3229 32.9597 30.2491 32.9525C31.1228 32.9454 31.9979 32.9525 32.8715 32.9525ZM35.2544 38.5184V34.6083H30.5019V38.5184H35.2544Z" fill="#36E7FF"/>
<path d="M43.5058 27.7763C43.5058 27.0243 43.4971 26.2724 43.5058 25.5218C43.519 24.6625 43.9967 24.1798 44.8558 24.1712C46.1122 24.1597 47.3696 24.1597 48.628 24.1712C49.4432 24.1812 49.9574 24.6811 49.9662 25.4889C49.9818 27.01 49.9818 28.5316 49.9662 30.0536C49.9574 30.8715 49.4549 31.3599 48.6323 31.3685C47.3564 31.3818 46.0805 31.3818 44.8046 31.3685C43.9953 31.3599 43.538 30.8886 43.5044 30.0794C43.5044 30.0436 43.5044 30.0078 43.5044 29.972L43.5058 27.7763ZM48.2905 29.7399V25.814H45.1889V29.7457L48.2905 29.7399Z" fill="#36E7FF"/>
<path d="M43.5074 36.6153C43.5074 35.8447 43.4957 35.0756 43.5074 34.305C43.5235 33.4886 44.0085 33.0073 44.8427 32.9973C46.1001 32.982 47.3575 32.982 48.6149 32.9973C49.4389 33.0059 49.956 33.5 49.9648 34.305C49.9823 35.8433 49.9853 37.3844 49.9648 38.9227C49.9546 39.709 49.4447 40.1831 48.65 40.1917C47.374 40.2032 46.0986 40.2032 44.8237 40.1917C44.0056 40.1831 43.5337 39.7248 43.5088 38.9241C43.4942 38.155 43.5074 37.3844 43.5074 36.6153ZM48.3183 34.6387H45.189V38.5388H48.3183V34.6387Z" fill="#36E7FF"/>
<path d="M22.5836 8.67129C22.5836 8.18574 22.5836 7.66869 22.5836 7.15306C22.604 5.75944 23.4265 4.95306 24.8349 4.9502C26.9484 4.9502 29.0624 4.9502 31.1769 4.9502C32.559 4.9502 33.3917 5.75228 33.4209 7.09863C33.4326 7.63288 33.4209 8.16712 33.4209 8.77441H36.0288C36.3575 8.77441 36.6862 8.76439 37.0135 8.77441C37.5213 8.78755 38.0045 8.99187 38.3627 9.34497C38.721 9.69807 38.9268 10.1728 38.9375 10.6708C38.9624 12.3351 38.9536 13.9994 38.9375 15.6637C38.9453 15.9979 38.8582 16.3275 38.6858 16.6159C38.5135 16.9042 38.2627 17.1399 37.9616 17.2966C37.6344 17.4756 37.5628 17.6904 37.5672 18.0241C37.5803 19.5266 37.5774 21.032 37.5672 22.5344C37.5613 24.0689 36.7739 24.8357 35.2048 24.8347C30.3934 24.8347 25.5829 24.8347 20.7734 24.8347C19.2073 24.8347 18.4271 24.0656 18.4228 22.523C18.4228 21.0019 18.4228 19.4803 18.4228 17.9583C18.4228 17.6718 18.3672 17.4813 18.0692 17.3209C17.7504 17.1586 17.4851 16.9109 17.304 16.6067C17.123 16.3025 17.0337 15.9541 17.0465 15.6021C17.0465 13.9908 17.0319 12.3795 17.0465 10.7696C17.0582 9.60944 17.9012 8.79303 19.0919 8.77155C20.2022 8.7515 21.314 8.75579 22.4243 8.74863C22.4579 8.76295 22.4725 8.74433 22.5836 8.67129ZM32.0403 16.0089H36.8075C37.2268 16.0089 37.3144 15.7597 37.3129 15.4074C37.3129 13.9407 37.3027 12.474 37.3129 11.0074C37.3129 10.5777 37.1669 10.3872 36.714 10.3886C30.9042 10.3943 25.0949 10.3943 19.2862 10.3886C18.8771 10.3886 18.6872 10.5318 18.6901 10.9615C18.7018 12.4473 18.7018 13.9321 18.6901 15.416C18.6901 15.8542 18.8683 16.0247 19.3096 16.0189C20.4783 16.0046 21.6398 16.0189 22.8056 16.0189H23.9656C24.1775 14.6296 24.5164 14.3432 25.8649 14.3432H30.1411C31.4896 14.3346 31.8227 14.6167 32.0403 16.0089ZM23.9715 17.6417H20.1043C20.0926 17.8165 20.0722 17.974 20.0722 18.1301C20.0722 19.5968 20.0722 21.0635 20.0722 22.5301C20.0722 23.1661 20.1496 23.2377 20.8027 23.2377C25.6112 23.2377 30.4182 23.2377 35.2238 23.2377C35.8593 23.2377 35.9353 23.1589 35.9367 22.5215C35.9367 21.0549 35.9367 19.5882 35.9367 18.1216C35.9367 17.9669 35.9148 17.8122 35.9017 17.6561H32.0579C31.7379 19.1385 31.5013 19.3232 29.9629 19.3232C28.6159 19.3232 27.2684 19.3232 25.9204 19.3232C24.5237 19.3161 24.1833 19.0396 23.9715 17.6417ZM31.7788 8.76152C31.8018 8.17907 31.7945 7.59585 31.7569 7.01413C31.7206 6.90889 31.6578 6.81433 31.5743 6.73922C31.4908 6.66411 31.3893 6.61087 31.2792 6.58444C29.0985 6.55579 26.9168 6.55579 24.7341 6.58444C24.5705 6.58444 24.2797 6.78639 24.2695 6.91243C24.2213 7.52402 24.2476 8.14277 24.2476 8.77441L31.7788 8.76152ZM30.3179 16.0018H25.6998V17.6675H30.3106L30.3179 16.0018Z" fill="#36E7FF"/>
<path d="M12.5013 27.7979C12.5013 28.5499 12.513 29.3018 12.5013 30.0538C12.4853 30.9132 12.0134 31.3701 11.1324 31.3772C9.89256 31.3877 8.65317 31.3877 7.41427 31.3772C6.55523 31.3772 6.04975 30.8845 6.04099 30.0452C6.02638 28.5413 6.02638 27.0374 6.04099 25.5335C6.04099 24.6741 6.56253 24.1828 7.4508 24.1757C8.67216 24.168 9.89353 24.168 11.1149 24.1757C12.0119 24.1757 12.4897 24.654 12.5028 25.5406C12.5101 26.294 12.5013 27.046 12.5013 27.7979ZM7.70356 29.7372H10.8227V25.8271H7.70356V29.7372Z" fill="#36E7FF"/>
<path d="M12.5013 36.6222C12.5013 37.3556 12.5101 38.0903 12.5013 38.8237C12.4882 39.7332 12.0368 40.1858 11.1266 40.1929C9.88768 40.2015 8.64831 40.2015 7.40844 40.1929C6.54502 40.1858 6.04829 39.7088 6.03953 38.8609C6.02686 37.358 6.02686 35.8545 6.03953 34.3506C6.03953 33.4912 6.55962 33.0014 7.45372 32.9942C8.67314 32.9856 9.89402 32.9856 11.1164 32.9942C12.0119 32.9942 12.4882 33.4769 12.5013 34.3649C12.5101 35.1183 12.5013 35.8703 12.5013 36.6222ZM10.8315 38.5601V34.6371H7.71232V38.5601H10.8315Z" fill="#36E7FF"/>
</g>
<defs>
<clipPath id="clip0_47_5615">
<rect width="56" height="55" fill="white"/>
</clipPath>
</defs>
</svg>
