<svg width="59" height="52" viewBox="0 0 59 52" fill="none" xmlns="http://www.w3.org/2000/svg">
<g clip-path="url(#clip0_189_9124)">
<path d="M58.9999 14.041C58.6277 14.7549 58.0601 15.1526 57.1541 15.0502V34.406C57.1541 34.5747 57.1633 34.7449 57.1541 34.9136C57.111 35.4031 56.7665 35.733 56.305 35.7375C56.0817 35.7412 55.8658 35.6591 55.7036 35.5087C55.5414 35.3583 55.4459 35.1517 55.4375 34.9332C55.4221 34.7645 55.4375 34.5942 55.4375 34.424V15.0894H44.541V42.6996H55.4313C55.4313 41.5985 55.4313 40.5124 55.4313 39.4264C55.4313 39.2562 55.4236 39.086 55.4313 38.9173C55.4636 38.3931 55.8128 38.0391 56.2912 38.0376C56.4072 38.0377 56.522 38.0608 56.6287 38.1056C56.7353 38.1503 56.8316 38.2158 56.9117 38.298C56.9917 38.3802 57.054 38.4775 57.0946 38.584C57.1352 38.6904 57.1533 38.8038 57.1479 38.9173C57.1649 39.9521 57.1479 40.9884 57.1479 42.0232V42.6845C58.2585 43.1183 58.4677 43.4181 58.4723 44.5553C58.4723 45.0454 58.4723 45.5349 58.4723 46.024C58.4723 47.122 58.2308 47.4609 57.1479 47.8646C57.1479 48.5123 57.1479 49.1826 57.1479 49.8544C57.1387 51.1845 56.3142 51.9979 54.9545 51.9979C37.9914 51.9979 21.0279 51.9979 4.06378 51.9979C2.70556 51.9979 1.89033 51.183 1.88264 49.8424C1.88264 49.1841 1.88264 48.5259 1.88264 47.842C0.819754 47.5649 0.53519 46.8253 0.610561 45.8522C0.640553 45.4385 0.640553 45.0233 0.610561 44.6095C0.544419 43.6681 0.868976 42.9858 1.88264 42.7161V42.088C1.88264 37.9086 1.88264 33.7286 1.88264 29.5482C1.86894 29.3603 1.87461 29.1716 1.89956 28.9848C1.99339 28.5495 2.27334 28.2814 2.7394 28.2784C3.20547 28.2754 3.4885 28.5405 3.58848 28.9743C3.616 29.1608 3.6227 29.3497 3.60848 29.5376V42.7086H14.5157V15.0909H3.6254V24.7055C3.63731 24.8935 3.63062 25.0821 3.6054 25.2688C3.57535 25.4675 3.47338 25.649 3.31808 25.7802C3.16279 25.9114 2.96451 25.9836 2.7594 25.9836C2.55429 25.9836 2.35601 25.9114 2.20072 25.7802C2.04542 25.649 1.94345 25.4675 1.9134 25.2688C1.89155 25.1005 1.88589 24.9306 1.89648 24.7612C1.89648 21.7486 1.89648 18.7361 1.89648 15.7235V15.121L1.76574 15.2566C1.28736 14.9975 0.729003 14.8197 0.35061 14.4597C-0.132379 13.9988 -0.0800824 11.1308 0.324459 10.5825C0.672088 10.1141 1.16431 9.98003 1.73651 9.98003C4.98053 9.98907 8.22302 9.98003 11.4655 9.98003H12.1177C12.2115 9.27057 12.6714 8.89249 13.2529 8.57015C14.8557 7.68295 16.44 6.7626 18.0212 5.84979C18.435 5.61029 18.838 5.50034 19.2395 5.84076C19.7148 6.24595 19.5886 6.91023 18.9503 7.27927C17.5152 8.11074 16.0877 8.96178 14.6188 9.7345C14.0297 10.0448 13.7958 10.3928 13.8497 11.045C13.9128 11.7906 13.8635 12.5437 13.8635 13.3315H45.1809C45.1809 12.3464 45.1932 11.3734 45.1655 10.4018C45.1655 10.2617 44.9871 10.0825 44.8456 9.99961C40.2926 7.38872 35.7365 4.78687 31.1773 2.19405C30.0467 1.55086 28.9162 1.59152 27.7933 2.2347C26.2428 3.11939 24.6862 4.0066 23.1234 4.89631C22.9419 5.00025 22.7634 5.11473 22.5727 5.19757C22.3759 5.30004 22.1462 5.32354 21.932 5.2631C21.7179 5.20267 21.5361 5.06302 21.4252 4.87372C21.3688 4.77984 21.3321 4.67595 21.317 4.56805C21.302 4.46014 21.309 4.35039 21.3376 4.24515C21.3662 4.13991 21.4159 4.04128 21.4837 3.955C21.5516 3.86871 21.6363 3.79648 21.7329 3.7425C23.6494 2.63989 25.5476 1.49512 27.5164 0.487414C29.0546 -0.30188 30.6389 -0.0894821 32.131 0.763076L42.769 6.8334C43.7796 7.4103 44.7825 8.00229 45.8054 8.5581C46.3868 8.87442 46.8483 9.25853 46.936 9.971H52.4826C54.0208 9.971 55.559 10.0056 57.0879 9.95743C57.9709 9.93032 58.6092 10.2075 59.003 10.9877L58.9999 14.041ZM42.726 34.2358V31.4386H35.6196C35.3119 31.4386 35.0043 31.4536 34.6966 31.4386C34.5858 31.4362 34.4766 31.4124 34.3752 31.3684C34.2739 31.3243 34.1825 31.261 34.1064 31.1821C34.0303 31.1032 33.9709 31.0103 33.9317 30.9087C33.8926 30.8072 33.8744 30.699 33.8783 30.5905C33.8783 30.1296 34.2075 29.7997 34.712 29.7561C34.8658 29.744 35.0197 29.7561 35.1735 29.7561H42.7383V15.1014H16.3215V29.7561H30.2175C30.4093 29.7452 30.6018 29.7502 30.7927 29.7711C31.245 29.8479 31.5203 30.1266 31.5295 30.5785C31.5403 31.056 31.2665 31.3527 30.7866 31.4371C30.5961 31.4575 30.4041 31.462 30.2129 31.4506H16.3108V34.2478L42.726 34.2358ZM35.6503 35.9966H23.3956V43.2614H35.6534L35.6503 35.9966ZM42.7352 48.5364H16.3308V50.2762H42.7383L42.7352 48.5364ZM39.0882 46.7711V45.0268H19.9578V46.7711H39.0882ZM3.6254 47.8466C3.6254 48.4762 3.65616 49.041 3.6254 49.6029C3.58848 50.1346 3.76076 50.3229 4.32988 50.3184C7.56775 50.2943 10.8072 50.3063 14.045 50.3048C14.2096 50.3048 14.3757 50.2852 14.5265 50.2747V47.8466H3.6254ZM44.5241 50.3063H53.8224C54.2054 50.3063 54.5915 50.3063 54.9714 50.3063C55.279 50.3138 55.4406 50.2009 55.4329 49.8831C55.4329 49.2113 55.4329 48.541 55.4329 47.8511H44.5118L44.5241 50.3063ZM14.5373 44.471H2.39485V46.0978H14.5265L14.5373 44.471ZM56.7311 46.1053V44.4619H44.5272V46.1053H56.7311ZM16.3262 35.9906V46.7575H18.1597V35.9906H16.3262ZM42.7367 46.7741V35.9876H40.9001V46.7741H42.7367ZM12.1115 11.7077H1.82265V13.3345H12.1115V11.7077ZM46.9375 13.333H57.2356V11.7077H46.9375V13.333ZM19.9393 43.2614H21.6083V35.9966H19.9393V43.2614ZM37.4654 35.977V43.2659H39.0943V35.977H37.4654Z" fill="#36E7FF"/>
<path d="M29.467 11.2182H20.3179C19.4842 11.2182 19.0643 10.9772 18.9151 10.4199C18.7612 9.83393 18.992 9.44379 19.7334 9.05216C22.6821 7.49165 25.6384 5.94168 28.5779 4.3661C28.8634 4.1944 29.1919 4.10352 29.527 4.10352C29.862 4.10352 30.1905 4.1944 30.476 4.3661C33.4355 5.9477 36.4072 7.50671 39.3744 9.07777C40.0558 9.43777 40.2835 9.85501 40.1312 10.4334C39.9912 10.9606 39.5697 11.2242 38.8391 11.2257L29.467 11.2182ZM22.699 9.41065L22.739 9.49501H36.3396C36.3134 9.43627 36.3088 9.39108 36.2857 9.37903C34.1169 8.22672 31.9481 7.0699 29.7669 5.93717C29.6745 5.90704 29.5767 5.89576 29.4796 5.90405C29.3825 5.91234 29.2882 5.94001 29.2024 5.98536C28.4841 6.33633 27.7811 6.71894 27.0736 7.0925L22.699 9.41065Z" fill="#36E7FF"/>
<path d="M12.7147 22.9837C12.7147 24.1315 12.7147 25.2793 12.7147 26.4271C12.7147 27.4815 12.1532 28.0418 11.0965 28.0479C9.71727 28.0549 8.33701 28.0549 6.95572 28.0479C5.92668 28.0479 5.3514 27.4815 5.34987 26.4738C5.34269 24.141 5.34269 21.8083 5.34987 19.4756C5.34987 18.4362 5.92207 17.8879 6.99572 17.8834C8.35752 17.8774 9.71881 17.8774 11.0796 17.8834C12.1471 17.8834 12.7101 18.4392 12.7162 19.4846C12.7193 20.6505 12.7147 21.8178 12.7147 22.9837ZM7.11262 19.6021V26.3066H10.9581V19.5991L7.11262 19.6021Z" fill="#36E7FF"/>
<path d="M46.2193 22.9807C46.2193 21.8148 46.2193 20.649 46.2193 19.4816C46.2193 18.4392 46.79 17.8879 47.8575 17.8834C49.2193 17.8774 50.5811 17.8774 51.9429 17.8834C53.0196 17.8834 53.5826 18.4347 53.5856 19.4771C53.5856 21.8098 53.5856 24.1431 53.5856 26.4768C53.5856 27.483 53.0073 28.0418 51.9767 28.0479C50.5975 28.0549 49.2167 28.0549 47.8344 28.0479C46.8023 28.0479 46.2285 27.4845 46.2224 26.4813C46.2131 25.3139 46.2193 24.1481 46.2193 22.9807ZM51.8213 26.3292V19.6217H47.9759V26.3292H51.8213Z" fill="#36E7FF"/>
<path d="M5.34507 35.9482C5.34507 34.7808 5.34507 33.615 5.34507 32.4491C5.34507 31.4384 5.92035 30.8765 6.94632 30.8705C8.34606 30.8635 9.7458 30.8635 11.1455 30.8705C12.1346 30.878 12.7068 31.4459 12.7099 32.4265C12.7181 34.7793 12.7181 37.1311 12.7099 39.4819C12.7099 40.458 12.1284 41.0259 11.1379 41.0319C9.73811 41.0419 8.33837 41.0419 6.93862 41.0319C5.91573 41.0319 5.35122 40.4595 5.34507 39.4443C5.34045 38.2874 5.34507 37.1201 5.34507 35.9482ZM7.09706 39.3012H10.9425V32.5937H7.09706V39.3012Z" fill="#36E7FF"/>
<path d="M46.2193 35.9013C46.2193 34.7535 46.2193 33.6058 46.2193 32.458C46.2193 31.4457 46.7915 30.8824 47.8175 30.8764C49.2172 30.8693 50.617 30.8693 52.0167 30.8764C53.0073 30.8764 53.581 31.4503 53.5841 32.4294C53.5913 34.7802 53.5913 37.132 53.5841 39.4848C53.5841 40.4624 53.0058 41.0318 52.0152 41.0378C50.597 41.0478 49.1783 41.0478 47.759 41.0378C46.8054 41.0287 46.2301 40.4548 46.2209 39.5119C46.2116 38.3099 46.2193 37.1049 46.2193 35.9013ZM51.8198 39.3236V32.6161H47.9744V39.3236H51.8198Z" fill="#36E7FF"/>
<path d="M27.1058 22.9569C27.1058 24.1032 27.1058 25.2509 27.1058 26.3987C27.1058 27.4908 26.5506 28.0436 25.4585 28.0557C24.0967 28.0617 22.7354 28.0617 21.3746 28.0557C20.3102 28.0557 19.7426 27.4953 19.7395 26.453C19.7395 24.1433 19.7395 21.8292 19.7395 19.5105C19.7395 18.4561 20.2994 17.8973 21.3561 17.8912C22.7374 17.8852 24.1182 17.8852 25.4985 17.8912C26.529 17.8912 27.0982 18.4546 27.1043 19.4638C27.112 20.6236 27.1058 21.788 27.1058 22.9569ZM25.3308 26.343V19.6144H21.5084V26.343H25.3308Z" fill="#36E7FF"/>
<path d="M31.9418 22.9619C31.9418 21.7945 31.9418 20.6286 31.9418 19.4613C31.9418 18.4521 32.5155 17.8902 33.5431 17.8842C34.9233 17.8771 36.3041 17.8771 37.6854 17.8842C38.7236 17.8842 39.302 18.44 39.3051 19.4432C39.3123 21.794 39.3123 24.1458 39.3051 26.4986C39.3051 27.4732 38.7236 28.0411 37.7331 28.0471C36.3333 28.0571 34.9336 28.0571 33.5338 28.0471C32.5109 28.0471 31.9464 27.4747 31.9403 26.4595C31.9372 25.2936 31.9418 24.1277 31.9418 22.9619ZM33.7092 19.6029V26.3073H37.5546V19.5998L33.7092 19.6029Z" fill="#36E7FF"/>
</g>
<defs>
<clipPath id="clip0_189_9124">
<rect width="59" height="52" fill="white"/>
</clipPath>
</defs>
</svg>
