<svg width="52" height="45" viewBox="0 0 52 45" fill="none" xmlns="http://www.w3.org/2000/svg">
<g clip-path="url(#clip0_47_5603)">
<path d="M0 13.3381C0.319583 12.7097 0.824689 12.5006 1.52886 12.506C5.06594 12.5318 8.60167 12.5183 12.1388 12.5183H12.7292V5.22074C12.3541 5.22074 11.9884 5.22074 11.6242 5.22074C10.8767 5.2031 10.4054 4.77415 10.3905 4.02757C10.3661 3.08009 10.3661 2.12988 10.3905 1.17697C10.4108 0.452107 10.8645 0.032665 11.5862 8.6813e-05C11.7379 -0.00670031 11.8909 8.6813e-05 12.0426 8.6813e-05H39.9615C41.2858 8.6813e-05 41.6203 0.329939 41.6203 1.63985C41.6203 2.38508 41.6203 3.13302 41.6203 3.87418C41.6095 4.77822 41.1734 5.20988 40.277 5.21938C39.9574 5.21938 39.6378 5.21938 39.2776 5.21938V12.5155H39.8626C43.3997 12.5155 46.9354 12.5291 50.4725 12.5033C51.1767 12.5033 51.6804 12.7097 52.0014 13.3354V16.8919C51.6709 17.6602 51.0345 17.7824 50.2883 17.7471C49.5977 17.7131 49.595 17.7471 49.595 18.4122C49.595 26.9432 49.595 35.4755 49.595 44.0092C49.595 44.8304 49.4596 44.9594 48.662 44.9594C42.6567 44.9729 36.651 44.9842 30.6448 44.9933C25.1645 44.9933 19.6828 44.9702 14.2011 44.9621C10.6316 44.9566 7.06198 44.9566 3.4924 44.9621C2.47677 44.9621 2.40906 44.8915 2.40906 43.8531C2.40906 35.3882 2.40906 26.9233 2.40906 18.4584C2.40906 17.6439 2.49031 17.7145 1.66562 17.7457C0.930311 17.7729 0.323644 17.6303 0.00270685 16.8892L0 13.3381ZM37.9776 43.7255V5.26825H14.0332V43.72H17.0246V43.097C17.0246 39.0491 17.0246 35.0013 17.0246 30.9535C17.0246 29.1494 18.1011 28.0689 19.89 28.0662C23.9706 28.0662 28.0498 28.0662 32.1276 28.0662C32.381 28.0603 32.6343 28.0812 32.8832 28.1287C34.1941 28.4219 34.97 29.4548 34.9727 30.9236C34.9781 34.9877 34.9781 39.0523 34.9727 43.1173V43.7241L37.9776 43.7255ZM48.3437 17.8149H39.3182V43.7146H48.3437V17.8149ZM12.6912 43.7241V17.8231H3.65625V43.7241H12.6912ZM25.3703 29.2852H20.0119C18.7444 29.2852 18.2433 29.7915 18.2433 31.0783C18.2433 35.1072 18.2433 39.1342 18.2433 43.1594C18.2433 43.3372 18.2596 43.5151 18.2677 43.6929H25.3703V29.2852ZM26.6432 29.2947V43.7037H33.7323C33.7418 43.5259 33.7567 43.378 33.7567 43.2286C33.7567 39.1491 33.7567 35.0701 33.7567 30.9915C33.7579 30.8555 33.7515 30.7195 33.7377 30.5842C33.6632 29.8811 33.1514 29.3178 32.4526 29.3083C30.527 29.2757 28.6014 29.2947 26.6432 29.2947ZM11.6282 3.97191H40.3718V1.25706H11.6282V3.97191ZM1.25531 13.763V16.4779H12.6885V13.763H1.25531ZM50.7542 13.763H39.3088V16.4779H50.7542V13.763Z" fill="#36E7FF"/>
<path d="M32.2575 10.7347C32.213 10.7254 32.1676 10.7204 32.1221 10.7198C31.2108 11.0022 31.2108 11.0022 31.2108 11.9551C31.2108 13.041 31.2108 14.127 31.2108 15.2061C31.2108 15.8142 31.0252 15.9921 30.4186 15.9921C27.304 15.9921 24.1894 15.9921 21.0748 15.9921C20.4682 15.9921 20.2867 15.8142 20.284 15.2061C20.2772 14.0034 20.2677 12.8007 20.284 11.5981C20.2908 11.2465 20.1757 11.0877 19.8439 10.9886C19.2583 10.823 18.685 10.6166 18.1282 10.371C17.9074 10.2678 17.6393 9.98002 17.6379 9.77234C17.6366 9.56465 17.9088 9.25923 18.1227 9.17779C20.4844 8.30632 22.8623 7.46607 25.2348 6.63668C25.4572 6.57278 25.694 6.58038 25.9119 6.65841C28.2722 7.48372 30.6258 8.3294 32.9834 9.1615C33.1318 9.19974 33.2626 9.28813 33.3536 9.41176C33.4447 9.5354 33.4904 9.68672 33.4831 9.84021C33.4831 10.5678 33.4722 11.2954 33.4641 12.0243C33.4641 12.4234 33.3287 12.7302 32.871 12.7587C32.4783 12.7831 32.2602 12.5198 32.2494 12.0121C32.2508 11.5913 32.2575 11.1718 32.2575 10.7347ZM31.0171 9.80084C30.856 9.72618 30.772 9.68003 30.684 9.64745C29.059 9.06783 27.4448 8.48278 25.8185 7.92081C25.6123 7.86424 25.3937 7.87325 25.1928 7.9466C23.5976 8.49771 22.0092 9.06783 20.4194 9.63388C20.3395 9.66238 20.2637 9.70582 20.0971 9.78455C21.626 10.3194 23.0763 10.751 24.467 11.3415C25.4149 11.7487 26.2342 11.6999 27.1483 11.3008C28.3887 10.7592 29.6711 10.3112 31.0171 9.80084ZM29.9527 14.7487V11.556C28.7651 12.0053 27.6276 12.4125 26.5091 12.8686C26.2882 12.9669 26.0496 13.019 25.8079 13.0218C25.5663 13.0246 25.3266 12.978 25.1035 12.8849C23.9321 12.437 22.7391 12.0406 21.5407 11.6198V14.7487H29.9527Z" fill="#36E7FF"/>
<path d="M26 24.4595H17.2711C16.4193 24.4595 16.2771 24.3116 16.2771 23.4469C16.2771 21.8895 16.2771 20.332 16.2771 18.7746C16.2771 18.0796 16.4586 17.8964 17.1424 17.895H34.8549C35.532 17.895 35.7202 18.081 35.7216 18.7746C35.7216 20.333 35.7216 21.8899 35.7216 23.4469C35.7216 24.3129 35.578 24.4595 34.7276 24.4595H26ZM17.4958 19.1425C17.4958 20.3357 17.5189 21.5003 17.4837 22.6623C17.4688 23.1388 17.6191 23.2501 18.0795 23.2487C23.3553 23.2342 28.6312 23.2311 33.907 23.2392H34.4636V19.1425H17.4958Z" fill="#36E7FF"/>
<path d="M43.8751 28.3867C44.3815 28.3867 44.8894 28.3785 45.3958 28.3867C45.9375 28.3962 46.1596 28.5957 46.1677 29.1115C46.1826 30.2097 46.1758 31.3092 46.1677 32.4087C46.1677 32.858 45.9239 33.1024 45.473 33.1051C44.3752 33.1105 43.2765 33.1105 42.177 33.1051C41.7071 33.1051 41.4525 32.8621 41.4511 32.3856C41.4511 31.2997 41.443 30.2138 41.4511 29.1373C41.4511 28.6201 41.6813 28.3989 42.1973 28.388C42.7579 28.3772 43.3158 28.3867 43.8751 28.3867ZM42.6861 31.8549H44.9232V29.6464H42.6848L42.6861 31.8549Z" fill="#36E7FF"/>
<path d="M41.4497 37.3729C41.4497 36.8489 41.4497 36.3236 41.4497 35.7996C41.4578 35.2241 41.6718 35.0082 42.2554 35.0042C43.2873 34.996 44.3187 34.996 45.3497 35.0042C45.9455 35.0042 46.1622 35.2078 46.1622 35.7874C46.1744 36.8367 46.173 37.8846 46.1622 38.9339C46.1622 39.519 45.9482 39.7253 45.3578 39.7307C44.326 39.7398 43.2945 39.7398 42.2636 39.7307C41.6555 39.7307 41.4511 39.5081 41.4511 38.8945C41.4456 38.3882 41.4497 37.8805 41.4497 37.3729ZM42.6955 38.4751H44.9055V36.2598H42.6955V38.4751Z" fill="#36E7FF"/>
<path d="M43.7734 26.4901C43.2493 26.4901 42.7252 26.501 42.2012 26.4901C41.6771 26.4792 41.4577 26.2675 41.4537 25.7476C41.4428 24.6616 41.4428 23.5793 41.4537 22.5006C41.4537 22.0092 41.6866 21.7866 42.1755 21.7825C43.2737 21.773 44.3719 21.7825 45.4715 21.7825C45.9292 21.7825 46.1621 22.0364 46.1662 22.4775C46.1761 23.5933 46.1761 24.7096 46.1662 25.8263C46.1662 26.2471 45.9292 26.486 45.4986 26.4901C44.9244 26.4969 44.3489 26.4901 43.7747 26.4901H43.7734ZM44.9298 23.0246H42.6982V25.2182H44.9298V23.0246Z" fill="#36E7FF"/>
<path d="M8.06938 33.1158C7.54531 33.1158 7.02125 33.124 6.49719 33.1158C5.90677 33.1036 5.70094 32.9014 5.69688 32.319C5.69056 31.2711 5.69056 30.2227 5.69688 29.1739C5.69688 28.6227 5.91761 28.4015 6.46604 28.3974C7.53042 28.3884 8.59524 28.3884 9.66052 28.3974C10.1832 28.3974 10.3985 28.6146 10.4053 29.144C10.4175 30.2299 10.4053 31.3159 10.4053 32.391C10.4053 32.8688 10.1643 33.1118 9.68896 33.1158C9.15135 33.1158 8.61104 33.1077 8.06938 33.1158ZM9.14459 31.8724V29.6462H6.94948V31.8656L9.14459 31.8724Z" fill="#36E7FF"/>
<path d="M10.411 37.3712C10.411 37.8952 10.4191 38.4205 10.411 38.9445C10.4001 39.5105 10.2038 39.7223 9.64991 39.7291C8.58554 39.7426 7.52071 39.7426 6.45544 39.7291C5.91377 39.7223 5.70387 39.4929 5.69981 38.9336C5.69349 37.8857 5.69349 36.8373 5.69981 35.7885C5.69981 35.2346 5.91783 35.0106 6.46491 35.0052C7.52929 34.9944 8.59456 34.9944 9.66075 35.0052C10.1889 35.0052 10.3961 35.2197 10.4096 35.7477C10.4231 36.2758 10.411 36.8296 10.411 37.3712ZM6.94564 36.2473V38.487H9.15835V36.2473H6.94564Z" fill="#36E7FF"/>
<path d="M8.08179 21.7772H9.70679C10.1604 21.7772 10.4042 22.0134 10.4082 22.4559C10.4182 23.5717 10.4182 24.688 10.4082 25.8047C10.4082 26.2608 10.151 26.4834 9.70272 26.4834C8.6045 26.4834 7.50491 26.4834 6.40668 26.4834C5.93137 26.4834 5.6971 26.2269 5.6971 25.7518C5.6971 24.6658 5.69033 23.5867 5.6971 22.5035C5.6971 21.9903 5.92866 21.7827 6.45679 21.7745C6.98491 21.7664 7.54012 21.7772 8.08179 21.7772ZM9.16512 25.2427V23.0356H6.95106V25.2427H9.16512Z" fill="#36E7FF"/>
<path d="M23.2917 37.2666C23.021 37.2809 22.7496 37.2786 22.4792 37.2598C22.1366 37.2177 21.9253 37.0019 21.9375 36.6449C21.9347 36.5681 21.948 36.4917 21.9765 36.4204C22.0049 36.3491 22.048 36.2846 22.1028 36.231C22.1577 36.1775 22.2231 36.136 22.2949 36.1093C22.3668 36.0826 22.4434 36.0713 22.5198 36.0761C23.0412 36.0625 23.5706 36.0218 24.0798 36.0992C24.2924 36.1304 24.5687 36.406 24.6296 36.6218C24.7203 36.9476 24.482 37.2055 24.1353 37.253C23.8508 37.272 23.5654 37.272 23.2808 37.253L23.2917 37.2666Z" fill="#36E7FF"/>
<path d="M28.7083 36.0765C28.9792 36.0765 29.2757 36.0046 29.5073 36.0969C29.7389 36.1892 30.0178 36.4403 30.0286 36.6398C30.0395 36.8394 29.7578 37.2032 29.5804 37.229C28.9989 37.3063 28.4097 37.3063 27.8281 37.229C27.6426 37.2045 27.3691 36.8339 27.3813 36.6371C27.3934 36.4403 27.6859 36.1932 27.9107 36.1037C28.1355 36.0141 28.4375 36.0765 28.7083 36.0765Z" fill="#36E7FF"/>
</g>
<defs>
<clipPath id="clip0_47_5603">
<rect width="52" height="45" fill="white"/>
</clipPath>
</defs>
</svg>
