<svg width="60" height="60" viewBox="0 0 60 60" fill="none" xmlns="http://www.w3.org/2000/svg">
<g clip-path="url(#clip0_189_7846)">
<path d="M39.8439 0H45.4686C45.638 0.113742 45.7732 0.271576 45.8595 0.456487C45.9458 0.641398 45.98 0.846363 45.9584 1.04928C45.9346 2.17561 45.9584 3.30194 45.9584 4.49248H56.6078C56.8427 4.49248 57.0775 4.49248 57.3105 4.50899C57.7618 4.55118 58.0443 4.80066 58.0553 5.25926C58.0718 6.5085 58.0755 7.75773 58.0553 9.00697C58.0553 9.48758 57.7397 9.74073 57.2481 9.74073H56.2593V50.7656C56.384 50.7821 56.4776 50.8023 56.5711 50.8078C57.6884 50.8591 57.7838 50.96 57.7838 52.0918V54.7132C58.1709 54.7132 58.4992 54.7352 58.8239 54.7132C59.3046 54.6729 59.7045 54.7884 59.9999 55.1883V59.5249C59.6917 59.956 59.2532 60 58.7634 60C45.7358 59.9914 32.7107 59.9914 19.688 60H1.11343C0.231024 60 0.0127161 59.7725 0.00170898 58.8994C0.00170898 57.8831 0.00170898 56.8674 0.00170898 55.8524C0.00170898 54.9352 0.220018 54.7297 1.15196 54.7297H5.89787C6.08133 54.7297 6.27395 54.7114 6.44823 54.7004V48.1424C5.68874 47.9057 4.98061 47.7406 4.31835 47.4691C0.629116 45.9631 -1.21458 41.6173 1.15746 37.9302C1.3047 37.675 1.34992 37.3735 1.28404 37.0863C0.841923 35.4647 1.04555 33.9495 1.96465 32.548C2.17012 32.2343 2.12976 31.9647 2.10408 31.6308C2.04721 30.864 1.92062 30.0459 2.12242 29.3268C2.89109 26.4724 5.94924 24.893 8.77808 25.7845C9.02391 25.8616 9.42383 25.9404 9.55042 25.8157C9.86412 25.5075 10.1356 25.1553 9.95951 24.5848C9.75577 23.9557 9.66509 23.2955 9.69168 22.6348C9.93567 18.634 13.9478 15.8071 17.9104 16.8564C18.8515 17.1041 19.7449 17.5627 20.6805 17.9387V10.6212C20.6805 9.59948 20.7117 9.78293 19.8384 9.76825C19.0496 9.75541 18.8405 9.54812 18.835 8.74832C18.835 7.73389 18.835 6.71763 18.835 5.70136C18.835 4.6851 19.0276 4.51449 20.0384 4.51265H30.9336C30.9336 3.32212 30.952 2.23064 30.9336 1.141C30.9118 0.929078 30.9441 0.715079 31.0275 0.519041C31.1109 0.323004 31.2427 0.15135 31.4106 0.0201759H37.0316C37.437 0.24214 37.582 0.596183 37.5691 1.04195C37.5563 1.5299 37.5691 2.01785 37.5691 2.50948V4.47964H39.345C39.345 3.31662 39.3578 2.18845 39.345 1.06212C39.3266 0.588843 39.455 0.238474 39.8439 0ZM54.6834 50.7876V9.7921H22.1756V10.4635C22.1756 13.3986 22.1756 16.3226 22.1866 19.2503C22.1926 19.5747 22.269 19.8939 22.4104 20.1859C23.069 21.5415 23.2617 22.9375 22.8305 24.3885C22.7541 24.6019 22.7318 24.831 22.7657 25.0551C22.7997 25.2792 22.8888 25.4914 23.025 25.6726C23.6215 26.5348 24.0059 27.5257 24.1468 28.5646C24.2877 29.6036 24.1812 30.661 23.8359 31.651C23.7734 31.7975 23.7507 31.958 23.77 32.1161C23.7894 32.2742 23.85 32.4245 23.9459 32.5517C26.3914 36.2737 25.8135 40.5332 22.5095 43.4719C22.3159 43.6685 22.2021 43.93 22.1903 44.2057C22.1646 46.2236 22.1756 48.2286 22.1775 50.2391C22.1775 50.4079 22.2013 50.5766 22.216 50.7729H29.8971V50.0483C29.8971 45.6543 29.8971 41.2609 29.8971 36.868C29.8971 35.9086 30.1008 35.7087 31.0694 35.7069H45.9492C46.9692 35.7069 47.1233 35.8646 47.1233 36.9084V50.7821L54.6834 50.7876ZM15.608 44.1488C15.608 43.0188 15.6282 41.9292 15.5933 40.8469C15.5669 40.5683 15.4533 40.3051 15.2686 40.0948C14.8889 39.6527 14.3862 39.3041 14.0542 38.8327C13.6194 38.2145 12.1866 37.7706 13.1186 36.8424C14.012 35.9508 14.4321 37.3927 15.0742 37.7596C15.2635 37.9025 15.4403 38.0615 15.6025 38.2347V37.4202C15.6025 36.7378 15.586 36.0536 15.6025 35.3712C15.6154 34.9291 15.8502 34.6154 16.3106 34.586C16.7436 34.5585 16.9968 34.8263 17.0811 35.2372C17.1059 35.411 17.1133 35.5867 17.1032 35.7619C17.1032 36.5911 17.1032 37.4129 17.1032 38.4218C17.6737 37.844 18.1158 37.3835 18.5708 36.9396C19.0257 36.4957 19.4092 36.4553 19.7504 36.7745C20.0916 37.0937 20.0733 37.5413 19.6256 37.998C18.8918 38.7318 18.158 39.4656 17.4242 40.1993C17.305 40.3204 17.127 40.469 17.1252 40.6066C17.1013 41.7861 17.1105 42.9656 17.1105 44.1488C19.0481 44.0018 20.8579 43.1261 22.1756 41.6981C24.4413 39.1904 24.5422 35.6738 22.4159 33.0286C22.1188 32.6617 21.9188 32.315 22.1463 31.8142C23.1076 29.7065 22.7975 27.7473 21.3721 25.9588C21.2002 25.7751 21.0902 25.5423 21.0573 25.293C21.0244 25.0436 21.0703 24.7902 21.1886 24.5683C21.783 23.2017 21.6454 21.8534 20.8731 20.595C19.5504 18.4395 16.7986 17.5737 14.3459 18.5056C11.8601 19.4503 10.519 22.0918 11.4436 24.3977C11.7372 25.1315 11.6032 25.6066 11.1538 26.1899C9.99253 27.6996 9.62563 29.435 10.3374 31.2034C10.7245 32.1683 10.508 32.7663 9.95034 33.5184C9.44771 34.1835 9.08925 34.9462 8.89783 35.7576C8.70642 36.569 8.68625 37.4114 8.83862 38.231C9.40365 41.4449 12.1426 43.848 15.6044 44.1488H15.608ZM1.53537 58.4444H58.4479V56.2706H1.53537V58.4444ZM8.79276 27.2869C8.30879 27.1775 7.81871 27.0973 7.32514 27.0466C4.72011 26.931 2.65443 29.4002 3.74598 31.7941C3.95878 32.2618 3.7845 32.6122 3.50198 32.9699C2.52785 34.2081 2.29303 35.5674 2.9131 37.0313C3.01933 37.2496 3.05725 37.4949 3.02191 37.7351C2.98656 37.9753 2.87959 38.1993 2.71497 38.3778C1.52987 39.8857 1.26203 41.5751 2.03436 43.3307C2.86357 45.2073 4.41925 46.1832 6.48126 46.5152V45.7723C6.48126 44.9523 6.46291 44.1323 6.48126 43.3123C6.49226 42.8813 6.7069 42.5566 7.18755 42.5327C7.626 42.5089 7.88467 42.7473 7.95988 43.1693C7.98074 43.3439 7.98688 43.52 7.97823 43.6957V46.5116C9.49171 46.2823 10.708 45.6751 11.6803 44.4937C11.4345 44.3323 11.2253 44.1984 11.0199 44.0589C9.91931 43.3399 9.00865 42.3657 8.36531 41.2193C6.77294 38.2971 6.89769 35.428 8.74139 32.6544C8.98171 32.2875 8.98722 32.0013 8.88815 31.5849C8.70189 30.812 8.59372 30.0223 8.56528 29.2277C8.54143 28.615 8.69002 27.9987 8.78909 27.2869H8.79276ZM20.6438 54.6857H56.2336V52.3395H20.6438V54.6857ZM31.4381 37.2258V50.7802H37.7159V37.2258H31.4381ZM39.2972 50.7692H45.5897V37.2258H39.2917L39.2972 50.7692ZM20.3649 8.21084H56.5418V6.02238H20.3594L20.3649 8.21084ZM15.6264 54.6857C15.6471 54.6038 15.6612 54.5204 15.6686 54.4362C15.6557 51.6461 15.6374 48.8559 15.6355 46.0658C15.6355 45.7246 15.4741 45.6439 15.1879 45.5943C14.6522 45.5026 14.1166 45.3962 13.59 45.2623C13.2782 45.1816 13.0654 45.1889 12.8379 45.477C12.0151 46.5043 10.9052 47.2635 9.64948 47.6581C9.1193 47.8415 8.56344 47.9351 8.0351 48.0653V54.6857H15.6264ZM19.112 54.6857C19.112 53.7043 19.112 52.7889 19.112 51.8754C19.112 51.0481 19.3229 50.8078 20.1356 50.8169C20.5722 50.8169 20.7062 50.6922 20.7007 50.2538C20.6768 48.5771 20.6915 46.9005 20.6897 45.2238C20.6829 45.0899 20.6694 44.9564 20.6493 44.8239L17.1912 45.7649V54.6857H19.112ZM36.0245 4.45946V1.55008H32.482V4.45946H36.0245ZM40.8713 1.5244V4.45946H44.4064V1.5244H40.8713Z" fill="#36E7FF"/>
<path d="M29.767 17.9754C29.767 16.961 29.767 15.9575 29.767 14.9339C29.767 14.213 30.0312 13.9507 30.7576 13.9489C32.1812 13.9415 33.6042 13.9415 35.0266 13.9489C35.7604 13.9489 36.0191 14.1928 36.0227 14.9284C36.0337 16.9757 36.0337 19.0229 36.0227 21.0701C36.0227 21.8148 35.7787 22.0423 35.0339 22.046C33.6128 22.046 32.1898 22.046 30.765 22.046C30.0018 22.046 29.7688 21.8002 29.7652 21.0187C29.7633 20.0024 29.767 18.9898 29.767 17.9754ZM34.5074 15.5008H31.3135V20.5106H34.5074V15.5008Z" fill="#36E7FF"/>
<path d="M46.9913 18.0138C46.9913 19.0466 46.9913 20.0794 46.9913 21.1121C46.9913 21.778 46.7326 22.0385 46.074 22.0422C44.5942 22.0507 43.1131 22.0507 41.6308 22.0422C41.0015 22.0422 40.7447 21.7909 40.741 21.147C40.7276 19.0411 40.7276 16.9358 40.741 14.8311C40.741 14.2074 41.0217 13.9542 41.6583 13.9487C43.1394 13.939 44.6205 13.939 46.1015 13.9487C46.7179 13.9487 46.9894 14.2331 46.9968 14.8531C47.0004 15.9079 46.9913 16.9609 46.9913 18.0138ZM42.2454 20.5104H45.4338V15.5062H42.2454V20.5104Z" fill="#36E7FF"/>
<path d="M29.767 28.839C29.767 27.8246 29.767 26.8212 29.767 25.7976C29.767 25.0638 30.0128 24.8217 30.754 24.818C32.1959 24.8107 33.6385 24.8107 35.0816 24.818C35.7641 24.818 36.0154 25.0546 36.0209 25.7242C36.0331 27.8105 36.0331 29.8963 36.0209 31.9814C36.0209 32.6693 35.7494 32.9133 35.0394 32.9169C33.6158 32.9243 32.1929 32.9243 30.7705 32.9169C30.022 32.9169 29.7688 32.6473 29.7652 31.8787C29.7633 30.8661 29.767 29.8516 29.767 28.839ZM34.5037 31.3889V26.3442H31.3172V31.3889H34.5037Z" fill="#36E7FF"/>
<path d="M46.9932 28.8831C46.9932 29.8957 46.9932 30.9101 46.9932 31.9227C46.9932 32.6455 46.7272 32.9114 46.0044 32.9169C44.5808 32.9243 43.1578 32.9243 41.7354 32.9169C41.0016 32.9169 40.7393 32.6675 40.7356 31.9374C40.7258 29.8902 40.7258 27.8436 40.7356 25.7976C40.7356 25.0491 40.9759 24.8217 41.7207 24.818C43.1651 24.8107 44.6077 24.8107 46.0484 24.818C46.7437 24.818 46.9877 25.0785 46.9913 25.7829C46.9987 26.8157 46.9932 27.8503 46.9932 28.8831ZM45.432 31.3907V26.3424H42.2619V31.3907H45.432Z" fill="#36E7FF"/>
</g>
<defs>
<clipPath id="clip0_189_7846">
<rect width="60" height="60" fill="white"/>
</clipPath>
</defs>
</svg>
