<svg width="59" height="58" viewBox="0 0 59 58" fill="none" xmlns="http://www.w3.org/2000/svg">
<g clip-path="url(#clip0_1_1226)">
<path d="M27.7252 58C26.6081 57.8486 25.4849 57.7397 24.3771 57.546C18.738 56.579 13.8118 54.1714 9.59098 50.3747C9.47841 50.257 9.39339 50.1166 9.34189 49.9631C9.29039 49.8096 9.27366 49.6469 9.29289 49.4864C9.6632 47.8127 10.0612 46.1421 10.5221 44.4926C10.7772 43.5923 11.4825 43.0626 12.3936 42.819C12.6487 42.7509 12.913 42.7161 13.1742 42.6677C13.2157 42.2682 13.1742 41.846 13.3186 41.4949C13.4815 41.0924 13.7335 40.6565 14.0746 40.4084C14.4495 40.1375 14.5356 39.8787 14.4802 39.4762C14.0765 35.8333 14.0035 32.1623 14.2621 28.5066C14.3189 27.641 14.4234 26.7785 14.4818 25.9129C14.4941 25.7495 14.448 25.4892 14.3389 25.4256C13.4246 24.899 13.1511 24.094 13.2157 23.1164C13.2159 23.0152 13.2092 22.9141 13.1957 22.8138C12.1278 22.4521 11.5654 21.6788 11.3703 20.6135C11.3499 20.4482 11.2892 20.2901 11.1934 20.1528C11.0977 20.0156 10.9696 19.9031 10.8202 19.8251C10.2194 19.4846 9.95667 18.9171 9.8737 18.2301C9.69085 16.7486 10.2624 15.7802 11.6469 15.1022C17.1937 12.4018 22.8993 10.0299 28.7332 7.99901C29.2759 7.82504 29.8607 7.82504 30.4034 7.99901C36.3682 10.0707 42.1717 12.5191 47.7279 15.5078C49.5118 16.4672 49.5717 18.8369 47.9015 19.9613C47.7074 20.1289 47.5786 20.3579 47.5373 20.609C47.3176 21.6682 46.7691 22.4491 45.6797 22.8213C45.6797 23.0362 45.6797 23.2435 45.6797 23.4493C45.6658 24.8007 44.8315 25.6254 43.4486 25.6375C42.3377 25.6466 41.2283 25.6375 40.0528 25.6375C39.4779 30.3918 39.4754 35.1964 40.0452 39.9514H42.98C43.0721 38.9738 43.1874 37.9841 43.2519 37.0005C43.4707 33.8731 43.4419 30.7338 43.1659 27.6108C43.1659 27.5351 43.1551 27.4595 43.1536 27.3838C43.1428 26.948 43.318 26.6272 43.7866 26.5984C44.2829 26.5636 44.5226 26.8557 44.5395 27.3278C44.6179 29.5145 44.7608 31.7026 44.7485 33.8893C44.7378 35.7158 44.5564 37.5438 44.4212 39.3688C44.3859 39.8303 44.4105 40.1602 44.8822 40.4401C45.4138 40.7564 45.6505 41.3193 45.6766 41.9383C45.6889 42.1804 45.6766 42.4225 45.6766 42.6692C45.9455 42.7252 46.1713 42.7585 46.3895 42.8205C47.3637 43.0853 48.0797 43.6482 48.3333 44.6364C48.7635 46.2586 49.1599 47.8899 49.5702 49.5167C49.6201 49.6893 49.616 49.8728 49.5584 50.0431C49.5009 50.2135 49.3925 50.3628 49.2475 50.4715C44.8361 54.3681 39.721 56.7848 33.8514 57.664C32.9648 57.7972 32.0721 57.891 31.1824 58.0015L27.7252 58ZM12.7639 20.1686C12.8715 21.2067 13.2249 21.5305 14.2144 21.5305C24.2204 21.5305 34.2263 21.5346 44.2322 21.5426C45.8656 21.5426 45.9701 21.2127 46.2758 19.8614C46.2981 19.7512 46.3105 19.6393 46.3127 19.527C46.3296 19.1078 46.5509 18.905 46.9611 18.7855C47.2008 18.7144 47.4989 18.5176 47.5757 18.3043C47.8615 17.584 47.5942 16.9893 46.8874 16.6125C41.488 13.7373 35.8627 11.3705 30.0899 9.33219C29.7318 9.22162 29.347 9.22799 28.9928 9.35035C27.0153 10.0586 25.024 10.7425 23.0971 11.5688C19.3465 13.1804 15.6311 14.8737 11.9081 16.5519C11.2673 16.841 11.0538 17.5249 11.2935 18.2982C11.4732 18.8884 11.9788 18.7991 12.4351 18.7991H41.7062C42.3838 18.7991 42.6865 19.0125 42.6895 19.4786C42.6926 19.9446 42.3822 20.161 41.7138 20.1671H12.7639V20.1686ZM37.3378 22.9394H33.6501C33.6409 23.1588 33.6286 23.3434 33.624 23.528C33.5917 24.7946 32.7758 25.6072 31.4928 25.636C31.0318 25.6481 30.5709 25.636 30.1099 25.636H27.9849C27.4294 30.3891 27.4294 35.1892 27.9849 39.9423H30.9611C31.0718 38.3367 31.2577 36.7645 31.2685 35.1816C31.293 32.8058 31.2055 30.43 31.1532 28.0527C31.144 27.5987 31.27 27.2627 31.7678 27.1916C32.195 27.1311 32.5038 27.4489 32.5361 27.977C32.5868 28.6928 32.6314 29.4085 32.6575 30.1243C32.798 33.2936 32.6891 36.4688 32.3317 39.6215C32.2964 39.9241 32.3317 40.1314 32.6391 40.3145C32.9404 40.4856 33.1887 40.7344 33.3571 41.0341C33.5255 41.3338 33.6077 41.6731 33.5948 42.0154C33.5948 42.2349 33.5948 42.4528 33.5948 42.6692H37.2825C37.2978 42.3877 37.3086 42.1441 37.324 41.9004C37.3313 41.5774 37.423 41.2617 37.5901 40.9837C37.7572 40.7057 37.9942 40.4748 38.2781 40.313C38.5855 40.133 38.6223 39.9423 38.5855 39.6275C38.4671 38.426 38.3596 37.223 38.2889 36.0184C38.1005 32.625 38.1992 29.2221 38.5839 25.8448C38.5812 25.7525 38.5576 25.6619 38.5148 25.5797C38.472 25.4975 38.4111 25.4257 38.3365 25.3697C38.0227 25.1723 37.7659 24.8986 37.5909 24.5749C37.4159 24.2512 37.3287 23.8886 37.3378 23.522C37.327 23.3358 37.3378 23.1527 37.3378 22.9394ZM21.5652 42.6767H25.2929C25.2929 42.4028 25.2929 42.1622 25.2929 41.9201C25.3082 41.3148 25.5356 40.7564 26.0504 40.4704C26.622 40.1511 26.6097 39.7486 26.5037 39.2462C26.4801 39.0958 26.4652 38.9442 26.4591 38.7922C26.0434 34.5243 26.0773 30.2254 26.5605 25.9644C26.5909 25.8301 26.574 25.6897 26.5126 25.5662C26.4511 25.4427 26.3488 25.3435 26.2225 25.2849C25.9336 25.1156 25.6953 24.8742 25.5316 24.5851C25.3678 24.296 25.2844 23.9695 25.2898 23.6385C25.2898 23.4176 25.2898 23.1966 25.2898 22.9454H21.6144C21.5975 23.1088 21.5775 23.2375 21.5729 23.3661C21.5099 24.9051 20.7478 25.636 19.1974 25.6451C18.2586 25.6451 17.3182 25.6541 16.3794 25.6451C16.0537 25.6451 15.9108 25.7238 15.8723 26.0763C15.4725 29.8138 15.4056 33.5785 15.6726 37.3274C15.7356 38.2051 15.8401 39.0812 15.9261 39.9529H18.8609C19.3015 36.2462 19.3987 32.5076 19.1513 28.7836C19.1191 28.2933 19.0714 27.8045 19.0561 27.3142C19.0438 26.9268 19.2281 26.6529 19.643 26.606C20.0579 26.5591 20.3314 26.777 20.4113 27.1886C20.4343 27.3188 20.4497 27.4501 20.4574 27.582C20.7912 31.6291 20.7351 35.6983 20.2899 39.735C20.291 39.8356 20.3147 39.9348 20.3593 40.0253C20.4039 40.1158 20.4684 40.1955 20.548 40.2586C20.8576 40.4509 21.1127 40.7174 21.2895 41.0331C21.4662 41.3487 21.559 41.7034 21.5591 42.0639C21.5683 42.2606 21.5652 42.4619 21.5652 42.6767ZM38.4134 46.8518H20.3652C20.2269 47.7007 20.1009 48.5164 19.958 49.3366C19.7659 50.4322 19.7598 50.4307 18.632 50.5971C18.486 51.3371 18.337 52.0922 18.1833 52.8776H40.5952C40.4339 52.0937 40.2803 51.3401 40.1158 50.5381H24.1236C23.933 50.5381 23.6964 50.6032 23.5581 50.5169C23.3123 50.3656 23.0065 50.1507 22.9435 49.9116C22.8405 49.5424 23.1263 49.276 23.5089 49.1973C23.6989 49.1728 23.8909 49.1672 24.0821 49.1807H38.7821C38.65 48.3741 38.5347 47.6342 38.4134 46.8518ZM11.756 45.4082H47.041C47.0532 45.3469 47.0568 45.2843 47.0518 45.222C46.8797 44.4064 46.3711 44.075 45.2802 44.075H13.5383C13.3465 44.0676 13.1544 44.0747 12.9637 44.0962C12.2246 44.2187 11.8589 44.6061 11.756 45.4082ZM41.9935 52.752C43.1198 53.3301 43.8773 52.7444 44.6256 52.2178C45.6843 51.4748 46.7076 50.6864 47.757 49.9328C47.897 49.8535 48.0036 49.7277 48.0577 49.5778C48.1118 49.428 48.1098 49.2641 48.0521 49.1156C47.8846 48.5179 47.7448 47.905 47.6311 47.2997C47.5604 46.9033 47.3775 46.7988 46.978 46.8019C44.7777 46.8231 42.5774 46.811 40.3709 46.814C40.205 46.814 40.039 46.8321 39.8224 46.8458L40.1788 49.1383C41.2237 49.2246 41.2621 49.2518 41.4665 50.2097C41.6601 51.0919 41.8352 51.9742 41.9935 52.752ZM11.2996 46.8382C11.1183 47.5948 10.9585 48.3514 10.7511 49.0945C10.6986 49.2247 10.6954 49.3692 10.7419 49.5017C10.7884 49.6341 10.8816 49.7457 11.0046 49.8163C12.2584 50.7136 13.5199 51.6019 14.7491 52.531C15.3853 53.0107 16.0414 53.0546 16.7728 52.8231C16.9264 52.015 17.0985 51.2024 17.2506 50.3868C17.455 49.2927 17.4504 49.2912 18.5889 49.1081C18.7027 48.3726 18.8194 47.6221 18.9393 46.8382H11.2996ZM40.4523 54.2925H18.4476C25.7758 57.3069 33.1108 57.3069 40.4523 54.2925ZM20.1086 22.9469H14.6462C14.5494 24.097 14.7046 24.2695 15.7971 24.271H19.0146C20.0763 24.2695 20.2822 24.0198 20.1086 22.9469ZM32.1827 22.9469H26.7265C26.5805 24.0743 26.7541 24.2771 27.8312 24.2771H31.0487C32.1443 24.2695 32.2995 24.0925 32.1827 22.9394V22.9469ZM44.2522 22.9469H38.7944C38.6039 24.0153 38.8252 24.2786 39.8792 24.2786H43.0967C44.1938 24.2695 44.3505 24.0925 44.2522 22.9379V22.9469ZM26.7234 42.6707H32.1981C32.2764 41.4782 32.1504 41.3436 30.9888 41.3436H27.8819C26.7464 41.3436 26.582 41.5267 26.7234 42.6707ZM14.6462 42.6843H20.1055C20.2899 41.6084 20.0748 41.3451 19.0422 41.3436H15.8262C14.7046 41.3436 14.5478 41.5146 14.6462 42.6843ZM38.7698 42.6722H44.2522C44.3383 41.5115 44.1815 41.3436 43.0522 41.3436H39.9069C38.8221 41.3436 38.6623 41.5221 38.7622 42.6722H38.7698Z" fill="#36E7FF"/>
<path d="M4.16059e-05 27.1871C0.153695 26.1279 0.265863 25.0565 0.461003 24.0017C1.5965 17.6854 4.54973 12.3255 9.25922 7.89919C9.60648 7.57233 9.95988 7.41495 10.3655 7.75846C10.7112 8.05203 10.6652 8.47423 10.2288 8.88129C7.89785 11.0528 5.91725 13.4997 4.50363 16.3386C-0.115199 25.6149 0.298129 34.7095 5.63606 43.5953C5.77281 43.8223 5.92954 44.0372 6.06783 44.2642C6.34748 44.7257 6.2937 45.1495 5.91418 45.3447C5.47166 45.5701 5.15666 45.387 4.90006 45.0057C3.65662 43.1653 2.63121 41.1908 1.84389 39.1207C0.881954 36.5934 0.292094 33.9436 0.0922348 31.2517C0.070812 31.1037 0.0379369 30.9575 -0.00610352 30.8144L4.16059e-05 27.1871Z" fill="#36E7FF"/>
<path d="M59.003 29.5403C58.7448 35.0712 57.1853 40.1664 54.1337 44.8105C53.7987 45.322 53.433 45.4537 53.0581 45.2176C52.6832 44.9815 52.634 44.5911 52.9967 44.0373C55.3685 40.4525 56.8474 36.3668 57.3128 32.1128C58.0626 25.3576 56.5445 19.12 52.6525 13.5195C48.1381 7.01247 41.8737 3.05985 33.982 1.73878C28.1508 0.761221 22.5379 1.59805 17.1968 4.12972C17.0248 4.21144 16.8557 4.29921 16.6852 4.38395C16.2626 4.5958 15.877 4.55495 15.6557 4.12216C15.4344 3.68937 15.6327 3.34132 16.066 3.16275C17.5472 2.55745 18.9931 1.81445 20.5219 1.37863C31.7079 -1.79921 41.6432 0.470669 50.0972 8.36985C54.8313 12.7946 57.597 18.3286 58.5482 24.6994C58.794 26.3049 58.857 27.9302 59.003 29.5403Z" fill="#36E7FF"/>
<path d="M39.9731 16.3916C39.6658 16.2811 39.4614 16.2191 39.2678 16.1434C36.2316 14.9464 33.1954 13.754 30.1653 12.5419C29.9762 12.4581 29.7712 12.4147 29.5638 12.4147C29.3564 12.4147 29.1514 12.4581 28.9622 12.5419C25.9168 13.7616 22.8606 14.9631 19.806 16.1586C19.6308 16.2282 19.4111 16.3508 19.2667 16.3008C19.0085 16.2085 18.6797 16.0481 18.5906 15.8317C18.5153 15.6471 18.6935 15.3172 18.8395 15.1053C18.9317 14.9722 19.1683 14.9328 19.3466 14.8632C22.3981 13.6526 25.4543 12.4602 28.5013 11.2405C28.8235 11.0982 29.172 11.0227 29.5251 11.0185C29.8782 11.0143 30.2285 11.0816 30.5541 11.2163C33.6548 12.4556 36.7632 13.6738 39.8686 14.9026C40.0222 14.9646 40.2481 15.013 40.3142 15.1341C40.4371 15.3596 40.5708 15.6637 40.5078 15.8801C40.4448 16.0965 40.1452 16.2403 39.9731 16.3916Z" fill="#36E7FF"/>
</g>
<defs>
<clipPath id="clip0_1_1226">
<rect width="59" height="58" fill="white"/>
</clipPath>
</defs>
</svg>
