<svg width="65" height="60" viewBox="0 0 65 60" fill="none" xmlns="http://www.w3.org/2000/svg">
<g clip-path="url(#clip0_189_5646)">
<path d="M45.1795 38.3925V31.4852H44.394C42.09 31.4852 39.786 31.5061 37.4838 31.4663C37.1071 31.4663 36.5419 31.2766 36.4308 31.0169C36.3045 30.7003 36.4646 30.1352 36.6982 29.8281C38.4653 27.4922 40.2777 25.1942 42.0805 22.8829C42.22 22.7047 42.3443 22.5151 42.5591 22.2136H38.4314C38.0792 22.2136 37.7137 22.2705 37.3784 22.1909C37.0901 22.1226 36.6945 21.9557 36.6041 21.7282C36.4986 21.4628 36.6549 21.0798 36.7378 20.7575C36.7699 20.6342 36.9149 20.5413 37.0072 20.4351C39.0343 18.0992 41.062 15.7608 43.0903 13.4198C43.2241 13.2643 43.3409 13.0956 43.5613 12.8093C42.7437 12.8093 42.0542 12.8567 41.3609 12.7884C41.0312 12.7562 40.5791 12.5818 40.4453 12.3296C40.3116 12.0774 40.4058 11.5712 40.5885 11.3152C42.8492 8.13618 45.1255 4.97171 47.4176 1.82176C47.9206 1.12971 48.5028 1.13919 49.0114 1.84072C51.2846 4.97676 53.5453 8.12165 55.7934 11.2754C55.9818 11.5427 56.1175 12.0603 55.9818 12.2917C55.8273 12.5628 55.362 12.7486 55.0116 12.7884C54.3466 12.8643 53.6665 12.8093 52.8187 12.8093C53.1032 13.1525 53.2841 13.3781 53.4762 13.6037C55.4719 15.9055 57.4688 18.206 59.467 20.5053C59.776 20.8598 60.0529 21.2144 59.8438 21.7055C59.6347 22.1965 59.1656 22.2117 58.7135 22.2098C57.1442 22.2098 55.573 22.2098 53.8662 22.2098C54.0546 22.4885 54.1714 22.6781 54.3051 22.8507C56.0634 25.107 57.8217 27.3613 59.58 29.6138C59.6663 29.6944 59.7372 29.7901 59.7892 29.8963C59.889 30.2585 60.1283 30.7078 60.002 30.9714C59.8758 31.2349 59.3766 31.453 59.0375 31.4606C56.7109 31.5004 54.3843 31.4814 52.0671 31.4814H51.2495C51.2306 31.781 51.2061 32.0085 51.2061 32.2398C51.2061 34.7047 51.2212 37.1695 51.1911 39.6344C51.1911 40.1823 51.3681 40.3928 51.8768 40.5824C54.7799 41.61 57.6302 42.7647 60.2903 44.3517C61.6712 45.1746 62.9936 46.0771 63.9959 47.3683C65.503 49.3231 65.3504 51.2874 63.3459 52.7265C62.1327 53.5723 60.8106 54.2478 59.4161 54.7344C52.3347 57.2819 44.964 58.9265 37.4763 59.6299C28.4751 60.4888 19.5982 59.9238 10.9021 57.3035C9.7747 56.979 8.6753 56.5631 7.61471 56.0597C5.44258 54.9922 4.78885 53.5664 5.24287 51.1831C5.45952 50.0455 5.66487 48.9079 5.29374 47.7437C4.93392 46.6175 4.26326 45.7908 3.15553 45.3528C3.08959 45.3263 3.0293 45.2921 2.96714 45.2637C0.0320292 44.0161 -0.800659 41.4546 0.840213 38.6276C1.51653 37.4615 2.53572 36.6784 3.71315 36.085C5.91166 34.9739 8.28349 34.5208 10.6986 34.2705C16.4652 33.6694 22.1904 34.151 27.9155 34.9076C33.6188 35.6645 39.2637 36.815 44.8103 38.3507C44.9321 38.3746 45.0556 38.3885 45.1795 38.3925ZM29.9746 58.3956C32.5047 58.2307 35.0404 58.1207 37.5649 57.8894C44.9343 57.1926 52.1861 55.5578 59.1467 53.0242C60.1844 52.6514 61.1757 52.159 62.1007 51.5566C63.5494 50.6086 63.6756 49.4331 62.4624 48.1987C61.6859 47.4097 60.8204 46.7148 59.8833 46.1283C56.5903 44.0692 52.9826 42.7154 49.3203 41.5095C42.8695 39.3993 36.252 37.8453 29.5395 36.8643C23.8388 36.0129 18.1136 35.4536 12.3376 35.8385C9.88856 36.0016 7.45268 36.267 5.19766 37.2852C4.24244 37.7249 3.37139 38.3301 2.62425 39.0731C1.74824 39.9377 1.6597 41.1588 1.8707 42.34C2.04025 43.307 2.9822 43.4018 3.68866 43.7127C6.01527 44.7385 7.29067 46.7312 7.17575 49.344C7.10892 50.2643 6.99131 51.1803 6.82346 52.0875C6.68029 52.9862 6.961 53.7181 7.72963 54.1485C8.54179 54.6179 9.39653 55.0084 10.2823 55.3146C16.6743 57.4211 23.2623 58.2838 29.9746 58.3956ZM39.2378 20.4636C39.59 20.4825 39.8029 20.5053 40.0365 20.5053C41.3289 20.5053 42.6231 20.4693 43.9136 20.5299C44.3073 20.547 44.8781 20.7404 45.0194 21.0267C45.1607 21.313 44.9648 21.897 44.7312 22.206C42.9339 24.578 41.0896 26.9139 39.2679 29.265C39.1624 29.3996 39.0795 29.5551 38.9608 29.7503H57.4964C57.3081 29.4887 57.18 29.301 57.0406 29.1228C55.2414 26.8115 53.4254 24.5135 51.6583 22.1776C51.4265 21.8723 51.2815 21.2997 51.4021 20.9888C51.5132 20.7252 52.0859 20.5432 52.4608 20.528C53.821 20.4749 55.1868 20.5091 56.5489 20.5034C56.7441 20.4908 56.9385 20.4667 57.131 20.4313C56.9181 20.1716 56.773 19.9877 56.6204 19.8113C54.6109 17.4919 52.5977 15.1749 50.5807 12.8605C50.2566 12.4813 49.8836 12.0585 50.2227 11.6205C50.4469 11.3304 50.9556 11.1749 51.3531 11.1313C52.052 11.0535 52.766 11.1085 53.6137 11.1085L48.2145 3.62488L42.8172 11.1085C43.6875 11.1085 44.4109 11.0479 45.1174 11.1332C45.5074 11.1787 46.0292 11.3778 46.1931 11.6773C46.3268 11.9162 46.114 12.4945 45.8804 12.7732C44.2546 14.7072 42.5835 16.6032 40.9295 18.5125C40.3869 19.1307 39.8557 19.7582 39.2415 20.4636H39.2378ZM49.4372 39.7235V31.5402H46.9052C46.9052 33.9387 46.9052 36.2803 46.9184 38.6238C46.9277 38.7087 46.9572 38.7901 47.0044 38.861C47.0517 38.932 47.1152 38.9905 47.1897 39.0314C47.9206 39.2874 48.6629 39.4884 49.4409 39.7235H49.4372Z" fill="#36E7FF"/>
<path d="M14.3968 12.5224C15.9039 11.089 17.6522 10.505 19.6717 10.9942C20.8587 11.2883 21.9113 11.9793 22.6571 12.9542C23.4029 13.929 23.7976 15.1298 23.7767 16.36C23.7554 16.5641 23.7986 16.7697 23.9001 16.9477C24.0015 17.1257 24.1561 17.267 24.3419 17.3516C25.333 17.9394 26.1108 18.8314 26.5614 19.8967C27.012 20.962 27.1116 22.1446 26.8456 23.271C26.2804 25.6638 24.3155 27.4006 21.8665 27.4594C18.3436 27.5428 14.8188 27.4954 11.294 27.5011C9.41015 27.5011 7.52626 27.5314 5.65367 27.5011C2.40207 27.4385 0.0434325 25.0154 0.116904 21.8642C0.179073 19.1756 2.28715 16.8643 4.94344 16.6254C5.47093 16.578 5.68569 16.4358 5.78176 15.867C6.39215 12.219 10.5367 10.2908 13.7563 12.1242C13.9447 12.2304 14.1387 12.3631 14.3968 12.5224ZM13.5585 25.7946V25.7833C16.26 25.7833 18.9615 25.825 21.6592 25.77C22.5274 25.7649 23.3649 25.4457 24.0186 24.8706C24.6723 24.2955 25.0986 23.503 25.2198 22.6377C25.4967 20.7853 24.5416 19.1566 22.7707 18.4778C21.9625 18.1688 21.8288 17.9356 21.9833 17.088C22.3111 15.2584 21.4878 13.6069 19.879 12.8732C18.2701 12.1394 16.4879 12.602 15.3463 14.0639C14.7472 14.8223 14.3912 14.8564 13.6791 14.1947C12.4715 13.0722 10.9305 12.803 9.50811 13.4647C8.08577 14.1264 7.2625 15.5352 7.3567 17.2075C7.40379 18.0645 7.07977 18.3963 6.25274 18.3451C6.11145 18.3451 5.97204 18.3129 5.83263 18.3015C5.30426 18.2537 4.77183 18.3201 4.27106 18.4964C3.77029 18.6727 3.31277 18.9547 2.92918 19.3235C2.54558 19.6923 2.24479 20.1394 2.04698 20.6349C1.84917 21.1303 1.75891 21.6626 1.78226 22.196C1.85008 24.2361 3.47777 25.7719 5.65367 25.7984C8.29677 25.825 10.9267 25.7946 13.5585 25.7946Z" fill="#36E7FF"/>
<path d="M23.6221 6.20767C23.6291 4.55492 24.2879 2.9726 25.4537 1.80855C26.6194 0.644505 28.1968 -0.00600513 29.839 4.17832e-05C31.4793 0.0130491 33.048 0.678002 34.2033 1.84999C35.3586 3.02199 36.0069 4.60602 36.0068 6.25695C36.0046 7.08055 35.8408 7.8956 35.525 8.65536C35.2091 9.41512 34.7472 10.1046 34.166 10.6844C33.5847 11.2641 32.8955 11.7226 32.1377 12.0336C31.38 12.3446 30.5687 12.5021 29.7504 12.4968C28.1092 12.4803 26.5417 11.8085 25.3925 10.6292C24.2433 9.44981 23.6065 7.85943 23.6221 6.20767ZM29.839 10.7942C31.0263 10.7802 32.1606 10.2967 32.9967 9.44813C33.8328 8.59953 34.3037 7.45394 34.3075 6.25885C34.3051 5.05276 33.8279 3.89679 32.9805 3.04395C32.1331 2.19111 30.9846 1.71088 29.7862 1.70837C29.192 1.71328 28.6046 1.83669 28.058 2.07146C27.5115 2.30622 27.0166 2.64768 26.6019 3.07611C26.1873 3.50454 25.8611 4.01143 25.6423 4.56749C25.4235 5.12355 25.3163 5.71774 25.327 6.31573C25.3384 7.50912 25.8182 8.64958 26.6616 9.48849C27.505 10.3274 28.6437 10.7967 29.8295 10.7942H29.839Z" fill="#36E7FF"/>
<path d="M31.0183 55.7711C24.3286 55.8583 17.7614 55.06 11.358 53.0465C9.28573 52.398 9.26689 52.398 9.60787 50.2631C10.0506 47.4778 8.70738 43.2667 5.30318 41.7177C5.01494 41.5868 4.66264 41.1659 4.67771 40.9005C4.69844 40.5819 5.01493 40.1686 5.31636 39.998C6.89883 39.1049 8.64897 38.7409 10.4292 38.538C15.7155 37.9351 20.9791 38.2612 26.2389 38.9324C32.785 39.7559 39.2562 41.0987 45.5921 42.9482C49.9251 44.2204 54.1639 45.7391 58.1238 47.9556C58.5366 48.1818 58.936 48.4319 59.3201 48.7045C60.0548 49.2354 59.9964 50.0109 59.1562 50.3351C57.7772 50.8679 56.3793 51.3552 54.972 51.8046C47.2241 54.3027 39.153 55.6392 31.0183 55.7711ZM11.2374 51.1808C11.4032 51.2452 11.5313 51.3021 11.6632 51.3457C16.7252 52.9934 21.9323 53.8106 27.2317 54.0172C37.1523 54.3964 46.7846 52.7962 56.1796 49.6241C56.4302 49.5388 56.677 49.4345 56.9332 49.3454L56.9822 49.0724C54.4031 48.0182 51.8542 46.873 49.2356 45.9306C42.8737 43.6402 36.2951 42.1974 29.6431 41.1375C23.7616 40.1895 17.8518 39.6206 11.8893 40.1117C10.4123 40.2368 8.95039 40.5535 7.48095 40.781C10.6817 43.6478 11.7725 47.1138 11.2356 51.1808H11.2374Z" fill="#36E7FF"/>
<path d="M28.4109 46.0818C28.5428 45.9586 28.7613 45.5794 29.0476 45.513C32.3991 44.7755 35.5772 45.1338 38.4671 47.1626C38.8835 47.4546 39.0323 47.8755 38.7328 48.3324C38.4332 48.7894 37.9622 48.869 37.5082 48.5524C35.0592 46.8459 32.3407 46.6032 29.4904 47.1152C28.8442 47.2327 28.4203 46.8971 28.4109 46.0818Z" fill="#36E7FF"/>
</g>
<defs>
<clipPath id="clip0_189_5646">
<rect width="65" height="60" fill="white"/>
</clipPath>
</defs>
</svg>
