<svg width="407" height="45" viewBox="0 0 407 45" fill="none" xmlns="http://www.w3.org/2000/svg">
<mask id="path-1-outside-1_323_7270" maskUnits="userSpaceOnUse" x="-1" y="-1" width="409" height="47" fill="black">
<rect fill="white" x="-1" y="-1" width="409" height="47"/>
<path d="M0.83125 45V0.199997H38.2713V9.992H13.3113V17.224H24.8953C30.3566 17.224 34.5166 18.376 37.3753 20.68C40.2766 22.984 41.7273 26.312 41.7273 30.664C41.7273 35.144 40.1059 38.664 36.8633 41.224C33.6206 43.7413 29.0766 45 23.2313 45H0.83125ZM13.3113 35.912H22.3993C24.4899 35.912 26.0899 35.4853 27.1993 34.632C28.3513 33.7787 28.9272 32.5627 28.9272 30.984C28.9272 27.8267 26.7513 26.248 22.3993 26.248H13.3113V35.912ZM43.3513 45L63.1273 0.199997H75.6073L95.4473 45H82.2633L66.7753 6.408H71.7673L56.2793 45H43.3513ZM54.1673 36.296L57.4313 26.952H79.3193L82.5833 36.296H54.1673ZM127.525 34.952L124.773 37.768V0.199997H137.253V37.768L134.373 34.952H151.717L148.837 37.768V0.199997H161.317V45H100.581V0.199997H113.061V37.768L110.309 34.952H127.525ZM199.182 45L186.574 23.688L196.75 17.672L213.454 45H199.182ZM170.638 45V0.199997H183.246V45H170.638ZM179.598 27.848V17.608H195.854V27.848H179.598ZM197.966 23.944L186.254 22.664L200.014 0.199997H213.326L197.966 23.944ZM217.519 45V0.199997H229.999V26.504L248.495 0.199997H260.399V45H247.919V18.76L229.487 45H217.519ZM270.019 45V0.199997H290.499C294.595 0.199997 298.115 0.861331 301.059 2.184C304.045 3.50667 306.349 5.42666 307.971 7.944C309.592 10.4187 310.403 13.3627 310.403 16.776C310.403 20.1467 309.592 23.0693 307.971 25.544C306.349 28.0187 304.045 29.9387 301.059 31.304C298.115 32.6267 294.595 33.288 290.499 33.288H277.059L282.691 27.784V45H270.019ZM282.691 29.128L277.059 23.304H289.731C292.376 23.304 294.339 22.728 295.619 21.576C296.941 20.424 297.603 18.824 297.603 16.776C297.603 14.6853 296.941 13.064 295.619 11.912C294.339 10.76 292.376 10.184 289.731 10.184H277.059L282.691 4.36V29.128ZM316.144 45V0.199997H328.624V26.504L347.12 0.199997H359.024V45H346.544V18.76L328.112 45H316.144ZM393.668 45V31.112L396.676 33.736H385.348C381.337 33.736 377.881 33.0747 374.98 31.752C372.078 30.4293 369.838 28.5307 368.26 26.056C366.724 23.5813 365.956 20.6373 365.956 17.224C365.956 13.6827 366.766 10.6533 368.388 8.136C370.052 5.576 372.377 3.61333 375.364 2.248C378.393 0.882664 381.934 0.199997 385.988 0.199997H406.148V45H393.668ZM366.084 45L377.284 28.808H390.02L379.396 45H366.084ZM393.668 27.08V7.048L396.676 10.184H386.244C383.769 10.184 381.892 10.76 380.612 11.912C379.374 13.0213 378.756 14.728 378.756 17.032C378.756 19.2933 379.374 21.0213 380.612 22.216C381.892 23.368 383.726 23.944 386.116 23.944H396.676L393.668 27.08Z"/>
</mask>
<path d="M0.83125 45H-0.16875V46H0.83125V45ZM0.83125 0.199997V-0.800003H-0.16875V0.199997H0.83125ZM38.2713 0.199997H39.2713V-0.800003H38.2713V0.199997ZM38.2713 9.992V10.992H39.2713V9.992H38.2713ZM13.3113 9.992V8.992H12.3113V9.992H13.3113ZM13.3113 17.224H12.3113V18.224H13.3113V17.224ZM37.3753 20.68L36.7477 21.4586L36.7534 21.4631L37.3753 20.68ZM36.8633 41.224L37.4765 42.0139L37.4829 42.0089L36.8633 41.224ZM13.3113 35.912H12.3113V36.912H13.3113V35.912ZM27.1993 34.632L26.604 33.8284L26.5967 33.8338L26.5895 33.8394L27.1993 34.632ZM13.3113 26.248V25.248H12.3113V26.248H13.3113ZM1.83125 45V0.199997H-0.16875V45H1.83125ZM0.83125 1.2H38.2713V-0.800003H0.83125V1.2ZM37.2713 0.199997V9.992H39.2713V0.199997H37.2713ZM38.2713 8.992H13.3113V10.992H38.2713V8.992ZM12.3113 9.992V17.224H14.3113V9.992H12.3113ZM13.3113 18.224H24.8953V16.224H13.3113V18.224ZM24.8953 18.224C30.2353 18.224 34.1353 19.3531 36.7477 21.4586L38.0028 19.9014C34.8978 17.3989 30.4778 16.224 24.8953 16.224V18.224ZM36.7534 21.4631C39.3727 23.5432 40.7273 26.5574 40.7273 30.664H42.7273C42.7273 26.0666 41.1805 22.4248 37.9971 19.8969L36.7534 21.4631ZM40.7273 30.664C40.7273 34.8676 39.2237 38.0864 36.2436 40.4391L37.4829 42.0089C40.9881 39.2416 42.7273 35.4204 42.7273 30.664H40.7273ZM36.25 40.4341C33.2435 42.7681 28.9462 44 23.2313 44V46C29.207 46 33.9976 44.7146 37.4765 42.0139L36.25 40.4341ZM23.2313 44H0.83125V46H23.2313V44ZM13.3113 36.912H22.3993V34.912H13.3113V36.912ZM22.3993 36.912C24.6065 36.912 26.4572 36.4644 27.809 35.4246L26.5895 33.8394C25.7226 34.5062 24.3734 34.912 22.3993 34.912V36.912ZM27.7945 35.4356C29.2295 34.3726 29.9272 32.8424 29.9272 30.984H27.9272C27.9272 32.2829 27.473 33.1847 26.604 33.8284L27.7945 35.4356ZM29.9272 30.984C29.9272 29.1486 29.2773 27.6345 27.8825 26.6226C26.5472 25.6539 24.6664 25.248 22.3993 25.248V27.248C24.4841 27.248 25.8673 27.6315 26.708 28.2414C27.4892 28.8081 27.9272 29.662 27.9272 30.984H29.9272ZM22.3993 25.248H13.3113V27.248H22.3993V25.248ZM12.3113 26.248V35.912H14.3113V26.248H12.3113ZM43.3513 45L42.4364 44.5962L41.8167 46H43.3513V45ZM63.1273 0.199997V-0.800003H62.4756L62.2124 -0.203836L63.1273 0.199997ZM75.6073 0.199997L76.5216 -0.204929L76.2581 -0.800003H75.6073V0.199997ZM95.4473 45V46H96.9838L96.3616 44.5951L95.4473 45ZM82.2633 45L81.3352 45.3725L81.5871 46H82.2633V45ZM66.7753 6.408V5.408H65.2964L65.8472 6.78045L66.7753 6.408ZM71.7673 6.408L72.6953 6.78045L73.2461 5.408H71.7673V6.408ZM56.2793 45V46H56.9555L57.2073 45.3725L56.2793 45ZM54.1673 36.296L53.2232 35.9662L52.7587 37.296H54.1673V36.296ZM57.4313 26.952V25.952H56.7213L56.4872 26.6222L57.4313 26.952ZM79.3193 26.952L80.2633 26.6222L80.0292 25.952H79.3193V26.952ZM82.5833 36.296V37.296H83.9918L83.5273 35.9662L82.5833 36.296ZM44.2661 45.4038L64.0421 0.60383L62.2124 -0.203836L42.4364 44.5962L44.2661 45.4038ZM63.1273 1.2H75.6073V-0.800003H63.1273V1.2ZM74.6929 0.604923L94.5329 45.4049L96.3616 44.5951L76.5216 -0.204929L74.6929 0.604923ZM95.4473 44H82.2633V46H95.4473V44ZM83.1913 44.6275L67.7033 6.03555L65.8472 6.78045L81.3352 45.3725L83.1913 44.6275ZM66.7753 7.408H71.7673V5.408H66.7753V7.408ZM70.8392 6.03555L55.3512 44.6275L57.2073 45.3725L72.6953 6.78045L70.8392 6.03555ZM56.2793 44H43.3513V46H56.2793V44ZM55.1113 36.6258L58.3753 27.2818L56.4872 26.6222L53.2232 35.9662L55.1113 36.6258ZM57.4313 27.952H79.3193V25.952H57.4313V27.952ZM78.3752 27.2818L81.6392 36.6258L83.5273 35.9662L80.2633 26.6222L78.3752 27.2818ZM82.5833 35.296H54.1673V37.296H82.5833V35.296ZM127.525 34.952L128.24 35.6509L129.901 33.952H127.525V34.952ZM124.773 37.768H123.773V40.222L125.488 38.4669L124.773 37.768ZM124.773 0.199997V-0.800003H123.773V0.199997H124.773ZM137.253 0.199997H138.253V-0.800003H137.253V0.199997ZM137.253 37.768L136.554 38.483L138.253 40.1444V37.768H137.253ZM134.373 34.952V33.952H131.92L133.674 35.667L134.373 34.952ZM151.717 34.952L152.416 35.667L154.17 33.952H151.717V34.952ZM148.837 37.768H147.837V40.1444L149.536 38.483L148.837 37.768ZM148.837 0.199997V-0.800003H147.837V0.199997H148.837ZM161.317 0.199997H162.317V-0.800003H161.317V0.199997ZM161.317 45V46H162.317V45H161.317ZM100.581 45H99.5813V46H100.581V45ZM100.581 0.199997V-0.800003H99.5813V0.199997H100.581ZM113.061 0.199997H114.061V-0.800003H113.061V0.199997ZM113.061 37.768L112.346 38.4669L114.061 40.222V37.768H113.061ZM110.309 34.952V33.952H107.934L109.594 35.6509L110.309 34.952ZM126.81 34.2531L124.058 37.0691L125.488 38.4669L128.24 35.6509L126.81 34.2531ZM125.773 37.768V0.199997H123.773V37.768H125.773ZM124.773 1.2H137.253V-0.800003H124.773V1.2ZM136.253 0.199997V37.768H138.253V0.199997H136.253ZM137.952 37.053L135.072 34.237L133.674 35.667L136.554 38.483L137.952 37.053ZM134.373 35.952H151.717V33.952H134.373V35.952ZM151.018 34.237L148.138 37.053L149.536 38.483L152.416 35.667L151.018 34.237ZM149.837 37.768V0.199997H147.837V37.768H149.837ZM148.837 1.2H161.317V-0.800003H148.837V1.2ZM160.317 0.199997V45H162.317V0.199997H160.317ZM161.317 44H100.581V46H161.317V44ZM101.581 45V0.199997H99.5813V45H101.581ZM100.581 1.2H113.061V-0.800003H100.581V1.2ZM112.061 0.199997V37.768H114.061V0.199997H112.061ZM113.776 37.0691L111.024 34.2531L109.594 35.6509L112.346 38.4669L113.776 37.0691ZM110.309 35.952H127.525V33.952H110.309V35.952ZM199.182 45L198.321 45.5092L198.611 46H199.182V45ZM186.574 23.688L186.065 22.8272L185.204 23.3362L185.713 24.1972L186.574 23.688ZM196.75 17.672L197.603 17.1505L197.089 16.3097L196.241 16.8112L196.75 17.672ZM213.454 45V46H215.237L214.307 44.4785L213.454 45ZM170.638 45H169.638V46H170.638V45ZM170.638 0.199997V-0.800003H169.638V0.199997H170.638ZM183.246 0.199997H184.246V-0.800003H183.246V0.199997ZM183.246 45V46H184.246V45H183.246ZM179.598 27.848H178.598V28.848H179.598V27.848ZM179.598 17.608V16.608H178.598V17.608H179.598ZM195.854 17.608H196.854V16.608H195.854V17.608ZM195.854 27.848V28.848H196.854V27.848H195.854ZM197.966 23.944L197.857 24.9381L198.47 25.0051L198.805 24.4872L197.966 23.944ZM186.254 22.664L185.401 22.1417L184.577 23.4867L186.145 23.6581L186.254 22.664ZM200.014 0.199997V-0.800003H199.454L199.161 -0.322337L200.014 0.199997ZM213.326 0.199997L214.165 0.743154L215.164 -0.800003H213.326V0.199997ZM200.042 44.4908L187.434 23.1788L185.713 24.1972L198.321 45.5092L200.042 44.4908ZM187.083 24.5488L197.259 18.5328L196.241 16.8112L186.065 22.8272L187.083 24.5488ZM195.897 18.1935L212.601 45.5215L214.307 44.4785L197.603 17.1505L195.897 18.1935ZM213.454 44H199.182V46H213.454V44ZM171.638 45V0.199997H169.638V45H171.638ZM170.638 1.2H183.246V-0.800003H170.638V1.2ZM182.246 0.199997V45H184.246V0.199997H182.246ZM183.246 44H170.638V46H183.246V44ZM180.598 27.848V17.608H178.598V27.848H180.598ZM179.598 18.608H195.854V16.608H179.598V18.608ZM194.854 17.608V27.848H196.854V17.608H194.854ZM195.854 26.848H179.598V28.848H195.854V26.848ZM198.074 22.9499L186.362 21.6699L186.145 23.6581L197.857 24.9381L198.074 22.9499ZM187.106 23.1863L200.866 0.722331L199.161 -0.322337L185.401 22.1417L187.106 23.1863ZM200.014 1.2H213.326V-0.800003H200.014V1.2ZM212.486 -0.34316L197.126 23.4008L198.805 24.4872L214.165 0.743154L212.486 -0.34316ZM217.519 45H216.519V46H217.519V45ZM217.519 0.199997V-0.800003H216.519V0.199997H217.519ZM229.999 0.199997H230.999V-0.800003H229.999V0.199997ZM229.999 26.504H228.999V29.6647L230.817 27.0792L229.999 26.504ZM248.495 0.199997V-0.800003H247.975L247.677 -0.375201L248.495 0.199997ZM260.399 0.199997H261.399V-0.800003H260.399V0.199997ZM260.399 45V46H261.399V45H260.399ZM247.919 45H246.919V46H247.919V45ZM247.919 18.76H248.919V15.5967L247.1 18.1852L247.919 18.76ZM229.487 45V46H230.006L230.305 45.5748L229.487 45ZM218.519 45V0.199997H216.519V45H218.519ZM217.519 1.2H229.999V-0.800003H217.519V1.2ZM228.999 0.199997V26.504H230.999V0.199997H228.999ZM230.817 27.0792L249.313 0.775194L247.677 -0.375201L229.181 25.9288L230.817 27.0792ZM248.495 1.2H260.399V-0.800003H248.495V1.2ZM259.399 0.199997V45H261.399V0.199997H259.399ZM260.399 44H247.919V46H260.399V44ZM248.919 45V18.76H246.919V45H248.919ZM247.1 18.1852L228.668 44.4252L230.305 45.5748L248.737 19.3348L247.1 18.1852ZM229.487 44H217.519V46H229.487V44ZM270.019 45H269.019V46H270.019V45ZM270.019 0.199997V-0.800003H269.019V0.199997H270.019ZM301.059 2.184L300.649 3.09618L300.654 3.09835L301.059 2.184ZM307.971 7.944L307.13 8.48549L307.134 8.49202L307.971 7.944ZM307.971 25.544L307.134 24.996L307.134 24.996L307.971 25.544ZM301.059 31.304L301.469 32.2162L301.475 32.2135L301.059 31.304ZM277.059 33.288L276.36 32.5728L274.605 34.288H277.059V33.288ZM282.691 27.784H283.691V25.4085L281.992 27.0688L282.691 27.784ZM282.691 45V46H283.691V45H282.691ZM282.691 29.128L281.972 29.8232L283.691 31.6006V29.128H282.691ZM277.059 23.304V22.304H274.701L276.34 23.9992L277.059 23.304ZM295.619 21.576L294.962 20.8219L294.956 20.8273L294.95 20.8327L295.619 21.576ZM295.619 11.912L294.95 12.6553L294.956 12.6607L294.962 12.6661L295.619 11.912ZM277.059 10.184L276.34 9.48884L274.701 11.184H277.059V10.184ZM282.691 4.36H283.691V1.88738L281.972 3.66484L282.691 4.36ZM271.019 45V0.199997H269.019V45H271.019ZM270.019 1.2H290.499V-0.800003H270.019V1.2ZM290.499 1.2C294.49 1.2 297.864 1.84475 300.649 3.09617L301.469 1.27183C298.366 -0.122092 294.699 -0.800003 290.499 -0.800003V1.2ZM300.654 3.09835C303.479 4.34943 305.624 6.14721 307.13 8.48547L308.811 7.40252C307.075 4.70612 304.612 2.6639 301.464 1.26965L300.654 3.09835ZM307.134 8.49202C308.633 10.7799 309.403 13.5267 309.403 16.776H311.403C311.403 13.1987 310.551 10.0574 308.807 7.39597L307.134 8.49202ZM309.403 16.776C309.403 19.9799 308.635 22.706 307.134 24.996L308.807 26.092C310.55 23.4326 311.403 20.3135 311.403 16.776H309.403ZM307.134 24.996C305.627 27.2959 303.478 29.0987 300.643 30.3945L301.475 32.2135C304.613 30.7786 307.071 28.7414 308.807 26.092L307.134 24.996ZM300.649 30.3918C297.864 31.6432 294.49 32.288 290.499 32.288V34.288C294.699 34.288 298.366 33.6101 301.469 32.2162L300.649 30.3918ZM290.499 32.288H277.059V34.288H290.499V32.288ZM277.758 34.0032L283.39 28.4992L281.992 27.0688L276.36 32.5728L277.758 34.0032ZM281.691 27.784V45H283.691V27.784H281.691ZM282.691 44H270.019V46H282.691V44ZM283.41 28.4328L277.778 22.6088L276.34 23.9992L281.972 29.8232L283.41 28.4328ZM277.059 24.304H289.731V22.304H277.059V24.304ZM289.731 24.304C292.495 24.304 294.747 23.7057 296.288 22.3193L294.95 20.8327C293.93 21.7503 292.257 22.304 289.731 22.304V24.304ZM296.276 22.3301C297.854 20.9556 298.603 19.0596 298.603 16.776H296.603C296.603 18.5884 296.029 19.8924 294.962 20.8219L296.276 22.3301ZM298.603 16.776C298.603 14.4571 297.858 12.5365 296.276 11.1579L294.962 12.6661C296.025 13.5915 296.603 14.9136 296.603 16.776H298.603ZM296.288 11.1687C294.747 9.78235 292.495 9.184 289.731 9.184V11.184C292.257 11.184 293.93 11.7377 294.95 12.6553L296.288 11.1687ZM289.731 9.184H277.059V11.184H289.731V9.184ZM277.778 10.8792L283.41 5.05515L281.972 3.66484L276.34 9.48884L277.778 10.8792ZM281.691 4.36V29.128H283.691V4.36H281.691ZM316.144 45H315.144V46H316.144V45ZM316.144 0.199997V-0.800003H315.144V0.199997H316.144ZM328.624 0.199997H329.624V-0.800003H328.624V0.199997ZM328.624 26.504H327.624V29.6647L329.442 27.0792L328.624 26.504ZM347.12 0.199997V-0.800003H346.6L346.302 -0.375201L347.12 0.199997ZM359.024 0.199997H360.024V-0.800003H359.024V0.199997ZM359.024 45V46H360.024V45H359.024ZM346.544 45H345.544V46H346.544V45ZM346.544 18.76H347.544V15.5967L345.725 18.1852L346.544 18.76ZM328.112 45V46H328.631L328.93 45.5748L328.112 45ZM317.144 45V0.199997H315.144V45H317.144ZM316.144 1.2H328.624V-0.800003H316.144V1.2ZM327.624 0.199997V26.504H329.624V0.199997H327.624ZM329.442 27.0792L347.938 0.775194L346.302 -0.375201L327.806 25.9288L329.442 27.0792ZM347.12 1.2H359.024V-0.800003H347.12V1.2ZM358.024 0.199997V45H360.024V0.199997H358.024ZM359.024 44H346.544V46H359.024V44ZM347.544 45V18.76H345.544V45H347.544ZM345.725 18.1852L327.293 44.4252L328.93 45.5748L347.362 19.3348L345.725 18.1852ZM328.112 44H316.144V46H328.112V44ZM393.668 45H392.668V46H393.668V45ZM393.668 31.112L394.325 30.3584L392.668 28.9126V31.112H393.668ZM396.676 33.736V34.736H399.343L397.333 32.9824L396.676 33.736ZM374.98 31.752L375.395 30.8421L375.395 30.8421L374.98 31.752ZM368.26 26.056L367.41 26.5834L367.417 26.5938L368.26 26.056ZM368.388 8.136L367.549 7.591L367.547 7.59452L368.388 8.136ZM375.364 2.248L374.953 1.3363L374.948 1.33852L375.364 2.248ZM406.148 0.199997H407.148V-0.800003H406.148V0.199997ZM406.148 45V46H407.148V45H406.148ZM366.084 45L365.261 44.4311L364.176 46H366.084V45ZM377.284 28.808V27.808H376.76L376.461 28.2391L377.284 28.808ZM390.02 28.808L390.856 29.3566L391.872 27.808H390.02V28.808ZM379.396 45V46H379.936L380.232 45.5486L379.396 45ZM393.668 27.08H392.668V29.5672L394.389 27.7722L393.668 27.08ZM393.668 7.048L394.389 6.35577L392.668 4.56083V7.048H393.668ZM396.676 10.184V11.184H399.021L397.397 9.49177L396.676 10.184ZM380.612 11.912L381.279 12.6566L381.281 12.6553L380.612 11.912ZM380.612 22.216L379.917 22.9354L379.93 22.9476L379.943 22.9593L380.612 22.216ZM396.676 23.944L397.397 24.6362L399.021 22.944H396.676V23.944ZM394.668 45V31.112H392.668V45H394.668ZM393.01 31.8656L396.018 34.4896L397.333 32.9824L394.325 30.3584L393.01 31.8656ZM396.676 32.736H385.348V34.736H396.676V32.736ZM385.348 32.736C381.444 32.736 378.137 32.0922 375.395 30.8421L374.565 32.6619C377.626 34.0572 381.23 34.736 385.348 34.736V32.736ZM375.395 30.8421C372.653 29.5923 370.569 27.816 369.103 25.5182L367.417 26.5938C369.108 29.2453 371.504 31.2664 374.565 32.6619L375.395 30.8421ZM369.109 25.5286C367.688 23.2378 366.956 20.4835 366.956 17.224H364.956C364.956 20.7912 365.76 23.9248 367.41 26.5834L369.109 25.5286ZM366.956 17.224C366.956 13.8391 367.729 11.0058 369.228 8.67748L367.547 7.59452C365.804 10.3009 364.956 13.5263 364.956 17.224H366.956ZM369.226 8.68099C370.779 6.29222 372.952 4.45011 375.78 3.15747L374.948 1.33852C371.802 2.77656 369.325 4.85977 367.549 7.59101L369.226 8.68099ZM375.775 3.15968C378.65 1.8639 382.046 1.2 385.988 1.2V-0.800003C381.823 -0.800003 378.137 -0.0985678 374.953 1.33632L375.775 3.15968ZM385.988 1.2H406.148V-0.800003H385.988V1.2ZM405.148 0.199997V45H407.148V0.199997H405.148ZM406.148 44H393.668V46H406.148V44ZM366.906 45.5689L378.106 29.3769L376.461 28.2391L365.261 44.4311L366.906 45.5689ZM377.284 29.808H390.02V27.808H377.284V29.808ZM389.184 28.2594L378.56 44.4514L380.232 45.5486L390.856 29.3566L389.184 28.2594ZM379.396 44H366.084V46H379.396V44ZM394.668 27.08V7.048H392.668V27.08H394.668ZM392.946 7.74022L395.954 10.8762L397.397 9.49177L394.389 6.35577L392.946 7.74022ZM396.676 9.184H386.244V11.184H396.676V9.184ZM386.244 9.184C383.629 9.184 381.473 9.79173 379.943 11.1687L381.281 12.6553C382.311 11.7283 383.909 11.184 386.244 11.184V9.184ZM379.944 11.1674C378.423 12.5311 377.756 14.5577 377.756 17.032H379.756C379.756 14.8983 380.326 13.5116 381.279 12.6566L379.944 11.1674ZM377.756 17.032C377.756 19.4755 378.429 21.4982 379.917 22.9354L381.306 21.4966C380.32 20.5444 379.756 19.1112 379.756 17.032H377.756ZM379.943 22.9593C381.467 24.3311 383.575 24.944 386.116 24.944V22.944C383.877 22.944 382.316 22.4049 381.281 21.4727L379.943 22.9593ZM386.116 24.944H396.676V22.944H386.116V24.944ZM395.954 23.2518L392.946 26.3878L394.389 27.7722L397.397 24.6362L395.954 23.2518Z" fill="white" fill-opacity="0.29" mask="url(#path-1-outside-1_323_7270)"/>
</svg>
