<svg width="160" height="50" viewBox="0 0 160 50" fill="none" xmlns="http://www.w3.org/2000/svg">
<mask id="path-1-outside-1_277_7777" maskUnits="userSpaceOnUse" x="-2" y="-1" width="164" height="52" fill="black">
<rect fill="white" x="-2" y="-1" width="164" height="52"/>
<path d="M47.4225 2.2L28.8625 36.824C26.8998 40.536 24.4892 43.352 21.6305 45.272C18.8145 47.192 15.7212 48.152 12.3505 48.152C9.87583 48.152 7.2305 47.5973 4.4145 46.488L7.4225 37.144C9.17183 37.656 10.6652 37.912 11.9025 37.912C13.1398 37.912 14.2278 37.6347 15.1665 37.08C16.1478 36.5253 17.0438 35.6507 17.8545 34.456L0.4465 2.2H13.8225L24.2545 23.832L35.0705 2.2H47.4225ZM106.031 24.472C106.031 30.3173 104.025 34.968 100.015 38.424C96.0465 41.8373 90.2865 43.7573 82.7345 44.184V49.112H71.1505V44.184C63.5985 43.6293 57.8172 41.6667 53.8065 38.296C49.8385 34.9253 47.8545 30.3173 47.8545 24.472C47.8545 18.6267 49.8385 14.0187 53.8065 10.648C57.7745 7.23467 63.5558 5.25067 71.1505 4.696V0.0879974H82.7345V4.696C90.2865 5.208 96.0465 7.17066 100.015 10.584C104.025 13.9547 106.031 18.584 106.031 24.472ZM82.7345 34.328C86.5318 33.9013 89.3052 32.8773 91.0545 31.256C92.8465 29.6347 93.7425 27.352 93.7425 24.408C93.7425 21.464 92.8252 19.2027 90.9905 17.624C89.1985 16.0453 86.4465 15.0427 82.7345 14.616V34.328ZM60.1425 24.472C60.1425 27.3733 61.0598 29.6133 62.8945 31.192C64.7292 32.7707 67.4812 33.7947 71.1505 34.264V14.616C67.3105 15.0427 64.5158 16.0453 62.7665 17.624C61.0172 19.2027 60.1425 21.4853 60.1425 24.472ZM142.9 38.296H123.956L120.436 47H107.508L127.284 2.2H139.764L159.604 47H146.42L142.9 38.296ZM139.188 28.952L133.428 14.616L127.668 28.952H139.188Z"/>
</mask>
<path d="M47.4225 2.2L48.3039 2.67245L49.0932 1.2H47.4225V2.2ZM28.8625 36.824L27.9811 36.3515L27.9785 36.3566L28.8625 36.824ZM21.6305 45.272L21.0729 44.4418L21.0672 44.4458L21.6305 45.272ZM4.4145 46.488L3.46261 46.1816L3.17514 47.0746L4.04798 47.4184L4.4145 46.488ZM7.4225 37.144L7.7034 36.1843L6.76896 35.9108L6.47061 36.8376L7.4225 37.144ZM15.1665 37.08L14.6744 36.2094L14.6661 36.2142L14.6578 36.2191L15.1665 37.08ZM17.8545 34.456L18.682 35.0175L19.0228 34.5152L18.7345 33.9811L17.8545 34.456ZM0.446501 2.2V1.2H-1.22952L-0.433522 2.67493L0.446501 2.2ZM13.8225 2.2L14.7232 1.76562L14.4505 1.2H13.8225V2.2ZM24.2545 23.832L23.3538 24.2664L24.2383 26.1005L25.1489 24.2792L24.2545 23.832ZM35.0705 2.2V1.2H34.4525L34.1761 1.75278L35.0705 2.2ZM46.5411 1.72755L27.9811 36.3516L29.7439 37.2964L48.3039 2.67245L46.5411 1.72755ZM27.9785 36.3566C26.0762 39.9543 23.7675 42.6321 21.0729 44.4419L22.1881 46.1021C25.2108 44.0719 27.7234 41.1177 29.7465 37.2914L27.9785 36.3566ZM21.0672 44.4458C18.4152 46.2539 15.5178 47.152 12.3505 47.152V49.152C15.9245 49.152 19.2138 48.1301 22.1938 46.0982L21.0672 44.4458ZM12.3505 47.152C10.0258 47.152 7.50555 46.6309 4.78102 45.5576L4.04798 47.4184C6.95545 48.5638 9.72582 49.152 12.3505 49.152V47.152ZM5.36639 46.7944L8.37439 37.4504L6.47061 36.8376L3.46261 46.1816L5.36639 46.7944ZM7.1416 38.1037C8.94336 38.6311 10.5367 38.912 11.9025 38.912V36.912C10.7936 36.912 9.40031 36.6809 7.7034 36.1843L7.1416 38.1037ZM11.9025 38.912C13.2942 38.912 14.5626 38.5984 15.6752 37.9409L14.6578 36.2191C13.8931 36.6709 12.9855 36.912 11.9025 36.912V38.912ZM15.6586 37.9506C16.8063 37.3019 17.8083 36.305 18.682 35.0175L17.027 33.8945C16.2793 34.9964 15.4894 35.7488 14.6744 36.2094L15.6586 37.9506ZM18.7345 33.9811L1.32652 1.72507L-0.433522 2.67493L16.9745 34.9309L18.7345 33.9811ZM0.446501 3.2H13.8225V1.2H0.446501V3.2ZM12.9218 2.63437L23.3538 24.2664L25.1552 23.3976L14.7232 1.76562L12.9218 2.63437ZM25.1489 24.2792L35.9649 2.64721L34.1761 1.75278L23.3601 23.3848L25.1489 24.2792ZM35.0705 3.2H47.4225V1.2H35.0705V3.2ZM100.015 38.424L100.667 39.1821L100.667 39.1815L100.015 38.424ZM82.7345 44.184L82.6781 43.1856L81.7345 43.2389V44.184H82.7345ZM82.7345 49.112V50.112H83.7345V49.112H82.7345ZM71.1505 49.112H70.1505V50.112H71.1505V49.112ZM71.1505 44.184H72.1505V43.2548L71.2237 43.1867L71.1505 44.184ZM53.8065 38.296L53.1591 39.0582L53.1631 39.0615L53.8065 38.296ZM53.8065 10.648L54.4539 11.4102L54.4586 11.4061L53.8065 10.648ZM71.1505 4.696L71.2233 5.69334L72.1505 5.62563V4.696H71.1505ZM71.1505 0.0879974V-0.912003H70.1505V0.0879974H71.1505ZM82.7345 0.0879974H83.7345V-0.912003H82.7345V0.0879974ZM82.7345 4.696H81.7345V5.6305L82.6669 5.69371L82.7345 4.696ZM100.015 10.584L99.3623 11.3422L99.3711 11.3495L100.015 10.584ZM82.7345 34.328H81.7345V35.4467L82.8462 35.3217L82.7345 34.328ZM91.0545 31.256L90.3835 30.5144L90.3747 30.5226L91.0545 31.256ZM90.9905 17.624L90.3294 18.3744L90.3383 18.382L90.9905 17.624ZM82.7345 14.616L82.8487 13.6225L81.7345 13.4945V14.616H82.7345ZM62.8945 31.192L62.2423 31.95V31.95L62.8945 31.192ZM71.1505 34.264L71.0236 35.2559L72.1505 35.4001V34.264H71.1505ZM71.1505 14.616H72.1505V13.4987L71.0401 13.6221L71.1505 14.616ZM62.7665 17.624L62.0965 16.8816L62.7665 17.624ZM105.031 24.472C105.031 30.0604 103.127 34.4216 99.3617 37.6665L100.667 39.1815C104.923 35.5144 107.031 30.5743 107.031 24.472H105.031ZM99.3624 37.6659C95.6209 40.8844 90.105 42.766 82.6781 43.1856L82.7909 45.1824C90.468 44.7487 96.4721 42.7903 100.667 39.1821L99.3624 37.6659ZM81.7345 44.184V49.112H83.7345V44.184H81.7345ZM82.7345 48.112H71.1505V50.112H82.7345V48.112ZM72.1505 49.112V44.184H70.1505V49.112H72.1505ZM71.2237 43.1867C63.7918 42.6408 58.2423 40.7177 54.4499 37.5305L53.1631 39.0615C57.3921 42.6157 63.4052 44.6178 71.0773 45.1813L71.2237 43.1867ZM54.4539 37.5339C50.7387 34.3779 48.8545 30.0643 48.8545 24.472H46.8545C46.8545 30.5704 48.9383 35.4728 53.1591 39.0581L54.4539 37.5339ZM48.8545 24.472C48.8545 18.8797 50.7387 14.5661 54.4539 11.4101L53.1591 9.88586C48.9383 13.4712 46.8545 18.3736 46.8545 24.472H48.8545ZM54.4586 11.4061C58.2052 8.18324 63.749 6.23922 71.2233 5.69334L71.0777 3.69866C63.3626 4.26211 57.3438 6.28609 53.1544 9.88989L54.4586 11.4061ZM72.1505 4.696V0.0879974H70.1505V4.696H72.1505ZM71.1505 1.088H82.7345V-0.912003H71.1505V1.088ZM81.7345 0.0879974V4.696H83.7345V0.0879974H81.7345ZM82.6669 5.69371C90.096 6.19738 95.6169 8.12017 99.3624 11.3421L100.667 9.8259C96.4761 6.22116 90.477 4.21862 82.8021 3.69829L82.6669 5.69371ZM99.3711 11.3495C103.126 14.5053 105.031 18.8382 105.031 24.472H107.031C107.031 18.3298 104.924 13.4041 100.658 9.81845L99.3711 11.3495ZM82.8462 35.3217C86.7377 34.8845 89.7591 33.82 91.7343 31.9894L90.3747 30.5226C88.8512 31.9346 86.3259 32.9182 82.6228 33.3343L82.8462 35.3217ZM91.7254 31.9975C93.7718 30.146 94.7425 27.5678 94.7425 24.408H92.7425C92.7425 27.1362 91.9212 29.1233 90.3836 30.5145L91.7254 31.9975ZM94.7425 24.408C94.7425 21.2416 93.7455 18.6753 91.6427 16.866L90.3383 18.382C91.9048 19.73 92.7425 21.6864 92.7425 24.408H94.7425ZM91.6515 16.8736C89.6421 15.1034 86.6574 14.0603 82.8487 13.6225L82.6203 15.6095C86.2356 16.025 88.7549 16.9873 90.3295 18.3744L91.6515 16.8736ZM81.7345 14.616V34.328H83.7345V14.616H81.7345ZM59.1425 24.472C59.1425 27.6011 60.1428 30.1435 62.2423 31.95L63.5467 30.434C61.9768 29.0831 61.1425 27.1456 61.1425 24.472H59.1425ZM62.2423 31.95C64.2845 33.7073 67.2555 34.774 71.0236 35.2559L71.2774 33.2721C67.7068 32.8154 65.1738 31.834 63.5467 30.434L62.2423 31.95ZM72.1505 34.264V14.616H70.1505V34.264H72.1505ZM71.0401 13.6221C67.1133 14.0584 64.0726 15.0983 62.0965 16.8816L63.4365 18.3664C64.9591 16.9923 67.5077 16.0269 71.2609 15.6099L71.0401 13.6221ZM62.0965 16.8816C60.0837 18.6981 59.1425 21.2832 59.1425 24.472H61.1425C61.1425 21.6874 61.9506 19.7073 63.4365 18.3664L62.0965 16.8816ZM142.9 38.296L143.827 37.9211L143.574 37.296H142.9V38.296ZM123.956 38.296V37.296H123.281L123.028 37.9211L123.956 38.296ZM120.436 47V48H121.11L121.363 47.3749L120.436 47ZM107.507 47L106.593 46.5962L105.973 48H107.507V47ZM127.284 2.2V1.2H126.632L126.369 1.79616L127.284 2.2ZM139.764 2.2L140.678 1.79507L140.414 1.2H139.764V2.2ZM159.604 47V48H161.14L160.518 46.5951L159.604 47ZM146.419 47L145.492 47.3749L145.745 48H146.419V47ZM139.188 28.952V29.952H140.667L140.115 28.5792L139.188 28.952ZM133.428 14.616L134.355 14.2432L133.428 11.9337L132.5 14.2432L133.428 14.616ZM127.667 28.952L126.74 28.5792L126.188 29.952H127.667V28.952ZM142.9 37.296H123.956V39.296H142.9V37.296ZM123.028 37.9211L119.508 46.6251L121.363 47.3749L124.883 38.6709L123.028 37.9211ZM120.436 46H107.507V48H120.436V46ZM108.422 47.4038L128.198 2.60383L126.369 1.79616L106.593 46.5962L108.422 47.4038ZM127.284 3.2H139.764V1.2H127.284V3.2ZM138.849 2.60492L158.689 47.4049L160.518 46.5951L140.678 1.79507L138.849 2.60492ZM159.604 46H146.419V48H159.604V46ZM147.347 46.6251L143.827 37.9211L141.972 38.6709L145.492 47.3749L147.347 46.6251ZM140.115 28.5792L134.355 14.2432L132.5 14.9888L138.26 29.3248L140.115 28.5792ZM132.5 14.2432L126.74 28.5792L128.595 29.3248L134.355 14.9888L132.5 14.2432ZM127.667 29.952H139.188V27.952H127.667V29.952Z" fill="white" fill-opacity="0.29" mask="url(#path-1-outside-1_277_7777)"/>
</svg>
